<svg version="1.1" viewBox="0.0 0.0 567.0 368.0" fill="none" stroke="none" stroke-linecap="square" stroke-miterlimit="10" xmlns:xlink="http://www.w3.org/1999/xlink" xmlns="http://www.w3.org/2000/svg"><clipPath id="p.0"><path d="m0 0l567.0 0l0 368.0l-567.0 0l0 -368.0z" clip-rule="nonzero"/></clipPath><g clip-path="url(#p.0)"><path fill="#000000" fill-opacity="0.0" d="m0 0l567.0 0l0 368.0l-567.0 0z" fill-rule="evenodd"/><path fill="#f3f3f3" d="m0 0l568.0 0l0 368.0l-568.0 0z" fill-rule="evenodd"/><path fill="#ffffff" d="m400.0 112.0l152.0 0l0 200.0l-152.0 0z" fill-rule="evenodd"/><path fill="#000000" fill-opacity="0.0" d="m552.0 112.0l-152.0 0l0 200.0l152.0 0" fill-rule="evenodd"/><path stroke="#000000" stroke-width="2.0" stroke-linejoin="round" stroke-linecap="butt" d="m552.0 112.0l-152.0 0l0 200.0l152.0 0" fill-rule="evenodd"/><path fill="#ffffff" d="m395.75 144.0l8.0 0l0 24.0l-8.0 0z" fill-rule="evenodd"/><path stroke="#000000" stroke-width="1.0" stroke-linejoin="round" stroke-linecap="butt" d="m395.75 144.0l8.0 0l0 24.0l-8.0 0z" fill-rule="evenodd"/><path fill="#ffffff" d="m395.75 200.0l8.0 0l0 24.0l-8.0 0z" fill-rule="evenodd"/><path stroke="#000000" stroke-width="1.0" stroke-linejoin="round" stroke-linecap="butt" d="m395.75 200.0l8.0 0l0 24.0l-8.0 0z" fill-rule="evenodd"/><path fill="#ffffff" d="m396.0 256.0l8.0 0l0 24.0l-8.0 0z" fill-rule="evenodd"/><path stroke="#000000" stroke-width="1.0" stroke-linejoin="round" stroke-linecap="butt" d="m396.0 256.0l8.0 0l0 24.0l-8.0 0z" fill-rule="evenodd"/><path fill="#000000" fill-opacity="0.0" d="m480.0 312.0l12.0 -16.0l12.0 16.0z" fill-rule="evenodd"/><path stroke="#000000" stroke-width="1.0" stroke-linejoin="round" stroke-linecap="butt" d="m480.0 312.0l12.0 -16.0l12.0 16.0z" fill-rule="evenodd"/><path fill="#ffffff" d="m88.0 312.0l64.0 0l0 48.0l-64.0 0z" fill-rule="evenodd"/><path stroke="#000000" stroke-width="2.0" stroke-linejoin="round" stroke-linecap="butt" d="m88.0 312.0l64.0 0l0 48.0l-64.0 0z" fill-rule="evenodd"/><path fill="#000000" d="m104.84 342.91998l0 -13.359375l5.046875 0q1.328125 0 2.03125 0.125q0.96875 0.171875 1.640625 0.640625q0.671875 0.453125 1.078125 1.28125q0.40625 0.828125 0.40625 1.828125q0 1.703125 -1.09375 2.890625q-1.078125 1.171875 -3.921875 1.171875l-3.421875 0l0 5.421875l-1.765625 0zm1.765625 -7.0l3.453125 0q1.71875 0 2.4375 -0.640625q0.71875 -0.640625 0.71875 -1.796875q0 -0.84375 -0.421875 -1.4375q-0.421875 -0.59375 -1.125 -0.78125q-0.4375 -0.125 -1.640625 -0.125l-3.421875 0l0 4.78125zm10.599823 7.0l0 -13.359375l1.78125 0l0 11.78125l6.5625 0l0 1.578125l-8.34375 0zm10.375717 0l0 -13.359375l1.78125 0l0 11.78125l6.5625 0l0 1.578125l-8.34375 0z" fill-rule="nonzero"/><path fill="#ffffff" d="m88.0 328.0l8.0 8.0l-8.0 8.0z" fill-rule="evenodd"/><path stroke="#000000" stroke-width="1.0" stroke-linejoin="round" stroke-linecap="butt" d="m88.0 328.0l8.0 8.0l-8.0 8.0z" fill-rule="evenodd"/><path fill="#000000" fill-opacity="0.0" d="m344.0 212.0l51.748016 0" fill-rule="evenodd"/><path stroke="#000000" stroke-width="1.0" stroke-linejoin="round" stroke-linecap="butt" d="m344.0 212.0l45.748016 0" fill-rule="evenodd"/><path fill="#000000" stroke="#000000" stroke-width="1.0" stroke-linecap="butt" d="m389.74805 213.65173l4.538086 -1.6517334l-4.538086 -1.6517334z" fill-rule="evenodd"/><path fill="#000000" fill-opacity="0.0" d="m272.25 156.0l61.75049 0l0 0.06298828l61.745575 0" fill-rule="evenodd"/><path stroke="#000000" stroke-width="1.0" stroke-linejoin="round" stroke-linecap="butt" d="m272.25 156.0l61.75049 0l0 0.06298828l55.745575 0" fill-rule="evenodd"/><path fill="#000000" stroke="#000000" stroke-width="1.0" stroke-linecap="butt" d="m389.74606 157.71472l4.538086 -1.6517334l-4.538086 -1.6517334z" fill-rule="evenodd"/><path fill="#000000" fill-opacity="0.0" d="m272.25 180.0l23.87497 0l0 24.0l23.873047 0" fill-rule="evenodd"/><path stroke="#000000" stroke-width="1.0" stroke-linejoin="round" stroke-linecap="butt" d="m272.25 180.0l23.87497 0l0 24.0l23.873047 0" fill-rule="evenodd"/><path fill="#000000" fill-opacity="0.0" d="m224.0 244.0l72.50113 0l0 -24.0l23.49887 0" fill-rule="evenodd"/><path stroke="#000000" stroke-width="1.0" stroke-linejoin="round" stroke-linecap="butt" d="m224.0 244.0l72.50113 0l0 -24.0l23.49887 0" fill-rule="evenodd"/><path fill="#b7b7b7" d="m320.0 200.0l8.0 0l0 8.0l-8.0 0z" fill-rule="evenodd"/><path stroke="#000000" stroke-width="1.0" stroke-linejoin="round" stroke-linecap="butt" d="m320.0 200.0l8.0 0l0 8.0l-8.0 0z" fill-rule="evenodd"/><path fill="#b7b7b7" d="m320.0 216.0l8.0 0l0 8.0l-8.0 0z" fill-rule="evenodd"/><path stroke="#000000" stroke-width="1.0" stroke-linejoin="round" stroke-linecap="butt" d="m320.0 216.0l8.0 0l0 8.0l-8.0 0z" fill-rule="evenodd"/><path fill="#b7b7b7" d="m320.0 200.0l12.0 0l0 0c6.627411 0 12.0 5.372589 12.0 12.0c0 6.627411 -5.372589 12.0 -12.0 12.0l-12.0 0z" fill-rule="evenodd"/><path stroke="#000000" stroke-width="1.0" stroke-linejoin="round" stroke-linecap="butt" d="m320.0 200.0l12.0 0l0 0c6.627411 0 12.0 5.372589 12.0 12.0c0 6.627411 -5.372589 12.0 -12.0 12.0l-12.0 0z" fill-rule="evenodd"/><path fill="#000000" fill-opacity="0.0" d="m224.0 268.0l86.0 0l0 0.06298828l86.0 0" fill-rule="evenodd"/><path stroke="#000000" stroke-width="1.0" stroke-linejoin="round" stroke-linecap="butt" d="m224.0 268.0l86.0 0l0 0.06298828l80.0 0" fill-rule="evenodd"/><path fill="#000000" stroke="#000000" stroke-width="1.0" stroke-linecap="butt" d="m390.0 269.71472l4.538086 -1.6517334l-4.538086 -1.6517334z" fill-rule="evenodd"/><path fill="#ffffff" d="m204.25 144.0l64.0 0l0 48.0l-64.0 0z" fill-rule="evenodd"/><path stroke="#000000" stroke-width="2.0" stroke-linejoin="round" stroke-linecap="butt" d="m204.25 144.0l64.0 0l0 48.0l-64.0 0z" fill-rule="evenodd"/><path fill="#000000" d="m235.27821 174.92l-5.171875 -13.359375l1.921875 0l3.46875 9.703125q0.421875 1.171875 0.703125 2.1875q0.3125 -1.09375 0.71875 -2.1875l3.609375 -9.703125l1.796875 0l-5.234375 13.359375l-1.8125 0z" fill-rule="nonzero"/><path fill="#ffffff" d="m228.25 192.0l8.0 -8.0l8.0 8.0z" fill-rule="evenodd"/><path stroke="#000000" stroke-width="1.0" stroke-linejoin="round" stroke-linecap="butt" d="m228.25 192.0l8.0 -8.0l8.0 8.0z" fill-rule="evenodd"/><path fill="#ffffff" d="m200.0 152.0l8.0 0l0 8.0l-8.0 0z" fill-rule="evenodd"/><path stroke="#000000" stroke-width="1.0" stroke-linejoin="round" stroke-linecap="butt" d="m200.0 152.0l8.0 0l0 8.0l-8.0 0z" fill-rule="evenodd"/><path fill="#ffffff" d="m264.25 176.0l8.0 0l0 8.0l-8.0 0z" fill-rule="evenodd"/><path stroke="#000000" stroke-width="1.0" stroke-linejoin="round" stroke-linecap="butt" d="m264.25 176.0l8.0 0l0 8.0l-8.0 0z" fill-rule="evenodd"/><path fill="#ffffff" d="m264.25 152.0l8.0 0l0 8.0l-8.0 0z" fill-rule="evenodd"/><path stroke="#000000" stroke-width="1.0" stroke-linejoin="round" stroke-linecap="butt" d="m264.25 152.0l8.0 0l0 8.0l-8.0 0z" fill-rule="evenodd"/><path fill="#000000" fill-opacity="0.0" d="m152.0 336.0l36.0 0l0 -56.0" fill-rule="evenodd"/><path stroke="#000000" stroke-width="1.0" stroke-linejoin="round" stroke-linecap="butt" d="m152.0 336.0l36.0 0l0 -56.0" fill-rule="evenodd"/><path fill="#000000" fill-opacity="0.0" d="m492.0 312.0l0 24.0l-340.0 0" fill-rule="evenodd"/><path stroke="#000000" stroke-width="1.0" stroke-linejoin="round" stroke-linecap="butt" d="m492.0 312.0l0 24.0l-340.0 0" fill-rule="evenodd"/><path fill="#000000" fill-opacity="0.0" d="m240.0 248.0l56.0 0l0 29.070862l-56.0 0z" fill-rule="evenodd"/><path fill="#000000" d="m249.53125 264.68l0 -5.734375l0.703125 0l0 2.0625q0.484375 -0.578125 1.234375 -0.578125q0.46875 0 0.796875 0.1875q0.34375 0.1875 0.484375 0.515625q0.15625 0.3125 0.15625 0.921875l0 2.625l-0.703125 0l0 -2.625q0 -0.53125 -0.234375 -0.765625q-0.21875 -0.25 -0.640625 -0.25q-0.3125 0 -0.59375 0.171875q-0.265625 0.15625 -0.390625 0.4375q-0.109375 0.265625 -0.109375 0.765625l0 2.265625l-0.703125 0zm4.1679688 -1.234375l0.6875 -0.109375q0.0625 0.40625 0.328125 0.640625q0.265625 0.21875 0.75 0.21875q0.484375 0 0.71875 -0.1875q0.234375 -0.203125 0.234375 -0.46875q0 -0.25 -0.203125 -0.375q-0.140625 -0.09375 -0.71875 -0.25q-0.78125 -0.1875 -1.078125 -0.328125q-0.296875 -0.140625 -0.453125 -0.390625q-0.15625 -0.265625 -0.15625 -0.5625q0 -0.28125 0.125 -0.515625q0.140625 -0.234375 0.359375 -0.390625q0.15625 -0.125 0.4375 -0.203125q0.28125 -0.09375 0.609375 -0.09375q0.484375 0 0.859375 0.140625q0.375 0.140625 0.546875 0.390625q0.171875 0.234375 0.234375 0.640625l-0.6875 0.09375q-0.046875 -0.328125 -0.265625 -0.5q-0.21875 -0.1875 -0.640625 -0.1875q-0.484375 0 -0.6875 0.171875q-0.203125 0.15625 -0.203125 0.375q0 0.125 0.078125 0.234375q0.09375 0.125 0.28125 0.1875q0.09375 0.046875 0.609375 0.1875q0.75 0.203125 1.046875 0.328125q0.296875 0.125 0.453125 0.375q0.171875 0.234375 0.171875 0.59375q0 0.34375 -0.203125 0.65625q-0.203125 0.3125 -0.59375 0.484375q-0.375 0.171875 -0.875 0.171875q-0.796875 0 -1.234375 -0.328125q-0.421875 -0.34375 -0.53125 -1.0zm4.25 2.828125l-0.078125 -0.65625q0.234375 0.0625 0.40625 0.0625q0.234375 0 0.375 -0.078125q0.140625 -0.078125 0.21875 -0.21875q0.078125 -0.109375 0.21875 -0.515625q0.015625 -0.0625 0.0625 -0.171875l-1.578125 -4.171875l0.765625 0l0.859375 2.40625q0.171875 0.453125 0.296875 0.96875q0.125 -0.484375 0.296875 -0.953125l0.890625 -2.421875l0.703125 0l-1.578125 4.234375q-0.265625 0.671875 -0.40625 0.9375q-0.1875 0.34375 -0.4375 0.5q-0.234375 0.171875 -0.5625 0.171875q-0.203125 0 -0.453125 -0.09375zm4.03125 -1.59375l0 -4.15625l0.625 0l0 0.59375q0.46875 -0.6875 1.328125 -0.6875q0.375 0 0.6875 0.140625q0.3125 0.140625 0.46875 0.359375q0.15625 0.21875 0.21875 0.515625q0.046875 0.1875 0.046875 0.6875l0 2.546875l-0.703125 0l0 -2.53125q0 -0.421875 -0.09375 -0.625q-0.078125 -0.21875 -0.296875 -0.34375q-0.203125 -0.140625 -0.484375 -0.140625q-0.4375 0 -0.765625 0.296875q-0.328125 0.28125 -0.328125 1.078125l0 2.265625l-0.703125 0zm7.1523438 -1.515625l0.6875 0.078125q-0.109375 0.71875 -0.578125 1.125q-0.46875 0.40625 -1.140625 0.40625q-0.859375 0 -1.375 -0.546875q-0.515625 -0.5625 -0.515625 -1.609375q0 -0.671875 0.21875 -1.171875q0.234375 -0.5 0.6875 -0.75q0.453125 -0.265625 0.984375 -0.265625q0.671875 0 1.09375 0.34375q0.4375 0.34375 0.5625 0.96875l-0.6875 0.109375q-0.09375 -0.421875 -0.34375 -0.625q-0.25 -0.21875 -0.59375 -0.21875q-0.53125 0 -0.875 0.390625q-0.328125 0.375 -0.328125 1.203125q0 0.828125 0.3125 1.21875q0.328125 0.375 0.84375 0.375q0.421875 0 0.6875 -0.25q0.28125 -0.265625 0.359375 -0.78125z" fill-rule="nonzero"/><path fill="#000000" fill-opacity="0.0" d="m272.0 136.0l56.0 0l0 33.921265l-56.0 0z" fill-rule="evenodd"/><path fill="#000000" d="m282.6875 152.68l-1.578125 -4.15625l0.734375 0l0.890625 2.484375q0.140625 0.40625 0.265625 0.84375q0.09375 -0.328125 0.265625 -0.796875l0.921875 -2.53125l0.71875 0l-1.5625 4.15625l-0.65625 0zm2.5625 -1.234375l0.6875 -0.109375q0.0625 0.40625 0.328125 0.640625q0.265625 0.21875 0.75 0.21875q0.484375 0 0.71875 -0.1875q0.234375 -0.203125 0.234375 -0.46875q0 -0.25 -0.203125 -0.375q-0.140625 -0.09375 -0.71875 -0.25q-0.78125 -0.1875 -1.078125 -0.328125q-0.296875 -0.140625 -0.453125 -0.390625q-0.15625 -0.265625 -0.15625 -0.5625q0 -0.28125 0.125 -0.515625q0.140625 -0.234375 0.359375 -0.390625q0.15625 -0.125 0.4375 -0.203125q0.28125 -0.09375 0.609375 -0.09375q0.484375 0 0.859375 0.140625q0.375 0.140625 0.546875 0.390625q0.171875 0.234375 0.234375 0.640625l-0.6875 0.09375q-0.046875 -0.328125 -0.265625 -0.5q-0.21875 -0.1875 -0.640625 -0.1875q-0.484375 0 -0.6875 0.171875q-0.203125 0.15625 -0.203125 0.375q0 0.125 0.078125 0.234375q0.09375 0.125 0.28125 0.1875q0.09375 0.046875 0.609375 0.1875q0.75 0.203125 1.046875 0.328125q0.296875 0.125 0.453125 0.375q0.171875 0.234375 0.171875 0.59375q0 0.34375 -0.203125 0.65625q-0.203125 0.3125 -0.59375 0.484375q-0.375 0.171875 -0.875 0.171875q-0.796875 0 -1.234375 -0.328125q-0.421875 -0.34375 -0.53125 -1.0zm4.25 2.828125l-0.078125 -0.65625q0.234375 0.0625 0.40625 0.0625q0.234375 0 0.375 -0.078125q0.140625 -0.078125 0.21875 -0.21875q0.078125 -0.109375 0.21875 -0.515625q0.015625 -0.0625 0.0625 -0.171875l-1.578125 -4.171875l0.765625 0l0.859375 2.40625q0.171875 0.453125 0.296875 0.96875q0.125 -0.484375 0.296875 -0.953125l0.890625 -2.421875l0.703125 0l-1.578125 4.234375q-0.265625 0.671875 -0.40625 0.9375q-0.1875 0.34375 -0.4375 0.5q-0.234375 0.171875 -0.5625 0.171875q-0.203125 0 -0.453125 -0.09375zm4.03125 -1.59375l0 -4.15625l0.625 0l0 0.59375q0.46875 -0.6875 1.328125 -0.6875q0.375 0 0.6875 0.140625q0.3125 0.140625 0.46875 0.359375q0.15625 0.21875 0.21875 0.515625q0.046875 0.1875 0.046875 0.6875l0 2.546875l-0.703125 0l0 -2.53125q0 -0.421875 -0.09375 -0.625q-0.078125 -0.21875 -0.296875 -0.34375q-0.203125 -0.140625 -0.484375 -0.140625q-0.4375 0 -0.765625 0.296875q-0.328125 0.28125 -0.328125 1.078125l0 2.265625l-0.703125 0zm7.1523438 -1.515625l0.6875 0.078125q-0.109375 0.71875 -0.578125 1.125q-0.46875 0.40625 -1.140625 0.40625q-0.859375 0 -1.375 -0.546875q-0.515625 -0.5625 -0.515625 -1.609375q0 -0.671875 0.21875 -1.171875q0.234375 -0.5 0.6875 -0.75q0.453125 -0.265625 0.984375 -0.265625q0.671875 0 1.09375 0.34375q0.4375 0.34375 0.5625 0.96875l-0.6875 0.109375q-0.09375 -0.421875 -0.34375 -0.625q-0.25 -0.21875 -0.59375 -0.21875q-0.53125 0 -0.875 0.390625q-0.328125 0.375 -0.328125 1.203125q0 0.828125 0.3125 1.21875q0.328125 0.375 0.84375 0.375q0.421875 0 0.6875 -0.25q0.28125 -0.265625 0.359375 -0.78125z" fill-rule="nonzero"/><path fill="#000000" fill-opacity="0.0" d="m464.0 189.98425l72.0 0l0 42.015747l-72.0 0z" fill-rule="evenodd"/><path fill="#000000" d="m474.35938 216.90425l0 -13.359375l1.78125 0l0 11.78125l6.5625 0l0 1.578125l-8.34375 0zm19.985107 -4.6875l1.765625 0.453125q-0.5625 2.171875 -2.0 3.328125q-1.4375 1.140625 -3.53125 1.140625q-2.15625 0 -3.515625 -0.875q-1.34375 -0.890625 -2.0625 -2.546875q-0.703125 -1.671875 -0.703125 -3.59375q0 -2.078125 0.796875 -3.625q0.796875 -1.5625 2.265625 -2.359375q1.484375 -0.8125 3.25 -0.8125q2.0 0 3.359375 1.015625q1.375 1.015625 1.90625 2.875l-1.734375 0.40625q-0.46875 -1.453125 -1.359375 -2.109375q-0.875 -0.671875 -2.203125 -0.671875q-1.546875 0 -2.578125 0.734375q-1.03125 0.734375 -1.453125 1.984375q-0.421875 1.234375 -0.421875 2.5625q0 1.703125 0.5 2.96875q0.5 1.265625 1.546875 1.90625q1.046875 0.625 2.265625 0.625q1.484375 0 2.515625 -0.859375q1.03125 -0.859375 1.390625 -2.546875zm3.941681 4.6875l0 -13.359375l4.609375 0q1.546875 0 2.375 0.203125q1.140625 0.25 1.953125 0.953125q1.0625 0.890625 1.578125 2.28125q0.53125 1.390625 0.53125 3.171875q0 1.515625 -0.359375 2.703125q-0.359375 1.171875 -0.921875 1.9375q-0.546875 0.765625 -1.203125 1.21875q-0.65625 0.4375 -1.59375 0.671875q-0.9375 0.21875 -2.140625 0.21875l-4.828125 0zm1.765625 -1.578125l2.859375 0q1.3125 0 2.0625 -0.234375q0.75 -0.25 1.203125 -0.703125q0.625 -0.625 0.96875 -1.6875q0.359375 -1.0625 0.359375 -2.578125q0 -2.09375 -0.6875 -3.21875q-0.6875 -1.125 -1.671875 -1.5q-0.703125 -0.28125 -2.28125 -0.28125l-2.8125 0l0 10.203125z" fill-rule="nonzero"/><path fill="#000000" fill-opacity="0.0" d="m152.0 314.92914l56.0 0l0 29.070862l-56.0 0z" fill-rule="evenodd"/><path fill="#000000" d="m164.23438 330.0935l0.6875 0.078125q-0.109375 0.71875 -0.578125 1.125q-0.46875 0.40625 -1.140625 0.40625q-0.859375 0 -1.375 -0.546875q-0.515625 -0.5625 -0.515625 -1.609375q0 -0.671875 0.21875 -1.171875q0.234375 -0.5 0.6875 -0.75q0.453125 -0.265625 0.984375 -0.265625q0.671875 0 1.09375 0.34375q0.4375 0.34375 0.5625 0.96875l-0.6875 0.109375q-0.09375 -0.421875 -0.34375 -0.625q-0.25 -0.21875 -0.59375 -0.21875q-0.53125 0 -0.875 0.390625q-0.328125 0.375 -0.328125 1.203125q0 0.828125 0.3125 1.21875q0.328125 0.375 0.84375 0.375q0.421875 0 0.6875 -0.25q0.28125 -0.265625 0.359375 -0.78125zm1.28125 1.515625l0 -5.734375l0.703125 0l0 5.734375l-0.703125 0zm1.7929688 0l0 -5.734375l0.703125 0l0 3.265625l1.671875 -1.6875l0.90625 0l-1.59375 1.546875l1.75 2.609375l-0.859375 0l-1.375 -2.125l-0.5 0.484375l0 1.640625l-0.703125 0z" fill-rule="nonzero"/><path fill="#000000" fill-opacity="0.0" d="m240.0 224.0l56.0 0l0 29.070862l-56.0 0z" fill-rule="evenodd"/><path fill="#000000" d="m249.53125 240.68l0 -5.734375l0.703125 0l0 2.0625q0.484375 -0.578125 1.234375 -0.578125q0.46875 0 0.796875 0.1875q0.34375 0.1875 0.484375 0.515625q0.15625 0.3125 0.15625 0.921875l0 2.625l-0.703125 0l0 -2.625q0 -0.53125 -0.234375 -0.765625q-0.21875 -0.25 -0.640625 -0.25q-0.3125 0 -0.59375 0.171875q-0.265625 0.15625 -0.390625 0.4375q-0.109375 0.265625 -0.109375 0.765625l0 2.265625l-0.703125 0zm7.2929688 -1.34375l0.71875 0.09375q-0.171875 0.640625 -0.640625 1.0q-0.453125 0.34375 -1.1875 0.34375q-0.90625 0 -1.4375 -0.5625q-0.53125 -0.5625 -0.53125 -1.578125q0 -1.046875 0.53125 -1.625q0.546875 -0.578125 1.40625 -0.578125q0.828125 0 1.359375 0.578125q0.53125 0.5625 0.53125 1.59375q0 0.0625 -0.015625 0.1875l-3.09375 0q0.046875 0.671875 0.390625 1.046875q0.34375 0.359375 0.875 0.359375q0.375 0 0.640625 -0.203125q0.28125 -0.203125 0.453125 -0.65625zm-2.3125 -1.125l2.3125 0q-0.046875 -0.53125 -0.265625 -0.796875q-0.328125 -0.40625 -0.875 -0.40625q-0.484375 0 -0.8125 0.328125q-0.328125 0.328125 -0.359375 0.875zm3.9179688 2.46875l0 -4.15625l0.625 0l0 0.59375q0.46875 -0.6875 1.328125 -0.6875q0.375 0 0.6875 0.140625q0.3125 0.140625 0.46875 0.359375q0.15625 0.21875 0.21875 0.515625q0.046875 0.1875 0.046875 0.6875l0 2.546875l-0.703125 0l0 -2.53125q0 -0.421875 -0.09375 -0.625q-0.078125 -0.21875 -0.296875 -0.34375q-0.203125 -0.140625 -0.484375 -0.140625q-0.4375 0 -0.765625 0.296875q-0.328125 0.28125 -0.328125 1.078125l0 2.265625l-0.703125 0zm7.1523438 -0.515625q-0.390625 0.328125 -0.75 0.46875q-0.359375 0.140625 -0.78125 0.140625q-0.671875 0 -1.046875 -0.328125q-0.359375 -0.34375 -0.359375 -0.859375q0 -0.3125 0.125 -0.5625q0.140625 -0.25 0.359375 -0.390625q0.234375 -0.15625 0.515625 -0.234375q0.203125 -0.0625 0.625 -0.109375q0.859375 -0.109375 1.25 -0.25q0.015625 -0.140625 0.015625 -0.171875q0 -0.4375 -0.203125 -0.609375q-0.265625 -0.234375 -0.796875 -0.234375q-0.5 0 -0.734375 0.171875q-0.234375 0.171875 -0.359375 0.609375l-0.6875 -0.09375q0.09375 -0.4375 0.3125 -0.703125q0.21875 -0.28125 0.625 -0.421875q0.40625 -0.15625 0.9375 -0.15625q0.53125 0 0.859375 0.125q0.34375 0.125 0.5 0.328125q0.15625 0.1875 0.21875 0.46875q0.03125 0.1875 0.03125 0.65625l0 0.9375q0 0.96875 0.046875 1.234375q0.046875 0.265625 0.171875 0.5l-0.734375 0q-0.109375 -0.21875 -0.140625 -0.515625zm-0.0625 -1.5625q-0.375 0.15625 -1.140625 0.265625q-0.4375 0.0625 -0.625 0.140625q-0.171875 0.078125 -0.265625 0.234375q-0.09375 0.140625 -0.09375 0.328125q0 0.28125 0.203125 0.46875q0.21875 0.1875 0.625 0.1875q0.40625 0 0.71875 -0.171875q0.328125 -0.1875 0.46875 -0.5q0.109375 -0.234375 0.109375 -0.703125l0 -0.25z" fill-rule="nonzero"/><path fill="#000000" fill-opacity="0.0" d="m272.0 160.0l56.0 0l0 29.070862l-56.0 0z" fill-rule="evenodd"/><path fill="#000000" d="m282.6875 176.68l-1.578125 -4.15625l0.734375 0l0.890625 2.484375q0.140625 0.40625 0.265625 0.84375q0.09375 -0.328125 0.265625 -0.796875l0.921875 -2.53125l0.71875 0l-1.5625 4.15625l-0.65625 0zm5.6875 -1.34375l0.71875 0.09375q-0.171875 0.640625 -0.640625 1.0q-0.453125 0.34375 -1.1875 0.34375q-0.90625 0 -1.4375 -0.5625q-0.53125 -0.5625 -0.53125 -1.578125q0 -1.046875 0.53125 -1.625q0.546875 -0.578125 1.40625 -0.578125q0.828125 0 1.359375 0.578125q0.53125 0.5625 0.53125 1.59375q0 0.0625 -0.015625 0.1875l-3.09375 0q0.046875 0.671875 0.390625 1.046875q0.34375 0.359375 0.875 0.359375q0.375 0 0.640625 -0.203125q0.28125 -0.203125 0.453125 -0.65625zm-2.3125 -1.125l2.3125 0q-0.046875 -0.53125 -0.265625 -0.796875q-0.328125 -0.40625 -0.875 -0.40625q-0.484375 0 -0.8125 0.328125q-0.328125 0.328125 -0.359375 0.875zm3.9179688 2.46875l0 -4.15625l0.625 0l0 0.59375q0.46875 -0.6875 1.328125 -0.6875q0.375 0 0.6875 0.140625q0.3125 0.140625 0.46875 0.359375q0.15625 0.21875 0.21875 0.515625q0.046875 0.1875 0.046875 0.6875l0 2.546875l-0.703125 0l0 -2.53125q0 -0.421875 -0.09375 -0.625q-0.078125 -0.21875 -0.296875 -0.34375q-0.203125 -0.140625 -0.484375 -0.140625q-0.4375 0 -0.765625 0.296875q-0.328125 0.28125 -0.328125 1.078125l0 2.265625l-0.703125 0zm7.1523438 -0.515625q-0.390625 0.328125 -0.75 0.46875q-0.359375 0.140625 -0.78125 0.140625q-0.671875 0 -1.046875 -0.328125q-0.359375 -0.34375 -0.359375 -0.859375q0 -0.3125 0.125 -0.5625q0.140625 -0.25 0.359375 -0.390625q0.234375 -0.15625 0.515625 -0.234375q0.203125 -0.0625 0.625 -0.109375q0.859375 -0.109375 1.25 -0.25q0.015625 -0.140625 0.015625 -0.171875q0 -0.4375 -0.203125 -0.609375q-0.265625 -0.234375 -0.796875 -0.234375q-0.5 0 -0.734375 0.171875q-0.234375 0.171875 -0.359375 0.609375l-0.6875 -0.09375q0.09375 -0.4375 0.3125 -0.703125q0.21875 -0.28125 0.625 -0.421875q0.40625 -0.15625 0.9375 -0.15625q0.53125 0 0.859375 0.125q0.34375 0.125 0.5 0.328125q0.15625 0.1875 0.21875 0.46875q0.03125 0.1875 0.03125 0.65625l0 0.9375q0 0.96875 0.046875 1.234375q0.046875 0.265625 0.171875 0.5l-0.734375 0q-0.109375 -0.21875 -0.140625 -0.515625zm-0.0625 -1.5625q-0.375 0.15625 -1.140625 0.265625q-0.4375 0.0625 -0.625 0.140625q-0.171875 0.078125 -0.265625 0.234375q-0.09375 0.140625 -0.09375 0.328125q0 0.28125 0.203125 0.46875q0.21875 0.1875 0.625 0.1875q0.40625 0 0.71875 -0.171875q0.328125 -0.1875 0.46875 -0.5q0.109375 -0.234375 0.109375 -0.703125l0 -0.25z" fill-rule="nonzero"/><path fill="#000000" fill-opacity="0.0" d="m400.0 192.0l80.0 0l0 33.921265l-80.0 0z" fill-rule="evenodd"/><path fill="#000000" d="m409.92188 213.28062l0 -8.59375l2.96875 0q1.0 0 1.53125 0.125q0.734375 0.171875 1.25 0.609375q0.6875 0.578125 1.015625 1.484375q0.34375 0.890625 0.34375 2.03125q0 0.984375 -0.234375 1.734375q-0.21875 0.75 -0.578125 1.25q-0.359375 0.5 -0.796875 0.78125q-0.421875 0.28125 -1.015625 0.4375q-0.59375 0.140625 -1.375 0.140625l-3.109375 0zm1.140625 -1.015625l1.828125 0q0.859375 0 1.34375 -0.15625q0.484375 -0.15625 0.765625 -0.453125q0.40625 -0.390625 0.625 -1.078125q0.234375 -0.6875 0.234375 -1.65625q0 -1.34375 -0.453125 -2.0625q-0.4375 -0.734375 -1.0625 -0.984375q-0.46875 -0.171875 -1.46875 -0.171875l-1.8125 0l0 6.5625zm7.5566406 1.015625l0 -8.59375l6.203125 0l0 1.015625l-5.0625 0l0 2.625l4.75 0l0 1.015625l-4.75 0l0 2.921875l5.265625 0l0 1.015625l-6.40625 0z" fill-rule="nonzero"/><path fill="#000000" fill-opacity="0.0" d="m400.0 136.0l80.0 0l0 33.921265l-80.0 0z" fill-rule="evenodd"/><path fill="#000000" d="m412.375 157.28062l-3.328125 -8.59375l1.234375 0l2.234375 6.25q0.265625 0.75 0.453125 1.40625q0.203125 -0.703125 0.46875 -1.40625l2.3125 -6.25l1.15625 0l-3.359375 8.59375l-1.171875 0zm5.1757812 -2.765625l1.0625 -0.09375q0.078125 0.65625 0.359375 1.0625q0.28125 0.40625 0.859375 0.671875q0.59375 0.25 1.328125 0.25q0.640625 0 1.140625 -0.1875q0.5 -0.203125 0.734375 -0.53125q0.25 -0.34375 0.25 -0.734375q0 -0.40625 -0.234375 -0.703125q-0.234375 -0.3125 -0.765625 -0.515625q-0.359375 -0.140625 -1.546875 -0.421875q-1.171875 -0.28125 -1.640625 -0.53125q-0.625 -0.328125 -0.921875 -0.796875q-0.296875 -0.484375 -0.296875 -1.078125q0 -0.640625 0.359375 -1.203125q0.375 -0.578125 1.078125 -0.859375q0.71875 -0.296875 1.578125 -0.296875q0.953125 0 1.6875 0.3125q0.734375 0.296875 1.125 0.90625q0.390625 0.59375 0.421875 1.34375l-1.09375 0.078125q-0.09375 -0.8125 -0.609375 -1.21875q-0.5 -0.421875 -1.484375 -0.421875q-1.03125 0 -1.5 0.375q-0.46875 0.375 -0.46875 0.90625q0 0.46875 0.328125 0.765625q0.328125 0.296875 1.703125 0.609375q1.390625 0.3125 1.90625 0.546875q0.75 0.359375 1.109375 0.890625q0.359375 0.515625 0.359375 1.21875q0 0.6875 -0.390625 1.296875q-0.390625 0.59375 -1.125 0.9375q-0.734375 0.328125 -1.65625 0.328125q-1.171875 0 -1.96875 -0.328125q-0.78125 -0.34375 -1.234375 -1.03125q-0.4375 -0.6875 -0.453125 -1.546875zm10.800781 2.765625l0 -3.640625l-3.3125 -4.953125l1.390625 0l1.6875 2.59375q0.46875 0.71875 0.875 1.453125q0.390625 -0.671875 0.9375 -1.515625l1.671875 -2.53125l1.3125 0l-3.421875 4.953125l0 3.640625l-1.140625 0zm5.5820312 0l0 -8.59375l1.15625 0l4.515625 6.75l0 -6.75l1.09375 0l0 8.59375l-1.171875 0l-4.515625 -6.75l0 6.75l-1.078125 0zm14.806641 -3.015625l1.125 0.296875q-0.359375 1.390625 -1.28125 2.125q-0.921875 0.734375 -2.265625 0.734375q-1.390625 0 -2.265625 -0.5625q-0.875 -0.5625 -1.328125 -1.625q-0.453125 -1.078125 -0.453125 -2.3125q0 -1.34375 0.515625 -2.34375q0.515625 -1.0 1.453125 -1.515625q0.953125 -0.515625 2.09375 -0.515625q1.28125 0 2.15625 0.65625q0.890625 0.65625 1.234375 1.84375l-1.125 0.265625q-0.296875 -0.9375 -0.875 -1.359375q-0.5625 -0.4375 -1.421875 -0.4375q-0.984375 0 -1.65625 0.484375q-0.65625 0.46875 -0.9375 1.265625q-0.265625 0.796875 -0.265625 1.65625q0 1.09375 0.3125 1.90625q0.328125 0.8125 1.0 1.21875q0.671875 0.40625 1.46875 0.40625q0.953125 0 1.609375 -0.546875q0.671875 -0.546875 0.90625 -1.640625z" fill-rule="nonzero"/><path fill="#000000" fill-opacity="0.0" d="m400.0 248.0l80.0 0l0 33.921265l-80.0 0z" fill-rule="evenodd"/><path fill="#000000" d="m409.96875 269.28064l0 -8.59375l1.125 0l0 3.53125l4.46875 0l0 -3.53125l1.140625 0l0 8.59375l-1.140625 0l0 -4.046875l-4.46875 0l0 4.046875l-1.125 0zm8.244141 -2.765625l1.0625 -0.09375q0.078125 0.65625 0.359375 1.0625q0.28125 0.40625 0.859375 0.671875q0.59375 0.25 1.328125 0.25q0.640625 0 1.140625 -0.1875q0.5 -0.203125 0.734375 -0.53125q0.25 -0.34375 0.25 -0.734375q0 -0.40625 -0.234375 -0.703125q-0.234375 -0.3125 -0.765625 -0.515625q-0.359375 -0.140625 -1.546875 -0.421875q-1.171875 -0.28125 -1.640625 -0.53125q-0.625 -0.328125 -0.921875 -0.796875q-0.296875 -0.484375 -0.296875 -1.078125q0 -0.640625 0.359375 -1.203125q0.375 -0.578125 1.078125 -0.859375q0.71875 -0.296875 1.578125 -0.296875q0.953125 0 1.6875 0.3125q0.734375 0.296875 1.125 0.90625q0.390625 0.59375 0.421875 1.34375l-1.09375 0.078125q-0.09375 -0.8125 -0.609375 -1.21875q-0.5 -0.421875 -1.484375 -0.421875q-1.03125 0 -1.5 0.375q-0.46875 0.375 -0.46875 0.90625q0 0.46875 0.328125 0.765625q0.328125 0.296875 1.703125 0.609375q1.390625 0.3125 1.90625 0.546875q0.75 0.359375 1.109375 0.890625q0.359375 0.515625 0.359375 1.21875q0 0.6875 -0.390625 1.296875q-0.390625 0.59375 -1.125 0.9375q-0.734375 0.328125 -1.65625 0.328125q-1.171875 0 -1.96875 -0.328125q-0.78125 -0.34375 -1.234375 -1.03125q-0.4375 -0.6875 -0.453125 -1.546875zm10.800781 2.765625l0 -3.640625l-3.3125 -4.953125l1.390625 0l1.6875 2.59375q0.46875 0.71875 0.875 1.453125q0.390625 -0.671875 0.9375 -1.515625l1.671875 -2.53125l1.3125 0l-3.421875 4.953125l0 3.640625l-1.140625 0zm5.5820312 0l0 -8.59375l1.15625 0l4.515625 6.75l0 -6.75l1.09375 0l0 8.59375l-1.171875 0l-4.515625 -6.75l0 6.75l-1.078125 0zm14.806641 -3.015625l1.125 0.296875q-0.359375 1.390625 -1.28125 2.125q-0.921875 0.734375 -2.265625 0.734375q-1.390625 0 -2.265625 -0.5625q-0.875 -0.5625 -1.328125 -1.625q-0.453125 -1.078125 -0.453125 -2.3125q0 -1.34375 0.515625 -2.34375q0.515625 -1.0 1.453125 -1.515625q0.953125 -0.515625 2.09375 -0.515625q1.28125 0 2.15625 0.65625q0.890625 0.65625 1.234375 1.84375l-1.125 0.265625q-0.296875 -0.9375 -0.875 -1.359375q-0.5625 -0.4375 -1.421875 -0.4375q-0.984375 0 -1.65625 0.484375q-0.65625 0.46875 -0.9375 1.265625q-0.265625 0.796875 -0.265625 1.65625q0 1.09375 0.3125 1.90625q0.328125 0.8125 1.0 1.21875q0.671875 0.40625 1.46875 0.40625q0.953125 0 1.609375 -0.546875q0.671875 -0.546875 0.90625 -1.640625z" fill-rule="nonzero"/><path fill="#000000" fill-opacity="0.0" d="m352.0 192.0l32.0 0l0 29.070862l-32.0 0z" fill-rule="evenodd"/><path fill="#000000" d="m364.21875 208.68l0 -0.53125q-0.390625 0.625 -1.15625 0.625q-0.5 0 -0.921875 -0.265625q-0.40625 -0.28125 -0.640625 -0.765625q-0.21875 -0.5 -0.21875 -1.140625q0 -0.609375 0.203125 -1.109375q0.203125 -0.515625 0.609375 -0.78125q0.421875 -0.28125 0.9375 -0.28125q0.375 0 0.65625 0.171875q0.296875 0.15625 0.484375 0.40625l0 -2.0625l0.703125 0l0 5.734375l-0.65625 0zm-2.21875 -2.078125q0 0.796875 0.328125 1.203125q0.34375 0.390625 0.796875 0.390625q0.46875 0 0.78125 -0.375q0.328125 -0.375 0.328125 -1.15625q0 -0.84375 -0.328125 -1.234375q-0.328125 -0.40625 -0.8125 -0.40625q-0.46875 0 -0.78125 0.390625q-0.3125 0.375 -0.3125 1.1875zm6.8242188 0.734375l0.71875 0.09375q-0.171875 0.640625 -0.640625 1.0q-0.453125 0.34375 -1.1875 0.34375q-0.90625 0 -1.4375 -0.5625q-0.53125 -0.5625 -0.53125 -1.578125q0 -1.046875 0.53125 -1.625q0.546875 -0.578125 1.40625 -0.578125q0.828125 0 1.359375 0.578125q0.53125 0.5625 0.53125 1.59375q0 0.0625 -0.015625 0.1875l-3.09375 0q0.046875 0.671875 0.390625 1.046875q0.34375 0.359375 0.875 0.359375q0.375 0 0.640625 -0.203125q0.28125 -0.203125 0.453125 -0.65625zm-2.3125 -1.125l2.3125 0q-0.046875 -0.53125 -0.265625 -0.796875q-0.328125 -0.40625 -0.875 -0.40625q-0.484375 0 -0.8125 0.328125q-0.328125 0.328125 -0.359375 0.875z" fill-rule="nonzero"/><path fill="#f3f3f3" d="m232.0 240.0l8.0 0l0 8.0l-8.0 0z" fill-rule="evenodd"/><path fill="#000000" fill-opacity="0.0" d="m236.25 192.0l0 76.0l-12.251968 0" fill-rule="evenodd"/><path stroke="#000000" stroke-width="1.0" stroke-linejoin="round" stroke-linecap="butt" d="m236.25 192.0l0 76.0l-12.251968 0" fill-rule="evenodd"/><path fill="#cfe2f3" d="m8.0 320.0l56.0 0l0 32.0l-56.0 0z" fill-rule="evenodd"/><path stroke="#000000" stroke-width="1.0" stroke-linejoin="round" stroke-linecap="butt" d="m8.0 320.0l56.0 0l0 32.0l-56.0 0z" fill-rule="evenodd"/><path fill="#000000" d="m24.482643 338.83374l0 0.90625l-5.03125 0q-0.015625 -0.34375 0.109375 -0.65625q0.1875 -0.515625 0.609375 -1.015625q0.421875 -0.5 1.234375 -1.140625q1.234375 -1.03125 1.671875 -1.625q0.4375 -0.59375 0.4375 -1.125q0 -0.5625 -0.40625 -0.9375q-0.390625 -0.390625 -1.03125 -0.390625q-0.671875 0 -1.078125 0.40625q-0.40625 0.40625 -0.40625 1.125l-0.96875 -0.09375q0.09375 -1.078125 0.734375 -1.640625q0.65625 -0.5625 1.734375 -0.5625q1.109375 0 1.75 0.609375q0.640625 0.609375 0.640625 1.5q0 0.46875 -0.1875 0.90625q-0.1875 0.4375 -0.625 0.9375q-0.4375 0.484375 -1.453125 1.328125q-0.828125 0.71875 -1.078125 0.96875q-0.234375 0.25 -0.390625 0.5l3.734375 0zm4.0046234 0.90625l0 -1.828125l-3.296875 0l0 -0.859375l3.46875 -4.9375l0.765625 0l0 4.9375l1.03125 0l0 0.859375l-1.03125 0l0 1.828125l-0.9375 0zm0 -2.6875l0 -3.4375l-2.375 3.4375l2.375 0zm3.2858734 2.6875l0 -7.625l1.515625 0l1.796875 5.390625q0.25 0.765625 0.375 1.140625q0.125 -0.421875 0.40625 -1.234375l1.828125 -5.296875l1.34375 0l0 7.625l-0.96875 0l0 -6.390625l-2.21875 6.390625l-0.90625 0l-2.203125 -6.5l0 6.5l-0.96875 0zm8.9392395 0l0 -7.625l1.0 0l0 3.125l3.96875 0l0 -3.125l1.015625 0l0 7.625l-1.015625 0l0 -3.59375l-3.96875 0l0 3.59375l-1.0 0zm7.0393524 0l0 -0.765625l3.515625 -4.03125q-0.59375 0.03125 -1.046875 0.03125l-2.25 0l0 -0.765625l4.515625 0l0 0.625l-3.0 3.5l-0.578125 0.640625q0.640625 -0.046875 1.1875 -0.046875l2.546875 0l0 0.8125l-4.890625 0z" fill-rule="nonzero"/><path fill="#ffffff" d="m156.0192 232.0l63.980804 0l0 48.0l-63.980804 0z" fill-rule="evenodd"/><path stroke="#000000" stroke-width="2.0" stroke-linejoin="round" stroke-linecap="butt" d="m156.0192 232.0l63.980804 0l0 48.0l-63.980804 0z" fill-rule="evenodd"/><path fill="#000000" d="m182.77313 262.91998l0 -13.35936l1.765625 0l0 5.484375l6.9375 0l0 -5.484375l1.765625 0l0 13.35936l-1.765625 0l0 -6.296875l-6.9375 0l0 6.296875l-1.765625 0z" fill-rule="nonzero"/><path fill="#ffffff" d="m180.012 280.0l7.9976044 -8.0l7.9976044 8.0z" fill-rule="evenodd"/><path stroke="#000000" stroke-width="1.0" stroke-linejoin="round" stroke-linecap="butt" d="m180.012 280.0l7.9976044 -8.0l7.9976044 8.0z" fill-rule="evenodd"/><path fill="#ffffff" d="m216.0 240.0l8.0 0l0 8.0l-8.0 0z" fill-rule="evenodd"/><path stroke="#000000" stroke-width="1.0" stroke-linejoin="round" stroke-linecap="butt" d="m216.0 240.0l8.0 0l0 8.0l-8.0 0z" fill-rule="evenodd"/><path fill="#ffffff" d="m216.0 264.0l8.0 0l0 8.0l-8.0 0z" fill-rule="evenodd"/><path stroke="#000000" stroke-width="1.0" stroke-linejoin="round" stroke-linecap="butt" d="m216.0 264.0l8.0 0l0 8.0l-8.0 0z" fill-rule="evenodd"/><path fill="#ffffff" d="m152.0 240.0l8.0 0l0 8.0l-8.0 0z" fill-rule="evenodd"/><path stroke="#000000" stroke-width="1.0" stroke-linejoin="round" stroke-linecap="butt" d="m152.0 240.0l8.0 0l0 8.0l-8.0 0z" fill-rule="evenodd"/><path fill="#000000" fill-opacity="0.0" d="m88.0 336.0l-24.0 0" fill-rule="evenodd"/><path stroke="#000000" stroke-width="1.0" stroke-linejoin="round" stroke-linecap="butt" d="m88.0 336.0l-24.0 0" fill-rule="evenodd"/><path fill="#ffffff" d="m420.25198 16.0l115.74802 0l0 48.0l-115.74802 0z" fill-rule="evenodd"/><path stroke="#000000" stroke-width="2.0" stroke-linejoin="round" stroke-linecap="butt" d="m420.25198 16.0l115.74802 0l0 48.0l-115.74802 0z" fill-rule="evenodd"/><path fill="#000000" d="m466.8038 42.2325l1.765625 0.453125q-0.5625 2.171875 -2.0 3.328125q-1.4375 1.140625 -3.53125 1.140625q-2.15625 0 -3.515625 -0.875q-1.34375 -0.890625 -2.0625 -2.546875q-0.703125 -1.671875 -0.703125 -3.59375q0 -2.078125 0.796875 -3.625q0.796875 -1.5625 2.265625 -2.359375q1.484375 -0.8125 3.25 -0.8125q2.0 0 3.359375 1.015625q1.375 1.015625 1.90625 2.875l-1.734375 0.40625q-0.46875 -1.453125 -1.359375 -2.109375q-0.875 -0.671875 -2.203125 -0.671875q-1.546875 0 -2.578125 0.734375q-1.03125 0.734375 -1.453125 1.984375q-0.421875 1.234375 -0.421875 2.5625q0 1.703125 0.5 2.96875q0.5 1.265625 1.546875 1.90625q1.046875 0.625 2.265625 0.625q1.484375 0 2.515625 -0.859375q1.03125 -0.859375 1.390625 -2.546875zm3.129181 -0.15625q0 -2.6875 1.484375 -3.96875q1.25 -1.078125 3.046875 -1.078125q2.0 0 3.265625 1.3125q1.265625 1.296875 1.265625 3.609375q0 1.859375 -0.5625 2.9375q-0.5625 1.0625 -1.640625 1.65625q-1.0625 0.59375 -2.328125 0.59375q-2.03125 0 -3.28125 -1.296875q-1.25 -1.3125 -1.25 -3.765625zm1.6875 0q0 1.859375 0.796875 2.796875q0.8125 0.921875 2.046875 0.921875q1.21875 0 2.03125 -0.921875q0.8125 -0.9375 0.8125 -2.84375q0 -1.796875 -0.8125 -2.71875q-0.8125 -0.921875 -2.03125 -0.921875q-1.234375 0 -2.046875 0.921875q-0.796875 0.90625 -0.796875 2.765625zm9.250732 4.84375l0 -13.359375l1.640625 0l0 13.359375l-1.640625 0zm3.582306 -4.84375q0 -2.6875 1.484375 -3.96875q1.25 -1.078125 3.046875 -1.078125q2.0 0 3.265625 1.3125q1.265625 1.296875 1.265625 3.609375q0 1.859375 -0.5625 2.9375q-0.5625 1.0625 -1.640625 1.65625q-1.0625 0.59375 -2.328125 0.59375q-2.03125 0 -3.28125 -1.296875q-1.25 -1.3125 -1.25 -3.765625zm1.6875 0q0 1.859375 0.796875 2.796875q0.8125 0.921875 2.046875 0.921875q1.21875 0 2.03125 -0.921875q0.8125 -0.9375 0.8125 -2.84375q0 -1.796875 -0.8125 -2.71875q-0.8125 -0.921875 -2.03125 -0.921875q-1.234375 0 -2.046875 0.921875q-0.796875 0.90625 -0.796875 2.765625zm9.281982 4.84375l0 -9.671875l1.46875 0l0 1.46875q0.5625 -1.03125 1.03125 -1.359375q0.484375 -0.328125 1.0625 -0.328125q0.828125 0 1.6875 0.53125l-0.5625 1.515625q-0.609375 -0.359375 -1.203125 -0.359375q-0.546875 0 -0.96875 0.328125q-0.421875 0.328125 -0.609375 0.890625q-0.28125 0.875 -0.28125 1.921875l0 5.0625l-1.625 0z" fill-rule="nonzero"/><path fill="#ffffff" d="m416.0 24.0l8.0 0l0 8.0l-8.0 0z" fill-rule="evenodd"/><path stroke="#000000" stroke-width="1.0" stroke-linejoin="round" stroke-linecap="butt" d="m416.0 24.0l8.0 0l0 8.0l-8.0 0z" fill-rule="evenodd"/><path fill="#ffffff" d="m440.0 60.0l16.0 0l0 8.0l-16.0 0z" fill-rule="evenodd"/><path stroke="#000000" stroke-width="1.0" stroke-linejoin="round" stroke-linecap="butt" d="m440.0 60.0l16.0 0l0 8.0l-16.0 0z" fill-rule="evenodd"/><path fill="#ffffff" d="m416.0 48.0l8.0 0l0 8.0l-8.0 0z" fill-rule="evenodd"/><path stroke="#000000" stroke-width="1.0" stroke-linejoin="round" stroke-linecap="butt" d="m416.0 48.0l8.0 0l0 8.0l-8.0 0z" fill-rule="evenodd"/><path fill="#ffffff" d="m472.0 60.0l16.0 0l0 8.0l-16.0 0z" fill-rule="evenodd"/><path stroke="#000000" stroke-width="1.0" stroke-linejoin="round" stroke-linecap="butt" d="m472.0 60.0l16.0 0l0 8.0l-16.0 0z" fill-rule="evenodd"/><path fill="#ffffff" d="m504.0 60.0l16.0 0l0 8.0l-16.0 0z" fill-rule="evenodd"/><path stroke="#000000" stroke-width="1.0" stroke-linejoin="round" stroke-linecap="butt" d="m504.0 60.0l16.0 0l0 8.0l-16.0 0z" fill-rule="evenodd"/><path fill="#000000" fill-opacity="0.0" d="m200.0 156.0l-24.999847 0l0 -104.0l240.99985 0" fill-rule="evenodd"/><path stroke="#000000" stroke-width="1.0" stroke-linejoin="round" stroke-linecap="butt" d="m200.0 156.0l-24.999832 0l0 -104.0l234.99983 0" fill-rule="evenodd"/><path fill="#000000" stroke="#000000" stroke-width="1.0" stroke-linecap="butt" d="m410.0 53.651733l4.538086 -1.6517334l-4.538086 -1.6517334z" fill-rule="evenodd"/><path fill="#000000" fill-opacity="0.0" d="m152.0 244.0l-25.000801 0l0 -216.0l289.0008 0" fill-rule="evenodd"/><path stroke="#000000" stroke-width="1.0" stroke-linejoin="round" stroke-linecap="butt" d="m152.0 244.0l-25.000801 0l0 -216.0l283.0008 0" fill-rule="evenodd"/><path fill="#000000" stroke="#000000" stroke-width="1.0" stroke-linecap="butt" d="m410.0 29.651731l4.538086 -1.6517315l-4.538086 -1.6517315z" fill-rule="evenodd"/><path fill="#ffffff" d="m440.0 107.82087l16.0 0l0 8.0l-16.0 0z" fill-rule="evenodd"/><path stroke="#000000" stroke-width="1.0" stroke-linejoin="round" stroke-linecap="butt" d="m440.0 107.82087l16.0 0l0 8.0l-16.0 0z" fill-rule="evenodd"/><path fill="#ffffff" d="m472.0 107.82087l16.0 0l0 8.0l-16.0 0z" fill-rule="evenodd"/><path stroke="#000000" stroke-width="1.0" stroke-linejoin="round" stroke-linecap="butt" d="m472.0 107.82087l16.0 0l0 8.0l-16.0 0z" fill-rule="evenodd"/><path fill="#ffffff" d="m504.0 107.82087l16.0 0l0 8.0l-16.0 0z" fill-rule="evenodd"/><path stroke="#000000" stroke-width="1.0" stroke-linejoin="round" stroke-linecap="butt" d="m504.0 107.82087l16.0 0l0 8.0l-16.0 0z" fill-rule="evenodd"/><path fill="#000000" fill-opacity="0.0" d="m448.0 68.0l0 39.81102" fill-rule="evenodd"/><path stroke="#000000" stroke-width="1.0" stroke-linejoin="round" stroke-linecap="butt" d="m448.0 68.0l0 33.81102" fill-rule="evenodd"/><path fill="#000000" stroke="#000000" stroke-width="1.0" stroke-linecap="butt" d="m446.34827 101.81103l1.6517334 4.5380936l1.6517334 -4.5380936z" fill-rule="evenodd"/><path fill="#000000" fill-opacity="0.0" d="m480.0 68.0l0 39.81102" fill-rule="evenodd"/><path stroke="#000000" stroke-width="1.0" stroke-linejoin="round" stroke-linecap="butt" d="m480.0 68.0l0 33.81102" fill-rule="evenodd"/><path fill="#000000" stroke="#000000" stroke-width="1.0" stroke-linecap="butt" d="m478.34827 101.81103l1.6517334 4.5380936l1.6517334 -4.5380936z" fill-rule="evenodd"/><path fill="#000000" fill-opacity="0.0" d="m512.0 68.0l0 39.81102" fill-rule="evenodd"/><path stroke="#000000" stroke-width="1.0" stroke-linejoin="round" stroke-linecap="butt" d="m512.0 68.0l0 33.81102" fill-rule="evenodd"/><path fill="#000000" stroke="#000000" stroke-width="1.0" stroke-linecap="butt" d="m510.34827 101.81103l1.6517334 4.5380936l1.6517334 -4.5380936z" fill-rule="evenodd"/><path fill="#000000" fill-opacity="0.0" d="m432.0 112.0l112.0 0l0 25.921265l-112.0 0z" fill-rule="evenodd"/><path fill="#000000" d="m445.27148 129.28062l0 -8.593742l3.8125 0q1.15625 0 1.75 0.234375q0.59375 0.234375 0.953125 0.828125q0.359375 0.578125 0.359375 1.28125q0 0.921875 -0.59375 1.546875q-0.59375 0.625 -1.828125 0.796875q0.453125 0.21875 0.6875 0.421875q0.5 0.453125 0.9375 1.140625l1.5 2.3437424l-1.4375 0l-1.125 -1.7812424q-0.5 -0.78125 -0.828125 -1.1875q-0.3125 -0.40625 -0.578125 -0.5625q-0.25 -0.171875 -0.515625 -0.25q-0.1875 -0.03125 -0.625 -0.03125l-1.328125 0l0 3.8124924l-1.140625 0zm1.140625 -4.7968674l2.453125 0q0.765625 0 1.203125 -0.15625q0.453125 -0.171875 0.671875 -0.515625q0.234375 -0.359375 0.234375 -0.78125q0 -0.609375 -0.453125 -1.0q-0.4375 -0.390625 -1.390625 -0.390625l-2.71875 0l0 2.84375zm34.878906 1.421875l0 -1.0l3.625 -0.015625l0 3.1874924q-0.828125 0.671875 -1.71875 1.015625q-0.890625 0.328125 -1.828125 0.328125q-1.265625 0 -2.3125 -0.53125q-1.03125 -0.546875 -1.5625 -1.5624924q-0.515625 -1.03125 -0.515625 -2.296875q0 -1.265625 0.515625 -2.34375q0.53125 -1.09375 1.515625 -1.609375q0.984375 -0.53125 2.265625 -0.53125q0.9375 0 1.6875 0.296875q0.75 0.296875 1.171875 0.84375q0.4375 0.53125 0.65625 1.40625l-1.015625 0.28125q-0.203125 -0.65625 -0.5 -1.03125q-0.28125 -0.375 -0.8125 -0.59375q-0.53125 -0.234375 -1.171875 -0.234375q-0.78125 0 -1.359375 0.234375q-0.5625 0.234375 -0.921875 0.625q-0.34375 0.390625 -0.53125 0.859375q-0.328125 0.796875 -0.328125 1.71875q0 1.15625 0.390625 1.9375q0.40625 0.765625 1.15625 1.1406174q0.75 0.375 1.609375 0.375q0.734375 0 1.4375 -0.28125q0.703125 -0.29686737 1.0625 -0.6093674l0 -1.609375l-2.515625 0zm28.59375 3.3749924l0 -8.593742l3.234375 0q0.984375 0 1.578125 0.265625q0.59375 0.265625 0.921875 0.8125q0.34375 0.53125 0.34375 1.125q0 0.546875 -0.296875 1.03125q-0.296875 0.484375 -0.90625 0.78125q0.78125 0.234375 1.1875 0.796875q0.421875 0.546875 0.421875 1.296875q0 0.59375 -0.25 1.125q-0.25 0.5156174 -0.625 0.7968674q-0.375 0.28125 -0.953125 0.421875q-0.5625 0.140625 -1.375 0.140625l-3.28125 0zm1.140625 -4.9843674l1.859375 0q0.75 0 1.078125 -0.09375q0.4375 -0.125 0.65625 -0.421875q0.21875 -0.3125 0.21875 -0.765625q0 -0.421875 -0.203125 -0.75q-0.203125 -0.328125 -0.59375 -0.4375q-0.375 -0.125 -1.296875 -0.125l-1.71875 0l0 2.59375zm0 3.9687424l2.140625 0q0.546875 0 0.765625 -0.046875q0.40625 -0.0625 0.65625 -0.21874237q0.265625 -0.171875 0.4375 -0.484375q0.171875 -0.3125 0.171875 -0.71875q0 -0.484375 -0.25 -0.84375q-0.234375 -0.359375 -0.671875 -0.5q-0.4375 -0.140625 -1.265625 -0.140625l-1.984375 0l0 2.9531174z" fill-rule="nonzero"/><path fill="#000000" fill-opacity="0.0" d="m120.0 224.0l24.0 0l0 29.070862l-24.0 0z" fill-rule="evenodd"/><path fill="#000000" d="m129.03125 240.68l2.21875 -2.984375l-1.953125 -2.75l0.90625 0l1.03125 1.46875q0.328125 0.46875 0.46875 0.703125q0.1875 -0.3125 0.453125 -0.640625l1.15625 -1.53125l0.8125 0l-2.0 2.703125l2.15625 3.03125l-0.9375 0l-1.4375 -2.046875q-0.125 -0.171875 -0.25 -0.375q-0.1875 0.3125 -0.265625 0.421875l-1.4375 2.0l-0.921875 0z" fill-rule="nonzero"/><path fill="#000000" fill-opacity="0.0" d="m168.0 136.0l24.0 0l0 29.070862l-24.0 0z" fill-rule="evenodd"/><path fill="#000000" d="m179.23438 152.68l0 -2.421875l-2.203125 -3.3125l0.921875 0l1.125 1.734375q0.3125 0.484375 0.578125 0.96875q0.265625 -0.453125 0.625 -1.015625l1.109375 -1.6875l0.890625 0l-2.296875 3.3125l0 2.421875l-0.75 0z" fill-rule="nonzero"/><path fill="#000000" fill-opacity="0.0" d="m384.0 8.0l24.0 0l0 29.070866l-24.0 0z" fill-rule="evenodd"/><path fill="#000000" d="m393.03125 24.68l2.21875 -2.984375l-1.953125 -2.75l0.90625 0l1.03125 1.46875q0.328125 0.46875 0.46875 0.703125q0.1875 -0.3125 0.453125 -0.640625l1.15625 -1.53125l0.8125 0l-2.0 2.703125l2.15625 3.03125l-0.9375 0l-1.4375 -2.046875q-0.125 -0.171875 -0.25 -0.375q-0.1875 0.3125 -0.265625 0.421875l-1.4375 2.0l-0.921875 0z" fill-rule="nonzero"/><path fill="#000000" fill-opacity="0.0" d="m384.0 32.0l24.0 0l0 29.070866l-24.0 0z" fill-rule="evenodd"/><path fill="#000000" d="m395.23438 48.68l0 -2.421875l-2.203125 -3.3125l0.921875 0l1.125 1.734375q0.3125 0.484375 0.578125 0.96875q0.265625 -0.453125 0.625 -1.015625l1.109375 -1.6875l0.890625 0l-2.296875 3.3125l0 2.421875l-0.75 0z" fill-rule="nonzero"/></g></svg>