<svg version="1.1" viewBox="0.0 0.0 741.7769028871392 268.1732283464567" fill="none" stroke="none" stroke-linecap="square" stroke-miterlimit="10" xmlns:xlink="http://www.w3.org/1999/xlink" xmlns="http://www.w3.org/2000/svg"><clipPath id="p.0"><path d="m0 0l741.7769 0l0 268.17322l-741.7769 0l0 -268.17322z" clip-rule="nonzero"/></clipPath><g clip-path="url(#p.0)"><path fill="#000000" fill-opacity="0.0" d="m0 0l741.7769 0l0 268.17322l-741.7769 0z" fill-rule="evenodd"/><path fill="#f3f3f3" d="m-0.0031929135 0l741.76373 0l0 268.18896l-741.76373 0z" fill-rule="evenodd"/><path fill="#d0e0e3" d="m45.85194 42.839893l292.53543 0l22.629944 22.629925l0 22.629921l0 0l-337.7953 0l0 0l0 -22.629921z" fill-rule="evenodd"/><path stroke="#000000" stroke-width="1.0" stroke-linejoin="round" stroke-linecap="butt" d="m45.85194 42.839893l292.53543 0l22.629944 22.629925l0 22.629921l0 0l-337.7953 0l0 0l0 -22.629921z" fill-rule="evenodd"/><path fill="#d9d2e9" d="m397.85193 42.839893l292.53546 0l22.629883 22.629925l0 22.629921l0 0l-337.79526 0l0 0l0 -22.629921z" fill-rule="evenodd"/><path stroke="#000000" stroke-width="1.0" stroke-linejoin="round" stroke-linecap="butt" d="m397.85193 42.839893l292.53546 0l22.629883 22.629925l0 22.629921l0 0l-337.79526 0l0 0l0 -22.629921z" fill-rule="evenodd"/><path fill="#000000" fill-opacity="0.0" d="m46.132782 60.44882l0 31.496067" fill-rule="evenodd"/><path stroke="#000000" stroke-width="2.0" stroke-linejoin="round" stroke-linecap="butt" d="m46.132782 60.44882l0 31.496067" fill-rule="evenodd"/><path fill="#000000" fill-opacity="0.0" d="m89.13278 60.44882l0 31.496067" fill-rule="evenodd"/><path stroke="#000000" stroke-width="2.0" stroke-linejoin="round" stroke-linecap="butt" d="m89.13278 60.44882l0 31.496067" fill-rule="evenodd"/><path fill="#000000" fill-opacity="0.0" d="m132.13278 60.44882l0 31.496067" fill-rule="evenodd"/><path stroke="#000000" stroke-width="2.0" stroke-linejoin="round" stroke-linecap="butt" d="m132.13278 60.44882l0 31.496067" fill-rule="evenodd"/><path fill="#000000" fill-opacity="0.0" d="m175.13278 60.44882l0 31.496067" fill-rule="evenodd"/><path stroke="#000000" stroke-width="2.0" stroke-linejoin="round" stroke-linecap="butt" d="m175.13278 60.44882l0 31.496067" fill-rule="evenodd"/><path fill="#000000" fill-opacity="0.0" d="m218.13278 60.44882l0 31.496067" fill-rule="evenodd"/><path stroke="#000000" stroke-width="2.0" stroke-linejoin="round" stroke-linecap="butt" d="m218.13278 60.44882l0 31.496067" fill-rule="evenodd"/><path fill="#000000" fill-opacity="0.0" d="m261.13278 60.44882l0 31.496067" fill-rule="evenodd"/><path stroke="#000000" stroke-width="2.0" stroke-linejoin="round" stroke-linecap="butt" d="m261.13278 60.44882l0 31.496067" fill-rule="evenodd"/><path fill="#000000" fill-opacity="0.0" d="m304.13278 60.44882l0 31.496067" fill-rule="evenodd"/><path stroke="#000000" stroke-width="2.0" stroke-linejoin="round" stroke-linecap="butt" d="m304.13278 60.44882l0 31.496067" fill-rule="evenodd"/><path fill="#000000" fill-opacity="0.0" d="m347.13278 60.44882l0 31.496067" fill-rule="evenodd"/><path stroke="#000000" stroke-width="2.0" stroke-linejoin="round" stroke-linecap="butt" d="m347.13278 60.44882l0 31.496067" fill-rule="evenodd"/><path fill="#000000" fill-opacity="0.0" d="m390.13278 60.44882l0 31.496067" fill-rule="evenodd"/><path stroke="#000000" stroke-width="2.0" stroke-linejoin="round" stroke-linecap="butt" d="m390.13278 60.44882l0 31.496067" fill-rule="evenodd"/><path fill="#000000" fill-opacity="0.0" d="m433.13278 60.44882l0 31.496067" fill-rule="evenodd"/><path stroke="#000000" stroke-width="2.0" stroke-linejoin="round" stroke-linecap="butt" d="m433.13278 60.44882l0 31.496067" fill-rule="evenodd"/><path fill="#000000" fill-opacity="0.0" d="m476.13278 60.44882l0 31.496067" fill-rule="evenodd"/><path stroke="#000000" stroke-width="2.0" stroke-linejoin="round" stroke-linecap="butt" d="m476.13278 60.44882l0 31.496067" fill-rule="evenodd"/><path fill="#000000" fill-opacity="0.0" d="m519.13275 60.44882l0 31.496067" fill-rule="evenodd"/><path stroke="#000000" stroke-width="2.0" stroke-linejoin="round" stroke-linecap="butt" d="m519.13275 60.44882l0 31.496067" fill-rule="evenodd"/><path fill="#000000" fill-opacity="0.0" d="m562.13275 60.44882l0 31.496067" fill-rule="evenodd"/><path stroke="#000000" stroke-width="2.0" stroke-linejoin="round" stroke-linecap="butt" d="m562.13275 60.44882l0 31.496067" fill-rule="evenodd"/><path fill="#000000" fill-opacity="0.0" d="m605.13275 60.44882l0 31.496067" fill-rule="evenodd"/><path stroke="#000000" stroke-width="2.0" stroke-linejoin="round" stroke-linecap="butt" d="m605.13275 60.44882l0 31.496067" fill-rule="evenodd"/><path fill="#000000" fill-opacity="0.0" d="m648.13275 60.44882l0 31.496067" fill-rule="evenodd"/><path stroke="#000000" stroke-width="2.0" stroke-linejoin="round" stroke-linecap="butt" d="m648.13275 60.44882l0 31.496067" fill-rule="evenodd"/><path fill="#000000" fill-opacity="0.0" d="m691.13275 60.44882l0 31.496067" fill-rule="evenodd"/><path stroke="#000000" stroke-width="2.0" stroke-linejoin="round" stroke-linecap="butt" d="m691.13275 60.44882l0 31.496067" fill-rule="evenodd"/><path fill="#000000" fill-opacity="0.0" d="m368.6446 204.34908l0 31.496063" fill-rule="evenodd"/><path stroke="#000000" stroke-width="2.0" stroke-linejoin="round" stroke-linecap="butt" d="m368.6446 204.34908l0 31.496063" fill-rule="evenodd"/><g filter="url(#shadowFilter-p.1)"><use xlink:href="#p.1" transform="matrix(1.0 0.0 0.0 1.0 3.93635406824147 4.528257480314943)"/></g><defs><filter id="shadowFilter-p.1" filterUnits="userSpaceOnUse"><feGaussianBlur in="SourceAlpha" stdDeviation="4.5" result="blur"/><feComponentTransfer in="blur" color-interpolation-filters="sRGB"><feFuncR type="linear" slope="0" intercept="0.0"/><feFuncG type="linear" slope="0" intercept="0.0"/><feFuncB type="linear" slope="0" intercept="0.0"/><feFuncA type="linear" slope="0.5" intercept="0"/></feComponentTransfer></filter></defs><g id="p.1"><path fill="#fff2cc" d="m11.715458 88.09974l713.8583 0l0 116.25196l-713.8583 0z" fill-rule="evenodd"/><path stroke="#000000" stroke-width="2.0" stroke-linejoin="round" stroke-linecap="butt" d="m11.715458 88.09974l713.8583 0l0 116.25196l-713.8583 0z" fill-rule="evenodd"/></g><path fill="#000000" fill-opacity="0.0" d="m11.715458 226.46457l713.8583 0l0 42.015747l-713.8583 0z" fill-rule="evenodd"/><path fill="#000000" d="m300.49432 247.52519l0 -1.515625q-0.015625 -0.71875 -0.140625 -1.4375q-0.109375 -0.734375 -0.34375 -1.40625q-0.25 -0.671875 -0.625 -1.25q-0.359375 -0.59375 -0.859375 -1.03125q-0.515625 -0.4375 -1.1875 -0.6875q-0.65625 -0.265625 -1.484375 -0.265625q-0.8125 0 -1.484375 0.265625q-0.65625 0.25 -1.15625 0.6875q-0.515625 0.4375 -0.890625 1.03125q-0.359375 0.578125 -0.59375 1.25q-0.25 0.6875 -0.375 1.40625q-0.109375 0.71875 -0.109375 1.4375l0 1.515625q0 0.703125 0.125 1.421875q0.125 0.71875 0.359375 1.390625q0.234375 0.671875 0.609375 1.265625q0.375 0.59375 0.890625 1.03125q0.515625 0.4375 1.171875 0.6875q0.65625 0.25 1.484375 0.25q0.8125 0 1.46875 -0.25q0.671875 -0.25 1.171875 -0.6875q0.515625 -0.4375 0.875 -1.015625q0.375 -0.59375 0.609375 -1.265625q0.234375 -0.671875 0.34375 -1.390625q0.125 -0.734375 0.140625 -1.4375zm-1.671875 -1.53125l0 1.53125q-0.015625 0.46875 -0.0625 0.984375q-0.046875 0.515625 -0.171875 1.015625q-0.140625 0.515625 -0.359375 0.984375q-0.203125 0.453125 -0.53125 0.796875q-0.328125 0.359375 -0.78125 0.578125q-0.453125 0.203125 -1.03125 0.203125q-0.59375 0 -1.046875 -0.203125q-0.4375 -0.21875 -0.765625 -0.578125q-0.328125 -0.34375 -0.546875 -0.8125q-0.21875 -0.46875 -0.359375 -0.96875q-0.140625 -0.5 -0.203125 -1.015625q-0.0625 -0.53125 -0.0625 -0.984375l0 -1.53125q0 -0.46875 0.0625 -0.984375q0.0625 -0.515625 0.203125 -1.03125q0.125 -0.5 0.34375 -0.953125q0.21875 -0.46875 0.546875 -0.8125q0.328125 -0.359375 0.765625 -0.5625q0.453125 -0.203125 1.03125 -0.203125q0.59375 0 1.03125 0.203125q0.453125 0.203125 0.78125 0.546875q0.328125 0.359375 0.546875 0.828125q0.21875 0.453125 0.359375 0.953125q0.125 0.5 0.171875 1.015625q0.0625 0.515625 0.078125 1.0zm10.726807 7.390625l1.53125 0l0 -9.859375l-1.6875 0l0 7.078125q-0.140625 0.3125 -0.34375 0.578125q-0.203125 0.265625 -0.484375 0.46875q-0.328125 0.234375 -0.78125 0.375q-0.4375 0.125 -1.0 0.125q-0.484375 0 -0.859375 -0.125q-0.359375 -0.140625 -0.625 -0.453125q-0.25 -0.3125 -0.375 -0.828125q-0.125 -0.53125 -0.125 -1.34375l0 -5.875l-1.6875 0l0 5.859375q0 1.109375 0.234375 1.890625q0.25 0.78125 0.6875 1.296875q0.453125 0.515625 1.078125 0.765625q0.625 0.234375 1.40625 0.234375q0.96875 0 1.703125 -0.40625q0.734375 -0.40625 1.234375 -1.140625l0.09375 1.359375zm8.695587 -12.25l-1.703125 0l0 2.390625l-2.578125 0l0 1.3125l2.578125 0l0 5.34375q0 0.921875 0.234375 1.5625q0.25 0.640625 0.671875 1.046875q0.421875 0.40625 0.984375 0.59375q0.578125 0.1875 1.234375 0.1875q0.390625 0 0.78125 -0.046875q0.40625 -0.03125 0.75 -0.109375q0.359375 -0.0625 0.65625 -0.15625q0.296875 -0.09375 0.515625 -0.21875l-0.234375 -1.203125q-0.15625 0.046875 -0.40625 0.09375q-0.234375 0.046875 -0.515625 0.09375q-0.28125 0.046875 -0.578125 0.078125q-0.28125 0.03125 -0.546875 0.03125q-0.375 0 -0.71875 -0.09375q-0.328125 -0.09375 -0.578125 -0.3125q-0.265625 -0.21875 -0.40625 -0.59375q-0.140625 -0.375 -0.140625 -0.953125l0 -5.34375l3.75 0l0 -1.3125l-3.75 0l0 -2.390625zm7.195587 16.04686l1.6875 0l0 -4.7499847q0.171875 0.203125 0.375 0.375q0.21875 0.171875 0.453125 0.3125q0.390625 0.21875 0.875 0.328125q0.5 0.125 1.0625 0.125q0.921875 0 1.640625 -0.375q0.734375 -0.390625 1.234375 -1.0625q0.484375 -0.6875 0.734375 -1.59375q0.265625 -0.921875 0.265625 -1.96875l0 -0.203125q0 -1.09375 -0.265625 -2.015625q-0.25 -0.9375 -0.734375 -1.59375q-0.5 -0.671875 -1.234375 -1.03125q-0.71875 -0.375 -1.671875 -0.375q-0.53125 0 -1.0 0.109375q-0.46875 0.109375 -0.859375 0.328125q-0.265625 0.140625 -0.515625 0.359375q-0.234375 0.203125 -0.421875 0.453125l-0.09375 -1.078125l-1.53125 0l0 13.656235zm6.640625 -8.812485l0 0.203125q0 0.71875 -0.171875 1.375q-0.15625 0.65625 -0.484375 1.15625q-0.328125 0.5 -0.84375 0.796875q-0.5 0.296875 -1.203125 0.296875q-0.4375 0 -0.796875 -0.109375q-0.359375 -0.109375 -0.640625 -0.3125q-0.265625 -0.15625 -0.46875 -0.390625q-0.1875 -0.234375 -0.34375 -0.515625l0 -4.75q0.171875 -0.296875 0.390625 -0.546875q0.234375 -0.265625 0.53125 -0.4375q0.265625 -0.171875 0.59375 -0.265625q0.328125 -0.09375 0.71875 -0.09375q0.71875 0 1.21875 0.296875q0.515625 0.28125 0.84375 0.78125q0.328125 0.5 0.484375 1.15625q0.171875 0.640625 0.171875 1.359375zm11.054932 5.015625l1.53125 0l0 -9.859375l-1.6875 0l0 7.078125q-0.140625 0.3125 -0.34375 0.578125q-0.203125 0.265625 -0.484375 0.46875q-0.328125 0.234375 -0.78125 0.375q-0.4375 0.125 -1.0 0.125q-0.484375 0 -0.859375 -0.125q-0.359375 -0.140625 -0.625 -0.453125q-0.25 -0.3125 -0.375 -0.828125q-0.125 -0.53125 -0.125 -1.34375l0 -5.875l-1.6875 0l0 5.859375q0 1.109375 0.234375 1.890625q0.25 0.78125 0.6875 1.296875q0.453125 0.515625 1.078125 0.765625q0.625 0.234375 1.40625 0.234375q0.96875 0 1.703125 -0.40625q0.734375 -0.40625 1.234375 -1.140625l0.09375 1.359375zm8.695557 -12.25l-1.703125 0l0 2.390625l-2.578125 0l0 1.3125l2.578125 0l0 5.34375q0 0.921875 0.234375 1.5625q0.25 0.640625 0.671875 1.046875q0.421875 0.40625 0.984375 0.59375q0.578125 0.1875 1.234375 0.1875q0.390625 0 0.78125 -0.046875q0.40625 -0.03125 0.75 -0.109375q0.359375 -0.0625 0.65625 -0.15625q0.296875 -0.09375 0.515625 -0.21875l-0.234375 -1.203125q-0.15625 0.046875 -0.40625 0.09375q-0.234375 0.046875 -0.515625 0.09375q-0.28125 0.046875 -0.578125 0.078125q-0.28125 0.03125 -0.546875 0.03125q-0.375 0 -0.71875 -0.09375q-0.328125 -0.09375 -0.578125 -0.3125q-0.265625 -0.21875 -0.40625 -0.59375q-0.140625 -0.375 -0.140625 -0.953125l0 -5.34375l3.75 0l0 -1.3125l-3.75 0l0 -2.390625zm20.06305 6.859375l0 0.09375q0 1.3125 0.203125 2.46875q0.203125 1.140625 0.5625 2.109375q0.328125 0.984375 0.78125 1.78125q0.453125 0.8125 0.953125 1.4375q0.484375 0.64060974 0.984375 1.0781097q0.515625 0.453125 0.96875 0.703125l0.359375 -1.03125q-0.375 -0.296875 -0.75 -0.71873474q-0.359375 -0.421875 -0.703125 -0.96875q-0.34375 -0.578125 -0.65625 -1.3125q-0.3125 -0.71875 -0.546875 -1.5625q-0.21875 -0.84375 -0.34375 -1.828125q-0.125 -1.0 -0.125 -2.140625l0 -0.125q0 -1.1875 0.125 -2.203125q0.140625 -1.03125 0.390625 -1.890625q0.265625 -0.953125 0.640625 -1.75q0.390625 -0.796875 0.796875 -1.390625q0.28125 -0.375 0.578125 -0.6875q0.296875 -0.3125 0.59375 -0.53125l-0.359375 -1.109375q-0.453125 0.25 -0.953125 0.703125q-0.5 0.453125 -1.0 1.078125q-0.5 0.625 -0.953125 1.4375q-0.4375 0.8125 -0.78125 1.78125q-0.359375 0.984375 -0.5625 2.140625q-0.203125 1.140625 -0.203125 2.4375zm14.992432 5.390625l0 -13.265625l-0.125 0l-5.03125 1.9375l0 1.53125l3.46875 -1.3125l0 11.109375l1.6875 0zm25.281769 -4.8125l0 -0.203125q0 -0.765625 -0.125 -1.453125q-0.125 -0.703125 -0.375 -1.28125q-0.234375 -0.515625 -0.546875 -0.921875q-0.3125 -0.421875 -0.703125 -0.703125q-0.4375 -0.3125 -0.984375 -0.484375q-0.53125 -0.171875 -1.15625 -0.171875q-0.515625 0 -0.953125 0.09375q-0.4375 0.09375 -0.796875 0.296875q-0.296875 0.15625 -0.5625 0.375q-0.25 0.203125 -0.453125 0.46875l0 -5.203125l-1.6875 0l0 14.0l1.546875 0l0.078125 -1.125q0.171875 0.21875 0.34375 0.390625q0.1875 0.171875 0.390625 0.3125q0.421875 0.296875 0.9375 0.453125q0.53125 0.15625 1.171875 0.15625q0.546875 0 1.015625 -0.140625q0.484375 -0.140625 0.890625 -0.390625q0.5625 -0.34375 0.953125 -0.890625q0.390625 -0.546875 0.640625 -1.21875q0.1875 -0.53125 0.28125 -1.125q0.09375 -0.59375 0.09375 -1.234375zm-1.6875 -0.203125l0 0.203125q0 0.4375 -0.0625 0.859375q-0.046875 0.40625 -0.15625 0.78125q-0.15625 0.46875 -0.40625 0.875q-0.234375 0.390625 -0.609375 0.640625q-0.265625 0.203125 -0.609375 0.3125q-0.34375 0.09375 -0.765625 0.09375q-0.4375 0 -0.8125 -0.109375q-0.359375 -0.109375 -0.640625 -0.328125q-0.296875 -0.203125 -0.53125 -0.484375q-0.21875 -0.28125 -0.375 -0.609375l0 -4.3125q0.15625 -0.328125 0.375 -0.59375q0.21875 -0.28125 0.515625 -0.5q0.28125 -0.1875 0.640625 -0.296875q0.375 -0.125 0.8125 -0.125q0.390625 0 0.71875 0.09375q0.328125 0.09375 0.59375 0.25q0.390625 0.234375 0.65625 0.640625q0.265625 0.390625 0.421875 0.875q0.125 0.390625 0.171875 0.84375q0.0625 0.4375 0.0625 0.890625zm4.789337 -4.84375l0 1.46875l3.359375 0l0 6.9375l-3.359375 0l0 1.453125l8.265625 0l0 -1.453125l-3.21875 0l0 -8.40625l-5.046875 0zm3.140625 -2.578125q0 0.40625 0.25 0.6875q0.25 0.265625 0.765625 0.265625q0.5 0 0.75 -0.265625q0.25 -0.28125 0.25 -0.6875q0 -0.234375 -0.078125 -0.421875q-0.0625 -0.1875 -0.203125 -0.328125q-0.125 -0.109375 -0.3125 -0.171875q-0.171875 -0.078125 -0.40625 -0.078125q-0.25 0 -0.4375 0.078125q-0.171875 0.0625 -0.296875 0.171875q-0.140625 0.140625 -0.21875 0.34375q-0.0625 0.1875 -0.0625 0.40625zm11.789307 0.1875l-1.703125 0l0 2.390625l-2.578125 0l0 1.3125l2.578125 0l0 5.34375q0 0.921875 0.234375 1.5625q0.25 0.640625 0.671875 1.046875q0.421875 0.40625 0.984375 0.59375q0.578125 0.1875 1.234375 0.1875q0.390625 0 0.78125 -0.046875q0.40625 -0.03125 0.75 -0.109375q0.359375 -0.0625 0.65625 -0.15625q0.296875 -0.09375 0.515625 -0.21875l-0.234375 -1.203125q-0.15625 0.046875 -0.40625 0.09375q-0.234375 0.046875 -0.515625 0.09375q-0.28125 0.046875 -0.578125 0.078125q-0.28125 0.03125 -0.546875 0.03125q-0.375 0 -0.71875 -0.09375q-0.328125 -0.09375 -0.578125 -0.3125q-0.265625 -0.21875 -0.40625 -0.59375q-0.140625 -0.375 -0.140625 -0.953125l0 -5.34375l3.75 0l0 -1.3125l-3.75 0l0 -2.390625zm13.351807 6.953125l0 -0.09375q0 -1.390625 -0.21875 -2.5q-0.203125 -1.125 -0.53125 -2.078125q-0.34375 -0.984375 -0.796875 -1.78125q-0.4375 -0.796875 -0.953125 -1.4375q-0.484375 -0.625 -1.0 -1.078125q-0.515625 -0.453125 -0.96875 -0.703125l-0.34375 1.03125q0.296875 0.25 0.609375 0.609375q0.328125 0.34375 0.625 0.796875q0.390625 0.59375 0.765625 1.390625q0.375 0.796875 0.640625 1.796875q0.171875 0.703125 0.328125 1.71875q0.15625 1.0 0.15625 2.21875l0 0.125q0 1.09375 -0.125 2.046875q-0.109375 0.953125 -0.3125 1.765625q-0.203125 0.890625 -0.53125 1.625q-0.3125 0.75 -0.640625 1.34375q-0.359375 0.578125 -0.75 1.015625q-0.390625 0.45310974 -0.765625 0.73435974l0.34375 1.03125q0.453125 -0.25 0.953125 -0.703125q0.515625 -0.4375 1.015625 -1.0781097q0.5 -0.625 0.9375 -1.4375q0.453125 -0.796875 0.8125 -1.78125q0.34375 -0.96875 0.546875 -2.109375q0.203125 -1.15625 0.203125 -2.46875z" fill-rule="nonzero"/><path fill="#ffffff" d="m95.17215 146.47769l31.496063 0l0 31.496063l-31.496063 0z" fill-rule="evenodd"/><path stroke="#000000" stroke-width="1.0" stroke-linejoin="round" stroke-linecap="butt" d="m95.17215 146.47769l31.496063 0l0 31.496063l-31.496063 0z" fill-rule="evenodd"/><path fill="#000000" d="m109.7034 167.30573l0 -10.421875l-0.09375 0l-3.953125 1.515625l0 1.21875l2.734375 -1.046875l0 8.734375l1.3125 0z" fill-rule="nonzero"/><path fill="#ffffff" d="m127.38609 146.47769l31.496063 0l0 31.496063l-31.496063 0z" fill-rule="evenodd"/><path stroke="#000000" stroke-width="1.0" stroke-linejoin="round" stroke-linecap="butt" d="m127.38609 146.47769l31.496063 0l0 31.496063l-31.496063 0z" fill-rule="evenodd"/><path fill="#000000" d="m144.16734 163.32135l0 -2.4375q0 -1.0 -0.234375 -1.765625q-0.21875 -0.765625 -0.640625 -1.296875q-0.4375 -0.53125 -1.078125 -0.796875q-0.625 -0.28125 -1.421875 -0.28125q-0.796875 0 -1.421875 0.28125q-0.625 0.265625 -1.046875 0.796875q-0.4375 0.53125 -0.671875 1.296875q-0.234375 0.765625 -0.234375 1.765625l0 2.4375q0 1.0 0.234375 1.765625q0.234375 0.765625 0.671875 1.28125q0.4375 0.546875 1.0625 0.8125q0.625 0.265625 1.421875 0.265625q0.796875 0 1.421875 -0.265625q0.625 -0.28125 1.0625 -0.8125q0.421875 -0.515625 0.640625 -1.28125q0.234375 -0.765625 0.234375 -1.765625zm-5.40625 -0.265625q0 -0.1875 0 -0.359375q0 -0.1875 0 -0.359375l0 -1.75q0 -0.734375 0.140625 -1.28125q0.140625 -0.5625 0.453125 -0.90625q0.25 -0.28125 0.609375 -0.421875q0.359375 -0.15625 0.828125 -0.15625q0.46875 0 0.8125 0.140625q0.359375 0.140625 0.609375 0.40625q0.25 0.265625 0.390625 0.671875q0.15625 0.390625 0.203125 0.90625l-4.046875 3.109375zm4.078125 0.546875q0 0.765625 -0.15625 1.328125q-0.15625 0.5625 -0.484375 0.921875q-0.234375 0.25 -0.59375 0.390625q-0.34375 0.125 -0.796875 0.125q-0.421875 0 -0.765625 -0.125q-0.34375 -0.125 -0.59375 -0.359375q-0.265625 -0.265625 -0.4375 -0.65625q-0.15625 -0.390625 -0.21875 -0.921875l4.046875 -3.09375q0 0.203125 0 0.515625q0 0.296875 0 0.390625l0 1.484375z" fill-rule="nonzero"/><path fill="#ffffff" d="m159.60004 146.47769l31.496063 0l0 31.496063l-31.496063 0z" fill-rule="evenodd"/><path stroke="#000000" stroke-width="1.0" stroke-linejoin="round" stroke-linecap="butt" d="m159.60004 146.47769l31.496063 0l0 31.496063l-31.496063 0z" fill-rule="evenodd"/><path fill="#000000" d="m174.13129 167.30573l0 -10.421875l-0.09375 0l-3.953125 1.515625l0 1.21875l2.734375 -1.046875l0 8.734375l1.3125 0z" fill-rule="nonzero"/><path fill="#ffffff" d="m256.24188 146.47769l31.496063 0l0 31.496063l-31.496063 0z" fill-rule="evenodd"/><path stroke="#000000" stroke-width="1.0" stroke-linejoin="round" stroke-linecap="butt" d="m256.24188 146.47769l31.496063 0l0 31.496063l-31.496063 0z" fill-rule="evenodd"/><path fill="#000000" d="m273.02313 163.32135l0 -2.4375q0 -1.0 -0.234375 -1.765625q-0.21875 -0.765625 -0.640625 -1.296875q-0.4375 -0.53125 -1.078125 -0.796875q-0.625 -0.28125 -1.421875 -0.28125q-0.796875 0 -1.421875 0.28125q-0.625 0.265625 -1.046875 0.796875q-0.4375 0.53125 -0.671875 1.296875q-0.234375 0.765625 -0.234375 1.765625l0 2.4375q0 1.0 0.234375 1.765625q0.234375 0.765625 0.671875 1.28125q0.4375 0.546875 1.0625 0.8125q0.625 0.265625 1.421875 0.265625q0.796875 0 1.421875 -0.265625q0.625 -0.28125 1.0625 -0.8125q0.421875 -0.515625 0.640625 -1.28125q0.234375 -0.765625 0.234375 -1.765625zm-5.40625 -0.265625q0 -0.1875 0 -0.359375q0 -0.1875 0 -0.359375l0 -1.75q0 -0.734375 0.140625 -1.28125q0.140625 -0.5625 0.453125 -0.90625q0.25 -0.28125 0.609375 -0.421875q0.359375 -0.15625 0.828125 -0.15625q0.46875 0 0.8125 0.140625q0.359375 0.140625 0.609375 0.40625q0.25 0.265625 0.390625 0.671875q0.15625 0.390625 0.203125 0.90625l-4.046875 3.109375zm4.078125 0.546875q0 0.765625 -0.15625 1.328125q-0.15625 0.5625 -0.484375 0.921875q-0.234375 0.25 -0.59375 0.390625q-0.34375 0.125 -0.796875 0.125q-0.421875 0 -0.765625 -0.125q-0.34375 -0.125 -0.59375 -0.359375q-0.265625 -0.265625 -0.4375 -0.65625q-0.15625 -0.390625 -0.21875 -0.921875l4.046875 -3.09375q0 0.203125 0 0.515625q0 0.296875 0 0.390625l0 1.484375z" fill-rule="nonzero"/><path fill="#ffffff" d="m191.81398 146.47769l31.496063 0l0 31.496063l-31.496063 0z" fill-rule="evenodd"/><path stroke="#000000" stroke-width="1.0" stroke-linejoin="round" stroke-linecap="butt" d="m191.81398 146.47769l31.496063 0l0 31.496063l-31.496063 0z" fill-rule="evenodd"/><path fill="#000000" d="m206.34523 167.30573l0 -10.421875l-0.09375 0l-3.953125 1.515625l0 1.21875l2.734375 -1.046875l0 8.734375l1.3125 0z" fill-rule="nonzero"/><path fill="#ffffff" d="m224.02792 146.47769l31.496063 0l0 31.496063l-31.496063 0z" fill-rule="evenodd"/><path stroke="#000000" stroke-width="1.0" stroke-linejoin="round" stroke-linecap="butt" d="m224.02792 146.47769l31.496063 0l0 31.496063l-31.496063 0z" fill-rule="evenodd"/><path fill="#000000" d="m240.80917 163.32135l0 -2.4375q0 -1.0 -0.234375 -1.765625q-0.21875 -0.765625 -0.640625 -1.296875q-0.4375 -0.53125 -1.078125 -0.796875q-0.625 -0.28125 -1.421875 -0.28125q-0.796875 0 -1.421875 0.28125q-0.625 0.265625 -1.046875 0.796875q-0.4375 0.53125 -0.671875 1.296875q-0.234375 0.765625 -0.234375 1.765625l0 2.4375q0 1.0 0.234375 1.765625q0.234375 0.765625 0.671875 1.28125q0.4375 0.546875 1.0625 0.8125q0.625 0.265625 1.421875 0.265625q0.796875 0 1.421875 -0.265625q0.625 -0.28125 1.0625 -0.8125q0.421875 -0.515625 0.640625 -1.28125q0.234375 -0.765625 0.234375 -1.765625zm-5.40625 -0.265625q0 -0.1875 0 -0.359375q0 -0.1875 0 -0.359375l0 -1.75q0 -0.734375 0.140625 -1.28125q0.140625 -0.5625 0.453125 -0.90625q0.25 -0.28125 0.609375 -0.421875q0.359375 -0.15625 0.828125 -0.15625q0.46875 0 0.8125 0.140625q0.359375 0.140625 0.609375 0.40625q0.25 0.265625 0.390625 0.671875q0.15625 0.390625 0.203125 0.90625l-4.046875 3.109375zm4.078125 0.546875q0 0.765625 -0.15625 1.328125q-0.15625 0.5625 -0.484375 0.921875q-0.234375 0.25 -0.59375 0.390625q-0.34375 0.125 -0.796875 0.125q-0.421875 0 -0.765625 -0.125q-0.34375 -0.125 -0.59375 -0.359375q-0.265625 -0.265625 -0.4375 -0.65625q-0.15625 -0.390625 -0.21875 -0.921875l4.046875 -3.09375q0 0.203125 0 0.515625q0 0.296875 0 0.390625l0 1.484375z" fill-rule="nonzero"/><path fill="#ffffff" d="m288.4558 146.47769l31.496063 0l0 31.496063l-31.496063 0z" fill-rule="evenodd"/><path stroke="#000000" stroke-width="1.0" stroke-linejoin="round" stroke-linecap="butt" d="m288.4558 146.47769l31.496063 0l0 31.496063l-31.496063 0z" fill-rule="evenodd"/><path fill="#000000" d="m305.23706 163.32135l0 -2.4375q0 -1.0 -0.234375 -1.765625q-0.21875 -0.765625 -0.640625 -1.296875q-0.4375 -0.53125 -1.078125 -0.796875q-0.625 -0.28125 -1.421875 -0.28125q-0.796875 0 -1.421875 0.28125q-0.625 0.265625 -1.046875 0.796875q-0.4375 0.53125 -0.671875 1.296875q-0.234375 0.765625 -0.234375 1.765625l0 2.4375q0 1.0 0.234375 1.765625q0.234375 0.765625 0.671875 1.28125q0.4375 0.546875 1.0625 0.8125q0.625 0.265625 1.421875 0.265625q0.796875 0 1.421875 -0.265625q0.625 -0.28125 1.0625 -0.8125q0.421875 -0.515625 0.640625 -1.28125q0.234375 -0.765625 0.234375 -1.765625zm-5.40625 -0.265625q0 -0.1875 0 -0.359375q0 -0.1875 0 -0.359375l0 -1.75q0 -0.734375 0.140625 -1.28125q0.140625 -0.5625 0.453125 -0.90625q0.25 -0.28125 0.609375 -0.421875q0.359375 -0.15625 0.828125 -0.15625q0.46875 0 0.8125 0.140625q0.359375 0.140625 0.609375 0.40625q0.25 0.265625 0.390625 0.671875q0.15625 0.390625 0.203125 0.90625l-4.046875 3.109375zm4.078125 0.546875q0 0.765625 -0.15625 1.328125q-0.15625 0.5625 -0.484375 0.921875q-0.234375 0.25 -0.59375 0.390625q-0.34375 0.125 -0.796875 0.125q-0.421875 0 -0.765625 -0.125q-0.34375 -0.125 -0.59375 -0.359375q-0.265625 -0.265625 -0.4375 -0.65625q-0.15625 -0.390625 -0.21875 -0.921875l4.046875 -3.09375q0 0.203125 0 0.515625q0 0.296875 0 0.390625l0 1.484375z" fill-rule="nonzero"/><path fill="#ffffff" d="m320.66977 146.47769l31.496063 0l0 31.496063l-31.496063 0z" fill-rule="evenodd"/><path stroke="#000000" stroke-width="1.0" stroke-linejoin="round" stroke-linecap="butt" d="m320.66977 146.47769l31.496063 0l0 31.496063l-31.496063 0z" fill-rule="evenodd"/><path fill="#000000" d="m335.20102 167.30573l0 -10.421875l-0.09375 0l-3.953125 1.515625l0 1.21875l2.734375 -1.046875l0 8.734375l1.3125 0z" fill-rule="nonzero"/><path fill="#ffffff" d="m352.8837 146.47769l31.496063 0l0 31.496063l-31.496063 0z" fill-rule="evenodd"/><path stroke="#000000" stroke-width="1.0" stroke-linejoin="round" stroke-linecap="butt" d="m352.8837 146.47769l31.496063 0l0 31.496063l-31.496063 0z" fill-rule="evenodd"/><path fill="#000000" d="m367.41495 167.30573l0 -10.421875l-0.09375 0l-3.953125 1.515625l0 1.21875l2.734375 -1.046875l0 8.734375l1.3125 0z" fill-rule="nonzero"/><path fill="#ffffff" d="m385.09766 146.47769l31.496063 0l0 31.496063l-31.496063 0z" fill-rule="evenodd"/><path stroke="#000000" stroke-width="1.0" stroke-linejoin="round" stroke-linecap="butt" d="m385.09766 146.47769l31.496063 0l0 31.496063l-31.496063 0z" fill-rule="evenodd"/><path fill="#000000" d="m401.8789 163.32135l0 -2.4375q0 -1.0 -0.234375 -1.765625q-0.21875 -0.765625 -0.640625 -1.296875q-0.4375 -0.53125 -1.078125 -0.796875q-0.625 -0.28125 -1.421875 -0.28125q-0.796875 0 -1.421875 0.28125q-0.625 0.265625 -1.046875 0.796875q-0.4375 0.53125 -0.671875 1.296875q-0.234375 0.765625 -0.234375 1.765625l0 2.4375q0 1.0 0.234375 1.765625q0.234375 0.765625 0.671875 1.28125q0.4375 0.546875 1.0625 0.8125q0.625 0.265625 1.421875 0.265625q0.796875 0 1.421875 -0.265625q0.625 -0.28125 1.0625 -0.8125q0.421875 -0.515625 0.640625 -1.28125q0.234375 -0.765625 0.234375 -1.765625zm-5.40625 -0.265625q0 -0.1875 0 -0.359375q0 -0.1875 0 -0.359375l0 -1.75q0 -0.734375 0.140625 -1.28125q0.140625 -0.5625 0.453125 -0.90625q0.25 -0.28125 0.609375 -0.421875q0.359375 -0.15625 0.828125 -0.15625q0.46875 0 0.8125 0.140625q0.359375 0.140625 0.609375 0.40625q0.25 0.265625 0.390625 0.671875q0.15625 0.390625 0.203125 0.90625l-4.046875 3.109375zm4.078125 0.546875q0 0.765625 -0.15625 1.328125q-0.15625 0.5625 -0.484375 0.921875q-0.234375 0.25 -0.59375 0.390625q-0.34375 0.125 -0.796875 0.125q-0.421875 0 -0.765625 -0.125q-0.34375 -0.125 -0.59375 -0.359375q-0.265625 -0.265625 -0.4375 -0.65625q-0.15625 -0.390625 -0.21875 -0.921875l4.046875 -3.09375q0 0.203125 0 0.515625q0 0.296875 0 0.390625l0 1.484375z" fill-rule="nonzero"/><path fill="#ffffff" d="m417.31158 146.47769l31.496063 0l0 31.496063l-31.496063 0z" fill-rule="evenodd"/><path stroke="#000000" stroke-width="1.0" stroke-linejoin="round" stroke-linecap="butt" d="m417.31158 146.47769l31.496063 0l0 31.496063l-31.496063 0z" fill-rule="evenodd"/><path fill="#000000" d="m431.84283 167.30573l0 -10.421875l-0.09375 0l-3.953125 1.515625l0 1.21875l2.734375 -1.046875l0 8.734375l1.3125 0z" fill-rule="nonzero"/><path fill="#ffffff" d="m481.73947 146.47769l31.496063 0l0 31.496063l-31.496063 0z" fill-rule="evenodd"/><path stroke="#000000" stroke-width="1.0" stroke-linejoin="round" stroke-linecap="butt" d="m481.73947 146.47769l31.496063 0l0 31.496063l-31.496063 0z" fill-rule="evenodd"/><path fill="#000000" d="m496.27072 167.30573l0 -10.421875l-0.09375 0l-3.953125 1.515625l0 1.21875l2.734375 -1.046875l0 8.734375l1.3125 0z" fill-rule="nonzero"/><path fill="#ffffff" d="m513.9534 146.47769l31.496033 0l0 31.496063l-31.496033 0z" fill-rule="evenodd"/><path stroke="#000000" stroke-width="1.0" stroke-linejoin="round" stroke-linecap="butt" d="m513.9534 146.47769l31.496033 0l0 31.496063l-31.496033 0z" fill-rule="evenodd"/><path fill="#000000" d="m530.7347 163.32135l0 -2.4375q0 -1.0 -0.234375 -1.765625q-0.21875 -0.765625 -0.640625 -1.296875q-0.4375 -0.53125 -1.078125 -0.796875q-0.625 -0.28125 -1.421875 -0.28125q-0.796875 0 -1.421875 0.28125q-0.625 0.265625 -1.046875 0.796875q-0.4375 0.53125 -0.671875 1.296875q-0.234375 0.765625 -0.234375 1.765625l0 2.4375q0 1.0 0.234375 1.765625q0.234375 0.765625 0.671875 1.28125q0.4375 0.546875 1.0625 0.8125q0.625 0.265625 1.421875 0.265625q0.796875 0 1.421875 -0.265625q0.625 -0.28125 1.0625 -0.8125q0.421875 -0.515625 0.640625 -1.28125q0.234375 -0.765625 0.234375 -1.765625zm-5.40625 -0.265625q0 -0.1875 0 -0.359375q0 -0.1875 0 -0.359375l0 -1.75q0 -0.734375 0.140625 -1.28125q0.140625 -0.5625 0.453125 -0.90625q0.25 -0.28125 0.609375 -0.421875q0.359375 -0.15625 0.828125 -0.15625q0.46875 0 0.8125 0.140625q0.359375 0.140625 0.609375 0.40625q0.25 0.265625 0.390625 0.671875q0.15625 0.390625 0.203125 0.90625l-4.046875 3.109375zm4.078125 0.546875q0 0.765625 -0.15625 1.328125q-0.15625 0.5625 -0.484375 0.921875q-0.234375 0.25 -0.59375 0.390625q-0.34375 0.125 -0.796875 0.125q-0.421875 0 -0.765625 -0.125q-0.34375 -0.125 -0.59375 -0.359375q-0.265625 -0.265625 -0.4375 -0.65625q-0.15625 -0.390625 -0.21875 -0.921875l4.046875 -3.09375q0 0.203125 0 0.515625q0 0.296875 0 0.390625l0 1.484375z" fill-rule="nonzero"/><path fill="#ffffff" d="m546.16736 146.47769l31.496094 0l0 31.496063l-31.496094 0z" fill-rule="evenodd"/><path stroke="#000000" stroke-width="1.0" stroke-linejoin="round" stroke-linecap="butt" d="m546.16736 146.47769l31.496094 0l0 31.496063l-31.496094 0z" fill-rule="evenodd"/><path fill="#000000" d="m560.6986 167.30573l0 -10.421875l-0.09375 0l-3.953125 1.515625l0 1.21875l2.734375 -1.046875l0 8.734375l1.3125 0z" fill-rule="nonzero"/><path fill="#ffffff" d="m578.3813 146.47769l31.496094 0l0 31.496063l-31.496094 0z" fill-rule="evenodd"/><path stroke="#000000" stroke-width="1.0" stroke-linejoin="round" stroke-linecap="butt" d="m578.3813 146.47769l31.496094 0l0 31.496063l-31.496094 0z" fill-rule="evenodd"/><path fill="#000000" d="m592.91254 167.30573l0 -10.421875l-0.09375 0l-3.953125 1.515625l0 1.21875l2.734375 -1.046875l0 8.734375l1.3125 0z" fill-rule="nonzero"/><path fill="#ffffff" d="m610.5953 146.47769l31.496033 0l0 31.496063l-31.496033 0z" fill-rule="evenodd"/><path stroke="#000000" stroke-width="1.0" stroke-linejoin="round" stroke-linecap="butt" d="m610.5953 146.47769l31.496033 0l0 31.496063l-31.496033 0z" fill-rule="evenodd"/><path fill="#000000" d="m627.3765 163.32135l0 -2.4375q0 -1.0 -0.234375 -1.765625q-0.21875 -0.765625 -0.640625 -1.296875q-0.4375 -0.53125 -1.078125 -0.796875q-0.625 -0.28125 -1.421875 -0.28125q-0.796875 0 -1.421875 0.28125q-0.625 0.265625 -1.046875 0.796875q-0.4375 0.53125 -0.671875 1.296875q-0.234375 0.765625 -0.234375 1.765625l0 2.4375q0 1.0 0.234375 1.765625q0.234375 0.765625 0.671875 1.28125q0.4375 0.546875 1.0625 0.8125q0.625 0.265625 1.421875 0.265625q0.796875 0 1.421875 -0.265625q0.625 -0.28125 1.0625 -0.8125q0.421875 -0.515625 0.640625 -1.28125q0.234375 -0.765625 0.234375 -1.765625zm-5.40625 -0.265625q0 -0.1875 0 -0.359375q0 -0.1875 0 -0.359375l0 -1.75q0 -0.734375 0.140625 -1.28125q0.140625 -0.5625 0.453125 -0.90625q0.25 -0.28125 0.609375 -0.421875q0.359375 -0.15625 0.828125 -0.15625q0.46875 0 0.8125 0.140625q0.359375 0.140625 0.609375 0.40625q0.25 0.265625 0.390625 0.671875q0.15625 0.390625 0.203125 0.90625l-4.046875 3.109375zm4.078125 0.546875q0 0.765625 -0.15625 1.328125q-0.15625 0.5625 -0.484375 0.921875q-0.234375 0.25 -0.59375 0.390625q-0.34375 0.125 -0.796875 0.125q-0.421875 0 -0.765625 -0.125q-0.34375 -0.125 -0.59375 -0.359375q-0.265625 -0.265625 -0.4375 -0.65625q-0.15625 -0.390625 -0.21875 -0.921875l4.046875 -3.09375q0 0.203125 0 0.515625q0 0.296875 0 0.390625l0 1.484375z" fill-rule="nonzero"/><path fill="#000000" fill-opacity="0.0" d="m449.52554 146.47769l31.496063 0l0 31.496063l-31.496063 0z" fill-rule="evenodd"/><path fill="#000000" d="m462.08203 168.05197q0 0.53125 0.328125 0.90625q0.34375 0.359375 1.0 0.359375q0.640625 0 0.984375 -0.359375q0.34375 -0.375 0.34375 -0.90625q0 -0.546875 -0.34375 -0.921875q-0.328125 -0.375 -0.984375 -0.375q-0.671875 0 -1.0 0.390625q-0.328125 0.375 -0.328125 0.90625zm3.53125 0q0 0.53125 0.328125 0.90625q0.34375 0.359375 1.0 0.359375q0.640625 0 0.984375 -0.359375q0.34375 -0.375 0.34375 -0.90625q0 -0.546875 -0.34375 -0.921875q-0.328125 -0.375 -0.984375 -0.375q-0.671875 0 -1.0 0.390625q-0.328125 0.375 -0.328125 0.90625zm3.40625 0q0 0.53125 0.328125 0.90625q0.34375 0.359375 1.0 0.359375q0.640625 0 0.984375 -0.359375q0.34375 -0.375 0.34375 -0.90625q0 -0.546875 -0.34375 -0.921875q-0.328125 -0.375 -0.984375 -0.375q-0.671875 0 -1.0 0.390625q-0.328125 0.375 -0.328125 0.90625z" fill-rule="nonzero"/><path fill="#000000" fill-opacity="0.0" d="m557.0273 117.21785l135.90552 0l0 42.015747l-135.90552 0z" fill-rule="evenodd"/><path fill="#000000" d="m621.8207 138.3226q0 -1.6875 0.34375 -2.71875q0.359375 -1.03125 1.046875 -1.59375q0.6875 -0.5625 1.71875 -0.5625q0.78125 0 1.359375 0.3125q0.578125 0.296875 0.953125 0.890625q0.375 0.578125 0.59375 1.421875q0.21875 0.828125 0.21875 2.25q0 1.671875 -0.359375 2.703125q-0.34375 1.03125 -1.03125 1.59375q-0.671875 0.5625 -1.734375 0.5625q-1.375 0 -2.15625 -0.984375q-0.953125 -1.1875 -0.953125 -3.875zm1.203125 0q0 2.34375 0.546875 3.125q0.5625 0.78125 1.359375 0.78125q0.8125 0 1.359375 -0.78125q0.5625 -0.78125 0.5625 -3.125q0 -2.359375 -0.5625 -3.125q-0.546875 -0.78125 -1.359375 -0.78125q-0.8125 0 -1.296875 0.6875q-0.609375 0.875 -0.609375 3.21875z" fill-rule="nonzero"/><path fill="#000000" fill-opacity="0.0" d="m40.844593 117.21785l135.90552 0l0 42.015747l-135.90552 0z" fill-rule="evenodd"/><path fill="#000000" d="m96.89116 135.8226l-1.15625 0.09375q-0.15625 -0.6875 -0.4375 -1.0q-0.484375 -0.5 -1.171875 -0.5q-0.5625 0 -0.984375 0.3125q-0.5625 0.390625 -0.890625 1.171875q-0.3125 0.765625 -0.3125 2.203125q0.421875 -0.640625 1.03125 -0.953125q0.609375 -0.3125 1.28125 -0.3125q1.171875 0 1.984375 0.859375q0.828125 0.859375 0.828125 2.234375q0 0.890625 -0.390625 1.671875q-0.375 0.765625 -1.0625 1.171875q-0.671875 0.40625 -1.53125 0.40625q-1.46875 0 -2.390625 -1.0625q-0.921875 -1.078125 -0.921875 -3.5625q0 -2.765625 1.015625 -4.015625q0.90625 -1.09375 2.40625 -1.09375q1.125 0 1.84375 0.640625q0.71875 0.625 0.859375 1.734375zm-4.78125 4.109375q0 0.609375 0.25 1.171875q0.265625 0.546875 0.71875 0.84375q0.46875 0.28125 0.984375 0.28125q0.734375 0 1.265625 -0.59375q0.546875 -0.609375 0.546875 -1.640625q0 -0.984375 -0.53125 -1.546875q-0.53125 -0.578125 -1.328125 -0.578125q-0.796875 0 -1.359375 0.578125q-0.546875 0.5625 -0.546875 1.484375zm6.1156006 0.59375l1.234375 -0.109375q0.140625 0.90625 0.640625 1.359375q0.5 0.453125 1.203125 0.453125q0.84375 0 1.421875 -0.640625q0.59375 -0.640625 0.59375 -1.6875q0 -1.0 -0.5625 -1.578125q-0.5625 -0.59375 -1.484375 -0.59375q-0.5625 0 -1.015625 0.265625q-0.453125 0.25 -0.71875 0.671875l-1.09375 -0.15625l0.921875 -4.890625l4.75 0l0 1.109375l-3.8125 0l-0.515625 2.5625q0.859375 -0.59375 1.796875 -0.59375q1.25 0 2.109375 0.875q0.859375 0.859375 0.859375 2.21875q0 1.296875 -0.75 2.234375q-0.921875 1.15625 -2.5 1.15625q-1.3125 0 -2.140625 -0.71875q-0.8125 -0.734375 -0.9375 -1.9375zm7.4124756 0l1.234375 -0.109375q0.140625 0.90625 0.640625 1.359375q0.5 0.453125 1.203125 0.453125q0.84375 0 1.421875 -0.640625q0.59375 -0.640625 0.59375 -1.6875q0 -1.0 -0.5625 -1.578125q-0.5625 -0.59375 -1.484375 -0.59375q-0.5625 0 -1.015625 0.265625q-0.453125 0.25 -0.71875 0.671875l-1.09375 -0.15625l0.921875 -4.890625l4.75 0l0 1.109375l-3.8125 0l-0.515625 2.5625q0.859375 -0.59375 1.796875 -0.59375q1.25 0 2.109375 0.875q0.859375 0.859375 0.859375 2.21875q0 1.296875 -0.75 2.234375q-0.921875 1.15625 -2.5 1.15625q-1.3125 0 -2.140625 -0.71875q-0.8125 -0.734375 -0.9375 -1.9375zm7.4281006 -0.015625l1.171875 -0.15625q0.203125 1.0 0.6875 1.4375q0.484375 0.4375 1.171875 0.4375q0.828125 0 1.390625 -0.578125q0.578125 -0.578125 0.578125 -1.421875q0 -0.796875 -0.53125 -1.3125q-0.515625 -0.53125 -1.328125 -0.53125q-0.34375 0 -0.828125 0.125l0.125 -1.03125q0.125 0.015625 0.1875 0.015625q0.75 0 1.34375 -0.390625q0.609375 -0.390625 0.609375 -1.203125q0 -0.640625 -0.4375 -1.0625q-0.4375 -0.421875 -1.125 -0.421875q-0.6875 0 -1.140625 0.4375q-0.453125 0.421875 -0.59375 1.28125l-1.171875 -0.21875q0.21875 -1.171875 0.984375 -1.8125q0.765625 -0.65625 1.890625 -0.65625q0.78125 0 1.4375 0.34375q0.65625 0.328125 1.0 0.90625q0.359375 0.578125 0.359375 1.234375q0 0.609375 -0.34375 1.125q-0.328125 0.5 -0.96875 0.796875q0.84375 0.203125 1.3125 0.828125q0.46875 0.609375 0.46875 1.53125q0 1.25 -0.921875 2.125q-0.90625 0.859375 -2.296875 0.859375q-1.25 0 -2.09375 -0.75q-0.828125 -0.75 -0.9375 -1.9375zm7.3968506 0.015625l1.234375 -0.109375q0.140625 0.90625 0.640625 1.359375q0.5 0.453125 1.203125 0.453125q0.84375 0 1.421875 -0.640625q0.59375 -0.640625 0.59375 -1.6875q0 -1.0 -0.5625 -1.578125q-0.5625 -0.59375 -1.484375 -0.59375q-0.5625 0 -1.015625 0.265625q-0.453125 0.25 -0.71875 0.671875l-1.09375 -0.15625l0.921875 -4.890625l4.75 0l0 1.109375l-3.8125 0l-0.515625 2.5625q0.859375 -0.59375 1.796875 -0.59375q1.25 0 2.109375 0.875q0.859375 0.859375 0.859375 2.21875q0 1.296875 -0.75 2.234375q-0.921875 1.15625 -2.5 1.15625q-1.3125 0 -2.140625 -0.71875q-0.8125 -0.734375 -0.9375 -1.9375z" fill-rule="nonzero"/><path fill="#000000" fill-opacity="0.0" d="m656.7076 84.50131l68.8504 0l0 45.259842l-68.8504 0z" fill-rule="evenodd"/><path fill="#000000" d="m695.4412 108.77311l0 -3.109375q0 -1.265625 -0.296875 -2.234375q-0.28125 -0.984375 -0.828125 -1.65625q-0.5625 -0.671875 -1.359375 -1.015625q-0.796875 -0.359375 -1.8125 -0.359375q-1.015625 0 -1.8125 0.359375q-0.796875 0.34375 -1.34375 1.015625q-0.546875 0.671875 -0.84375 1.65625q-0.28125 0.96875 -0.28125 2.234375l0 3.109375q0 1.265625 0.28125 2.25q0.296875 0.984375 0.84375 1.640625q0.5625 0.6875 1.359375 1.03125q0.8125 0.34375 1.8125 0.34375q1.03125 0 1.8125 -0.34375q0.796875 -0.359375 1.34375 -1.03125q0.546875 -0.65625 0.828125 -1.640625q0.296875 -0.984375 0.296875 -2.25zm-6.890625 -0.328125q0 -0.234375 0 -0.46875q0 -0.234375 0 -0.453125l0 -2.21875q0 -0.9375 0.1875 -1.640625q0.1875 -0.703125 0.5625 -1.15625q0.328125 -0.359375 0.78125 -0.53125q0.46875 -0.1875 1.0625 -0.1875q0.59375 0 1.046875 0.171875q0.453125 0.171875 0.765625 0.515625q0.3125 0.328125 0.5 0.84375q0.1875 0.5 0.265625 1.15625l-5.171875 3.96875zm5.203125 0.6875q0 0.96875 -0.203125 1.6875q-0.1875 0.71875 -0.609375 1.171875q-0.3125 0.328125 -0.765625 0.5q-0.4375 0.171875 -1.015625 0.171875q-0.546875 0 -0.984375 -0.15625q-0.4375 -0.15625 -0.734375 -0.46875q-0.34375 -0.328125 -0.5625 -0.828125q-0.203125 -0.515625 -0.28125 -1.171875l5.15625 -3.953125q0 0.265625 0 0.65625q0 0.375 0 0.515625l0 1.875z" fill-rule="nonzero"/><path fill="#000000" fill-opacity="0.0" d="m613.7076 84.50131l68.8504 0l0 45.259842l-68.8504 0z" fill-rule="evenodd"/><path fill="#000000" d="m649.58185 113.851234l0 -13.265625l-0.125 0l-5.03125 1.9375l0 1.53125l3.46875 -1.3125l0 11.109375l1.6875 0z" fill-rule="nonzero"/><path fill="#000000" fill-opacity="0.0" d="m570.7076 84.50131l68.8504 0l0 45.259842l-68.8504 0z" fill-rule="evenodd"/><path fill="#000000" d="m609.2537 113.851234l0 -1.375l-6.65625 0l3.5625 -3.859375q0.5 -0.546875 0.953125 -1.09375q0.453125 -0.5625 0.796875 -1.125q0.328125 -0.5625 0.53125 -1.140625q0.203125 -0.578125 0.203125 -1.171875q0 -0.796875 -0.28125 -1.46875q-0.28125 -0.671875 -0.796875 -1.15625q-0.515625 -0.5 -1.265625 -0.78125q-0.75 -0.28125 -1.6875 -0.28125q-1.03125 0 -1.828125 0.328125q-0.796875 0.328125 -1.34375 0.890625q-0.546875 0.5625 -0.84375 1.3125q-0.28125 0.734375 -0.28125 1.5625l1.6875 0q0 -0.609375 0.15625 -1.109375q0.15625 -0.515625 0.484375 -0.859375q0.328125 -0.34375 0.8125 -0.53125q0.484375 -0.203125 1.15625 -0.203125q0.546875 0 0.96875 0.1875q0.4375 0.1875 0.75 0.5q0.296875 0.328125 0.453125 0.765625q0.171875 0.421875 0.171875 0.921875q0 0.390625 -0.109375 0.78125q-0.09375 0.375 -0.328125 0.796875q-0.25 0.421875 -0.640625 0.921875q-0.390625 0.5 -0.96875 1.140625l-4.34375 4.828125l0 1.21875l8.6875 0z" fill-rule="nonzero"/><path fill="#000000" fill-opacity="0.0" d="m527.7076 84.50131l68.8504 0l0 45.259842l-68.8504 0z" fill-rule="evenodd"/><path fill="#000000" d="m560.08185 106.413734l0 1.359375l1.203125 0q0.640625 0 1.15625 0.15625q0.53125 0.140625 0.90625 0.4375q0.359375 0.296875 0.5625 0.75q0.203125 0.453125 0.203125 1.078125q0 0.625 -0.1875 1.09375q-0.171875 0.453125 -0.5 0.765625q-0.328125 0.296875 -0.796875 0.453125q-0.453125 0.15625 -1.03125 0.15625q-0.578125 0 -1.046875 -0.15625q-0.46875 -0.171875 -0.796875 -0.484375q-0.328125 -0.296875 -0.5 -0.71875q-0.171875 -0.4375 -0.171875 -0.953125l-1.6875 0q0 0.875 0.328125 1.5625q0.328125 0.6875 0.90625 1.15625q0.5625 0.46875 1.328125 0.71875q0.765625 0.25 1.640625 0.25q0.890625 0 1.65625 -0.265625q0.78125 -0.265625 1.34375 -0.765625q0.5625 -0.484375 0.875 -1.203125q0.328125 -0.71875 0.328125 -1.65625q0 -0.453125 -0.109375 -0.90625q-0.09375 -0.46875 -0.359375 -0.890625q-0.265625 -0.421875 -0.703125 -0.75q-0.421875 -0.34375 -1.078125 -0.5625q0.546875 -0.21875 0.921875 -0.5625q0.390625 -0.34375 0.640625 -0.734375q0.25 -0.375 0.359375 -0.78125q0.125 -0.421875 0.125 -0.796875q0 -0.921875 -0.296875 -1.625q-0.28125 -0.703125 -0.8125 -1.171875q-0.53125 -0.484375 -1.265625 -0.71875q-0.734375 -0.25 -1.625 -0.25q-0.921875 0 -1.6875 0.296875q-0.75 0.28125 -1.28125 0.78125q-0.53125 0.5 -0.828125 1.171875q-0.296875 0.65625 -0.296875 1.421875l1.6875 0q0 -0.515625 0.171875 -0.9375q0.171875 -0.421875 0.5 -0.71875q0.3125 -0.296875 0.75 -0.453125q0.4375 -0.171875 0.984375 -0.171875q0.546875 0 0.984375 0.140625q0.4375 0.140625 0.71875 0.421875q0.296875 0.296875 0.453125 0.734375q0.15625 0.4375 0.15625 1.03125q0 0.5 -0.171875 0.921875q-0.171875 0.421875 -0.5 0.71875q-0.328125 0.3125 -0.828125 0.484375q-0.484375 0.171875 -1.125 0.171875l-1.203125 0z" fill-rule="nonzero"/><path fill="#000000" fill-opacity="0.0" d="m484.70758 84.50131l68.8504 0l0 45.259842l-68.8504 0z" fill-rule="evenodd"/><path fill="#000000" d="m521.95685 109.39811l0 -8.8125l-1.796875 0l-5.9375 9.1875l0 1.0l6.046875 0l0 3.078125l1.6875 0l0 -3.078125l1.84375 0l0 -1.375l-1.84375 0zm-5.875 0l3.90625 -6.0625l0.28125 -0.5l0 6.5625l-4.1875 0z" fill-rule="nonzero"/><path fill="#000000" fill-opacity="0.0" d="m441.70758 84.50131l68.8504 0l0 45.259842l-68.8504 0z" fill-rule="evenodd"/><path fill="#000000" d="m472.7225 107.194984l1.34375 0.359375q0.234375 -0.203125 0.4375 -0.359375q0.21875 -0.15625 0.46875 -0.265625q0.25 -0.109375 0.546875 -0.171875q0.3125 -0.0625 0.734375 -0.0625q0.625 0 1.109375 0.234375q0.5 0.21875 0.84375 0.625q0.328125 0.390625 0.5 0.9375q0.1875 0.53125 0.1875 1.15625q0 0.671875 -0.15625 1.234375q-0.15625 0.5625 -0.46875 0.953125q-0.3125 0.390625 -0.78125 0.609375q-0.46875 0.21875 -1.0625 0.21875q-1.078125 0 -1.75 -0.578125q-0.671875 -0.59375 -0.828125 -1.71875l-1.609375 0q0.09375 0.921875 0.453125 1.609375q0.359375 0.6875 0.921875 1.140625q0.5625 0.46875 1.28125 0.703125q0.71875 0.21875 1.53125 0.21875q1.046875 0 1.828125 -0.328125q0.796875 -0.34375 1.3125 -0.9375q0.5 -0.578125 0.75 -1.390625q0.265625 -0.8125 0.265625 -1.765625q0 -1.0 -0.28125 -1.8125q-0.265625 -0.828125 -0.78125 -1.40625q-0.5 -0.578125 -1.234375 -0.890625q-0.734375 -0.3125 -1.640625 -0.3125q-0.71875 0 -1.265625 0.171875q-0.546875 0.171875 -0.9375 0.390625l0.359375 -3.53125l5.390625 0l0 -1.640625l-6.8125 0l-0.65625 6.609375z" fill-rule="nonzero"/><path fill="#000000" fill-opacity="0.0" d="m140.70758 84.50131l68.8504 0l0 45.259842l-68.8504 0z" fill-rule="evenodd"/><path fill="#000000" d="m170.98409 113.851234l0 -13.265625l-0.125 0l-5.03125 1.9375l0 1.53125l3.46875 -1.3125l0 11.109375l1.6875 0zm13.867447 0l0 -1.375l-6.65625 0l3.5625 -3.859375q0.5 -0.546875 0.953125 -1.09375q0.453125 -0.5625 0.796875 -1.125q0.328125 -0.5625 0.53125 -1.140625q0.203125 -0.578125 0.203125 -1.171875q0 -0.796875 -0.28125 -1.46875q-0.28125 -0.671875 -0.796875 -1.15625q-0.515625 -0.5 -1.265625 -0.78125q-0.75 -0.28125 -1.6875 -0.28125q-1.03125 0 -1.828125 0.328125q-0.796875 0.328125 -1.34375 0.890625q-0.546875 0.5625 -0.84375 1.3125q-0.28125 0.734375 -0.28125 1.5625l1.6875 0q0 -0.609375 0.15625 -1.109375q0.15625 -0.515625 0.484375 -0.859375q0.328125 -0.34375 0.8125 -0.53125q0.484375 -0.203125 1.15625 -0.203125q0.546875 0 0.96875 0.1875q0.4375 0.1875 0.75 0.5q0.296875 0.328125 0.453125 0.765625q0.171875 0.421875 0.171875 0.921875q0 0.390625 -0.109375 0.78125q-0.09375 0.375 -0.328125 0.796875q-0.25 0.421875 -0.640625 0.921875q-0.390625 0.5 -0.96875 1.140625l-4.34375 4.828125l0 1.21875l8.6875 0z" fill-rule="nonzero"/><path fill="#000000" fill-opacity="0.0" d="m183.70758 84.50131l68.8504 0l0 45.259842l-68.8504 0z" fill-rule="evenodd"/><path fill="#000000" d="m213.98409 113.851234l0 -13.265625l-0.125 0l-5.03125 1.9375l0 1.53125l3.46875 -1.3125l0 11.109375l1.6875 0zm11.195572 0l0 -13.265625l-0.125 0l-5.03125 1.9375l0 1.53125l3.46875 -1.3125l0 11.109375l1.6875 0z" fill-rule="nonzero"/><path fill="#000000" fill-opacity="0.0" d="m226.70758 84.50131l68.8504 0l0 45.259842l-68.8504 0z" fill-rule="evenodd"/><path fill="#000000" d="m256.98407 113.851234l0 -13.265625l-0.125 0l-5.0312347 1.9375l0 1.53125l3.46875 -1.3125l0 11.109375l1.6874847 0zm14.054962 -5.078125l0 -3.109375q0 -1.265625 -0.296875 -2.234375q-0.28125 -0.984375 -0.828125 -1.65625q-0.5625 -0.671875 -1.359375 -1.015625q-0.796875 -0.359375 -1.8125 -0.359375q-1.015625 0 -1.8125 0.359375q-0.796875 0.34375 -1.34375 1.015625q-0.546875 0.671875 -0.84375 1.65625q-0.28125 0.96875 -0.28125 2.234375l0 3.109375q0 1.265625 0.28125 2.25q0.296875 0.984375 0.84375 1.640625q0.5625 0.6875 1.359375 1.03125q0.8125 0.34375 1.8125 0.34375q1.03125 0 1.8125 -0.34375q0.796875 -0.359375 1.34375 -1.03125q0.546875 -0.65625 0.828125 -1.640625q0.296875 -0.984375 0.296875 -2.25zm-6.890625 -0.328125q0 -0.234375 0 -0.46875q0 -0.234375 0 -0.453125l0 -2.21875q0 -0.9375 0.1875 -1.640625q0.1875 -0.703125 0.5625 -1.15625q0.328125 -0.359375 0.78125 -0.53125q0.46875 -0.1875 1.0625 -0.1875q0.59375 0 1.046875 0.171875q0.453125 0.171875 0.765625 0.515625q0.3125 0.328125 0.5 0.84375q0.1875 0.5 0.265625 1.15625l-5.171875 3.96875zm5.203125 0.6875q0 0.96875 -0.203125 1.6875q-0.1875 0.71875 -0.609375 1.171875q-0.3125 0.328125 -0.765625 0.5q-0.4375 0.171875 -1.015625 0.171875q-0.546875 0 -0.984375 -0.15625q-0.4375 -0.15625 -0.734375 -0.46875q-0.34375 -0.328125 -0.5625 -0.828125q-0.203125 -0.515625 -0.28125 -1.171875l5.15625 -3.953125q0 0.265625 0 0.65625q0 0.375 0 0.515625l0 1.875z" fill-rule="nonzero"/><path fill="#000000" fill-opacity="0.0" d="m269.70758 84.50131l68.8504 0l0 45.259842l-68.8504 0z" fill-rule="evenodd"/><path fill="#000000" d="m301.92563 112.351234l-0.171875 0l0 1.515625l0.171875 0q1.640625 0 2.78125 -0.453125q1.15625 -0.453125 1.796875 -1.1875q1.078125 -1.203125 1.40625 -2.75q0.328125 -1.5625 0.328125 -3.09375l0 -0.609375q0 -1.09375 -0.3125 -2.171875q-0.296875 -1.09375 -0.890625 -1.8125q-0.515625 -0.625 -1.265625 -1.0q-0.75 -0.390625 -1.765625 -0.390625q-1.015625 0 -1.796875 0.375q-0.765625 0.375 -1.28125 0.984375q-0.515625 0.640625 -0.78125 1.46875q-0.25 0.828125 -0.25 1.765625q0 0.8125 0.21875 1.609375q0.21875 0.78125 0.6875 1.40625q0.453125 0.640625 1.171875 1.03125q0.71875 0.375 1.703125 0.375q0.5 0 0.9375 -0.09375q0.4375 -0.109375 0.796875 -0.296875q0.34375 -0.1875 0.625 -0.421875q0.28125 -0.25 0.5 -0.515625l0 0.015625q-0.03125 0.84375 -0.25 1.625q-0.21875 0.78125 -0.859375 1.46875q-0.515625 0.546875 -1.375 0.859375q-0.84375 0.296875 -2.125 0.296875zm2.015625 -4.328125q-0.609375 0 -1.0625 -0.265625q-0.4375 -0.28125 -0.734375 -0.71875q-0.296875 -0.421875 -0.453125 -0.984375q-0.140625 -0.5625 -0.140625 -1.15625q0 -0.640625 0.15625 -1.203125q0.171875 -0.578125 0.484375 -1.0q0.3125 -0.40625 0.765625 -0.640625q0.453125 -0.25 1.046875 -0.25q0.53125 0 0.984375 0.265625q0.46875 0.25 0.8125 0.71875q0.34375 0.484375 0.546875 1.1875q0.21875 0.6875 0.21875 1.5625l0 0.546875q-0.15625 0.4375 -0.4375 0.796875q-0.265625 0.34375 -0.59375 0.59375q-0.34375 0.265625 -0.75 0.40625q-0.40625 0.140625 -0.84375 0.140625z" fill-rule="nonzero"/><path fill="#000000" fill-opacity="0.0" d="m312.70758 84.50131l68.8504 0l0 45.259842l-68.8504 0z" fill-rule="evenodd"/><path fill="#000000" d="m351.285 104.05436q0 -0.875 -0.3125 -1.546875q-0.296875 -0.6875 -0.8125 -1.140625q-0.53125 -0.46875 -1.25 -0.71875q-0.71875 -0.25 -1.5625 -0.25q-0.84375 0 -1.5625 0.25q-0.71875 0.25 -1.21875 0.71875q-0.53125 0.453125 -0.828125 1.140625q-0.28125 0.671875 -0.28125 1.546875q0 0.484375 0.140625 0.9375q0.140625 0.4375 0.375 0.8125q0.25 0.390625 0.59375 0.703125q0.359375 0.296875 0.796875 0.515625q-0.5 0.21875 -0.921875 0.546875q-0.40625 0.328125 -0.6875 0.734375q-0.296875 0.421875 -0.453125 0.921875q-0.15625 0.484375 -0.15625 1.046875q0 0.90625 0.328125 1.609375q0.328125 0.703125 0.90625 1.171875q0.5625 0.484375 1.328125 0.734375q0.78125 0.25 1.671875 0.25q0.875 0 1.640625 -0.25q0.765625 -0.25 1.328125 -0.734375q0.5625 -0.484375 0.890625 -1.171875q0.34375 -0.703125 0.34375 -1.609375q0 -0.5625 -0.15625 -1.046875q-0.15625 -0.5 -0.453125 -0.90625q-0.296875 -0.421875 -0.71875 -0.75q-0.40625 -0.328125 -0.921875 -0.546875q0.296875 -0.140625 0.546875 -0.3125q0.25 -0.1875 0.46875 -0.40625q0.4375 -0.4375 0.671875 -1.015625q0.25 -0.578125 0.265625 -1.234375zm-1.390625 6.1875q0 0.5625 -0.1875 1.015625q-0.1875 0.453125 -0.515625 0.765625q-0.328125 0.3125 -0.796875 0.484375q-0.46875 0.15625 -1.015625 0.15625q-0.59375 0 -1.0625 -0.15625q-0.46875 -0.171875 -0.796875 -0.484375q-0.328125 -0.3125 -0.5 -0.765625q-0.171875 -0.453125 -0.171875 -1.015625q0 -0.5625 0.171875 -1.015625q0.171875 -0.46875 0.5 -0.8125q0.328125 -0.328125 0.796875 -0.5q0.46875 -0.1875 1.046875 -0.1875q0.546875 0 1.015625 0.1875q0.46875 0.171875 0.8125 0.5q0.328125 0.34375 0.515625 0.8125q0.1875 0.453125 0.1875 1.015625zm-0.3125 -6.171875q0 0.515625 -0.171875 0.9375q-0.15625 0.421875 -0.4375 0.703125q-0.3125 0.3125 -0.71875 0.46875q-0.40625 0.15625 -0.890625 0.15625q-0.484375 0 -0.890625 -0.15625q-0.40625 -0.15625 -0.703125 -0.46875q-0.296875 -0.28125 -0.46875 -0.6875q-0.15625 -0.421875 -0.15625 -0.953125q0 -0.515625 0.15625 -0.9375q0.171875 -0.421875 0.46875 -0.71875q0.28125 -0.296875 0.671875 -0.453125q0.40625 -0.171875 0.90625 -0.171875q0.484375 0 0.890625 0.171875q0.421875 0.171875 0.71875 0.46875q0.296875 0.3125 0.453125 0.734375q0.171875 0.40625 0.171875 0.90625z" fill-rule="nonzero"/><path fill="#000000" fill-opacity="0.0" d="m355.70758 84.50131l68.8504 0l0 45.259842l-68.8504 0z" fill-rule="evenodd"/><path fill="#000000" d="m394.51938 101.538734l0 -0.953125l-8.96875 0l0 1.484375l7.1875 0l-5.484375 11.78125l1.765625 0l5.5 -12.3125z" fill-rule="nonzero"/><path fill="#000000" fill-opacity="0.0" d="m398.70758 84.50131l68.8504 0l0 45.259842l-68.8504 0z" fill-rule="evenodd"/><path fill="#000000" d="m435.33188 100.58561l-0.140625 0q-1.421875 0 -2.546875 0.390625q-1.125 0.390625 -1.90625 1.171875q-1.140625 1.140625 -1.53125 2.75q-0.390625 1.609375 -0.390625 3.265625l0 0.78125q0 0.96875 0.296875 1.9375q0.296875 0.953125 0.875 1.671875q0.53125 0.65625 1.296875 1.078125q0.78125 0.40625 1.8125 0.40625q1.0 0 1.765625 -0.359375q0.78125 -0.359375 1.296875 -0.96875q0.515625 -0.625 0.78125 -1.4375q0.265625 -0.8125 0.265625 -1.75q0 -0.8125 -0.21875 -1.59375q-0.21875 -0.78125 -0.6875 -1.40625q-0.46875 -0.609375 -1.1875 -0.984375q-0.71875 -0.390625 -1.71875 -0.390625q-0.453125 0 -0.875 0.109375q-0.40625 0.109375 -0.75 0.28125q-0.375 0.171875 -0.6875 0.421875q-0.296875 0.234375 -0.546875 0.515625q0.0625 -0.875 0.359375 -1.703125q0.296875 -0.828125 0.875 -1.421875q0.53125 -0.578125 1.375 -0.921875q0.84375 -0.34375 2.046875 -0.34375l0.140625 0l0 -1.5zm-2.203125 5.96875q0.609375 0 1.0625 0.265625q0.453125 0.25 0.765625 0.671875q0.296875 0.421875 0.4375 0.984375q0.140625 0.546875 0.140625 1.125q0 0.65625 -0.15625 1.21875q-0.15625 0.5625 -0.46875 0.96875q-0.3125 0.390625 -0.765625 0.625q-0.453125 0.21875 -1.046875 0.21875q-0.515625 0 -0.984375 -0.234375q-0.453125 -0.234375 -0.8125 -0.703125q-0.359375 -0.46875 -0.578125 -1.140625q-0.203125 -0.6875 -0.203125 -1.5625l0 -0.5625q0.15625 -0.421875 0.421875 -0.765625q0.265625 -0.34375 0.609375 -0.59375q0.34375 -0.234375 0.75 -0.375q0.40625 -0.140625 0.828125 -0.140625z" fill-rule="nonzero"/><path fill="#000000" fill-opacity="0.0" d="m11.707584 84.50131l68.85039 0l0 45.259842l-68.85039 0z" fill-rule="evenodd"/><path fill="#000000" d="m41.984085 113.851234l0 -13.265625l-0.125 0l-5.03125 1.9375l0 1.53125l3.46875 -1.3125l0 11.109375l1.6875 0zm6.336197 -6.65625l1.34375 0.359375q0.234375 -0.203125 0.4375 -0.359375q0.21875 -0.15625 0.46875 -0.265625q0.25 -0.109375 0.546875 -0.171875q0.3125 -0.0625 0.734375 -0.0625q0.625 0 1.109375 0.234375q0.5 0.21875 0.84375 0.625q0.328125 0.390625 0.5 0.9375q0.1875 0.53125 0.1875 1.15625q0 0.671875 -0.15625 1.234375q-0.15625 0.5625 -0.46875 0.953125q-0.3125 0.390625 -0.78125 0.609375q-0.46875 0.21875 -1.0625 0.21875q-1.078125 0 -1.75 -0.578125q-0.671875 -0.59375 -0.828125 -1.71875l-1.609375 0q0.09375 0.921875 0.453125 1.609375q0.359375 0.6875 0.921875 1.140625q0.5625 0.46875 1.28125 0.703125q0.71875 0.21875 1.53125 0.21875q1.046875 0 1.828125 -0.328125q0.796875 -0.34375 1.3125 -0.9375q0.5 -0.578125 0.75 -1.390625q0.265625 -0.8125 0.265625 -1.765625q0 -1.0 -0.28125 -1.8125q-0.265625 -0.828125 -0.78125 -1.40625q-0.5 -0.578125 -1.234375 -0.890625q-0.734375 -0.3125 -1.640625 -0.3125q-0.71875 0 -1.265625 0.171875q-0.546875 0.171875 -0.9375 0.390625l0.359375 -3.53125l5.390625 0l0 -1.640625l-6.8125 0l-0.65625 6.609375z" fill-rule="nonzero"/><path fill="#000000" fill-opacity="0.0" d="m54.707584 84.50131l68.85039 0l0 45.259842l-68.85039 0z" fill-rule="evenodd"/><path fill="#000000" d="m84.984085 113.851234l0 -13.265625l-0.125 0l-5.03125 1.9375l0 1.53125l3.46875 -1.3125l0 11.109375l1.6875 0zm12.570572 -4.453125l0 -8.8125l-1.796875 0l-5.9375 9.1875l0 1.0l6.046875 0l0 3.078125l1.6875 0l0 -3.078125l1.84375 0l0 -1.375l-1.84375 0zm-5.875 0l3.90625 -6.0625l0.28125 -0.5l0 6.5625l-4.1875 0z" fill-rule="nonzero"/><path fill="#000000" fill-opacity="0.0" d="m97.70758 84.50131l68.8504 0l0 45.259842l-68.8504 0z" fill-rule="evenodd"/><path fill="#000000" d="m127.984085 113.851234l0 -13.265625l-0.125 0l-5.03125 1.9375l0 1.53125l3.46875 -1.3125l0 11.109375l1.6875 0zm7.695572 -7.4375l0 1.359375l1.203125 0q0.640625 0 1.15625 0.15625q0.53125 0.140625 0.90625 0.4375q0.359375 0.296875 0.5625 0.75q0.203125 0.453125 0.203125 1.078125q0 0.625 -0.1875 1.09375q-0.171875 0.453125 -0.5 0.765625q-0.328125 0.296875 -0.796875 0.453125q-0.453125 0.15625 -1.03125 0.15625q-0.578125 0 -1.046875 -0.15625q-0.46875 -0.171875 -0.796875 -0.484375q-0.328125 -0.296875 -0.5 -0.71875q-0.171875 -0.4375 -0.171875 -0.953125l-1.6875 0q0 0.875 0.328125 1.5625q0.328125 0.6875 0.90625 1.15625q0.5625 0.46875 1.328125 0.71875q0.765625 0.25 1.640625 0.25q0.890625 0 1.65625 -0.265625q0.78125 -0.265625 1.34375 -0.765625q0.5625 -0.484375 0.875 -1.203125q0.328125 -0.71875 0.328125 -1.65625q0 -0.453125 -0.109375 -0.90625q-0.09375 -0.46875 -0.359375 -0.890625q-0.265625 -0.421875 -0.703125 -0.75q-0.421875 -0.34375 -1.078125 -0.5625q0.546875 -0.21875 0.921875 -0.5625q0.390625 -0.34375 0.640625 -0.734375q0.25 -0.375 0.359375 -0.78125q0.125 -0.421875 0.125 -0.796875q0 -0.921875 -0.296875 -1.625q-0.28125 -0.703125 -0.8125 -1.171875q-0.53125 -0.484375 -1.265625 -0.71875q-0.734375 -0.25 -1.625 -0.25q-0.921875 0 -1.6875 0.296875q-0.75 0.28125 -1.28125 0.78125q-0.53125 0.5 -0.828125 1.171875q-0.296875 0.65625 -0.296875 1.421875l1.6875 0q0 -0.515625 0.171875 -0.9375q0.171875 -0.421875 0.5 -0.71875q0.3125 -0.296875 0.75 -0.453125q0.4375 -0.171875 0.984375 -0.171875q0.546875 0 0.984375 0.140625q0.4375 0.140625 0.71875 0.421875q0.296875 0.296875 0.453125 0.734375q0.15625 0.4375 0.15625 1.03125q0 0.5 -0.171875 0.921875q-0.171875 0.421875 -0.5 0.71875q-0.328125 0.3125 -0.828125 0.484375q-0.484375 0.171875 -1.125 0.171875l-1.203125 0z" fill-rule="nonzero"/><path fill="#000000" fill-opacity="0.0" d="m407.61835 7.343832l265.00787 0l0 42.015747l-265.00787 0z" fill-rule="evenodd"/><path fill="#000000" d="m483.12073 30.279455l-1.6875 0q-0.078125 0.59375 -0.28125 1.109375q-0.203125 0.515625 -0.53125 0.8906269q-0.34375 0.375 -0.828125 0.59375q-0.484375 0.203125 -1.15625 0.203125q-0.609375 0 -1.0625 -0.1875q-0.453125 -0.203125 -0.796875 -0.546875q-0.328125 -0.3437519 -0.546875 -0.7812519q-0.21875 -0.453125 -0.359375 -0.953125q-0.140625 -0.5 -0.203125 -1.015625q-0.046875 -0.53125 -0.046875 -1.03125l0 -1.859375q0 -0.5 0.046875 -1.015625q0.0625 -0.53125 0.203125 -1.03125q0.140625 -0.5 0.359375 -0.9375q0.21875 -0.453125 0.5625 -0.796875q0.328125 -0.328125 0.78125 -0.515625q0.46875 -0.203125 1.0625 -0.203125q0.671875 0 1.15625 0.21875q0.484375 0.21875 0.828125 0.609375q0.328125 0.390625 0.53125 0.921875q0.203125 0.515625 0.28125 1.109375l1.6875 0q-0.109375 -0.9375 -0.453125 -1.71875q-0.34375 -0.796875 -0.90625 -1.359375q-0.5625 -0.546875 -1.34375 -0.859375q-0.78125 -0.3125 -1.78125 -0.3125q-0.828125 0 -1.5 0.234375q-0.65625 0.234375 -1.171875 0.640625q-0.53125 0.421875 -0.90625 0.984375q-0.375 0.546875 -0.625 1.203125q-0.25 0.65625 -0.375 1.375q-0.125 0.71875 -0.140625 1.46875l0 1.84375q0.015625 0.734375 0.140625 1.453125q0.125 0.71875 0.375 1.375q0.25 0.6562519 0.625 1.2187519q0.375 0.546875 0.90625 0.96875q0.515625 0.40625 1.1875 0.640625q0.671875 0.234375 1.484375 0.234375q0.96875 0 1.734375 -0.296875q0.78125 -0.3125 1.359375 -0.875q0.5625 -0.546875 0.921875 -1.3125019q0.359375 -0.765625 0.46875 -1.6875zm2.1330566 -1.03125l0 0.203125q0 1.0625 0.3125 1.96875q0.3125 0.9062519 0.890625 1.5937519q0.578125 0.671875 1.40625 1.0625q0.84375 0.375 1.890625 0.375q1.03125 0 1.859375 -0.375q0.828125 -0.390625 1.40625 -1.0625q0.578125 -0.6875 0.890625 -1.5937519q0.3125 -0.90625 0.3125 -1.96875l0 -0.203125q0 -1.0625 -0.3125 -1.984375q-0.3125 -0.921875 -0.890625 -1.59375q-0.578125 -0.671875 -1.421875 -1.046875q-0.828125 -0.390625 -1.875 -0.390625q-1.03125 0 -1.859375 0.390625q-0.828125 0.375 -1.40625 1.046875q-0.578125 0.671875 -0.890625 1.59375q-0.3125 0.921875 -0.3125 1.984375zm1.6875 0.203125l0 -0.203125q0 -0.71875 0.171875 -1.375q0.171875 -0.671875 0.53125 -1.171875q0.34375 -0.5 0.859375 -0.796875q0.515625 -0.296875 1.21875 -0.296875q0.703125 0 1.21875 0.296875q0.53125 0.296875 0.890625 0.796875q0.34375 0.5 0.515625 1.171875q0.1875 0.65625 0.1875 1.375l0 0.203125q0 0.71875 -0.171875 1.390625q-0.171875 0.65625 -0.515625 1.15625q-0.359375 0.5000019 -0.890625 0.7968769q-0.515625 0.28125 -1.203125 0.28125q-0.703125 0 -1.234375 -0.28125q-0.53125 -0.296875 -0.875 -0.7968769q-0.359375 -0.5 -0.53125 -1.15625q-0.171875 -0.671875 -0.171875 -1.390625zm10.242462 -9.1875l0 1.46875l3.359375 0l0 11.078127l-3.359375 0l0 1.453125l8.265625 0l0 -1.453125l-3.21875 0l0 -12.546877l-5.046875 0zm17.429962 14.000002l1.53125 0l0 -9.859377l-1.6875 0l0 7.078125q-0.140625 0.3125 -0.34375 0.5781269q-0.203125 0.265625 -0.484375 0.46875q-0.328125 0.234375 -0.78125 0.375q-0.4375 0.125 -1.0000305 0.125q-0.484375 0 -0.859375 -0.125q-0.359375 -0.140625 -0.625 -0.453125q-0.25 -0.3125 -0.375 -0.8281269q-0.125 -0.53125 -0.125 -1.34375l0 -5.875l-1.6875 0l0 5.859375q0 1.109375 0.234375 1.8906269q0.25 0.78125 0.6875 1.296875q0.453125 0.515625 1.078125 0.765625q0.625 0.234375 1.40625 0.234375q0.9687805 0 1.7031555 -0.40625q0.734375 -0.40625 1.234375 -1.140625l0.09375 1.359375zm5.4768066 -9.859377l-1.515625 0l0 9.859377l1.609375 0l0 -7.843752q0.046875 -0.140625 0.125 -0.265625q0.09375 -0.140625 0.21875 -0.234375q0.15625 -0.125 0.375 -0.1875q0.21875 -0.078125 0.53125 -0.078125q0.265625 0 0.46875 0.078125q0.203125 0.0625 0.34375 0.203125q0.15625 0.15625 0.21875 0.390625q0.0625 0.234375 0.0625 0.546875l0 7.390627l1.609375 0l0 -7.375002q0 -0.0625 0 -0.09375q0 -0.046875 0 -0.09375q0.03125 -0.21875 0.109375 -0.40625q0.078125 -0.1875 0.21875 -0.34375q0.15625 -0.125 0.375 -0.203125q0.21875 -0.09375 0.515625 -0.09375q0.28125 0 0.484375 0.078125q0.21875 0.0625 0.375 0.21875q0.140625 0.15625 0.203125 0.390625q0.078125 0.234375 0.078125 0.546875l0 7.375002l1.59375 0l0 -7.359377q0 -0.71875 -0.171875 -1.234375q-0.15625 -0.53125 -0.453125 -0.859375q-0.28125 -0.28125 -0.703125 -0.421875q-0.40625 -0.15625 -0.921875 -0.15625q-0.359375 0 -0.6875 0.09375q-0.3125 0.09375 -0.5625 0.25q-0.203125 0.125 -0.375 0.3125q-0.171875 0.1875 -0.296875 0.390625q-0.109375 -0.21875 -0.25 -0.40625q-0.140625 -0.1875 -0.3125 -0.3125q-0.234375 -0.15625 -0.546875 -0.234375q-0.3125 -0.09375 -0.703125 -0.09375q-0.6875 0 -1.1875 0.296875q-0.484375 0.28125 -0.78125 0.8125l-0.046875 -0.9375zm10.414307 9.859377l1.6875 0l0 -7.062502q0.171875 -0.328125 0.40625 -0.59375q0.234375 -0.265625 0.515625 -0.453125q0.328125 -0.234375 0.71875 -0.359375q0.40625 -0.140625 0.875 -0.140625q0.546875 0 0.953125 0.125q0.421875 0.125 0.703125 0.40625q0.28125 0.296875 0.421875 0.75q0.15625 0.453125 0.15625 1.109375l0 6.218752l1.6875 0l0 -6.265627q0 -0.96875 -0.25 -1.6875q-0.234375 -0.71875 -0.6875 -1.1875q-0.4375 -0.453125 -1.078125 -0.671875q-0.625 -0.21875 -1.40625 -0.21875q-0.5625 0 -1.078125 0.171875q-0.515625 0.15625 -0.953125 0.4375q-0.296875 0.1875 -0.5625 0.453125q-0.25 0.265625 -0.46875 0.5625l-0.125 -1.453125l-1.515625 0l0 9.859377zm30.7193 -5.078127l0 -3.109375q0 -1.265625 -0.296875 -2.234375q-0.28125 -0.984375 -0.828125 -1.65625q-0.5625 -0.671875 -1.359375 -1.015625q-0.796875 -0.359375 -1.8125 -0.359375q-1.015625 0 -1.8125 0.359375q-0.796875 0.34375 -1.34375 1.015625q-0.546875 0.671875 -0.84375 1.65625q-0.28125 0.96875 -0.28125 2.234375l0 3.109375q0 1.265625 0.28125 2.25q0.296875 0.9843769 0.84375 1.6406269q0.5625 0.6875 1.359375 1.03125q0.8125 0.34375 1.8125 0.34375q1.03125 0 1.8125 -0.34375q0.796875 -0.359375 1.34375 -1.03125q0.546875 -0.65625 0.828125 -1.6406269q0.296875 -0.984375 0.296875 -2.25zm-6.890625 -0.328125q0 -0.234375 0 -0.46875q0 -0.234375 0 -0.453125l0 -2.21875q0 -0.9375 0.1875 -1.640625q0.1875 -0.703125 0.5625 -1.15625q0.328125 -0.359375 0.78125 -0.53125q0.46875 -0.1875 1.0625 -0.1875q0.59375 0 1.046875 0.171875q0.453125 0.171875 0.765625 0.515625q0.3125 0.328125 0.5 0.84375q0.1875 0.5 0.265625 1.15625l-5.171875 3.96875zm5.203125 0.6875q0 0.96875 -0.203125 1.6875q-0.1875 0.71875 -0.609375 1.1718769q-0.3125 0.328125 -0.765625 0.5q-0.4375 0.171875 -1.015625 0.171875q-0.546875 0 -0.984375 -0.15625q-0.4375 -0.15625 -0.734375 -0.46875q-0.34375 -0.328125 -0.5625 -0.8281269q-0.203125 -0.515625 -0.28125 -1.171875l5.15625 -3.953125q0 0.265625 0 0.65625q0 0.375 0 0.515625l0 1.875zm11.929932 -0.390625l0 -1.390625l-6.96875 0l0 1.390625l6.96875 0zm11.961182 5.109377l0 -1.375l-6.65625 0l3.5625 -3.859377q0.5 -0.546875 0.953125 -1.09375q0.453125 -0.5625 0.796875 -1.125q0.328125 -0.5625 0.53125 -1.140625q0.203125 -0.578125 0.203125 -1.171875q0 -0.796875 -0.28125 -1.46875q-0.28125 -0.671875 -0.796875 -1.15625q-0.515625 -0.5 -1.265625 -0.78125q-0.75 -0.28125 -1.6875 -0.28125q-1.03125 0 -1.828125 0.328125q-0.796875 0.328125 -1.34375 0.890625q-0.546875 0.5625 -0.84375 1.3125q-0.28125 0.734375 -0.28125 1.5625l1.6875 0q0 -0.609375 0.15625 -1.109375q0.15625 -0.515625 0.484375 -0.859375q0.328125 -0.34375 0.8125 -0.53125q0.484375 -0.203125 1.15625 -0.203125q0.546875 0 0.96875 0.1875q0.4375 0.1875 0.75 0.5q0.296875 0.328125 0.453125 0.765625q0.171875 0.421875 0.171875 0.921875q0 0.390625 -0.109375 0.78125q-0.09375 0.375 -0.328125 0.796875q-0.25 0.421875 -0.640625 0.921875q-0.390625 0.5 -0.96875 1.140625l-4.34375 4.828127l0 1.21875l8.6875 0zm3.6643066 -6.656252l1.34375 0.359375q0.234375 -0.203125 0.4375 -0.359375q0.21875 -0.15625 0.46875 -0.265625q0.25 -0.109375 0.546875 -0.171875q0.3125 -0.0625 0.734375 -0.0625q0.625 0 1.109375 0.234375q0.5 0.21875 0.84375 0.625q0.328125 0.390625 0.5 0.9375q0.1875 0.53125 0.1875 1.15625q0 0.671875 -0.15625 1.234375q-0.15625 0.5625 -0.46875 0.9531269q-0.3125 0.390625 -0.78125 0.609375q-0.46875 0.21875 -1.0625 0.21875q-1.078125 0 -1.75 -0.578125q-0.671875 -0.5937519 -0.828125 -1.7187519l-1.609375 0q0.09375 0.921875 0.453125 1.6093769q0.359375 0.6875 0.921875 1.140625q0.5625 0.46875 1.28125 0.703125q0.71875 0.21875 1.53125 0.21875q1.046875 0 1.828125 -0.328125q0.796875 -0.34375 1.3125 -0.9375q0.5 -0.578125 0.75 -1.3906269q0.265625 -0.8125 0.265625 -1.765625q0 -1.0 -0.28125 -1.8125q-0.265625 -0.828125 -0.78125 -1.40625q-0.5 -0.578125 -1.234375 -0.890625q-0.734375 -0.3125 -1.640625 -0.3125q-0.71875 0 -1.265625 0.171875q-0.546875 0.171875 -0.9375 0.390625l0.359375 -3.53125l5.390625 0l0 -1.640625l-6.8125 0l-0.65625 6.609375zm11.195618 0l1.34375 0.359375q0.234375 -0.203125 0.4375 -0.359375q0.21875 -0.15625 0.46875 -0.265625q0.25 -0.109375 0.546875 -0.171875q0.3125 -0.0625 0.734375 -0.0625q0.625 0 1.109375 0.234375q0.5 0.21875 0.84375 0.625q0.328125 0.390625 0.5 0.9375q0.1875 0.53125 0.1875 1.15625q0 0.671875 -0.15625 1.234375q-0.15625 0.5625 -0.46875 0.9531269q-0.3125 0.390625 -0.78125 0.609375q-0.46875 0.21875 -1.0625 0.21875q-1.078125 0 -1.75 -0.578125q-0.671875 -0.5937519 -0.828125 -1.7187519l-1.609375 0q0.09375 0.921875 0.453125 1.6093769q0.359375 0.6875 0.921875 1.140625q0.5625 0.46875 1.28125 0.703125q0.71875 0.21875 1.53125 0.21875q1.046875 0 1.828125 -0.328125q0.796875 -0.34375 1.3125 -0.9375q0.5 -0.578125 0.75 -1.3906269q0.265625 -0.8125 0.265625 -1.765625q0 -1.0 -0.28125 -1.8125q-0.265625 -0.828125 -0.78125 -1.40625q-0.5 -0.578125 -1.234375 -0.890625q-0.734375 -0.3125 -1.640625 -0.3125q-0.71875 0 -1.265625 0.171875q-0.546875 0.171875 -0.9375 0.390625l0.359375 -3.53125l5.390625 0l0 -1.640625l-6.8125 0l-0.65625 6.609375z" fill-rule="nonzero"/><path fill="#000000" fill-opacity="0.0" d="m63.618343 7.343832l265.00787 0l0 42.015747l-265.00787 0z" fill-rule="evenodd"/><path fill="#000000" d="m151.71095 28.85758l2.609375 5.406252l1.78125 0l0 -0.109375l-2.8125 -5.671877q0.546875 -0.234375 1.0 -0.5625q0.46875 -0.34375 0.796875 -0.78125q0.328125 -0.4375 0.5 -0.96875q0.1875 -0.546875 0.1875 -1.1875q0 -1.0 -0.34375 -1.734375q-0.34375 -0.75 -0.953125 -1.25q-0.625 -0.484375 -1.453125 -0.734375q-0.8125 -0.25 -1.75 -0.265625l-3.875 0l0 13.265627l1.671875 0l0 -5.406252l2.640625 0zm-2.640625 -1.390625l0 -5.078125l2.203125 0q0.625 0 1.125 0.171875q0.515625 0.15625 0.890625 0.484375q0.375 0.328125 0.578125 0.8125q0.21875 0.46875 0.21875 1.109375q0 0.59375 -0.21875 1.0625q-0.21875 0.453125 -0.59375 0.78125q-0.375 0.3125 -0.875 0.484375q-0.5 0.15625 -1.078125 0.171875l-2.25 0zm8.976822 1.78125l0 0.203125q0 1.0625 0.3125 1.96875q0.3125 0.9062519 0.890625 1.5937519q0.578125 0.671875 1.40625 1.0625q0.84375 0.375 1.890625 0.375q1.03125 0 1.859375 -0.375q0.828125 -0.390625 1.40625 -1.0625q0.578125 -0.6875 0.890625 -1.5937519q0.3125 -0.90625 0.3125 -1.96875l0 -0.203125q0 -1.0625 -0.3125 -1.984375q-0.3125 -0.921875 -0.890625 -1.59375q-0.578125 -0.671875 -1.421875 -1.046875q-0.828125 -0.390625 -1.875 -0.390625q-1.03125 0 -1.859375 0.390625q-0.828125 0.375 -1.40625 1.046875q-0.578125 0.671875 -0.890625 1.59375q-0.3125 0.921875 -0.3125 1.984375zm1.6875 0.203125l0 -0.203125q0 -0.71875 0.171875 -1.375q0.171875 -0.671875 0.53125 -1.171875q0.34375 -0.5 0.859375 -0.796875q0.515625 -0.296875 1.21875 -0.296875q0.703125 0 1.21875 0.296875q0.53125 0.296875 0.890625 0.796875q0.34375 0.5 0.515625 1.171875q0.1875 0.65625 0.1875 1.375l0 0.203125q0 0.71875 -0.171875 1.390625q-0.171875 0.65625 -0.515625 1.15625q-0.359375 0.5000019 -0.890625 0.7968769q-0.515625 0.28125 -1.203125 0.28125q-0.703125 0 -1.234375 -0.28125q-0.53125 -0.296875 -0.875 -0.7968769q-0.359375 -0.5 -0.53125 -1.15625q-0.171875 -0.671875 -0.171875 -1.390625zm10.929947 4.812502l1.328125 0l1.53125 -6.046877l0.234375 -1.515625l0.265625 1.515625l1.53125 6.046877l1.328125 0l2.09375 -9.859377l-1.484375 0l-1.09375 6.28125l-0.25 1.5625019l-0.265625 -1.5625019l-1.5625 -6.28125l-1.09375 0l-1.5625 6.28125l-0.25 1.4218769l-0.203125 -1.4218769l-1.140625 -6.28125l-1.5 0l2.09375 9.859377zm29.76616 -5.078127l0 -3.109375q0 -1.265625 -0.296875 -2.234375q-0.28125 -0.984375 -0.828125 -1.65625q-0.5625 -0.671875 -1.359375 -1.015625q-0.796875 -0.359375 -1.8125 -0.359375q-1.015625 0 -1.8125 0.359375q-0.796875 0.34375 -1.34375 1.015625q-0.546875 0.671875 -0.84375 1.65625q-0.28125 0.96875 -0.28125 2.234375l0 3.109375q0 1.265625 0.28125 2.25q0.296875 0.9843769 0.84375 1.6406269q0.5625 0.6875 1.359375 1.03125q0.8125 0.34375 1.8125 0.34375q1.03125 0 1.8125 -0.34375q0.796875 -0.359375 1.34375 -1.03125q0.546875 -0.65625 0.828125 -1.6406269q0.296875 -0.984375 0.296875 -2.25zm-6.890625 -0.328125q0 -0.234375 0 -0.46875q0 -0.234375 0 -0.453125l0 -2.21875q0 -0.9375 0.1875 -1.640625q0.1875 -0.703125 0.5625 -1.15625q0.328125 -0.359375 0.78125 -0.53125q0.46875 -0.1875 1.0625 -0.1875q0.59375 0 1.046875 0.171875q0.453125 0.171875 0.765625 0.515625q0.3125 0.328125 0.5 0.84375q0.1875 0.5 0.265625 1.15625l-5.171875 3.96875zm5.203125 0.6875q0 0.96875 -0.203125 1.6875q-0.1875 0.71875 -0.609375 1.1718769q-0.3125 0.328125 -0.765625 0.5q-0.4375 0.171875 -1.015625 0.171875q-0.546875 0 -0.984375 -0.15625q-0.4375 -0.15625 -0.734375 -0.46875q-0.34375 -0.328125 -0.5625 -0.8281269q-0.203125 -0.515625 -0.28125 -1.171875l5.15625 -3.953125q0 0.265625 0 0.65625q0 0.375 0 0.515625l0 1.875zm11.929932 -0.390625l0 -1.390625l-6.96875 0l0 1.390625l6.96875 0zm11.961212 5.109377l0 -1.375l-6.65625 0l3.5625 -3.859377q0.5 -0.546875 0.953125 -1.09375q0.453125 -0.5625 0.796875 -1.125q0.328125 -0.5625 0.53125 -1.140625q0.203125 -0.578125 0.203125 -1.171875q0 -0.796875 -0.28125 -1.46875q-0.28125 -0.671875 -0.796875 -1.15625q-0.515625 -0.5 -1.265625 -0.78125q-0.75 -0.28125 -1.6875 -0.28125q-1.03125 0 -1.828125 0.328125q-0.796875 0.328125 -1.34375 0.890625q-0.546875 0.5625 -0.84375 1.3125q-0.28125 0.734375 -0.28125 1.5625l1.6875 0q0 -0.609375 0.15625 -1.109375q0.15625 -0.515625 0.484375 -0.859375q0.328125 -0.34375 0.8125 -0.53125q0.484375 -0.203125 1.15625 -0.203125q0.546875 0 0.96875 0.1875q0.4375 0.1875 0.75 0.5q0.296875 0.328125 0.453125 0.765625q0.171875 0.421875 0.171875 0.921875q0 0.390625 -0.109375 0.78125q-0.09375 0.375 -0.328125 0.796875q-0.25 0.421875 -0.640625 0.921875q-0.390625 0.5 -0.96875 1.140625l-4.34375 4.828127l0 1.21875l8.6875 0zm3.6643066 -6.656252l1.34375 0.359375q0.234375 -0.203125 0.4375 -0.359375q0.21875 -0.15625 0.46875 -0.265625q0.25 -0.109375 0.546875 -0.171875q0.3125 -0.0625 0.734375 -0.0625q0.625 0 1.109375 0.234375q0.5 0.21875 0.84375 0.625q0.328125 0.390625 0.5 0.9375q0.1875 0.53125 0.1875 1.15625q0 0.671875 -0.15625 1.234375q-0.15625 0.5625 -0.46875 0.9531269q-0.3125 0.390625 -0.78125 0.609375q-0.46875 0.21875 -1.0625 0.21875q-1.078125 0 -1.75 -0.578125q-0.671875 -0.5937519 -0.828125 -1.7187519l-1.609375 0q0.09375 0.921875 0.453125 1.6093769q0.359375 0.6875 0.921875 1.140625q0.5625 0.46875 1.28125 0.703125q0.71875 0.21875 1.53125 0.21875q1.046875 0 1.828125 -0.328125q0.796875 -0.34375 1.3125 -0.9375q0.5 -0.578125 0.75 -1.3906269q0.265625 -0.8125 0.265625 -1.765625q0 -1.0 -0.28125 -1.8125q-0.265625 -0.828125 -0.78125 -1.40625q-0.5 -0.578125 -1.234375 -0.890625q-0.734375 -0.3125 -1.640625 -0.3125q-0.71875 0 -1.265625 0.171875q-0.546875 0.171875 -0.9375 0.390625l0.359375 -3.53125l5.390625 0l0 -1.640625l-6.8125 0l-0.65625 6.609375zm11.195587 0l1.34375 0.359375q0.234375 -0.203125 0.4375 -0.359375q0.21875 -0.15625 0.46875 -0.265625q0.25 -0.109375 0.546875 -0.171875q0.3125 -0.0625 0.734375 -0.0625q0.625 0 1.109375 0.234375q0.5 0.21875 0.84375 0.625q0.328125 0.390625 0.5 0.9375q0.1875 0.53125 0.1875 1.15625q0 0.671875 -0.15625 1.234375q-0.15625 0.5625 -0.46875 0.9531269q-0.3125 0.390625 -0.78125 0.609375q-0.46875 0.21875 -1.0625 0.21875q-1.078125 0 -1.75 -0.578125q-0.671875 -0.5937519 -0.828125 -1.7187519l-1.609375 0q0.09375 0.921875 0.453125 1.6093769q0.359375 0.6875 0.921875 1.140625q0.5625 0.46875 1.28125 0.703125q0.71875 0.21875 1.53125 0.21875q1.046875 0 1.828125 -0.328125q0.796875 -0.34375 1.3125 -0.9375q0.5 -0.578125 0.75 -1.3906269q0.265625 -0.8125 0.265625 -1.765625q0 -1.0 -0.28125 -1.8125q-0.265625 -0.828125 -0.78125 -1.40625q-0.5 -0.578125 -1.234375 -0.890625q-0.734375 -0.3125 -1.640625 -0.3125q-0.71875 0 -1.265625 0.171875q-0.546875 0.171875 -0.9375 0.390625l0.359375 -3.53125l5.390625 0l0 -1.640625l-6.8125 0l-0.65625 6.609375z" fill-rule="nonzero"/></g></svg>