<svg version="1.1" viewBox="0.0 0.0 855.7847769028872 183.748031496063" fill="none" stroke="none" stroke-linecap="square" stroke-miterlimit="10" xmlns:xlink="http://www.w3.org/1999/xlink" xmlns="http://www.w3.org/2000/svg"><clipPath id="p.0"><path d="m0 0l855.7848 0l0 183.74803l-855.7848 0l0 -183.74803z" clip-rule="nonzero"/></clipPath><g clip-path="url(#p.0)"><path fill="#000000" fill-opacity="0.0" d="m0 0l855.7848 0l0 183.74803l-855.7848 0z" fill-rule="evenodd"/><path fill="#1b1b1c" d="m0.5616798 -0.112860896l855.7795 0l0 183.74803l-855.7795 0z" fill-rule="evenodd"/><path stroke="#1b1b1c" stroke-width="1.0" stroke-linejoin="round" stroke-linecap="butt" d="m0.5616798 -0.112860896l855.7795 0l0 183.74803l-855.7795 0z" fill-rule="evenodd"/><path fill="#1b1b1c" d="m64.25398 108.187355l29.385826 0l0 38.77166l-29.385826 0z" fill-rule="evenodd"/><path fill="#d9d9d9" d="m74.26721 138.28069q-0.421875 0.5 -0.6875 0.640625q-0.25 0.140625 -0.625 0.140625q-0.734375 0 -1.1875 -0.484375q-0.4375 -0.5 -0.4375 -1.640625l0 -2.15625q0 -1.15625 0.4375 -1.640625q0.453125 -0.5 1.1875 -0.5q0.5625 0 0.9375 0.296875q0.390625 0.296875 0.59375 1.0q0.203125 0.6875 0.421875 0.9375q0.453125 0.484375 1.609375 0.984375q1.15625 0.5 2.53125 0.5q2.140625 0 3.515625 -1.0q0.875 -0.609375 0.875 -1.5q0 -0.59375 -0.421875 -1.109375q-0.421875 -0.53125 -1.375 -0.875q-0.625 -0.234375 -2.796875 -0.640625q-2.625 -0.484375 -3.96875 -1.171875q-1.34375 -0.6875 -2.125 -1.9375q-0.78125 -1.25 -0.78125 -2.703125q0 -2.296875 1.921875 -4.015625q1.921875 -1.734375 5.0 -1.734375q1.234375 0 2.28125 0.28125q1.0625 0.265625 1.921875 0.828125q0.625 -0.609375 1.25 -0.609375q0.703125 0 1.140625 0.5q0.453125 0.484375 0.453125 1.625l0 2.40625q0 1.15625 -0.453125 1.65625q-0.4375 0.484375 -1.140625 0.484375q-0.59375 0 -1.03125 -0.359375q-0.34375 -0.265625 -0.515625 -1.0625q-0.171875 -0.796875 -0.4375 -1.140625q-0.453125 -0.59375 -1.359375 -1.0q-0.90625 -0.40625 -2.09375 -0.40625q-1.734375 0 -2.75 0.8125q-1.0 0.796875 -1.0 1.671875q0 0.59375 0.40625 1.15625q0.421875 0.546875 1.21875 0.859375q0.53125 0.21875 2.984375 0.703125q2.46875 0.484375 3.78125 1.0625q1.328125 0.578125 2.203125 1.8125q0.875 1.234375 0.875 2.9375q0 2.375 -1.671875 3.796875q-2.21875 1.875 -5.65625 1.875q-1.328125 0 -2.59375 -0.328125q-1.25 -0.3125 -2.4375 -0.953125z" fill-rule="nonzero"/><path fill="#1b1b1c" d="m139.07 108.187355l29.385818 0l0 38.77166l-29.385818 0z" fill-rule="evenodd"/><path fill="#d9d9d9" d="m155.39572 118.35881l0 17.53125l3.234375 0q1.15625 0 1.640625 0.453125q0.5 0.4375 0.5 1.15625q0 0.703125 -0.5 1.15625q-0.484375 0.4375 -1.640625 0.4375l-9.671875 0q-1.15625 0 -1.65625 -0.4375q-0.484375 -0.453125 -0.484375 -1.171875q0 -0.703125 0.484375 -1.140625q0.5 -0.453125 1.65625 -0.453125l3.234375 0l0 -13.359375l-2.859375 0.75q-0.6875 0.1875 -1.03125 0.1875q-0.609375 0 -1.0625 -0.484375q-0.4375 -0.484375 -0.4375 -1.1875q0 -0.640625 0.328125 -1.0q0.328125 -0.375 1.375 -0.65625l6.890625 -1.78125z" fill-rule="nonzero"/><path fill="#1b1b1c" d="m213.88602 108.187355l29.385834 0l0 38.77166l-29.385834 0z" fill-rule="evenodd"/><path fill="#d9d9d9" d="m230.21175 118.35881l0 17.53125l3.234375 0q1.15625 0 1.640625 0.453125q0.5 0.4375 0.5 1.15625q0 0.703125 -0.5 1.15625q-0.484375 0.4375 -1.640625 0.4375l-9.671875 0q-1.15625 0 -1.65625 -0.4375q-0.484375 -0.453125 -0.484375 -1.171875q0 -0.703125 0.484375 -1.140625q0.5 -0.453125 1.65625 -0.453125l3.234375 0l0 -13.359375l-2.859375 0.75q-0.6875 0.1875 -1.03125 0.1875q-0.609375 0 -1.0625 -0.484375q-0.4375 -0.484375 -0.4375 -1.1875q0 -0.640625 0.328125 -1.0q0.328125 -0.375 1.375 -0.65625l6.890625 -1.78125z" fill-rule="nonzero"/><path fill="#1b1b1c" d="m288.70203 108.187355l29.385834 0l0 38.77166l-29.385834 0z" fill-rule="evenodd"/><path fill="#d9d9d9" d="m310.38715 127.20256l0 3.515625q0 3.125 -1.8125 5.984375q-1.796875 2.859375 -5.15625 2.859375q-1.9375 0 -3.28125 -0.84375q-1.328125 -0.859375 -2.53125 -3.140625q-1.1875 -2.296875 -1.1875 -4.859375l0 -3.515625q0 -3.109375 1.796875 -5.96875q1.796875 -2.875 5.15625 -2.875q1.921875 0 3.25 0.84375q1.34375 0.84375 2.546875 3.140625q1.21875 2.28125 1.21875 4.859375zm-3.21875 0q0 -2.609375 -1.453125 -4.5625q-0.828125 -1.078125 -2.328125 -1.078125q-1.453125 0 -2.375 1.1875q-1.390625 1.796875 -1.390625 4.453125l0 3.515625q0 2.625 1.46875 4.5625q0.8125 1.078125 2.328125 1.078125q1.4375 0 2.359375 -1.1875q1.390625 -1.796875 1.390625 -4.453125l0 -3.515625z" fill-rule="nonzero"/><path fill="#1b1b1c" d="m363.51807 108.187355l29.385803 0l0 38.77166l-29.385803 0z" fill-rule="evenodd"/><path fill="#d9d9d9" d="m385.20316 127.20256l0 3.515625q0 3.125 -1.8125 5.984375q-1.796875 2.859375 -5.15625 2.859375q-1.9375 0 -3.28125 -0.84375q-1.328125 -0.859375 -2.53125 -3.140625q-1.1875 -2.296875 -1.1875 -4.859375l0 -3.515625q0 -3.109375 1.796875 -5.96875q1.796875 -2.875 5.15625 -2.875q1.921875 0 3.25 0.84375q1.34375 0.84375 2.546875 3.140625q1.21875 2.28125 1.21875 4.859375zm-3.21875 0q0 -2.609375 -1.453125 -4.5625q-0.828125 -1.078125 -2.328125 -1.078125q-1.453125 0 -2.375 1.1875q-1.390625 1.796875 -1.390625 4.453125l0 3.515625q0 2.625 1.46875 4.5625q0.8125 1.078125 2.328125 1.078125q1.4375 0 2.359375 -1.1875q1.390625 -1.796875 1.390625 -4.453125l0 -3.515625z" fill-rule="nonzero"/><path fill="#1b1b1c" d="m438.33408 108.187355l29.385834 0l0 38.77166l-29.385834 0z" fill-rule="evenodd"/><path fill="#d9d9d9" d="m460.01917 127.20256l0 3.515625q0 3.125 -1.8125 5.984375q-1.796875 2.859375 -5.15625 2.859375q-1.9375 0 -3.28125 -0.84375q-1.328125 -0.859375 -2.53125 -3.140625q-1.1875 -2.296875 -1.1875 -4.859375l0 -3.515625q0 -3.109375 1.796875 -5.96875q1.796875 -2.875 5.15625 -2.875q1.921875 0 3.25 0.84375q1.34375 0.84375 2.546875 3.140625q1.21875 2.28125 1.21875 4.859375zm-3.21875 0q0 -2.609375 -1.453125 -4.5625q-0.828125 -1.078125 -2.328125 -1.078125q-1.453125 0 -2.375 1.1875q-1.390625 1.796875 -1.390625 4.453125l0 3.515625q0 2.625 1.46875 4.5625q0.8125 1.078125 2.328125 1.078125q1.4375 0 2.359375 -1.1875q1.390625 -1.796875 1.390625 -4.453125l0 -3.515625z" fill-rule="nonzero"/><path fill="#1b1b1c" d="m513.1501 108.187355l29.385864 0l0 38.77166l-29.385864 0z" fill-rule="evenodd"/><path fill="#d9d9d9" d="m534.8352 127.20256l0 3.515625q0 3.125 -1.8125 5.984375q-1.796875 2.859375 -5.15625 2.859375q-1.9375 0 -3.28125 -0.84375q-1.328125 -0.859375 -2.53125 -3.140625q-1.1875 -2.296875 -1.1875 -4.859375l0 -3.515625q0 -3.109375 1.796875 -5.96875q1.796875 -2.875 5.15625 -2.875q1.921875 0 3.25 0.84375q1.34375 0.84375 2.546875 3.140625q1.21875 2.28125 1.21875 4.859375zm-3.21875 0q0 -2.609375 -1.453125 -4.5625q-0.828125 -1.078125 -2.328125 -1.078125q-1.453125 0 -2.375 1.1875q-1.390625 1.796875 -1.390625 4.453125l0 3.515625q0 2.625 1.46875 4.5625q0.8125 1.078125 2.328125 1.078125q1.4375 0 2.359375 -1.1875q1.390625 -1.796875 1.390625 -4.453125l0 -3.515625z" fill-rule="nonzero"/><path fill="#1b1b1c" d="m587.9661 108.187355l29.385803 0l0 38.77166l-29.385803 0z" fill-rule="evenodd"/><path fill="#d9d9d9" d="m604.2918 118.35881l0 17.53125l3.234375 0q1.15625 0 1.640625 0.453125q0.5 0.4375 0.5 1.15625q0 0.703125 -0.5 1.15625q-0.484375 0.4375 -1.640625 0.4375l-9.671875 0q-1.15625 0 -1.65625 -0.4375q-0.484375 -0.453125 -0.484375 -1.171875q0 -0.703125 0.484375 -1.140625q0.5 -0.453125 1.65625 -0.453125l3.234375 0l0 -13.359375l-2.859375 0.75q-0.6875 0.1875 -1.03125 0.1875q-0.609375 0 -1.0625 -0.484375q-0.4375 -0.484375 -0.4375 -1.1875q0 -0.640625 0.328125 -1.0q0.328125 -0.375 1.375 -0.65625l6.890625 -1.78125z" fill-rule="nonzero"/><path fill="#1b1b1c" d="m662.7821 108.187355l29.385864 0l0 38.77166l-29.385864 0z" fill-rule="evenodd"/><path fill="#d9d9d9" d="m684.4672 127.20256l0 3.515625q0 3.125 -1.8125 5.984375q-1.796875 2.859375 -5.15625 2.859375q-1.9375 0 -3.28125 -0.84375q-1.328125 -0.859375 -2.53125 -3.140625q-1.1875 -2.296875 -1.1875 -4.859375l0 -3.515625q0 -3.109375 1.796875 -5.96875q1.796875 -2.875 5.15625 -2.875q1.921875 0 3.25 0.84375q1.34375 0.84375 2.546875 3.140625q1.21875 2.28125 1.21875 4.859375zm-3.21875 0q0 -2.609375 -1.453125 -4.5625q-0.828125 -1.078125 -2.328125 -1.078125q-1.453125 0 -2.375 1.1875q-1.390625 1.796875 -1.390625 4.453125l0 3.515625q0 2.625 1.46875 4.5625q0.8125 1.078125 2.328125 1.078125q1.4375 0 2.359375 -1.1875q1.390625 -1.796875 1.390625 -4.453125l0 -3.515625z" fill-rule="nonzero"/><path fill="#1b1b1c" d="m737.59814 108.187355l29.385803 0l0 38.77166l-29.385803 0z" fill-rule="evenodd"/><path fill="#d9d9d9" d="m753.84576 123.35881l0 12.53125l2.15625 0q1.15625 0 1.640625 0.453125q0.5 0.4375 0.5 1.15625q0 0.703125 -0.5 1.15625q-0.484375 0.4375 -1.640625 0.4375l-7.5 0q-1.15625 0 -1.65625 -0.4375q-0.484375 -0.453125 -0.484375 -1.171875q0 -0.703125 0.484375 -1.140625q0.5 -0.453125 1.65625 -0.453125l2.140625 0l0 -12.53125l-3.46875 0l0 3.03125q0 1.15625 -0.453125 1.65625q-0.4375 0.484375 -1.15625 0.484375q-0.703125 0 -1.15625 -0.484375q-0.4375 -0.5 -0.4375 -1.65625l0 -6.25l16.59375 0.015625l0 6.234375q0 1.15625 -0.453125 1.65625q-0.4375 0.484375 -1.15625 0.484375q-0.703125 0 -1.15625 -0.484375q-0.4375 -0.5 -0.4375 -1.65625l0 -3.03125l-3.515625 0z" fill-rule="nonzero"/><path fill="#000000" fill-opacity="0.0" d="m41.884514 19.622047l0 164.47244" fill-rule="evenodd"/><path stroke="#666666" stroke-width="1.0" stroke-linejoin="round" stroke-linecap="butt" d="m41.884514 19.622047l0 164.47244" fill-rule="evenodd"/><path fill="#000000" fill-opacity="0.0" d="m116.51933 37.97638l0 146.11023" fill-rule="evenodd"/><path stroke="#666666" stroke-width="1.0" stroke-linejoin="round" stroke-linecap="butt" stroke-dasharray="4.0,3.0" d="m116.51933 37.97638l0 146.11023" fill-rule="evenodd"/><path fill="#000000" fill-opacity="0.0" d="m191.15332 37.97638l0 146.11023" fill-rule="evenodd"/><path stroke="#666666" stroke-width="1.0" stroke-linejoin="round" stroke-linecap="butt" stroke-dasharray="4.0,3.0" d="m191.15332 37.97638l0 146.11023" fill-rule="evenodd"/><path fill="#000000" fill-opacity="0.0" d="m265.78732 37.97638l0 146.11023" fill-rule="evenodd"/><path stroke="#666666" stroke-width="1.0" stroke-linejoin="round" stroke-linecap="butt" stroke-dasharray="4.0,3.0" d="m265.78732 37.97638l0 146.11023" fill-rule="evenodd"/><path fill="#000000" fill-opacity="0.0" d="m340.4213 37.97638l0 146.11023" fill-rule="evenodd"/><path stroke="#666666" stroke-width="1.0" stroke-linejoin="round" stroke-linecap="butt" stroke-dasharray="4.0,3.0" d="m340.4213 37.97638l0 146.11023" fill-rule="evenodd"/><path fill="#000000" fill-opacity="0.0" d="m415.0553 37.97638l0 146.11023" fill-rule="evenodd"/><path stroke="#666666" stroke-width="1.0" stroke-linejoin="round" stroke-linecap="butt" stroke-dasharray="4.0,3.0" d="m415.0553 37.97638l0 146.11023" fill-rule="evenodd"/><path fill="#000000" fill-opacity="0.0" d="m489.68927 37.97638l0 146.11023" fill-rule="evenodd"/><path stroke="#666666" stroke-width="1.0" stroke-linejoin="round" stroke-linecap="butt" stroke-dasharray="4.0,3.0" d="m489.68927 37.97638l0 146.11023" fill-rule="evenodd"/><path fill="#000000" fill-opacity="0.0" d="m564.3233 37.97638l0 146.11023" fill-rule="evenodd"/><path stroke="#666666" stroke-width="1.0" stroke-linejoin="round" stroke-linecap="butt" stroke-dasharray="4.0,3.0" d="m564.3233 37.97638l0 146.11023" fill-rule="evenodd"/><path fill="#000000" fill-opacity="0.0" d="m638.9573 37.97638l0 146.11023" fill-rule="evenodd"/><path stroke="#666666" stroke-width="1.0" stroke-linejoin="round" stroke-linecap="butt" stroke-dasharray="4.0,3.0" d="m638.9573 37.97638l0 146.11023" fill-rule="evenodd"/><path fill="#000000" fill-opacity="0.0" d="m713.59125 37.97638l0 146.11023" fill-rule="evenodd"/><path stroke="#666666" stroke-width="1.0" stroke-linejoin="round" stroke-linecap="butt" stroke-dasharray="4.0,3.0" d="m713.59125 37.97638l0 146.11023" fill-rule="evenodd"/><path fill="#000000" fill-opacity="0.0" d="m788.2257 19.622047l0 164.47244" fill-rule="evenodd"/><path stroke="#666666" stroke-width="1.0" stroke-linejoin="round" stroke-linecap="butt" d="m788.2257 19.622047l0 164.47244" fill-rule="evenodd"/><path fill="#f6b26b" d="m40.76505 48.175854l748.3779 0l0 18.26772l-748.3779 0z" fill-rule="evenodd"/><path stroke="#f6b26b" stroke-width="1.0" stroke-linejoin="round" stroke-linecap="butt" d="m40.76505 48.175854l748.3779 0l0 18.26772l-748.3779 0z" fill-rule="evenodd"/><path fill="#1b1b1c" d="m356.6379 51.858463q1.53125 0 2.390625 1.078125q1.015625 1.296875 1.015625 4.28125q0 2.96875 -1.03125 4.28125q-0.84375 1.0625 -2.375 1.0625q-1.53125 0 -2.46875 -1.171875q-0.9375 -1.171875 -0.9375 -4.203125q0 -2.953125 1.03125 -4.25q0.859375 -1.078125 2.375 -1.078125zm0 1.671875q-0.359375 0 -0.65625 0.234375q-0.28125 0.21875 -0.4375 0.828125q-0.203125 0.78125 -0.203125 2.625q0 1.84375 0.1875 2.53125q0.1875 0.6875 0.46875 0.921875q0.28125 0.234375 0.640625 0.234375q0.375 0 0.65625 -0.234375q0.28125 -0.234375 0.4375 -0.84375q0.21875 -0.765625 0.21875 -2.609375q0 -1.84375 -0.1875 -2.53125q-0.1875 -0.703125 -0.46875 -0.921875q-0.28125 -0.234375 -0.65625 -0.234375zm5.104248 8.859375l0 -10.484375l2.015625 0l0 3.765625q0.921875 -1.046875 2.203125 -1.046875q1.375 0 2.28125 1.0q0.921875 1.0 0.921875 2.890625q0 1.9375 -0.9375 3.0q-0.921875 1.046875 -2.25 1.046875q-0.640625 0 -1.28125 -0.328125q-0.625 -0.328125 -1.09375 -0.953125l0 1.109375l-1.859375 0zm2.0 -3.96875q0 1.1875 0.359375 1.75q0.53125 0.796875 1.390625 0.796875q0.671875 0 1.140625 -0.5625q0.46875 -0.578125 0.46875 -1.796875q0 -1.296875 -0.484375 -1.875q-0.46875 -0.578125 -1.203125 -0.578125q-0.71875 0 -1.203125 0.5625q-0.46875 0.5625 -0.46875 1.703125zm14.071472 -6.5625q1.53125 0 2.390625 1.078125q1.015625 1.296875 1.015625 4.28125q0 2.96875 -1.03125 4.28125q-0.84375 1.0625 -2.375 1.0625q-1.53125 0 -2.46875 -1.171875q-0.9375 -1.171875 -0.9375 -4.203125q0 -2.953125 1.03125 -4.25q0.859375 -1.078125 2.375 -1.078125zm0 1.671875q-0.359375 0 -0.65625 0.234375q-0.28125 0.21875 -0.4375 0.828125q-0.203125 0.78125 -0.203125 2.625q0 1.84375 0.1875 2.53125q0.1875 0.6875 0.46875 0.921875q0.28125 0.234375 0.640625 0.234375q0.375 0 0.65625 -0.234375q0.28125 -0.234375 0.4375 -0.84375q0.21875 -0.765625 0.21875 -2.609375q0 -1.84375 -0.1875 -2.53125q-0.1875 -0.703125 -0.46875 -0.921875q-0.28125 -0.234375 -0.65625 -0.234375zm9.901093 8.859375l-2.015625 0l0 -7.578125q-1.09375 1.03125 -2.59375 1.53125l0 -1.828125q0.796875 -0.265625 1.71875 -0.984375q0.921875 -0.71875 1.265625 -1.671875l1.625 0l0 10.53125zm6.4010925 -10.53125q1.53125 0 2.390625 1.078125q1.015625 1.296875 1.015625 4.28125q0 2.96875 -1.03125 4.28125q-0.84375 1.0625 -2.375 1.0625q-1.53125 0 -2.46875 -1.171875q-0.9375 -1.171875 -0.9375 -4.203125q0 -2.953125 1.03125 -4.25q0.859375 -1.078125 2.375 -1.078125zm0 1.671875q-0.359375 0 -0.65625 0.234375q-0.28125 0.21875 -0.4375 0.828125q-0.203125 0.78125 -0.203125 2.625q0 1.84375 0.1875 2.53125q0.1875 0.6875 0.46875 0.921875q0.28125 0.234375 0.640625 0.234375q0.375 0 0.65625 -0.234375q0.28125 -0.234375 0.4375 -0.84375q0.21875 -0.765625 0.21875 -2.609375q0 -1.84375 -0.1875 -2.53125q-0.1875 -0.703125 -0.46875 -0.921875q-0.28125 -0.234375 -0.65625 -0.234375zm8.151123 -1.671875q1.53125 0 2.390625 1.078125q1.015625 1.296875 1.015625 4.28125q0 2.96875 -1.03125 4.28125q-0.84375 1.0625 -2.375 1.0625q-1.53125 0 -2.46875 -1.171875q-0.9375 -1.171875 -0.9375 -4.203125q0 -2.953125 1.03125 -4.25q0.859375 -1.078125 2.375 -1.078125zm0 1.671875q-0.359375 0 -0.65625 0.234375q-0.28125 0.21875 -0.4375 0.828125q-0.203125 0.78125 -0.203125 2.625q0 1.84375 0.1875 2.53125q0.1875 0.6875 0.46875 0.921875q0.28125 0.234375 0.640625 0.234375q0.375 0 0.65625 -0.234375q0.28125 -0.234375 0.4375 -0.84375q0.21875 -0.765625 0.21875 -2.609375q0 -1.84375 -0.1875 -2.53125q-0.1875 -0.703125 -0.46875 -0.921875q-0.28125 -0.234375 -0.65625 -0.234375zm12.2230835 -1.671875q1.53125 0 2.390625 1.078125q1.015625 1.296875 1.015625 4.28125q0 2.96875 -1.03125 4.28125q-0.84375 1.0625 -2.375 1.0625q-1.53125 0 -2.46875 -1.171875q-0.9375 -1.171875 -0.9375 -4.203125q0 -2.953125 1.03125 -4.25q0.859375 -1.078125 2.375 -1.078125zm0 1.671875q-0.359375 0 -0.65625 0.234375q-0.28125 0.21875 -0.4375 0.828125q-0.203125 0.78125 -0.203125 2.625q0 1.84375 0.1875 2.53125q0.1875 0.6875 0.46875 0.921875q0.28125 0.234375 0.640625 0.234375q0.375 0 0.65625 -0.234375q0.28125 -0.234375 0.4375 -0.84375q0.21875 -0.765625 0.21875 -2.609375q0 -1.84375 -0.1875 -2.53125q-0.1875 -0.703125 -0.46875 -0.921875q-0.28125 -0.234375 -0.65625 -0.234375zm8.151123 -1.671875q1.53125 0 2.390625 1.078125q1.015625 1.296875 1.015625 4.28125q0 2.96875 -1.03125 4.28125q-0.84375 1.0625 -2.375 1.0625q-1.53125 0 -2.46875 -1.171875q-0.9375 -1.171875 -0.9375 -4.203125q0 -2.953125 1.03125 -4.25q0.859375 -1.078125 2.375 -1.078125zm0 1.671875q-0.359375 0 -0.65625 0.234375q-0.28125 0.21875 -0.4375 0.828125q-0.203125 0.78125 -0.203125 2.625q0 1.84375 0.1875 2.53125q0.1875 0.6875 0.46875 0.921875q0.28125 0.234375 0.640625 0.234375q0.375 0 0.65625 -0.234375q0.28125 -0.234375 0.4375 -0.84375q0.21875 -0.765625 0.21875 -2.609375q0 -1.84375 -0.1875 -2.53125q-0.1875 -0.703125 -0.46875 -0.921875q-0.28125 -0.234375 -0.65625 -0.234375zm9.901093 8.859375l-2.015625 0l0 -7.578125q-1.09375 1.03125 -2.59375 1.53125l0 -1.828125q0.796875 -0.265625 1.71875 -0.984375q0.921875 -0.71875 1.265625 -1.671875l1.625 0l0 10.53125zm7.341858 0l-2.015625 0l0 -7.578125q-1.09375 1.03125 -2.59375 1.53125l0 -1.828125q0.796875 -0.265625 1.71875 -0.984375q0.921875 -0.71875 1.265625 -1.671875l1.625 0l0 10.53125zm21.76712 -6.234375l-2.0 0l0 -1.4375q0 -0.875 0.140625 -1.375q0.15625 -0.515625 0.5625 -0.90625q0.421875 -0.40625 1.078125 -0.640625l0.390625 0.828125q-0.609375 0.203125 -0.875 0.5625q-0.25 0.359375 -0.265625 0.953125l0.96875 0l0 2.015625zm8.759491 2.375l2.046875 0.65625q-0.46875 1.71875 -1.578125 2.546875q-1.09375 0.828125 -2.78125 0.828125q-2.078125 0 -3.4375 -1.421875q-1.34375 -1.421875 -1.34375 -3.90625q0 -2.609375 1.359375 -4.0625q1.359375 -1.453125 3.5625 -1.453125q1.921875 0 3.125 1.140625q0.71875 0.671875 1.0625 1.9375l-2.09375 0.5q-0.1875 -0.828125 -0.78125 -1.296875q-0.578125 -0.46875 -1.421875 -0.46875q-1.171875 0 -1.90625 0.84375q-0.71875 0.828125 -0.71875 2.703125q0 1.984375 0.71875 2.84375q0.71875 0.84375 1.859375 0.84375q0.84375 0 1.453125 -0.53125q0.609375 -0.546875 0.875 -1.703125zm3.803009 -6.609375l2.015625 0l0 1.4375q0 0.875 -0.15625 1.390625q-0.140625 0.5 -0.5625 0.90625q-0.421875 0.390625 -1.0625 0.625l-0.390625 -0.828125q0.609375 -0.203125 0.859375 -0.546875q0.25 -0.359375 0.265625 -0.96875l-0.96875 0l0 -2.015625z" fill-rule="nonzero"/><path fill="#000000" fill-opacity="0.0" d="m0.057742782 76.125984l41.87664 0l0 97.92388l74.60367 0l0 -98.020996l149.41733 0l0 98.020996l298.37268 0l0 -97.937004l74.70868 0l0 97.99999l74.52234 0l0 -98.10498l141.81097 0" fill-rule="evenodd"/><path stroke="#f6b26b" stroke-width="3.0" stroke-linejoin="round" stroke-linecap="butt" d="m0.057742782 76.125984l41.87664 0l0 97.92388l74.60367 0l0 -98.020996l149.41733 0l0 98.020996l298.37268 0l0 -97.937004l74.70868 0l0 97.99999l74.52234 0l0 -98.10498l141.81097 0" fill-rule="evenodd"/><defs><linearGradient id="p.1" gradientUnits="userSpaceOnUse" gradientTransform="matrix(8.055005901948002 0.0 0.0 8.055005901948002 0.0 0.0)" spreadMethod="pad" x1="106.22606429080592" y1="8.535457797502568" x2="98.1710583890661" y2="8.535399883898501"><stop offset="0.0" stop-color="#1b1b1c"/><stop offset="0.99999994" stop-color="#1b1b1c" stop-opacity="0.0"/><stop offset="1.0" stop-color="#ffffff" stop-opacity="0.0"/></linearGradient></defs><path fill="url(#p.1)" d="m790.76904 68.75371l0 0c0 -2.975464E-4 2.4414062E-4 -5.41687E-4 5.493164E-4 -5.41687E-4l64.88135 5.41687E-4c1.2207031E-4 0 2.4414062E-4 6.1035156E-5 3.6621094E-4 1.6021729E-4c1.2207031E-4 9.918213E-5 1.8310547E-4 2.3651123E-4 1.8310547E-4 3.8146973E-4l-5.493164E-4 12.912842c0 3.0517578E-4 -2.4414062E-4 5.41687E-4 -5.493164E-4 5.41687E-4l-64.88135 -5.41687E-4l0 0c-3.0517578E-4 0 -5.493164E-4 -2.3651123E-4 -5.493164E-4 -5.340576E-4z" fill-rule="evenodd"/><defs><linearGradient id="p.2" gradientUnits="userSpaceOnUse" gradientTransform="matrix(-5.7753769556875065 0.0 0.0 -5.7753769556875065 0.0 0.0)" spreadMethod="pad" x1="0.005063364900511353" y1="-14.14053907028673" x2="-5.770313590636322" y2="-14.14058078820084"><stop offset="0.0" stop-color="#1b1b1c"/><stop offset="0.99999994" stop-color="#1b1b1c" stop-opacity="0.0"/><stop offset="1.0" stop-color="#ffffff" stop-opacity="0.0"/></linearGradient></defs><path fill="url(#p.2)" d="m33.32546 81.666664l0 0c0 1.5258789E-4 -1.2207031E-4 2.822876E-4 -2.784729E-4 2.822876E-4l-33.35405 -2.822876E-4c-7.371791E-5 0 -1.4441647E-4 -3.0517578E-5 -1.9654259E-4 -7.6293945E-5c-5.2126125E-5 -5.340576E-5 -8.141063E-5 -1.2207031E-4 -8.141063E-5 -1.9836426E-4l2.7795322E-4 -12.913109c0 -1.5258789E-4 1.2444332E-4 -2.746582E-4 2.7795322E-4 -2.746582E-4l33.354053 2.746582E-4l0 0c1.5258789E-4 0 2.784729E-4 1.2207031E-4 2.784729E-4 2.746582E-4z" fill-rule="evenodd"/><path fill="#000000" fill-opacity="0.0" d="m113.703384 24.208416l49.5748 0l0 14.551182l-49.5748 0z" fill-rule="evenodd"/><path fill="#d9d9d9" d="m116.453384 34.49404l0 -2.234375l-2.25 0l0 -1.5468769l2.25 0l0 -2.234375l1.5 0l0 2.234375l2.25 0l0 1.5468769l-2.25 0l0 2.234375l-1.5 0zm8.9765625 1.234375l-1.640625 0l0 -6.203127q-0.90625 0.84375 -2.125 1.25l0 -1.5q0.640625 -0.203125 1.390625 -0.796875q0.765625 -0.59375 1.046875 -1.375l1.328125 0l0 8.625002zm6.0234375 -6.218752l1.515625 0l0 0.84375q0.828125 -0.984375 1.953125 -0.984375q0.59375 0 1.03125 0.25q0.4375 0.234375 0.71875 0.734375q0.40625 -0.5 0.875 -0.734375q0.484375 -0.25 1.03125 -0.25q0.671875 0 1.140625 0.28125q0.484375 0.265625 0.71875 0.8125q0.171875 0.390625 0.171875 1.28125l0 3.984377l-1.640625 0l0 -3.5625q0 -0.9218769 -0.171875 -1.1875019q-0.234375 -0.359375 -0.703125 -0.359375q-0.34375 0 -0.65625 0.21875q-0.296875 0.203125 -0.4375 0.609375q-0.140625 0.40625 -0.140625 1.2968769l0 2.984375l-1.640625 0l0 -3.40625q0 -0.9062519 -0.09375 -1.1718769q-0.078125 -0.265625 -0.265625 -0.390625q-0.1875 -0.140625 -0.5 -0.140625q-0.375 0 -0.6875 0.21875q-0.296875 0.203125 -0.4375 0.59375q-0.125 0.375 -0.125 1.2656269l0 3.03125l-1.65625 0l0 -6.218752zm10.216797 4.437502l1.65625 -0.25q0.109375 0.484375 0.421875 0.734375q0.328125 0.25 0.90625 0.25q0.640625 0 0.953125 -0.234375q0.21875 -0.171875 0.21875 -0.4375q0 -0.1875 -0.109375 -0.3125q-0.125 -0.125 -0.546875 -0.21875q-2.0 -0.4375 -2.53125 -0.796875q-0.734375 -0.515625 -0.734375 -1.4062519q0 -0.8125 0.625 -1.359375q0.640625 -0.546875 1.984375 -0.546875q1.28125 0 1.90625 0.421875q0.625 0.40625 0.859375 1.21875l-1.5625 0.28125q-0.09375 -0.359375 -0.375 -0.546875q-0.28125 -0.203125 -0.796875 -0.203125q-0.640625 0 -0.921875 0.1875q-0.1875 0.125 -0.1875 0.328125q0 0.1875 0.15625 0.3125q0.21875 0.15625 1.53125 0.453125q1.328125 0.2968769 1.84375 0.7343769q0.515625 0.4375 0.515625 1.21875q0 0.859375 -0.71875 1.484375q-0.703125 0.609375 -2.109375 0.609375q-1.265625 0 -2.015625 -0.515625q-0.734375 -0.515625 -0.96875 -1.40625z" fill-rule="nonzero"/><path fill="#000000" fill-opacity="0.0" d="m188.32074 24.208416l49.5748 0l0 14.551182l-49.5748 0z" fill-rule="evenodd"/><path fill="#d9d9d9" d="m191.07074 34.49404l0 -2.234375l-2.25 0l0 -1.5468769l2.25 0l0 -2.234375l1.5 0l0 2.234375l2.25 0l0 1.5468769l-2.25 0l0 2.234375l-1.5 0zm10.3359375 -0.296875l0 1.53125l-5.78125 0q0.09375 -0.875 0.5625 -1.640625q0.46875 -0.78125 1.859375 -2.0625q1.109375 -1.0312519 1.359375 -1.4062519q0.34375 -0.515625 0.34375 -1.015625q0 -0.546875 -0.296875 -0.84375q-0.296875 -0.296875 -0.8125 -0.296875q-0.515625 0 -0.828125 0.3125q-0.296875 0.3125 -0.34375 1.03125l-1.640625 -0.15625q0.140625 -1.359375 0.90625 -1.953125q0.78125 -0.59375 1.9375 -0.59375q1.28125 0 2.0 0.6875q0.734375 0.6875 0.734375 1.703125q0 0.578125 -0.21875 1.109375q-0.203125 0.515625 -0.65625 1.09375q-0.296875 0.3750019 -1.078125 1.0937519q-0.78125 0.71875 -0.984375 0.953125q-0.203125 0.234375 -0.34375 0.453125l3.28125 0zm4.6640625 -4.687502l1.515625 0l0 0.84375q0.828125 -0.984375 1.953125 -0.984375q0.59375 0 1.03125 0.25q0.4375 0.234375 0.71875 0.734375q0.40625 -0.5 0.875 -0.734375q0.484375 -0.25 1.03125 -0.25q0.671875 0 1.140625 0.28125q0.484375 0.265625 0.71875 0.8125q0.171875 0.390625 0.171875 1.28125l0 3.984377l-1.640625 0l0 -3.5625q0 -0.9218769 -0.171875 -1.1875019q-0.234375 -0.359375 -0.703125 -0.359375q-0.34375 0 -0.65625 0.21875q-0.296875 0.203125 -0.4375 0.609375q-0.140625 0.40625 -0.140625 1.2968769l0 2.984375l-1.640625 0l0 -3.40625q0 -0.9062519 -0.09375 -1.1718769q-0.078125 -0.265625 -0.265625 -0.390625q-0.1875 -0.140625 -0.5 -0.140625q-0.375 0 -0.6875 0.21875q-0.296875 0.203125 -0.4375 0.59375q-0.125 0.375 -0.125 1.2656269l0 3.03125l-1.65625 0l0 -6.218752zm10.216797 4.437502l1.65625 -0.25q0.109375 0.484375 0.421875 0.734375q0.328125 0.25 0.90625 0.25q0.640625 0 0.953125 -0.234375q0.21875 -0.171875 0.21875 -0.4375q0 -0.1875 -0.109375 -0.3125q-0.125 -0.125 -0.546875 -0.21875q-2.0 -0.4375 -2.53125 -0.796875q-0.734375 -0.515625 -0.734375 -1.4062519q0 -0.8125 0.625 -1.359375q0.640625 -0.546875 1.984375 -0.546875q1.28125 0 1.90625 0.421875q0.625 0.40625 0.859375 1.21875l-1.5625 0.28125q-0.09375 -0.359375 -0.375 -0.546875q-0.28125 -0.203125 -0.796875 -0.203125q-0.640625 0 -0.921875 0.1875q-0.1875 0.125 -0.1875 0.328125q0 0.1875 0.15625 0.3125q0.21875 0.15625 1.53125 0.453125q1.328125 0.2968769 1.84375 0.7343769q0.515625 0.4375 0.515625 1.21875q0 0.859375 -0.71875 1.484375q-0.703125 0.609375 -2.109375 0.609375q-1.265625 0 -2.015625 -0.515625q-0.734375 -0.515625 -0.96875 -1.40625z" fill-rule="nonzero"/><path fill="#000000" fill-opacity="0.0" d="m262.93808 24.208416l49.57483 0l0 14.551182l-49.57483 0z" fill-rule="evenodd"/><path fill="#d9d9d9" d="m265.68808 34.49404l0 -2.234375l-2.25 0l0 -1.5468769l2.25 0l0 -2.234375l1.5 0l0 2.234375l2.25 0l0 1.5468769l-2.25 0l0 2.234375l-1.5 0zm4.7109375 -1.046875l1.59375 -0.1875q0.078125 0.609375 0.40625 0.9375q0.34375 0.3125 0.8125 0.3125q0.515625 0 0.859375 -0.390625q0.34375 -0.390625 0.34375 -1.046875q0 -0.609375 -0.34375 -0.96875q-0.328125 -0.3750019 -0.796875 -0.3750019q-0.328125 0 -0.765625 0.125l0.1875 -1.34375q0.671875 0.015625 1.015625 -0.28125q0.359375 -0.3125 0.359375 -0.828125q0 -0.421875 -0.265625 -0.671875q-0.25 -0.265625 -0.6875 -0.265625q-0.421875 0 -0.71875 0.296875q-0.296875 0.28125 -0.359375 0.84375l-1.515625 -0.25q0.15625 -0.78125 0.46875 -1.25q0.328125 -0.46875 0.890625 -0.734375q0.578125 -0.265625 1.28125 -0.265625q1.21875 0 1.953125 0.765625q0.59375 0.640625 0.59375 1.4375q0 1.125 -1.234375 1.796875q0.75 0.171875 1.1875 0.71875q0.4375 0.5468769 0.4375 1.3281269q0 1.125 -0.828125 1.921875q-0.828125 0.796875 -2.046875 0.796875q-1.171875 0 -1.9375 -0.671875q-0.765625 -0.671875 -0.890625 -1.75zm10.2890625 -3.937502l1.515625 0l0 0.84375q0.828125 -0.984375 1.953125 -0.984375q0.59375 0 1.03125 0.25q0.4375 0.234375 0.71875 0.734375q0.40625 -0.5 0.875 -0.734375q0.484375 -0.25 1.03125 -0.25q0.671875 0 1.140625 0.28125q0.484375 0.265625 0.71875 0.8125q0.171875 0.390625 0.171875 1.28125l0 3.984377l-1.640625 0l0 -3.5625q0 -0.9218769 -0.171875 -1.1875019q-0.234375 -0.359375 -0.703125 -0.359375q-0.34375 0 -0.65625 0.21875q-0.296875 0.203125 -0.4375 0.609375q-0.140625 0.40625 -0.140625 1.2968769l0 2.984375l-1.640625 0l0 -3.40625q0 -0.9062519 -0.09375 -1.1718769q-0.078125 -0.265625 -0.265625 -0.390625q-0.1875 -0.140625 -0.5 -0.140625q-0.375 0 -0.6875 0.21875q-0.296875 0.203125 -0.4375 0.59375q-0.125 0.375 -0.125 1.2656269l0 3.03125l-1.65625 0l0 -6.218752zm10.216797 4.437502l1.65625 -0.25q0.109375 0.484375 0.421875 0.734375q0.328125 0.25 0.90625 0.25q0.640625 0 0.953125 -0.234375q0.21875 -0.171875 0.21875 -0.4375q0 -0.1875 -0.109375 -0.3125q-0.125 -0.125 -0.546875 -0.21875q-2.0 -0.4375 -2.53125 -0.796875q-0.734375 -0.515625 -0.734375 -1.4062519q0 -0.8125 0.625 -1.359375q0.640625 -0.546875 1.984375 -0.546875q1.28125 0 1.90625 0.421875q0.625 0.40625 0.859375 1.21875l-1.5625 0.28125q-0.09375 -0.359375 -0.375 -0.546875q-0.28125 -0.203125 -0.796875 -0.203125q-0.640625 0 -0.921875 0.1875q-0.1875 0.125 -0.1875 0.328125q0 0.1875 0.15625 0.3125q0.21875 0.15625 1.53125 0.453125q1.328125 0.2968769 1.84375 0.7343769q0.515625 0.4375 0.515625 1.21875q0 0.859375 -0.71875 1.484375q-0.703125 0.609375 -2.109375 0.609375q-1.265625 0 -2.015625 -0.515625q-0.734375 -0.515625 -0.96875 -1.40625z" fill-rule="nonzero"/><path fill="#000000" fill-opacity="0.0" d="m337.55545 24.208416l49.5748 0l0 14.551182l-49.5748 0z" fill-rule="evenodd"/><path fill="#d9d9d9" d="m340.30545 34.49404l0 -2.234375l-2.25 0l0 -1.5468769l2.25 0l0 -2.234375l1.5 0l0 2.234375l2.25 0l0 1.5468769l-2.25 0l0 2.234375l-1.5 0zm7.9921875 1.234375l0 -1.734375l-3.515625 0l0 -1.4375l3.734375 -5.453127l1.375 0l0 5.453127l1.078125 0l0 1.4375l-1.078125 0l0 1.734375l-1.59375 0zm0 -3.171875l0 -2.937502l-1.96875 2.937502l1.96875 0zm7.0078125 -3.046877l1.515625 0l0 0.84375q0.828125 -0.984375 1.953125 -0.984375q0.59375 0 1.03125 0.25q0.4375 0.234375 0.71875 0.734375q0.40625 -0.5 0.875 -0.734375q0.484375 -0.25 1.03125 -0.25q0.671875 0 1.140625 0.28125q0.484375 0.265625 0.71875 0.8125q0.171875 0.390625 0.171875 1.28125l0 3.984377l-1.640625 0l0 -3.5625q0 -0.9218769 -0.171875 -1.1875019q-0.234375 -0.359375 -0.703125 -0.359375q-0.34375 0 -0.65625 0.21875q-0.296875 0.203125 -0.4375 0.609375q-0.140625 0.40625 -0.140625 1.2968769l0 2.984375l-1.640625 0l0 -3.40625q0 -0.9062519 -0.09375 -1.1718769q-0.078125 -0.265625 -0.265625 -0.390625q-0.1875 -0.140625 -0.5 -0.140625q-0.375 0 -0.6875 0.21875q-0.296875 0.203125 -0.4375 0.59375q-0.125 0.375 -0.125 1.2656269l0 3.03125l-1.65625 0l0 -6.218752zm10.216797 4.437502l1.65625 -0.25q0.109375 0.484375 0.421875 0.734375q0.328125 0.25 0.90625 0.25q0.640625 0 0.953125 -0.234375q0.21875 -0.171875 0.21875 -0.4375q0 -0.1875 -0.109375 -0.3125q-0.125 -0.125 -0.546875 -0.21875q-2.0 -0.4375 -2.53125 -0.796875q-0.734375 -0.515625 -0.734375 -1.4062519q0 -0.8125 0.625 -1.359375q0.640625 -0.546875 1.984375 -0.546875q1.28125 0 1.90625 0.421875q0.625 0.40625 0.859375 1.21875l-1.5625 0.28125q-0.09375 -0.359375 -0.375 -0.546875q-0.28125 -0.203125 -0.796875 -0.203125q-0.640625 0 -0.921875 0.1875q-0.1875 0.125 -0.1875 0.328125q0 0.1875 0.15625 0.3125q0.21875 0.15625 1.53125 0.453125q1.328125 0.2968769 1.84375 0.7343769q0.515625 0.4375 0.515625 1.21875q0 0.859375 -0.71875 1.484375q-0.703125 0.609375 -2.109375 0.609375q-1.265625 0 -2.015625 -0.515625q-0.734375 -0.515625 -0.96875 -1.40625z" fill-rule="nonzero"/><path fill="#000000" fill-opacity="0.0" d="m412.1728 24.208416l49.57483 0l0 14.551182l-49.57483 0z" fill-rule="evenodd"/><path fill="#d9d9d9" d="m414.9228 34.49404l0 -2.234375l-2.25 0l0 -1.5468769l2.25 0l0 -2.234375l1.5 0l0 2.234375l2.25 0l0 1.5468769l-2.25 0l0 2.234375l-1.5 0zm4.7890625 -0.96875l1.640625 -0.171875q0.078125 0.546875 0.421875 0.875q0.34375 0.328125 0.796875 0.328125q0.515625 0 0.875 -0.421875q0.359375 -0.421875 0.359375 -1.265625q0 -0.78125 -0.359375 -1.1718769q-0.359375 -0.40625 -0.921875 -0.40625q-0.71875 0 -1.28125 0.625l-1.328125 -0.1875l0.84375 -4.46875l4.359375 0l0 1.53125l-3.109375 0l-0.265625 1.46875q0.5625 -0.28125 1.125 -0.28125q1.09375 0 1.859375 0.796875q0.765625 0.796875 0.765625 2.062502q0 1.0625 -0.609375 1.90625q-0.84375 1.125 -2.328125 1.125q-1.1875 0 -1.9375 -0.625q-0.75 -0.640625 -0.90625 -1.71875zm10.2109375 -4.015627l1.515625 0l0 0.84375q0.828125 -0.984375 1.953125 -0.984375q0.59375 0 1.03125 0.25q0.4375 0.234375 0.71875 0.734375q0.40625 -0.5 0.875 -0.734375q0.484375 -0.25 1.03125 -0.25q0.671875 0 1.140625 0.28125q0.484375 0.265625 0.71875 0.8125q0.171875 0.390625 0.171875 1.28125l0 3.984377l-1.640625 0l0 -3.5625q0 -0.9218769 -0.171875 -1.1875019q-0.234375 -0.359375 -0.703125 -0.359375q-0.34375 0 -0.65625 0.21875q-0.296875 0.203125 -0.4375 0.609375q-0.140625 0.40625 -0.140625 1.2968769l0 2.984375l-1.640625 0l0 -3.40625q0 -0.9062519 -0.09375 -1.1718769q-0.078125 -0.265625 -0.265625 -0.390625q-0.1875 -0.140625 -0.5 -0.140625q-0.375 0 -0.6875 0.21875q-0.296875 0.203125 -0.4375 0.59375q-0.125 0.375 -0.125 1.2656269l0 3.03125l-1.65625 0l0 -6.218752zm10.216797 4.437502l1.65625 -0.25q0.109375 0.484375 0.421875 0.734375q0.328125 0.25 0.90625 0.25q0.640625 0 0.953125 -0.234375q0.21875 -0.171875 0.21875 -0.4375q0 -0.1875 -0.109375 -0.3125q-0.125 -0.125 -0.546875 -0.21875q-2.0 -0.4375 -2.53125 -0.796875q-0.734375 -0.515625 -0.734375 -1.4062519q0 -0.8125 0.625 -1.359375q0.640625 -0.546875 1.984375 -0.546875q1.28125 0 1.90625 0.421875q0.625 0.40625 0.859375 1.21875l-1.5625 0.28125q-0.09375 -0.359375 -0.375 -0.546875q-0.28125 -0.203125 -0.796875 -0.203125q-0.640625 0 -0.921875 0.1875q-0.1875 0.125 -0.1875 0.328125q0 0.1875 0.15625 0.3125q0.21875 0.15625 1.53125 0.453125q1.328125 0.2968769 1.84375 0.7343769q0.515625 0.4375 0.515625 1.21875q0 0.859375 -0.71875 1.484375q-0.703125 0.609375 -2.109375 0.609375q-1.265625 0 -2.015625 -0.515625q-0.734375 -0.515625 -0.96875 -1.40625z" fill-rule="nonzero"/><path fill="#000000" fill-opacity="0.0" d="m486.79016 24.208416l49.574768 0l0 14.551182l-49.574768 0z" fill-rule="evenodd"/><path fill="#d9d9d9" d="m489.54016 34.49404l0 -2.234375l-2.25 0l0 -1.5468769l2.25 0l0 -2.234375l1.5 0l0 2.234375l2.25 0l0 1.5468769l-2.25 0l0 2.234375l-1.5 0zm10.3515625 -5.250002l-1.59375 0.171875q-0.0625 -0.484375 -0.3125 -0.71875q-0.25 -0.234375 -0.640625 -0.234375q-0.515625 0 -0.875 0.46875q-0.359375 0.46875 -0.453125 1.9375q0.609375 -0.71875 1.53125 -0.71875q1.03125 0 1.765625 0.78125q0.734375 0.78125 0.734375 2.031252q0 1.3125 -0.78125 2.109375q-0.765625 0.796875 -1.984375 0.796875q-1.296875 0 -2.140625 -1.0q-0.828125 -1.015625 -0.828125 -3.312502q0 -2.375 0.859375 -3.40625q0.875 -1.046875 2.28125 -1.046875q0.96875 0 1.609375 0.546875q0.640625 0.546875 0.828125 1.59375zm-3.734375 3.593752q0 0.796875 0.359375 1.234375q0.375 0.4375 0.84375 0.4375q0.46875 0 0.765625 -0.359375q0.3125 -0.359375 0.3125 -1.171875q0 -0.84375 -0.328125 -1.2187519q-0.328125 -0.390625 -0.828125 -0.390625q-0.46875 0 -0.796875 0.375q-0.328125 0.3593769 -0.328125 1.0937519zm8.3828125 -3.328127l1.515625 0l0 0.84375q0.828125 -0.984375 1.953125 -0.984375q0.59375 0 1.03125 0.25q0.4375 0.234375 0.71875 0.734375q0.40625 -0.5 0.875 -0.734375q0.484375 -0.25 1.03125 -0.25q0.671875 0 1.140625 0.28125q0.484375 0.265625 0.71875 0.8125q0.171875 0.390625 0.171875 1.28125l0 3.984377l-1.640625 0l0 -3.5625q0 -0.9218769 -0.171875 -1.1875019q-0.234375 -0.359375 -0.703125 -0.359375q-0.34375 0 -0.65625 0.21875q-0.296875 0.203125 -0.4375 0.609375q-0.140625 0.40625 -0.140625 1.2968769l0 2.984375l-1.640625 0l0 -3.40625q0 -0.9062519 -0.09375 -1.1718769q-0.078125 -0.265625 -0.265625 -0.390625q-0.1875 -0.140625 -0.5 -0.140625q-0.375 0 -0.6875 0.21875q-0.296875 0.203125 -0.4375 0.59375q-0.125 0.375 -0.125 1.2656269l0 3.03125l-1.65625 0l0 -6.218752zm10.216797 4.437502l1.65625 -0.25q0.109375 0.484375 0.421875 0.734375q0.328125 0.25 0.90625 0.25q0.640625 0 0.953125 -0.234375q0.21875 -0.171875 0.21875 -0.4375q0 -0.1875 -0.109375 -0.3125q-0.125 -0.125 -0.546875 -0.21875q-2.0 -0.4375 -2.53125 -0.796875q-0.734375 -0.515625 -0.734375 -1.4062519q0 -0.8125 0.625 -1.359375q0.640625 -0.546875 1.984375 -0.546875q1.28125 0 1.90625 0.421875q0.625 0.40625 0.859375 1.21875l-1.5625 0.28125q-0.09375 -0.359375 -0.375 -0.546875q-0.28125 -0.203125 -0.796875 -0.203125q-0.640625 0 -0.921875 0.1875q-0.1875 0.125 -0.1875 0.328125q0 0.1875 0.15625 0.3125q0.21875 0.15625 1.53125 0.453125q1.328125 0.2968769 1.84375 0.7343769q0.515625 0.4375 0.515625 1.21875q0 0.859375 -0.71875 1.484375q-0.703125 0.609375 -2.109375 0.609375q-1.265625 0 -2.015625 -0.515625q-0.734375 -0.515625 -0.96875 -1.40625z" fill-rule="nonzero"/><path fill="#000000" fill-opacity="0.0" d="m561.40753 24.208416l49.574768 0l0 14.551182l-49.574768 0z" fill-rule="evenodd"/><path fill="#d9d9d9" d="m564.15753 34.49404l0 -2.234375l-2.25 0l0 -1.5468769l2.25 0l0 -2.234375l1.5 0l0 2.234375l2.25 0l0 1.5468769l-2.25 0l0 2.234375l-1.5 0zm4.7734375 -5.703127l0 -1.53125l5.625 0l0 1.1875q-0.703125 0.6875 -1.421875 1.96875q-0.71875 1.28125 -1.09375 2.734377q-0.375 1.4375 -0.375 2.578125l-1.578125 0q0.03125 -1.78125 0.71875 -3.625q0.703125 -1.8593769 1.859375 -3.312502l-3.734375 0zm10.2265625 0.71875l1.515625 0l0 0.84375q0.828125 -0.984375 1.953125 -0.984375q0.59375 0 1.03125 0.25q0.4375 0.234375 0.71875 0.734375q0.40625 -0.5 0.875 -0.734375q0.484375 -0.25 1.03125 -0.25q0.671875 0 1.140625 0.28125q0.484375 0.265625 0.71875 0.8125q0.171875 0.390625 0.171875 1.28125l0 3.984377l-1.640625 0l0 -3.5625q0 -0.9218769 -0.171875 -1.1875019q-0.234375 -0.359375 -0.703125 -0.359375q-0.34375 0 -0.65625 0.21875q-0.296875 0.203125 -0.4375 0.609375q-0.140625 0.40625 -0.140625 1.2968769l0 2.984375l-1.640625 0l0 -3.40625q0 -0.9062519 -0.09375 -1.1718769q-0.078125 -0.265625 -0.265625 -0.390625q-0.1875 -0.140625 -0.5 -0.140625q-0.375 0 -0.6875 0.21875q-0.296875 0.203125 -0.4375 0.59375q-0.125 0.375 -0.125 1.2656269l0 3.03125l-1.65625 0l0 -6.218752zm10.216797 4.437502l1.65625 -0.25q0.109375 0.484375 0.421875 0.734375q0.328125 0.25 0.90625 0.25q0.640625 0 0.953125 -0.234375q0.21875 -0.171875 0.21875 -0.4375q0 -0.1875 -0.109375 -0.3125q-0.125 -0.125 -0.546875 -0.21875q-2.0 -0.4375 -2.53125 -0.796875q-0.734375 -0.515625 -0.734375 -1.4062519q0 -0.8125 0.625 -1.359375q0.640625 -0.546875 1.984375 -0.546875q1.28125 0 1.90625 0.421875q0.625 0.40625 0.859375 1.21875l-1.5625 0.28125q-0.09375 -0.359375 -0.375 -0.546875q-0.28125 -0.203125 -0.796875 -0.203125q-0.640625 0 -0.921875 0.1875q-0.1875 0.125 -0.1875 0.328125q0 0.1875 0.15625 0.3125q0.21875 0.15625 1.53125 0.453125q1.328125 0.2968769 1.84375 0.7343769q0.515625 0.4375 0.515625 1.21875q0 0.859375 -0.71875 1.484375q-0.703125 0.609375 -2.109375 0.609375q-1.265625 0 -2.015625 -0.515625q-0.734375 -0.515625 -0.96875 -1.40625z" fill-rule="nonzero"/><path fill="#000000" fill-opacity="0.0" d="m636.02484 24.208416l49.57483 0l0 14.551182l-49.57483 0z" fill-rule="evenodd"/><path fill="#d9d9d9" d="m638.77484 34.49404l0 -2.234375l-2.25 0l0 -1.5468769l2.25 0l0 -2.234375l1.5 0l0 2.234375l2.25 0l0 1.5468769l-2.25 0l0 2.234375l-1.5 0zm6.1796875 -3.406252q-0.640625 -0.265625 -0.9375 -0.734375q-0.28125 -0.46875 -0.28125 -1.03125q0 -0.96875 0.671875 -1.59375q0.671875 -0.625 1.90625 -0.625q1.21875 0 1.890625 0.625q0.6875 0.625 0.6875 1.59375q0 0.59375 -0.3125 1.0625q-0.3125 0.46875 -0.875 0.703125q0.71875 0.296875 1.09375 0.84375q0.375 0.5468769 0.375 1.2656269q0 1.1875 -0.765625 1.9375q-0.75 0.75 -2.015625 0.75q-1.171875 0 -1.953125 -0.625q-0.921875 -0.71875 -0.921875 -1.984375q0 -0.703125 0.34375 -1.2812519q0.34375 -0.578125 1.09375 -0.90625zm0.34375 -1.65625q0 0.5 0.265625 0.78125q0.28125 0.265625 0.75 0.265625q0.46875 0 0.75 -0.28125q0.28125 -0.28125 0.28125 -0.765625q0 -0.46875 -0.28125 -0.734375q-0.28125 -0.28125 -0.734375 -0.28125q-0.46875 0 -0.75 0.28125q-0.28125 0.28125 -0.28125 0.734375zm-0.15625 3.687502q0 0.671875 0.34375 1.0625q0.359375 0.375 0.875 0.375q0.515625 0 0.84375 -0.359375q0.328125 -0.375 0.328125 -1.0625q0 -0.609375 -0.34375 -0.96875q-0.328125 -0.3750019 -0.84375 -0.3750019q-0.609375 0 -0.90625 0.4218769q-0.296875 0.421875 -0.296875 0.90625zm8.6328125 -3.609377l1.515625 0l0 0.84375q0.828125 -0.984375 1.953125 -0.984375q0.59375 0 1.03125 0.25q0.4375 0.234375 0.71875 0.734375q0.40625 -0.5 0.875 -0.734375q0.484375 -0.25 1.03125 -0.25q0.671875 0 1.140625 0.28125q0.484375 0.265625 0.71875 0.8125q0.171875 0.390625 0.171875 1.28125l0 3.984377l-1.640625 0l0 -3.5625q0 -0.9218769 -0.171875 -1.1875019q-0.234375 -0.359375 -0.703125 -0.359375q-0.34375 0 -0.65625 0.21875q-0.296875 0.203125 -0.4375 0.609375q-0.140625 0.40625 -0.140625 1.2968769l0 2.984375l-1.640625 0l0 -3.40625q0 -0.9062519 -0.09375 -1.1718769q-0.078125 -0.265625 -0.265625 -0.390625q-0.1875 -0.140625 -0.5 -0.140625q-0.375 0 -0.6875 0.21875q-0.296875 0.203125 -0.4375 0.59375q-0.125 0.375 -0.125 1.2656269l0 3.03125l-1.65625 0l0 -6.218752zm10.216797 4.437502l1.65625 -0.25q0.109375 0.484375 0.421875 0.734375q0.328125 0.25 0.90625 0.25q0.640625 0 0.953125 -0.234375q0.21875 -0.171875 0.21875 -0.4375q0 -0.1875 -0.109375 -0.3125q-0.125 -0.125 -0.546875 -0.21875q-2.0 -0.4375 -2.53125 -0.796875q-0.734375 -0.515625 -0.734375 -1.4062519q0 -0.8125 0.625 -1.359375q0.640625 -0.546875 1.984375 -0.546875q1.28125 0 1.90625 0.421875q0.625 0.40625 0.859375 1.21875l-1.5625 0.28125q-0.09375 -0.359375 -0.375 -0.546875q-0.28125 -0.203125 -0.796875 -0.203125q-0.640625 0 -0.921875 0.1875q-0.1875 0.125 -0.1875 0.328125q0 0.1875 0.15625 0.3125q0.21875 0.15625 1.53125 0.453125q1.328125 0.2968769 1.84375 0.7343769q0.515625 0.4375 0.515625 1.21875q0 0.859375 -0.71875 1.484375q-0.703125 0.609375 -2.109375 0.609375q-1.265625 0 -2.015625 -0.515625q-0.734375 -0.515625 -0.96875 -1.40625z" fill-rule="nonzero"/><path fill="#000000" fill-opacity="0.0" d="m710.6422 24.208416l49.57483 0l0 14.551182l-49.57483 0z" fill-rule="evenodd"/><path fill="#d9d9d9" d="m713.3922 34.49404l0 -2.234375l-2.25 0l0 -1.5468769l2.25 0l0 -2.234375l1.5 0l0 2.234375l2.25 0l0 1.5468769l-2.25 0l0 2.234375l-1.5 0zm4.8046875 -0.75l1.59375 -0.171875q0.0625 0.484375 0.296875 0.71875q0.25 0.234375 0.65625 0.234375q0.515625 0 0.859375 -0.46875q0.359375 -0.46875 0.46875 -1.953125q-0.625 0.71875 -1.5625 0.71875q-1.0 0 -1.75 -0.78125q-0.734375 -0.7812519 -0.734375 -2.031252q0 -1.3125 0.78125 -2.109375q0.78125 -0.796875 1.984375 -0.796875q1.296875 0 2.140625 1.015625q0.84375 1.0 0.84375 3.3125q0 2.359377 -0.875 3.406252q-0.875 1.046875 -2.28125 1.046875q-1.0 0 -1.625 -0.53125q-0.625 -0.546875 -0.796875 -1.609375zm3.71875 -3.593752q0 -0.796875 -0.359375 -1.234375q-0.359375 -0.453125 -0.84375 -0.453125q-0.453125 0 -0.765625 0.359375q-0.296875 0.359375 -0.296875 1.1875q0 0.828125 0.328125 1.21875q0.328125 0.390625 0.8125 0.390625q0.484375 0 0.796875 -0.375q0.328125 -0.375 0.328125 -1.09375zm6.4765625 -0.640625l1.515625 0l0 0.84375q0.828125 -0.984375 1.953125 -0.984375q0.59375 0 1.03125 0.25q0.4375 0.234375 0.71875 0.734375q0.40625 -0.5 0.875 -0.734375q0.484375 -0.25 1.03125 -0.25q0.671875 0 1.140625 0.28125q0.484375 0.265625 0.71875 0.8125q0.171875 0.390625 0.171875 1.28125l0 3.984377l-1.640625 0l0 -3.5625q0 -0.9218769 -0.171875 -1.1875019q-0.234375 -0.359375 -0.703125 -0.359375q-0.34375 0 -0.65625 0.21875q-0.296875 0.203125 -0.4375 0.609375q-0.140625 0.40625 -0.140625 1.2968769l0 2.984375l-1.640625 0l0 -3.40625q0 -0.9062519 -0.09375 -1.1718769q-0.078125 -0.265625 -0.265625 -0.390625q-0.1875 -0.140625 -0.5 -0.140625q-0.375 0 -0.6875 0.21875q-0.296875 0.203125 -0.4375 0.59375q-0.125 0.375 -0.125 1.2656269l0 3.03125l-1.65625 0l0 -6.218752zm10.216797 4.437502l1.65625 -0.25q0.109375 0.484375 0.421875 0.734375q0.328125 0.25 0.90625 0.25q0.640625 0 0.953125 -0.234375q0.21875 -0.171875 0.21875 -0.4375q0 -0.1875 -0.109375 -0.3125q-0.125 -0.125 -0.546875 -0.21875q-2.0 -0.4375 -2.53125 -0.796875q-0.734375 -0.515625 -0.734375 -1.4062519q0 -0.8125 0.625 -1.359375q0.640625 -0.546875 1.984375 -0.546875q1.28125 0 1.90625 0.421875q0.625 0.40625 0.859375 1.21875l-1.5625 0.28125q-0.09375 -0.359375 -0.375 -0.546875q-0.28125 -0.203125 -0.796875 -0.203125q-0.640625 0 -0.921875 0.1875q-0.1875 0.125 -0.1875 0.328125q0 0.1875 0.15625 0.3125q0.21875 0.15625 1.53125 0.453125q1.328125 0.2968769 1.84375 0.7343769q0.515625 0.4375 0.515625 1.21875q0 0.859375 -0.71875 1.484375q-0.703125 0.609375 -2.109375 0.609375q-1.265625 0 -2.015625 -0.515625q-0.734375 -0.515625 -0.96875 -1.40625z" fill-rule="nonzero"/><path fill="#000000" fill-opacity="0.0" d="m42.778656 5.5202436l49.5748 0l0 14.551181l-49.5748 0z" fill-rule="evenodd"/><path fill="#d9d9d9" d="m47.497406 17.040243l-1.640625 0l0 -6.203125q-0.90625 0.84375 -2.125 1.25l0 -1.5q0.640625 -0.203125 1.390625 -0.796875q0.765625 -0.59375 1.046875 -1.375l1.328125 0l0 8.625zm5.251953 -8.625q1.25 0 1.953125 0.890625q0.828125 1.046875 0.828125 3.5q0 2.4375 -0.84375 3.5q-0.6875 0.875 -1.9375 0.875q-1.25 0 -2.03125 -0.953125q-0.765625 -0.96875 -0.765625 -3.4375q0 -2.4375 0.84375 -3.5q0.703125 -0.875 1.953125 -0.875zm0 1.359375q-0.296875 0 -0.53125 0.203125q-0.234375 0.1875 -0.375 0.671875q-0.15625 0.640625 -0.15625 2.15625q0 1.515625 0.140625 2.078125q0.15625 0.5625 0.390625 0.75q0.234375 0.1875 0.53125 0.1875q0.296875 0 0.53125 -0.1875q0.234375 -0.1875 0.359375 -0.6875q0.171875 -0.625 0.171875 -2.140625q0 -1.515625 -0.15625 -2.078125q-0.140625 -0.5625 -0.375 -0.75q-0.234375 -0.203125 -0.53125 -0.203125zm6.673828 -1.359375q1.25 0 1.953125 0.890625q0.828125 1.046875 0.828125 3.5q0 2.4375 -0.84375 3.5q-0.6875 0.875 -1.9375 0.875q-1.25 0 -2.03125 -0.953125q-0.765625 -0.96875 -0.765625 -3.4375q0 -2.4375 0.84375 -3.5q0.703125 -0.875 1.953125 -0.875zm0 1.359375q-0.296875 0 -0.53125 0.203125q-0.234375 0.1875 -0.375 0.671875q-0.15625 0.640625 -0.15625 2.15625q0 1.515625 0.140625 2.078125q0.15625 0.5625 0.390625 0.75q0.234375 0.1875 0.53125 0.1875q0.296875 0 0.53125 -0.1875q0.234375 -0.1875 0.359375 -0.6875q0.171875 -0.625 0.171875 -2.140625q0 -1.515625 -0.15625 -2.078125q-0.140625 -0.5625 -0.375 -0.75q-0.234375 -0.203125 -0.53125 -0.203125zm7.4453125 1.046875l1.515625 0l0 0.84375q0.828125 -0.984375 1.953125 -0.984375q0.59375 0 1.03125 0.25q0.4375 0.234375 0.71875 0.734375q0.40625 -0.5 0.875 -0.734375q0.484375 -0.25 1.03125 -0.25q0.671875 0 1.140625 0.28125q0.484375 0.265625 0.71875 0.8125q0.171875 0.390625 0.171875 1.28125l0 3.984375l-1.640625 0l0 -3.5625q0 -0.921875 -0.171875 -1.1875q-0.234375 -0.359375 -0.703125 -0.359375q-0.34375 0 -0.65625 0.21875q-0.296875 0.203125 -0.4375 0.609375q-0.140625 0.40625 -0.140625 1.296875l0 2.984375l-1.640625 0l0 -3.40625q0 -0.90625 -0.09375 -1.171875q-0.078125 -0.265625 -0.265625 -0.390625q-0.1875 -0.140625 -0.5 -0.140625q-0.375 0 -0.6875 0.21875q-0.296875 0.203125 -0.4375 0.59375q-0.125 0.375 -0.125 1.265625l0 3.03125l-1.65625 0l0 -6.21875zm10.216797 4.4375l1.65625 -0.25q0.109375 0.484375 0.421875 0.734375q0.328125 0.25 0.90625 0.25q0.640625 0 0.953125 -0.234375q0.21875 -0.171875 0.21875 -0.4375q0 -0.1875 -0.109375 -0.3125q-0.125 -0.125 -0.546875 -0.21875q-2.0 -0.4375 -2.53125 -0.796875q-0.734375 -0.515625 -0.734375 -1.40625q0 -0.8125 0.625 -1.359375q0.640625 -0.546875 1.984375 -0.546875q1.28125 0 1.90625 0.421875q0.625 0.40625 0.859375 1.21875l-1.5625 0.28125q-0.09375 -0.359375 -0.375 -0.546875q-0.28125 -0.203125 -0.796875 -0.203125q-0.640625 0 -0.921875 0.1875q-0.1875 0.125 -0.1875 0.328125q0 0.1875 0.15625 0.3125q0.21875 0.15625 1.53125 0.453125q1.328125 0.296875 1.84375 0.734375q0.515625 0.4375 0.515625 1.21875q0 0.859375 -0.71875 1.484375q-0.703125 0.609375 -2.109375 0.609375q-1.265625 0 -2.015625 -0.515625q-0.734375 -0.515625 -0.96875 -1.40625z" fill-rule="nonzero"/><path fill="#000000" fill-opacity="0.0" d="m789.4668 5.5202436l49.57483 0l0 14.551181l-49.57483 0z" fill-rule="evenodd"/><path fill="#d9d9d9" d="m794.18555 17.040243l-1.640625 0l0 -6.203125q-0.90625 0.84375 -2.125 1.25l0 -1.5q0.640625 -0.203125 1.390625 -0.796875q0.765625 -0.59375 1.046875 -1.375l1.328125 0l0 8.625zm6.0117188 0l-1.640625 0l0 -6.203125q-0.90625 0.84375 -2.125 1.25l0 -1.5q0.640625 -0.203125 1.390625 -0.796875q0.765625 -0.59375 1.046875 -1.375l1.328125 0l0 8.625zm5.251953 -8.625q1.25 0 1.953125 0.890625q0.828125 1.046875 0.828125 3.5q0 2.4375 -0.84375 3.5q-0.6875 0.875 -1.9375 0.875q-1.25 0 -2.03125 -0.953125q-0.765625 -0.96875 -0.765625 -3.4375q0 -2.4375 0.84375 -3.5q0.703125 -0.875 1.953125 -0.875zm0 1.359375q-0.296875 0 -0.53125 0.203125q-0.234375 0.1875 -0.375 0.671875q-0.15625 0.640625 -0.15625 2.15625q0 1.515625 0.140625 2.078125q0.15625 0.5625 0.390625 0.75q0.234375 0.1875 0.53125 0.1875q0.296875 0 0.53125 -0.1875q0.234375 -0.1875 0.359375 -0.6875q0.171875 -0.625 0.171875 -2.140625q0 -1.515625 -0.15625 -2.078125q-0.140625 -0.5625 -0.375 -0.75q-0.234375 -0.203125 -0.53125 -0.203125zm7.4453125 1.046875l1.515625 0l0 0.84375q0.828125 -0.984375 1.953125 -0.984375q0.59375 0 1.03125 0.25q0.4375 0.234375 0.71875 0.734375q0.40625 -0.5 0.875 -0.734375q0.484375 -0.25 1.03125 -0.25q0.671875 0 1.140625 0.28125q0.484375 0.265625 0.71875 0.8125q0.171875 0.390625 0.171875 1.28125l0 3.984375l-1.640625 0l0 -3.5625q0 -0.921875 -0.171875 -1.1875q-0.234375 -0.359375 -0.703125 -0.359375q-0.34375 0 -0.65625 0.21875q-0.296875 0.203125 -0.4375 0.609375q-0.140625 0.40625 -0.140625 1.296875l0 2.984375l-1.640625 0l0 -3.40625q0 -0.90625 -0.09375 -1.171875q-0.078125 -0.265625 -0.265625 -0.390625q-0.1875 -0.140625 -0.5 -0.140625q-0.375 0 -0.6875 0.21875q-0.296875 0.203125 -0.4375 0.59375q-0.125 0.375 -0.125 1.265625l0 3.03125l-1.65625 0l0 -6.21875zm10.216797 4.4375l1.65625 -0.25q0.109375 0.484375 0.421875 0.734375q0.328125 0.25 0.90625 0.25q0.640625 0 0.953125 -0.234375q0.21875 -0.171875 0.21875 -0.4375q0 -0.1875 -0.109375 -0.3125q-0.125 -0.125 -0.546875 -0.21875q-2.0 -0.4375 -2.53125 -0.796875q-0.734375 -0.515625 -0.734375 -1.40625q0 -0.8125 0.625 -1.359375q0.640625 -0.546875 1.984375 -0.546875q1.28125 0 1.90625 0.421875q0.625 0.40625 0.859375 1.21875l-1.5625 0.28125q-0.09375 -0.359375 -0.375 -0.546875q-0.28125 -0.203125 -0.796875 -0.203125q-0.640625 0 -0.921875 0.1875q-0.1875 0.125 -0.1875 0.328125q0 0.1875 0.15625 0.3125q0.21875 0.15625 1.53125 0.453125q1.328125 0.296875 1.84375 0.734375q0.515625 0.4375 0.515625 1.21875q0 0.859375 -0.71875 1.484375q-0.703125 0.609375 -2.109375 0.609375q-1.265625 0 -2.015625 -0.515625q-0.734375 -0.515625 -0.96875 -1.40625z" fill-rule="nonzero"/><path fill="#000000" fill-opacity="0.0" d="m1.8981535 168.39468l14.393702 0l0 11.307083l-14.393702 0z" fill-rule="evenodd"/><path fill="#d9d9d9" d="m6.9647546 177.35469l0 -6.625l1.3437505 0l0 5.5l3.359374 0l0 1.125l-4.7031245 0z" fill-rule="nonzero"/><path fill="#000000" fill-opacity="0.0" d="m2.4627862 70.367615l14.393702 0l0 11.307091l-14.393702 0z" fill-rule="evenodd"/><path fill="#d9d9d9" d="m6.978896 79.327614l0 -6.671875l1.34375 0l0 2.625l2.640624 0l0 -2.625l1.34375 0l0 6.671875l-1.34375 0l0 -2.921875l-2.640624 0l0 2.921875l-1.34375 0z" fill-rule="nonzero"/><path fill="#000000" fill-opacity="0.0" d="m1.9448819 43.501312l853.16534 0" fill-rule="evenodd"/><path stroke="#666666" stroke-width="1.0" stroke-linejoin="round" stroke-linecap="butt" d="m1.9448819 43.501312l853.16534 0" fill-rule="evenodd"/></g></svg>