<svg version="1.1" viewBox="0.0 0.0 894.8110236220473 184.43307086614172" fill="none" stroke="none" stroke-linecap="square" stroke-miterlimit="10" xmlns:xlink="http://www.w3.org/1999/xlink" xmlns="http://www.w3.org/2000/svg"><clipPath id="p.0"><path d="m0 0l894.81104 0l0 184.43307l-894.81104 0l0 -184.43307z" clip-rule="nonzero"/></clipPath><g clip-path="url(#p.0)"><path fill="#000000" fill-opacity="0.0" d="m0 0l894.81104 0l0 184.43307l-894.81104 0z" fill-rule="evenodd"/><path fill="#1b1b1c" d="m0.5616798 -0.112860896l894.2362 0l0 183.74803l-894.2362 0z" fill-rule="evenodd"/><path stroke="#1b1b1c" stroke-width="1.0" stroke-linejoin="round" stroke-linecap="butt" d="m0.5616798 -0.112860896l894.2362 0l0 183.74803l-894.2362 0z" fill-rule="evenodd"/><path fill="#1b1b1c" d="m64.25398 108.187355l29.385826 0l0 38.77166l-29.385826 0z" fill-rule="evenodd"/><path fill="#d9d9d9" d="m74.26721 138.28069q-0.421875 0.5 -0.6875 0.640625q-0.25 0.140625 -0.625 0.140625q-0.734375 0 -1.1875 -0.484375q-0.4375 -0.5 -0.4375 -1.640625l0 -2.15625q0 -1.15625 0.4375 -1.640625q0.453125 -0.5 1.1875 -0.5q0.5625 0 0.9375 0.296875q0.390625 0.296875 0.59375 1.0q0.203125 0.6875 0.421875 0.9375q0.453125 0.484375 1.609375 0.984375q1.15625 0.5 2.53125 0.5q2.140625 0 3.515625 -1.0q0.875 -0.609375 0.875 -1.5q0 -0.59375 -0.421875 -1.109375q-0.421875 -0.53125 -1.375 -0.875q-0.625 -0.234375 -2.796875 -0.640625q-2.625 -0.484375 -3.96875 -1.171875q-1.34375 -0.6875 -2.125 -1.9375q-0.78125 -1.25 -0.78125 -2.703125q0 -2.296875 1.921875 -4.015625q1.921875 -1.734375 5.0 -1.734375q1.234375 0 2.28125 0.28125q1.0625 0.265625 1.921875 0.828125q0.625 -0.609375 1.25 -0.609375q0.703125 0 1.140625 0.5q0.453125 0.484375 0.453125 1.625l0 2.40625q0 1.15625 -0.453125 1.65625q-0.4375 0.484375 -1.140625 0.484375q-0.59375 0 -1.03125 -0.359375q-0.34375 -0.265625 -0.515625 -1.0625q-0.171875 -0.796875 -0.4375 -1.140625q-0.453125 -0.59375 -1.359375 -1.0q-0.90625 -0.40625 -2.09375 -0.40625q-1.734375 0 -2.75 0.8125q-1.0 0.796875 -1.0 1.671875q0 0.59375 0.40625 1.15625q0.421875 0.546875 1.21875 0.859375q0.53125 0.21875 2.984375 0.703125q2.46875 0.484375 3.78125 1.0625q1.328125 0.578125 2.203125 1.8125q0.875 1.234375 0.875 2.9375q0 2.375 -1.671875 3.796875q-2.21875 1.875 -5.65625 1.875q-1.328125 0 -2.59375 -0.328125q-1.25 -0.3125 -2.4375 -0.953125z" fill-rule="nonzero"/><path fill="#1b1b1c" d="m139.07 108.187355l29.385818 0l0 38.77166l-29.385818 0z" fill-rule="evenodd"/><path fill="#d9d9d9" d="m160.7551 127.20256l0 3.515625q0 3.125 -1.8125 5.984375q-1.796875 2.859375 -5.15625 2.859375q-1.9375 0 -3.28125 -0.84375q-1.328125 -0.859375 -2.53125 -3.140625q-1.1875 -2.296875 -1.1875 -4.859375l0 -3.515625q0 -3.109375 1.796875 -5.96875q1.796875 -2.875 5.15625 -2.875q1.921875 0 3.25 0.84375q1.34375 0.84375 2.546875 3.140625q1.21875 2.28125 1.21875 4.859375zm-3.21875 0q0 -2.609375 -1.453125 -4.5625q-0.828125 -1.078125 -2.328125 -1.078125q-1.453125 0 -2.375 1.1875q-1.390625 1.796875 -1.390625 4.453125l0 3.515625q0 2.625 1.46875 4.5625q0.8125 1.078125 2.328125 1.078125q1.4375 0 2.359375 -1.1875q1.390625 -1.796875 1.390625 -4.453125l0 -3.515625z" fill-rule="nonzero"/><path fill="#1b1b1c" d="m213.88602 108.187355l29.385834 0l0 38.77166l-29.385834 0z" fill-rule="evenodd"/><path fill="#d9d9d9" d="m235.57112 127.20256l0 3.515625q0 3.125 -1.8125 5.984375q-1.796875 2.859375 -5.15625 2.859375q-1.9375 0 -3.28125 -0.84375q-1.328125 -0.859375 -2.53125 -3.140625q-1.1875 -2.296875 -1.1875 -4.859375l0 -3.515625q0 -3.109375 1.796875 -5.96875q1.796875 -2.875 5.15625 -2.875q1.921875 0 3.25 0.84375q1.34375 0.84375 2.546875 3.140625q1.21875 2.28125 1.21875 4.859375zm-3.21875 0q0 -2.609375 -1.453125 -4.5625q-0.828125 -1.078125 -2.328125 -1.078125q-1.453125 0 -2.375 1.1875q-1.390625 1.796875 -1.390625 4.453125l0 3.515625q0 2.625 1.46875 4.5625q0.8125 1.078125 2.328125 1.078125q1.4375 0 2.359375 -1.1875q1.390625 -1.796875 1.390625 -4.453125l0 -3.515625z" fill-rule="nonzero"/><path fill="#1b1b1c" d="m288.70203 108.187355l29.385834 0l0 38.77166l-29.385834 0z" fill-rule="evenodd"/><path fill="#d9d9d9" d="m310.38715 127.20256l0 3.515625q0 3.125 -1.8125 5.984375q-1.796875 2.859375 -5.15625 2.859375q-1.9375 0 -3.28125 -0.84375q-1.328125 -0.859375 -2.53125 -3.140625q-1.1875 -2.296875 -1.1875 -4.859375l0 -3.515625q0 -3.109375 1.796875 -5.96875q1.796875 -2.875 5.15625 -2.875q1.921875 0 3.25 0.84375q1.34375 0.84375 2.546875 3.140625q1.21875 2.28125 1.21875 4.859375zm-3.21875 0q0 -2.609375 -1.453125 -4.5625q-0.828125 -1.078125 -2.328125 -1.078125q-1.453125 0 -2.375 1.1875q-1.390625 1.796875 -1.390625 4.453125l0 3.515625q0 2.625 1.46875 4.5625q0.8125 1.078125 2.328125 1.078125q1.4375 0 2.359375 -1.1875q1.390625 -1.796875 1.390625 -4.453125l0 -3.515625z" fill-rule="nonzero"/><path fill="#1b1b1c" d="m363.51807 108.187355l29.385803 0l0 38.77166l-29.385803 0z" fill-rule="evenodd"/><path fill="#d9d9d9" d="m385.20316 127.20256l0 3.515625q0 3.125 -1.8125 5.984375q-1.796875 2.859375 -5.15625 2.859375q-1.9375 0 -3.28125 -0.84375q-1.328125 -0.859375 -2.53125 -3.140625q-1.1875 -2.296875 -1.1875 -4.859375l0 -3.515625q0 -3.109375 1.796875 -5.96875q1.796875 -2.875 5.15625 -2.875q1.921875 0 3.25 0.84375q1.34375 0.84375 2.546875 3.140625q1.21875 2.28125 1.21875 4.859375zm-3.21875 0q0 -2.609375 -1.453125 -4.5625q-0.828125 -1.078125 -2.328125 -1.078125q-1.453125 0 -2.375 1.1875q-1.390625 1.796875 -1.390625 4.453125l0 3.515625q0 2.625 1.46875 4.5625q0.8125 1.078125 2.328125 1.078125q1.4375 0 2.359375 -1.1875q1.390625 -1.796875 1.390625 -4.453125l0 -3.515625z" fill-rule="nonzero"/><path fill="#1b1b1c" d="m438.33408 108.187355l29.385834 0l0 38.77166l-29.385834 0z" fill-rule="evenodd"/><path fill="#d9d9d9" d="m460.01917 127.20256l0 3.515625q0 3.125 -1.8125 5.984375q-1.796875 2.859375 -5.15625 2.859375q-1.9375 0 -3.28125 -0.84375q-1.328125 -0.859375 -2.53125 -3.140625q-1.1875 -2.296875 -1.1875 -4.859375l0 -3.515625q0 -3.109375 1.796875 -5.96875q1.796875 -2.875 5.15625 -2.875q1.921875 0 3.25 0.84375q1.34375 0.84375 2.546875 3.140625q1.21875 2.28125 1.21875 4.859375zm-3.21875 0q0 -2.609375 -1.453125 -4.5625q-0.828125 -1.078125 -2.328125 -1.078125q-1.453125 0 -2.375 1.1875q-1.390625 1.796875 -1.390625 4.453125l0 3.515625q0 2.625 1.46875 4.5625q0.8125 1.078125 2.328125 1.078125q1.4375 0 2.359375 -1.1875q1.390625 -1.796875 1.390625 -4.453125l0 -3.515625z" fill-rule="nonzero"/><path fill="#1b1b1c" d="m513.1501 108.187355l29.385864 0l0 38.77166l-29.385864 0z" fill-rule="evenodd"/><path fill="#d9d9d9" d="m534.8352 127.20256l0 3.515625q0 3.125 -1.8125 5.984375q-1.796875 2.859375 -5.15625 2.859375q-1.9375 0 -3.28125 -0.84375q-1.328125 -0.859375 -2.53125 -3.140625q-1.1875 -2.296875 -1.1875 -4.859375l0 -3.515625q0 -3.109375 1.796875 -5.96875q1.796875 -2.875 5.15625 -2.875q1.921875 0 3.25 0.84375q1.34375 0.84375 2.546875 3.140625q1.21875 2.28125 1.21875 4.859375zm-3.21875 0q0 -2.609375 -1.453125 -4.5625q-0.828125 -1.078125 -2.328125 -1.078125q-1.453125 0 -2.375 1.1875q-1.390625 1.796875 -1.390625 4.453125l0 3.515625q0 2.625 1.46875 4.5625q0.8125 1.078125 2.328125 1.078125q1.4375 0 2.359375 -1.1875q1.390625 -1.796875 1.390625 -4.453125l0 -3.515625z" fill-rule="nonzero"/><path fill="#1b1b1c" d="m587.9661 108.187355l29.385803 0l0 38.77166l-29.385803 0z" fill-rule="evenodd"/><path fill="#d9d9d9" d="m609.6512 127.20256l0 3.515625q0 3.125 -1.8125 5.984375q-1.796875 2.859375 -5.15625 2.859375q-1.9375 0 -3.28125 -0.84375q-1.328125 -0.859375 -2.53125 -3.140625q-1.1875 -2.296875 -1.1875 -4.859375l0 -3.515625q0 -3.109375 1.796875 -5.96875q1.796875 -2.875 5.15625 -2.875q1.921875 0 3.25 0.84375q1.34375 0.84375 2.546875 3.140625q1.21875 2.28125 1.21875 4.859375zm-3.21875 0q0 -2.609375 -1.453125 -4.5625q-0.828125 -1.078125 -2.328125 -1.078125q-1.453125 0 -2.375 1.1875q-1.390625 1.796875 -1.390625 4.453125l0 3.515625q0 2.625 1.46875 4.5625q0.8125 1.078125 2.328125 1.078125q1.4375 0 2.359375 -1.1875q1.390625 -1.796875 1.390625 -4.453125l0 -3.515625z" fill-rule="nonzero"/><path fill="#1b1b1c" d="m662.7821 108.187355l29.385864 0l0 38.77166l-29.385864 0z" fill-rule="evenodd"/><path fill="#d9d9d9" d="m684.4672 127.20256l0 3.515625q0 3.125 -1.8125 5.984375q-1.796875 2.859375 -5.15625 2.859375q-1.9375 0 -3.28125 -0.84375q-1.328125 -0.859375 -2.53125 -3.140625q-1.1875 -2.296875 -1.1875 -4.859375l0 -3.515625q0 -3.109375 1.796875 -5.96875q1.796875 -2.875 5.15625 -2.875q1.921875 0 3.25 0.84375q1.34375 0.84375 2.546875 3.140625q1.21875 2.28125 1.21875 4.859375zm-3.21875 0q0 -2.609375 -1.453125 -4.5625q-0.828125 -1.078125 -2.328125 -1.078125q-1.453125 0 -2.375 1.1875q-1.390625 1.796875 -1.390625 4.453125l0 3.515625q0 2.625 1.46875 4.5625q0.8125 1.078125 2.328125 1.078125q1.4375 0 2.359375 -1.1875q1.390625 -1.796875 1.390625 -4.453125l0 -3.515625z" fill-rule="nonzero"/><path fill="#1b1b1c" d="m737.59814 108.187355l29.385803 0l0 38.77166l-29.385803 0z" fill-rule="evenodd"/><path fill="#ff0000" d="m754.39264 129.43694l5.34375 6.453125q0.953125 0.015625 1.421875 0.46875q0.484375 0.4375 0.484375 1.140625q0 0.703125 -0.5 1.15625q-0.484375 0.4375 -1.640625 0.4375l-3.609375 0q-1.140625 0 -1.640625 -0.4375q-0.484375 -0.453125 -0.484375 -1.171875q0 -0.671875 0.453125 -1.109375q0.453125 -0.453125 1.359375 -0.484375l-3.21875 -3.96875l-3.25 3.96875q0.890625 0.03125 1.34375 0.484375q0.453125 0.453125 0.453125 1.125q0 0.703125 -0.5 1.15625q-0.484375 0.4375 -1.640625 0.4375l-3.59375 0q-1.15625 0 -1.65625 -0.4375q-0.484375 -0.453125 -0.484375 -1.171875q0 -0.6875 0.484375 -1.140625q0.484375 -0.453125 1.421875 -0.453125l5.3125 -6.484375l-5.0625 -6.046875q-0.9375 -0.03125 -1.40625 -0.46875q-0.453125 -0.453125 -0.453125 -1.140625q0 -0.71875 0.484375 -1.15625q0.5 -0.453125 1.65625 -0.453125l2.953125 0.015625q1.15625 0 1.640625 0.4375q0.5 0.4375 0.5 1.15625q0 0.53125 -0.3125 0.96875q-0.203125 0.265625 -0.90625 0.640625l2.984375 3.578125l2.921875 -3.578125q-0.703125 -0.375 -0.90625 -0.640625q-0.3125 -0.4375 -0.3125 -0.96875q0 -0.703125 0.484375 -1.15625q0.5 -0.453125 1.65625 -0.453125l2.9375 0.015625q1.15625 0 1.640625 0.4375q0.5 0.4375 0.5 1.15625q0 0.6875 -0.484375 1.140625q-0.46875 0.453125 -1.375 0.46875l-5.0 6.078125z" fill-rule="nonzero"/><path fill="#000000" fill-opacity="0.0" d="m41.884514 19.622047l0 164.47244" fill-rule="evenodd"/><path stroke="#666666" stroke-width="1.0" stroke-linejoin="round" stroke-linecap="butt" d="m41.884514 19.622047l0 164.47244" fill-rule="evenodd"/><path fill="#000000" fill-opacity="0.0" d="m116.51933 37.97638l0 146.11023" fill-rule="evenodd"/><path stroke="#666666" stroke-width="1.0" stroke-linejoin="round" stroke-linecap="butt" stroke-dasharray="4.0,3.0" d="m116.51933 37.97638l0 146.11023" fill-rule="evenodd"/><path fill="#000000" fill-opacity="0.0" d="m191.15332 37.97638l0 146.11023" fill-rule="evenodd"/><path stroke="#666666" stroke-width="1.0" stroke-linejoin="round" stroke-linecap="butt" stroke-dasharray="4.0,3.0" d="m191.15332 37.97638l0 146.11023" fill-rule="evenodd"/><path fill="#000000" fill-opacity="0.0" d="m265.78732 37.97638l0 146.11023" fill-rule="evenodd"/><path stroke="#666666" stroke-width="1.0" stroke-linejoin="round" stroke-linecap="butt" stroke-dasharray="4.0,3.0" d="m265.78732 37.97638l0 146.11023" fill-rule="evenodd"/><path fill="#000000" fill-opacity="0.0" d="m340.4213 37.97638l0 146.11023" fill-rule="evenodd"/><path stroke="#666666" stroke-width="1.0" stroke-linejoin="round" stroke-linecap="butt" stroke-dasharray="4.0,3.0" d="m340.4213 37.97638l0 146.11023" fill-rule="evenodd"/><path fill="#000000" fill-opacity="0.0" d="m415.0553 37.97638l0 146.11023" fill-rule="evenodd"/><path stroke="#666666" stroke-width="1.0" stroke-linejoin="round" stroke-linecap="butt" stroke-dasharray="4.0,3.0" d="m415.0553 37.97638l0 146.11023" fill-rule="evenodd"/><path fill="#000000" fill-opacity="0.0" d="m489.68927 37.97638l0 146.11023" fill-rule="evenodd"/><path stroke="#666666" stroke-width="1.0" stroke-linejoin="round" stroke-linecap="butt" stroke-dasharray="4.0,3.0" d="m489.68927 37.97638l0 146.11023" fill-rule="evenodd"/><path fill="#000000" fill-opacity="0.0" d="m564.3233 37.97638l0 146.11023" fill-rule="evenodd"/><path stroke="#666666" stroke-width="1.0" stroke-linejoin="round" stroke-linecap="butt" stroke-dasharray="4.0,3.0" d="m564.3233 37.97638l0 146.11023" fill-rule="evenodd"/><path fill="#000000" fill-opacity="0.0" d="m638.9573 37.97638l0 146.11023" fill-rule="evenodd"/><path stroke="#666666" stroke-width="1.0" stroke-linejoin="round" stroke-linecap="butt" stroke-dasharray="4.0,3.0" d="m638.9573 37.97638l0 146.11023" fill-rule="evenodd"/><path fill="#000000" fill-opacity="0.0" d="m713.59125 37.97638l0 146.11023" fill-rule="evenodd"/><path stroke="#666666" stroke-width="1.0" stroke-linejoin="round" stroke-linecap="butt" stroke-dasharray="4.0,3.0" d="m713.59125 37.97638l0 146.11023" fill-rule="evenodd"/><path fill="#000000" fill-opacity="0.0" d="m788.2257 19.622047l0 164.47244" fill-rule="evenodd"/><path stroke="#666666" stroke-width="1.0" stroke-linejoin="round" stroke-linecap="butt" d="m788.2257 19.622047l0 164.47244" fill-rule="evenodd"/><path fill="#000000" fill-opacity="0.0" d="m0.43832022 76.062996l41.56168 0l0 97.99999l833.937 0l0 -98.06299l17.750671 0" fill-rule="evenodd"/><path stroke="#f6b26b" stroke-width="3.0" stroke-linejoin="round" stroke-linecap="butt" d="m0.43832022 76.062996l41.56168 0l0 97.99999l833.937 0l0 -98.06299l17.750671 0" fill-rule="evenodd"/><path fill="#e06666" d="m40.76378 48.175854l750.45667 0l0 18.26772l-750.45667 0z" fill-rule="evenodd"/><path stroke="#e06666" stroke-width="1.0" stroke-linejoin="round" stroke-linecap="butt" d="m40.76378 48.175854l750.45667 0l0 18.26772l-750.45667 0z" fill-rule="evenodd"/><path fill="#1b1b1c" d="m375.93185 62.389713l0 -10.484375l7.1875 0l0 1.765625l-5.0625 0l0 2.484375l4.375 0l0 1.78125l-4.375 0l0 4.453125l-2.125 0zm10.858856 0l-2.015625 0l0 -7.59375l1.859375 0l0 1.078125q0.484375 -0.765625 0.859375 -1.0q0.390625 -0.25 0.875 -0.25q0.6875 0 1.328125 0.375l-0.625 1.75q-0.5 -0.328125 -0.9375 -0.328125q-0.421875 0 -0.71875 0.234375q-0.296875 0.234375 -0.46875 0.84375q-0.15625 0.609375 -0.15625 2.546875l0 2.34375zm5.281769 -5.28125l-1.828125 -0.328125q0.296875 -1.109375 1.046875 -1.625q0.765625 -0.53125 2.234375 -0.53125q1.359375 0 2.015625 0.3125q0.65625 0.3125 0.921875 0.8125q0.265625 0.484375 0.265625 1.796875l-0.015625 2.34375q0 1.0 0.09375 1.484375q0.09375 0.46875 0.359375 1.015625l-1.984375 0q-0.078125 -0.203125 -0.203125 -0.59375q-0.046875 -0.171875 -0.0625 -0.234375q-0.515625 0.5 -1.109375 0.75q-0.578125 0.25 -1.25 0.25q-1.171875 0 -1.859375 -0.640625q-0.671875 -0.640625 -0.671875 -1.609375q0 -0.640625 0.3125 -1.140625q0.3125 -0.515625 0.859375 -0.78125q0.5625 -0.265625 1.609375 -0.46875q1.40625 -0.265625 1.953125 -0.484375l0 -0.203125q0 -0.578125 -0.296875 -0.828125q-0.28125 -0.25 -1.078125 -0.25q-0.53125 0 -0.84375 0.21875q-0.296875 0.203125 -0.46875 0.734375zm2.6875 1.625q-0.390625 0.140625 -1.234375 0.328125q-0.828125 0.171875 -1.09375 0.34375q-0.390625 0.265625 -0.390625 0.703125q0 0.421875 0.3125 0.734375q0.3125 0.296875 0.8125 0.296875q0.53125 0 1.03125 -0.359375q0.359375 -0.265625 0.484375 -0.65625q0.078125 -0.265625 0.078125 -0.984375l0 -0.40625zm3.8073425 -3.9375l1.84375 0l0 1.03125q1.0 -1.203125 2.375 -1.203125q0.734375 0 1.265625 0.296875q0.53125 0.296875 0.875 0.90625q0.5 -0.609375 1.078125 -0.90625q0.59375 -0.296875 1.25 -0.296875q0.828125 0 1.40625 0.34375q0.59375 0.328125 0.875 0.984375q0.203125 0.484375 0.203125 1.578125l0 4.859375l-2.015625 0l0 -4.34375q0 -1.125 -0.203125 -1.453125q-0.28125 -0.4375 -0.859375 -0.4375q-0.421875 0 -0.796875 0.265625q-0.359375 0.25 -0.53125 0.75q-0.171875 0.5 -0.171875 1.5625l0 3.65625l-2.0 0l0 -4.171875q0 -1.109375 -0.109375 -1.421875q-0.109375 -0.328125 -0.34375 -0.484375q-0.21875 -0.15625 -0.609375 -0.15625q-0.453125 0 -0.828125 0.25q-0.375 0.25 -0.546875 0.734375q-0.15625 0.46875 -0.15625 1.5625l0 3.6875l-2.0 0l0 -7.59375zm17.578644 5.171875l2.0 0.34375q-0.375 1.09375 -1.21875 1.671875q-0.828125 0.578125 -2.078125 0.578125q-1.984375 0 -2.9375 -1.296875q-0.75 -1.03125 -0.75 -2.625q0 -1.875 0.984375 -2.9375q0.984375 -1.078125 2.5 -1.078125q1.6875 0 2.671875 1.125q0.984375 1.109375 0.9375 3.421875l-5.03125 0q0.015625 0.890625 0.484375 1.390625q0.46875 0.5 1.15625 0.5q0.46875 0 0.78125 -0.25q0.328125 -0.265625 0.5 -0.84375zm0.109375 -2.03125q-0.015625 -0.875 -0.453125 -1.328125q-0.421875 -0.453125 -1.03125 -0.453125q-0.671875 0 -1.09375 0.484375q-0.421875 0.46875 -0.421875 1.296875l3.0 0zm12.1137085 2.03125l2.0 0.34375q-0.375 1.09375 -1.21875 1.671875q-0.828125 0.578125 -2.078125 0.578125q-1.984375 0 -2.9375 -1.296875q-0.75 -1.03125 -0.75 -2.625q0 -1.875 0.984375 -2.9375q0.984375 -1.078125 2.5 -1.078125q1.6875 0 2.671875 1.125q0.984375 1.109375 0.9375 3.421875l-5.03125 0q0.015625 0.890625 0.484375 1.390625q0.46875 0.5 1.15625 0.5q0.46875 0 0.78125 -0.25q0.328125 -0.265625 0.5 -0.84375zm0.109375 -2.03125q-0.015625 -0.875 -0.453125 -1.328125q-0.421875 -0.453125 -1.03125 -0.453125q-0.671875 0 -1.09375 0.484375q-0.421875 0.46875 -0.421875 1.296875l3.0 0zm5.5729675 4.453125l-2.015625 0l0 -7.59375l1.859375 0l0 1.078125q0.484375 -0.765625 0.859375 -1.0q0.390625 -0.25 0.875 -0.25q0.6875 0 1.328125 0.375l-0.625 1.75q-0.5 -0.328125 -0.9375 -0.328125q-0.421875 0 -0.71875 0.234375q-0.296875 0.234375 -0.46875 0.84375q-0.15625 0.609375 -0.15625 2.546875l0 2.34375zm5.703644 0l-2.015625 0l0 -7.59375l1.859375 0l0 1.078125q0.484375 -0.765625 0.859375 -1.0q0.390625 -0.25 0.875 -0.25q0.6875 0 1.328125 0.375l-0.625 1.75q-0.5 -0.328125 -0.9375 -0.328125q-0.421875 0 -0.71875 0.234375q-0.296875 0.234375 -0.46875 0.84375q-0.15625 0.609375 -0.15625 2.546875l0 2.34375zm3.3130188 -3.90625q0 -1.0 0.484375 -1.9375q0.5 -0.9375 1.40625 -1.421875q0.90625 -0.5 2.015625 -0.5q1.71875 0 2.828125 1.125q1.109375 1.109375 1.109375 2.8125q0 1.734375 -1.125 2.875q-1.109375 1.125 -2.796875 1.125q-1.046875 0 -2.0 -0.46875q-0.9375 -0.46875 -1.4375 -1.375q-0.484375 -0.921875 -0.484375 -2.234375zm2.046875 0.109375q0 1.125 0.53125 1.734375q0.546875 0.59375 1.34375 0.59375q0.78125 0 1.3125 -0.59375q0.53125 -0.609375 0.53125 -1.75q0 -1.125 -0.53125 -1.71875q-0.53125 -0.609375 -1.3125 -0.609375q-0.796875 0 -1.34375 0.609375q-0.53125 0.59375 -0.53125 1.734375zm9.296356 3.796875l-2.015625 0l0 -7.59375l1.859375 0l0 1.078125q0.484375 -0.765625 0.859375 -1.0q0.390625 -0.25 0.875 -0.25q0.6875 0 1.328125 0.375l-0.625 1.75q-0.5 -0.328125 -0.9375 -0.328125q-0.421875 0 -0.71875 0.234375q-0.296875 0.234375 -0.46875 0.84375q-0.15625 0.609375 -0.15625 2.546875l0 2.34375z" fill-rule="nonzero"/><defs><linearGradient id="p.1" gradientUnits="userSpaceOnUse" gradientTransform="matrix(4.093437870081253 0.0 0.0 4.093437870081253 0.0 0.0)" spreadMethod="pad" x1="218.67893210004326" y1="16.79594136067765" x2="214.58549423006335" y2="16.79591255721526"><stop offset="0.0" stop-color="#1b1b1c"/><stop offset="0.99999994" stop-color="#1b1b1c" stop-opacity="0.0"/><stop offset="1.0" stop-color="#ffffff" stop-opacity="0.0"/></linearGradient></defs><path fill="url(#p.1)" d="m878.3925 68.75328l0 0c0 -7.6293945E-5 6.1035156E-5 -1.373291E-4 1.2207031E-4 -1.373291E-4l16.755737 1.373291E-4c6.1035156E-5 0 1.2207031E-4 1.5258789E-5 1.2207031E-4 3.8146973E-5c6.1035156E-5 3.0517578E-5 6.1035156E-5 6.1035156E-5 6.1035156E-5 9.918213E-5l-1.8310547E-4 12.913246c0 7.6293945E-5 -6.1035156E-5 1.449585E-4 -1.2207031E-4 1.449585E-4l-16.755737 -1.449585E-4l0 0c-1.2207031E-4 0 -1.8310547E-4 -6.1035156E-5 -1.8310547E-4 -1.373291E-4z" fill-rule="evenodd"/><defs><linearGradient id="p.2" gradientUnits="userSpaceOnUse" gradientTransform="matrix(-5.7753769556875065 0.0 0.0 -5.7753769556875065 0.0 0.0)" spreadMethod="pad" x1="0.005063364900511353" y1="-14.14053907028673" x2="-5.770313590636322" y2="-14.14058078820084"><stop offset="0.0" stop-color="#1b1b1c"/><stop offset="0.99999994" stop-color="#1b1b1c" stop-opacity="0.0"/><stop offset="1.0" stop-color="#ffffff" stop-opacity="0.0"/></linearGradient></defs><path fill="url(#p.2)" d="m33.32546 81.666664l0 0c0 1.5258789E-4 -1.2207031E-4 2.822876E-4 -2.784729E-4 2.822876E-4l-33.35405 -2.822876E-4c-7.371791E-5 0 -1.4441647E-4 -3.0517578E-5 -1.9654259E-4 -7.6293945E-5c-5.2126125E-5 -5.340576E-5 -8.141063E-5 -1.2207031E-4 -8.141063E-5 -1.9836426E-4l2.7795322E-4 -12.913109c0 -1.5258789E-4 1.2444332E-4 -2.746582E-4 2.7795322E-4 -2.746582E-4l33.354053 2.746582E-4l0 0c1.5258789E-4 0 2.784729E-4 1.2207031E-4 2.784729E-4 2.746582E-4z" fill-rule="evenodd"/><path fill="#000000" fill-opacity="0.0" d="m113.703384 24.208416l49.5748 0l0 14.551182l-49.5748 0z" fill-rule="evenodd"/><path fill="#d9d9d9" d="m116.453384 34.49404l0 -2.234375l-2.25 0l0 -1.5468769l2.25 0l0 -2.234375l1.5 0l0 2.234375l2.25 0l0 1.5468769l-2.25 0l0 2.234375l-1.5 0zm8.9765625 1.234375l-1.640625 0l0 -6.203127q-0.90625 0.84375 -2.125 1.25l0 -1.5q0.640625 -0.203125 1.390625 -0.796875q0.765625 -0.59375 1.046875 -1.375l1.328125 0l0 8.625002zm6.0234375 -6.218752l1.515625 0l0 0.84375q0.828125 -0.984375 1.953125 -0.984375q0.59375 0 1.03125 0.25q0.4375 0.234375 0.71875 0.734375q0.40625 -0.5 0.875 -0.734375q0.484375 -0.25 1.03125 -0.25q0.671875 0 1.140625 0.28125q0.484375 0.265625 0.71875 0.8125q0.171875 0.390625 0.171875 1.28125l0 3.984377l-1.640625 0l0 -3.5625q0 -0.9218769 -0.171875 -1.1875019q-0.234375 -0.359375 -0.703125 -0.359375q-0.34375 0 -0.65625 0.21875q-0.296875 0.203125 -0.4375 0.609375q-0.140625 0.40625 -0.140625 1.2968769l0 2.984375l-1.640625 0l0 -3.40625q0 -0.9062519 -0.09375 -1.1718769q-0.078125 -0.265625 -0.265625 -0.390625q-0.1875 -0.140625 -0.5 -0.140625q-0.375 0 -0.6875 0.21875q-0.296875 0.203125 -0.4375 0.59375q-0.125 0.375 -0.125 1.2656269l0 3.03125l-1.65625 0l0 -6.218752zm10.216797 4.437502l1.65625 -0.25q0.109375 0.484375 0.421875 0.734375q0.328125 0.25 0.90625 0.25q0.640625 0 0.953125 -0.234375q0.21875 -0.171875 0.21875 -0.4375q0 -0.1875 -0.109375 -0.3125q-0.125 -0.125 -0.546875 -0.21875q-2.0 -0.4375 -2.53125 -0.796875q-0.734375 -0.515625 -0.734375 -1.4062519q0 -0.8125 0.625 -1.359375q0.640625 -0.546875 1.984375 -0.546875q1.28125 0 1.90625 0.421875q0.625 0.40625 0.859375 1.21875l-1.5625 0.28125q-0.09375 -0.359375 -0.375 -0.546875q-0.28125 -0.203125 -0.796875 -0.203125q-0.640625 0 -0.921875 0.1875q-0.1875 0.125 -0.1875 0.328125q0 0.1875 0.15625 0.3125q0.21875 0.15625 1.53125 0.453125q1.328125 0.2968769 1.84375 0.7343769q0.515625 0.4375 0.515625 1.21875q0 0.859375 -0.71875 1.484375q-0.703125 0.609375 -2.109375 0.609375q-1.265625 0 -2.015625 -0.515625q-0.734375 -0.515625 -0.96875 -1.40625z" fill-rule="nonzero"/><path fill="#000000" fill-opacity="0.0" d="m188.32074 24.208416l49.5748 0l0 14.551182l-49.5748 0z" fill-rule="evenodd"/><path fill="#d9d9d9" d="m191.07074 34.49404l0 -2.234375l-2.25 0l0 -1.5468769l2.25 0l0 -2.234375l1.5 0l0 2.234375l2.25 0l0 1.5468769l-2.25 0l0 2.234375l-1.5 0zm10.3359375 -0.296875l0 1.53125l-5.78125 0q0.09375 -0.875 0.5625 -1.640625q0.46875 -0.78125 1.859375 -2.0625q1.109375 -1.0312519 1.359375 -1.4062519q0.34375 -0.515625 0.34375 -1.015625q0 -0.546875 -0.296875 -0.84375q-0.296875 -0.296875 -0.8125 -0.296875q-0.515625 0 -0.828125 0.3125q-0.296875 0.3125 -0.34375 1.03125l-1.640625 -0.15625q0.140625 -1.359375 0.90625 -1.953125q0.78125 -0.59375 1.9375 -0.59375q1.28125 0 2.0 0.6875q0.734375 0.6875 0.734375 1.703125q0 0.578125 -0.21875 1.109375q-0.203125 0.515625 -0.65625 1.09375q-0.296875 0.3750019 -1.078125 1.0937519q-0.78125 0.71875 -0.984375 0.953125q-0.203125 0.234375 -0.34375 0.453125l3.28125 0zm4.6640625 -4.687502l1.515625 0l0 0.84375q0.828125 -0.984375 1.953125 -0.984375q0.59375 0 1.03125 0.25q0.4375 0.234375 0.71875 0.734375q0.40625 -0.5 0.875 -0.734375q0.484375 -0.25 1.03125 -0.25q0.671875 0 1.140625 0.28125q0.484375 0.265625 0.71875 0.8125q0.171875 0.390625 0.171875 1.28125l0 3.984377l-1.640625 0l0 -3.5625q0 -0.9218769 -0.171875 -1.1875019q-0.234375 -0.359375 -0.703125 -0.359375q-0.34375 0 -0.65625 0.21875q-0.296875 0.203125 -0.4375 0.609375q-0.140625 0.40625 -0.140625 1.2968769l0 2.984375l-1.640625 0l0 -3.40625q0 -0.9062519 -0.09375 -1.1718769q-0.078125 -0.265625 -0.265625 -0.390625q-0.1875 -0.140625 -0.5 -0.140625q-0.375 0 -0.6875 0.21875q-0.296875 0.203125 -0.4375 0.59375q-0.125 0.375 -0.125 1.2656269l0 3.03125l-1.65625 0l0 -6.218752zm10.216797 4.437502l1.65625 -0.25q0.109375 0.484375 0.421875 0.734375q0.328125 0.25 0.90625 0.25q0.640625 0 0.953125 -0.234375q0.21875 -0.171875 0.21875 -0.4375q0 -0.1875 -0.109375 -0.3125q-0.125 -0.125 -0.546875 -0.21875q-2.0 -0.4375 -2.53125 -0.796875q-0.734375 -0.515625 -0.734375 -1.4062519q0 -0.8125 0.625 -1.359375q0.640625 -0.546875 1.984375 -0.546875q1.28125 0 1.90625 0.421875q0.625 0.40625 0.859375 1.21875l-1.5625 0.28125q-0.09375 -0.359375 -0.375 -0.546875q-0.28125 -0.203125 -0.796875 -0.203125q-0.640625 0 -0.921875 0.1875q-0.1875 0.125 -0.1875 0.328125q0 0.1875 0.15625 0.3125q0.21875 0.15625 1.53125 0.453125q1.328125 0.2968769 1.84375 0.7343769q0.515625 0.4375 0.515625 1.21875q0 0.859375 -0.71875 1.484375q-0.703125 0.609375 -2.109375 0.609375q-1.265625 0 -2.015625 -0.515625q-0.734375 -0.515625 -0.96875 -1.40625z" fill-rule="nonzero"/><path fill="#000000" fill-opacity="0.0" d="m262.93808 24.208416l49.57483 0l0 14.551182l-49.57483 0z" fill-rule="evenodd"/><path fill="#d9d9d9" d="m265.68808 34.49404l0 -2.234375l-2.25 0l0 -1.5468769l2.25 0l0 -2.234375l1.5 0l0 2.234375l2.25 0l0 1.5468769l-2.25 0l0 2.234375l-1.5 0zm4.7109375 -1.046875l1.59375 -0.1875q0.078125 0.609375 0.40625 0.9375q0.34375 0.3125 0.8125 0.3125q0.515625 0 0.859375 -0.390625q0.34375 -0.390625 0.34375 -1.046875q0 -0.609375 -0.34375 -0.96875q-0.328125 -0.3750019 -0.796875 -0.3750019q-0.328125 0 -0.765625 0.125l0.1875 -1.34375q0.671875 0.015625 1.015625 -0.28125q0.359375 -0.3125 0.359375 -0.828125q0 -0.421875 -0.265625 -0.671875q-0.25 -0.265625 -0.6875 -0.265625q-0.421875 0 -0.71875 0.296875q-0.296875 0.28125 -0.359375 0.84375l-1.515625 -0.25q0.15625 -0.78125 0.46875 -1.25q0.328125 -0.46875 0.890625 -0.734375q0.578125 -0.265625 1.28125 -0.265625q1.21875 0 1.953125 0.765625q0.59375 0.640625 0.59375 1.4375q0 1.125 -1.234375 1.796875q0.75 0.171875 1.1875 0.71875q0.4375 0.5468769 0.4375 1.3281269q0 1.125 -0.828125 1.921875q-0.828125 0.796875 -2.046875 0.796875q-1.171875 0 -1.9375 -0.671875q-0.765625 -0.671875 -0.890625 -1.75zm10.2890625 -3.937502l1.515625 0l0 0.84375q0.828125 -0.984375 1.953125 -0.984375q0.59375 0 1.03125 0.25q0.4375 0.234375 0.71875 0.734375q0.40625 -0.5 0.875 -0.734375q0.484375 -0.25 1.03125 -0.25q0.671875 0 1.140625 0.28125q0.484375 0.265625 0.71875 0.8125q0.171875 0.390625 0.171875 1.28125l0 3.984377l-1.640625 0l0 -3.5625q0 -0.9218769 -0.171875 -1.1875019q-0.234375 -0.359375 -0.703125 -0.359375q-0.34375 0 -0.65625 0.21875q-0.296875 0.203125 -0.4375 0.609375q-0.140625 0.40625 -0.140625 1.2968769l0 2.984375l-1.640625 0l0 -3.40625q0 -0.9062519 -0.09375 -1.1718769q-0.078125 -0.265625 -0.265625 -0.390625q-0.1875 -0.140625 -0.5 -0.140625q-0.375 0 -0.6875 0.21875q-0.296875 0.203125 -0.4375 0.59375q-0.125 0.375 -0.125 1.2656269l0 3.03125l-1.65625 0l0 -6.218752zm10.216797 4.437502l1.65625 -0.25q0.109375 0.484375 0.421875 0.734375q0.328125 0.25 0.90625 0.25q0.640625 0 0.953125 -0.234375q0.21875 -0.171875 0.21875 -0.4375q0 -0.1875 -0.109375 -0.3125q-0.125 -0.125 -0.546875 -0.21875q-2.0 -0.4375 -2.53125 -0.796875q-0.734375 -0.515625 -0.734375 -1.4062519q0 -0.8125 0.625 -1.359375q0.640625 -0.546875 1.984375 -0.546875q1.28125 0 1.90625 0.421875q0.625 0.40625 0.859375 1.21875l-1.5625 0.28125q-0.09375 -0.359375 -0.375 -0.546875q-0.28125 -0.203125 -0.796875 -0.203125q-0.640625 0 -0.921875 0.1875q-0.1875 0.125 -0.1875 0.328125q0 0.1875 0.15625 0.3125q0.21875 0.15625 1.53125 0.453125q1.328125 0.2968769 1.84375 0.7343769q0.515625 0.4375 0.515625 1.21875q0 0.859375 -0.71875 1.484375q-0.703125 0.609375 -2.109375 0.609375q-1.265625 0 -2.015625 -0.515625q-0.734375 -0.515625 -0.96875 -1.40625z" fill-rule="nonzero"/><path fill="#000000" fill-opacity="0.0" d="m337.55545 24.208416l49.5748 0l0 14.551182l-49.5748 0z" fill-rule="evenodd"/><path fill="#d9d9d9" d="m340.30545 34.49404l0 -2.234375l-2.25 0l0 -1.5468769l2.25 0l0 -2.234375l1.5 0l0 2.234375l2.25 0l0 1.5468769l-2.25 0l0 2.234375l-1.5 0zm7.9921875 1.234375l0 -1.734375l-3.515625 0l0 -1.4375l3.734375 -5.453127l1.375 0l0 5.453127l1.078125 0l0 1.4375l-1.078125 0l0 1.734375l-1.59375 0zm0 -3.171875l0 -2.937502l-1.96875 2.937502l1.96875 0zm7.0078125 -3.046877l1.515625 0l0 0.84375q0.828125 -0.984375 1.953125 -0.984375q0.59375 0 1.03125 0.25q0.4375 0.234375 0.71875 0.734375q0.40625 -0.5 0.875 -0.734375q0.484375 -0.25 1.03125 -0.25q0.671875 0 1.140625 0.28125q0.484375 0.265625 0.71875 0.8125q0.171875 0.390625 0.171875 1.28125l0 3.984377l-1.640625 0l0 -3.5625q0 -0.9218769 -0.171875 -1.1875019q-0.234375 -0.359375 -0.703125 -0.359375q-0.34375 0 -0.65625 0.21875q-0.296875 0.203125 -0.4375 0.609375q-0.140625 0.40625 -0.140625 1.2968769l0 2.984375l-1.640625 0l0 -3.40625q0 -0.9062519 -0.09375 -1.1718769q-0.078125 -0.265625 -0.265625 -0.390625q-0.1875 -0.140625 -0.5 -0.140625q-0.375 0 -0.6875 0.21875q-0.296875 0.203125 -0.4375 0.59375q-0.125 0.375 -0.125 1.2656269l0 3.03125l-1.65625 0l0 -6.218752zm10.216797 4.437502l1.65625 -0.25q0.109375 0.484375 0.421875 0.734375q0.328125 0.25 0.90625 0.25q0.640625 0 0.953125 -0.234375q0.21875 -0.171875 0.21875 -0.4375q0 -0.1875 -0.109375 -0.3125q-0.125 -0.125 -0.546875 -0.21875q-2.0 -0.4375 -2.53125 -0.796875q-0.734375 -0.515625 -0.734375 -1.4062519q0 -0.8125 0.625 -1.359375q0.640625 -0.546875 1.984375 -0.546875q1.28125 0 1.90625 0.421875q0.625 0.40625 0.859375 1.21875l-1.5625 0.28125q-0.09375 -0.359375 -0.375 -0.546875q-0.28125 -0.203125 -0.796875 -0.203125q-0.640625 0 -0.921875 0.1875q-0.1875 0.125 -0.1875 0.328125q0 0.1875 0.15625 0.3125q0.21875 0.15625 1.53125 0.453125q1.328125 0.2968769 1.84375 0.7343769q0.515625 0.4375 0.515625 1.21875q0 0.859375 -0.71875 1.484375q-0.703125 0.609375 -2.109375 0.609375q-1.265625 0 -2.015625 -0.515625q-0.734375 -0.515625 -0.96875 -1.40625z" fill-rule="nonzero"/><path fill="#000000" fill-opacity="0.0" d="m412.1728 24.208416l49.57483 0l0 14.551182l-49.57483 0z" fill-rule="evenodd"/><path fill="#d9d9d9" d="m414.9228 34.49404l0 -2.234375l-2.25 0l0 -1.5468769l2.25 0l0 -2.234375l1.5 0l0 2.234375l2.25 0l0 1.5468769l-2.25 0l0 2.234375l-1.5 0zm4.7890625 -0.96875l1.640625 -0.171875q0.078125 0.546875 0.421875 0.875q0.34375 0.328125 0.796875 0.328125q0.515625 0 0.875 -0.421875q0.359375 -0.421875 0.359375 -1.265625q0 -0.78125 -0.359375 -1.1718769q-0.359375 -0.40625 -0.921875 -0.40625q-0.71875 0 -1.28125 0.625l-1.328125 -0.1875l0.84375 -4.46875l4.359375 0l0 1.53125l-3.109375 0l-0.265625 1.46875q0.5625 -0.28125 1.125 -0.28125q1.09375 0 1.859375 0.796875q0.765625 0.796875 0.765625 2.062502q0 1.0625 -0.609375 1.90625q-0.84375 1.125 -2.328125 1.125q-1.1875 0 -1.9375 -0.625q-0.75 -0.640625 -0.90625 -1.71875zm10.2109375 -4.015627l1.515625 0l0 0.84375q0.828125 -0.984375 1.953125 -0.984375q0.59375 0 1.03125 0.25q0.4375 0.234375 0.71875 0.734375q0.40625 -0.5 0.875 -0.734375q0.484375 -0.25 1.03125 -0.25q0.671875 0 1.140625 0.28125q0.484375 0.265625 0.71875 0.8125q0.171875 0.390625 0.171875 1.28125l0 3.984377l-1.640625 0l0 -3.5625q0 -0.9218769 -0.171875 -1.1875019q-0.234375 -0.359375 -0.703125 -0.359375q-0.34375 0 -0.65625 0.21875q-0.296875 0.203125 -0.4375 0.609375q-0.140625 0.40625 -0.140625 1.2968769l0 2.984375l-1.640625 0l0 -3.40625q0 -0.9062519 -0.09375 -1.1718769q-0.078125 -0.265625 -0.265625 -0.390625q-0.1875 -0.140625 -0.5 -0.140625q-0.375 0 -0.6875 0.21875q-0.296875 0.203125 -0.4375 0.59375q-0.125 0.375 -0.125 1.2656269l0 3.03125l-1.65625 0l0 -6.218752zm10.216797 4.437502l1.65625 -0.25q0.109375 0.484375 0.421875 0.734375q0.328125 0.25 0.90625 0.25q0.640625 0 0.953125 -0.234375q0.21875 -0.171875 0.21875 -0.4375q0 -0.1875 -0.109375 -0.3125q-0.125 -0.125 -0.546875 -0.21875q-2.0 -0.4375 -2.53125 -0.796875q-0.734375 -0.515625 -0.734375 -1.4062519q0 -0.8125 0.625 -1.359375q0.640625 -0.546875 1.984375 -0.546875q1.28125 0 1.90625 0.421875q0.625 0.40625 0.859375 1.21875l-1.5625 0.28125q-0.09375 -0.359375 -0.375 -0.546875q-0.28125 -0.203125 -0.796875 -0.203125q-0.640625 0 -0.921875 0.1875q-0.1875 0.125 -0.1875 0.328125q0 0.1875 0.15625 0.3125q0.21875 0.15625 1.53125 0.453125q1.328125 0.2968769 1.84375 0.7343769q0.515625 0.4375 0.515625 1.21875q0 0.859375 -0.71875 1.484375q-0.703125 0.609375 -2.109375 0.609375q-1.265625 0 -2.015625 -0.515625q-0.734375 -0.515625 -0.96875 -1.40625z" fill-rule="nonzero"/><path fill="#000000" fill-opacity="0.0" d="m486.79016 24.208416l49.574768 0l0 14.551182l-49.574768 0z" fill-rule="evenodd"/><path fill="#d9d9d9" d="m489.54016 34.49404l0 -2.234375l-2.25 0l0 -1.5468769l2.25 0l0 -2.234375l1.5 0l0 2.234375l2.25 0l0 1.5468769l-2.25 0l0 2.234375l-1.5 0zm10.3515625 -5.250002l-1.59375 0.171875q-0.0625 -0.484375 -0.3125 -0.71875q-0.25 -0.234375 -0.640625 -0.234375q-0.515625 0 -0.875 0.46875q-0.359375 0.46875 -0.453125 1.9375q0.609375 -0.71875 1.53125 -0.71875q1.03125 0 1.765625 0.78125q0.734375 0.78125 0.734375 2.031252q0 1.3125 -0.78125 2.109375q-0.765625 0.796875 -1.984375 0.796875q-1.296875 0 -2.140625 -1.0q-0.828125 -1.015625 -0.828125 -3.312502q0 -2.375 0.859375 -3.40625q0.875 -1.046875 2.28125 -1.046875q0.96875 0 1.609375 0.546875q0.640625 0.546875 0.828125 1.59375zm-3.734375 3.593752q0 0.796875 0.359375 1.234375q0.375 0.4375 0.84375 0.4375q0.46875 0 0.765625 -0.359375q0.3125 -0.359375 0.3125 -1.171875q0 -0.84375 -0.328125 -1.2187519q-0.328125 -0.390625 -0.828125 -0.390625q-0.46875 0 -0.796875 0.375q-0.328125 0.3593769 -0.328125 1.0937519zm8.3828125 -3.328127l1.515625 0l0 0.84375q0.828125 -0.984375 1.953125 -0.984375q0.59375 0 1.03125 0.25q0.4375 0.234375 0.71875 0.734375q0.40625 -0.5 0.875 -0.734375q0.484375 -0.25 1.03125 -0.25q0.671875 0 1.140625 0.28125q0.484375 0.265625 0.71875 0.8125q0.171875 0.390625 0.171875 1.28125l0 3.984377l-1.640625 0l0 -3.5625q0 -0.9218769 -0.171875 -1.1875019q-0.234375 -0.359375 -0.703125 -0.359375q-0.34375 0 -0.65625 0.21875q-0.296875 0.203125 -0.4375 0.609375q-0.140625 0.40625 -0.140625 1.2968769l0 2.984375l-1.640625 0l0 -3.40625q0 -0.9062519 -0.09375 -1.1718769q-0.078125 -0.265625 -0.265625 -0.390625q-0.1875 -0.140625 -0.5 -0.140625q-0.375 0 -0.6875 0.21875q-0.296875 0.203125 -0.4375 0.59375q-0.125 0.375 -0.125 1.2656269l0 3.03125l-1.65625 0l0 -6.218752zm10.216797 4.437502l1.65625 -0.25q0.109375 0.484375 0.421875 0.734375q0.328125 0.25 0.90625 0.25q0.640625 0 0.953125 -0.234375q0.21875 -0.171875 0.21875 -0.4375q0 -0.1875 -0.109375 -0.3125q-0.125 -0.125 -0.546875 -0.21875q-2.0 -0.4375 -2.53125 -0.796875q-0.734375 -0.515625 -0.734375 -1.4062519q0 -0.8125 0.625 -1.359375q0.640625 -0.546875 1.984375 -0.546875q1.28125 0 1.90625 0.421875q0.625 0.40625 0.859375 1.21875l-1.5625 0.28125q-0.09375 -0.359375 -0.375 -0.546875q-0.28125 -0.203125 -0.796875 -0.203125q-0.640625 0 -0.921875 0.1875q-0.1875 0.125 -0.1875 0.328125q0 0.1875 0.15625 0.3125q0.21875 0.15625 1.53125 0.453125q1.328125 0.2968769 1.84375 0.7343769q0.515625 0.4375 0.515625 1.21875q0 0.859375 -0.71875 1.484375q-0.703125 0.609375 -2.109375 0.609375q-1.265625 0 -2.015625 -0.515625q-0.734375 -0.515625 -0.96875 -1.40625z" fill-rule="nonzero"/><path fill="#000000" fill-opacity="0.0" d="m561.40753 24.208416l49.574768 0l0 14.551182l-49.574768 0z" fill-rule="evenodd"/><path fill="#d9d9d9" d="m564.15753 34.49404l0 -2.234375l-2.25 0l0 -1.5468769l2.25 0l0 -2.234375l1.5 0l0 2.234375l2.25 0l0 1.5468769l-2.25 0l0 2.234375l-1.5 0zm4.7734375 -5.703127l0 -1.53125l5.625 0l0 1.1875q-0.703125 0.6875 -1.421875 1.96875q-0.71875 1.28125 -1.09375 2.734377q-0.375 1.4375 -0.375 2.578125l-1.578125 0q0.03125 -1.78125 0.71875 -3.625q0.703125 -1.8593769 1.859375 -3.312502l-3.734375 0zm10.2265625 0.71875l1.515625 0l0 0.84375q0.828125 -0.984375 1.953125 -0.984375q0.59375 0 1.03125 0.25q0.4375 0.234375 0.71875 0.734375q0.40625 -0.5 0.875 -0.734375q0.484375 -0.25 1.03125 -0.25q0.671875 0 1.140625 0.28125q0.484375 0.265625 0.71875 0.8125q0.171875 0.390625 0.171875 1.28125l0 3.984377l-1.640625 0l0 -3.5625q0 -0.9218769 -0.171875 -1.1875019q-0.234375 -0.359375 -0.703125 -0.359375q-0.34375 0 -0.65625 0.21875q-0.296875 0.203125 -0.4375 0.609375q-0.140625 0.40625 -0.140625 1.2968769l0 2.984375l-1.640625 0l0 -3.40625q0 -0.9062519 -0.09375 -1.1718769q-0.078125 -0.265625 -0.265625 -0.390625q-0.1875 -0.140625 -0.5 -0.140625q-0.375 0 -0.6875 0.21875q-0.296875 0.203125 -0.4375 0.59375q-0.125 0.375 -0.125 1.2656269l0 3.03125l-1.65625 0l0 -6.218752zm10.216797 4.437502l1.65625 -0.25q0.109375 0.484375 0.421875 0.734375q0.328125 0.25 0.90625 0.25q0.640625 0 0.953125 -0.234375q0.21875 -0.171875 0.21875 -0.4375q0 -0.1875 -0.109375 -0.3125q-0.125 -0.125 -0.546875 -0.21875q-2.0 -0.4375 -2.53125 -0.796875q-0.734375 -0.515625 -0.734375 -1.4062519q0 -0.8125 0.625 -1.359375q0.640625 -0.546875 1.984375 -0.546875q1.28125 0 1.90625 0.421875q0.625 0.40625 0.859375 1.21875l-1.5625 0.28125q-0.09375 -0.359375 -0.375 -0.546875q-0.28125 -0.203125 -0.796875 -0.203125q-0.640625 0 -0.921875 0.1875q-0.1875 0.125 -0.1875 0.328125q0 0.1875 0.15625 0.3125q0.21875 0.15625 1.53125 0.453125q1.328125 0.2968769 1.84375 0.7343769q0.515625 0.4375 0.515625 1.21875q0 0.859375 -0.71875 1.484375q-0.703125 0.609375 -2.109375 0.609375q-1.265625 0 -2.015625 -0.515625q-0.734375 -0.515625 -0.96875 -1.40625z" fill-rule="nonzero"/><path fill="#000000" fill-opacity="0.0" d="m636.02484 24.208416l49.57483 0l0 14.551182l-49.57483 0z" fill-rule="evenodd"/><path fill="#d9d9d9" d="m638.77484 34.49404l0 -2.234375l-2.25 0l0 -1.5468769l2.25 0l0 -2.234375l1.5 0l0 2.234375l2.25 0l0 1.5468769l-2.25 0l0 2.234375l-1.5 0zm6.1796875 -3.406252q-0.640625 -0.265625 -0.9375 -0.734375q-0.28125 -0.46875 -0.28125 -1.03125q0 -0.96875 0.671875 -1.59375q0.671875 -0.625 1.90625 -0.625q1.21875 0 1.890625 0.625q0.6875 0.625 0.6875 1.59375q0 0.59375 -0.3125 1.0625q-0.3125 0.46875 -0.875 0.703125q0.71875 0.296875 1.09375 0.84375q0.375 0.5468769 0.375 1.2656269q0 1.1875 -0.765625 1.9375q-0.75 0.75 -2.015625 0.75q-1.171875 0 -1.953125 -0.625q-0.921875 -0.71875 -0.921875 -1.984375q0 -0.703125 0.34375 -1.2812519q0.34375 -0.578125 1.09375 -0.90625zm0.34375 -1.65625q0 0.5 0.265625 0.78125q0.28125 0.265625 0.75 0.265625q0.46875 0 0.75 -0.28125q0.28125 -0.28125 0.28125 -0.765625q0 -0.46875 -0.28125 -0.734375q-0.28125 -0.28125 -0.734375 -0.28125q-0.46875 0 -0.75 0.28125q-0.28125 0.28125 -0.28125 0.734375zm-0.15625 3.687502q0 0.671875 0.34375 1.0625q0.359375 0.375 0.875 0.375q0.515625 0 0.84375 -0.359375q0.328125 -0.375 0.328125 -1.0625q0 -0.609375 -0.34375 -0.96875q-0.328125 -0.3750019 -0.84375 -0.3750019q-0.609375 0 -0.90625 0.4218769q-0.296875 0.421875 -0.296875 0.90625zm8.6328125 -3.609377l1.515625 0l0 0.84375q0.828125 -0.984375 1.953125 -0.984375q0.59375 0 1.03125 0.25q0.4375 0.234375 0.71875 0.734375q0.40625 -0.5 0.875 -0.734375q0.484375 -0.25 1.03125 -0.25q0.671875 0 1.140625 0.28125q0.484375 0.265625 0.71875 0.8125q0.171875 0.390625 0.171875 1.28125l0 3.984377l-1.640625 0l0 -3.5625q0 -0.9218769 -0.171875 -1.1875019q-0.234375 -0.359375 -0.703125 -0.359375q-0.34375 0 -0.65625 0.21875q-0.296875 0.203125 -0.4375 0.609375q-0.140625 0.40625 -0.140625 1.2968769l0 2.984375l-1.640625 0l0 -3.40625q0 -0.9062519 -0.09375 -1.1718769q-0.078125 -0.265625 -0.265625 -0.390625q-0.1875 -0.140625 -0.5 -0.140625q-0.375 0 -0.6875 0.21875q-0.296875 0.203125 -0.4375 0.59375q-0.125 0.375 -0.125 1.2656269l0 3.03125l-1.65625 0l0 -6.218752zm10.216797 4.437502l1.65625 -0.25q0.109375 0.484375 0.421875 0.734375q0.328125 0.25 0.90625 0.25q0.640625 0 0.953125 -0.234375q0.21875 -0.171875 0.21875 -0.4375q0 -0.1875 -0.109375 -0.3125q-0.125 -0.125 -0.546875 -0.21875q-2.0 -0.4375 -2.53125 -0.796875q-0.734375 -0.515625 -0.734375 -1.4062519q0 -0.8125 0.625 -1.359375q0.640625 -0.546875 1.984375 -0.546875q1.28125 0 1.90625 0.421875q0.625 0.40625 0.859375 1.21875l-1.5625 0.28125q-0.09375 -0.359375 -0.375 -0.546875q-0.28125 -0.203125 -0.796875 -0.203125q-0.640625 0 -0.921875 0.1875q-0.1875 0.125 -0.1875 0.328125q0 0.1875 0.15625 0.3125q0.21875 0.15625 1.53125 0.453125q1.328125 0.2968769 1.84375 0.7343769q0.515625 0.4375 0.515625 1.21875q0 0.859375 -0.71875 1.484375q-0.703125 0.609375 -2.109375 0.609375q-1.265625 0 -2.015625 -0.515625q-0.734375 -0.515625 -0.96875 -1.40625z" fill-rule="nonzero"/><path fill="#000000" fill-opacity="0.0" d="m710.6422 24.208416l49.57483 0l0 14.551182l-49.57483 0z" fill-rule="evenodd"/><path fill="#d9d9d9" d="m713.3922 34.49404l0 -2.234375l-2.25 0l0 -1.5468769l2.25 0l0 -2.234375l1.5 0l0 2.234375l2.25 0l0 1.5468769l-2.25 0l0 2.234375l-1.5 0zm4.8046875 -0.75l1.59375 -0.171875q0.0625 0.484375 0.296875 0.71875q0.25 0.234375 0.65625 0.234375q0.515625 0 0.859375 -0.46875q0.359375 -0.46875 0.46875 -1.953125q-0.625 0.71875 -1.5625 0.71875q-1.0 0 -1.75 -0.78125q-0.734375 -0.7812519 -0.734375 -2.031252q0 -1.3125 0.78125 -2.109375q0.78125 -0.796875 1.984375 -0.796875q1.296875 0 2.140625 1.015625q0.84375 1.0 0.84375 3.3125q0 2.359377 -0.875 3.406252q-0.875 1.046875 -2.28125 1.046875q-1.0 0 -1.625 -0.53125q-0.625 -0.546875 -0.796875 -1.609375zm3.71875 -3.593752q0 -0.796875 -0.359375 -1.234375q-0.359375 -0.453125 -0.84375 -0.453125q-0.453125 0 -0.765625 0.359375q-0.296875 0.359375 -0.296875 1.1875q0 0.828125 0.328125 1.21875q0.328125 0.390625 0.8125 0.390625q0.484375 0 0.796875 -0.375q0.328125 -0.375 0.328125 -1.09375zm6.4765625 -0.640625l1.515625 0l0 0.84375q0.828125 -0.984375 1.953125 -0.984375q0.59375 0 1.03125 0.25q0.4375 0.234375 0.71875 0.734375q0.40625 -0.5 0.875 -0.734375q0.484375 -0.25 1.03125 -0.25q0.671875 0 1.140625 0.28125q0.484375 0.265625 0.71875 0.8125q0.171875 0.390625 0.171875 1.28125l0 3.984377l-1.640625 0l0 -3.5625q0 -0.9218769 -0.171875 -1.1875019q-0.234375 -0.359375 -0.703125 -0.359375q-0.34375 0 -0.65625 0.21875q-0.296875 0.203125 -0.4375 0.609375q-0.140625 0.40625 -0.140625 1.2968769l0 2.984375l-1.640625 0l0 -3.40625q0 -0.9062519 -0.09375 -1.1718769q-0.078125 -0.265625 -0.265625 -0.390625q-0.1875 -0.140625 -0.5 -0.140625q-0.375 0 -0.6875 0.21875q-0.296875 0.203125 -0.4375 0.59375q-0.125 0.375 -0.125 1.2656269l0 3.03125l-1.65625 0l0 -6.218752zm10.216797 4.437502l1.65625 -0.25q0.109375 0.484375 0.421875 0.734375q0.328125 0.25 0.90625 0.25q0.640625 0 0.953125 -0.234375q0.21875 -0.171875 0.21875 -0.4375q0 -0.1875 -0.109375 -0.3125q-0.125 -0.125 -0.546875 -0.21875q-2.0 -0.4375 -2.53125 -0.796875q-0.734375 -0.515625 -0.734375 -1.4062519q0 -0.8125 0.625 -1.359375q0.640625 -0.546875 1.984375 -0.546875q1.28125 0 1.90625 0.421875q0.625 0.40625 0.859375 1.21875l-1.5625 0.28125q-0.09375 -0.359375 -0.375 -0.546875q-0.28125 -0.203125 -0.796875 -0.203125q-0.640625 0 -0.921875 0.1875q-0.1875 0.125 -0.1875 0.328125q0 0.1875 0.15625 0.3125q0.21875 0.15625 1.53125 0.453125q1.328125 0.2968769 1.84375 0.7343769q0.515625 0.4375 0.515625 1.21875q0 0.859375 -0.71875 1.484375q-0.703125 0.609375 -2.109375 0.609375q-1.265625 0 -2.015625 -0.515625q-0.734375 -0.515625 -0.96875 -1.40625z" fill-rule="nonzero"/><path fill="#000000" fill-opacity="0.0" d="m42.778656 5.5202436l49.5748 0l0 14.551181l-49.5748 0z" fill-rule="evenodd"/><path fill="#d9d9d9" d="m47.497406 17.040243l-1.640625 0l0 -6.203125q-0.90625 0.84375 -2.125 1.25l0 -1.5q0.640625 -0.203125 1.390625 -0.796875q0.765625 -0.59375 1.046875 -1.375l1.328125 0l0 8.625zm5.251953 -8.625q1.25 0 1.953125 0.890625q0.828125 1.046875 0.828125 3.5q0 2.4375 -0.84375 3.5q-0.6875 0.875 -1.9375 0.875q-1.25 0 -2.03125 -0.953125q-0.765625 -0.96875 -0.765625 -3.4375q0 -2.4375 0.84375 -3.5q0.703125 -0.875 1.953125 -0.875zm0 1.359375q-0.296875 0 -0.53125 0.203125q-0.234375 0.1875 -0.375 0.671875q-0.15625 0.640625 -0.15625 2.15625q0 1.515625 0.140625 2.078125q0.15625 0.5625 0.390625 0.75q0.234375 0.1875 0.53125 0.1875q0.296875 0 0.53125 -0.1875q0.234375 -0.1875 0.359375 -0.6875q0.171875 -0.625 0.171875 -2.140625q0 -1.515625 -0.15625 -2.078125q-0.140625 -0.5625 -0.375 -0.75q-0.234375 -0.203125 -0.53125 -0.203125zm6.673828 -1.359375q1.25 0 1.953125 0.890625q0.828125 1.046875 0.828125 3.5q0 2.4375 -0.84375 3.5q-0.6875 0.875 -1.9375 0.875q-1.25 0 -2.03125 -0.953125q-0.765625 -0.96875 -0.765625 -3.4375q0 -2.4375 0.84375 -3.5q0.703125 -0.875 1.953125 -0.875zm0 1.359375q-0.296875 0 -0.53125 0.203125q-0.234375 0.1875 -0.375 0.671875q-0.15625 0.640625 -0.15625 2.15625q0 1.515625 0.140625 2.078125q0.15625 0.5625 0.390625 0.75q0.234375 0.1875 0.53125 0.1875q0.296875 0 0.53125 -0.1875q0.234375 -0.1875 0.359375 -0.6875q0.171875 -0.625 0.171875 -2.140625q0 -1.515625 -0.15625 -2.078125q-0.140625 -0.5625 -0.375 -0.75q-0.234375 -0.203125 -0.53125 -0.203125zm7.4453125 1.046875l1.515625 0l0 0.84375q0.828125 -0.984375 1.953125 -0.984375q0.59375 0 1.03125 0.25q0.4375 0.234375 0.71875 0.734375q0.40625 -0.5 0.875 -0.734375q0.484375 -0.25 1.03125 -0.25q0.671875 0 1.140625 0.28125q0.484375 0.265625 0.71875 0.8125q0.171875 0.390625 0.171875 1.28125l0 3.984375l-1.640625 0l0 -3.5625q0 -0.921875 -0.171875 -1.1875q-0.234375 -0.359375 -0.703125 -0.359375q-0.34375 0 -0.65625 0.21875q-0.296875 0.203125 -0.4375 0.609375q-0.140625 0.40625 -0.140625 1.296875l0 2.984375l-1.640625 0l0 -3.40625q0 -0.90625 -0.09375 -1.171875q-0.078125 -0.265625 -0.265625 -0.390625q-0.1875 -0.140625 -0.5 -0.140625q-0.375 0 -0.6875 0.21875q-0.296875 0.203125 -0.4375 0.59375q-0.125 0.375 -0.125 1.265625l0 3.03125l-1.65625 0l0 -6.21875zm10.216797 4.4375l1.65625 -0.25q0.109375 0.484375 0.421875 0.734375q0.328125 0.25 0.90625 0.25q0.640625 0 0.953125 -0.234375q0.21875 -0.171875 0.21875 -0.4375q0 -0.1875 -0.109375 -0.3125q-0.125 -0.125 -0.546875 -0.21875q-2.0 -0.4375 -2.53125 -0.796875q-0.734375 -0.515625 -0.734375 -1.40625q0 -0.8125 0.625 -1.359375q0.640625 -0.546875 1.984375 -0.546875q1.28125 0 1.90625 0.421875q0.625 0.40625 0.859375 1.21875l-1.5625 0.28125q-0.09375 -0.359375 -0.375 -0.546875q-0.28125 -0.203125 -0.796875 -0.203125q-0.640625 0 -0.921875 0.1875q-0.1875 0.125 -0.1875 0.328125q0 0.1875 0.15625 0.3125q0.21875 0.15625 1.53125 0.453125q1.328125 0.296875 1.84375 0.734375q0.515625 0.4375 0.515625 1.21875q0 0.859375 -0.71875 1.484375q-0.703125 0.609375 -2.109375 0.609375q-1.265625 0 -2.015625 -0.515625q-0.734375 -0.515625 -0.96875 -1.40625z" fill-rule="nonzero"/><path fill="#000000" fill-opacity="0.0" d="m1.8981535 168.39468l14.393702 0l0 11.307083l-14.393702 0z" fill-rule="evenodd"/><path fill="#d9d9d9" d="m6.9647546 177.35469l0 -6.625l1.3437505 0l0 5.5l3.359374 0l0 1.125l-4.7031245 0z" fill-rule="nonzero"/><path fill="#000000" fill-opacity="0.0" d="m2.4627862 70.367615l14.393702 0l0 11.307091l-14.393702 0z" fill-rule="evenodd"/><path fill="#d9d9d9" d="m6.978896 79.327614l0 -6.671875l1.34375 0l0 2.625l2.640624 0l0 -2.625l1.34375 0l0 6.671875l-1.34375 0l0 -2.921875l-2.640624 0l0 2.921875l-1.34375 0z" fill-rule="nonzero"/><path fill="#000000" fill-opacity="0.0" d="m1.9448819 43.501312l884.063 0" fill-rule="evenodd"/><path stroke="#666666" stroke-width="1.0" stroke-linejoin="round" stroke-linecap="butt" d="m1.9448819 43.501312l884.063 0" fill-rule="evenodd"/><defs><linearGradient id="p.3" gradientUnits="userSpaceOnUse" gradientTransform="matrix(5.475930091612478 0.0 0.0 5.475930091612478 0.0 0.0)" spreadMethod="pad" x1="149.62426606803328" y1="5.8719895827362" x2="144.14833597656198" y2="5.8719502642798815"><stop offset="0.0" stop-color="#1b1b1c"/><stop offset="0.99999994" stop-color="#1b1b1c" stop-opacity="0.0"/><stop offset="1.0" stop-color="#ffffff" stop-opacity="0.0"/></linearGradient></defs><path fill="url(#p.3)" d="m789.34644 32.154854l0 0c0 -1.373291E-4 1.2207031E-4 -2.4795532E-4 2.4414062E-4 -2.4795532E-4l29.984009 2.4795532E-4c6.1035156E-5 0 1.2207031E-4 2.670288E-5 1.8310547E-4 7.6293945E-5c6.1035156E-5 4.5776367E-5 6.1035156E-5 1.1062622E-4 6.1035156E-5 1.7547607E-4l-2.4414062E-4 147.21234c0 1.5258789E-4 -1.2207031E-4 2.593994E-4 -2.4414062E-4 2.593994E-4l-29.984009 -2.593994E-4l0 0c-1.2207031E-4 0 -2.4414062E-4 -1.0681152E-4 -2.4414062E-4 -2.4414062E-4z" fill-rule="evenodd"/><defs><linearGradient id="p.4" gradientUnits="userSpaceOnUse" gradientTransform="matrix(-5.475930091605917 0.0 0.0 -5.475930091605917 0.0 0.0)" spreadMethod="pad" x1="-153.3643275039903" y1="-32.826121663547475" x2="-158.84025759546816" y2="-32.82615910969635"><stop offset="0.0" stop-color="#1b1b1c"/><stop offset="0.99999994" stop-color="#1b1b1c" stop-opacity="0.0"/><stop offset="1.0" stop-color="#ffffff" stop-opacity="0.0"/></linearGradient></defs><path fill="url(#p.4)" d="m869.7979 179.75328l0 0c0 1.373291E-4 -1.2207031E-4 2.4414062E-4 -2.4414062E-4 2.4414062E-4l-29.984009 -2.4414062E-4c-6.1035156E-5 0 -1.2207031E-4 -3.0517578E-5 -1.8310547E-4 -7.6293945E-5c-6.1035156E-5 -4.5776367E-5 -6.1035156E-5 -1.0681152E-4 -6.1035156E-5 -1.6784668E-4l2.4414062E-4 -147.52731c0 -1.411438E-4 1.2207031E-4 -2.5177002E-4 2.4414062E-4 -2.5177002E-4l29.984009 2.5177002E-4l0 0c1.2207031E-4 0 2.4414062E-4 1.1062622E-4 2.4414062E-4 2.4795532E-4z" fill-rule="evenodd"/><path fill="#1b1b1c" d="m819.18896 32.154854l21.13385 0l0 147.21259l-21.13385 0z" fill-rule="evenodd"/></g></svg>