<svg version="1.1" viewBox="0.0 0.0 409.0 215.0" fill="none" stroke="none" stroke-linecap="square" stroke-miterlimit="10" xmlns:xlink="http://www.w3.org/1999/xlink" xmlns="http://www.w3.org/2000/svg"><clipPath id="p.0"><path d="m0 0l409.0 0l0 215.0l-409.0 0l0 -215.0z" clip-rule="nonzero"/></clipPath><g clip-path="url(#p.0)"><path fill="#000000" fill-opacity="0.0" d="m0 0l409.0 0l0 215.0l-409.0 0z" fill-rule="evenodd"/><path fill="#f3f3f3" d="m-1.2362205 0l409.00787 0l0 214.99213l-409.00787 0z" fill-rule="evenodd"/><path fill="#000000" d="m31.666666 30.653543l18.897638 0l0 18.929132l-18.897638 0z" fill-rule="evenodd"/><path stroke="#434343" stroke-width="1.0" stroke-linejoin="round" stroke-linecap="butt" d="m31.666666 30.653543l18.897638 0l0 18.929132l-18.897638 0z" fill-rule="evenodd"/><path fill="#000000" d="m50.885147 30.653543l18.897636 0l0 18.929132l-18.897636 0z" fill-rule="evenodd"/><path stroke="#434343" stroke-width="1.0" stroke-linejoin="round" stroke-linecap="butt" d="m50.885147 30.653543l18.897636 0l0 18.929132l-18.897636 0z" fill-rule="evenodd"/><path fill="#000000" d="m70.11831 30.653543l18.897636 0l0 18.929132l-18.897636 0z" fill-rule="evenodd"/><path stroke="#434343" stroke-width="1.0" stroke-linejoin="round" stroke-linecap="butt" d="m70.11831 30.653543l18.897636 0l0 18.929132l-18.897636 0z" fill-rule="evenodd"/><path fill="#000000" d="m89.3473 30.653543l18.897644 0l0 18.929132l-18.897644 0z" fill-rule="evenodd"/><path stroke="#434343" stroke-width="1.0" stroke-linejoin="round" stroke-linecap="butt" d="m89.3473 30.653543l18.897644 0l0 18.929132l-18.897644 0z" fill-rule="evenodd"/><path fill="#000000" d="m108.56996 30.653543l18.897636 0l0 18.929132l-18.897636 0z" fill-rule="evenodd"/><path stroke="#434343" stroke-width="1.0" stroke-linejoin="round" stroke-linecap="butt" d="m108.56996 30.653543l18.897636 0l0 18.929132l-18.897636 0z" fill-rule="evenodd"/><path fill="#000000" d="m127.78844 30.653543l18.897644 0l0 18.929132l-18.897644 0z" fill-rule="evenodd"/><path stroke="#434343" stroke-width="1.0" stroke-linejoin="round" stroke-linecap="butt" d="m127.78844 30.653543l18.897644 0l0 18.929132l-18.897644 0z" fill-rule="evenodd"/><path fill="#000000" d="m147.02164 30.653543l18.897629 0l0 18.929132l-18.897629 0z" fill-rule="evenodd"/><path stroke="#434343" stroke-width="1.0" stroke-linejoin="round" stroke-linecap="butt" d="m147.02164 30.653543l18.897629 0l0 18.929132l-18.897629 0z" fill-rule="evenodd"/><path fill="#000000" d="m166.2506 30.653543l18.897629 0l0 18.929132l-18.897629 0z" fill-rule="evenodd"/><path stroke="#434343" stroke-width="1.0" stroke-linejoin="round" stroke-linecap="butt" d="m166.2506 30.653543l18.897629 0l0 18.929132l-18.897629 0z" fill-rule="evenodd"/><path fill="#000000" d="m31.666666 49.905594l18.897638 0l0 18.92913l-18.897638 0z" fill-rule="evenodd"/><path stroke="#434343" stroke-width="1.0" stroke-linejoin="round" stroke-linecap="butt" d="m31.666666 49.905594l18.897638 0l0 18.92913l-18.897638 0z" fill-rule="evenodd"/><path fill="#000000" d="m50.885147 49.905594l18.897636 0l0 18.92913l-18.897636 0z" fill-rule="evenodd"/><path stroke="#434343" stroke-width="1.0" stroke-linejoin="round" stroke-linecap="butt" d="m50.885147 49.905594l18.897636 0l0 18.92913l-18.897636 0z" fill-rule="evenodd"/><path fill="#000000" d="m70.11831 49.905594l18.897636 0l0 18.92913l-18.897636 0z" fill-rule="evenodd"/><path stroke="#434343" stroke-width="1.0" stroke-linejoin="round" stroke-linecap="butt" d="m70.11831 49.905594l18.897636 0l0 18.92913l-18.897636 0z" fill-rule="evenodd"/><path fill="#000000" d="m89.3473 49.905594l18.897644 0l0 18.92913l-18.897644 0z" fill-rule="evenodd"/><path stroke="#434343" stroke-width="1.0" stroke-linejoin="round" stroke-linecap="butt" d="m89.3473 49.905594l18.897644 0l0 18.92913l-18.897644 0z" fill-rule="evenodd"/><path fill="#000000" d="m108.56996 49.905594l18.897636 0l0 18.92913l-18.897636 0z" fill-rule="evenodd"/><path stroke="#434343" stroke-width="1.0" stroke-linejoin="round" stroke-linecap="butt" d="m108.56996 49.905594l18.897636 0l0 18.92913l-18.897636 0z" fill-rule="evenodd"/><path fill="#000000" d="m127.78844 49.905594l18.897644 0l0 18.92913l-18.897644 0z" fill-rule="evenodd"/><path stroke="#434343" stroke-width="1.0" stroke-linejoin="round" stroke-linecap="butt" d="m127.78844 49.905594l18.897644 0l0 18.92913l-18.897644 0z" fill-rule="evenodd"/><path fill="#000000" d="m147.02164 49.905594l18.897629 0l0 18.92913l-18.897629 0z" fill-rule="evenodd"/><path stroke="#434343" stroke-width="1.0" stroke-linejoin="round" stroke-linecap="butt" d="m147.02164 49.905594l18.897629 0l0 18.92913l-18.897629 0z" fill-rule="evenodd"/><path fill="#000000" d="m166.2506 49.905594l18.897629 0l0 18.92913l-18.897629 0z" fill-rule="evenodd"/><path stroke="#434343" stroke-width="1.0" stroke-linejoin="round" stroke-linecap="butt" d="m166.2506 49.905594l18.897629 0l0 18.92913l-18.897629 0z" fill-rule="evenodd"/><path fill="#000000" d="m31.666666 69.15764l18.897638 0l0 18.929138l-18.897638 0z" fill-rule="evenodd"/><path stroke="#434343" stroke-width="1.0" stroke-linejoin="round" stroke-linecap="butt" d="m31.666666 69.15764l18.897638 0l0 18.929138l-18.897638 0z" fill-rule="evenodd"/><path fill="#000000" d="m50.885147 69.15764l18.897636 0l0 18.929138l-18.897636 0z" fill-rule="evenodd"/><path stroke="#434343" stroke-width="1.0" stroke-linejoin="round" stroke-linecap="butt" d="m50.885147 69.15764l18.897636 0l0 18.929138l-18.897636 0z" fill-rule="evenodd"/><path fill="#000000" d="m70.11831 69.15764l18.897636 0l0 18.929138l-18.897636 0z" fill-rule="evenodd"/><path stroke="#434343" stroke-width="1.0" stroke-linejoin="round" stroke-linecap="butt" d="m70.11831 69.15764l18.897636 0l0 18.929138l-18.897636 0z" fill-rule="evenodd"/><path fill="#000000" d="m89.3473 69.15764l18.897644 0l0 18.929138l-18.897644 0z" fill-rule="evenodd"/><path stroke="#434343" stroke-width="1.0" stroke-linejoin="round" stroke-linecap="butt" d="m89.3473 69.15764l18.897644 0l0 18.929138l-18.897644 0z" fill-rule="evenodd"/><path fill="#000000" d="m108.56996 69.15764l18.897636 0l0 18.929138l-18.897636 0z" fill-rule="evenodd"/><path stroke="#434343" stroke-width="1.0" stroke-linejoin="round" stroke-linecap="butt" d="m108.56996 69.15764l18.897636 0l0 18.929138l-18.897636 0z" fill-rule="evenodd"/><path fill="#000000" d="m127.78844 69.15764l18.897644 0l0 18.929138l-18.897644 0z" fill-rule="evenodd"/><path stroke="#434343" stroke-width="1.0" stroke-linejoin="round" stroke-linecap="butt" d="m127.78844 69.15764l18.897644 0l0 18.929138l-18.897644 0z" fill-rule="evenodd"/><path fill="#000000" d="m147.02164 69.15764l18.897629 0l0 18.929138l-18.897629 0z" fill-rule="evenodd"/><path stroke="#434343" stroke-width="1.0" stroke-linejoin="round" stroke-linecap="butt" d="m147.02164 69.15764l18.897629 0l0 18.929138l-18.897629 0z" fill-rule="evenodd"/><path fill="#000000" d="m166.2506 69.15764l18.897629 0l0 18.929138l-18.897629 0z" fill-rule="evenodd"/><path stroke="#434343" stroke-width="1.0" stroke-linejoin="round" stroke-linecap="butt" d="m166.2506 69.15764l18.897629 0l0 18.929138l-18.897629 0z" fill-rule="evenodd"/><path fill="#000000" d="m31.666666 88.40969l18.897638 0l0 18.92913l-18.897638 0z" fill-rule="evenodd"/><path stroke="#434343" stroke-width="1.0" stroke-linejoin="round" stroke-linecap="butt" d="m31.666666 88.40969l18.897638 0l0 18.92913l-18.897638 0z" fill-rule="evenodd"/><path fill="#ffd966" d="m50.885147 88.40969l18.897636 0l0 18.92913l-18.897636 0z" fill-rule="evenodd"/><path stroke="#434343" stroke-width="1.0" stroke-linejoin="round" stroke-linecap="butt" d="m50.885147 88.40969l18.897636 0l0 18.92913l-18.897636 0z" fill-rule="evenodd"/><path fill="#ffd966" d="m70.11831 88.40969l18.897636 0l0 18.92913l-18.897636 0z" fill-rule="evenodd"/><path stroke="#434343" stroke-width="1.0" stroke-linejoin="round" stroke-linecap="butt" d="m70.11831 88.40969l18.897636 0l0 18.92913l-18.897636 0z" fill-rule="evenodd"/><path fill="#ffd966" d="m89.3473 88.40969l18.897644 0l0 18.92913l-18.897644 0z" fill-rule="evenodd"/><path stroke="#434343" stroke-width="1.0" stroke-linejoin="round" stroke-linecap="butt" d="m89.3473 88.40969l18.897644 0l0 18.92913l-18.897644 0z" fill-rule="evenodd"/><path fill="#ffd966" d="m108.56996 88.40969l18.897636 0l0 18.92913l-18.897636 0z" fill-rule="evenodd"/><path stroke="#434343" stroke-width="1.0" stroke-linejoin="round" stroke-linecap="butt" d="m108.56996 88.40969l18.897636 0l0 18.92913l-18.897636 0z" fill-rule="evenodd"/><path fill="#000000" d="m127.78844 88.40969l18.897644 0l0 18.92913l-18.897644 0z" fill-rule="evenodd"/><path stroke="#434343" stroke-width="1.0" stroke-linejoin="round" stroke-linecap="butt" d="m127.78844 88.40969l18.897644 0l0 18.92913l-18.897644 0z" fill-rule="evenodd"/><path fill="#000000" d="m147.02164 88.40969l18.897629 0l0 18.92913l-18.897629 0z" fill-rule="evenodd"/><path stroke="#434343" stroke-width="1.0" stroke-linejoin="round" stroke-linecap="butt" d="m147.02164 88.40969l18.897629 0l0 18.92913l-18.897629 0z" fill-rule="evenodd"/><path fill="#000000" d="m166.2506 88.40969l18.897629 0l0 18.92913l-18.897629 0z" fill-rule="evenodd"/><path stroke="#434343" stroke-width="1.0" stroke-linejoin="round" stroke-linecap="butt" d="m166.2506 88.40969l18.897629 0l0 18.92913l-18.897629 0z" fill-rule="evenodd"/><path fill="#000000" d="m31.666666 107.66174l18.897638 0l0 18.92913l-18.897638 0z" fill-rule="evenodd"/><path stroke="#434343" stroke-width="1.0" stroke-linejoin="round" stroke-linecap="butt" d="m31.666666 107.66174l18.897638 0l0 18.92913l-18.897638 0z" fill-rule="evenodd"/><path fill="#000000" d="m50.885147 107.66174l18.897636 0l0 18.92913l-18.897636 0z" fill-rule="evenodd"/><path stroke="#434343" stroke-width="1.0" stroke-linejoin="round" stroke-linecap="butt" d="m50.885147 107.66174l18.897636 0l0 18.92913l-18.897636 0z" fill-rule="evenodd"/><path fill="#000000" d="m70.11831 107.66174l18.897636 0l0 18.92913l-18.897636 0z" fill-rule="evenodd"/><path stroke="#434343" stroke-width="1.0" stroke-linejoin="round" stroke-linecap="butt" d="m70.11831 107.66174l18.897636 0l0 18.92913l-18.897636 0z" fill-rule="evenodd"/><path fill="#000000" d="m89.3473 107.66174l18.897644 0l0 18.92913l-18.897644 0z" fill-rule="evenodd"/><path stroke="#434343" stroke-width="1.0" stroke-linejoin="round" stroke-linecap="butt" d="m89.3473 107.66174l18.897644 0l0 18.92913l-18.897644 0z" fill-rule="evenodd"/><path fill="#ffd966" d="m108.56996 107.66174l18.897636 0l0 18.92913l-18.897636 0z" fill-rule="evenodd"/><path stroke="#434343" stroke-width="1.0" stroke-linejoin="round" stroke-linecap="butt" d="m108.56996 107.66174l18.897636 0l0 18.92913l-18.897636 0z" fill-rule="evenodd"/><path fill="#ffd966" d="m127.78844 107.66174l18.897644 0l0 18.92913l-18.897644 0z" fill-rule="evenodd"/><path stroke="#434343" stroke-width="1.0" stroke-linejoin="round" stroke-linecap="butt" d="m127.78844 107.66174l18.897644 0l0 18.92913l-18.897644 0z" fill-rule="evenodd"/><path fill="#000000" d="m147.02164 107.66174l18.897629 0l0 18.92913l-18.897629 0z" fill-rule="evenodd"/><path stroke="#434343" stroke-width="1.0" stroke-linejoin="round" stroke-linecap="butt" d="m147.02164 107.66174l18.897629 0l0 18.92913l-18.897629 0z" fill-rule="evenodd"/><path fill="#000000" d="m166.2506 107.66174l18.897629 0l0 18.92913l-18.897629 0z" fill-rule="evenodd"/><path stroke="#434343" stroke-width="1.0" stroke-linejoin="round" stroke-linecap="butt" d="m166.2506 107.66174l18.897629 0l0 18.92913l-18.897629 0z" fill-rule="evenodd"/><path fill="#000000" d="m31.666666 126.91379l18.897638 0l0 18.929138l-18.897638 0z" fill-rule="evenodd"/><path stroke="#434343" stroke-width="1.0" stroke-linejoin="round" stroke-linecap="butt" d="m31.666666 126.91379l18.897638 0l0 18.929138l-18.897638 0z" fill-rule="evenodd"/><path fill="#ffd966" d="m50.885147 126.91379l18.897636 0l0 18.929138l-18.897636 0z" fill-rule="evenodd"/><path stroke="#434343" stroke-width="1.0" stroke-linejoin="round" stroke-linecap="butt" d="m50.885147 126.91379l18.897636 0l0 18.929138l-18.897636 0z" fill-rule="evenodd"/><path fill="#ffd966" d="m70.11831 126.91379l18.897636 0l0 18.929138l-18.897636 0z" fill-rule="evenodd"/><path stroke="#434343" stroke-width="1.0" stroke-linejoin="round" stroke-linecap="butt" d="m70.11831 126.91379l18.897636 0l0 18.929138l-18.897636 0z" fill-rule="evenodd"/><path fill="#ffd966" d="m89.3473 126.91379l18.897644 0l0 18.929138l-18.897644 0z" fill-rule="evenodd"/><path stroke="#434343" stroke-width="1.0" stroke-linejoin="round" stroke-linecap="butt" d="m89.3473 126.91379l18.897644 0l0 18.929138l-18.897644 0z" fill-rule="evenodd"/><path fill="#ffd966" d="m108.56996 126.91379l18.897636 0l0 18.929138l-18.897636 0z" fill-rule="evenodd"/><path stroke="#434343" stroke-width="1.0" stroke-linejoin="round" stroke-linecap="butt" d="m108.56996 126.91379l18.897636 0l0 18.929138l-18.897636 0z" fill-rule="evenodd"/><path fill="#ffd966" d="m127.78844 126.91379l18.897644 0l0 18.929138l-18.897644 0z" fill-rule="evenodd"/><path stroke="#434343" stroke-width="1.0" stroke-linejoin="round" stroke-linecap="butt" d="m127.78844 126.91379l18.897644 0l0 18.929138l-18.897644 0z" fill-rule="evenodd"/><path fill="#000000" d="m147.02164 126.91379l18.897629 0l0 18.929138l-18.897629 0z" fill-rule="evenodd"/><path stroke="#434343" stroke-width="1.0" stroke-linejoin="round" stroke-linecap="butt" d="m147.02164 126.91379l18.897629 0l0 18.929138l-18.897629 0z" fill-rule="evenodd"/><path fill="#000000" d="m166.2506 126.91379l18.897629 0l0 18.929138l-18.897629 0z" fill-rule="evenodd"/><path stroke="#434343" stroke-width="1.0" stroke-linejoin="round" stroke-linecap="butt" d="m166.2506 126.91379l18.897629 0l0 18.929138l-18.897629 0z" fill-rule="evenodd"/><path fill="#ffd966" d="m31.666666 146.16583l18.897638 0l0 18.929138l-18.897638 0z" fill-rule="evenodd"/><path stroke="#434343" stroke-width="1.0" stroke-linejoin="round" stroke-linecap="butt" d="m31.666666 146.16583l18.897638 0l0 18.929138l-18.897638 0z" fill-rule="evenodd"/><path fill="#ffd966" d="m50.885147 146.16583l18.897636 0l0 18.929138l-18.897636 0z" fill-rule="evenodd"/><path stroke="#434343" stroke-width="1.0" stroke-linejoin="round" stroke-linecap="butt" d="m50.885147 146.16583l18.897636 0l0 18.929138l-18.897636 0z" fill-rule="evenodd"/><path fill="#000000" d="m70.11831 146.16583l18.897636 0l0 18.929138l-18.897636 0z" fill-rule="evenodd"/><path stroke="#434343" stroke-width="1.0" stroke-linejoin="round" stroke-linecap="butt" d="m70.11831 146.16583l18.897636 0l0 18.929138l-18.897636 0z" fill-rule="evenodd"/><path fill="#000000" d="m89.3473 146.16583l18.897644 0l0 18.929138l-18.897644 0z" fill-rule="evenodd"/><path stroke="#434343" stroke-width="1.0" stroke-linejoin="round" stroke-linecap="butt" d="m89.3473 146.16583l18.897644 0l0 18.929138l-18.897644 0z" fill-rule="evenodd"/><path fill="#ffd966" d="m108.56996 146.16583l18.897636 0l0 18.929138l-18.897636 0z" fill-rule="evenodd"/><path stroke="#434343" stroke-width="1.0" stroke-linejoin="round" stroke-linecap="butt" d="m108.56996 146.16583l18.897636 0l0 18.929138l-18.897636 0z" fill-rule="evenodd"/><path fill="#ffd966" d="m127.78844 146.16583l18.897644 0l0 18.929138l-18.897644 0z" fill-rule="evenodd"/><path stroke="#434343" stroke-width="1.0" stroke-linejoin="round" stroke-linecap="butt" d="m127.78844 146.16583l18.897644 0l0 18.929138l-18.897644 0z" fill-rule="evenodd"/><path fill="#000000" d="m147.02164 146.16583l18.897629 0l0 18.929138l-18.897629 0z" fill-rule="evenodd"/><path stroke="#434343" stroke-width="1.0" stroke-linejoin="round" stroke-linecap="butt" d="m147.02164 146.16583l18.897629 0l0 18.929138l-18.897629 0z" fill-rule="evenodd"/><path fill="#000000" d="m166.2506 146.16583l18.897629 0l0 18.929138l-18.897629 0z" fill-rule="evenodd"/><path stroke="#434343" stroke-width="1.0" stroke-linejoin="round" stroke-linecap="butt" d="m166.2506 146.16583l18.897629 0l0 18.929138l-18.897629 0z" fill-rule="evenodd"/><path fill="#000000" d="m31.666666 165.4179l18.897638 0l0 18.929123l-18.897638 0z" fill-rule="evenodd"/><path stroke="#434343" stroke-width="1.0" stroke-linejoin="round" stroke-linecap="butt" d="m31.666666 165.4179l18.897638 0l0 18.929123l-18.897638 0z" fill-rule="evenodd"/><path fill="#ffd966" d="m50.885147 165.4179l18.897636 0l0 18.929123l-18.897636 0z" fill-rule="evenodd"/><path stroke="#434343" stroke-width="1.0" stroke-linejoin="round" stroke-linecap="butt" d="m50.885147 165.4179l18.897636 0l0 18.929123l-18.897636 0z" fill-rule="evenodd"/><path fill="#ffd966" d="m70.11831 165.4179l18.897636 0l0 18.929123l-18.897636 0z" fill-rule="evenodd"/><path stroke="#434343" stroke-width="1.0" stroke-linejoin="round" stroke-linecap="butt" d="m70.11831 165.4179l18.897636 0l0 18.929123l-18.897636 0z" fill-rule="evenodd"/><path fill="#ffd966" d="m89.3473 165.4179l18.897644 0l0 18.929123l-18.897644 0z" fill-rule="evenodd"/><path stroke="#434343" stroke-width="1.0" stroke-linejoin="round" stroke-linecap="butt" d="m89.3473 165.4179l18.897644 0l0 18.929123l-18.897644 0z" fill-rule="evenodd"/><path fill="#000000" d="m108.56996 165.4179l18.897636 0l0 18.929123l-18.897636 0z" fill-rule="evenodd"/><path stroke="#434343" stroke-width="1.0" stroke-linejoin="round" stroke-linecap="butt" d="m108.56996 165.4179l18.897636 0l0 18.929123l-18.897636 0z" fill-rule="evenodd"/><path fill="#ffd966" d="m127.78844 165.4179l18.897644 0l0 18.929123l-18.897644 0z" fill-rule="evenodd"/><path stroke="#434343" stroke-width="1.0" stroke-linejoin="round" stroke-linecap="butt" d="m127.78844 165.4179l18.897644 0l0 18.929123l-18.897644 0z" fill-rule="evenodd"/><path fill="#ffd966" d="m147.02164 165.4179l18.897629 0l0 18.929123l-18.897629 0z" fill-rule="evenodd"/><path stroke="#434343" stroke-width="1.0" stroke-linejoin="round" stroke-linecap="butt" d="m147.02164 165.4179l18.897629 0l0 18.929123l-18.897629 0z" fill-rule="evenodd"/><path fill="#000000" d="m166.2506 165.4179l18.897629 0l0 18.929123l-18.897629 0z" fill-rule="evenodd"/><path stroke="#434343" stroke-width="1.0" stroke-linejoin="round" stroke-linecap="butt" d="m166.2506 165.4179l18.897629 0l0 18.929123l-18.897629 0z" fill-rule="evenodd"/><path fill="#000000" d="m223.85136 30.653543l18.897629 0l0 18.929132l-18.897629 0z" fill-rule="evenodd"/><path stroke="#434343" stroke-width="1.0" stroke-linejoin="round" stroke-linecap="butt" d="m223.85136 30.653543l18.897629 0l0 18.929132l-18.897629 0z" fill-rule="evenodd"/><path fill="#000000" d="m243.06984 30.653543l18.897629 0l0 18.929132l-18.897629 0z" fill-rule="evenodd"/><path stroke="#434343" stroke-width="1.0" stroke-linejoin="round" stroke-linecap="butt" d="m243.06984 30.653543l18.897629 0l0 18.929132l-18.897629 0z" fill-rule="evenodd"/><path fill="#000000" d="m262.303 30.653543l18.897644 0l0 18.929132l-18.897644 0z" fill-rule="evenodd"/><path stroke="#434343" stroke-width="1.0" stroke-linejoin="round" stroke-linecap="butt" d="m262.303 30.653543l18.897644 0l0 18.929132l-18.897644 0z" fill-rule="evenodd"/><path fill="#000000" d="m281.53198 30.653543l18.897644 0l0 18.929132l-18.897644 0z" fill-rule="evenodd"/><path stroke="#434343" stroke-width="1.0" stroke-linejoin="round" stroke-linecap="butt" d="m281.53198 30.653543l18.897644 0l0 18.929132l-18.897644 0z" fill-rule="evenodd"/><path fill="#000000" d="m300.75464 30.653543l18.897644 0l0 18.929132l-18.897644 0z" fill-rule="evenodd"/><path stroke="#434343" stroke-width="1.0" stroke-linejoin="round" stroke-linecap="butt" d="m300.75464 30.653543l18.897644 0l0 18.929132l-18.897644 0z" fill-rule="evenodd"/><path fill="#000000" d="m319.97314 30.653543l18.897614 0l0 18.929132l-18.897614 0z" fill-rule="evenodd"/><path stroke="#434343" stroke-width="1.0" stroke-linejoin="round" stroke-linecap="butt" d="m319.97314 30.653543l18.897614 0l0 18.929132l-18.897614 0z" fill-rule="evenodd"/><path fill="#000000" d="m339.20633 30.653543l18.897644 0l0 18.929132l-18.897644 0z" fill-rule="evenodd"/><path stroke="#434343" stroke-width="1.0" stroke-linejoin="round" stroke-linecap="butt" d="m339.20633 30.653543l18.897644 0l0 18.929132l-18.897644 0z" fill-rule="evenodd"/><path fill="#000000" d="m358.43527 30.653543l18.897644 0l0 18.929132l-18.897644 0z" fill-rule="evenodd"/><path stroke="#434343" stroke-width="1.0" stroke-linejoin="round" stroke-linecap="butt" d="m358.43527 30.653543l18.897644 0l0 18.929132l-18.897644 0z" fill-rule="evenodd"/><path fill="#ffd966" d="m223.85136 49.905594l18.897629 0l0 18.92913l-18.897629 0z" fill-rule="evenodd"/><path stroke="#434343" stroke-width="1.0" stroke-linejoin="round" stroke-linecap="butt" d="m223.85136 49.905594l18.897629 0l0 18.92913l-18.897629 0z" fill-rule="evenodd"/><path fill="#ffd966" d="m243.06984 49.905594l18.897629 0l0 18.92913l-18.897629 0z" fill-rule="evenodd"/><path stroke="#434343" stroke-width="1.0" stroke-linejoin="round" stroke-linecap="butt" d="m243.06984 49.905594l18.897629 0l0 18.92913l-18.897629 0z" fill-rule="evenodd"/><path fill="#ffd966" d="m262.303 49.905594l18.897644 0l0 18.92913l-18.897644 0z" fill-rule="evenodd"/><path stroke="#434343" stroke-width="1.0" stroke-linejoin="round" stroke-linecap="butt" d="m262.303 49.905594l18.897644 0l0 18.92913l-18.897644 0z" fill-rule="evenodd"/><path fill="#000000" d="m281.53198 49.905594l18.897644 0l0 18.92913l-18.897644 0z" fill-rule="evenodd"/><path stroke="#434343" stroke-width="1.0" stroke-linejoin="round" stroke-linecap="butt" d="m281.53198 49.905594l18.897644 0l0 18.92913l-18.897644 0z" fill-rule="evenodd"/><path fill="#000000" d="m300.75464 49.905594l18.897644 0l0 18.92913l-18.897644 0z" fill-rule="evenodd"/><path stroke="#434343" stroke-width="1.0" stroke-linejoin="round" stroke-linecap="butt" d="m300.75464 49.905594l18.897644 0l0 18.92913l-18.897644 0z" fill-rule="evenodd"/><path fill="#000000" d="m319.97314 49.905594l18.897614 0l0 18.92913l-18.897614 0z" fill-rule="evenodd"/><path stroke="#434343" stroke-width="1.0" stroke-linejoin="round" stroke-linecap="butt" d="m319.97314 49.905594l18.897614 0l0 18.92913l-18.897614 0z" fill-rule="evenodd"/><path fill="#000000" d="m339.20633 49.905594l18.897644 0l0 18.92913l-18.897644 0z" fill-rule="evenodd"/><path stroke="#434343" stroke-width="1.0" stroke-linejoin="round" stroke-linecap="butt" d="m339.20633 49.905594l18.897644 0l0 18.92913l-18.897644 0z" fill-rule="evenodd"/><path fill="#000000" d="m358.43527 49.905594l18.897644 0l0 18.92913l-18.897644 0z" fill-rule="evenodd"/><path stroke="#434343" stroke-width="1.0" stroke-linejoin="round" stroke-linecap="butt" d="m358.43527 49.905594l18.897644 0l0 18.92913l-18.897644 0z" fill-rule="evenodd"/><path fill="#000000" d="m223.85136 69.15764l18.897629 0l0 18.929138l-18.897629 0z" fill-rule="evenodd"/><path stroke="#434343" stroke-width="1.0" stroke-linejoin="round" stroke-linecap="butt" d="m223.85136 69.15764l18.897629 0l0 18.929138l-18.897629 0z" fill-rule="evenodd"/><path fill="#ffd966" d="m243.06984 69.15764l18.897629 0l0 18.929138l-18.897629 0z" fill-rule="evenodd"/><path stroke="#434343" stroke-width="1.0" stroke-linejoin="round" stroke-linecap="butt" d="m243.06984 69.15764l18.897629 0l0 18.929138l-18.897629 0z" fill-rule="evenodd"/><path fill="#ffd966" d="m262.303 69.15764l18.897644 0l0 18.929138l-18.897644 0z" fill-rule="evenodd"/><path stroke="#434343" stroke-width="1.0" stroke-linejoin="round" stroke-linecap="butt" d="m262.303 69.15764l18.897644 0l0 18.929138l-18.897644 0z" fill-rule="evenodd"/><path fill="#000000" d="m281.53198 69.15764l18.897644 0l0 18.929138l-18.897644 0z" fill-rule="evenodd"/><path stroke="#434343" stroke-width="1.0" stroke-linejoin="round" stroke-linecap="butt" d="m281.53198 69.15764l18.897644 0l0 18.929138l-18.897644 0z" fill-rule="evenodd"/><path fill="#000000" d="m300.75464 69.15764l18.897644 0l0 18.929138l-18.897644 0z" fill-rule="evenodd"/><path stroke="#434343" stroke-width="1.0" stroke-linejoin="round" stroke-linecap="butt" d="m300.75464 69.15764l18.897644 0l0 18.929138l-18.897644 0z" fill-rule="evenodd"/><path fill="#000000" d="m319.97314 69.15764l18.897614 0l0 18.929138l-18.897614 0z" fill-rule="evenodd"/><path stroke="#434343" stroke-width="1.0" stroke-linejoin="round" stroke-linecap="butt" d="m319.97314 69.15764l18.897614 0l0 18.929138l-18.897614 0z" fill-rule="evenodd"/><path fill="#000000" d="m339.20633 69.15764l18.897644 0l0 18.929138l-18.897644 0z" fill-rule="evenodd"/><path stroke="#434343" stroke-width="1.0" stroke-linejoin="round" stroke-linecap="butt" d="m339.20633 69.15764l18.897644 0l0 18.929138l-18.897644 0z" fill-rule="evenodd"/><path fill="#000000" d="m358.43527 69.15764l18.897644 0l0 18.929138l-18.897644 0z" fill-rule="evenodd"/><path stroke="#434343" stroke-width="1.0" stroke-linejoin="round" stroke-linecap="butt" d="m358.43527 69.15764l18.897644 0l0 18.929138l-18.897644 0z" fill-rule="evenodd"/><path fill="#000000" d="m223.85136 88.40969l18.897629 0l0 18.92913l-18.897629 0z" fill-rule="evenodd"/><path stroke="#434343" stroke-width="1.0" stroke-linejoin="round" stroke-linecap="butt" d="m223.85136 88.40969l18.897629 0l0 18.92913l-18.897629 0z" fill-rule="evenodd"/><path fill="#ffd966" d="m243.06984 88.40969l18.897629 0l0 18.92913l-18.897629 0z" fill-rule="evenodd"/><path stroke="#434343" stroke-width="1.0" stroke-linejoin="round" stroke-linecap="butt" d="m243.06984 88.40969l18.897629 0l0 18.92913l-18.897629 0z" fill-rule="evenodd"/><path fill="#ffd966" d="m262.303 88.40969l18.897644 0l0 18.92913l-18.897644 0z" fill-rule="evenodd"/><path stroke="#434343" stroke-width="1.0" stroke-linejoin="round" stroke-linecap="butt" d="m262.303 88.40969l18.897644 0l0 18.92913l-18.897644 0z" fill-rule="evenodd"/><path fill="#ffd966" d="m281.53198 88.40969l18.897644 0l0 18.92913l-18.897644 0z" fill-rule="evenodd"/><path stroke="#434343" stroke-width="1.0" stroke-linejoin="round" stroke-linecap="butt" d="m281.53198 88.40969l18.897644 0l0 18.92913l-18.897644 0z" fill-rule="evenodd"/><path fill="#ffd966" d="m300.75464 88.40969l18.897644 0l0 18.92913l-18.897644 0z" fill-rule="evenodd"/><path stroke="#434343" stroke-width="1.0" stroke-linejoin="round" stroke-linecap="butt" d="m300.75464 88.40969l18.897644 0l0 18.92913l-18.897644 0z" fill-rule="evenodd"/><path fill="#ffd966" d="m319.97314 88.40969l18.897614 0l0 18.92913l-18.897614 0z" fill-rule="evenodd"/><path stroke="#434343" stroke-width="1.0" stroke-linejoin="round" stroke-linecap="butt" d="m319.97314 88.40969l18.897614 0l0 18.92913l-18.897614 0z" fill-rule="evenodd"/><path fill="#000000" d="m339.20633 88.40969l18.897644 0l0 18.92913l-18.897644 0z" fill-rule="evenodd"/><path stroke="#434343" stroke-width="1.0" stroke-linejoin="round" stroke-linecap="butt" d="m339.20633 88.40969l18.897644 0l0 18.92913l-18.897644 0z" fill-rule="evenodd"/><path fill="#000000" d="m358.43527 88.40969l18.897644 0l0 18.92913l-18.897644 0z" fill-rule="evenodd"/><path stroke="#434343" stroke-width="1.0" stroke-linejoin="round" stroke-linecap="butt" d="m358.43527 88.40969l18.897644 0l0 18.92913l-18.897644 0z" fill-rule="evenodd"/><path fill="#000000" d="m223.85136 107.66174l18.897629 0l0 18.92913l-18.897629 0z" fill-rule="evenodd"/><path stroke="#434343" stroke-width="1.0" stroke-linejoin="round" stroke-linecap="butt" d="m223.85136 107.66174l18.897629 0l0 18.92913l-18.897629 0z" fill-rule="evenodd"/><path fill="#ffd966" d="m243.06984 107.66174l18.897629 0l0 18.92913l-18.897629 0z" fill-rule="evenodd"/><path stroke="#434343" stroke-width="1.0" stroke-linejoin="round" stroke-linecap="butt" d="m243.06984 107.66174l18.897629 0l0 18.92913l-18.897629 0z" fill-rule="evenodd"/><path fill="#ffd966" d="m262.303 107.66174l18.897644 0l0 18.92913l-18.897644 0z" fill-rule="evenodd"/><path stroke="#434343" stroke-width="1.0" stroke-linejoin="round" stroke-linecap="butt" d="m262.303 107.66174l18.897644 0l0 18.92913l-18.897644 0z" fill-rule="evenodd"/><path fill="#000000" d="m281.53198 107.66174l18.897644 0l0 18.92913l-18.897644 0z" fill-rule="evenodd"/><path stroke="#434343" stroke-width="1.0" stroke-linejoin="round" stroke-linecap="butt" d="m281.53198 107.66174l18.897644 0l0 18.92913l-18.897644 0z" fill-rule="evenodd"/><path fill="#000000" d="m300.75464 107.66174l18.897644 0l0 18.92913l-18.897644 0z" fill-rule="evenodd"/><path stroke="#434343" stroke-width="1.0" stroke-linejoin="round" stroke-linecap="butt" d="m300.75464 107.66174l18.897644 0l0 18.92913l-18.897644 0z" fill-rule="evenodd"/><path fill="#ffd966" d="m319.97314 107.66174l18.897614 0l0 18.92913l-18.897614 0z" fill-rule="evenodd"/><path stroke="#434343" stroke-width="1.0" stroke-linejoin="round" stroke-linecap="butt" d="m319.97314 107.66174l18.897614 0l0 18.92913l-18.897614 0z" fill-rule="evenodd"/><path fill="#ffd966" d="m339.20633 107.66174l18.897644 0l0 18.92913l-18.897644 0z" fill-rule="evenodd"/><path stroke="#434343" stroke-width="1.0" stroke-linejoin="round" stroke-linecap="butt" d="m339.20633 107.66174l18.897644 0l0 18.92913l-18.897644 0z" fill-rule="evenodd"/><path fill="#000000" d="m358.43527 107.66174l18.897644 0l0 18.92913l-18.897644 0z" fill-rule="evenodd"/><path stroke="#434343" stroke-width="1.0" stroke-linejoin="round" stroke-linecap="butt" d="m358.43527 107.66174l18.897644 0l0 18.92913l-18.897644 0z" fill-rule="evenodd"/><path fill="#000000" d="m223.85136 126.91379l18.897629 0l0 18.929138l-18.897629 0z" fill-rule="evenodd"/><path stroke="#434343" stroke-width="1.0" stroke-linejoin="round" stroke-linecap="butt" d="m223.85136 126.91379l18.897629 0l0 18.929138l-18.897629 0z" fill-rule="evenodd"/><path fill="#ffd966" d="m243.06984 126.91379l18.897629 0l0 18.929138l-18.897629 0z" fill-rule="evenodd"/><path stroke="#434343" stroke-width="1.0" stroke-linejoin="round" stroke-linecap="butt" d="m243.06984 126.91379l18.897629 0l0 18.929138l-18.897629 0z" fill-rule="evenodd"/><path fill="#ffd966" d="m262.303 126.91379l18.897644 0l0 18.929138l-18.897644 0z" fill-rule="evenodd"/><path stroke="#434343" stroke-width="1.0" stroke-linejoin="round" stroke-linecap="butt" d="m262.303 126.91379l18.897644 0l0 18.929138l-18.897644 0z" fill-rule="evenodd"/><path fill="#000000" d="m281.53198 126.91379l18.897644 0l0 18.929138l-18.897644 0z" fill-rule="evenodd"/><path stroke="#434343" stroke-width="1.0" stroke-linejoin="round" stroke-linecap="butt" d="m281.53198 126.91379l18.897644 0l0 18.929138l-18.897644 0z" fill-rule="evenodd"/><path fill="#000000" d="m300.75464 126.91379l18.897644 0l0 18.929138l-18.897644 0z" fill-rule="evenodd"/><path stroke="#434343" stroke-width="1.0" stroke-linejoin="round" stroke-linecap="butt" d="m300.75464 126.91379l18.897644 0l0 18.929138l-18.897644 0z" fill-rule="evenodd"/><path fill="#ffd966" d="m319.97314 126.91379l18.897614 0l0 18.929138l-18.897614 0z" fill-rule="evenodd"/><path stroke="#434343" stroke-width="1.0" stroke-linejoin="round" stroke-linecap="butt" d="m319.97314 126.91379l18.897614 0l0 18.929138l-18.897614 0z" fill-rule="evenodd"/><path fill="#ffd966" d="m339.20633 126.91379l18.897644 0l0 18.929138l-18.897644 0z" fill-rule="evenodd"/><path stroke="#434343" stroke-width="1.0" stroke-linejoin="round" stroke-linecap="butt" d="m339.20633 126.91379l18.897644 0l0 18.929138l-18.897644 0z" fill-rule="evenodd"/><path fill="#000000" d="m358.43527 126.91379l18.897644 0l0 18.929138l-18.897644 0z" fill-rule="evenodd"/><path stroke="#434343" stroke-width="1.0" stroke-linejoin="round" stroke-linecap="butt" d="m358.43527 126.91379l18.897644 0l0 18.929138l-18.897644 0z" fill-rule="evenodd"/><path fill="#000000" d="m223.85136 146.16583l18.897629 0l0 18.929138l-18.897629 0z" fill-rule="evenodd"/><path stroke="#434343" stroke-width="1.0" stroke-linejoin="round" stroke-linecap="butt" d="m223.85136 146.16583l18.897629 0l0 18.929138l-18.897629 0z" fill-rule="evenodd"/><path fill="#ffd966" d="m243.06984 146.16583l18.897629 0l0 18.929138l-18.897629 0z" fill-rule="evenodd"/><path stroke="#434343" stroke-width="1.0" stroke-linejoin="round" stroke-linecap="butt" d="m243.06984 146.16583l18.897629 0l0 18.929138l-18.897629 0z" fill-rule="evenodd"/><path fill="#ffd966" d="m262.303 146.16583l18.897644 0l0 18.929138l-18.897644 0z" fill-rule="evenodd"/><path stroke="#434343" stroke-width="1.0" stroke-linejoin="round" stroke-linecap="butt" d="m262.303 146.16583l18.897644 0l0 18.929138l-18.897644 0z" fill-rule="evenodd"/><path fill="#000000" d="m281.53198 146.16583l18.897644 0l0 18.929138l-18.897644 0z" fill-rule="evenodd"/><path stroke="#434343" stroke-width="1.0" stroke-linejoin="round" stroke-linecap="butt" d="m281.53198 146.16583l18.897644 0l0 18.929138l-18.897644 0z" fill-rule="evenodd"/><path fill="#000000" d="m300.75464 146.16583l18.897644 0l0 18.929138l-18.897644 0z" fill-rule="evenodd"/><path stroke="#434343" stroke-width="1.0" stroke-linejoin="round" stroke-linecap="butt" d="m300.75464 146.16583l18.897644 0l0 18.929138l-18.897644 0z" fill-rule="evenodd"/><path fill="#ffd966" d="m319.97314 146.16583l18.897614 0l0 18.929138l-18.897614 0z" fill-rule="evenodd"/><path stroke="#434343" stroke-width="1.0" stroke-linejoin="round" stroke-linecap="butt" d="m319.97314 146.16583l18.897614 0l0 18.929138l-18.897614 0z" fill-rule="evenodd"/><path fill="#ffd966" d="m339.20633 146.16583l18.897644 0l0 18.929138l-18.897644 0z" fill-rule="evenodd"/><path stroke="#434343" stroke-width="1.0" stroke-linejoin="round" stroke-linecap="butt" d="m339.20633 146.16583l18.897644 0l0 18.929138l-18.897644 0z" fill-rule="evenodd"/><path fill="#000000" d="m358.43527 146.16583l18.897644 0l0 18.929138l-18.897644 0z" fill-rule="evenodd"/><path stroke="#434343" stroke-width="1.0" stroke-linejoin="round" stroke-linecap="butt" d="m358.43527 146.16583l18.897644 0l0 18.929138l-18.897644 0z" fill-rule="evenodd"/><path fill="#ffd966" d="m223.85136 165.4179l18.897629 0l0 18.929123l-18.897629 0z" fill-rule="evenodd"/><path stroke="#434343" stroke-width="1.0" stroke-linejoin="round" stroke-linecap="butt" d="m223.85136 165.4179l18.897629 0l0 18.929123l-18.897629 0z" fill-rule="evenodd"/><path fill="#ffd966" d="m243.06984 165.4179l18.897629 0l0 18.929123l-18.897629 0z" fill-rule="evenodd"/><path stroke="#434343" stroke-width="1.0" stroke-linejoin="round" stroke-linecap="butt" d="m243.06984 165.4179l18.897629 0l0 18.929123l-18.897629 0z" fill-rule="evenodd"/><path fill="#000000" d="m262.303 165.4179l18.897644 0l0 18.929123l-18.897644 0z" fill-rule="evenodd"/><path stroke="#434343" stroke-width="1.0" stroke-linejoin="round" stroke-linecap="butt" d="m262.303 165.4179l18.897644 0l0 18.929123l-18.897644 0z" fill-rule="evenodd"/><path fill="#ffd966" d="m281.53198 165.4179l18.897644 0l0 18.929123l-18.897644 0z" fill-rule="evenodd"/><path stroke="#434343" stroke-width="1.0" stroke-linejoin="round" stroke-linecap="butt" d="m281.53198 165.4179l18.897644 0l0 18.929123l-18.897644 0z" fill-rule="evenodd"/><path fill="#ffd966" d="m300.75464 165.4179l18.897644 0l0 18.929123l-18.897644 0z" fill-rule="evenodd"/><path stroke="#434343" stroke-width="1.0" stroke-linejoin="round" stroke-linecap="butt" d="m300.75464 165.4179l18.897644 0l0 18.929123l-18.897644 0z" fill-rule="evenodd"/><path fill="#ffd966" d="m319.97314 165.4179l18.897614 0l0 18.929123l-18.897614 0z" fill-rule="evenodd"/><path stroke="#434343" stroke-width="1.0" stroke-linejoin="round" stroke-linecap="butt" d="m319.97314 165.4179l18.897614 0l0 18.929123l-18.897614 0z" fill-rule="evenodd"/><path fill="#000000" d="m339.20633 165.4179l18.897644 0l0 18.929123l-18.897644 0z" fill-rule="evenodd"/><path stroke="#434343" stroke-width="1.0" stroke-linejoin="round" stroke-linecap="butt" d="m339.20633 165.4179l18.897644 0l0 18.929123l-18.897644 0z" fill-rule="evenodd"/><path fill="#000000" d="m358.43527 165.4179l18.897644 0l0 18.929123l-18.897644 0z" fill-rule="evenodd"/><path stroke="#434343" stroke-width="1.0" stroke-linejoin="round" stroke-linecap="butt" d="m358.43527 165.4179l18.897644 0l0 18.929123l-18.897644 0z" fill-rule="evenodd"/></g></svg>