<svg version="1.1" viewBox="0.0 0.0 566.2598425196851 374.9002624671916" fill="none" stroke="none" stroke-linecap="square" stroke-miterlimit="10" xmlns:xlink="http://www.w3.org/1999/xlink" xmlns="http://www.w3.org/2000/svg"><clipPath id="p.0"><path d="m0 0l566.2598 0l0 374.90027l-566.2598 0l0 -374.90027z" clip-rule="nonzero"/></clipPath><g clip-path="url(#p.0)"><path fill="#000000" fill-opacity="0.0" d="m0 0l566.2598 0l0 374.90027l-566.2598 0z" fill-rule="evenodd"/><path fill="#f3f3f3" d="m0 0.7007874l565.7953 0l0 374.20474l-565.7953 0z" fill-rule="evenodd"/><path fill="#000000" fill-opacity="0.0" d="m491.3596 315.2047l0 24.0l-340.0 0" fill-rule="evenodd"/><path stroke="#6aa84f" stroke-width="1.0" stroke-linejoin="round" stroke-linecap="butt" d="m491.3596 315.2047l0 24.0l-340.0 0" fill-rule="evenodd"/><path fill="#ffffff" d="m399.3596 115.20473l151.99997 0l0 199.99998l-151.99997 0z" fill-rule="evenodd"/><path fill="#cfe2f3" d="m551.35956 115.20473l-151.99997 0l0 199.99998l151.99997 0" fill-rule="evenodd"/><path stroke="#000000" stroke-width="2.0" stroke-linejoin="round" stroke-linecap="butt" d="m551.35956 115.20473l-151.99997 0l0 199.99998l151.99997 0" fill-rule="evenodd"/><path fill="#ffffff" d="m395.1096 147.20473l8.0 0l0 24.0l-8.0 0z" fill-rule="evenodd"/><path stroke="#000000" stroke-width="1.0" stroke-linejoin="round" stroke-linecap="butt" d="m395.1096 147.20473l8.0 0l0 24.0l-8.0 0z" fill-rule="evenodd"/><path fill="#ffffff" d="m395.1096 203.20473l8.0 0l0 24.0l-8.0 0z" fill-rule="evenodd"/><path stroke="#000000" stroke-width="1.0" stroke-linejoin="round" stroke-linecap="butt" d="m395.1096 203.20473l8.0 0l0 24.0l-8.0 0z" fill-rule="evenodd"/><path fill="#ffffff" d="m395.3596 259.2047l8.0 0l0 24.0l-8.0 0z" fill-rule="evenodd"/><path stroke="#000000" stroke-width="1.0" stroke-linejoin="round" stroke-linecap="butt" d="m395.3596 259.2047l8.0 0l0 24.0l-8.0 0z" fill-rule="evenodd"/><path fill="#ffffff" d="m479.3596 315.2047l12.0 -16.0l12.0 16.0z" fill-rule="evenodd"/><path stroke="#000000" stroke-width="1.0" stroke-linejoin="round" stroke-linecap="butt" d="m479.3596 315.2047l12.0 -16.0l12.0 16.0z" fill-rule="evenodd"/><path fill="#b6d7a8" d="m87.35958 315.2047l63.999992 0l0 48.0l-63.999992 0z" fill-rule="evenodd"/><path stroke="#000000" stroke-width="2.0" stroke-linejoin="round" stroke-linecap="butt" d="m87.35958 315.2047l63.999992 0l0 48.0l-63.999992 0z" fill-rule="evenodd"/><path fill="#000000" d="m104.19958 346.12473l0 -13.359375l5.046875 0q1.328125 0 2.03125 0.125q0.96875 0.171875 1.640625 0.640625q0.671875 0.453125 1.078125 1.28125q0.40625 0.828125 0.40625 1.828125q0 1.703125 -1.09375 2.890625q-1.078125 1.171875 -3.921875 1.171875l-3.421875 0l0 5.421875l-1.765625 0zm1.765625 -7.0l3.453125 0q1.71875 0 2.4375 -0.640625q0.71875 -0.640625 0.71875 -1.796875q0 -0.84375 -0.421875 -1.4375q-0.421875 -0.59375 -1.125 -0.78125q-0.4375 -0.125 -1.640625 -0.125l-3.421875 0l0 4.78125zm10.599823 7.0l0 -13.359375l1.78125 0l0 11.78125l6.5625 0l0 1.578125l-8.34375 0zm10.375717 0l0 -13.359375l1.7812424 0l0 11.78125l6.5625 0l0 1.578125l-8.343742 0z" fill-rule="nonzero"/><path fill="#ffffff" d="m87.35958 331.2047l8.0 8.0l-8.0 8.0z" fill-rule="evenodd"/><path stroke="#000000" stroke-width="1.0" stroke-linejoin="round" stroke-linecap="butt" d="m87.35958 331.2047l8.0 8.0l-8.0 8.0z" fill-rule="evenodd"/><path fill="#000000" fill-opacity="0.0" d="m343.3596 215.20473l51.748016 0" fill-rule="evenodd"/><path stroke="#000000" stroke-width="1.0" stroke-linejoin="round" stroke-linecap="butt" d="m343.3596 215.20473l45.748016 0" fill-rule="evenodd"/><path fill="#000000" stroke="#000000" stroke-width="1.0" stroke-linecap="butt" d="m389.1076 216.85646l4.5381165 -1.6517334l-4.5381165 -1.6517334z" fill-rule="evenodd"/><path fill="#000000" fill-opacity="0.0" d="m271.6096 159.20473l61.75049 0l0 0.06298828l61.745575 0" fill-rule="evenodd"/><path stroke="#000000" stroke-width="1.0" stroke-linejoin="round" stroke-linecap="butt" d="m271.6096 159.20473l61.75049 0l0 0.06298828l55.745575 0" fill-rule="evenodd"/><path fill="#000000" stroke="#000000" stroke-width="1.0" stroke-linecap="butt" d="m389.10565 160.91945l4.538086 -1.6517334l-4.538086 -1.6517334z" fill-rule="evenodd"/><path fill="#000000" fill-opacity="0.0" d="m271.6096 183.20473l23.87497 0l0 24.0l23.873047 0" fill-rule="evenodd"/><path stroke="#000000" stroke-width="1.0" stroke-linejoin="round" stroke-linecap="butt" d="m271.6096 183.20473l23.87497 0l0 24.0l23.873047 0" fill-rule="evenodd"/><path fill="#000000" fill-opacity="0.0" d="m223.35957 247.20473l72.501114 0l0 -24.0l23.498901 0" fill-rule="evenodd"/><path stroke="#000000" stroke-width="1.0" stroke-linejoin="round" stroke-linecap="butt" d="m223.35957 247.20473l72.501114 0l0 -24.0l23.498901 0" fill-rule="evenodd"/><path fill="#cccccc" d="m319.3596 203.20473l8.0 0l0 8.0l-8.0 0z" fill-rule="evenodd"/><path stroke="#000000" stroke-width="1.0" stroke-linejoin="round" stroke-linecap="butt" d="m319.3596 203.20473l8.0 0l0 8.0l-8.0 0z" fill-rule="evenodd"/><path fill="#cccccc" d="m319.3596 219.20473l8.0 0l0 8.0l-8.0 0z" fill-rule="evenodd"/><path stroke="#000000" stroke-width="1.0" stroke-linejoin="round" stroke-linecap="butt" d="m319.3596 219.20473l8.0 0l0 8.0l-8.0 0z" fill-rule="evenodd"/><path fill="#cccccc" d="m319.3596 203.20473l12.0 0l0 0c6.627411 0 12.0 5.372574 12.0 12.0c0 6.627411 -5.372589 12.0 -12.0 12.0l-12.0 0z" fill-rule="evenodd"/><path stroke="#000000" stroke-width="1.0" stroke-linejoin="round" stroke-linecap="butt" d="m319.3596 203.20473l12.0 0l0 0c6.627411 0 12.0 5.372574 12.0 12.0c0 6.627411 -5.372589 12.0 -12.0 12.0l-12.0 0z" fill-rule="evenodd"/><path fill="#000000" fill-opacity="0.0" d="m223.35957 271.2047l86.000015 0l0 0.0630188l86.0 0" fill-rule="evenodd"/><path stroke="#000000" stroke-width="1.0" stroke-linejoin="round" stroke-linecap="butt" d="m223.35957 271.2047l86.000015 0l0 0.0630188l80.0 0" fill-rule="evenodd"/><path fill="#000000" stroke="#000000" stroke-width="1.0" stroke-linecap="butt" d="m389.3596 272.91946l4.538086 -1.6517334l-4.538086 -1.6517334z" fill-rule="evenodd"/><path fill="#ffffff" d="m203.60957 147.20473l64.000015 0l0 48.0l-64.000015 0z" fill-rule="evenodd"/><path stroke="#000000" stroke-width="2.0" stroke-linejoin="round" stroke-linecap="butt" d="m203.60957 147.20473l64.000015 0l0 48.0l-64.000015 0z" fill-rule="evenodd"/><path fill="#000000" d="m234.63779 178.12473l-5.171875 -13.359375l1.921875 0l3.46875 9.703125q0.421875 1.171875 0.703125 2.1875q0.3125 -1.09375 0.71875 -2.1875l3.609375 -9.703125l1.796875 0l-5.234375 13.359375l-1.8125 0z" fill-rule="nonzero"/><path fill="#ffffff" d="m227.60957 195.20473l8.0 -8.0l8.0 8.0z" fill-rule="evenodd"/><path stroke="#000000" stroke-width="1.0" stroke-linejoin="round" stroke-linecap="butt" d="m227.60957 195.20473l8.0 -8.0l8.0 8.0z" fill-rule="evenodd"/><path fill="#ffffff" d="m199.35957 155.20473l8.0 0l0 8.0l-8.0 0z" fill-rule="evenodd"/><path stroke="#000000" stroke-width="1.0" stroke-linejoin="round" stroke-linecap="butt" d="m199.35957 155.20473l8.0 0l0 8.0l-8.0 0z" fill-rule="evenodd"/><path fill="#ffffff" d="m263.6096 179.20473l8.0 0l0 8.0l-8.0 0z" fill-rule="evenodd"/><path stroke="#000000" stroke-width="1.0" stroke-linejoin="round" stroke-linecap="butt" d="m263.6096 179.20473l8.0 0l0 8.0l-8.0 0z" fill-rule="evenodd"/><path fill="#ffffff" d="m263.6096 155.20473l8.0 0l0 8.0l-8.0 0z" fill-rule="evenodd"/><path stroke="#000000" stroke-width="1.0" stroke-linejoin="round" stroke-linecap="butt" d="m263.6096 155.20473l8.0 0l0 8.0l-8.0 0z" fill-rule="evenodd"/><path fill="#000000" fill-opacity="0.0" d="m151.35957 339.2047l36.0 0l0 -56.0" fill-rule="evenodd"/><path stroke="#6aa84f" stroke-width="1.0" stroke-linejoin="round" stroke-linecap="butt" d="m151.35957 339.2047l36.0 0l0 -56.0" fill-rule="evenodd"/><path fill="#000000" fill-opacity="0.0" d="m239.35957 251.20473l56.000015 0l0 29.070877l-56.000015 0z" fill-rule="evenodd"/><path fill="#000000" d="m248.89082 267.88474l0 -5.734375l0.703125 0l0 2.0625q0.484375 -0.578125 1.234375 -0.578125q0.46875 0 0.796875 0.1875q0.34375 0.1875 0.484375 0.515625q0.15625 0.3125 0.15625 0.921875l0 2.625l-0.703125 0l0 -2.625q0 -0.53125 -0.234375 -0.765625q-0.21875 -0.25 -0.640625 -0.25q-0.3125 0 -0.59375 0.171875q-0.265625 0.15625 -0.390625 0.4375q-0.109375 0.265625 -0.109375 0.765625l0 2.265625l-0.703125 0zm4.1679688 -1.234375l0.6875 -0.109375q0.0625 0.40625 0.328125 0.640625q0.265625 0.21875 0.75 0.21875q0.484375 0 0.71875 -0.1875q0.234375 -0.203125 0.234375 -0.46875q0 -0.25 -0.203125 -0.375q-0.140625 -0.09375 -0.71875 -0.25q-0.78125 -0.1875 -1.078125 -0.328125q-0.296875 -0.140625 -0.453125 -0.390625q-0.15625 -0.265625 -0.15625 -0.5625q0 -0.28125 0.125 -0.515625q0.140625 -0.234375 0.359375 -0.390625q0.15625 -0.125 0.4375 -0.203125q0.28125 -0.09375 0.609375 -0.09375q0.484375 0 0.859375 0.140625q0.375 0.140625 0.54689026 0.390625q0.171875 0.234375 0.234375 0.640625l-0.68751526 0.09375q-0.046875 -0.328125 -0.265625 -0.5q-0.21875 -0.1875 -0.640625 -0.1875q-0.484375 0 -0.6875 0.171875q-0.203125 0.15625 -0.203125 0.375q0 0.125 0.078125 0.234375q0.09375 0.125 0.28125 0.1875q0.09375 0.046875 0.609375 0.1875q0.75 0.203125 1.046875 0.328125q0.29689026 0.125 0.45314026 0.375q0.171875 0.234375 0.171875 0.59375q0 0.34375 -0.203125 0.65625q-0.203125 0.3125 -0.59376526 0.484375q-0.375 0.171875 -0.875 0.171875q-0.796875 0 -1.234375 -0.328125q-0.421875 -0.34375 -0.53125 -1.0zm4.2500153 2.828125l-0.078125 -0.65625q0.234375 0.0625 0.40625 0.0625q0.234375 0 0.375 -0.078125q0.140625 -0.078125 0.21875 -0.21875q0.078125 -0.109375 0.21875 -0.515625q0.015625 -0.0625 0.0625 -0.171875l-1.578125 -4.171875l0.765625 0l0.859375 2.40625q0.171875 0.453125 0.296875 0.96875q0.125 -0.484375 0.296875 -0.953125l0.890625 -2.421875l0.703125 0l-1.578125 4.234375q-0.265625 0.671875 -0.40625 0.9375q-0.1875 0.34375 -0.4375 0.5q-0.234375 0.171875 -0.5625 0.171875q-0.203125 0 -0.453125 -0.09375zm4.03125 -1.59375l0 -4.15625l0.625 0l0 0.59375q0.46875 -0.6875 1.328125 -0.6875q0.375 0 0.6875 0.140625q0.3125 0.140625 0.46875 0.359375q0.15625 0.21875 0.21875 0.515625q0.046875 0.1875 0.046875 0.6875l0 2.546875l-0.703125 0l0 -2.53125q0 -0.421875 -0.09375 -0.625q-0.078125 -0.21875 -0.296875 -0.34375q-0.203125 -0.140625 -0.484375 -0.140625q-0.4375 0 -0.765625 0.296875q-0.328125 0.28125 -0.328125 1.078125l0 2.265625l-0.703125 0zm7.1523438 -1.515625l0.6875 0.078125q-0.109375 0.71875 -0.578125 1.125q-0.46875 0.40625 -1.140625 0.40625q-0.859375 0 -1.375 -0.546875q-0.515625 -0.5625 -0.515625 -1.609375q0 -0.671875 0.21875 -1.171875q0.234375 -0.5 0.6875 -0.75q0.453125 -0.265625 0.984375 -0.265625q0.671875 0 1.09375 0.34375q0.4375 0.34375 0.5625 0.96875l-0.6875 0.109375q-0.09375 -0.421875 -0.34375 -0.625q-0.25 -0.21875 -0.59375 -0.21875q-0.53125 0 -0.875 0.390625q-0.328125 0.375 -0.328125 1.203125q0 0.828125 0.3125 1.21875q0.328125 0.375 0.84375 0.375q0.421875 0 0.6875 -0.25q0.28125 -0.265625 0.359375 -0.78125z" fill-rule="nonzero"/><path fill="#000000" fill-opacity="0.0" d="m271.3596 139.20473l56.0 0l0 33.921265l-56.0 0z" fill-rule="evenodd"/><path fill="#000000" d="m282.0471 155.88472l-1.578125 -4.15625l0.734375 0l0.890625 2.484375q0.140625 0.40625 0.265625 0.84375q0.09375 -0.328125 0.265625 -0.796875l0.921875 -2.53125l0.71875 0l-1.5625 4.15625l-0.65625 0zm2.5625 -1.234375l0.6875 -0.109375q0.0625 0.40625 0.328125 0.640625q0.265625 0.21875 0.75 0.21875q0.484375 0 0.71875 -0.1875q0.234375 -0.203125 0.234375 -0.46875q0 -0.25 -0.203125 -0.375q-0.140625 -0.09375 -0.71875 -0.25q-0.78125 -0.1875 -1.078125 -0.328125q-0.296875 -0.140625 -0.453125 -0.390625q-0.15625 -0.265625 -0.15625 -0.5625q0 -0.28125 0.125 -0.515625q0.140625 -0.234375 0.359375 -0.390625q0.15625 -0.125 0.4375 -0.203125q0.28125 -0.09375 0.609375 -0.09375q0.484375 0 0.859375 0.140625q0.375 0.140625 0.546875 0.390625q0.171875 0.234375 0.234375 0.640625l-0.6875 0.09375q-0.046875 -0.328125 -0.265625 -0.5q-0.21875 -0.1875 -0.640625 -0.1875q-0.484375 0 -0.6875 0.171875q-0.203125 0.15625 -0.203125 0.375q0 0.125 0.078125 0.234375q0.09375 0.125 0.28125 0.1875q0.09375 0.046875 0.609375 0.1875q0.75 0.203125 1.046875 0.328125q0.296875 0.125 0.453125 0.375q0.171875 0.234375 0.171875 0.59375q0 0.34375 -0.203125 0.65625q-0.203125 0.3125 -0.59375 0.484375q-0.375 0.171875 -0.875 0.171875q-0.796875 0 -1.234375 -0.328125q-0.421875 -0.34375 -0.53125 -1.0zm4.25 2.828125l-0.078125 -0.65625q0.234375 0.0625 0.40625 0.0625q0.234375 0 0.375 -0.078125q0.140625 -0.078125 0.21875 -0.21875q0.078125 -0.109375 0.21875 -0.515625q0.015625 -0.0625 0.0625 -0.171875l-1.578125 -4.171875l0.765625 0l0.859375 2.40625q0.171875 0.453125 0.296875 0.96875q0.125 -0.484375 0.296875 -0.953125l0.890625 -2.421875l0.703125 0l-1.578125 4.234375q-0.265625 0.671875 -0.40625 0.9375q-0.1875 0.34375 -0.4375 0.5q-0.234375 0.171875 -0.5625 0.171875q-0.203125 0 -0.453125 -0.09375zm4.03125 -1.59375l0 -4.15625l0.625 0l0 0.59375q0.46875 -0.6875 1.328125 -0.6875q0.375 0 0.6875 0.140625q0.3125 0.140625 0.46875 0.359375q0.15625 0.21875 0.21875 0.515625q0.046875 0.1875 0.046875 0.6875l0 2.546875l-0.703125 0l0 -2.53125q0 -0.421875 -0.09375 -0.625q-0.078125 -0.21875 -0.296875 -0.34375q-0.203125 -0.140625 -0.484375 -0.140625q-0.4375 0 -0.765625 0.296875q-0.328125 0.28125 -0.328125 1.078125l0 2.265625l-0.703125 0zm7.1523438 -1.515625l0.6875 0.078125q-0.109375 0.71875 -0.578125 1.125q-0.46875 0.40625 -1.140625 0.40625q-0.859375 0 -1.375 -0.546875q-0.515625 -0.5625 -0.515625 -1.609375q0 -0.671875 0.21875 -1.171875q0.234375 -0.5 0.6875 -0.75q0.453125 -0.265625 0.984375 -0.265625q0.671875 0 1.09375 0.34375q0.4375 0.34375 0.5625 0.96875l-0.6875 0.109375q-0.09375 -0.421875 -0.34375 -0.625q-0.25 -0.21875 -0.59375 -0.21875q-0.53125 0 -0.875 0.390625q-0.328125 0.375 -0.328125 1.203125q0 0.828125 0.3125 1.21875q0.328125 0.375 0.84375 0.375q0.421875 0 0.6875 -0.25q0.28125 -0.265625 0.359375 -0.78125z" fill-rule="nonzero"/><path fill="#000000" fill-opacity="0.0" d="m463.3596 193.18898l71.99997 0l0 42.015747l-71.99997 0z" fill-rule="evenodd"/><path fill="#000000" d="m473.71896 220.10898l0 -13.359375l1.78125 0l0 11.78125l6.5625 0l0 1.578125l-8.34375 0zm19.985077 -4.6875l1.765625 0.453125q-0.5625 2.171875 -2.0 3.328125q-1.4375 1.140625 -3.53125 1.140625q-2.15625 0 -3.515625 -0.875q-1.34375 -0.890625 -2.0625 -2.546875q-0.703125 -1.671875 -0.703125 -3.59375q0 -2.078125 0.796875 -3.625q0.796875 -1.5625 2.265625 -2.359375q1.484375 -0.8125 3.25 -0.8125q2.0 0 3.359375 1.015625q1.375 1.015625 1.90625 2.875l-1.734375 0.40625q-0.46875 -1.453125 -1.359375 -2.109375q-0.875 -0.671875 -2.203125 -0.671875q-1.546875 0 -2.578125 0.734375q-1.03125 0.734375 -1.453125 1.984375q-0.421875 1.234375 -0.421875 2.5625q0 1.703125 0.5 2.96875q0.5 1.265625 1.546875 1.90625q1.046875 0.625 2.265625 0.625q1.484375 0 2.515625 -0.859375q1.03125 -0.859375 1.390625 -2.546875zm3.9417114 4.6875l0 -13.359375l4.609375 0q1.546875 0 2.375 0.203125q1.140625 0.25 1.953125 0.953125q1.0625 0.890625 1.578125 2.28125q0.53125 1.390625 0.53125 3.171875q0 1.515625 -0.359375 2.703125q-0.359375 1.171875 -0.921875 1.9375q-0.546875 0.765625 -1.203125 1.21875q-0.65625 0.4375 -1.59375 0.671875q-0.9375 0.21875 -2.140625 0.21875l-4.828125 0zm1.765625 -1.578125l2.859375 0q1.3125 0 2.0625 -0.234375q0.75 -0.25 1.203125 -0.703125q0.625 -0.625 0.96875 -1.6875q0.359375 -1.0625 0.359375 -2.578125q0 -2.09375 -0.6875 -3.21875q-0.6875 -1.125 -1.671875 -1.5q-0.703125 -0.28125 -2.28125 -0.28125l-2.8125 0l0 10.203125z" fill-rule="nonzero"/><path fill="#000000" fill-opacity="0.0" d="m151.35957 318.13385l56.0 0l0 29.070862l-56.0 0z" fill-rule="evenodd"/><path fill="#000000" d="m163.59395 333.29825l0.6875 0.078125q-0.109375 0.71875 -0.578125 1.125q-0.46875 0.40625 -1.140625 0.40625q-0.859375 0 -1.375 -0.546875q-0.515625 -0.5625 -0.515625 -1.609375q0 -0.671875 0.21875 -1.171875q0.234375 -0.5 0.6875 -0.75q0.453125 -0.265625 0.984375 -0.265625q0.671875 0 1.09375 0.34375q0.4375 0.34375 0.5625 0.96875l-0.6875 0.109375q-0.09375 -0.421875 -0.34375 -0.625q-0.25 -0.21875 -0.59375 -0.21875q-0.53125 0 -0.875 0.390625q-0.328125 0.375 -0.328125 1.203125q0 0.828125 0.3125 1.21875q0.328125 0.375 0.84375 0.375q0.421875 0 0.6875 -0.25q0.28125 -0.265625 0.359375 -0.78125zm1.28125 1.515625l0 -5.734375l0.703125 0l0 5.734375l-0.703125 0zm1.7929688 0l0 -5.734375l0.703125 0l0 3.265625l1.671875 -1.6875l0.90625 0l-1.59375 1.546875l1.75 2.609375l-0.859375 0l-1.375 -2.125l-0.5 0.484375l0 1.640625l-0.703125 0z" fill-rule="nonzero"/><path fill="#000000" fill-opacity="0.0" d="m239.35957 227.20473l56.000015 0l0 29.070877l-56.000015 0z" fill-rule="evenodd"/><path fill="#000000" d="m248.89082 243.88472l0 -5.734375l0.703125 0l0 2.0625q0.484375 -0.578125 1.234375 -0.578125q0.46875 0 0.796875 0.1875q0.34375 0.1875 0.484375 0.515625q0.15625 0.3125 0.15625 0.921875l0 2.625l-0.703125 0l0 -2.625q0 -0.53125 -0.234375 -0.765625q-0.21875 -0.25 -0.640625 -0.25q-0.3125 0 -0.59375 0.171875q-0.265625 0.15625 -0.390625 0.4375q-0.109375 0.265625 -0.109375 0.765625l0 2.265625l-0.703125 0zm7.292984 -1.34375l0.71875 0.09375q-0.171875 0.640625 -0.640625 1.0q-0.45314026 0.34375 -1.1875153 0.34375q-0.90625 0 -1.4375 -0.5625q-0.53125 -0.5625 -0.53125 -1.578125q0 -1.046875 0.53125 -1.625q0.546875 -0.578125 1.40625 -0.578125q0.828125 0 1.3593903 0.578125q0.53125 0.5625 0.53125 1.59375q0 0.0625 -0.015625 0.1875l-3.0937653 0q0.046875 0.671875 0.390625 1.046875q0.34375 0.359375 0.875 0.359375q0.375 0 0.640625 -0.203125q0.28126526 -0.203125 0.45314026 -0.65625zm-2.3125153 -1.125l2.3125153 0q-0.046875 -0.53125 -0.26564026 -0.796875q-0.328125 -0.40625 -0.875 -0.40625q-0.484375 0 -0.8125 0.328125q-0.328125 0.328125 -0.359375 0.875zm3.917984 2.46875l0 -4.15625l0.625 0l0 0.59375q0.46875 -0.6875 1.328125 -0.6875q0.375 0 0.6875 0.140625q0.3125 0.140625 0.46875 0.359375q0.15625 0.21875 0.21875 0.515625q0.046875 0.1875 0.046875 0.6875l0 2.546875l-0.703125 0l0 -2.53125q0 -0.421875 -0.09375 -0.625q-0.078125 -0.21875 -0.296875 -0.34375q-0.203125 -0.140625 -0.484375 -0.140625q-0.4375 0 -0.765625 0.296875q-0.328125 0.28125 -0.328125 1.078125l0 2.265625l-0.703125 0zm7.1523438 -0.515625q-0.390625 0.328125 -0.75 0.46875q-0.359375 0.140625 -0.78125 0.140625q-0.671875 0 -1.046875 -0.328125q-0.359375 -0.34375 -0.359375 -0.859375q0 -0.3125 0.125 -0.5625q0.140625 -0.25 0.359375 -0.390625q0.234375 -0.15625 0.515625 -0.234375q0.203125 -0.0625 0.625 -0.109375q0.859375 -0.109375 1.25 -0.25q0.015625 -0.140625 0.015625 -0.171875q0 -0.4375 -0.203125 -0.609375q-0.265625 -0.234375 -0.796875 -0.234375q-0.5 0 -0.734375 0.171875q-0.234375 0.171875 -0.359375 0.609375l-0.6875 -0.09375q0.09375 -0.4375 0.3125 -0.703125q0.21875 -0.28125 0.625 -0.421875q0.40625 -0.15625 0.9375 -0.15625q0.53125 0 0.859375 0.125q0.34375 0.125 0.5 0.328125q0.15625 0.1875 0.21875 0.46875q0.03125 0.1875 0.03125 0.65625l0 0.9375q0 0.96875 0.046875 1.234375q0.046875 0.265625 0.171875 0.5l-0.734375 0q-0.109375 -0.21875 -0.140625 -0.515625zm-0.0625 -1.5625q-0.375 0.15625 -1.140625 0.265625q-0.4375 0.0625 -0.625 0.140625q-0.171875 0.078125 -0.265625 0.234375q-0.09375 0.140625 -0.09375 0.328125q0 0.28125 0.203125 0.46875q0.21875 0.1875 0.625 0.1875q0.40625 0 0.71875 -0.171875q0.328125 -0.1875 0.46875 -0.5q0.109375 -0.234375 0.109375 -0.703125l0 -0.25z" fill-rule="nonzero"/><path fill="#000000" fill-opacity="0.0" d="m271.3596 163.20473l56.0 0l0 29.070862l-56.0 0z" fill-rule="evenodd"/><path fill="#000000" d="m282.0471 179.88472l-1.578125 -4.15625l0.734375 0l0.890625 2.484375q0.140625 0.40625 0.265625 0.84375q0.09375 -0.328125 0.265625 -0.796875l0.921875 -2.53125l0.71875 0l-1.5625 4.15625l-0.65625 0zm5.6875 -1.34375l0.71875 0.09375q-0.171875 0.640625 -0.640625 1.0q-0.453125 0.34375 -1.1875 0.34375q-0.90625 0 -1.4375 -0.5625q-0.53125 -0.5625 -0.53125 -1.578125q0 -1.046875 0.53125 -1.625q0.546875 -0.578125 1.40625 -0.578125q0.828125 0 1.359375 0.578125q0.53125 0.5625 0.53125 1.59375q0 0.0625 -0.015625 0.1875l-3.09375 0q0.046875 0.671875 0.390625 1.046875q0.34375 0.359375 0.875 0.359375q0.375 0 0.640625 -0.203125q0.28125 -0.203125 0.453125 -0.65625zm-2.3125 -1.125l2.3125 0q-0.046875 -0.53125 -0.265625 -0.796875q-0.328125 -0.40625 -0.875 -0.40625q-0.484375 0 -0.8125 0.328125q-0.328125 0.328125 -0.359375 0.875zm3.9179688 2.46875l0 -4.15625l0.625 0l0 0.59375q0.46875 -0.6875 1.328125 -0.6875q0.375 0 0.6875 0.140625q0.3125 0.140625 0.46875 0.359375q0.15625 0.21875 0.21875 0.515625q0.046875 0.1875 0.046875 0.6875l0 2.546875l-0.703125 0l0 -2.53125q0 -0.421875 -0.09375 -0.625q-0.078125 -0.21875 -0.296875 -0.34375q-0.203125 -0.140625 -0.484375 -0.140625q-0.4375 0 -0.765625 0.296875q-0.328125 0.28125 -0.328125 1.078125l0 2.265625l-0.703125 0zm7.1523438 -0.515625q-0.390625 0.328125 -0.75 0.46875q-0.359375 0.140625 -0.78125 0.140625q-0.671875 0 -1.046875 -0.328125q-0.359375 -0.34375 -0.359375 -0.859375q0 -0.3125 0.125 -0.5625q0.140625 -0.25 0.359375 -0.390625q0.234375 -0.15625 0.515625 -0.234375q0.203125 -0.0625 0.625 -0.109375q0.859375 -0.109375 1.25 -0.25q0.015625 -0.140625 0.015625 -0.171875q0 -0.4375 -0.203125 -0.609375q-0.265625 -0.234375 -0.796875 -0.234375q-0.5 0 -0.734375 0.171875q-0.234375 0.171875 -0.359375 0.609375l-0.6875 -0.09375q0.09375 -0.4375 0.3125 -0.703125q0.21875 -0.28125 0.625 -0.421875q0.40625 -0.15625 0.9375 -0.15625q0.53125 0 0.859375 0.125q0.34375 0.125 0.5 0.328125q0.15625 0.1875 0.21875 0.46875q0.03125 0.1875 0.03125 0.65625l0 0.9375q0 0.96875 0.046875 1.234375q0.046875 0.265625 0.171875 0.5l-0.734375 0q-0.109375 -0.21875 -0.140625 -0.515625zm-0.0625 -1.5625q-0.375 0.15625 -1.140625 0.265625q-0.4375 0.0625 -0.625 0.140625q-0.171875 0.078125 -0.265625 0.234375q-0.09375 0.140625 -0.09375 0.328125q0 0.28125 0.203125 0.46875q0.21875 0.1875 0.625 0.1875q0.40625 0 0.71875 -0.171875q0.328125 -0.1875 0.46875 -0.5q0.109375 -0.234375 0.109375 -0.703125l0 -0.25z" fill-rule="nonzero"/><path fill="#000000" fill-opacity="0.0" d="m399.3596 195.20473l80.0 0l0 33.921265l-80.0 0z" fill-rule="evenodd"/><path fill="#000000" d="m409.28146 216.48535l0 -8.59375l2.96875 0q1.0 0 1.53125 0.125q0.734375 0.171875 1.25 0.609375q0.6875 0.578125 1.015625 1.484375q0.34375 0.890625 0.34375 2.03125q0 0.984375 -0.234375 1.734375q-0.21875 0.75 -0.578125 1.25q-0.359375 0.5 -0.796875 0.78125q-0.421875 0.28125 -1.015625 0.4375q-0.59375 0.140625 -1.375 0.140625l-3.109375 0zm1.140625 -1.015625l1.828125 0q0.859375 0 1.34375 -0.15625q0.484375 -0.15625 0.765625 -0.453125q0.40625 -0.390625 0.625 -1.078125q0.234375 -0.6875 0.234375 -1.65625q0 -1.34375 -0.453125 -2.0625q-0.4375 -0.734375 -1.0625 -0.984375q-0.46875 -0.171875 -1.46875 -0.171875l-1.8125 0l0 6.5625zm7.5566406 1.015625l0 -8.59375l6.203125 0l0 1.015625l-5.0625 0l0 2.625l4.75 0l0 1.015625l-4.75 0l0 2.921875l5.265625 0l0 1.015625l-6.40625 0z" fill-rule="nonzero"/><path fill="#000000" fill-opacity="0.0" d="m399.3596 139.20473l80.0 0l0 33.921265l-80.0 0z" fill-rule="evenodd"/><path fill="#000000" d="m411.7346 160.48535l-3.328125 -8.59375l1.234375 0l2.234375 6.25q0.265625 0.75 0.453125 1.40625q0.203125 -0.703125 0.46875 -1.40625l2.3125 -6.25l1.15625 0l-3.359375 8.59375l-1.171875 0zm5.1757812 -2.765625l1.0625 -0.09375q0.078125 0.65625 0.359375 1.0625q0.28125 0.40625 0.859375 0.671875q0.59375 0.25 1.328125 0.25q0.640625 0 1.140625 -0.1875q0.5 -0.203125 0.734375 -0.53125q0.25 -0.34375 0.25 -0.734375q0 -0.40625 -0.234375 -0.703125q-0.234375 -0.3125 -0.765625 -0.515625q-0.359375 -0.140625 -1.546875 -0.421875q-1.171875 -0.28125 -1.640625 -0.53125q-0.625 -0.328125 -0.921875 -0.796875q-0.296875 -0.484375 -0.296875 -1.078125q0 -0.640625 0.359375 -1.203125q0.375 -0.578125 1.078125 -0.859375q0.71875 -0.296875 1.578125 -0.296875q0.953125 0 1.6875 0.3125q0.734375 0.296875 1.125 0.90625q0.390625 0.59375 0.421875 1.34375l-1.09375 0.078125q-0.09375 -0.8125 -0.609375 -1.21875q-0.5 -0.421875 -1.484375 -0.421875q-1.03125 0 -1.5 0.375q-0.46875 0.375 -0.46875 0.90625q0 0.46875 0.328125 0.765625q0.328125 0.296875 1.703125 0.609375q1.390625 0.3125 1.90625 0.546875q0.75 0.359375 1.109375 0.890625q0.359375 0.515625 0.359375 1.21875q0 0.6875 -0.390625 1.296875q-0.390625 0.59375 -1.125 0.9375q-0.734375 0.328125 -1.65625 0.328125q-1.171875 0 -1.96875 -0.328125q-0.78125 -0.34375 -1.234375 -1.03125q-0.4375 -0.6875 -0.453125 -1.546875zm10.800781 2.765625l0 -3.640625l-3.3125 -4.953125l1.390625 0l1.6875 2.59375q0.46875 0.71875 0.875 1.453125q0.390625 -0.671875 0.9375 -1.515625l1.671875 -2.53125l1.3125 0l-3.421875 4.953125l0 3.640625l-1.140625 0zm5.5820312 0l0 -8.59375l1.15625 0l4.515625 6.75l0 -6.75l1.09375 0l0 8.59375l-1.171875 0l-4.515625 -6.75l0 6.75l-1.078125 0zm14.806641 -3.015625l1.125 0.296875q-0.359375 1.390625 -1.28125 2.125q-0.921875 0.734375 -2.265625 0.734375q-1.390625 0 -2.265625 -0.5625q-0.875 -0.5625 -1.328125 -1.625q-0.453125 -1.078125 -0.453125 -2.3125q0 -1.34375 0.515625 -2.34375q0.515625 -1.0 1.453125 -1.515625q0.953125 -0.515625 2.09375 -0.515625q1.28125 0 2.15625 0.65625q0.890625 0.65625 1.234375 1.84375l-1.125 0.265625q-0.296875 -0.9375 -0.875 -1.359375q-0.5625 -0.4375 -1.421875 -0.4375q-0.984375 0 -1.65625 0.484375q-0.65625 0.46875 -0.9375 1.265625q-0.265625 0.796875 -0.265625 1.65625q0 1.09375 0.3125 1.90625q0.328125 0.8125 1.0 1.21875q0.671875 0.40625 1.46875 0.40625q0.953125 0 1.609375 -0.546875q0.671875 -0.546875 0.90625 -1.640625z" fill-rule="nonzero"/><path fill="#000000" fill-opacity="0.0" d="m399.3596 251.20473l80.0 0l0 33.92125l-80.0 0z" fill-rule="evenodd"/><path fill="#000000" d="m409.32834 272.48535l0 -8.59375l1.125 0l0 3.53125l4.46875 0l0 -3.53125l1.140625 0l0 8.59375l-1.140625 0l0 -4.046875l-4.46875 0l0 4.046875l-1.125 0zm8.244141 -2.765625l1.0625 -0.09375q0.078125 0.65625 0.359375 1.0625q0.28125 0.40625 0.859375 0.671875q0.59375 0.25 1.328125 0.25q0.640625 0 1.140625 -0.1875q0.5 -0.203125 0.734375 -0.53125q0.25 -0.34375 0.25 -0.734375q0 -0.40625 -0.234375 -0.703125q-0.234375 -0.3125 -0.765625 -0.515625q-0.359375 -0.140625 -1.546875 -0.421875q-1.171875 -0.28125 -1.640625 -0.53125q-0.625 -0.328125 -0.921875 -0.796875q-0.296875 -0.484375 -0.296875 -1.078125q0 -0.640625 0.359375 -1.203125q0.375 -0.578125 1.078125 -0.859375q0.71875 -0.296875 1.578125 -0.296875q0.953125 0 1.6875 0.3125q0.734375 0.296875 1.125 0.90625q0.390625 0.59375 0.421875 1.34375l-1.09375 0.078125q-0.09375 -0.8125 -0.609375 -1.21875q-0.5 -0.421875 -1.484375 -0.421875q-1.03125 0 -1.5 0.375q-0.46875 0.375 -0.46875 0.90625q0 0.46875 0.328125 0.765625q0.328125 0.296875 1.703125 0.609375q1.390625 0.3125 1.90625 0.546875q0.75 0.359375 1.109375 0.890625q0.359375 0.515625 0.359375 1.21875q0 0.6875 -0.390625 1.296875q-0.390625 0.59375 -1.125 0.9375q-0.734375 0.328125 -1.65625 0.328125q-1.171875 0 -1.96875 -0.328125q-0.78125 -0.34375 -1.234375 -1.03125q-0.4375 -0.6875 -0.453125 -1.546875zm10.800781 2.765625l0 -3.640625l-3.3125 -4.953125l1.390625 0l1.6875 2.59375q0.46875 0.71875 0.875 1.453125q0.390625 -0.671875 0.9375 -1.515625l1.671875 -2.53125l1.3125 0l-3.421875 4.953125l0 3.640625l-1.140625 0zm5.5820312 0l0 -8.59375l1.15625 0l4.515625 6.75l0 -6.75l1.09375 0l0 8.59375l-1.171875 0l-4.515625 -6.75l0 6.75l-1.078125 0zm14.806641 -3.015625l1.125 0.296875q-0.359375 1.390625 -1.28125 2.125q-0.921875 0.734375 -2.265625 0.734375q-1.390625 0 -2.265625 -0.5625q-0.875 -0.5625 -1.328125 -1.625q-0.453125 -1.078125 -0.453125 -2.3125q0 -1.34375 0.515625 -2.34375q0.515625 -1.0 1.453125 -1.515625q0.953125 -0.515625 2.09375 -0.515625q1.28125 0 2.15625 0.65625q0.890625 0.65625 1.234375 1.84375l-1.125 0.265625q-0.296875 -0.9375 -0.875 -1.359375q-0.5625 -0.4375 -1.421875 -0.4375q-0.984375 0 -1.65625 0.484375q-0.65625 0.46875 -0.9375 1.265625q-0.265625 0.796875 -0.265625 1.65625q0 1.09375 0.3125 1.90625q0.328125 0.8125 1.0 1.21875q0.671875 0.40625 1.46875 0.40625q0.953125 0 1.609375 -0.546875q0.671875 -0.546875 0.90625 -1.640625z" fill-rule="nonzero"/><path fill="#000000" fill-opacity="0.0" d="m351.3596 195.20473l32.0 0l0 29.070862l-32.0 0z" fill-rule="evenodd"/><path fill="#000000" d="m363.57834 211.88472l0 -0.53125q-0.390625 0.625 -1.15625 0.625q-0.5 0 -0.921875 -0.265625q-0.40625 -0.28125 -0.640625 -0.765625q-0.21875 -0.5 -0.21875 -1.140625q0 -0.609375 0.203125 -1.109375q0.203125 -0.515625 0.609375 -0.78125q0.421875 -0.28125 0.9375 -0.28125q0.375 0 0.65625 0.171875q0.296875 0.15625 0.484375 0.40625l0 -2.0625l0.703125 0l0 5.734375l-0.65625 0zm-2.21875 -2.078125q0 0.796875 0.328125 1.203125q0.34375 0.390625 0.796875 0.390625q0.46875 0 0.78125 -0.375q0.328125 -0.375 0.328125 -1.15625q0 -0.84375 -0.328125 -1.234375q-0.328125 -0.40625 -0.8125 -0.40625q-0.46875 0 -0.78125 0.390625q-0.3125 0.375 -0.3125 1.1875zm6.8242188 0.734375l0.71875 0.09375q-0.171875 0.640625 -0.640625 1.0q-0.453125 0.34375 -1.1875 0.34375q-0.90625 0 -1.4375 -0.5625q-0.53125 -0.5625 -0.53125 -1.578125q0 -1.046875 0.53125 -1.625q0.546875 -0.578125 1.40625 -0.578125q0.828125 0 1.359375 0.578125q0.53125 0.5625 0.53125 1.59375q0 0.0625 -0.015625 0.1875l-3.09375 0q0.046875 0.671875 0.390625 1.046875q0.34375 0.359375 0.875 0.359375q0.375 0 0.640625 -0.203125q0.28125 -0.203125 0.453125 -0.65625zm-2.3125 -1.125l2.3125 0q-0.046875 -0.53125 -0.265625 -0.796875q-0.328125 -0.40625 -0.875 -0.40625q-0.484375 0 -0.8125 0.328125q-0.328125 0.328125 -0.359375 0.875z" fill-rule="nonzero"/><path fill="#f3f3f3" d="m231.35957 243.20473l8.0 0l0 8.0l-8.0 0z" fill-rule="evenodd"/><path fill="#000000" fill-opacity="0.0" d="m235.60957 195.20473l0 75.999985l-12.251968 0" fill-rule="evenodd"/><path stroke="#000000" stroke-width="1.0" stroke-linejoin="round" stroke-linecap="butt" d="m235.60957 195.20473l0 75.999985l-12.251968 0" fill-rule="evenodd"/><path fill="#cfe2f3" d="m7.35958 323.2047l56.0 0l0 32.0l-56.0 0z" fill-rule="evenodd"/><path stroke="#000000" stroke-width="1.0" stroke-linejoin="round" stroke-linecap="butt" d="m7.35958 323.2047l56.0 0l0 32.0l-56.0 0z" fill-rule="evenodd"/><path fill="#000000" d="m23.842224 342.03848l0 0.90625l-5.03125 0q-0.015625 -0.34375 0.109375 -0.65625q0.1875 -0.515625 0.609375 -1.015625q0.421875 -0.5 1.234375 -1.140625q1.234375 -1.03125 1.671875 -1.625q0.4375 -0.59375 0.4375 -1.125q0 -0.5625 -0.40625 -0.9375q-0.390625 -0.390625 -1.03125 -0.390625q-0.671875 0 -1.078125 0.40625q-0.40625 0.40625 -0.40625 1.125l-0.96875 -0.09375q0.09375 -1.078125 0.734375 -1.640625q0.65625 -0.5625 1.734375 -0.5625q1.109375 0 1.75 0.609375q0.640625 0.609375 0.640625 1.5q0 0.46875 -0.1875 0.90625q-0.1875 0.4375 -0.625 0.9375q-0.4375 0.484375 -1.453125 1.328125q-0.828125 0.71875 -1.078125 0.96875q-0.234375 0.25 -0.390625 0.5l3.734375 0zm4.0046234 0.90625l0 -1.828125l-3.296875 0l0 -0.859375l3.46875 -4.9375l0.765625 0l0 4.9375l1.03125 0l0 0.859375l-1.03125 0l0 1.828125l-0.9375 0zm0 -2.6875l0 -3.4375l-2.375 3.4375l2.375 0zm3.2858734 2.6875l0 -7.625l1.515625 0l1.796875 5.390625q0.25 0.765625 0.375 1.140625q0.125 -0.421875 0.40625 -1.234375l1.828125 -5.296875l1.34375 0l0 7.625l-0.96875 0l0 -6.390625l-2.21875 6.390625l-0.90625 0l-2.203125 -6.5l0 6.5l-0.96875 0zm8.9392395 0l0 -7.625l1.0 0l0 3.125l3.96875 0l0 -3.125l1.015625 0l0 7.625l-1.015625 0l0 -3.59375l-3.96875 0l0 3.59375l-1.0 0zm7.0393524 0l0 -0.765625l3.515625 -4.03125q-0.59375 0.03125 -1.046875 0.03125l-2.25 0l0 -0.765625l4.515625 0l0 0.625l-3.0 3.5l-0.578125 0.640625q0.640625 -0.046875 1.1875 -0.046875l2.546875 0l0 0.8125l-4.890625 0z" fill-rule="nonzero"/><path fill="#ffffff" d="m155.37878 235.20473l63.98079 0l0 47.999985l-63.98079 0z" fill-rule="evenodd"/><path stroke="#000000" stroke-width="2.0" stroke-linejoin="round" stroke-linecap="butt" d="m155.37878 235.20473l63.98079 0l0 47.999985l-63.98079 0z" fill-rule="evenodd"/><path fill="#000000" d="m182.1327 266.12473l0 -13.359375l1.765625 0l0 5.484375l6.9375 0l0 -5.484375l1.765625 0l0 13.359375l-1.765625 0l0 -6.296875l-6.9375 0l0 6.296875l-1.765625 0z" fill-rule="nonzero"/><path fill="#ffffff" d="m179.37158 283.2047l7.9976044 -8.0l7.997589 8.0z" fill-rule="evenodd"/><path stroke="#000000" stroke-width="1.0" stroke-linejoin="round" stroke-linecap="butt" d="m179.37158 283.2047l7.9976044 -8.0l7.997589 8.0z" fill-rule="evenodd"/><path fill="#ffffff" d="m215.35957 243.20473l8.0 0l0 8.0l-8.0 0z" fill-rule="evenodd"/><path stroke="#000000" stroke-width="1.0" stroke-linejoin="round" stroke-linecap="butt" d="m215.35957 243.20473l8.0 0l0 8.0l-8.0 0z" fill-rule="evenodd"/><path fill="#ffffff" d="m215.35957 267.2047l8.0 0l0 8.0l-8.0 0z" fill-rule="evenodd"/><path stroke="#000000" stroke-width="1.0" stroke-linejoin="round" stroke-linecap="butt" d="m215.35957 267.2047l8.0 0l0 8.0l-8.0 0z" fill-rule="evenodd"/><path fill="#ffffff" d="m151.35957 243.20473l8.0 0l0 8.0l-8.0 0z" fill-rule="evenodd"/><path stroke="#000000" stroke-width="1.0" stroke-linejoin="round" stroke-linecap="butt" d="m151.35957 243.20473l8.0 0l0 8.0l-8.0 0z" fill-rule="evenodd"/><path fill="#000000" fill-opacity="0.0" d="m87.35958 339.2047l-24.0 0" fill-rule="evenodd"/><path stroke="#000000" stroke-width="1.0" stroke-linejoin="round" stroke-linecap="butt" d="m87.35958 339.2047l-24.0 0" fill-rule="evenodd"/><path fill="#fff2cc" d="m419.61154 10.708234l115.74802 0l0 59.3568l-115.74802 0z" fill-rule="evenodd"/><path stroke="#000000" stroke-width="2.0" stroke-linejoin="round" stroke-linecap="butt" d="m419.61154 10.708234l115.74802 0l0 59.3568l-115.74802 0z" fill-rule="evenodd"/><path fill="#000000" d="m444.96603 46.24663l0 -11.453125l5.078125 0q1.53125 0 2.328125 0.3125q0.796875 0.296875 1.265625 1.078125q0.484375 0.78125 0.484375 1.734375q0 1.21875 -0.796875 2.0625q-0.78125 0.828125 -2.4375 1.046875q0.609375 0.296875 0.921875 0.578125q0.65625 0.609375 1.25 1.515625l2.0 3.125l-1.90625 0l-1.515625 -2.390625q-0.671875 -1.03125 -1.109375 -1.578125q-0.421875 -0.546875 -0.765625 -0.765625q-0.328125 -0.21875 -0.6875 -0.296875q-0.25 -0.0625 -0.84375 -0.0625l-1.75 0l0 5.09375l-1.515625 0zm1.515625 -6.40625l3.25 0q1.046875 0 1.625 -0.203125q0.59375 -0.21875 0.890625 -0.6875q0.3125 -0.484375 0.3125 -1.03125q0 -0.8125 -0.59375 -1.328125q-0.59375 -0.53125 -1.859375 -0.53125l-3.625 0l0 3.78125zm9.5546875 0.828125q0 -2.859375 1.53125 -4.46875q1.53125 -1.609375 3.953125 -1.609375q1.578125 0 2.84375 0.765625q1.28125 0.75 1.953125 2.109375q0.671875 1.34375 0.671875 3.0625q0 1.75 -0.703125 3.125q-0.703125 1.375 -2.0 2.09375q-1.28125 0.703125 -2.78125 0.703125q-1.609375 0 -2.890625 -0.78125q-1.265625 -0.796875 -1.921875 -2.140625q-0.65625 -1.359375 -0.65625 -2.859375zm1.5625 0.015625q0 2.078125 1.109375 3.265625q1.109375 1.1875 2.796875 1.1875q1.703125 0 2.8125 -1.203125q1.109375 -1.203125 1.109375 -3.40625q0 -1.40625 -0.484375 -2.4375q-0.46875 -1.046875 -1.375 -1.625q-0.90625 -0.578125 -2.046875 -0.578125q-1.609375 0 -2.765625 1.109375q-1.15625 1.109375 -1.15625 3.6875zm11.2890625 5.5625l0 -11.453125l2.28125 0l2.71875 8.109375q0.375 1.125 0.546875 1.6875q0.1875 -0.625 0.609375 -1.828125l2.734375 -7.96875l2.046875 0l0 11.453125l-1.46875 0l0 -9.59375l-3.328125 9.59375l-1.359375 0l-3.3125 -9.75l0 9.75l-1.46875 0zm24.554688 -8.65625l-1.40625 0.109375q-0.1875 -0.828125 -0.53125 -1.203125q-0.5625 -0.59375 -1.40625 -0.59375q-0.671875 0 -1.171875 0.375q-0.671875 0.484375 -1.0625 1.421875q-0.375 0.921875 -0.390625 2.640625q0.515625 -0.78125 1.25 -1.15625q0.734375 -0.375 1.53125 -0.375q1.40625 0 2.390625 1.046875q1.0 1.03125 1.0 2.671875q0 1.078125 -0.46875 2.0q-0.46875 0.921875 -1.28125 1.421875q-0.8125 0.5 -1.84375 0.5q-1.75 0 -2.859375 -1.296875q-1.109375 -1.296875 -1.109375 -4.265625q0 -3.328125 1.21875 -4.828125q1.078125 -1.3125 2.890625 -1.3125q1.34375 0 2.203125 0.765625q0.875 0.75 1.046875 2.078125zm-5.75 4.9375q0 0.734375 0.3125 1.40625q0.3125 0.65625 0.859375 1.0q0.5625 0.34375 1.171875 0.34375q0.890625 0 1.53125 -0.71875q0.640625 -0.71875 0.640625 -1.953125q0 -1.1875 -0.640625 -1.859375q-0.625 -0.6875 -1.59375 -0.6875q-0.953125 0 -1.625 0.6875q-0.65625 0.671875 -0.65625 1.78125zm11.8515625 3.71875l0 -2.75l-4.96875 0l0 -1.28125l5.234375 -7.421875l1.140625 0l0 7.421875l1.546875 0l0 1.28125l-1.546875 0l0 2.75l-1.40625 0zm0 -4.03125l0 -5.171875l-3.578125 5.171875l3.578125 0zm4.7890625 4.03125l0 -11.453125l1.40625 0l0 6.53125l3.328125 -3.375l1.828125 0l-3.171875 3.078125l3.484375 5.21875l-1.734375 0l-2.734375 -4.25l-1.0 0.953125l0 3.296875l-1.40625 0z" fill-rule="nonzero"/><path fill="#ffffff" d="m415.3596 18.301035l8.0 0l0 19.7856l-8.0 0z" fill-rule="evenodd"/><path stroke="#000000" stroke-width="1.0" stroke-linejoin="round" stroke-linecap="butt" d="m415.3596 18.301035l8.0 0l0 19.7856l-8.0 0z" fill-rule="evenodd"/><path fill="#000000" d="m418.28696 27.79321q-0.59375 -0.203125 -0.875 -0.59375q-0.28125 -0.40625 -0.28125 -0.953125q0 -0.84375 0.59375 -1.40625q0.609375 -0.5625 1.59375 -0.5625q1.0 0 1.609375 0.578125q0.609375 0.578125 0.609375 1.40625q0 0.53125 -0.28125 0.9375q-0.265625 0.390625 -0.84375 0.59375q0.703125 0.234375 1.0625 0.75q0.375 0.5 0.375 1.203125q0 0.984375 -0.6875 1.65625q-0.6875 0.65625 -1.828125 0.65625q-1.125 0 -1.8125 -0.65625q-0.6875 -0.671875 -0.6875 -1.671875q0 -0.75 0.375 -1.25q0.375 -0.5 1.078125 -0.6875zm-0.1875 -1.578125q0 0.53125 0.34375 0.875q0.34375 0.34375 0.90625 0.34375q0.53125 0 0.875 -0.328125q0.359375 -0.34375 0.359375 -0.84375q0 -0.515625 -0.359375 -0.859375q-0.359375 -0.359375 -0.890625 -0.359375q-0.53125 0 -0.890625 0.34375q-0.34375 0.34375 -0.34375 0.828125zm-0.3125 3.515625q0 0.40625 0.1875 0.78125q0.203125 0.375 0.578125 0.578125q0.375 0.203125 0.796875 0.203125q0.671875 0 1.109375 -0.421875q0.4375 -0.4375 0.4375 -1.109375q0 -0.671875 -0.453125 -1.109375q-0.453125 -0.453125 -1.125 -0.453125q-0.65625 0 -1.09375 0.4375q-0.4375 0.4375 -0.4375 1.09375z" fill-rule="nonzero"/><path fill="#ffffff" d="m415.3596 42.686634l8.0 0l0 19.785599l-8.0 0z" fill-rule="evenodd"/><path stroke="#000000" stroke-width="1.0" stroke-linejoin="round" stroke-linecap="butt" d="m415.3596 42.686634l8.0 0l0 19.785599l-8.0 0z" fill-rule="evenodd"/><path fill="#000000" d="m418.28696 52.17881q-0.59375 -0.203125 -0.875 -0.59375q-0.28125 -0.40625 -0.28125 -0.953125q0 -0.84375 0.59375 -1.40625q0.609375 -0.5625 1.59375 -0.5625q1.0 0 1.609375 0.578125q0.609375 0.578125 0.609375 1.40625q0 0.53125 -0.28125 0.9375q-0.265625 0.390625 -0.84375 0.59375q0.703125 0.234375 1.0625 0.75q0.375 0.5 0.375 1.203125q0 0.984375 -0.6875 1.65625q-0.6875 0.65625 -1.828125 0.65625q-1.125 0 -1.8125 -0.65625q-0.6875 -0.671875 -0.6875 -1.671875q0 -0.75 0.375 -1.25q0.375 -0.5 1.078125 -0.6875zm-0.1875 -1.578125q0 0.53125 0.34375 0.875q0.34375 0.34375 0.90625 0.34375q0.53125 0 0.875 -0.328125q0.359375 -0.34375 0.359375 -0.84375q0 -0.515625 -0.359375 -0.859375q-0.359375 -0.359375 -0.890625 -0.359375q-0.53125 0 -0.890625 0.34375q-0.34375 0.34375 -0.34375 0.828125zm-0.3125 3.515625q0 0.40625 0.1875 0.78125q0.203125 0.375 0.578125 0.578125q0.375 0.203125 0.796875 0.203125q0.671875 0 1.109375 -0.421875q0.4375 -0.4375 0.4375 -1.109375q0 -0.671875 -0.453125 -1.109375q-0.453125 -0.453125 -1.125 -0.453125q-0.65625 0 -1.09375 0.4375q-0.4375 0.4375 -0.4375 1.09375z" fill-rule="nonzero"/><path fill="#ffffff" d="m467.3596 65.84252l24.0 0l0 9.892799l-24.0 0z" fill-rule="evenodd"/><path stroke="#000000" stroke-width="1.0" stroke-linejoin="round" stroke-linecap="butt" d="m467.3596 65.84252l24.0 0l0 9.892799l-24.0 0z" fill-rule="evenodd"/><path fill="#000000" d="m480.32834 74.52892l-0.9375 0l0 -5.96875q-0.34375 0.328125 -0.890625 0.65625q-0.546875 0.3125 -0.984375 0.46875l0 -0.90625q0.796875 -0.359375 1.375 -0.890625q0.59375 -0.53125 0.828125 -1.015625l0.609375 0l0 7.65625z" fill-rule="nonzero"/><path fill="#000000" fill-opacity="0.0" d="m199.35957 159.20473l-24.999832 0l0 -106.61418l240.99985 0" fill-rule="evenodd"/><path stroke="#000000" stroke-width="1.0" stroke-linejoin="round" stroke-linecap="butt" d="m199.35957 159.20473l-24.999832 0l0 -106.61418l234.99985 0" fill-rule="evenodd"/><path fill="#000000" stroke="#000000" stroke-width="1.0" stroke-linecap="butt" d="m409.3596 54.242283l4.538086 -1.6517334l-4.538086 -1.6517296z" fill-rule="evenodd"/><path fill="#000000" fill-opacity="0.0" d="m151.35957 247.20473l-25.000793 0l0 -219.02362l289.0008 0" fill-rule="evenodd"/><path stroke="#000000" stroke-width="1.0" stroke-linejoin="round" stroke-linecap="butt" d="m151.35957 247.20473l-25.000793 0l0 -219.02362l283.0008 0" fill-rule="evenodd"/><path fill="#000000" stroke="#000000" stroke-width="1.0" stroke-linecap="butt" d="m409.3596 29.832834l4.538086 -1.6517315l-4.538086 -1.6517334z" fill-rule="evenodd"/><path fill="#ff0000" d="m439.3596 111.02559l16.0 0l0 8.0l-16.0 0z" fill-rule="evenodd"/><path stroke="#000000" stroke-width="1.0" stroke-linejoin="round" stroke-linecap="butt" d="m439.3596 111.02559l16.0 0l0 8.0l-16.0 0z" fill-rule="evenodd"/><path fill="#00ff00" d="m471.3596 111.02559l16.0 0l0 8.0l-16.0 0z" fill-rule="evenodd"/><path stroke="#000000" stroke-width="1.0" stroke-linejoin="round" stroke-linecap="butt" d="m471.3596 111.02559l16.0 0l0 8.0l-16.0 0z" fill-rule="evenodd"/><path fill="#0000ff" d="m503.3596 111.02559l15.9999695 0l0 8.0l-15.9999695 0z" fill-rule="evenodd"/><path stroke="#000000" stroke-width="1.0" stroke-linejoin="round" stroke-linecap="butt" d="m503.3596 111.02559l15.9999695 0l0 8.0l-15.9999695 0z" fill-rule="evenodd"/><path fill="#000000" fill-opacity="0.0" d="m431.3596 115.20473l111.99997 0l0 25.921265l-111.99997 0z" fill-rule="evenodd"/><path fill="#000000" d="m444.63107 132.48535l0 -8.59375l3.8125 0q1.15625 0 1.75 0.234375q0.59375 0.234375 0.953125 0.828125q0.359375 0.578125 0.359375 1.28125q0 0.921875 -0.59375 1.546875q-0.59375 0.625 -1.828125 0.796875q0.453125 0.21875 0.6875 0.421875q0.5 0.453125 0.9375 1.140625l1.5 2.34375l-1.4375 0l-1.125 -1.78125q-0.5 -0.78125 -0.828125 -1.1875q-0.3125 -0.40625 -0.578125 -0.5625q-0.25 -0.171875 -0.515625 -0.25q-0.1875 -0.03125 -0.625 -0.03125l-1.328125 0l0 3.8125l-1.140625 0zm1.140625 -4.796875l2.453125 0q0.765625 0 1.203125 -0.15625q0.453125 -0.171875 0.671875 -0.515625q0.234375 -0.359375 0.234375 -0.78125q0 -0.609375 -0.453125 -1.0q-0.4375 -0.390625 -1.390625 -0.390625l-2.71875 0l0 2.84375zm34.878906 1.421875l0 -1.0l3.625 -0.015625l0 3.1875q-0.828125 0.671875 -1.71875 1.015625q-0.890625 0.328125 -1.828125 0.328125q-1.265625 0 -2.3125 -0.53125q-1.03125 -0.546875 -1.5625 -1.5625q-0.515625 -1.03125 -0.515625 -2.296875q0 -1.265625 0.515625 -2.34375q0.53125 -1.09375 1.515625 -1.609375q0.984375 -0.53125 2.265625 -0.53125q0.9375 0 1.6875 0.296875q0.75 0.296875 1.171875 0.84375q0.4375 0.53125 0.65625 1.40625l-1.015625 0.28125q-0.203125 -0.65625 -0.5 -1.03125q-0.28125 -0.375 -0.8125 -0.59375q-0.53125 -0.234375 -1.171875 -0.234375q-0.78125 0 -1.359375 0.234375q-0.5625 0.234375 -0.921875 0.625q-0.34375 0.390625 -0.53125 0.859375q-0.328125 0.796875 -0.328125 1.71875q0 1.15625 0.390625 1.9375q0.40625 0.765625 1.15625 1.140625q0.75 0.375 1.609375 0.375q0.734375 0 1.4375 -0.28125q0.703125 -0.296875 1.0625 -0.609375l0 -1.609375l-2.515625 0zm28.59375 3.375l0 -8.59375l3.2343445 0q0.984375 0 1.578125 0.265625q0.59375 0.265625 0.921875 0.8125q0.34375 0.53125 0.34375 1.125q0 0.546875 -0.296875 1.03125q-0.296875 0.484375 -0.90625 0.78125q0.78125 0.234375 1.1875 0.796875q0.421875 0.546875 0.421875 1.296875q0 0.59375 -0.25 1.125q-0.25 0.515625 -0.625 0.796875q-0.375 0.28125 -0.953125 0.421875q-0.5625 0.140625 -1.375 0.140625l-3.2812195 0zm1.140625 -4.984375l1.8593445 0q0.75 0 1.078125 -0.09375q0.4375 -0.125 0.65625 -0.421875q0.21875 -0.3125 0.21875 -0.765625q0 -0.421875 -0.203125 -0.75q-0.203125 -0.328125 -0.59375 -0.4375q-0.375 -0.125 -1.296875 -0.125l-1.7187195 0l0 2.59375zm0 3.96875l2.1405945 0q0.546875 0 0.765625 -0.046875q0.40625 -0.0625 0.65625 -0.21875q0.265625 -0.171875 0.4375 -0.484375q0.171875 -0.3125 0.171875 -0.71875q0 -0.484375 -0.25 -0.84375q-0.234375 -0.359375 -0.671875 -0.5q-0.4375 -0.140625 -1.265625 -0.140625l-1.9843445 0l0 2.953125z" fill-rule="nonzero"/><path fill="#000000" fill-opacity="0.0" d="m119.35958 227.20473l23.999992 0l0 29.070877l-23.999992 0z" fill-rule="evenodd"/><path fill="#000000" d="m128.39082 243.88472l2.21875 -2.984375l-1.953125 -2.75l0.90625 0l1.03125 1.46875q0.328125 0.46875 0.46875 0.703125q0.1875 -0.3125 0.453125 -0.640625l1.15625 -1.53125l0.8125 0l-2.0 2.703125l2.15625 3.03125l-0.9375 0l-1.4375 -2.046875q-0.125 -0.171875 -0.25 -0.375q-0.1875 0.3125 -0.265625 0.421875l-1.4375 2.0l-0.921875 0z" fill-rule="nonzero"/><path fill="#000000" fill-opacity="0.0" d="m167.35957 139.20473l24.0 0l0 29.070862l-24.0 0z" fill-rule="evenodd"/><path fill="#000000" d="m178.59395 155.88472l0 -2.421875l-2.203125 -3.3125l0.921875 0l1.125 1.734375q0.3125 0.484375 0.578125 0.96875q0.265625 -0.453125 0.625 -1.015625l1.109375 -1.6875l0.890625 0l-2.296875 3.3125l0 2.421875l-0.75 0z" fill-rule="nonzero"/><path fill="#000000" fill-opacity="0.0" d="m302.08398 7.358793l58.551178 0l0 29.070864l-58.551178 0z" fill-rule="evenodd"/><path fill="#000000" d="m311.11523 24.038794l2.21875 -2.984375l-1.953125 -2.75l0.90625 0l1.03125 1.46875q0.328125 0.46875 0.46875 0.703125q0.1875 -0.3125 0.453125 -0.640625l1.15625 -1.53125l0.8125 0l-2.0 2.703125l2.15625 3.03125l-0.9375 0l-1.4375 -2.046875q-0.125 -0.171875 -0.25 -0.375q-0.1875 0.3125 -0.265625 0.421875l-1.4375 2.0l-0.921875 0zm8.074219 1.59375l0 -7.328125l1.546875 0l0 0.59375l-0.84375 0l0 6.15625l0.84375 0l0 0.578125l-1.546875 0zm2.0507812 -6.578125l0 -0.671875l3.71875 0l0 0.546875q-0.546875 0.578125 -1.09375 1.546875q-0.53125 0.96875 -0.828125 1.984375q-0.203125 0.71875 -0.265625 1.578125l-0.71875 0q0 -0.671875 0.25 -1.625q0.265625 -0.96875 0.734375 -1.859375q0.484375 -0.890625 1.015625 -1.5l-2.8125 0zm4.7929688 1.640625l0 -0.8125l0.8125 0l0 0.8125l-0.8125 0zm0 3.34375l0 -0.796875l0.8125 0l0 0.796875l-0.8125 0zm1.8320312 -2.828125q0 -1.015625 0.203125 -1.625q0.21875 -0.625 0.625 -0.953125q0.421875 -0.34375 1.046875 -0.34375q0.453125 0 0.796875 0.1875q0.359375 0.1875 0.578125 0.53125q0.234375 0.34375 0.359375 0.859375q0.125 0.5 0.125 1.34375q0 1.015625 -0.203125 1.640625q-0.203125 0.609375 -0.625 0.953125q-0.40625 0.328125 -1.03125 0.328125q-0.828125 0 -1.296875 -0.59375q-0.578125 -0.71875 -0.578125 -2.328125zm0.734375 0q0 1.40625 0.328125 1.875q0.328125 0.46875 0.8125 0.46875q0.484375 0 0.8125 -0.46875q0.328125 -0.46875 0.328125 -1.875q0 -1.40625 -0.328125 -1.875q-0.328125 -0.46875 -0.828125 -0.46875q-0.484375 0 -0.765625 0.40625q-0.359375 0.53125 -0.359375 1.9375zm5.0898438 4.421875l-1.546875 0l0 -0.578125l0.84375 0l0 -6.15625l-0.84375 0l0 -0.59375l1.546875 0l0 7.328125z" fill-rule="nonzero"/><path fill="#000000" fill-opacity="0.0" d="m479.3596 75.73532l0 17.645203l-32.0 0l0 17.630386" fill-rule="evenodd"/><path stroke="#000000" stroke-width="1.0" stroke-linejoin="round" stroke-linecap="butt" d="m479.3596 75.73532l0 17.645203l-32.0 0l0 11.630386" fill-rule="evenodd"/><path fill="#000000" stroke="#000000" stroke-width="1.0" stroke-linecap="butt" d="m445.70786 105.01091l1.6517334 4.5380936l1.6517334 -4.5380936z" fill-rule="evenodd"/><path fill="#000000" fill-opacity="0.0" d="m302.08398 31.830761l58.551178 0l0 29.070866l-58.551178 0z" fill-rule="evenodd"/><path fill="#000000" d="m313.31836 48.51076l0 -2.421875l-2.203125 -3.3125l0.921875 0l1.125 1.734375q0.3125 0.484375 0.578125 0.96875q0.265625 -0.453125 0.625 -1.015625l1.109375 -1.6875l0.890625 0l-2.296875 3.3125l0 2.421875l-0.75 0zm5.7265625 1.59375l0 -7.328125l1.546875 0l0 0.59375l-0.84375 0l0 6.15625l0.84375 0l0 0.578125l-1.546875 0zm2.0507812 -6.578125l0 -0.671875l3.71875 0l0 0.546875q-0.546875 0.578125 -1.09375 1.546875q-0.53125 0.96875 -0.828125 1.984375q-0.203125 0.71875 -0.265625 1.578125l-0.71875 0q0 -0.671875 0.25 -1.625q0.265625 -0.96875 0.734375 -1.859375q0.484375 -0.890625 1.015625 -1.5l-2.8125 0zm4.7929688 1.640625l0 -0.8125l0.8125 0l0 0.8125l-0.8125 0zm0 3.34375l0 -0.796875l0.8125 0l0 0.796875l-0.8125 0zm1.8320312 -2.828125q0 -1.015625 0.203125 -1.625q0.21875 -0.625 0.625 -0.953125q0.421875 -0.34375 1.046875 -0.34375q0.453125 0 0.796875 0.1875q0.359375 0.1875 0.578125 0.53125q0.234375 0.34375 0.359375 0.859375q0.125 0.5 0.125 1.34375q0 1.015625 -0.203125 1.640625q-0.203125 0.609375 -0.625 0.953125q-0.40625 0.328125 -1.03125 0.328125q-0.828125 0 -1.296875 -0.59375q-0.578125 -0.71875 -0.578125 -2.328125zm0.734375 0q0 1.40625 0.328125 1.875q0.328125 0.46875 0.8125 0.46875q0.484375 0 0.8125 -0.46875q0.328125 -0.46875 0.328125 -1.875q0 -1.40625 -0.328125 -1.875q-0.328125 -0.46875 -0.828125 -0.46875q-0.484375 0 -0.765625 0.40625q-0.359375 0.53125 -0.359375 1.9375zm5.0898438 4.421875l-1.546875 0l0 -0.578125l0.84375 0l0 -6.15625l-0.84375 0l0 -0.59375l1.546875 0l0 7.328125z" fill-rule="nonzero"/><path fill="#000000" fill-opacity="0.0" d="m479.3596 75.73532l0 17.645203l32.0 0l0 17.630386" fill-rule="evenodd"/><path stroke="#000000" stroke-width="1.0" stroke-linejoin="round" stroke-linecap="butt" d="m479.3596 75.73532l0 17.645203l32.0 0l0 11.630386" fill-rule="evenodd"/><path fill="#000000" stroke="#000000" stroke-width="1.0" stroke-linecap="butt" d="m509.70786 105.01091l1.6517334 4.5380936l1.6517029 -4.5380936z" fill-rule="evenodd"/><path fill="#000000" fill-opacity="0.0" d="m479.3596 75.73532l0 17.645203l0.06298828 0l0 17.630386" fill-rule="evenodd"/><path stroke="#000000" stroke-width="1.0" stroke-linejoin="round" stroke-linecap="butt" d="m479.3596 75.73532l0 17.645203l0.06298828 0l0 11.630386" fill-rule="evenodd"/><path fill="#000000" stroke="#000000" stroke-width="1.0" stroke-linecap="butt" d="m477.77084 105.01091l1.6517334 4.5380936l1.6517334 -4.5380936z" fill-rule="evenodd"/></g></svg>