<svg version="1.1" viewBox="0.0 0.0 702.4199475065617 289.18110236220474" fill="none" stroke="none" stroke-linecap="square" stroke-miterlimit="10" xmlns:xlink="http://www.w3.org/1999/xlink" xmlns="http://www.w3.org/2000/svg"><clipPath id="p.0"><path d="m0 0l702.4199 0l0 289.1811l-702.4199 0l0 -289.1811z" clip-rule="nonzero"/></clipPath><g clip-path="url(#p.0)"><path fill="#000000" fill-opacity="0.0" d="m0 0l702.4199 0l0 289.1811l-702.4199 0z" fill-rule="evenodd"/><path fill="#f3f3f3" d="m7.874016E-7 0l702.86615 0l0 291.87402l-702.86615 0z" fill-rule="evenodd"/><path fill="#d0e0e3" d="m44.29364 51.496063l263.71164 0l14.301666 14.301659l0 30.958183l0 0l-292.31497 0l0 0l0 -30.958183z" fill-rule="evenodd"/><path stroke="#000000" stroke-width="1.0" stroke-linejoin="round" stroke-linecap="butt" d="m44.29364 51.496063l263.71164 0l14.301666 14.301659l0 30.958183l0 0l-292.31497 0l0 0l0 -30.958183z" fill-rule="evenodd"/><path fill="#000000" fill-opacity="0.0" d="m329.86505 207.86613l0 31.496063" fill-rule="evenodd"/><path stroke="#000000" stroke-width="2.0" stroke-linejoin="round" stroke-linecap="butt" d="m329.86505 207.86613l0 31.496063" fill-rule="evenodd"/><path fill="#000000" fill-opacity="0.0" d="m372.9858 207.86613l0 31.496063" fill-rule="evenodd"/><path stroke="#000000" stroke-width="2.0" stroke-linejoin="round" stroke-linecap="butt" d="m372.9858 207.86613l0 31.496063" fill-rule="evenodd"/><path fill="#d9d2e9" d="m351.1789 51.496063l308.46417 0l14.665588 14.66555l0 30.594292l0 0l-337.7953 0l0 0l0 -30.594292z" fill-rule="evenodd"/><path stroke="#000000" stroke-width="1.0" stroke-linejoin="round" stroke-linecap="butt" d="m351.1789 51.496063l308.46417 0l14.665588 14.66555l0 30.594292l0 0l-337.7953 0l0 0l0 -30.594292z" fill-rule="evenodd"/><path fill="#000000" fill-opacity="0.0" d="m50.424118 77.10499l0 31.496063" fill-rule="evenodd"/><path stroke="#000000" stroke-width="2.0" stroke-linejoin="round" stroke-linecap="butt" d="m50.424118 77.10499l0 31.496063" fill-rule="evenodd"/><path fill="#000000" fill-opacity="0.0" d="m93.42412 77.10499l0 31.496063" fill-rule="evenodd"/><path stroke="#000000" stroke-width="2.0" stroke-linejoin="round" stroke-linecap="butt" d="m93.42412 77.10499l0 31.496063" fill-rule="evenodd"/><path fill="#000000" fill-opacity="0.0" d="m136.42412 77.10499l0 31.496063" fill-rule="evenodd"/><path stroke="#000000" stroke-width="2.0" stroke-linejoin="round" stroke-linecap="butt" d="m136.42412 77.10499l0 31.496063" fill-rule="evenodd"/><path fill="#000000" fill-opacity="0.0" d="m179.42412 77.10499l0 31.496063" fill-rule="evenodd"/><path stroke="#000000" stroke-width="2.0" stroke-linejoin="round" stroke-linecap="butt" d="m179.42412 77.10499l0 31.496063" fill-rule="evenodd"/><path fill="#000000" fill-opacity="0.0" d="m222.42412 77.10499l0 31.496063" fill-rule="evenodd"/><path stroke="#000000" stroke-width="2.0" stroke-linejoin="round" stroke-linecap="butt" d="m222.42412 77.10499l0 31.496063" fill-rule="evenodd"/><path fill="#000000" fill-opacity="0.0" d="m265.42413 77.10499l0 31.496063" fill-rule="evenodd"/><path stroke="#000000" stroke-width="2.0" stroke-linejoin="round" stroke-linecap="butt" d="m265.42413 77.10499l0 31.496063" fill-rule="evenodd"/><path fill="#000000" fill-opacity="0.0" d="m308.42413 77.10499l0 31.496063" fill-rule="evenodd"/><path stroke="#000000" stroke-width="2.0" stroke-linejoin="round" stroke-linecap="butt" d="m308.42413 77.10499l0 31.496063" fill-rule="evenodd"/><path fill="#000000" fill-opacity="0.0" d="m351.42413 77.10499l0 31.496063" fill-rule="evenodd"/><path stroke="#000000" stroke-width="2.0" stroke-linejoin="round" stroke-linecap="butt" d="m351.42413 77.10499l0 31.496063" fill-rule="evenodd"/><path fill="#000000" fill-opacity="0.0" d="m394.42413 77.10499l0 31.496063" fill-rule="evenodd"/><path stroke="#000000" stroke-width="2.0" stroke-linejoin="round" stroke-linecap="butt" d="m394.42413 77.10499l0 31.496063" fill-rule="evenodd"/><path fill="#000000" fill-opacity="0.0" d="m437.42413 77.10499l0 31.496063" fill-rule="evenodd"/><path stroke="#000000" stroke-width="2.0" stroke-linejoin="round" stroke-linecap="butt" d="m437.42413 77.10499l0 31.496063" fill-rule="evenodd"/><path fill="#000000" fill-opacity="0.0" d="m480.42413 77.10499l0 31.496063" fill-rule="evenodd"/><path stroke="#000000" stroke-width="2.0" stroke-linejoin="round" stroke-linecap="butt" d="m480.42413 77.10499l0 31.496063" fill-rule="evenodd"/><path fill="#000000" fill-opacity="0.0" d="m523.42413 77.10499l0 31.496063" fill-rule="evenodd"/><path stroke="#000000" stroke-width="2.0" stroke-linejoin="round" stroke-linecap="butt" d="m523.42413 77.10499l0 31.496063" fill-rule="evenodd"/><path fill="#000000" fill-opacity="0.0" d="m566.42413 77.10499l0 31.496063" fill-rule="evenodd"/><path stroke="#000000" stroke-width="2.0" stroke-linejoin="round" stroke-linecap="butt" d="m566.42413 77.10499l0 31.496063" fill-rule="evenodd"/><path fill="#000000" fill-opacity="0.0" d="m609.42413 77.10499l0 31.496063" fill-rule="evenodd"/><path stroke="#000000" stroke-width="2.0" stroke-linejoin="round" stroke-linecap="butt" d="m609.42413 77.10499l0 31.496063" fill-rule="evenodd"/><path fill="#000000" fill-opacity="0.0" d="m652.42413 77.10499l0 31.496063" fill-rule="evenodd"/><path stroke="#000000" stroke-width="2.0" stroke-linejoin="round" stroke-linecap="butt" d="m652.42413 77.10499l0 31.496063" fill-rule="evenodd"/><g filter="url(#shadowFilter-p.1)"><use xlink:href="#p.1" transform="matrix(1.0 0.0 0.0 1.0 3.936354068241472 4.528257480314943)"/></g><defs><filter id="shadowFilter-p.1" filterUnits="userSpaceOnUse"><feGaussianBlur in="SourceAlpha" stdDeviation="4.5" result="blur"/><feComponentTransfer in="blur" color-interpolation-filters="sRGB"><feFuncR type="linear" slope="0" intercept="0.0"/><feFuncG type="linear" slope="0" intercept="0.0"/><feFuncB type="linear" slope="0" intercept="0.0"/><feFuncA type="linear" slope="0.5" intercept="0"/></feComponentTransfer></filter></defs><g id="p.1"><path fill="#fff2cc" d="m21.435696 96.755905l665.41736 0l0 116.25197l-665.41736 0z" fill-rule="evenodd"/><path stroke="#000000" stroke-width="2.0" stroke-linejoin="round" stroke-linecap="butt" d="m21.435696 96.755905l665.41736 0l0 116.25197l-665.41736 0z" fill-rule="evenodd"/></g><path fill="#000000" fill-opacity="0.0" d="m214.18124 233.85826l274.4882 0l0 42.015762l-274.4882 0z" fill-rule="evenodd"/><path fill="#000000" d="m283.2751 254.91888l0 -1.515625q-0.015625 -0.71875 -0.140625 -1.4375q-0.109375 -0.734375 -0.34375 -1.40625q-0.25 -0.671875 -0.625 -1.25q-0.359375 -0.59375 -0.859375 -1.03125q-0.515625 -0.4375 -1.1875 -0.6875q-0.65625 -0.265625 -1.484375 -0.265625q-0.8125 0 -1.484375 0.265625q-0.65625 0.25 -1.15625 0.6875q-0.515625 0.4375 -0.890625 1.03125q-0.359375 0.578125 -0.59375 1.25q-0.25 0.6875 -0.375 1.40625q-0.109375 0.71875 -0.109375 1.4375l0 1.515625q0 0.703125 0.125 1.421875q0.125 0.71875 0.359375 1.390625q0.234375 0.671875 0.609375 1.265625q0.375 0.59375 0.890625 1.03125q0.515625 0.4375 1.171875 0.6875q0.65625 0.25 1.484375 0.25q0.8125 0 1.46875 -0.25q0.671875 -0.25 1.171875 -0.6875q0.515625 -0.4375 0.875 -1.015625q0.375 -0.59375 0.609375 -1.265625q0.234375 -0.671875 0.34375 -1.390625q0.125 -0.734375 0.140625 -1.4375zm-1.671875 -1.53125l0 1.53125q-0.015625 0.46875 -0.0625 0.984375q-0.046875 0.515625 -0.171875 1.015625q-0.140625 0.515625 -0.359375 0.984375q-0.203125 0.453125 -0.53125 0.796875q-0.328125 0.359375 -0.78125 0.578125q-0.453125 0.203125 -1.03125 0.203125q-0.59375 0 -1.046875 -0.203125q-0.4375 -0.21875 -0.765625 -0.578125q-0.328125 -0.34375 -0.546875 -0.8125q-0.21875 -0.46875 -0.359375 -0.96875q-0.140625 -0.5 -0.203125 -1.015625q-0.0625 -0.53125 -0.0625 -0.984375l0 -1.53125q0 -0.46875 0.0625 -0.984375q0.0625 -0.515625 0.203125 -1.03125q0.125 -0.5 0.34375 -0.953125q0.21875 -0.46875 0.546875 -0.8125q0.328125 -0.359375 0.765625 -0.5625q0.453125 -0.203125 1.03125 -0.203125q0.59375 0 1.03125 0.203125q0.453125 0.203125 0.78125 0.546875q0.328125 0.359375 0.546875 0.828125q0.21875 0.453125 0.359375 0.953125q0.125 0.5 0.171875 1.015625q0.0625 0.515625 0.078125 1.0zm10.726837 7.390625l1.53125 0l0 -9.859375l-1.6875 0l0 7.078125q-0.140625 0.3125 -0.34375 0.578125q-0.203125 0.265625 -0.484375 0.46875q-0.328125 0.234375 -0.78125 0.375q-0.4375 0.125 -1.0 0.125q-0.484375 0 -0.859375 -0.125q-0.359375 -0.140625 -0.625 -0.453125q-0.25 -0.3125 -0.375 -0.828125q-0.125 -0.53125 -0.125 -1.34375l0 -5.875l-1.6875 0l0 5.859375q0 1.109375 0.234375 1.890625q0.25 0.78125 0.6875 1.296875q0.453125 0.515625 1.078125 0.765625q0.625 0.234375 1.40625 0.234375q0.96875 0 1.703125 -0.40625q0.734375 -0.40625 1.234375 -1.140625l0.09375 1.359375zm8.695557 -12.25l-1.703125 0l0 2.390625l-2.578125 0l0 1.3125l2.578125 0l0 5.34375q0 0.921875 0.234375 1.5625q0.25 0.640625 0.671875 1.046875q0.421875 0.40625 0.984375 0.59375q0.578125 0.1875 1.234375 0.1875q0.390625 0 0.78125 -0.046875q0.40625 -0.03125 0.75 -0.109375q0.359375 -0.0625 0.65625 -0.15625q0.296875 -0.09375 0.515625 -0.21875l-0.234375 -1.203125q-0.15625 0.046875 -0.40625 0.09375q-0.234375 0.046875 -0.515625 0.09375q-0.28125 0.046875 -0.578125 0.078125q-0.28125 0.03125 -0.546875 0.03125q-0.375 0 -0.71875 -0.09375q-0.328125 -0.09375 -0.578125 -0.3125q-0.265625 -0.21875 -0.40625 -0.59375q-0.140625 -0.375 -0.140625 -0.953125l0 -5.34375l3.75 0l0 -1.3125l-3.75 0l0 -2.390625zm7.195587 16.046875l1.6875 0l0 -4.75q0.171875 0.203125 0.375 0.375q0.21875 0.171875 0.453125 0.3125q0.390625 0.21875 0.875 0.328125q0.5 0.125 1.0625 0.125q0.921875 0 1.640625 -0.375q0.734375 -0.390625 1.234375 -1.0625q0.484375 -0.6875 0.734375 -1.59375q0.265625 -0.921875 0.265625 -1.96875l0 -0.203125q0 -1.09375 -0.265625 -2.015625q-0.25 -0.9375 -0.734375 -1.59375q-0.5 -0.671875 -1.234375 -1.03125q-0.71875 -0.375 -1.671875 -0.375q-0.53125 0 -1.0 0.109375q-0.46875 0.109375 -0.859375 0.328125q-0.265625 0.140625 -0.515625 0.359375q-0.234375 0.203125 -0.421875 0.453125l-0.09375 -1.078125l-1.53125 0l0 13.65625zm6.640625 -8.8125l0 0.203125q0 0.71875 -0.171875 1.375q-0.15625 0.65625 -0.484375 1.15625q-0.328125 0.5 -0.84375 0.796875q-0.5 0.296875 -1.203125 0.296875q-0.4375 0 -0.796875 -0.109375q-0.359375 -0.109375 -0.640625 -0.3125q-0.265625 -0.15625 -0.46875 -0.390625q-0.1875 -0.234375 -0.34375 -0.515625l0 -4.75q0.171875 -0.296875 0.390625 -0.546875q0.234375 -0.265625 0.53125 -0.4375q0.265625 -0.171875 0.59375 -0.265625q0.328125 -0.09375 0.71875 -0.09375q0.71875 0 1.21875 0.296875q0.515625 0.28125 0.84375 0.78125q0.328125 0.5 0.484375 1.15625q0.171875 0.640625 0.171875 1.359375zm11.054932 5.015625l1.53125 0l0 -9.859375l-1.6875 0l0 7.078125q-0.140625 0.3125 -0.34375 0.578125q-0.203125 0.265625 -0.484375 0.46875q-0.328125 0.234375 -0.78125 0.375q-0.4375 0.125 -1.0 0.125q-0.484375 0 -0.859375 -0.125q-0.359375 -0.140625 -0.625 -0.453125q-0.25 -0.3125 -0.375 -0.828125q-0.125 -0.53125 -0.125 -1.34375l0 -5.875l-1.6875 0l0 5.859375q0 1.109375 0.234375 1.890625q0.25 0.78125 0.6875 1.296875q0.453125 0.515625 1.078125 0.765625q0.625 0.234375 1.40625 0.234375q0.96875 0 1.703125 -0.40625q0.734375 -0.40625 1.234375 -1.140625l0.09375 1.359375zm8.695587 -12.25l-1.703125 0l0 2.390625l-2.578125 0l0 1.3125l2.578125 0l0 5.34375q0 0.921875 0.234375 1.5625q0.25 0.640625 0.671875 1.046875q0.421875 0.40625 0.984375 0.59375q0.578125 0.1875 1.234375 0.1875q0.390625 0 0.78125 -0.046875q0.40625 -0.03125 0.75 -0.109375q0.359375 -0.0625 0.65625 -0.15625q0.296875 -0.09375 0.515625 -0.21875l-0.234375 -1.203125q-0.15625 0.046875 -0.40625 0.09375q-0.234375 0.046875 -0.515625 0.09375q-0.28125 0.046875 -0.578125 0.078125q-0.28125 0.03125 -0.546875 0.03125q-0.375 0 -0.71875 -0.09375q-0.328125 -0.09375 -0.578125 -0.3125q-0.265625 -0.21875 -0.40625 -0.59375q-0.140625 -0.375 -0.140625 -0.953125l0 -5.34375l3.75 0l0 -1.3125l-3.75 0l0 -2.390625zm20.063019 6.859375l0 0.09375q0 1.3125 0.203125 2.46875q0.203125 1.140625 0.5625 2.109375q0.328125 0.984375 0.78125 1.78125q0.453125 0.8125 0.953125 1.4375q0.484375 0.640625 0.984375 1.078125q0.515625 0.453125 0.96875 0.703125l0.359375 -1.03125q-0.375 -0.296875 -0.75 -0.71875q-0.359375 -0.421875 -0.703125 -0.96875q-0.34375 -0.578125 -0.65625 -1.3125q-0.3125 -0.71875 -0.546875 -1.5625q-0.21875 -0.84375 -0.34375 -1.828125q-0.125 -1.0 -0.125 -2.140625l0 -0.125q0 -1.1875 0.125 -2.203125q0.140625 -1.03125 0.390625 -1.890625q0.265625 -0.953125 0.640625 -1.75q0.390625 -0.796875 0.796875 -1.390625q0.28125 -0.375 0.578125 -0.6875q0.296875 -0.3125 0.59375 -0.53125l-0.359375 -1.109375q-0.453125 0.25 -0.953125 0.703125q-0.5 0.453125 -1.0 1.078125q-0.5 0.625 -0.953125 1.4375q-0.4375 0.8125 -0.78125 1.78125q-0.359375 0.984375 -0.5625 2.140625q-0.203125 1.140625 -0.203125 2.4375zm17.664307 5.390625l0 -1.375l-6.65625 0l3.5625 -3.859375q0.5 -0.546875 0.953125 -1.09375q0.453125 -0.5625 0.796875 -1.125q0.328125 -0.5625 0.53125 -1.140625q0.203125 -0.578125 0.203125 -1.171875q0 -0.796875 -0.28125 -1.46875q-0.28125 -0.671875 -0.796875 -1.15625q-0.515625 -0.5 -1.265625 -0.78125q-0.75 -0.28125 -1.6875 -0.28125q-1.03125 0 -1.828125 0.328125q-0.796875 0.328125 -1.34375 0.890625q-0.546875 0.5625 -0.84375 1.3125q-0.28125 0.734375 -0.28125 1.5625l1.6875 0q0 -0.609375 0.15625 -1.109375q0.15625 -0.515625 0.484375 -0.859375q0.328125 -0.34375 0.8125 -0.53125q0.484375 -0.203125 1.15625 -0.203125q0.546875 0 0.96875 0.1875q0.4375 0.1875 0.75 0.5q0.296875 0.328125 0.453125 0.765625q0.171875 0.421875 0.171875 0.921875q0 0.390625 -0.109375 0.78125q-0.09375 0.375 -0.328125 0.796875q-0.25 0.421875 -0.640625 0.921875q-0.390625 0.5 -0.96875 1.140625l-4.34375 4.828125l0 1.21875l8.6875 0zm22.609894 -4.8125l0 -0.203125q0 -0.765625 -0.125 -1.453125q-0.125 -0.703125 -0.375 -1.28125q-0.234375 -0.515625 -0.546875 -0.921875q-0.3125 -0.421875 -0.703125 -0.703125q-0.4375 -0.3125 -0.984375 -0.484375q-0.53125 -0.171875 -1.15625 -0.171875q-0.515625 0 -0.953125 0.09375q-0.4375 0.09375 -0.796875 0.296875q-0.296875 0.15625 -0.5625 0.375q-0.25 0.203125 -0.453125 0.46875l0 -5.203125l-1.6875 0l0 14.0l1.546875 0l0.078125 -1.125q0.171875 0.21875 0.34375 0.390625q0.1875 0.171875 0.390625 0.3125q0.421875 0.296875 0.9375 0.453125q0.53125 0.15625 1.171875 0.15625q0.546875 0 1.015625 -0.140625q0.484375 -0.140625 0.890625 -0.390625q0.5625 -0.34375 0.953125 -0.890625q0.390625 -0.546875 0.640625 -1.21875q0.1875 -0.53125 0.28125 -1.125q0.09375 -0.59375 0.09375 -1.234375zm-1.6875 -0.203125l0 0.203125q0 0.4375 -0.0625 0.859375q-0.046875 0.40625 -0.15625 0.78125q-0.15625 0.46875 -0.40625 0.875q-0.234375 0.390625 -0.609375 0.640625q-0.265625 0.203125 -0.609375 0.3125q-0.34375 0.09375 -0.765625 0.09375q-0.4375 0 -0.8125 -0.109375q-0.359375 -0.109375 -0.640625 -0.328125q-0.296875 -0.203125 -0.53125 -0.484375q-0.21875 -0.28125 -0.375 -0.609375l0 -4.3125q0.15625 -0.328125 0.375 -0.59375q0.21875 -0.28125 0.515625 -0.5q0.28125 -0.1875 0.640625 -0.296875q0.375 -0.125 0.8125 -0.125q0.390625 0 0.71875 0.09375q0.328125 0.09375 0.59375 0.25q0.390625 0.234375 0.65625 0.640625q0.265625 0.390625 0.421875 0.875q0.125 0.390625 0.171875 0.84375q0.0625 0.4375 0.0625 0.890625zm4.789337 -4.84375l0 1.46875l3.359375 0l0 6.9375l-3.359375 0l0 1.453125l8.265625 0l0 -1.453125l-3.21875 0l0 -8.40625l-5.046875 0zm3.140625 -2.578125q0 0.40625 0.25 0.6875q0.25 0.265625 0.765625 0.265625q0.5 0 0.75 -0.265625q0.25 -0.28125 0.25 -0.6875q0 -0.234375 -0.078125 -0.421875q-0.0625 -0.1875 -0.203125 -0.328125q-0.125 -0.109375 -0.3125 -0.171875q-0.171875 -0.078125 -0.40625 -0.078125q-0.25 0 -0.4375 0.078125q-0.171875 0.0625 -0.296875 0.171875q-0.140625 0.140625 -0.21875 0.34375q-0.0625 0.1875 -0.0625 0.40625zm11.789307 0.1875l-1.703125 0l0 2.390625l-2.578125 0l0 1.3125l2.578125 0l0 5.34375q0 0.921875 0.234375 1.5625q0.25 0.640625 0.671875 1.046875q0.421875 0.40625 0.984375 0.59375q0.578125 0.1875 1.234375 0.1875q0.390625 0 0.78125 -0.046875q0.40625 -0.03125 0.75 -0.109375q0.359375 -0.0625 0.65625 -0.15625q0.296875 -0.09375 0.515625 -0.21875l-0.234375 -1.203125q-0.15625 0.046875 -0.40625 0.09375q-0.234375 0.046875 -0.515625 0.09375q-0.28125 0.046875 -0.578125 0.078125q-0.28125 0.03125 -0.546875 0.03125q-0.375 0 -0.71875 -0.09375q-0.328125 -0.09375 -0.578125 -0.3125q-0.265625 -0.21875 -0.40625 -0.59375q-0.140625 -0.375 -0.140625 -0.953125l0 -5.34375l3.75 0l0 -1.3125l-3.75 0l0 -2.390625zm13.351837 6.953125l0 -0.09375q0 -1.390625 -0.21875 -2.5q-0.203125 -1.125 -0.53125 -2.078125q-0.34375 -0.984375 -0.796875 -1.78125q-0.4375 -0.796875 -0.953125 -1.4375q-0.484375 -0.625 -1.0 -1.078125q-0.515625 -0.453125 -0.96875 -0.703125l-0.34375 1.03125q0.296875 0.25 0.609375 0.609375q0.328125 0.34375 0.625 0.796875q0.390625 0.59375 0.765625 1.390625q0.375 0.796875 0.640625 1.796875q0.171875 0.703125 0.328125 1.71875q0.15625 1.0 0.15625 2.21875l0 0.125q0 1.09375 -0.125 2.046875q-0.109375 0.953125 -0.3125 1.765625q-0.203125 0.890625 -0.53125 1.625q-0.3125 0.75 -0.640625 1.34375q-0.359375 0.578125 -0.75 1.015625q-0.390625 0.453125 -0.765625 0.734375l0.34375 1.03125q0.453125 -0.25 0.953125 -0.703125q0.515625 -0.4375 1.015625 -1.078125q0.5 -0.625 0.9375 -1.4375q0.453125 -0.796875 0.8125 -1.78125q0.34375 -0.96875 0.546875 -2.109375q0.203125 -1.15625 0.203125 -2.46875z" fill-rule="nonzero"/><path fill="#000000" fill-opacity="0.0" d="m617.9989 93.15748l68.8504 0l0 45.25985l-68.8504 0z" fill-rule="evenodd"/><path fill="#000000" d="m656.7326 117.429276l0 -3.109375q0 -1.265625 -0.296875 -2.234375q-0.28125 -0.984375 -0.828125 -1.65625q-0.5625 -0.671875 -1.359375 -1.015625q-0.796875 -0.359375 -1.8125 -0.359375q-1.015625 0 -1.8125 0.359375q-0.796875 0.34375 -1.34375 1.015625q-0.546875 0.671875 -0.84375 1.65625q-0.28125 0.96875 -0.28125 2.234375l0 3.109375q0 1.265625 0.28125 2.25q0.296875 0.984375 0.84375 1.640625q0.5625 0.6875 1.359375 1.03125q0.8125 0.34375 1.8125 0.34375q1.03125 0 1.8125 -0.34375q0.796875 -0.359375 1.34375 -1.03125q0.546875 -0.65625 0.828125 -1.640625q0.296875 -0.984375 0.296875 -2.25zm-6.890625 -0.328125q0 -0.234375 0 -0.46875q0 -0.234375 0 -0.453125l0 -2.21875q0 -0.9375 0.1875 -1.640625q0.1875 -0.703125 0.5625 -1.15625q0.328125 -0.359375 0.78125 -0.53125q0.46875 -0.1875 1.0625 -0.1875q0.59375 0 1.046875 0.171875q0.453125 0.171875 0.765625 0.515625q0.3125 0.328125 0.5 0.84375q0.1875 0.5 0.265625 1.15625l-5.171875 3.96875zm5.203125 0.6875q0 0.96875 -0.203125 1.6875q-0.1875 0.71875 -0.609375 1.171875q-0.3125 0.328125 -0.765625 0.5q-0.4375 0.171875 -1.015625 0.171875q-0.546875 0 -0.984375 -0.15625q-0.4375 -0.15625 -0.734375 -0.46875q-0.34375 -0.328125 -0.5625 -0.828125q-0.203125 -0.515625 -0.28125 -1.171875l5.15625 -3.953125q0 0.265625 0 0.65625q0 0.375 0 0.515625l0 1.875z" fill-rule="nonzero"/><path fill="#000000" fill-opacity="0.0" d="m574.9989 93.15748l68.8504 0l0 45.25985l-68.8504 0z" fill-rule="evenodd"/><path fill="#000000" d="m610.8732 122.5074l0 -13.265625l-0.125 0l-5.03125 1.9375l0 1.53125l3.46875 -1.3125l0 11.109375l1.6875 0z" fill-rule="nonzero"/><path fill="#000000" fill-opacity="0.0" d="m531.9989 93.15748l68.8504 0l0 45.25985l-68.8504 0z" fill-rule="evenodd"/><path fill="#000000" d="m570.5451 122.5074l0 -1.375l-6.65625 0l3.5625 -3.859375q0.5 -0.546875 0.953125 -1.09375q0.453125 -0.5625 0.796875 -1.125q0.328125 -0.5625 0.53125 -1.140625q0.203125 -0.578125 0.203125 -1.171875q0 -0.796875 -0.28125 -1.46875q-0.28125 -0.671875 -0.796875 -1.15625q-0.515625 -0.5 -1.265625 -0.78125q-0.75 -0.28125 -1.6875 -0.28125q-1.03125 0 -1.828125 0.328125q-0.796875 0.328125 -1.34375 0.890625q-0.546875 0.5625 -0.84375 1.3125q-0.28125 0.734375 -0.28125 1.5625l1.6875 0q0 -0.609375 0.15625 -1.109375q0.15625 -0.515625 0.484375 -0.859375q0.328125 -0.34375 0.8125 -0.53125q0.484375 -0.203125 1.15625 -0.203125q0.546875 0 0.96875 0.1875q0.4375 0.1875 0.75 0.5q0.296875 0.328125 0.453125 0.765625q0.171875 0.421875 0.171875 0.921875q0 0.390625 -0.109375 0.78125q-0.09375 0.375 -0.328125 0.796875q-0.25 0.421875 -0.640625 0.921875q-0.390625 0.5 -0.96875 1.140625l-4.34375 4.828125l0 1.21875l8.6875 0z" fill-rule="nonzero"/><path fill="#000000" fill-opacity="0.0" d="m488.99893 93.15748l68.85037 0l0 45.25985l-68.85037 0z" fill-rule="evenodd"/><path fill="#000000" d="m521.3732 115.0699l0 1.359375l1.203125 0q0.640625 0 1.15625 0.15625q0.53125 0.140625 0.90625 0.4375q0.359375 0.296875 0.5625 0.75q0.203125 0.453125 0.203125 1.078125q0 0.625 -0.1875 1.09375q-0.171875 0.453125 -0.5 0.765625q-0.328125 0.296875 -0.796875 0.453125q-0.453125 0.15625 -1.03125 0.15625q-0.578125 0 -1.046875 -0.15625q-0.46875 -0.171875 -0.796875 -0.484375q-0.328125 -0.296875 -0.5 -0.71875q-0.171875 -0.4375 -0.171875 -0.953125l-1.6875 0q0 0.875 0.328125 1.5625q0.328125 0.6875 0.90625 1.15625q0.5625 0.46875 1.328125 0.71875q0.765625 0.25 1.640625 0.25q0.890625 0 1.65625 -0.265625q0.78125 -0.265625 1.34375 -0.765625q0.5625 -0.484375 0.875 -1.203125q0.328125 -0.71875 0.328125 -1.65625q0 -0.453125 -0.109375 -0.90625q-0.09375 -0.46875 -0.359375 -0.890625q-0.265625 -0.421875 -0.703125 -0.75q-0.421875 -0.34375 -1.078125 -0.5625q0.546875 -0.21875 0.921875 -0.5625q0.390625 -0.34375 0.640625 -0.734375q0.25 -0.375 0.359375 -0.78125q0.125 -0.421875 0.125 -0.796875q0 -0.921875 -0.296875 -1.625q-0.28125 -0.703125 -0.8125 -1.171875q-0.53125 -0.484375 -1.265625 -0.71875q-0.734375 -0.25 -1.625 -0.25q-0.921875 0 -1.6875 0.296875q-0.75 0.28125 -1.28125 0.78125q-0.53125 0.5 -0.828125 1.171875q-0.296875 0.65625 -0.296875 1.421875l1.6875 0q0 -0.515625 0.171875 -0.9375q0.171875 -0.421875 0.5 -0.71875q0.3125 -0.296875 0.75 -0.453125q0.4375 -0.171875 0.984375 -0.171875q0.546875 0 0.984375 0.140625q0.4375 0.140625 0.71875 0.421875q0.296875 0.296875 0.453125 0.734375q0.15625 0.4375 0.15625 1.03125q0 0.5 -0.171875 0.921875q-0.171875 0.421875 -0.5 0.71875q-0.328125 0.3125 -0.828125 0.484375q-0.484375 0.171875 -1.125 0.171875l-1.203125 0z" fill-rule="nonzero"/><path fill="#000000" fill-opacity="0.0" d="m445.99893 93.15748l68.85037 0l0 45.25985l-68.85037 0z" fill-rule="evenodd"/><path fill="#000000" d="m483.2482 118.054276l0 -8.8125l-1.796875 0l-5.9375 9.1875l0 1.0l6.046875 0l0 3.078125l1.6875 0l0 -3.078125l1.84375 0l0 -1.375l-1.84375 0zm-5.875 0l3.90625 -6.0625l0.28125 -0.5l0 6.5625l-4.1875 0z" fill-rule="nonzero"/><path fill="#000000" fill-opacity="0.0" d="m402.99893 93.15748l68.85037 0l0 45.25985l-68.85037 0z" fill-rule="evenodd"/><path fill="#000000" d="m434.01382 115.85115l1.34375 0.359375q0.234375 -0.203125 0.4375 -0.359375q0.21875 -0.15625 0.46875 -0.265625q0.25 -0.109375 0.546875 -0.171875q0.3125 -0.0625 0.734375 -0.0625q0.625 0 1.109375 0.234375q0.5 0.21875 0.84375 0.625q0.328125 0.390625 0.5 0.9375q0.1875 0.53125 0.1875 1.15625q0 0.671875 -0.15625 1.234375q-0.15625 0.5625 -0.46875 0.953125q-0.3125 0.390625 -0.78125 0.609375q-0.46875 0.21875 -1.0625 0.21875q-1.078125 0 -1.75 -0.578125q-0.671875 -0.59375 -0.828125 -1.71875l-1.609375 0q0.09375 0.921875 0.453125 1.609375q0.359375 0.6875 0.921875 1.140625q0.5625 0.46875 1.28125 0.703125q0.71875 0.21875 1.53125 0.21875q1.046875 0 1.828125 -0.328125q0.796875 -0.34375 1.3125 -0.9375q0.5 -0.578125 0.75 -1.390625q0.265625 -0.8125 0.265625 -1.765625q0 -1.0 -0.28125 -1.8125q-0.265625 -0.828125 -0.78125 -1.40625q-0.5 -0.578125 -1.234375 -0.890625q-0.734375 -0.3125 -1.640625 -0.3125q-0.71875 0 -1.265625 0.171875q-0.546875 0.171875 -0.9375 0.390625l0.359375 -3.53125l5.390625 0l0 -1.640625l-6.8125 0l-0.65625 6.609375z" fill-rule="nonzero"/><path fill="#000000" fill-opacity="0.0" d="m101.998924 93.15748l68.850395 0l0 45.25985l-68.850395 0z" fill-rule="evenodd"/><path fill="#000000" d="m132.27542 122.5074l0 -13.265625l-0.125 0l-5.03125 1.9375l0 1.53125l3.46875 -1.3125l0 11.109375l1.6875 0zm13.867447 0l0 -1.375l-6.65625 0l3.5625 -3.859375q0.5 -0.546875 0.953125 -1.09375q0.453125 -0.5625 0.796875 -1.125q0.328125 -0.5625 0.53125 -1.140625q0.203125 -0.578125 0.203125 -1.171875q0 -0.796875 -0.28125 -1.46875q-0.28125 -0.671875 -0.796875 -1.15625q-0.515625 -0.5 -1.265625 -0.78125q-0.75 -0.28125 -1.6875 -0.28125q-1.03125 0 -1.828125 0.328125q-0.796875 0.328125 -1.34375 0.890625q-0.546875 0.5625 -0.84375 1.3125q-0.28125 0.734375 -0.28125 1.5625l1.6875 0q0 -0.609375 0.15625 -1.109375q0.15625 -0.515625 0.484375 -0.859375q0.328125 -0.34375 0.8125 -0.53125q0.484375 -0.203125 1.15625 -0.203125q0.546875 0 0.96875 0.1875q0.4375 0.1875 0.75 0.5q0.296875 0.328125 0.453125 0.765625q0.171875 0.421875 0.171875 0.921875q0 0.390625 -0.109375 0.78125q-0.09375 0.375 -0.328125 0.796875q-0.25 0.421875 -0.640625 0.921875q-0.390625 0.5 -0.96875 1.140625l-4.34375 4.828125l0 1.21875l8.6875 0z" fill-rule="nonzero"/><path fill="#000000" fill-opacity="0.0" d="m144.99892 93.15748l68.8504 0l0 45.25985l-68.8504 0z" fill-rule="evenodd"/><path fill="#000000" d="m175.27542 122.5074l0 -13.265625l-0.125 0l-5.03125 1.9375l0 1.53125l3.46875 -1.3125l0 11.109375l1.6875 0zm11.195572 0l0 -13.265625l-0.125 0l-5.03125 1.9375l0 1.53125l3.46875 -1.3125l0 11.109375l1.6875 0z" fill-rule="nonzero"/><path fill="#000000" fill-opacity="0.0" d="m187.99892 93.15748l68.85039 0l0 45.25985l-68.85039 0z" fill-rule="evenodd"/><path fill="#000000" d="m218.27542 122.5074l0 -13.265625l-0.125 0l-5.03125 1.9375l0 1.53125l3.46875 -1.3125l0 11.109375l1.6875 0zm14.054947 -5.078125l0 -3.109375q0 -1.265625 -0.296875 -2.234375q-0.28125 -0.984375 -0.828125 -1.65625q-0.5625 -0.671875 -1.359375 -1.015625q-0.796875 -0.359375 -1.8125 -0.359375q-1.015625 0 -1.8125 0.359375q-0.796875 0.34375 -1.34375 1.015625q-0.546875 0.671875 -0.84375 1.65625q-0.28125 0.96875 -0.28125 2.234375l0 3.109375q0 1.265625 0.28125 2.25q0.296875 0.984375 0.84375 1.640625q0.5625 0.6875 1.359375 1.03125q0.8125 0.34375 1.8125 0.34375q1.03125 0 1.8125 -0.34375q0.796875 -0.359375 1.34375 -1.03125q0.546875 -0.65625 0.828125 -1.640625q0.296875 -0.984375 0.296875 -2.25zm-6.890625 -0.328125q0 -0.234375 0 -0.46875q0 -0.234375 0 -0.453125l0 -2.21875q0 -0.9375 0.1875 -1.640625q0.1875 -0.703125 0.5625 -1.15625q0.328125 -0.359375 0.78125 -0.53125q0.46875 -0.1875 1.0625 -0.1875q0.59375 0 1.046875 0.171875q0.453125 0.171875 0.765625 0.515625q0.3125 0.328125 0.5 0.84375q0.1875 0.5 0.265625 1.15625l-5.171875 3.96875zm5.203125 0.6875q0 0.96875 -0.203125 1.6875q-0.1875 0.71875 -0.609375 1.171875q-0.3125 0.328125 -0.765625 0.5q-0.4375 0.171875 -1.015625 0.171875q-0.546875 0 -0.984375 -0.15625q-0.4375 -0.15625 -0.734375 -0.46875q-0.34375 -0.328125 -0.5625 -0.828125q-0.203125 -0.515625 -0.28125 -1.171875l5.15625 -3.953125q0 0.265625 0 0.65625q0 0.375 0 0.515625l0 1.875z" fill-rule="nonzero"/><path fill="#000000" fill-opacity="0.0" d="m230.99892 93.15748l68.85039 0l0 45.25985l-68.85039 0z" fill-rule="evenodd"/><path fill="#000000" d="m263.21695 121.0074l-0.171875 0l0 1.515625l0.171875 0q1.640625 0 2.78125 -0.453125q1.15625 -0.453125 1.796875 -1.1875q1.078125 -1.203125 1.40625 -2.75q0.328125 -1.5625 0.328125 -3.09375l0 -0.609375q0 -1.09375 -0.3125 -2.171875q-0.296875 -1.09375 -0.890625 -1.8125q-0.515625 -0.625 -1.265625 -1.0q-0.75 -0.390625 -1.765625 -0.390625q-1.015625 0 -1.796875 0.375q-0.765625 0.375 -1.28125 0.984375q-0.515625 0.640625 -0.78125 1.46875q-0.25 0.828125 -0.25 1.765625q0 0.8125 0.21875 1.609375q0.21875 0.78125 0.6875 1.40625q0.453125 0.640625 1.171875 1.03125q0.71875 0.375 1.703125 0.375q0.5 0 0.9375 -0.09375q0.4375 -0.109375 0.796875 -0.296875q0.34375 -0.1875 0.625 -0.421875q0.28125 -0.25 0.5 -0.515625l0 0.015625q-0.03125 0.84375 -0.25 1.625q-0.21875 0.78125 -0.859375 1.46875q-0.515625 0.546875 -1.375 0.859375q-0.84375 0.296875 -2.125 0.296875zm2.015625 -4.328125q-0.609375 0 -1.0625 -0.265625q-0.4375 -0.28125 -0.734375 -0.71875q-0.296875 -0.421875 -0.453125 -0.984375q-0.140625 -0.5625 -0.140625 -1.15625q0 -0.640625 0.15625 -1.203125q0.171875 -0.578125 0.484375 -1.0q0.3125 -0.40625 0.765625 -0.640625q0.453125 -0.25 1.046875 -0.25q0.53125 0 0.984375 0.265625q0.46875 0.25 0.8125 0.71875q0.34375 0.484375 0.546875 1.1875q0.21875 0.6875 0.21875 1.5625l0 0.546875q-0.15625 0.4375 -0.4375 0.796875q-0.265625 0.34375 -0.59375 0.59375q-0.34375 0.265625 -0.75 0.40625q-0.40625 0.140625 -0.84375 0.140625z" fill-rule="nonzero"/><path fill="#000000" fill-opacity="0.0" d="m273.99893 93.15748l68.85037 0l0 45.25985l-68.85037 0z" fill-rule="evenodd"/><path fill="#000000" d="m312.57632 112.710526q0 -0.875 -0.3125 -1.546875q-0.296875 -0.6875 -0.8125 -1.140625q-0.53125 -0.46875 -1.25 -0.71875q-0.71875 -0.25 -1.5625 -0.25q-0.84375 0 -1.5625 0.25q-0.71875 0.25 -1.21875 0.71875q-0.53125 0.453125 -0.828125 1.140625q-0.28125 0.671875 -0.28125 1.546875q0 0.484375 0.140625 0.9375q0.140625 0.4375 0.375 0.8125q0.25 0.390625 0.59375 0.703125q0.359375 0.296875 0.796875 0.515625q-0.5 0.21875 -0.921875 0.546875q-0.40625 0.328125 -0.6875 0.734375q-0.296875 0.421875 -0.453125 0.921875q-0.15625 0.484375 -0.15625 1.046875q0 0.90625 0.328125 1.609375q0.328125 0.703125 0.90625 1.171875q0.5625 0.484375 1.328125 0.734375q0.78125 0.25 1.671875 0.25q0.875 0 1.640625 -0.25q0.765625 -0.25 1.328125 -0.734375q0.5625 -0.484375 0.890625 -1.171875q0.34375 -0.703125 0.34375 -1.609375q0 -0.5625 -0.15625 -1.046875q-0.15625 -0.5 -0.453125 -0.90625q-0.296875 -0.421875 -0.71875 -0.75q-0.40625 -0.328125 -0.921875 -0.546875q0.296875 -0.140625 0.546875 -0.3125q0.25 -0.1875 0.46875 -0.40625q0.4375 -0.4375 0.671875 -1.015625q0.25 -0.578125 0.265625 -1.234375zm-1.390625 6.1875q0 0.5625 -0.1875 1.015625q-0.1875 0.453125 -0.515625 0.765625q-0.328125 0.3125 -0.796875 0.484375q-0.46875 0.15625 -1.015625 0.15625q-0.59375 0 -1.0625 -0.15625q-0.46875 -0.171875 -0.796875 -0.484375q-0.328125 -0.3125 -0.5 -0.765625q-0.171875 -0.453125 -0.171875 -1.015625q0 -0.5625 0.171875 -1.015625q0.171875 -0.46875 0.5 -0.8125q0.328125 -0.328125 0.796875 -0.5q0.46875 -0.1875 1.046875 -0.1875q0.546875 0 1.015625 0.1875q0.46875 0.171875 0.8125 0.5q0.328125 0.34375 0.515625 0.8125q0.1875 0.453125 0.1875 1.015625zm-0.3125 -6.171875q0 0.515625 -0.171875 0.9375q-0.15625 0.421875 -0.4375 0.703125q-0.3125 0.3125 -0.71875 0.46875q-0.40625 0.15625 -0.890625 0.15625q-0.484375 0 -0.890625 -0.15625q-0.40625 -0.15625 -0.703125 -0.46875q-0.296875 -0.28125 -0.46875 -0.6875q-0.15625 -0.421875 -0.15625 -0.953125q0 -0.515625 0.15625 -0.9375q0.171875 -0.421875 0.46875 -0.71875q0.28125 -0.296875 0.671875 -0.453125q0.40625 -0.171875 0.90625 -0.171875q0.484375 0 0.890625 0.171875q0.421875 0.171875 0.71875 0.46875q0.296875 0.3125 0.453125 0.734375q0.171875 0.40625 0.171875 0.90625z" fill-rule="nonzero"/><path fill="#000000" fill-opacity="0.0" d="m316.99893 93.15748l68.85037 0l0 45.25985l-68.85037 0z" fill-rule="evenodd"/><path fill="#000000" d="m355.8107 110.1949l0 -0.953125l-8.96875 0l0 1.484375l7.1875 0l-5.484375 11.78125l1.765625 0l5.5 -12.3125z" fill-rule="nonzero"/><path fill="#000000" fill-opacity="0.0" d="m359.99893 93.15748l68.85037 0l0 45.25985l-68.85037 0z" fill-rule="evenodd"/><path fill="#000000" d="m396.6232 109.241776l-0.140625 0q-1.421875 0 -2.546875 0.390625q-1.125 0.390625 -1.90625 1.171875q-1.140625 1.140625 -1.53125 2.75q-0.390625 1.609375 -0.390625 3.265625l0 0.78125q0 0.96875 0.296875 1.9375q0.296875 0.953125 0.875 1.671875q0.53125 0.65625 1.296875 1.078125q0.78125 0.40625 1.8125 0.40625q1.0 0 1.765625 -0.359375q0.78125 -0.359375 1.296875 -0.96875q0.515625 -0.625 0.78125 -1.4375q0.265625 -0.8125 0.265625 -1.75q0 -0.8125 -0.21875 -1.59375q-0.21875 -0.78125 -0.6875 -1.40625q-0.46875 -0.609375 -1.1875 -0.984375q-0.71875 -0.390625 -1.71875 -0.390625q-0.453125 0 -0.875 0.109375q-0.40625 0.109375 -0.75 0.28125q-0.375 0.171875 -0.6875 0.421875q-0.296875 0.234375 -0.546875 0.515625q0.0625 -0.875 0.359375 -1.703125q0.296875 -0.828125 0.875 -1.421875q0.53125 -0.578125 1.375 -0.921875q0.84375 -0.34375 2.046875 -0.34375l0.140625 0l0 -1.5zm-2.203125 5.96875q0.609375 0 1.0625 0.265625q0.453125 0.25 0.765625 0.671875q0.296875 0.421875 0.4375 0.984375q0.140625 0.546875 0.140625 1.125q0 0.65625 -0.15625 1.21875q-0.15625 0.5625 -0.46875 0.96875q-0.3125 0.390625 -0.765625 0.625q-0.453125 0.21875 -1.046875 0.21875q-0.515625 0 -0.984375 -0.234375q-0.453125 -0.234375 -0.8125 -0.703125q-0.359375 -0.46875 -0.578125 -1.140625q-0.203125 -0.6875 -0.203125 -1.5625l0 -0.5625q0.15625 -0.421875 0.421875 -0.765625q0.265625 -0.34375 0.609375 -0.59375q0.34375 -0.234375 0.75 -0.375q0.40625 -0.140625 0.828125 -0.140625z" fill-rule="nonzero"/><path fill="#000000" fill-opacity="0.0" d="m15.998922 93.15748l68.850395 0l0 45.25985l-68.850395 0z" fill-rule="evenodd"/><path fill="#000000" d="m46.275425 122.5074l0 -13.265625l-0.125 0l-5.03125 1.9375l0 1.53125l3.46875 -1.3125l0 11.109375l1.6875 0zm12.570572 -4.453125l0 -8.8125l-1.796875 0l-5.9375 9.1875l0 1.0l6.046875 0l0 3.078125l1.6875 0l0 -3.078125l1.84375 0l0 -1.375l-1.84375 0zm-5.875 0l3.90625 -6.0625l0.28125 -0.5l0 6.5625l-4.1875 0z" fill-rule="nonzero"/><path fill="#000000" fill-opacity="0.0" d="m58.998924 93.15748l68.850395 0l0 45.25985l-68.850395 0z" fill-rule="evenodd"/><path fill="#000000" d="m89.27542 122.5074l0 -13.265625l-0.125 0l-5.03125 1.9375l0 1.53125l3.46875 -1.3125l0 11.109375l1.6875 0zm7.695572 -7.4375l0 1.359375l1.203125 0q0.640625 0 1.15625 0.15625q0.53125 0.140625 0.90625 0.4375q0.359375 0.296875 0.5625 0.75q0.203125 0.453125 0.203125 1.078125q0 0.625 -0.1875 1.09375q-0.171875 0.453125 -0.5 0.765625q-0.328125 0.296875 -0.796875 0.453125q-0.453125 0.15625 -1.03125 0.15625q-0.578125 0 -1.046875 -0.15625q-0.46875 -0.171875 -0.796875 -0.484375q-0.328125 -0.296875 -0.5 -0.71875q-0.171875 -0.4375 -0.171875 -0.953125l-1.6875 0q0 0.875 0.328125 1.5625q0.328125 0.6875 0.90625 1.15625q0.5625 0.46875 1.328125 0.71875q0.765625 0.25 1.640625 0.25q0.890625 0 1.65625 -0.265625q0.78125 -0.265625 1.34375 -0.765625q0.5625 -0.484375 0.875 -1.203125q0.328125 -0.71875 0.328125 -1.65625q0 -0.453125 -0.109375 -0.90625q-0.09375 -0.46875 -0.359375 -0.890625q-0.265625 -0.421875 -0.703125 -0.75q-0.421875 -0.34375 -1.078125 -0.5625q0.546875 -0.21875 0.921875 -0.5625q0.390625 -0.34375 0.640625 -0.734375q0.25 -0.375 0.359375 -0.78125q0.125 -0.421875 0.125 -0.796875q0 -0.921875 -0.296875 -1.625q-0.28125 -0.703125 -0.8125 -1.171875q-0.53125 -0.484375 -1.265625 -0.71875q-0.734375 -0.25 -1.625 -0.25q-0.921875 0 -1.6875 0.296875q-0.75 0.28125 -1.28125 0.78125q-0.53125 0.5 -0.828125 1.171875q-0.296875 0.65625 -0.296875 1.421875l1.6875 0q0 -0.515625 0.171875 -0.9375q0.171875 -0.421875 0.5 -0.71875q0.3125 -0.296875 0.75 -0.453125q0.4375 -0.171875 0.984375 -0.171875q0.546875 0 0.984375 0.140625q0.4375 0.140625 0.71875 0.421875q0.296875 0.296875 0.453125 0.734375q0.15625 0.4375 0.15625 1.03125q0 0.5 -0.171875 0.921875q-0.171875 0.421875 -0.5 0.71875q-0.328125 0.3125 -0.828125 0.484375q-0.484375 0.171875 -1.125 0.171875l-1.203125 0z" fill-rule="nonzero"/><path fill="#000000" fill-opacity="0.0" d="m368.9097 16.0l265.00784 0l0 42.015747l-265.00784 0z" fill-rule="evenodd"/><path fill="#000000" d="m444.41208 38.935623l-1.6875 0q-0.078125 0.59375 -0.28125 1.109375q-0.203125 0.515625 -0.53125 0.890625q-0.34375 0.375 -0.828125 0.59375q-0.484375 0.203125 -1.15625 0.203125q-0.609375 0 -1.0625 -0.1875q-0.453125 -0.203125 -0.796875 -0.546875q-0.328125 -0.34375 -0.546875 -0.78125q-0.21875 -0.453125 -0.359375 -0.953125q-0.140625 -0.5 -0.203125 -1.015625q-0.046875 -0.53125 -0.046875 -1.03125l0 -1.859375q0 -0.5 0.046875 -1.015625q0.0625 -0.53125 0.203125 -1.03125q0.140625 -0.5 0.359375 -0.9375q0.21875 -0.453125 0.5625 -0.796875q0.328125 -0.328125 0.78125 -0.515625q0.46875 -0.203125 1.0625 -0.203125q0.671875 0 1.15625 0.21875q0.484375 0.21875 0.828125 0.609375q0.328125 0.390625 0.53125 0.921875q0.203125 0.515625 0.28125 1.109375l1.6875 0q-0.109375 -0.9375 -0.453125 -1.71875q-0.34375 -0.796875 -0.90625 -1.359375q-0.5625 -0.546875 -1.34375 -0.859375q-0.78125 -0.3125 -1.78125 -0.3125q-0.828125 0 -1.5 0.234375q-0.65625 0.234375 -1.171875 0.640625q-0.53125 0.421875 -0.90625 0.984375q-0.375 0.546875 -0.625 1.203125q-0.25 0.65625 -0.375 1.375q-0.125 0.71875 -0.140625 1.46875l0 1.84375q0.015625 0.734375 0.140625 1.453125q0.125 0.71875 0.375 1.375q0.25 0.65625 0.625 1.21875q0.375 0.546875 0.90625 0.96875q0.515625 0.40625 1.1875 0.640625q0.671875 0.234375 1.484375 0.234375q0.96875 0 1.734375 -0.296875q0.78125 -0.3125 1.359375 -0.875q0.5625 -0.546875 0.921875 -1.3125q0.359375 -0.765625 0.46875 -1.6875zm2.1330566 -1.03125l0 0.203125q0 1.0625 0.3125 1.96875q0.3125 0.90625 0.890625 1.59375q0.578125 0.671875 1.40625 1.0625q0.84375 0.375 1.890625 0.375q1.03125 0 1.859375 -0.375q0.828125 -0.390625 1.40625 -1.0625q0.578125 -0.6875 0.890625 -1.59375q0.3125 -0.90625 0.3125 -1.96875l0 -0.203125q0 -1.0625 -0.3125 -1.984375q-0.3125 -0.921875 -0.890625 -1.59375q-0.578125 -0.671875 -1.421875 -1.046875q-0.828125 -0.390625 -1.875 -0.390625q-1.03125 0 -1.859375 0.390625q-0.828125 0.375 -1.40625 1.046875q-0.578125 0.671875 -0.890625 1.59375q-0.3125 0.921875 -0.3125 1.984375zm1.6875 0.203125l0 -0.203125q0 -0.71875 0.171875 -1.375q0.171875 -0.671875 0.53125 -1.171875q0.34375 -0.5 0.859375 -0.796875q0.515625 -0.296875 1.21875 -0.296875q0.703125 0 1.21875 0.296875q0.53125 0.296875 0.890625 0.796875q0.34375 0.5 0.515625 1.171875q0.1875 0.65625 0.1875 1.375l0 0.203125q0 0.71875 -0.171875 1.390625q-0.171875 0.65625 -0.515625 1.15625q-0.359375 0.5 -0.890625 0.796875q-0.515625 0.28125 -1.203125 0.28125q-0.703125 0 -1.234375 -0.28125q-0.53125 -0.296875 -0.875 -0.796875q-0.359375 -0.5 -0.53125 -1.15625q-0.171875 -0.671875 -0.171875 -1.390625zm10.242462 -9.1875l0 1.46875l3.359375 0l0 11.078125l-3.359375 0l0 1.453125l8.265625 0l0 -1.453125l-3.21875 0l0 -12.546875l-5.046875 0zm17.429932 14.0l1.53125 0l0 -9.859375l-1.6875 0l0 7.078125q-0.140625 0.3125 -0.34375 0.578125q-0.203125 0.265625 -0.484375 0.46875q-0.328125 0.234375 -0.78125 0.375q-0.4375 0.125 -1.0 0.125q-0.484375 0 -0.859375 -0.125q-0.359375 -0.140625 -0.625 -0.453125q-0.25 -0.3125 -0.375 -0.828125q-0.125 -0.53125 -0.125 -1.34375l0 -5.875l-1.6875 0l0 5.859375q0 1.109375 0.234375 1.890625q0.25 0.78125 0.6875 1.296875q0.453125 0.515625 1.078125 0.765625q0.625 0.234375 1.40625 0.234375q0.96875 0 1.703125 -0.40625q0.734375 -0.40625 1.234375 -1.140625l0.09375 1.359375zm5.476837 -9.859375l-1.515625 0l0 9.859375l1.609375 0l0 -7.84375q0.046875 -0.140625 0.125 -0.265625q0.09375 -0.140625 0.21875 -0.234375q0.15625 -0.125 0.375 -0.1875q0.21875 -0.078125 0.53125 -0.078125q0.265625 0 0.46875 0.078125q0.203125 0.0625 0.34375 0.203125q0.15625 0.15625 0.21875 0.390625q0.0625 0.234375 0.0625 0.546875l0 7.390625l1.609375 0l0 -7.375q0 -0.0625 0 -0.09375q0 -0.046875 0 -0.09375q0.03125 -0.21875 0.109375 -0.40625q0.078125 -0.1875 0.21875 -0.34375q0.15625 -0.125 0.375 -0.203125q0.21875 -0.09375 0.515625 -0.09375q0.28125 0 0.484375 0.078125q0.21875 0.0625 0.375 0.21875q0.140625 0.15625 0.203125 0.390625q0.078125 0.234375 0.078125 0.546875l0 7.375l1.59375 0l0 -7.359375q0 -0.71875 -0.171875 -1.234375q-0.15625 -0.53125 -0.453125 -0.859375q-0.28125 -0.28125 -0.703125 -0.421875q-0.40625 -0.15625 -0.921875 -0.15625q-0.359375 0 -0.6875 0.09375q-0.3125 0.09375 -0.5625 0.25q-0.203125 0.125 -0.375 0.3125q-0.171875 0.1875 -0.296875 0.390625q-0.109375 -0.21875 -0.25 -0.40625q-0.140625 -0.1875 -0.3125 -0.3125q-0.234375 -0.15625 -0.546875 -0.234375q-0.3125 -0.09375 -0.703125 -0.09375q-0.6875 0 -1.1875 0.296875q-0.484375 0.28125 -0.78125 0.8125l-0.046875 -0.9375zm10.414307 9.859375l1.6875 0l0 -7.0625q0.171875 -0.328125 0.40625 -0.59375q0.234375 -0.265625 0.515625 -0.453125q0.328125 -0.234375 0.71875 -0.359375q0.40625 -0.140625 0.875 -0.140625q0.546875 0 0.953125 0.125q0.421875 0.125 0.703125 0.40625q0.28125 0.296875 0.421875 0.75q0.15625 0.453125 0.15625 1.109375l0 6.21875l1.6875 0l0 -6.265625q0 -0.96875 -0.25 -1.6875q-0.234375 -0.71875 -0.6875 -1.1875q-0.4375 -0.453125 -1.078125 -0.671875q-0.625 -0.21875 -1.40625 -0.21875q-0.5625 0 -1.078125 0.171875q-0.515625 0.15625 -0.953125 0.4375q-0.296875 0.1875 -0.5625 0.453125q-0.25 0.265625 -0.46875 0.5625l-0.125 -1.453125l-1.515625 0l0 9.859375zm30.719269 -5.078125l0 -3.109375q0 -1.265625 -0.296875 -2.234375q-0.28125 -0.984375 -0.828125 -1.65625q-0.5625 -0.671875 -1.359375 -1.015625q-0.796875 -0.359375 -1.8125 -0.359375q-1.015625 0 -1.8125 0.359375q-0.796875 0.34375 -1.34375 1.015625q-0.546875 0.671875 -0.84375 1.65625q-0.28125 0.96875 -0.28125 2.234375l0 3.109375q0 1.265625 0.28125 2.25q0.296875 0.984375 0.84375 1.640625q0.5625 0.6875 1.359375 1.03125q0.8125 0.34375 1.8125 0.34375q1.03125 0 1.8125 -0.34375q0.796875 -0.359375 1.34375 -1.03125q0.546875 -0.65625 0.828125 -1.640625q0.296875 -0.984375 0.296875 -2.25zm-6.890625 -0.328125q0 -0.234375 0 -0.46875q0 -0.234375 0 -0.453125l0 -2.21875q0 -0.9375 0.1875 -1.640625q0.1875 -0.703125 0.5625 -1.15625q0.328125 -0.359375 0.78125 -0.53125q0.46875 -0.1875 1.0625 -0.1875q0.59375 0 1.046875 0.171875q0.453125 0.171875 0.765625 0.515625q0.3125 0.328125 0.5 0.84375q0.1875 0.5 0.265625 1.15625l-5.171875 3.96875zm5.203125 0.6875q0 0.96875 -0.203125 1.6875q-0.1875 0.71875 -0.609375 1.171875q-0.3125 0.328125 -0.765625 0.5q-0.4375 0.171875 -1.015625 0.171875q-0.546875 0 -0.984375 -0.15625q-0.4375 -0.15625 -0.734375 -0.46875q-0.34375 -0.328125 -0.5625 -0.828125q-0.203125 -0.515625 -0.28125 -1.171875l5.15625 -3.953125q0 0.265625 0 0.65625q0 0.375 0 0.515625l0 1.875zm11.929932 -0.390625l0 -1.390625l-6.96875 0l0 1.390625l6.96875 0zm11.961243 5.109375l0 -1.375l-6.65625 0l3.5625 -3.859375q0.5 -0.546875 0.953125 -1.09375q0.453125 -0.5625 0.796875 -1.125q0.328125 -0.5625 0.53125 -1.140625q0.203125 -0.578125 0.203125 -1.171875q0 -0.796875 -0.28125 -1.46875q-0.28125 -0.671875 -0.796875 -1.15625q-0.515625 -0.5 -1.265625 -0.78125q-0.75 -0.28125 -1.6875 -0.28125q-1.03125 0 -1.828125 0.328125q-0.796875 0.328125 -1.34375 0.890625q-0.546875 0.5625 -0.84375 1.3125q-0.28125 0.734375 -0.28125 1.5625l1.6875 0q0 -0.609375 0.15625 -1.109375q0.15625 -0.515625 0.484375 -0.859375q0.328125 -0.34375 0.8125 -0.53125q0.484375 -0.203125 1.15625 -0.203125q0.546875 0 0.96875 0.1875q0.4375 0.1875 0.75 0.5q0.296875 0.328125 0.453125 0.765625q0.171875 0.421875 0.171875 0.921875q0 0.390625 -0.109375 0.78125q-0.09375 0.375 -0.328125 0.796875q-0.25 0.421875 -0.640625 0.921875q-0.390625 0.5 -0.96875 1.140625l-4.34375 4.828125l0 1.21875l8.6875 0zm3.6643066 -6.65625l1.34375 0.359375q0.234375 -0.203125 0.4375 -0.359375q0.21875 -0.15625 0.46875 -0.265625q0.25 -0.109375 0.546875 -0.171875q0.3125 -0.0625 0.734375 -0.0625q0.625 0 1.109375 0.234375q0.5 0.21875 0.84375 0.625q0.328125 0.390625 0.5 0.9375q0.1875 0.53125 0.1875 1.15625q0 0.671875 -0.15625 1.234375q-0.15625 0.5625 -0.46875 0.953125q-0.3125 0.390625 -0.78125 0.609375q-0.46875 0.21875 -1.0625 0.21875q-1.078125 0 -1.75 -0.578125q-0.671875 -0.59375 -0.828125 -1.71875l-1.609375 0q0.09375 0.921875 0.453125 1.609375q0.359375 0.6875 0.921875 1.140625q0.5625 0.46875 1.28125 0.703125q0.71875 0.21875 1.53125 0.21875q1.046875 0 1.828125 -0.328125q0.796875 -0.34375 1.3125 -0.9375q0.5 -0.578125 0.75 -1.390625q0.265625 -0.8125 0.265625 -1.765625q0 -1.0 -0.28125 -1.8125q-0.265625 -0.828125 -0.78125 -1.40625q-0.5 -0.578125 -1.234375 -0.890625q-0.734375 -0.3125 -1.640625 -0.3125q-0.71875 0 -1.265625 0.171875q-0.546875 0.171875 -0.9375 0.390625l0.359375 -3.53125l5.390625 0l0 -1.640625l-6.8125 0l-0.65625 6.609375zm11.195557 0l1.34375 0.359375q0.234375 -0.203125 0.4375 -0.359375q0.21875 -0.15625 0.46875 -0.265625q0.25 -0.109375 0.546875 -0.171875q0.3125 -0.0625 0.734375 -0.0625q0.625 0 1.109375 0.234375q0.5 0.21875 0.84375 0.625q0.328125 0.390625 0.5 0.9375q0.1875 0.53125 0.1875 1.15625q0 0.671875 -0.15625 1.234375q-0.15625 0.5625 -0.46875 0.953125q-0.3125 0.390625 -0.78125 0.609375q-0.46875 0.21875 -1.0625 0.21875q-1.078125 0 -1.75 -0.578125q-0.671875 -0.59375 -0.828125 -1.71875l-1.609375 0q0.09375 0.921875 0.453125 1.609375q0.359375 0.6875 0.921875 1.140625q0.5625 0.46875 1.28125 0.703125q0.71875 0.21875 1.53125 0.21875q1.046875 0 1.828125 -0.328125q0.796875 -0.34375 1.3125 -0.9375q0.5 -0.578125 0.75 -1.390625q0.265625 -0.8125 0.265625 -1.765625q0 -1.0 -0.28125 -1.8125q-0.265625 -0.828125 -0.78125 -1.40625q-0.5 -0.578125 -1.234375 -0.890625q-0.734375 -0.3125 -1.640625 -0.3125q-0.71875 0 -1.265625 0.171875q-0.546875 0.171875 -0.9375 0.390625l0.359375 -3.53125l5.390625 0l0 -1.640625l-6.8125 0l-0.65625 6.609375z" fill-rule="nonzero"/><path fill="#000000" fill-opacity="0.0" d="m50.424118 16.0l265.00787 0l0 42.015747l-265.00787 0z" fill-rule="evenodd"/><path fill="#000000" d="m138.51674 37.51375l2.609375 5.40625l1.78125 0l0 -0.109375l-2.8125 -5.671875q0.546875 -0.234375 1.0 -0.5625q0.46875 -0.34375 0.796875 -0.78125q0.328125 -0.4375 0.5 -0.96875q0.1875 -0.546875 0.1875 -1.1875q0 -1.0 -0.34375 -1.734375q-0.34375 -0.75 -0.953125 -1.25q-0.625 -0.484375 -1.453125 -0.734375q-0.8125 -0.25 -1.75 -0.265625l-3.875 0l0 13.265625l1.671875 0l0 -5.40625l2.640625 0zm-2.640625 -1.390625l0 -5.078125l2.203125 0q0.625 0 1.125 0.171875q0.515625 0.15625 0.890625 0.484375q0.375 0.328125 0.578125 0.8125q0.21875 0.46875 0.21875 1.109375q0 0.59375 -0.21875 1.0625q-0.21875 0.453125 -0.59375 0.78125q-0.375 0.3125 -0.875 0.484375q-0.5 0.15625 -1.078125 0.171875l-2.25 0zm8.976822 1.78125l0 0.203125q0 1.0625 0.3125 1.96875q0.3125 0.90625 0.890625 1.59375q0.578125 0.671875 1.40625 1.0625q0.84375 0.375 1.890625 0.375q1.03125 0 1.859375 -0.375q0.828125 -0.390625 1.40625 -1.0625q0.578125 -0.6875 0.890625 -1.59375q0.3125 -0.90625 0.3125 -1.96875l0 -0.203125q0 -1.0625 -0.3125 -1.984375q-0.3125 -0.921875 -0.890625 -1.59375q-0.578125 -0.671875 -1.421875 -1.046875q-0.828125 -0.390625 -1.875 -0.390625q-1.03125 0 -1.859375 0.390625q-0.828125 0.375 -1.40625 1.046875q-0.578125 0.671875 -0.890625 1.59375q-0.3125 0.921875 -0.3125 1.984375zm1.6875 0.203125l0 -0.203125q0 -0.71875 0.171875 -1.375q0.171875 -0.671875 0.53125 -1.171875q0.34375 -0.5 0.859375 -0.796875q0.515625 -0.296875 1.21875 -0.296875q0.703125 0 1.21875 0.296875q0.53125 0.296875 0.890625 0.796875q0.34375 0.5 0.515625 1.171875q0.1875 0.65625 0.1875 1.375l0 0.203125q0 0.71875 -0.171875 1.390625q-0.171875 0.65625 -0.515625 1.15625q-0.359375 0.5 -0.890625 0.796875q-0.515625 0.28125 -1.203125 0.28125q-0.703125 0 -1.234375 -0.28125q-0.53125 -0.296875 -0.875 -0.796875q-0.359375 -0.5 -0.53125 -1.15625q-0.171875 -0.671875 -0.171875 -1.390625zm10.929947 4.8125l1.328125 0l1.53125 -6.046875l0.234375 -1.515625l0.265625 1.515625l1.53125 6.046875l1.328125 0l2.09375 -9.859375l-1.484375 0l-1.09375 6.28125l-0.25 1.5625l-0.265625 -1.5625l-1.5625 -6.28125l-1.09375 0l-1.5625 6.28125l-0.25 1.421875l-0.203125 -1.421875l-1.140625 -6.28125l-1.5 0l2.09375 9.859375zm29.766144 -5.078125l0 -3.109375q0 -1.265625 -0.296875 -2.234375q-0.28125 -0.984375 -0.828125 -1.65625q-0.5625 -0.671875 -1.359375 -1.015625q-0.796875 -0.359375 -1.8125 -0.359375q-1.015625 0 -1.8125 0.359375q-0.796875 0.34375 -1.34375 1.015625q-0.546875 0.671875 -0.84375 1.65625q-0.28125 0.96875 -0.28125 2.234375l0 3.109375q0 1.265625 0.28125 2.25q0.296875 0.984375 0.84375 1.640625q0.5625 0.6875 1.359375 1.03125q0.8125 0.34375 1.8125 0.34375q1.03125 0 1.8125 -0.34375q0.796875 -0.359375 1.34375 -1.03125q0.546875 -0.65625 0.828125 -1.640625q0.296875 -0.984375 0.296875 -2.25zm-6.890625 -0.328125q0 -0.234375 0 -0.46875q0 -0.234375 0 -0.453125l0 -2.21875q0 -0.9375 0.1875 -1.640625q0.1875 -0.703125 0.5625 -1.15625q0.328125 -0.359375 0.78125 -0.53125q0.46875 -0.1875 1.0625 -0.1875q0.59375 0 1.046875 0.171875q0.453125 0.171875 0.765625 0.515625q0.3125 0.328125 0.5 0.84375q0.1875 0.5 0.265625 1.15625l-5.171875 3.96875zm5.203125 0.6875q0 0.96875 -0.203125 1.6875q-0.1875 0.71875 -0.609375 1.171875q-0.3125 0.328125 -0.765625 0.5q-0.4375 0.171875 -1.015625 0.171875q-0.546875 0 -0.984375 -0.15625q-0.4375 -0.15625 -0.734375 -0.46875q-0.34375 -0.328125 -0.5625 -0.828125q-0.203125 -0.515625 -0.28125 -1.171875l5.15625 -3.953125q0 0.265625 0 0.65625q0 0.375 0 0.515625l0 1.875zm11.929932 -0.390625l0 -1.390625l-6.96875 0l0 1.390625l6.96875 0zm9.289337 5.109375l0 -13.265625l-0.125 0l-5.03125 1.9375l0 1.53125l3.46875 -1.3125l0 11.109375l1.6875 0zm13.867432 0l0 -1.375l-6.65625 0l3.5625 -3.859375q0.5 -0.546875 0.953125 -1.09375q0.453125 -0.5625 0.796875 -1.125q0.328125 -0.5625 0.53125 -1.140625q0.203125 -0.578125 0.203125 -1.171875q0 -0.796875 -0.28125 -1.46875q-0.28125 -0.671875 -0.796875 -1.15625q-0.515625 -0.5 -1.265625 -0.78125q-0.75 -0.28125 -1.6875 -0.28125q-1.03125 0 -1.828125 0.328125q-0.796875 0.328125 -1.34375 0.890625q-0.546875 0.5625 -0.84375 1.3125q-0.28125 0.734375 -0.28125 1.5625l1.6875 0q0 -0.609375 0.15625 -1.109375q0.15625 -0.515625 0.484375 -0.859375q0.328125 -0.34375 0.8125 -0.53125q0.484375 -0.203125 1.15625 -0.203125q0.546875 0 0.96875 0.1875q0.4375 0.1875 0.75 0.5q0.296875 0.328125 0.453125 0.765625q0.171875 0.421875 0.171875 0.921875q0 0.390625 -0.109375 0.78125q-0.09375 0.375 -0.328125 0.796875q-0.25 0.421875 -0.640625 0.921875q-0.390625 0.5 -0.96875 1.140625l-4.34375 4.828125l0 1.21875l8.6875 0zm11.461212 -12.3125l0 -0.953125l-8.96875 0l0 1.484375l7.1875 0l-5.484375 11.78125l1.765625 0l5.5 -12.3125z" fill-rule="nonzero"/><path fill="#000000" fill-opacity="0.0" d="m541.19 128.8517l135.90552 0l0 42.015747l-135.90552 0z" fill-rule="evenodd"/><path fill="#000000" d="m605.9834 149.95645q0 -1.6875 0.34375 -2.71875q0.359375 -1.03125 1.046875 -1.59375q0.6875 -0.5625 1.71875 -0.5625q0.78125 0 1.359375 0.3125q0.578125 0.296875 0.953125 0.890625q0.375 0.578125 0.59375 1.421875q0.21875 0.828125 0.21875 2.25q0 1.671875 -0.359375 2.703125q-0.34375 1.03125 -1.03125 1.59375q-0.671875 0.5625 -1.734375 0.5625q-1.375 0 -2.15625 -0.984375q-0.953125 -1.1875 -0.953125 -3.875zm1.203125 0q0 2.34375 0.546875 3.125q0.5625 0.78125 1.359375 0.78125q0.8125 0 1.359375 -0.78125q0.5625 -0.78125 0.5625 -3.125q0 -2.359375 -0.5625 -3.125q-0.546875 -0.78125 -1.359375 -0.78125q-0.8125 0 -1.296875 0.6875q-0.609375 0.875 -0.609375 3.21875z" fill-rule="nonzero"/><path fill="#000000" fill-opacity="0.0" d="m25.755354 128.8517l135.9055 0l0 42.015747l-135.9055 0z" fill-rule="evenodd"/><path fill="#000000" d="m75.73942 152.14395l1.171875 -0.15625q0.203125 1.0 0.6875 1.4375q0.484375 0.4375 1.171875 0.4375q0.828125 0 1.390625 -0.578125q0.578125 -0.578125 0.578125 -1.421875q0 -0.796875 -0.53125 -1.3125q-0.515625 -0.53125 -1.328125 -0.53125q-0.34375 0 -0.828125 0.125l0.125 -1.03125q0.125 0.015625 0.1875 0.015625q0.75 0 1.34375 -0.390625q0.609375 -0.390625 0.609375 -1.203125q0 -0.640625 -0.4375 -1.0625q-0.4375 -0.421875 -1.125 -0.421875q-0.6875 0 -1.140625 0.4375q-0.453125 0.421875 -0.59375 1.28125l-1.171875 -0.21875q0.21875 -1.171875 0.984375 -1.8125q0.765625 -0.65625 1.890625 -0.65625q0.78125 0 1.4375 0.34375q0.65625 0.328125 1.0 0.90625q0.359375 0.578125 0.359375 1.234375q0 0.609375 -0.34375 1.125q-0.328125 0.5 -0.96875 0.796875q0.84375 0.203125 1.3125 0.828125q0.46875 0.609375 0.46875 1.53125q0 1.25 -0.921875 2.125q-0.90625 0.859375 -2.296875 0.859375q-1.25 0 -2.09375 -0.75q-0.828125 -0.75 -0.9375 -1.9375zm13.553101 1.390625l0 1.125l-6.296875 0q-0.015625 -0.421875 0.140625 -0.8125q0.234375 -0.640625 0.765625 -1.265625q0.53125 -0.625 1.53125 -1.453125q1.5625 -1.265625 2.109375 -2.015625q0.546875 -0.75 0.546875 -1.40625q0 -0.703125 -0.5 -1.171875q-0.5 -0.484375 -1.296875 -0.484375q-0.859375 0 -1.375 0.515625q-0.5 0.5 -0.5 1.390625l-1.203125 -0.109375q0.125 -1.359375 0.921875 -2.0625q0.8125 -0.703125 2.171875 -0.703125q1.375 0 2.171875 0.765625q0.8125 0.75 0.8125 1.875q0 0.578125 -0.234375 1.140625q-0.234375 0.546875 -0.78125 1.15625q-0.546875 0.609375 -1.8125 1.671875q-1.046875 0.890625 -1.359375 1.21875q-0.296875 0.3125 -0.484375 0.625l4.671875 0zm1.3343582 -7.171875l0 -1.125l6.1875 0l0 0.921875q-0.921875 0.96875 -1.8125 2.578125q-0.890625 1.59375 -1.375 3.296875q-0.359375 1.203125 -0.453125 2.625l-1.203125 0q0.015625 -1.125 0.4375 -2.71875q0.421875 -1.59375 1.203125 -3.078125q0.796875 -1.484375 1.6875 -2.5l-4.671875 0zm13.412476 1.09375l-1.15625 0.09375q-0.15625 -0.6875 -0.4375 -1.0q-0.484375 -0.5 -1.171875 -0.5q-0.5625 0 -0.984375 0.3125q-0.5625 0.390625 -0.890625 1.171875q-0.3125 0.765625 -0.3125 2.203125q0.421875 -0.640625 1.03125 -0.953125q0.609375 -0.3125 1.28125 -0.3125q1.171875 0 1.984375 0.859375q0.828125 0.859375 0.828125 2.234375q0 0.890625 -0.390625 1.671875q-0.375 0.765625 -1.0625 1.171875q-0.671875 0.40625 -1.53125 0.40625q-1.46875 0 -2.390625 -1.0625q-0.921875 -1.078125 -0.921875 -3.5625q0 -2.765625 1.015625 -4.015625q0.90625 -1.09375 2.40625 -1.09375q1.125 0 1.84375 0.640625q0.71875 0.625 0.859375 1.734375zm-4.78125 4.109375q0 0.609375 0.25 1.171875q0.265625 0.546875 0.71875 0.84375q0.46875 0.28125 0.984375 0.28125q0.734375 0 1.265625 -0.59375q0.546875 -0.609375 0.546875 -1.640625q0 -0.984375 -0.53125 -1.546875q-0.53125 -0.578125 -1.328125 -0.578125q-0.796875 0 -1.359375 0.578125q-0.546875 0.5625 -0.546875 1.484375zm6.1937256 -5.203125l0 -1.125l6.1875 0l0 0.921875q-0.921875 0.96875 -1.8125 2.578125q-0.890625 1.59375 -1.375 3.296875q-0.359375 1.203125 -0.453125 2.625l-1.203125 0q0.015625 -1.125 0.4375 -2.71875q0.421875 -1.59375 1.203125 -3.078125q0.796875 -1.484375 1.6875 -2.5l-4.671875 0z" fill-rule="nonzero"/><path fill="#ffffff" d="m61.48662 158.11154l64.44095 0l0 31.496063l-64.44095 0z" fill-rule="evenodd"/><path stroke="#000000" stroke-width="1.0" stroke-linejoin="round" stroke-linecap="butt" d="m61.48662 158.11154l64.44095 0l0 31.496063l-64.44095 0z" fill-rule="evenodd"/><path fill="#000000" d="m90.44316 178.93958l0 -10.421875l-0.09375 0l-3.953125 1.515625l0 1.21875l2.734375 -1.046875l0 8.734375l1.3125 0zm8.795181 0l0 -10.421875l-0.09375 0l-3.953125 1.515625l0 1.21875l2.734375 -1.046875l0 8.734375l1.3125 0z" fill-rule="nonzero"/><path fill="#ffffff" d="m125.914406 158.11154l64.44094 0l0 31.496063l-64.44094 0z" fill-rule="evenodd"/><path stroke="#000000" stroke-width="1.0" stroke-linejoin="round" stroke-linecap="butt" d="m125.914406 158.11154l64.44094 0l0 31.496063l-64.44094 0z" fill-rule="evenodd"/><path fill="#000000" d="m157.12094 174.9552l0 -2.4375q0 -1.0 -0.234375 -1.765625q-0.21875 -0.765625 -0.640625 -1.296875q-0.4375 -0.53125 -1.078125 -0.796875q-0.625 -0.28125 -1.421875 -0.28125q-0.796875 0 -1.421875 0.28125q-0.625 0.265625 -1.046875 0.796875q-0.4375 0.53125 -0.671875 1.296875q-0.234375 0.765625 -0.234375 1.765625l0 2.4375q0 1.0 0.234375 1.765625q0.234375 0.765625 0.671875 1.28125q0.4375 0.546875 1.0625 0.8125q0.625 0.265625 1.421875 0.265625q0.796875 0 1.421875 -0.265625q0.625 -0.28125 1.0625 -0.8125q0.421875 -0.515625 0.640625 -1.28125q0.234375 -0.765625 0.234375 -1.765625zm-5.40625 -0.265625q0 -0.1875 0 -0.359375q0 -0.1875 0 -0.359375l0 -1.75q0 -0.734375 0.140625 -1.28125q0.140625 -0.5625 0.453125 -0.90625q0.25 -0.28125 0.609375 -0.421875q0.359375 -0.15625 0.828125 -0.15625q0.46875 0 0.8125 0.140625q0.359375 0.140625 0.609375 0.40625q0.25 0.265625 0.390625 0.671875q0.15625 0.390625 0.203125 0.90625l-4.046875 3.109375zm4.078125 0.546875q0 0.765625 -0.15625 1.328125q-0.15625 0.5625 -0.484375 0.921875q-0.234375 0.25 -0.59375 0.390625q-0.34375 0.125 -0.796875 0.125q-0.421875 0 -0.765625 -0.125q-0.34375 -0.125 -0.59375 -0.359375q-0.265625 -0.265625 -0.4375 -0.65625q-0.15625 -0.390625 -0.21875 -0.921875l4.046875 -3.09375q0 0.203125 0 0.515625q0 0.296875 0 0.390625l0 1.484375zm7.8733215 3.703125l0 -10.421875l-0.09375 0l-3.953125 1.515625l0 1.21875l2.734375 -1.046875l0 8.734375l1.3125 0z" fill-rule="nonzero"/><path fill="#ffffff" d="m190.34216 158.11154l64.44095 0l0 31.496063l-64.44095 0z" fill-rule="evenodd"/><path stroke="#000000" stroke-width="1.0" stroke-linejoin="round" stroke-linecap="butt" d="m190.34216 158.11154l64.44095 0l0 31.496063l-64.44095 0z" fill-rule="evenodd"/><path fill="#000000" d="m221.5487 174.9552l0 -2.4375q0 -1.0 -0.234375 -1.765625q-0.21875 -0.765625 -0.640625 -1.296875q-0.4375 -0.53125 -1.078125 -0.796875q-0.625 -0.28125 -1.421875 -0.28125q-0.796875 0 -1.421875 0.28125q-0.625 0.265625 -1.046875 0.796875q-0.4375 0.53125 -0.671875 1.296875q-0.234375 0.765625 -0.234375 1.765625l0 2.4375q0 1.0 0.234375 1.765625q0.234375 0.765625 0.671875 1.28125q0.4375 0.546875 1.0625 0.8125q0.625 0.265625 1.421875 0.265625q0.796875 0 1.421875 -0.265625q0.625 -0.28125 1.0625 -0.8125q0.421875 -0.515625 0.640625 -1.28125q0.234375 -0.765625 0.234375 -1.765625zm-5.40625 -0.265625q0 -0.1875 0 -0.359375q0 -0.1875 0 -0.359375l0 -1.75q0 -0.734375 0.140625 -1.28125q0.140625 -0.5625 0.453125 -0.90625q0.25 -0.28125 0.609375 -0.421875q0.359375 -0.15625 0.828125 -0.15625q0.46875 0 0.8125 0.140625q0.359375 0.140625 0.609375 0.40625q0.25 0.265625 0.390625 0.671875q0.15625 0.390625 0.203125 0.90625l-4.046875 3.109375zm4.078125 0.546875q0 0.765625 -0.15625 1.328125q-0.15625 0.5625 -0.484375 0.921875q-0.234375 0.25 -0.59375 0.390625q-0.34375 0.125 -0.796875 0.125q-0.421875 0 -0.765625 -0.125q-0.34375 -0.125 -0.59375 -0.359375q-0.265625 -0.265625 -0.4375 -0.65625q-0.15625 -0.390625 -0.21875 -0.921875l4.046875 -3.09375q0 0.203125 0 0.515625q0 0.296875 0 0.390625l0 1.484375zm10.123306 -0.28125l0 -2.4375q0 -1.0 -0.234375 -1.765625q-0.21875 -0.765625 -0.640625 -1.296875q-0.4375 -0.53125 -1.078125 -0.796875q-0.625 -0.28125 -1.421875 -0.28125q-0.796875 0 -1.421875 0.28125q-0.625 0.265625 -1.046875 0.796875q-0.4375 0.53125 -0.671875 1.296875q-0.234375 0.765625 -0.234375 1.765625l0 2.4375q0 1.0 0.234375 1.765625q0.234375 0.765625 0.671875 1.28125q0.4375 0.546875 1.0625 0.8125q0.625 0.265625 1.421875 0.265625q0.796875 0 1.421875 -0.265625q0.625 -0.28125 1.0625 -0.8125q0.421875 -0.515625 0.640625 -1.28125q0.234375 -0.765625 0.234375 -1.765625zm-5.40625 -0.265625q0 -0.1875 0 -0.359375q0 -0.1875 0 -0.359375l0 -1.75q0 -0.734375 0.140625 -1.28125q0.140625 -0.5625 0.453125 -0.90625q0.25 -0.28125 0.609375 -0.421875q0.359375 -0.15625 0.828125 -0.15625q0.46875 0 0.8125 0.140625q0.359375 0.140625 0.609375 0.40625q0.25 0.265625 0.390625 0.671875q0.15625 0.390625 0.203125 0.90625l-4.046875 3.109375zm4.078125 0.546875q0 0.765625 -0.15625 1.328125q-0.15625 0.5625 -0.484375 0.921875q-0.234375 0.25 -0.59375 0.390625q-0.34375 0.125 -0.796875 0.125q-0.421875 0 -0.765625 -0.125q-0.34375 -0.125 -0.59375 -0.359375q-0.265625 -0.265625 -0.4375 -0.65625q-0.15625 -0.390625 -0.21875 -0.921875l4.046875 -3.09375q0 0.203125 0 0.515625q0 0.296875 0 0.390625l0 1.484375z" fill-rule="nonzero"/><path fill="#ffffff" d="m254.76985 158.11154l64.44096 0l0 31.496063l-64.44096 0z" fill-rule="evenodd"/><path stroke="#000000" stroke-width="1.0" stroke-linejoin="round" stroke-linecap="butt" d="m254.76985 158.11154l64.44096 0l0 31.496063l-64.44096 0z" fill-rule="evenodd"/><path fill="#000000" d="m283.7264 178.93958l0 -10.421875l-0.09375 0l-3.953125 1.515625l0 1.21875l2.734375 -1.046875l0 8.734375l1.3125 0zm11.045166 -3.984375l0 -2.4375q0 -1.0 -0.234375 -1.765625q-0.21875 -0.765625 -0.640625 -1.296875q-0.4375 -0.53125 -1.078125 -0.796875q-0.625 -0.28125 -1.421875 -0.28125q-0.796875 0 -1.421875 0.28125q-0.625 0.265625 -1.046875 0.796875q-0.4375 0.53125 -0.671875 1.296875q-0.234375 0.765625 -0.234375 1.765625l0 2.4375q0 1.0 0.234375 1.765625q0.234375 0.765625 0.671875 1.28125q0.4375 0.546875 1.0625 0.8125q0.625 0.265625 1.421875 0.265625q0.796875 0 1.421875 -0.265625q0.625 -0.28125 1.0625 -0.8125q0.421875 -0.515625 0.640625 -1.28125q0.234375 -0.765625 0.234375 -1.765625zm-5.40625 -0.265625q0 -0.1875 0 -0.359375q0 -0.1875 0 -0.359375l0 -1.75q0 -0.734375 0.140625 -1.28125q0.140625 -0.5625 0.453125 -0.90625q0.25 -0.28125 0.609375 -0.421875q0.359375 -0.15625 0.828125 -0.15625q0.46875 0 0.8125 0.140625q0.359375 0.140625 0.609375 0.40625q0.25 0.265625 0.390625 0.671875q0.15625 0.390625 0.203125 0.90625l-4.046875 3.109375zm4.078125 0.546875q0 0.765625 -0.15625 1.328125q-0.15625 0.5625 -0.484375 0.921875q-0.234375 0.25 -0.59375 0.390625q-0.34375 0.125 -0.796875 0.125q-0.421875 0 -0.765625 -0.125q-0.34375 -0.125 -0.59375 -0.359375q-0.265625 -0.265625 -0.4375 -0.65625q-0.15625 -0.390625 -0.21875 -0.921875l4.046875 -3.09375q0 0.203125 0 0.515625q0 0.296875 0 0.390625l0 1.484375z" fill-rule="nonzero"/><path fill="#ffffff" d="m319.1977 158.11154l64.44092 0l0 31.496063l-64.44092 0z" fill-rule="evenodd"/><path stroke="#000000" stroke-width="1.0" stroke-linejoin="round" stroke-linecap="butt" d="m319.1977 158.11154l64.44092 0l0 31.496063l-64.44092 0z" fill-rule="evenodd"/><path fill="#000000" d="m350.4042 174.9552l0 -2.4375q0 -1.0 -0.234375 -1.765625q-0.21875 -0.765625 -0.640625 -1.296875q-0.4375 -0.53125 -1.078125 -0.796875q-0.625 -0.28125 -1.421875 -0.28125q-0.796875 0 -1.421875 0.28125q-0.625 0.265625 -1.046875 0.796875q-0.4375 0.53125 -0.671875 1.296875q-0.234375 0.765625 -0.234375 1.765625l0 2.4375q0 1.0 0.234375 1.765625q0.234375 0.765625 0.671875 1.28125q0.4375 0.546875 1.0625 0.8125q0.625 0.265625 1.421875 0.265625q0.796875 0 1.421875 -0.265625q0.625 -0.28125 1.0625 -0.8125q0.421875 -0.515625 0.640625 -1.28125q0.234375 -0.765625 0.234375 -1.765625zm-5.40625 -0.265625q0 -0.1875 0 -0.359375q0 -0.1875 0 -0.359375l0 -1.75q0 -0.734375 0.140625 -1.28125q0.140625 -0.5625 0.453125 -0.90625q0.25 -0.28125 0.609375 -0.421875q0.359375 -0.15625 0.828125 -0.15625q0.46875 0 0.8125 0.140625q0.359375 0.140625 0.609375 0.40625q0.25 0.265625 0.390625 0.671875q0.15625 0.390625 0.203125 0.90625l-4.046875 3.109375zm4.078125 0.546875q0 0.765625 -0.15625 1.328125q-0.15625 0.5625 -0.484375 0.921875q-0.234375 0.25 -0.59375 0.390625q-0.34375 0.125 -0.796875 0.125q-0.421875 0 -0.765625 -0.125q-0.34375 -0.125 -0.59375 -0.359375q-0.265625 -0.265625 -0.4375 -0.65625q-0.15625 -0.390625 -0.21875 -0.921875l4.046875 -3.09375q0 0.203125 0 0.515625q0 0.296875 0 0.390625l0 1.484375zm7.8733215 3.703125l0 -10.421875l-0.09375 0l-3.953125 1.515625l0 1.21875l2.734375 -1.046875l0 8.734375l1.3125 0z" fill-rule="nonzero"/><path fill="#ffffff" d="m448.0532 158.11154l64.44095 0l0 31.496063l-64.44095 0z" fill-rule="evenodd"/><path stroke="#000000" stroke-width="1.0" stroke-linejoin="round" stroke-linecap="butt" d="m448.0532 158.11154l64.44095 0l0 31.496063l-64.44095 0z" fill-rule="evenodd"/><path fill="#000000" d="m479.25974 174.9552l0 -2.4375q0 -1.0 -0.234375 -1.765625q-0.21875 -0.765625 -0.640625 -1.296875q-0.4375 -0.53125 -1.078125 -0.796875q-0.625 -0.28125 -1.421875 -0.28125q-0.796875 0 -1.421875 0.28125q-0.625 0.265625 -1.046875 0.796875q-0.4375 0.53125 -0.671875 1.296875q-0.234375 0.765625 -0.234375 1.765625l0 2.4375q0 1.0 0.234375 1.765625q0.234375 0.765625 0.671875 1.28125q0.4375 0.546875 1.0625 0.8125q0.625 0.265625 1.421875 0.265625q0.796875 0 1.421875 -0.265625q0.625 -0.28125 1.0625 -0.8125q0.421875 -0.515625 0.640625 -1.28125q0.234375 -0.765625 0.234375 -1.765625zm-5.40625 -0.265625q0 -0.1875 0 -0.359375q0 -0.1875 0 -0.359375l0 -1.75q0 -0.734375 0.140625 -1.28125q0.140625 -0.5625 0.453125 -0.90625q0.25 -0.28125 0.609375 -0.421875q0.359375 -0.15625 0.828125 -0.15625q0.46875 0 0.8125 0.140625q0.359375 0.140625 0.609375 0.40625q0.25 0.265625 0.390625 0.671875q0.15625 0.390625 0.203125 0.90625l-4.046875 3.109375zm4.078125 0.546875q0 0.765625 -0.15625 1.328125q-0.15625 0.5625 -0.484375 0.921875q-0.234375 0.25 -0.59375 0.390625q-0.34375 0.125 -0.796875 0.125q-0.421875 0 -0.765625 -0.125q-0.34375 -0.125 -0.59375 -0.359375q-0.265625 -0.265625 -0.4375 -0.65625q-0.15625 -0.390625 -0.21875 -0.921875l4.046875 -3.09375q0 0.203125 0 0.515625q0 0.296875 0 0.390625l0 1.484375zm7.8733215 3.703125l0 -10.421875l-0.09375 0l-3.953125 1.515625l0 1.21875l2.734375 -1.046875l0 8.734375l1.3125 0z" fill-rule="nonzero"/><path fill="#ffffff" d="m512.48096 158.11154l64.44098 0l0 31.496063l-64.44098 0z" fill-rule="evenodd"/><path stroke="#000000" stroke-width="1.0" stroke-linejoin="round" stroke-linecap="butt" d="m512.48096 158.11154l64.44098 0l0 31.496063l-64.44098 0z" fill-rule="evenodd"/><path fill="#000000" d="m541.4375 178.93958l0 -10.421875l-0.09375 0l-3.953125 1.515625l0 1.21875l2.734375 -1.046875l0 8.734375l1.3125 0zm8.795166 0l0 -10.421875l-0.09375 0l-3.953125 1.515625l0 1.21875l2.734375 -1.046875l0 8.734375l1.3125 0z" fill-rule="nonzero"/><path fill="#000000" fill-opacity="0.0" d="m382.89703 158.11154l64.44095 0l0 31.496063l-64.44095 0z" fill-rule="evenodd"/><path fill="#000000" d="m411.92596 179.68582q0 0.53125 0.328125 0.90625q0.34375 0.359375 1.0 0.359375q0.640625 0 0.984375 -0.359375q0.34375 -0.375 0.34375 -0.90625q0 -0.546875 -0.34375 -0.921875q-0.328125 -0.375 -0.984375 -0.375q-0.671875 0 -1.0 0.390625q-0.328125 0.375 -0.328125 0.90625zm3.53125 0q0 0.53125 0.328125 0.90625q0.34375 0.359375 1.0 0.359375q0.640625 0 0.984375 -0.359375q0.34375 -0.375 0.34375 -0.90625q0 -0.546875 -0.34375 -0.921875q-0.328125 -0.375 -0.984375 -0.375q-0.671875 0 -1.0 0.390625q-0.328125 0.375 -0.328125 0.90625zm3.40625 0q0 0.53125 0.328125 0.90625q0.34375 0.359375 1.0 0.359375q0.640625 0 0.984375 -0.359375q0.34375 -0.375 0.34375 -0.90625q0 -0.546875 -0.34375 -0.921875q-0.328125 -0.375 -0.984375 -0.375q-0.671875 0 -1.0 0.390625q-0.328125 0.375 -0.328125 0.90625z" fill-rule="nonzero"/><path fill="#ffffff" d="m576.9226 158.11154l64.44092 0l0 31.496063l-64.44092 0z" fill-rule="evenodd"/><path stroke="#000000" stroke-width="1.0" stroke-linejoin="round" stroke-linecap="butt" d="m576.9226 158.11154l64.44092 0l0 31.496063l-64.44092 0z" fill-rule="evenodd"/><path fill="#000000" d="m605.87915 178.93958l0 -10.421875l-0.09375 0l-3.953125 1.515625l0 1.21875l2.734375 -1.046875l0 8.734375l1.3125 0zm11.045166 -3.984375l0 -2.4375q0 -1.0 -0.234375 -1.765625q-0.21875 -0.765625 -0.640625 -1.296875q-0.4375 -0.53125 -1.078125 -0.796875q-0.625 -0.28125 -1.421875 -0.28125q-0.796875 0 -1.421875 0.28125q-0.625 0.265625 -1.046875 0.796875q-0.4375 0.53125 -0.671875 1.296875q-0.234375 0.765625 -0.234375 1.765625l0 2.4375q0 1.0 0.234375 1.765625q0.234375 0.765625 0.671875 1.28125q0.4375 0.546875 1.0625 0.8125q0.625 0.265625 1.421875 0.265625q0.796875 0 1.421875 -0.265625q0.625 -0.28125 1.0625 -0.8125q0.421875 -0.515625 0.640625 -1.28125q0.234375 -0.765625 0.234375 -1.765625zm-5.40625 -0.265625q0 -0.1875 0 -0.359375q0 -0.1875 0 -0.359375l0 -1.75q0 -0.734375 0.140625 -1.28125q0.140625 -0.5625 0.453125 -0.90625q0.25 -0.28125 0.609375 -0.421875q0.359375 -0.15625 0.828125 -0.15625q0.46875 0 0.8125 0.140625q0.359375 0.140625 0.609375 0.40625q0.25 0.265625 0.390625 0.671875q0.15625 0.390625 0.203125 0.90625l-4.046875 3.109375zm4.078125 0.546875q0 0.765625 -0.15625 1.328125q-0.15625 0.5625 -0.484375 0.921875q-0.234375 0.25 -0.59375 0.390625q-0.34375 0.125 -0.796875 0.125q-0.421875 0 -0.765625 -0.125q-0.34375 -0.125 -0.59375 -0.359375q-0.265625 -0.265625 -0.4375 -0.65625q-0.15625 -0.390625 -0.21875 -0.921875l4.046875 -3.09375q0 0.203125 0 0.515625q0 0.296875 0 0.390625l0 1.484375z" fill-rule="nonzero"/><path fill="#000000" fill-opacity="0.0" d="m657.1151 227.08661l0 -144.40945l37.165344 0l0 144.40945z" fill-rule="evenodd"/><path fill="#000000" d="m680.1951 195.75084l-10.484375 0l0 -3.9375q0 -1.203125 0.3125 -1.921875q0.3125 -0.734375 0.984375 -1.140625q0.65625 -0.40625 1.375 -0.40625q0.671875 0 1.265625 0.375q0.59375 0.359375 0.96875 1.09375q0.28125 -0.953125 0.953125 -1.46875q0.671875 -0.515625 1.578125 -0.515625q0.75 0 1.390625 0.3125q0.625 0.3125 0.96875 0.78125q0.34375 0.453125 0.515625 1.140625q0.171875 0.6875 0.171875 1.6875l0 4.0zm-6.078125 -1.390625l0 -2.265625q0 -0.921875 -0.125 -1.3125q-0.15625 -0.53125 -0.515625 -0.796875q-0.375 -0.28125 -0.921875 -0.28125q-0.53125 0 -0.921875 0.25q-0.390625 0.25 -0.53125 0.71875q-0.15625 0.46875 -0.15625 1.59375l0 2.09375l3.171875 0zm4.84375 0l0 -2.609375q0 -0.671875 -0.046875 -0.9375q-0.09375 -0.484375 -0.296875 -0.796875q-0.203125 -0.328125 -0.578125 -0.53125q-0.390625 -0.21875 -0.890625 -0.21875q-0.578125 0 -1.015625 0.3125q-0.4375 0.296875 -0.609375 0.828125q-0.171875 0.53125 -0.171875 1.53125l0 2.421875l3.609375 0zm-2.140625 -7.9631042l-0.109375 -1.3125q0.78125 -0.09375 1.296875 -0.421875q0.5 -0.34375 0.8125 -1.0625q0.3125 -0.71875 0.3125 -1.609375q0 -0.796875 -0.234375 -1.40625q-0.234375 -0.609375 -0.640625 -0.90625q-0.421875 -0.296875 -0.90625 -0.296875q-0.5 0 -0.859375 0.296875q-0.375 0.28125 -0.625 0.9375q-0.171875 0.421875 -0.515625 1.875q-0.34375 1.4375 -0.65625 2.015625q-0.390625 0.75 -0.96875 1.125q-0.59375 0.359375 -1.3125 0.359375q-0.796875 0 -1.484375 -0.4375q-0.6875 -0.453125 -1.046875 -1.3125q-0.359375 -0.875 -0.359375 -1.9375q0 -1.171875 0.375 -2.0625q0.375 -0.890625 1.109375 -1.359375q0.734375 -0.484375 1.65625 -0.515625l0.09375 1.328125q-1.0 0.109375 -1.5 0.734375q-0.515625 0.609375 -0.515625 1.8125q0 1.265625 0.46875 1.84375q0.46875 0.578125 1.109375 0.578125q0.5625 0 0.9375 -0.421875q0.359375 -0.390625 0.75 -2.078125q0.375 -1.703125 0.65625 -2.328125q0.421875 -0.921875 1.078125 -1.359375q0.640625 -0.4375 1.484375 -0.4375q0.84375 0 1.59375 0.484375q0.734375 0.484375 1.140625 1.390625q0.40625 0.890625 0.40625 2.015625q0 1.421875 -0.40625 2.390625q-0.421875 0.953125 -1.25 1.5q-0.828125 0.546875 -1.890625 0.578125zm3.375 -10.275604l-10.484375 0l0 -4.640625q0 -1.40625 0.28125 -2.140625q0.28125 -0.734375 1.0 -1.171875q0.703125 -0.4375 1.578125 -0.4375q1.109375 0 1.875 0.734375q0.765625 0.71875 0.984375 2.234375q0.25 -0.5625 0.515625 -0.84375q0.5625 -0.609375 1.390625 -1.15625l2.859375 -1.8125l0 1.734375l-2.1875 1.390625q-0.9375 0.609375 -1.4375 1.0q-0.5 0.390625 -0.703125 0.703125q-0.203125 0.3125 -0.28125 0.640625q-0.046875 0.234375 -0.046875 0.765625l0 1.609375l4.65625 0l0 1.390625zm-5.859375 -1.390625l0 -2.984375q0 -0.9375 -0.1875 -1.46875q-0.203125 -0.546875 -0.640625 -0.828125q-0.4375 -0.28125 -0.9375 -0.28125q-0.75 0 -1.21875 0.546875q-0.484375 0.53125 -0.484375 1.703125l0 3.3125l3.46875 0zm5.859375 -8.021774l-10.484375 -4.015625l0 -1.5l10.484375 -4.296875l0 1.578125l-3.171875 1.234375l0 4.375l3.171875 1.15625l0 1.46875zm-4.3125 -3.015625l0 -3.5625l-2.90625 1.09375q-1.3125 0.5 -2.171875 0.75q1.015625 0.203125 2.0 0.5625l3.078125 1.15625zm4.3125 -7.8693542l-10.484375 0l0 -2.078125l7.421875 -2.484375q1.03125 -0.34375 1.546875 -0.5q-0.5625 -0.1875 -1.671875 -0.5625l-7.296875 -2.515625l0 -1.859375l10.484375 0l0 1.328125l-8.78125 0l8.78125 3.046875l0 1.265625l-8.9375 3.03125l8.9375 0l0 1.328125zm-7.921875 -26.555847l0.09375 1.28125q-0.75 0.171875 -1.09375 0.484375q-0.546875 0.53125 -0.546875 1.296875q0 0.609375 0.34375 1.078125q0.4375 0.609375 1.296875 0.96875q0.84375 0.34375 2.421875 0.359375q-0.71875 -0.46875 -1.0625 -1.140625q-0.34375 -0.671875 -0.34375 -1.40625q0 -1.296875 0.953125 -2.203125q0.953125 -0.90625 2.453125 -0.90625q0.984375 0 1.84375 0.4375q0.84375 0.421875 1.296875 1.171875q0.4375 0.734375 0.4375 1.6875q0 1.609375 -1.171875 2.625q-1.1875 1.015625 -3.90625 1.015625q-3.046875 0 -4.421875 -1.125q-1.203125 -0.984375 -1.203125 -2.640625q0 -1.234375 0.703125 -2.03125q0.6875 -0.796875 1.90625 -0.953125zm4.515625 5.265625q0.671875 0 1.28125 -0.28125q0.609375 -0.28125 0.9375 -0.78125q0.3125 -0.515625 0.3125 -1.078125q0 -0.8125 -0.65625 -1.390625q-0.671875 -0.59375 -1.796875 -0.59375q-1.09375 0 -1.71875 0.578125q-0.625 0.578125 -0.625 1.453125q0 0.875 0.625 1.484375q0.625 0.609375 1.640625 0.609375zm3.40625 -10.854225l-2.515625 0l0 4.5468674l-1.171875 0l-6.796875 -4.7812424l0 -1.0625l6.796875 0l0 -1.40625l1.171875 0l0 1.40625l2.515625 0l0 1.296875zm-3.6875 0l-4.734375 0l4.734375 3.28125l0 -3.28125zm3.6875 -4.385483l-10.484375 0l0 -1.296875l5.96875 0l-3.078125 -3.046875l0 -1.671875l2.8125 2.90625l4.78125 -3.1875l0 1.578125l-3.890625 2.515625l0.875 0.90625l3.015625 0l0 1.296875z" fill-rule="nonzero"/></g></svg>