<svg version="1.1" viewBox="0.0 0.0 957.1706036745406 479.2834645669291" fill="none" stroke="none" stroke-linecap="square" stroke-miterlimit="10" xmlns:xlink="http://www.w3.org/1999/xlink" xmlns="http://www.w3.org/2000/svg"><clipPath id="p.0"><path d="m0 0l957.1706 0l0 479.28348l-957.1706 0l0 -479.28348z" clip-rule="nonzero"/></clipPath><g clip-path="url(#p.0)"><path fill="#cccccc" d="m0 0l957.1706 0l0 479.28348l-957.1706 0z" fill-rule="evenodd"/><g filter="url(#shadowFilter-p.1)"><use xlink:href="#p.1" transform="matrix(1.0 0.0 0.0 1.0 0.0 2.0)"/></g><defs><filter id="shadowFilter-p.1" filterUnits="userSpaceOnUse"><feGaussianBlur in="SourceAlpha" stdDeviation="2.0" result="blur"/><feComponentTransfer in="blur" color-interpolation-filters="sRGB"><feFuncR type="linear" slope="0" intercept="0.0"/><feFuncG type="linear" slope="0" intercept="0.0"/><feFuncB type="linear" slope="0" intercept="0.0"/><feFuncA type="linear" slope="0.5" intercept="0"/></feComponentTransfer></filter></defs><g id="p.1"><path fill="#c9daf8" d="m306.77167 290.9733l0 0c0 -6.4140625 5.1996155 -11.6137085 11.6137085 -11.6137085l604.70953 0c3.0802002 0 6.0341797 1.2235718 8.212158 3.4015808c2.1779785 2.1779785 3.4016113 5.1319885 3.4016113 8.212128l0 140.30011c0 6.414093 -5.199646 11.613739 -11.61377 11.613739l-604.70953 0c-6.414093 0 -11.6137085 -5.199646 -11.6137085 -11.613739z" fill-rule="evenodd"/><path stroke="#666666" stroke-width="1.0" stroke-linejoin="round" stroke-linecap="butt" d="m306.77167 290.9733l0 0c0 -6.4140625 5.1996155 -11.6137085 11.6137085 -11.6137085l604.70953 0c3.0802002 0 6.0341797 1.2235718 8.212158 3.4015808c2.1779785 2.1779785 3.4016113 5.1319885 3.4016113 8.212128l0 140.30011c0 6.414093 -5.199646 11.613739 -11.61377 11.613739l-604.70953 0c-6.414093 0 -11.6137085 -5.199646 -11.6137085 -11.613739z" fill-rule="evenodd"/></g><g filter="url(#shadowFilter-p.2)"><use xlink:href="#p.2" transform="matrix(1.0 0.0 0.0 1.0 0.0 2.0)"/></g><defs><filter id="shadowFilter-p.2" filterUnits="userSpaceOnUse"><feGaussianBlur in="SourceAlpha" stdDeviation="2.0" result="blur"/><feComponentTransfer in="blur" color-interpolation-filters="sRGB"><feFuncR type="linear" slope="0" intercept="0.0"/><feFuncG type="linear" slope="0" intercept="0.0"/><feFuncB type="linear" slope="0" intercept="0.0"/><feFuncA type="linear" slope="0.5" intercept="0"/></feComponentTransfer></filter></defs><g id="p.2"><path fill="#ffe599" d="m534.2126 33.254593l343.9685 0l0 142.17323l-343.9685 0z" fill-rule="evenodd"/><path stroke="#666666" stroke-width="1.0" stroke-linejoin="round" stroke-linecap="butt" d="m534.2126 33.254593l343.9685 0l0 142.17323l-343.9685 0z" fill-rule="evenodd"/><path fill="#000000" d="m698.9181 105.069954q0 2.359375 -0.796875 4.125q-0.796875 1.765625 -2.265625 2.703125q-1.453125 0.921875 -3.40625 0.921875q-1.90625 0 -3.375 -0.921875q-1.46875 -0.9375 -2.28125 -2.671875q-0.8125 -1.734375 -0.828125 -4.015625l0 -1.15625q0 -2.328125 0.796875 -4.109375q0.8125 -1.78125 2.28125 -2.71875q1.484375 -0.953125 3.390625 -0.953125q1.9375 0 3.40625 0.9375q1.484375 0.9375 2.28125 2.71875q0.796875 1.765625 0.796875 4.125l0 1.015625zm-2.125 -1.046875q0 -2.859375 -1.15625 -4.390625q-1.140625 -1.53125 -3.203125 -1.53125q-2.015625 0 -3.171875 1.53125q-1.15625 1.53125 -1.1875 4.25l0 1.1875q0 2.78125 1.15625 4.375q1.171875 1.578125 3.21875 1.578125q2.0625 0 3.1875 -1.5q1.125 -1.5 1.15625 -4.296875l0 -1.203125zm16.136719 -5.78125l-5.171875 0l0 14.359375l-2.125 0l0 -14.359375l-5.15625 0l0 -1.75l12.453125 0l0 1.75zm4.5184937 8.046875l0 6.3125l-2.125 0l0 -16.109375l5.9375 0q2.640625 0 4.140625 1.359375q1.5 1.34375 1.5 3.5625q0 2.34375 -1.46875 3.609375q-1.46875 1.265625 -4.203125 1.265625l-3.78125 0zm0 -1.734375l3.8125 0q1.703125 0 2.609375 -0.796875q0.90625 -0.796875 0.90625 -2.3125q0 -1.4375 -0.90625 -2.296875q-0.90625 -0.875 -2.484375 -0.90625l-3.9375 0l0 6.3125z" fill-rule="nonzero"/></g><g filter="url(#shadowFilter-p.3)"><use xlink:href="#p.3" transform="matrix(1.0 0.0 0.0 1.0 0.0 2.0)"/></g><defs><filter id="shadowFilter-p.3" filterUnits="userSpaceOnUse"><feGaussianBlur in="SourceAlpha" stdDeviation="2.0" result="blur"/><feComponentTransfer in="blur" color-interpolation-filters="sRGB"><feFuncR type="linear" slope="0" intercept="0.0"/><feFuncG type="linear" slope="0" intercept="0.0"/><feFuncB type="linear" slope="0" intercept="0.0"/><feFuncA type="linear" slope="0.5" intercept="0"/></feComponentTransfer></filter></defs><g id="p.3"><path fill="#c9daf8" d="m16.097113 94.35026l0 0c0 -5.3075104 4.3025894 -9.6101 9.610104 -9.6101l253.25223 0c2.548767 0 4.9931335 1.0124893 6.7953796 2.8147354c1.8022461 1.8022385 2.8147278 4.2466125 2.8147278 6.7953644l0 353.18924c0 5.3075256 -4.302582 9.610107 -9.610107 9.610107l-253.25223 0c-5.307514 0 -9.610104 -4.302582 -9.610104 -9.610107z" fill-rule="evenodd"/><path stroke="#666666" stroke-width="1.0" stroke-linejoin="round" stroke-linecap="butt" d="m16.097113 94.35026l0 0c0 -5.3075104 4.3025894 -9.6101 9.610104 -9.6101l253.25223 0c2.548767 0 4.9931335 1.0124893 6.7953796 2.8147354c1.8022461 1.8022385 2.8147278 4.2466125 2.8147278 6.7953644l0 353.18924c0 5.3075256 -4.302582 9.610107 -9.610107 9.610107l-253.25223 0c-5.307514 0 -9.610104 -4.302582 -9.610104 -9.610107z" fill-rule="evenodd"/></g><g filter="url(#shadowFilter-p.4)"><use xlink:href="#p.4" transform="matrix(1.0 0.0 0.0 1.0 0.0 2.0)"/></g><defs><filter id="shadowFilter-p.4" filterUnits="userSpaceOnUse"><feGaussianBlur in="SourceAlpha" stdDeviation="2.0" result="blur"/><feComponentTransfer in="blur" color-interpolation-filters="sRGB"><feFuncR type="linear" slope="0" intercept="0.0"/><feFuncG type="linear" slope="0" intercept="0.0"/><feFuncB type="linear" slope="0" intercept="0.0"/><feFuncA type="linear" slope="0.5" intercept="0"/></feComponentTransfer></filter></defs><g id="p.4"><path fill="#b4a7d6" d="m345.06036 84.7404l148.6614 0l0 39.2126l-148.6614 0z" fill-rule="evenodd"/><path stroke="#666666" stroke-width="1.0" stroke-linejoin="round" stroke-linecap="butt" d="m345.06036 84.7404l148.6614 0l0 39.2126l-148.6614 0z" fill-rule="evenodd"/><path fill="#000000" d="m384.08026 107.49732q-0.296875 2.546875 -1.890625 3.9375q-1.578125 1.390625 -4.21875 1.390625q-2.859375 0 -4.578125 -2.046875q-1.71875 -2.046875 -1.71875 -5.46875l0 -1.546875q0 -2.25 0.796875 -3.953125q0.8125 -1.703125 2.28125 -2.609375q1.46875 -0.921875 3.40625 -0.921875q2.5625 0 4.109375 1.4375q1.5625 1.421875 1.8125 3.953125l-2.140625 0q-0.265625 -1.921875 -1.203125 -2.78125q-0.921875 -0.859375 -2.578125 -0.859375q-2.03125 0 -3.1875 1.5q-1.15625 1.5 -1.15625 4.28125l0 1.5625q0 2.625 1.09375 4.171875q1.09375 1.546875 3.0625 1.546875q1.765625 0 2.703125 -0.796875q0.953125 -0.8125 1.265625 -2.796875l2.140625 0zm2.0277405 -0.984375q0 -1.765625 0.6875 -3.171875q0.703125 -1.40625 1.9375 -2.15625q1.234375 -0.765625 2.8125 -0.765625q2.453125 0 3.953125 1.6875q1.515625 1.6875 1.515625 4.5l0 0.140625q0 1.75 -0.671875 3.140625q-0.671875 1.390625 -1.921875 2.171875q-1.234375 0.765625 -2.859375 0.765625q-2.421875 0 -3.9375 -1.6875q-1.515625 -1.6875 -1.515625 -4.484375l0 -0.140625zm2.0625 0.234375q0 2.0 0.921875 3.203125q0.921875 1.203125 2.46875 1.203125q1.5625 0 2.484375 -1.21875q0.921875 -1.21875 0.921875 -3.421875q0 -1.96875 -0.9375 -3.1875q-0.9375 -1.234375 -2.484375 -1.234375q-1.515625 0 -2.453125 1.21875q-0.921875 1.203125 -0.921875 3.4375zm18.796143 4.671875q-1.1875 1.40625 -3.5 1.40625q-1.921875 0 -2.921875 -1.109375q-1.0 -1.109375 -1.015625 -3.296875l0 -7.78125l2.046875 0l0 7.734375q0 2.71875 2.21875 2.71875q2.34375 0 3.125 -1.75l0 -8.703125l2.046875 0l0 11.96875l-1.953125 0l-0.046875 -1.1875zm7.03656 -10.78125l0.0625 1.5q1.375 -1.71875 3.59375 -1.71875q3.796875 0 3.828125 4.28125l0 7.90625l-2.046875 0l0 -7.921875q-0.015625 -1.296875 -0.59375 -1.90625q-0.578125 -0.625 -1.8125 -0.625q-1.0 0 -1.75 0.53125q-0.75 0.53125 -1.171875 1.390625l0 8.53125l-2.046875 0l0 -11.96875l1.9375 0zm13.344513 -2.90625l0 2.90625l2.234375 0l0 1.578125l-2.234375 0l0 7.421875q0 0.71875 0.296875 1.078125q0.296875 0.359375 1.015625 0.359375q0.359375 0 0.96875 -0.125l0 1.65625q-0.796875 0.21875 -1.5625 0.21875q-1.375 0 -2.078125 -0.828125q-0.6875 -0.828125 -0.6875 -2.359375l0 -7.421875l-2.1875 0l0 -1.578125l2.1875 0l0 -2.90625l2.046875 0zm9.588409 15.09375q-2.4375 0 -3.96875 -1.59375q-1.515625 -1.59375 -1.515625 -4.28125l0 -0.375q0 -1.78125 0.671875 -3.171875q0.6875 -1.40625 1.90625 -2.1875q1.21875 -0.796875 2.65625 -0.796875q2.328125 0 3.625 1.546875q1.296875 1.53125 1.296875 4.390625l0 0.84375l-8.109375 0q0.046875 1.78125 1.03125 2.875q0.984375 1.078125 2.515625 1.078125q1.078125 0 1.828125 -0.4375q0.765625 -0.4375 1.328125 -1.171875l1.25 0.96875q-1.5 2.3125 -4.515625 2.3125zm-0.25 -10.734375q-1.25 0 -2.09375 0.90625q-0.828125 0.90625 -1.03125 2.53125l6.0 0l0 -0.15625q-0.09375 -1.5625 -0.84375 -2.421875q-0.75 -0.859375 -2.03125 -0.859375zm13.06543 0.375q-0.453125 -0.0625 -1.0 -0.0625q-2.015625 0 -2.734375 1.703125l0 8.5l-2.046875 0l0 -11.96875l2.0 0l0.03125 1.375q1.0 -1.59375 2.84375 -1.59375q0.609375 0 0.90625 0.15625l0 1.890625zm17.384521 3.265625q0 3.59375 -1.234375 5.34375q-1.21875 1.75 -3.828125 1.75q-2.578125 0 -3.828125 -1.703125q-1.234375 -1.71875 -1.28125 -5.109375l0 -2.734375q0 -3.546875 1.234375 -5.265625q1.234375 -1.734375 3.84375 -1.734375q2.609375 0 3.828125 1.671875q1.234375 1.65625 1.265625 5.125l0 2.65625zm-2.046875 -2.796875q0 -2.59375 -0.734375 -3.78125q-0.71875 -1.1875 -2.3125 -1.1875q-1.5625 0 -2.28125 1.1875q-0.71875 1.171875 -0.75 3.625l0 3.28125q0 2.609375 0.75 3.859375q0.765625 1.234375 2.3125 1.234375q1.515625 0 2.25 -1.171875q0.734375 -1.171875 0.765625 -3.6875l0 -3.359375z" fill-rule="nonzero"/></g><g filter="url(#shadowFilter-p.5)"><use xlink:href="#p.5" transform="matrix(1.0 0.0 0.0 1.0 0.0 2.0)"/></g><defs><filter id="shadowFilter-p.5" filterUnits="userSpaceOnUse"><feGaussianBlur in="SourceAlpha" stdDeviation="2.0" result="blur"/><feComponentTransfer in="blur" color-interpolation-filters="sRGB"><feFuncR type="linear" slope="0" intercept="0.0"/><feFuncG type="linear" slope="0" intercept="0.0"/><feFuncB type="linear" slope="0" intercept="0.0"/><feFuncA type="linear" slope="0.5" intercept="0"/></feComponentTransfer></filter></defs><g id="p.5"><path fill="#000000" fill-opacity="0.0" d="m322.86615 409.74014l-214.83466 0" fill-rule="evenodd"/><path stroke="#efefef" stroke-width="2.0" stroke-linejoin="round" stroke-linecap="butt" d="m322.86615 409.74014l-214.83466 0" fill-rule="evenodd"/></g><g filter="url(#shadowFilter-p.6)"><use xlink:href="#p.6" transform="matrix(1.0 0.0 0.0 1.0 0.0 2.0)"/></g><defs><filter id="shadowFilter-p.6" filterUnits="userSpaceOnUse"><feGaussianBlur in="SourceAlpha" stdDeviation="2.0" result="blur"/><feComponentTransfer in="blur" color-interpolation-filters="sRGB"><feFuncR type="linear" slope="0" intercept="0.0"/><feFuncG type="linear" slope="0" intercept="0.0"/><feFuncB type="linear" slope="0" intercept="0.0"/><feFuncA type="linear" slope="0.5" intercept="0"/></feComponentTransfer></filter></defs><g id="p.6"><path fill="#000000" fill-opacity="0.0" d="m322.86615 309.61417l-214.83466 0" fill-rule="evenodd"/><path stroke="#efefef" stroke-width="2.0" stroke-linejoin="round" stroke-linecap="butt" d="m322.86615 309.61417l-214.83466 0" fill-rule="evenodd"/></g><g filter="url(#shadowFilter-p.7)"><use xlink:href="#p.7" transform="matrix(1.0 0.0 0.0 1.0 0.0 2.0)"/></g><defs><filter id="shadowFilter-p.7" filterUnits="userSpaceOnUse"><feGaussianBlur in="SourceAlpha" stdDeviation="2.0" result="blur"/><feComponentTransfer in="blur" color-interpolation-filters="sRGB"><feFuncR type="linear" slope="0" intercept="0.0"/><feFuncG type="linear" slope="0" intercept="0.0"/><feFuncB type="linear" slope="0" intercept="0.0"/><feFuncA type="linear" slope="0.5" intercept="0"/></feComponentTransfer></filter></defs><g id="p.7"><path fill="#b4a7d6" d="m345.06036 144.22623l148.6614 0l0 39.2126l-148.6614 0z" fill-rule="evenodd"/><path stroke="#666666" stroke-width="1.0" stroke-linejoin="round" stroke-linecap="butt" d="m345.06036 144.22623l148.6614 0l0 39.2126l-148.6614 0z" fill-rule="evenodd"/><path fill="#000000" d="m384.08026 166.98315q-0.296875 2.546875 -1.890625 3.9375q-1.578125 1.390625 -4.21875 1.390625q-2.859375 0 -4.578125 -2.046875q-1.71875 -2.046875 -1.71875 -5.46875l0 -1.546875q0 -2.25 0.796875 -3.953125q0.8125 -1.703125 2.28125 -2.609375q1.46875 -0.921875 3.40625 -0.921875q2.5625 0 4.109375 1.4375q1.5625 1.421875 1.8125 3.953125l-2.140625 0q-0.265625 -1.921875 -1.203125 -2.78125q-0.921875 -0.859375 -2.578125 -0.859375q-2.03125 0 -3.1875 1.5q-1.15625 1.5 -1.15625 4.28125l0 1.5625q0 2.625 1.09375 4.171875q1.09375 1.546875 3.0625 1.546875q1.765625 0 2.703125 -0.796875q0.953125 -0.8125 1.265625 -2.796875l2.140625 0zm2.0277405 -0.984375q0 -1.765625 0.6875 -3.171875q0.703125 -1.40625 1.9375 -2.15625q1.234375 -0.765625 2.8125 -0.765625q2.453125 0 3.953125 1.6875q1.515625 1.6875 1.515625 4.5l0 0.140625q0 1.75 -0.671875 3.140625q-0.671875 1.390625 -1.921875 2.171875q-1.234375 0.765625 -2.859375 0.765625q-2.421875 0 -3.9375 -1.6875q-1.515625 -1.6875 -1.515625 -4.484375l0 -0.140625zm2.0625 0.234375q0 2.0 0.921875 3.203125q0.921875 1.203125 2.46875 1.203125q1.5625 0 2.484375 -1.21875q0.921875 -1.21875 0.921875 -3.421875q0 -1.96875 -0.9375 -3.1875q-0.9375 -1.234375 -2.484375 -1.234375q-1.515625 0 -2.453125 1.21875q-0.921875 1.203125 -0.921875 3.4375zm18.796143 4.671875q-1.1875 1.40625 -3.5 1.40625q-1.921875 0 -2.921875 -1.109375q-1.0 -1.109375 -1.015625 -3.296875l0 -7.78125l2.046875 0l0 7.734375q0 2.71875 2.21875 2.71875q2.34375 0 3.125 -1.75l0 -8.703125l2.046875 0l0 11.96875l-1.953125 0l-0.046875 -1.1875zm7.03656 -10.78125l0.0625 1.5q1.375 -1.71875 3.59375 -1.71875q3.796875 0 3.828125 4.28125l0 7.90625l-2.046875 0l0 -7.921875q-0.015625 -1.296875 -0.59375 -1.90625q-0.578125 -0.625 -1.8125 -0.625q-1.0 0 -1.75 0.53125q-0.75 0.53125 -1.171875 1.390625l0 8.53125l-2.046875 0l0 -11.96875l1.9375 0zm13.344513 -2.90625l0 2.90625l2.234375 0l0 1.578125l-2.234375 0l0 7.421875q0 0.71875 0.296875 1.078125q0.296875 0.359375 1.015625 0.359375q0.359375 0 0.96875 -0.125l0 1.65625q-0.796875 0.21875 -1.5625 0.21875q-1.375 0 -2.078125 -0.828125q-0.6875 -0.828125 -0.6875 -2.359375l0 -7.421875l-2.1875 0l0 -1.578125l2.1875 0l0 -2.90625l2.046875 0zm9.588409 15.09375q-2.4375 0 -3.96875 -1.59375q-1.515625 -1.59375 -1.515625 -4.28125l0 -0.375q0 -1.78125 0.671875 -3.171875q0.6875 -1.40625 1.90625 -2.1875q1.21875 -0.796875 2.65625 -0.796875q2.328125 0 3.625 1.546875q1.296875 1.53125 1.296875 4.390625l0 0.84375l-8.109375 0q0.046875 1.78125 1.03125 2.875q0.984375 1.078125 2.515625 1.078125q1.078125 0 1.828125 -0.4375q0.765625 -0.4375 1.328125 -1.171875l1.25 0.96875q-1.5 2.3125 -4.515625 2.3125zm-0.25 -10.734375q-1.25 0 -2.09375 0.90625q-0.828125 0.90625 -1.03125 2.53125l6.0 0l0 -0.15625q-0.09375 -1.5625 -0.84375 -2.421875q-0.75 -0.859375 -2.03125 -0.859375zm13.06543 0.375q-0.453125 -0.0625 -1.0 -0.0625q-2.015625 0 -2.734375 1.703125l0 8.5l-2.046875 0l0 -11.96875l2.0 0l0.03125 1.375q1.0 -1.59375 2.84375 -1.59375q0.609375 0 0.90625 0.15625l0 1.890625zm14.0095215 10.140625l-2.0625 0l0 -13.640625l-4.125 1.515625l0 -1.859375l5.875 -2.203125l0.3125 0l0 16.1875z" fill-rule="nonzero"/></g><g filter="url(#shadowFilter-p.8)"><use xlink:href="#p.8" transform="matrix(1.0 0.0 0.0 1.0 0.0 2.0)"/></g><defs><filter id="shadowFilter-p.8" filterUnits="userSpaceOnUse"><feGaussianBlur in="SourceAlpha" stdDeviation="2.0" result="blur"/><feComponentTransfer in="blur" color-interpolation-filters="sRGB"><feFuncR type="linear" slope="0" intercept="0.0"/><feFuncG type="linear" slope="0" intercept="0.0"/><feFuncB type="linear" slope="0" intercept="0.0"/><feFuncA type="linear" slope="0.5" intercept="0"/></feComponentTransfer></filter></defs><g id="p.8"><path fill="#b6d7a8" d="m345.06036 208.42258l408.47247 0l0 53.95276l-408.47247 0z" fill-rule="evenodd"/><path stroke="#666666" stroke-width="1.0" stroke-linejoin="round" stroke-linecap="butt" d="m345.06036 208.42258l408.47247 0l0 53.95276l-408.47247 0z" fill-rule="evenodd"/><path fill="#000000" d="m515.5518 229.29958l-5.171875 0l0 14.359375l-2.125 0l0 -14.359375l-5.15625 0l0 -1.75l12.453125 0l0 1.75zm5.9384766 14.578125q-2.4375 0 -3.96875 -1.59375q-1.515625 -1.59375 -1.515625 -4.28125l0 -0.375q0 -1.78125 0.671875 -3.171875q0.6875 -1.40625 1.90625 -2.1875q1.21875 -0.796875 2.65625 -0.796875q2.328125 0 3.625 1.546875q1.296875 1.53125 1.296875 4.390625l0 0.84375l-8.109375 0q0.046875 1.78125 1.03125 2.875q0.984375 1.078125 2.515625 1.078125q1.078125 0 1.828125 -0.4375q0.765625 -0.4375 1.328125 -1.171875l1.25 0.96875q-1.5 2.3125 -4.515625 2.3125zm-0.25 -10.734375q-1.25 0 -2.09375 0.90625q-0.828125 0.90625 -1.03125 2.53125l6.0 0l0 -0.15625q-0.09375 -1.5625 -0.84375 -2.421875q-0.75 -0.859375 -2.03125 -0.859375zm9.206055 -1.453125l0.0625 1.328125q1.3125 -1.546875 3.546875 -1.546875q2.515625 0 3.421875 1.921875q0.59375 -0.859375 1.546875 -1.390625q0.96875 -0.53125 2.265625 -0.53125q3.9375 0 4.0 4.171875l0 8.015625l-2.046875 0l0 -7.90625q0 -1.28125 -0.59375 -1.90625q-0.578125 -0.640625 -1.953125 -0.640625q-1.140625 0 -1.890625 0.6875q-0.75 0.671875 -0.875 1.828125l0 7.9375l-2.0625 0l0 -7.84375q0 -2.609375 -2.546875 -2.609375q-2.015625 0 -2.765625 1.71875l0 8.734375l-2.046875 0l0 -11.96875l1.9375 0zm28.044922 6.109375q0 2.734375 -1.25 4.40625q-1.25 1.671875 -3.375 1.671875q-2.1875 0 -3.4375 -1.375l0 5.765625l-2.046875 0l0 -16.578125l1.875 0l0.09375 1.328125q1.25 -1.546875 3.46875 -1.546875q2.171875 0 3.421875 1.625q1.25 1.625 1.25 4.515625l0 0.1875zm-2.046875 -0.21875q0 -2.03125 -0.859375 -3.203125q-0.859375 -1.171875 -2.359375 -1.171875q-1.859375 0 -2.796875 1.640625l0 5.71875q0.921875 1.640625 2.8125 1.640625q1.46875 0 2.328125 -1.15625q0.875 -1.171875 0.875 -3.46875zm9.0703125 -1.40625l-1.96875 2.046875l0 5.4375l-2.125 0l0 -16.109375l2.125 0l0 7.96875l7.15625 -7.96875l2.5625 0l-6.34375 7.109375l6.84375 9.0l-2.546875 0l-5.703125 -7.484375zm14.463501 7.703125q-2.4375 0 -3.96875 -1.59375q-1.515625 -1.59375 -1.515625 -4.28125l0 -0.375q0 -1.78125 0.671875 -3.171875q0.6875 -1.40625 1.90625 -2.1875q1.21875 -0.796875 2.65625 -0.796875q2.328125 0 3.625 1.546875q1.296875 1.53125 1.296875 4.390625l0 0.84375l-8.109375 0q0.046875 1.78125 1.03125 2.875q0.984375 1.078125 2.515625 1.078125q1.078125 0 1.828125 -0.4375q0.765625 -0.4375 1.328125 -1.171875l1.25 0.96875q-1.5 2.3125 -4.515625 2.3125zm-0.25 -10.734375q-1.25 0 -2.09375 0.90625q-0.828125 0.90625 -1.03125 2.53125l6.0 0l0 -0.15625q-0.09375 -1.5625 -0.84375 -2.421875q-0.75 -0.859375 -2.03125 -0.859375zm11.062195 7.515625l2.78125 -8.96875l2.1875 0l-4.8125 13.8125q-1.109375 2.984375 -3.546875 2.984375l-0.390625 -0.03125l-0.765625 -0.140625l0 -1.65625l0.5625 0.046875q1.03125 0 1.609375 -0.421875q0.59375 -0.421875 0.96875 -1.546875l0.453125 -1.203125l-4.265625 -11.84375l2.234375 0l2.984375 8.96875z" fill-rule="nonzero"/></g><g filter="url(#shadowFilter-p.9)"><use xlink:href="#p.9" transform="matrix(1.0 0.0 0.0 1.0 0.0 2.0)"/></g><defs><filter id="shadowFilter-p.9" filterUnits="userSpaceOnUse"><feGaussianBlur in="SourceAlpha" stdDeviation="2.0" result="blur"/><feComponentTransfer in="blur" color-interpolation-filters="sRGB"><feFuncR type="linear" slope="0" intercept="0.0"/><feFuncG type="linear" slope="0" intercept="0.0"/><feFuncB type="linear" slope="0" intercept="0.0"/><feFuncA type="linear" slope="0.5" intercept="0"/></feComponentTransfer></filter></defs><g id="p.9"><path fill="#ea9999" d="m345.06036 25.254574l148.6614 0l0 39.212597l-148.6614 0z" fill-rule="evenodd"/><path stroke="#666666" stroke-width="1.0" stroke-linejoin="round" stroke-linecap="butt" d="m345.06036 25.254574l148.6614 0l0 39.212597l-148.6614 0z" fill-rule="evenodd"/><path fill="#000000" d="m388.00586 45.948997q-2.71875 -0.796875 -3.96875 -1.9375q-1.25 -1.140625 -1.25 -2.828125q0 -1.90625 1.515625 -3.140625q1.53125 -1.25 3.96875 -1.25q1.65625 0 2.953125 0.640625q1.296875 0.640625 2.015625 1.78125q0.71875 1.125 0.71875 2.453125l-2.140625 0q0 -1.453125 -0.9375 -2.28125q-0.921875 -0.84375 -2.609375 -0.84375q-1.578125 0 -2.453125 0.6875q-0.875 0.6875 -0.875 1.921875q0 0.984375 0.828125 1.671875q0.828125 0.671875 2.828125 1.234375q2.015625 0.5625 3.15625 1.25q1.140625 0.671875 1.6875 1.578125q0.546875 0.90625 0.546875 2.140625q0 1.953125 -1.53125 3.140625q-1.53125 1.171875 -4.078125 1.171875q-1.65625 0 -3.109375 -0.625q-1.4375 -0.640625 -2.21875 -1.75q-0.765625 -1.109375 -0.765625 -2.515625l2.125 0q0 1.46875 1.078125 2.3125q1.078125 0.84375 2.890625 0.84375q1.671875 0 2.5625 -0.6875q0.90625 -0.6875 0.90625 -1.859375q0 -1.1875 -0.828125 -1.828125q-0.828125 -0.65625 -3.015625 -1.28125zm13.347351 7.390625q-2.4375 0 -3.96875 -1.59375q-1.515625 -1.59375 -1.515625 -4.28125l0 -0.375q0 -1.78125 0.671875 -3.171875q0.6875 -1.40625 1.90625 -2.1875q1.21875 -0.796875 2.65625 -0.796875q2.328125 0 3.625 1.546875q1.296875 1.53125 1.296875 4.390625l0 0.84375l-8.109375 0q0.046875 1.78125 1.03125 2.875q0.984375 1.078125 2.515625 1.078125q1.078125 0 1.828125 -0.4375q0.765625 -0.4375 1.328125 -1.171875l1.25 0.96875q-1.5 2.3125 -4.515625 2.3125zm-0.25 -10.734375q-1.25 0 -2.09375 0.90625q-0.828125 0.90625 -1.03125 2.53125l6.0 0l0 -0.15625q-0.09375 -1.5625 -0.84375 -2.421875q-0.75 -0.859375 -2.03125 -0.859375zm13.06543 0.375q-0.453125 -0.0625 -1.0 -0.0625q-2.015625 0 -2.734375 1.703125l0 8.5l-2.046875 0l0 -11.96875l2.0 0l0.03125 1.375q1.0 -1.59375 2.84375 -1.59375q0.609375 0 0.90625 0.15625l0 1.890625zm4.1039124 10.140625l-2.046875 0l0 -11.96875l2.046875 0l0 11.96875zm-2.203125 -15.140625q0 -0.5 0.296875 -0.84375q0.3125 -0.34375 0.90625 -0.34375q0.59375 0 0.90625 0.34375q0.3125 0.34375 0.3125 0.84375q0 0.5 -0.3125 0.828125q-0.3125 0.328125 -0.90625 0.328125q-0.59375 0 -0.90625 -0.328125q-0.296875 -0.328125 -0.296875 -0.828125zm12.873108 15.140625q-0.171875 -0.359375 -0.28125 -1.265625q-1.4375 1.484375 -3.40625 1.484375q-1.78125 0 -2.921875 -1.0q-1.125 -1.0 -1.125 -2.53125q0 -1.875 1.421875 -2.90625q1.421875 -1.03125 4.0 -1.03125l2.0 0l0 -0.953125q0 -1.0625 -0.65625 -1.703125q-0.640625 -0.640625 -1.890625 -0.640625q-1.09375 0 -1.84375 0.5625q-0.734375 0.546875 -0.734375 1.328125l-2.046875 0q0 -0.890625 0.625 -1.71875q0.640625 -0.84375 1.734375 -1.328125q1.09375 -0.484375 2.390625 -0.484375q2.078125 0 3.25 1.03125q1.171875 1.03125 1.21875 2.84375l0 5.515625q0 1.640625 0.40625 2.625l0 0.171875l-2.140625 0zm-3.390625 -1.5625q0.953125 0 1.8125 -0.5q0.875 -0.5 1.265625 -1.296875l0 -2.453125l-1.609375 0q-3.765625 0 -3.765625 2.203125q0 0.96875 0.640625 1.515625q0.640625 0.53125 1.65625 0.53125zm10.542511 1.5625l-2.046875 0l0 -17.0l2.046875 0l0 17.0zm15.809998 -4.53125l-2.921875 0l-0.890625 4.53125l-1.578125 0l0.875 -4.53125l-2.640625 0l0 -1.515625l2.9375 0l0.765625 -3.921875l-2.859375 0l0 -1.53125l3.15625 0l0.90625 -4.609375l1.578125 0l-0.90625 4.609375l2.921875 0l0.90625 -4.609375l1.59375 0l-0.90625 4.609375l2.25 0l0 1.53125l-2.546875 0l-0.765625 3.921875l2.484375 0l0 1.515625l-2.765625 0l-0.890625 4.53125l-1.59375 0l0.890625 -4.53125zm-2.640625 -1.515625l2.921875 0l0.765625 -3.921875l-2.921875 0l-0.765625 3.921875z" fill-rule="nonzero"/></g><g filter="url(#shadowFilter-p.10)"><use xlink:href="#p.10" transform="matrix(1.0 0.0 0.0 1.0 0.0 2.0)"/></g><defs><filter id="shadowFilter-p.10" filterUnits="userSpaceOnUse"><feGaussianBlur in="SourceAlpha" stdDeviation="2.0" result="blur"/><feComponentTransfer in="blur" color-interpolation-filters="sRGB"><feFuncR type="linear" slope="0" intercept="0.0"/><feFuncG type="linear" slope="0" intercept="0.0"/><feFuncB type="linear" slope="0" intercept="0.0"/><feFuncA type="linear" slope="0.5" intercept="0"/></feComponentTransfer></filter></defs><g id="p.10"><path fill="#efefef" d="m322.86615 290.00787l593.2598 0l0 39.212585l-593.2598 0z" fill-rule="evenodd"/><path stroke="#666666" stroke-width="1.0" stroke-linejoin="round" stroke-linecap="butt" d="m322.86615 290.00787l593.2598 0l0 39.212585l-593.2598 0z" fill-rule="evenodd"/><path fill="#000000" d="m590.9484 310.7023q-2.71875 -0.796875 -3.96875 -1.9375q-1.25 -1.140625 -1.25 -2.828125q0 -1.90625 1.515625 -3.140625q1.53125 -1.25 3.96875 -1.25q1.65625 0 2.953125 0.640625q1.296875 0.640625 2.015625 1.78125q0.71875 1.125 0.71875 2.453125l-2.140625 0q0 -1.453125 -0.9375 -2.28125q-0.921875 -0.84375 -2.609375 -0.84375q-1.578125 0 -2.453125 0.6875q-0.875 0.6875 -0.875 1.921875q0 0.984375 0.828125 1.671875q0.828125 0.671875 2.828125 1.234375q2.015625 0.5625 3.15625 1.25q1.140625 0.671875 1.6875 1.578125q0.546875 0.90625 0.546875 2.140625q0 1.953125 -1.53125 3.140625q-1.53125 1.171875 -4.078125 1.171875q-1.65625 0 -3.109375 -0.625q-1.4375 -0.640625 -2.21875 -1.75q-0.765625 -1.109375 -0.765625 -2.515625l2.125 0q0 1.46875 1.078125 2.3125q1.078125 0.84375 2.890625 0.84375q1.671875 0 2.5625 -0.6875q0.90625 -0.6875 0.90625 -1.859375q0 -1.1875 -0.828125 -1.828125q-0.828125 -0.65625 -3.015625 -1.28125zm10.597351 7.171875l-2.046875 0l0 -17.0l2.046875 0l0 17.0zm2.732483 -6.09375q0 -1.765625 0.6875 -3.171875q0.703125 -1.40625 1.9375 -2.15625q1.234375 -0.765625 2.8125 -0.765625q2.453125 0 3.953125 1.6875q1.515625 1.6875 1.515625 4.5l0 0.140625q0 1.75 -0.671875 3.140625q-0.671875 1.390625 -1.921875 2.171875q-1.234375 0.765625 -2.859375 0.765625q-2.421875 0 -3.9375 -1.6875q-1.515625 -1.6875 -1.515625 -4.484375l0 -0.140625zm2.0625 0.234375q0 2.0 0.921875 3.203125q0.921875 1.203125 2.46875 1.203125q1.5625 0 2.484375 -1.21875q0.921875 -1.21875 0.921875 -3.421875q0 -1.96875 -0.9375 -3.1875q-0.9375 -1.234375 -2.484375 -1.234375q-1.515625 0 -2.453125 1.21875q-0.921875 1.203125 -0.921875 3.4375zm14.186768 -9.015625l0 2.90625l2.234375 0l0 1.578125l-2.234375 0l0 7.421875q0 0.71875 0.296875 1.078125q0.296875 0.359375 1.015625 0.359375q0.359375 0 0.96875 -0.125l0 1.65625q-0.796875 0.21875 -1.5625 0.21875q-1.375 0 -2.078125 -0.828125q-0.6875 -0.828125 -0.6875 -2.359375l0 -7.421875l-2.1875 0l0 -1.578125l2.1875 0l0 -2.90625l2.046875 0zm20.119019 8.0q0 3.59375 -1.234375 5.34375q-1.21875 1.75 -3.828125 1.75q-2.578125 0 -3.828125 -1.703125q-1.234375 -1.71875 -1.28125 -5.109375l0 -2.734375q0 -3.546875 1.234375 -5.265625q1.234375 -1.734375 3.84375 -1.734375q2.609375 0 3.828125 1.671875q1.234375 1.65625 1.265625 5.125l0 2.65625zm-2.046875 -2.796875q0 -2.59375 -0.734375 -3.78125q-0.71875 -1.1875 -2.3125 -1.1875q-1.5625 0 -2.28125 1.1875q-0.71875 1.171875 -0.75 3.625l0 3.28125q0 2.609375 0.75 3.859375q0.765625 1.234375 2.3125 1.234375q1.515625 0 2.25 -1.171875q0.734375 -1.171875 0.765625 -3.6875l0 -3.359375zm14.76886 2.796875q0 3.59375 -1.234375 5.34375q-1.21875 1.75 -3.828125 1.75q-2.578125 0 -3.828125 -1.703125q-1.234375 -1.71875 -1.28125 -5.109375l0 -2.734375q0 -3.546875 1.234375 -5.265625q1.234375 -1.734375 3.84375 -1.734375q2.609375 0 3.828125 1.671875q1.234375 1.65625 1.265625 5.125l0 2.65625zm-2.046875 -2.796875q0 -2.59375 -0.734375 -3.78125q-0.71875 -1.1875 -2.3125 -1.1875q-1.5625 0 -2.28125 1.1875q-0.71875 1.171875 -0.75 3.625l0 3.28125q0 2.609375 0.75 3.859375q0.765625 1.234375 2.3125 1.234375q1.515625 0 2.25 -1.171875q0.734375 -1.171875 0.765625 -3.6875l0 -3.359375z" fill-rule="nonzero"/></g><g filter="url(#shadowFilter-p.11)"><use xlink:href="#p.11" transform="matrix(1.0 0.0 0.0 1.0 0.0 2.0)"/></g><defs><filter id="shadowFilter-p.11" filterUnits="userSpaceOnUse"><feGaussianBlur in="SourceAlpha" stdDeviation="2.0" result="blur"/><feComponentTransfer in="blur" color-interpolation-filters="sRGB"><feFuncR type="linear" slope="0" intercept="0.0"/><feFuncG type="linear" slope="0" intercept="0.0"/><feFuncB type="linear" slope="0" intercept="0.0"/><feFuncA type="linear" slope="0.5" intercept="0"/></feComponentTransfer></filter></defs><g id="p.11"><path fill="#efefef" d="m322.86615 390.13385l593.2598 0l0 39.212616l-593.2598 0z" fill-rule="evenodd"/><path stroke="#666666" stroke-width="1.0" stroke-linejoin="round" stroke-linecap="butt" d="m322.86615 390.13385l593.2598 0l0 39.212616l-593.2598 0z" fill-rule="evenodd"/><path fill="#000000" d="m590.9484 410.82828q-2.71875 -0.796875 -3.96875 -1.9375q-1.25 -1.140625 -1.25 -2.828125q0 -1.90625 1.515625 -3.140625q1.53125 -1.25 3.96875 -1.25q1.65625 0 2.953125 0.640625q1.296875 0.640625 2.015625 1.78125q0.71875 1.125 0.71875 2.453125l-2.140625 0q0 -1.453125 -0.9375 -2.28125q-0.921875 -0.84375 -2.609375 -0.84375q-1.578125 0 -2.453125 0.6875q-0.875 0.6875 -0.875 1.921875q0 0.984375 0.828125 1.671875q0.828125 0.671875 2.828125 1.234375q2.015625 0.5625 3.15625 1.25q1.140625 0.671875 1.6875 1.578125q0.546875 0.90625 0.546875 2.140625q0 1.953125 -1.53125 3.140625q-1.53125 1.171875 -4.078125 1.171875q-1.65625 0 -3.109375 -0.625q-1.4375 -0.640625 -2.21875 -1.75q-0.765625 -1.109375 -0.765625 -2.515625l2.125 0q0 1.46875 1.078125 2.3125q1.078125 0.84375 2.890625 0.84375q1.671875 0 2.5625 -0.6875q0.90625 -0.6875 0.90625 -1.859375q0 -1.1875 -0.828125 -1.828125q-0.828125 -0.65625 -3.015625 -1.28125zm10.597351 7.171875l-2.046875 0l0 -17.0l2.046875 0l0 17.0zm2.732483 -6.09375q0 -1.765625 0.6875 -3.171875q0.703125 -1.40625 1.9375 -2.15625q1.234375 -0.765625 2.8125 -0.765625q2.453125 0 3.953125 1.6875q1.515625 1.6875 1.515625 4.5l0 0.140625q0 1.75 -0.671875 3.140625q-0.671875 1.390625 -1.921875 2.171875q-1.234375 0.765625 -2.859375 0.765625q-2.421875 0 -3.9375 -1.6875q-1.515625 -1.6875 -1.515625 -4.484375l0 -0.140625zm2.0625 0.234375q0 2.0 0.921875 3.203125q0.921875 1.203125 2.46875 1.203125q1.5625 0 2.484375 -1.21875q0.921875 -1.21875 0.921875 -3.421875q0 -1.96875 -0.9375 -3.1875q-0.9375 -1.234375 -2.484375 -1.234375q-1.515625 0 -2.453125 1.21875q-0.921875 1.203125 -0.921875 3.4375zm14.186768 -9.015625l0 2.90625l2.234375 0l0 1.578125l-2.234375 0l0 7.421875q0 0.71875 0.296875 1.078125q0.296875 0.359375 1.015625 0.359375q0.359375 0 0.96875 -0.125l0 1.65625q-0.796875 0.21875 -1.5625 0.21875q-1.375 0 -2.078125 -0.828125q-0.6875 -0.828125 -0.6875 -2.359375l0 -7.421875l-2.1875 0l0 -1.578125l2.1875 0l0 -2.90625l2.046875 0zm16.744019 14.875l-2.0625 0l0 -13.640625l-4.125 1.515625l0 -1.859375l5.875 -2.203125l0.3125 0l0 16.1875zm6.940735 -8.078125l0.8125 -8.03125l8.25 0l0 1.890625l-6.515625 0l-0.484375 4.390625q1.1875 -0.6875 2.6875 -0.6875q2.203125 0 3.5 1.453125q1.296875 1.453125 1.296875 3.921875q0 2.5 -1.34375 3.9375q-1.34375 1.421875 -3.765625 1.421875q-2.125 0 -3.484375 -1.171875q-1.34375 -1.1875 -1.53125 -3.28125l1.9375 0q0.1875 1.375 0.984375 2.078125q0.796875 0.703125 2.09375 0.703125q1.4375 0 2.25 -0.96875q0.8125 -0.96875 0.8125 -2.6875q0 -1.609375 -0.890625 -2.59375q-0.875 -0.984375 -2.328125 -0.984375q-1.34375 0 -2.109375 0.59375l-0.53125 0.4375l-1.640625 -0.421875z" fill-rule="nonzero"/></g><g filter="url(#shadowFilter-p.12)"><use xlink:href="#p.12" transform="matrix(1.0 0.0 0.0 1.0 0.0 2.0)"/></g><defs><filter id="shadowFilter-p.12" filterUnits="userSpaceOnUse"><feGaussianBlur in="SourceAlpha" stdDeviation="2.0" result="blur"/><feComponentTransfer in="blur" color-interpolation-filters="sRGB"><feFuncR type="linear" slope="0" intercept="0.0"/><feFuncG type="linear" slope="0" intercept="0.0"/><feFuncB type="linear" slope="0" intercept="0.0"/><feFuncA type="linear" slope="0.5" intercept="0"/></feComponentTransfer></filter></defs><g id="p.12"><path fill="#b6d7a8" d="m769.1417 208.42258l133.03937 0l0 53.95276l-133.03937 0z" fill-rule="evenodd"/><path stroke="#666666" stroke-width="1.0" stroke-linejoin="round" stroke-linecap="butt" d="m769.1417 208.42258l133.03937 0l0 53.95276l-133.03937 0z" fill-rule="evenodd"/><path fill="#000000" d="m815.986 236.48708q-2.71875 -0.796875 -3.96875 -1.9375q-1.25 -1.140625 -1.25 -2.828125q0 -1.90625 1.515625 -3.140625q1.53125 -1.25 3.96875 -1.25q1.65625 0 2.953125 0.640625q1.296875 0.640625 2.015625 1.78125q0.71875 1.125 0.71875 2.453125l-2.140625 0q0 -1.453125 -0.9375 -2.28125q-0.921875 -0.84375 -2.609375 -0.84375q-1.578125 0 -2.453125 0.6875q-0.875 0.6875 -0.875 1.921875q0 0.984375 0.828125 1.671875q0.828125 0.671875 2.828125 1.234375q2.015625 0.5625 3.15625 1.25q1.140625 0.671875 1.6875 1.578125q0.546875 0.90625 0.546875 2.140625q0 1.953125 -1.53125 3.140625q-1.53125 1.171875 -4.078125 1.171875q-1.65625 0 -3.109375 -0.625q-1.4375 -0.640625 -2.21875 -1.75q-0.765625 -1.109375 -0.765625 -2.515625l2.125 0q0 1.46875 1.078125 2.3125q1.078125 0.84375 2.890625 0.84375q1.671875 0 2.5625 -0.6875q0.90625 -0.6875 0.90625 -1.859375q0 -1.1875 -0.828125 -1.828125q-0.828125 -0.65625 -3.015625 -1.28125zm11.15979 -7.703125l0 2.90625l2.234375 0l0 1.578125l-2.234375 0l0 7.421875q0 0.71875 0.296875 1.078125q0.296875 0.359375 1.015625 0.359375q0.359375 0 0.96875 -0.125l0 1.65625q-0.796875 0.21875 -1.5625 0.21875q-1.375 0 -2.078125 -0.828125q-0.6875 -0.828125 -0.6875 -2.359375l0 -7.421875l-2.1875 0l0 -1.578125l2.1875 0l0 -2.90625l2.046875 0zm12.010315 14.875q-0.171875 -0.359375 -0.28125 -1.265625q-1.4375 1.484375 -3.40625 1.484375q-1.78125 0 -2.921875 -1.0q-1.125 -1.0 -1.125 -2.53125q0 -1.875 1.421875 -2.90625q1.421875 -1.03125 4.0 -1.03125l2.0 0l0 -0.953125q0 -1.0625 -0.65625 -1.703125q-0.640625 -0.640625 -1.890625 -0.640625q-1.09375 0 -1.84375 0.5625q-0.734375 0.546875 -0.734375 1.328125l-2.046875 0q0 -0.890625 0.625 -1.71875q0.640625 -0.84375 1.734375 -1.328125q1.09375 -0.484375 2.390625 -0.484375q2.078125 0 3.25 1.03125q1.171875 1.03125 1.21875 2.84375l0 5.515625q0 1.640625 0.40625 2.625l0 0.171875l-2.140625 0zm-3.390625 -1.5625q0.953125 0 1.8125 -0.5q0.875 -0.5 1.265625 -1.296875l0 -2.453125l-1.609375 0q-3.765625 0 -3.765625 2.203125q0 0.96875 0.640625 1.515625q0.640625 0.53125 1.65625 0.53125zm11.10498 -13.3125l0 2.90625l2.234375 0l0 1.578125l-2.234375 0l0 7.421875q0 0.71875 0.296875 1.078125q0.296875 0.359375 1.015625 0.359375q0.359375 0 0.96875 -0.125l0 1.65625q-0.796875 0.21875 -1.5625 0.21875q-1.375 0 -2.078125 -0.828125q-0.6875 -0.828125 -0.6875 -2.359375l0 -7.421875l-2.1875 0l0 -1.578125l2.1875 0l0 -2.90625l2.046875 0zm9.588379 15.09375q-2.4375 0 -3.96875 -1.59375q-1.515625 -1.59375 -1.515625 -4.28125l0 -0.375q0 -1.78125 0.671875 -3.171875q0.6875 -1.40625 1.90625 -2.1875q1.21875 -0.796875 2.65625 -0.796875q2.328125 0 3.625 1.546875q1.296875 1.53125 1.296875 4.390625l0 0.84375l-8.109375 0q0.046875 1.78125 1.03125 2.875q0.984375 1.078125 2.515625 1.078125q1.078125 0 1.828125 -0.4375q0.765625 -0.4375 1.328125 -1.171875l1.25 0.96875q-1.5 2.3125 -4.515625 2.3125zm-0.25 -10.734375q-1.25 0 -2.09375 0.90625q-0.828125 0.90625 -1.03125 2.53125l6.0 0l0 -0.15625q-0.09375 -1.5625 -0.84375 -2.421875q-0.75 -0.859375 -2.03125 -0.859375z" fill-rule="nonzero"/></g><path fill="#000000" fill-opacity="0.0" d="m567.1959 390.1346l0 -60.91336l71.27557 0l0 60.91336z" fill-rule="evenodd"/><path fill="#000000" d="m619.5025 373.65536q-1.25 0 -2.078125 -0.734375q-0.828125 -0.75 -0.828125 -2.234375q0 -1.484375 0.828125 -2.25q0.828125 -0.765625 2.078125 -0.765625q1.203125 0 2.015625 0.765625q0.796875 0.765625 0.796875 2.25q0 1.484375 -0.796875 2.234375q-0.8125 0.734375 -2.015625 0.734375zm0 -11.375q-1.25 0 -2.078125 -0.734375q-0.828125 -0.75 -0.828125 -2.234375q0 -1.484375 0.828125 -2.25q0.828125 -0.765625 2.078125 -0.765625q1.203125 0 2.015625 0.765625q0.796875 0.765625 0.796875 2.25q0 1.484375 -0.796875 2.234375q-0.8125 0.734375 -2.015625 0.734375zm0 -10.8125q-1.25 0 -2.078125 -0.734375q-0.828125 -0.75 -0.828125 -2.234375q0 -1.484375 0.828125 -2.25q0.828125 -0.765625 2.078125 -0.765625q1.203125 0 2.015625 0.765625q0.796875 0.765625 0.796875 2.25q0 1.484375 -0.796875 2.234375q-0.8125 0.734375 -2.015625 0.734375z" fill-rule="nonzero"/><path fill="#000000" fill-opacity="0.0" d="m33.065617 251.60112l107.622055 0l0 198.01576l-107.622055 0z" fill-rule="evenodd"/><path fill="#000000" d="m52.603203 265.883q-1.921875 -0.546875 -2.8125 -1.359375q-0.875 -0.8125 -0.875 -2.0q0 -1.34375 1.078125 -2.21875q1.078125 -0.875 2.796875 -0.875q1.171875 0 2.078125 0.453125q0.921875 0.453125 1.421875 1.25q0.515625 0.796875 0.515625 1.734375l-1.515625 0q0 -1.03125 -0.65625 -1.609375q-0.65625 -0.59375 -1.84375 -0.59375q-1.109375 0 -1.734375 0.484375q-0.625 0.484375 -0.625 1.359375q0 0.6875 0.59375 1.171875q0.59375 0.484375 2.0 0.890625q1.421875 0.390625 2.21875 0.875q0.8125 0.46875 1.1875 1.109375q0.390625 0.640625 0.390625 1.515625q0 1.375 -1.078125 2.21875q-1.078125 0.828125 -2.875 0.828125q-1.171875 0 -2.1875 -0.453125q-1.015625 -0.453125 -1.578125 -1.234375q-0.546875 -0.78125 -0.546875 -1.765625l1.515625 0q0 1.03125 0.75 1.625q0.765625 0.59375 2.046875 0.59375q1.1875 0 1.8125 -0.484375q0.640625 -0.484375 0.640625 -1.3125q0 -0.84375 -0.59375 -1.296875q-0.578125 -0.453125 -2.125 -0.90625zm7.4921875 5.078125l-1.453125 0l0 -12.0l1.453125 0l0 12.0zm1.9296875 -4.3125q0 -1.234375 0.484375 -2.21875q0.484375 -1.0 1.359375 -1.53125q0.875 -0.546875 1.984375 -0.546875q1.734375 0 2.796875 1.203125q1.0625 1.1875 1.0625 3.171875l0 0.09375q0 1.234375 -0.46875 2.21875q-0.46875 0.984375 -1.359375 1.53125q-0.875 0.546875 -2.015625 0.546875q-1.71875 0 -2.78125 -1.1875q-1.0625 -1.203125 -1.0625 -3.171875l0 -0.109375zm1.453125 0.171875q0 1.40625 0.640625 2.265625q0.65625 0.84375 1.75 0.84375q1.109375 0 1.75 -0.859375q0.65625 -0.859375 0.65625 -2.421875q0 -1.390625 -0.671875 -2.25q-0.65625 -0.859375 -1.75 -0.859375q-1.0625 0 -1.71875 0.859375q-0.65625 0.84375 -0.65625 2.421875zm10.015625 -6.359375l0 2.046875l1.578125 0l0 1.109375l-1.578125 0l0 5.25q0 0.5 0.203125 0.765625q0.21875 0.25 0.71875 0.25q0.25 0 0.6875 -0.09375l0 1.171875q-0.5625 0.15625 -1.109375 0.15625q-0.96875 0 -1.46875 -0.578125q-0.484375 -0.59375 -0.484375 -1.671875l0 -5.25l-1.53125 0l0 -1.109375l1.53125 0l0 -2.046875l1.453125 0zm15.8125 6.890625q-0.203125 1.796875 -1.328125 2.78125q-1.125 0.984375 -2.984375 0.984375q-2.015625 0 -3.234375 -1.4375q-1.203125 -1.453125 -1.203125 -3.875l0 -1.09375q0 -1.59375 0.5625 -2.796875q0.5625 -1.203125 1.59375 -1.84375q1.046875 -0.640625 2.421875 -0.640625q1.8125 0 2.90625 1.015625q1.09375 1.0 1.265625 2.796875l-1.5 0q-0.203125 -1.359375 -0.859375 -1.96875q-0.640625 -0.609375 -1.8125 -0.609375q-1.4375 0 -2.265625 1.0625q-0.8125 1.0625 -0.8125 3.015625l0 1.109375q0 1.84375 0.765625 2.9375q0.78125 1.09375 2.171875 1.09375q1.25 0 1.921875 -0.5625q0.671875 -0.5625 0.890625 -1.96875l1.5 0zm1.4453125 -0.703125q0 -1.234375 0.484375 -2.21875q0.484375 -1.0 1.359375 -1.53125q0.875 -0.546875 1.984375 -0.546875q1.734375 0 2.796875 1.203125q1.0625 1.1875 1.0625 3.171875l0 0.09375q0 1.234375 -0.46875 2.21875q-0.46875 0.984375 -1.359375 1.53125q-0.875 0.546875 -2.015625 0.546875q-1.71875 0 -2.78125 -1.1875q-1.0625 -1.203125 -1.0625 -3.171875l0 -0.109375zm1.453125 0.171875q0 1.40625 0.640625 2.265625q0.65625 0.84375 1.75 0.84375q1.109375 0 1.75 -0.859375q0.65625 -0.859375 0.65625 -2.421875q0 -1.390625 -0.671875 -2.25q-0.65625 -0.859375 -1.75 -0.859375q-1.0625 0 -1.71875 0.859375q-0.65625 0.84375 -0.65625 2.421875zm9.421875 -4.3125l0.046875 1.0625q0.96875 -1.21875 2.53125 -1.21875q2.671875 0 2.703125 3.015625l0 5.59375l-1.453125 0l0 -5.59375q0 -0.921875 -0.421875 -1.359375q-0.40625 -0.4375 -1.265625 -0.4375q-0.703125 0 -1.234375 0.375q-0.53125 0.375 -0.828125 0.984375l0 6.03125l-1.453125 0l0 -8.453125l1.375 0zm7.9375 8.453125l0 -7.34375l-1.328125 0l0 -1.109375l1.328125 0l0 -0.71875q0 -1.421875 0.8125 -2.203125q0.8125 -0.796875 2.28125 -0.796875q0.875 0 2.21875 0.484375l-0.25 1.21875q-0.96875 -0.390625 -1.859375 -0.390625q-0.921875 0 -1.34375 0.421875q-0.40625 0.40625 -0.40625 1.25l0 0.734375l1.734375 0l0 1.109375l-1.734375 0l0 7.34375l-1.453125 0zm6.03125 0l-1.453125 0l0 -8.453125l1.453125 0l0 8.453125zm2.0 -4.296875q0 -1.984375 0.90625 -3.140625q0.921875 -1.171875 2.4375 -1.171875q1.546875 0 2.40625 1.09375l0.078125 -0.9375l1.3125 0l0 8.25q0 1.640625 -0.96875 2.578125q-0.96875 0.953125 -2.609375 0.953125q-0.921875 0 -1.796875 -0.390625q-0.875 -0.390625 -1.328125 -1.0625l0.75 -0.875q0.921875 1.15625 2.265625 1.15625q1.0625 0 1.640625 -0.59375q0.59375 -0.59375 0.59375 -1.6875l0 -0.71875q-0.859375 1.0 -2.359375 1.0q-1.484375 0 -2.40625 -1.1875q-0.921875 -1.203125 -0.921875 -3.265625zm1.453125 0.15625q0 1.4375 0.578125 2.25q0.59375 0.8125 1.65625 0.8125q1.359375 0 2.0 -1.234375l0 -3.859375q-0.65625 -1.21875 -1.984375 -1.21875q-1.0625 0 -1.65625 0.828125q-0.59375 0.8125 -0.59375 2.421875z" fill-rule="nonzero"/><path fill="#000000" fill-opacity="0.0" d="m163.9685 251.59317l107.62204 0l0 198.01575l-107.62204 0z" fill-rule="evenodd"/><path fill="#000000" d="m184.02953 265.6563l-1.390625 1.453125l0 3.84375l-1.5 0l0 -11.375l1.5 0l0 5.625l5.046875 -5.625l1.8125 0l-4.46875 5.015625l4.828125 6.359375l-1.796875 0l-4.03125 -5.296875zm10.21875 5.453125q-1.71875 0 -2.796875 -1.125q-1.078125 -1.140625 -1.078125 -3.03125l0 -0.265625q0 -1.25 0.46875 -2.234375q0.484375 -1.0 1.34375 -1.546875q0.875 -0.5625 1.875 -0.5625q1.65625 0 2.5625 1.09375q0.921875 1.078125 0.921875 3.09375l0 0.609375l-5.734375 0q0.03125 1.25 0.734375 2.015625q0.703125 0.765625 1.78125 0.765625q0.765625 0 1.296875 -0.3125q0.53125 -0.3125 0.921875 -0.828125l0.890625 0.6875q-1.0625 1.640625 -3.1875 1.640625zm-0.1875 -7.578125q-0.875 0 -1.46875 0.640625q-0.59375 0.625 -0.734375 1.78125l4.234375 0l0 -0.109375q-0.0625 -1.109375 -0.59375 -1.703125q-0.53125 -0.609375 -1.4375 -0.609375zm7.8125 5.296875l1.96875 -6.328125l1.546875 0l-3.390625 9.765625q-0.796875 2.109375 -2.515625 2.109375l-0.265625 -0.03125l-0.546875 -0.09375l0 -1.171875l0.390625 0.03125q0.734375 0 1.140625 -0.296875q0.421875 -0.296875 0.6875 -1.09375l0.3125 -0.859375l-3.015625 -8.359375l1.578125 0l2.109375 6.328125zm17.359375 -1.484375q-0.203125 1.796875 -1.328125 2.78125q-1.125 0.984375 -2.984375 0.984375q-2.015625 0 -3.234375 -1.4375q-1.203125 -1.453125 -1.203125 -3.875l0 -1.09375q0 -1.59375 0.5625 -2.796875q0.5625 -1.203125 1.59375 -1.84375q1.046875 -0.640625 2.421875 -0.640625q1.8125 0 2.90625 1.015625q1.09375 1.0 1.265625 2.796875l-1.5 0q-0.203125 -1.359375 -0.859375 -1.96875q-0.640625 -0.609375 -1.8125 -0.609375q-1.4375 0 -2.265625 1.0625q-0.8125 1.0625 -0.8125 3.015625l0 1.109375q0 1.84375 0.765625 2.9375q0.78125 1.09375 2.171875 1.09375q1.25 0 1.921875 -0.5625q0.671875 -0.5625 0.890625 -1.96875l1.5 0zm1.4453125 -0.703125q0 -1.234375 0.484375 -2.21875q0.484375 -1.0 1.359375 -1.53125q0.875 -0.546875 1.984375 -0.546875q1.734375 0 2.796875 1.203125q1.0625 1.1875 1.0625 3.171875l0 0.09375q0 1.234375 -0.46875 2.21875q-0.46875 0.984375 -1.359375 1.53125q-0.875 0.546875 -2.015625 0.546875q-1.71875 0 -2.78125 -1.1875q-1.0625 -1.203125 -1.0625 -3.171875l0 -0.109375zm1.453125 0.171875q0 1.40625 0.640625 2.265625q0.65625 0.84375 1.75 0.84375q1.109375 0 1.75 -0.859375q0.65625 -0.859375 0.65625 -2.421875q0 -1.390625 -0.671875 -2.25q-0.65625 -0.859375 -1.75 -0.859375q-1.0625 0 -1.71875 0.859375q-0.65625 0.84375 -0.65625 2.421875zm9.421875 -4.3125l0.046875 1.0625q0.96875 -1.21875 2.53125 -1.21875q2.671875 0 2.703125 3.015625l0 5.59375l-1.453125 0l0 -5.59375q0 -0.921875 -0.421875 -1.359375q-0.40625 -0.4375 -1.265625 -0.4375q-0.703125 0 -1.234375 0.375q-0.53125 0.375 -0.828125 0.984375l0 6.03125l-1.453125 0l0 -8.453125l1.375 0zm7.9375 8.453125l0 -7.34375l-1.328125 0l0 -1.109375l1.328125 0l0 -0.71875q0 -1.421875 0.8125 -2.203125q0.8125 -0.796875 2.28125 -0.796875q0.875 0 2.21875 0.484375l-0.25 1.21875q-0.96875 -0.390625 -1.859375 -0.390625q-0.921875 0 -1.34375 0.421875q-0.40625 0.40625 -0.40625 1.25l0 0.734375l1.734375 0l0 1.109375l-1.734375 0l0 7.34375l-1.453125 0zm6.03125 0l-1.453125 0l0 -8.453125l1.453125 0l0 8.453125zm2.0 -4.296875q0 -1.984375 0.90625 -3.140625q0.921875 -1.171875 2.4375 -1.171875q1.546875 0 2.40625 1.09375l0.078125 -0.9375l1.3125 0l0 8.25q0 1.640625 -0.96875 2.578125q-0.96875 0.953125 -2.609375 0.953125q-0.921875 0 -1.796875 -0.390625q-0.875 -0.390625 -1.328125 -1.0625l0.75 -0.875q0.921875 1.15625 2.265625 1.15625q1.0625 0 1.640625 -0.59375q0.59375 -0.59375 0.59375 -1.6875l0 -0.71875q-0.859375 1.0 -2.359375 1.0q-1.484375 0 -2.40625 -1.1875q-0.921875 -1.203125 -0.921875 -3.265625zm1.453125 0.15625q0 1.4375 0.578125 2.25q0.59375 0.8125 1.65625 0.8125q1.359375 0 2.0 -1.234375l0 -3.859375q-0.65625 -1.21875 -1.984375 -1.21875q-1.0625 0 -1.65625 0.828125q-0.59375 0.8125 -0.59375 2.421875z" fill-rule="nonzero"/><g filter="url(#shadowFilter-p.13)"><use xlink:href="#p.13" transform="matrix(1.0 0.0 0.0 1.0 0.0 2.0)"/></g><defs><filter id="shadowFilter-p.13" filterUnits="userSpaceOnUse"><feGaussianBlur in="SourceAlpha" stdDeviation="2.0" result="blur"/><feComponentTransfer in="blur" color-interpolation-filters="sRGB"><feFuncR type="linear" slope="0" intercept="0.0"/><feFuncG type="linear" slope="0" intercept="0.0"/><feFuncB type="linear" slope="0" intercept="0.0"/><feFuncA type="linear" slope="0.5" intercept="0"/></feComponentTransfer></filter></defs><g id="p.13"><path fill="#a4c2f4" d="m33.065617 123.95276l238.55118 0l0 101.22835l-238.55118 0z" fill-rule="evenodd"/><path fill="#000000" d="m130.37929 175.11067q0 2.09375 -0.703125 3.65625q-0.703125 1.546875 -1.9999924 2.375q-1.28125 0.828125 -3.0 0.828125q-1.6875 0 -2.984375 -0.828125q-1.296875 -0.828125 -2.015625 -2.359375q-0.71875 -1.53125 -0.734375 -3.546875l0 -1.015625q0 -2.046875 0.703125 -3.625q0.71875 -1.578125 2.015625 -2.40625q1.3125 -0.84375 2.984375 -0.84375q1.71875 0 3.015625 0.828125q1.3124924 0.828125 2.0156174 2.40625q0.703125 1.5625 0.703125 3.640625l0 0.890625zm-1.875 -0.90625q0 -2.53125 -1.0156174 -3.875q-1.015625 -1.359375 -2.84375 -1.359375q-1.765625 0 -2.796875 1.359375q-1.015625 1.34375 -1.046875 3.734375l0 1.046875q0 2.453125 1.03125 3.859375q1.03125 1.40625 2.84375 1.40625q1.8125 0 2.796875 -1.328125q0.9999924 -1.328125 1.0312424 -3.796875l0 -1.046875zm13.328125 2.390625q0 2.421875 -1.109375 3.90625q-1.09375 1.46875 -2.984375 1.46875q-1.921875 0 -3.03125 -1.234375l0 5.09375l-1.796875 0l0 -14.625l1.640625 0l0.09375 1.171875q1.09375 -1.375 3.0625 -1.375q1.90625 0 3.015625 1.4375q1.109375 1.4375 1.109375 4.0l0 0.15625zm-1.8125 -0.203125q0 -1.78125 -0.765625 -2.8125q-0.75 -1.046875 -2.078125 -1.046875q-1.640625 0 -2.46875 1.453125l0 5.0625q0.8125 1.4375 2.484375 1.4375q1.296875 0 2.0625 -1.03125q0.765625 -1.03125 0.765625 -3.0625zm6.548828 -7.75l0 2.5625l1.984375 0l0 1.390625l-1.984375 0l0 6.546875q0 0.640625 0.265625 0.96875q0.265625 0.3125 0.90625 0.3125q0.3125 0 0.859375 -0.125l0 1.46875q-0.71875 0.203125 -1.390625 0.203125q-1.203125 0 -1.828125 -0.734375q-0.609375 -0.734375 -0.609375 -2.09375l0 -6.546875l-1.921875 0l0 -1.390625l1.921875 0l0 -2.5625l1.796875 0zm6.048828 13.125l-1.796875 0l0 -10.5625l1.796875 0l0 10.5625zm-1.953125 -13.375q0 -0.4375 0.265625 -0.734375q0.28125 -0.3125 0.796875 -0.3125q0.53125 0 0.796875 0.3125q0.28125 0.296875 0.28125 0.734375q0 0.4375 -0.28125 0.734375q-0.265625 0.296875 -0.796875 0.296875q-0.515625 0 -0.796875 -0.296875q-0.265625 -0.296875 -0.265625 -0.734375zm4.3691406 8.0q0 -1.5625 0.609375 -2.796875q0.609375 -1.25 1.6875 -1.921875q1.09375 -0.671875 2.5 -0.671875q2.15625 0 3.484375 1.5q1.34375 1.484375 1.34375 3.96875l0 0.125q0 1.546875 -0.59375 2.78125q-0.59375 1.21875 -1.703125 1.90625q-1.09375 0.6875 -2.515625 0.6875q-2.140625 0 -3.484375 -1.5q-1.328125 -1.5 -1.328125 -3.953125l0 -0.125zm1.8125 0.203125q0 1.765625 0.8125 2.828125q0.828125 1.0625 2.1875 1.0625q1.375 0 2.1875 -1.078125q0.8125 -1.078125 0.8125 -3.015625q0 -1.75 -0.828125 -2.828125q-0.828125 -1.078125 -2.1875 -1.078125q-1.34375 0 -2.171875 1.0625q-0.8125 1.0625 -0.8125 3.046875zm11.78125 -5.390625l0.0625 1.328125q1.203125 -1.53125 3.15625 -1.53125q3.359375 0 3.375 3.78125l0 6.984375l-1.796875 0l0 -7.0q-0.015625 -1.140625 -0.53125 -1.6875q-0.5 -0.546875 -1.59375 -0.546875q-0.875 0 -1.546875 0.46875q-0.65625 0.46875 -1.03125 1.234375l0 7.53125l-1.796875 0l0 -10.5625l1.703125 0zm15.472656 7.765625q0 -0.734375 -0.546875 -1.140625q-0.546875 -0.40625 -1.921875 -0.703125q-1.375 -0.296875 -2.1875 -0.703125q-0.796875 -0.40625 -1.1875 -0.96875q-0.375 -0.578125 -0.375 -1.359375q0 -1.296875 1.09375 -2.1875q1.09375 -0.90625 2.8125 -0.90625q1.796875 0 2.90625 0.9375q1.125 0.921875 1.125 2.359375l-1.828125 0q0 -0.734375 -0.625 -1.265625q-0.625 -0.546875 -1.578125 -0.546875q-1.0 0 -1.5625 0.4375q-0.546875 0.421875 -0.546875 1.125q0 0.640625 0.515625 0.984375q0.515625 0.328125 1.875 0.640625q1.359375 0.296875 2.1875 0.71875q0.84375 0.40625 1.25 1.0q0.40625 0.59375 0.40625 1.4375q0 1.421875 -1.140625 2.28125q-1.125 0.859375 -2.9375 0.859375q-1.265625 0 -2.25 -0.453125q-0.96875 -0.453125 -1.53125 -1.25q-0.546875 -0.8125 -0.546875 -1.75l1.8125 0q0.046875 0.90625 0.71875 1.4375q0.6875 0.53125 1.796875 0.53125q1.03125 0 1.640625 -0.40625q0.625 -0.421875 0.625 -1.109375z" fill-rule="nonzero"/></g><g filter="url(#shadowFilter-p.14)"><use xlink:href="#p.14" transform="matrix(1.0 0.0 0.0 1.0 0.0 2.0)"/></g><defs><filter id="shadowFilter-p.14" filterUnits="userSpaceOnUse"><feGaussianBlur in="SourceAlpha" stdDeviation="2.0" result="blur"/><feComponentTransfer in="blur" color-interpolation-filters="sRGB"><feFuncR type="linear" slope="0" intercept="0.0"/><feFuncG type="linear" slope="0" intercept="0.0"/><feFuncB type="linear" slope="0" intercept="0.0"/><feFuncA type="linear" slope="0.5" intercept="0"/></feComponentTransfer></filter></defs><g id="p.14"><path fill="#efefef" d="m196.61417 290.00787l42.33072 0l0 39.212585l-42.33072 0z" fill-rule="evenodd"/><path fill="#000000" d="m216.95595 310.25668q0 2.3125 -0.796875 3.453125q-0.796875 1.125 -2.484375 1.125q-1.671875 0 -2.46875 -1.09375q-0.796875 -1.109375 -0.828125 -3.3125l0 -1.765625q0 -2.296875 0.78125 -3.40625q0.796875 -1.125 2.5 -1.125q1.6875 0 2.46875 1.078125q0.796875 1.078125 0.828125 3.328125l0 1.71875zm-1.328125 -1.8125q0 -1.6875 -0.484375 -2.453125q-0.46875 -0.765625 -1.484375 -0.765625q-1.015625 0 -1.484375 0.765625q-0.46875 0.765625 -0.484375 2.34375l0 2.125q0 1.6875 0.484375 2.5q0.5 0.796875 1.5 0.796875q0.984375 0 1.453125 -0.75q0.46875 -0.765625 0.5 -2.40625l0 -2.15625zm9.557953 1.8125q0 2.3125 -0.796875 3.453125q-0.796875 1.125 -2.484375 1.125q-1.671875 0 -2.46875 -1.09375q-0.796875 -1.109375 -0.828125 -3.3125l0 -1.765625q0 -2.296875 0.78125 -3.40625q0.796875 -1.125 2.5 -1.125q1.6875 0 2.46875 1.078125q0.796875 1.078125 0.828125 3.328125l0 1.71875zm-1.328125 -1.8125q0 -1.6875 -0.484375 -2.453125q-0.46875 -0.765625 -1.484375 -0.765625q-1.015625 0 -1.484375 0.765625q-0.46875 0.765625 -0.484375 2.34375l0 2.125q0 1.6875 0.484375 2.5q0.5 0.796875 1.5 0.796875q0.984375 0 1.453125 -0.75q0.46875 -0.765625 0.5 -2.40625l0 -2.15625z" fill-rule="nonzero"/></g><g filter="url(#shadowFilter-p.15)"><use xlink:href="#p.15" transform="matrix(1.0 0.0 0.0 1.0 0.0 2.0)"/></g><defs><filter id="shadowFilter-p.15" filterUnits="userSpaceOnUse"><feGaussianBlur in="SourceAlpha" stdDeviation="2.0" result="blur"/><feComponentTransfer in="blur" color-interpolation-filters="sRGB"><feFuncR type="linear" slope="0" intercept="0.0"/><feFuncG type="linear" slope="0" intercept="0.0"/><feFuncB type="linear" slope="0" intercept="0.0"/><feFuncA type="linear" slope="0.5" intercept="0"/></feComponentTransfer></filter></defs><g id="p.15"><path fill="#efefef" d="m65.71129 290.00787l42.330704 0l0 39.212585l-42.330704 0z" fill-rule="evenodd"/><path fill="#000000" d="m86.05306 310.25668q0 2.3125 -0.796875 3.453125q-0.796875 1.125 -2.484375 1.125q-1.671875 0 -2.46875 -1.09375q-0.796875 -1.109375 -0.828125 -3.3125l0 -1.765625q0 -2.296875 0.78125 -3.40625q0.796875 -1.125 2.5 -1.125q1.6875 0 2.46875 1.078125q0.796875 1.078125 0.828125 3.328125l0 1.71875zm-1.328125 -1.8125q0 -1.6875 -0.484375 -2.453125q-0.46875 -0.765625 -1.484375 -0.765625q-1.015625 0 -1.484375 0.765625q-0.46875 0.765625 -0.484375 2.34375l0 2.125q0 1.6875 0.484375 2.5q0.5 0.796875 1.5 0.796875q0.984375 0 1.453125 -0.75q0.46875 -0.765625 0.5 -2.40625l0 -2.15625zm9.557953 1.8125q0 2.3125 -0.796875 3.453125q-0.796875 1.125 -2.484375 1.125q-1.671875 0 -2.46875 -1.09375q-0.796875 -1.109375 -0.828125 -3.3125l0 -1.765625q0 -2.296875 0.78125 -3.40625q0.796875 -1.125 2.5 -1.125q1.6875 0 2.46875 1.078125q0.796875 1.078125 0.828125 3.328125l0 1.71875zm-1.328125 -1.8125q0 -1.6875 -0.484375 -2.453125q-0.46875 -0.765625 -1.484375 -0.765625q-1.015625 0 -1.484375 0.765625q-0.46875 0.765625 -0.484375 2.34375l0 2.125q0 1.6875 0.484375 2.5q0.5 0.796875 1.5 0.796875q0.984375 0 1.453125 -0.75q0.46875 -0.765625 0.5 -2.40625l0 -2.15625z" fill-rule="nonzero"/></g><g filter="url(#shadowFilter-p.16)"><use xlink:href="#p.16" transform="matrix(1.0 0.0 0.0 1.0 0.0 2.0)"/></g><defs><filter id="shadowFilter-p.16" filterUnits="userSpaceOnUse"><feGaussianBlur in="SourceAlpha" stdDeviation="2.0" result="blur"/><feComponentTransfer in="blur" color-interpolation-filters="sRGB"><feFuncR type="linear" slope="0" intercept="0.0"/><feFuncG type="linear" slope="0" intercept="0.0"/><feFuncB type="linear" slope="0" intercept="0.0"/><feFuncA type="linear" slope="0.5" intercept="0"/></feComponentTransfer></filter></defs><g id="p.16"><path fill="#efefef" d="m196.61417 390.13385l42.33072 0l0 39.212616l-42.33072 0z" fill-rule="evenodd"/><path fill="#000000" d="m214.76845 414.82016l-1.328125 0l0 -8.828125l-2.671875 0.984375l0 -1.203125l3.796875 -1.421875l0.203125 0l0 10.46875zm4.479828 -5.21875l0.53125 -5.203125l5.34375 0l0 1.21875l-4.21875 0l-0.3125 2.84375q0.765625 -0.453125 1.734375 -0.453125q1.421875 0 2.265625 0.953125q0.84375 0.9375 0.84375 2.53125q0 1.625 -0.875 2.546875q-0.875 0.921875 -2.4375 0.921875q-1.375 0 -2.25 -0.765625q-0.875 -0.765625 -0.984375 -2.109375l1.25 0q0.109375 0.890625 0.625 1.34375q0.515625 0.453125 1.359375 0.453125q0.9375 0 1.453125 -0.625q0.53125 -0.640625 0.53125 -1.75q0 -1.03125 -0.578125 -1.671875q-0.5625 -0.640625 -1.5 -0.640625q-0.875 0 -1.359375 0.390625l-0.359375 0.28125l-1.0625 -0.265625z" fill-rule="nonzero"/></g><g filter="url(#shadowFilter-p.17)"><use xlink:href="#p.17" transform="matrix(1.0 0.0 0.0 1.0 0.0 2.0)"/></g><defs><filter id="shadowFilter-p.17" filterUnits="userSpaceOnUse"><feGaussianBlur in="SourceAlpha" stdDeviation="2.0" result="blur"/><feComponentTransfer in="blur" color-interpolation-filters="sRGB"><feFuncR type="linear" slope="0" intercept="0.0"/><feFuncG type="linear" slope="0" intercept="0.0"/><feFuncB type="linear" slope="0" intercept="0.0"/><feFuncA type="linear" slope="0.5" intercept="0"/></feComponentTransfer></filter></defs><g id="p.17"><path fill="#efefef" d="m65.71129 390.13385l42.330704 0l0 39.212616l-42.330704 0z" fill-rule="evenodd"/><path fill="#000000" d="m83.86556 414.82016l-1.328125 0l0 -8.828125l-2.671875 0.984375l0 -1.203125l3.796875 -1.421875l0.203125 0l0 10.46875zm4.479828 -5.21875l0.53125 -5.203125l5.34375 0l0 1.21875l-4.21875 0l-0.3125 2.84375q0.765625 -0.453125 1.734375 -0.453125q1.421875 0 2.265625 0.953125q0.84375 0.9375 0.84375 2.53125q0 1.625 -0.875 2.546875q-0.875 0.921875 -2.4375 0.921875q-1.375 0 -2.25 -0.765625q-0.875 -0.765625 -0.984375 -2.109375l1.25 0q0.109375 0.890625 0.625 1.34375q0.515625 0.453125 1.359375 0.453125q0.9375 0 1.453125 -0.625q0.53125 -0.640625 0.53125 -1.75q0 -1.03125 -0.578125 -1.671875q-0.5625 -0.640625 -1.5 -0.640625q-0.875 0 -1.359375 0.390625l-0.359375 0.28125l-1.0625 -0.265625z" fill-rule="nonzero"/></g><path fill="#000000" fill-opacity="0.0" d="m39.195934 390.1346l0 -60.91336l71.27559 0l0 60.91336z" fill-rule="evenodd"/><path fill="#000000" d="m88.4956 371.20724q-1.03125 0 -1.71875 -0.609375q-0.6875 -0.609375 -0.6875 -1.828125q0 -1.234375 0.6875 -1.859375q0.6875 -0.640625 1.71875 -0.640625q0.984375 0 1.65625 0.640625q0.65625 0.625 0.65625 1.859375q0 1.21875 -0.65625 1.828125q-0.671875 0.609375 -1.65625 0.609375zm0 -9.375q-1.03125 0 -1.71875 -0.609375q-0.6875 -0.609375 -0.6875 -1.828125q0 -1.234375 0.6875 -1.8594055q0.6875 -0.640625 1.71875 -0.640625q0.984375 0 1.65625 0.640625q0.65625 0.6250305 0.65625 1.8594055q0 1.21875 -0.65625 1.828125q-0.671875 0.609375 -1.65625 0.609375zm0 -8.9219055q-1.03125 0 -1.71875 -0.609375q-0.6875 -0.609375 -0.6875 -1.828125q0 -1.234375 0.6875 -1.859375q0.6875 -0.640625 1.71875 -0.640625q0.984375 0 1.65625 0.640625q0.65625 0.625 0.65625 1.859375q0 1.21875 -0.65625 1.828125q-0.671875 0.609375 -1.65625 0.609375z" fill-rule="nonzero"/><path fill="#000000" fill-opacity="0.0" d="m167.19594 390.1346l0 -60.91336l71.27559 0l0 60.91336z" fill-rule="evenodd"/><path fill="#000000" d="m216.4956 371.20724q-1.03125 0 -1.71875 -0.609375q-0.6875 -0.609375 -0.6875 -1.828125q0 -1.234375 0.6875 -1.859375q0.6875 -0.640625 1.71875 -0.640625q0.984375 0 1.65625 0.640625q0.65625 0.625 0.65625 1.859375q0 1.21875 -0.65625 1.828125q-0.671875 0.609375 -1.65625 0.609375zm0 -9.375q-1.03125 0 -1.71875 -0.609375q-0.6875 -0.609375 -0.6875 -1.828125q0 -1.234375 0.6875 -1.8594055q0.6875 -0.640625 1.71875 -0.640625q0.984375 0 1.65625 0.640625q0.65625 0.6250305 0.65625 1.8594055q0 1.21875 -0.65625 1.828125q-0.671875 0.609375 -1.65625 0.609375zm0 -8.9219055q-1.03125 0 -1.71875 -0.609375q-0.6875 -0.609375 -0.6875 -1.828125q0 -1.234375 0.6875 -1.859375q0.6875 -0.640625 1.71875 -0.640625q0.984375 0 1.65625 0.640625q0.65625 0.625 0.65625 1.859375q0 1.21875 -0.65625 1.828125q-0.671875 0.609375 -1.65625 0.609375z" fill-rule="nonzero"/><path fill="#000000" fill-opacity="0.0" d="m25.060368 9.601049l238.55118 0l0 54.866142l-238.55118 0z" fill-rule="evenodd"/><path fill="#000000" d="m43.654118 45.574745l-10.265625 0l-1.953125 5.859375l-6.234375 0l10.578125 -28.437502l5.4375 0l10.640625 28.437502l-6.234375 0l-1.96875 -5.859375zm-8.6875 -4.75l7.109375 0l-3.578125 -10.640627l-3.53125 10.640627zm38.617184 -13.078127l-8.71875 0l0 23.687502l-5.859371 0l0 -23.687502l-8.59375 0l0 -4.75l23.171871 0l0 4.75zm29.238281 11.359377l-11.25 0l0 7.625l13.203125 0l0 4.703125l-19.0625 0l0 -28.437502l19.015625 0l0 4.75l-13.15625 0l0 6.765627l11.25 0l0 4.59375zm27.703125 2.859375q-0.328125 4.578125 -3.390625 7.21875q-3.046875 2.640625 -8.046875 2.640625q-5.46875 0 -8.609375 -3.671875q-3.125 -3.6875 -3.125 -10.125l0 -1.734375q0 -4.09375 1.4375 -7.218752q1.453125 -3.125 4.125 -4.796875q2.6875 -1.671875 6.25 -1.671875q4.921875 0 7.921875 2.640625q3.015625 2.625 3.484375 7.390627l-5.859375 0q-0.21875 -2.750002 -1.546875 -3.984377q-1.3125 -1.25 -4.0 -1.25q-2.9375 0 -4.390625 2.109375q-1.453125 2.09375 -1.484375 6.515627l0 2.140625q0 4.609375 1.390625 6.75q1.390625 2.125 4.40625 2.125q2.71875 0 4.046875 -1.234375q1.34375 -1.25 1.53125 -3.84375l5.859375 0zm26.171875 0q-0.328125 4.578125 -3.390625 7.21875q-3.046875 2.640625 -8.046875 2.640625q-5.46875 0 -8.609375 -3.671875q-3.125 -3.6875 -3.125 -10.125l0 -1.734375q0 -4.09375 1.4375 -7.218752q1.453125 -3.125 4.125 -4.796875q2.6875 -1.671875 6.25 -1.671875q4.921875 0 7.921875 2.640625q3.015625 2.625 3.484375 7.390627l-5.859375 0q-0.21875 -2.750002 -1.546875 -3.984377q-1.3125 -1.25 -4.0 -1.25q-2.9375 0 -4.390625 2.109375q-1.453125 2.09375 -1.484375 6.515627l0 2.140625q0 4.609375 1.390625 6.75q1.390625 2.125 4.40625 2.125q2.71875 0 4.046875 -1.234375q1.34375 -1.25 1.53125 -3.84375l5.859375 0zm28.523438 -19.265627l0 4.65625l-0.546875 0q-3.828125 0.046875 -6.171875 1.984375q-2.328125 1.9375 -2.796875 5.375002q2.265625 -2.3125 5.71875 -2.3125q3.71875 0 5.90625 2.65625q2.1875 2.65625 2.1875 7.0q0 2.765625 -1.203125 5.015625q-1.203125 2.25 -3.40625 3.5q-2.1875 1.25 -4.96875 1.25q-4.484375 0 -7.25 -3.125q-2.765625 -3.125 -2.765625 -8.34375l0 -2.03125q0 -4.625 1.75 -8.171877q1.75 -3.546875 5.015625 -5.484375q3.28125 -1.953125 7.59375 -1.96875l0.9375 0zm-5.515625 14.234377q-1.359375 0 -2.484375 0.71875q-1.109375 0.71875 -1.625 1.890625l0 1.71875q0 2.828125 1.109375 4.421875q1.109375 1.59375 3.125 1.59375q1.8125 0 2.9375 -1.4375q1.125 -1.4375 1.125 -3.71875q0 -2.328125 -1.140625 -3.75q-1.125 -1.4375 -3.046875 -1.4375zm32.29297 2.734375q0 5.90625 -2.453125 9.03125q-2.4375 3.125 -7.140625 3.125q-4.640625 0 -7.109375 -3.0625q-2.453125 -3.078125 -2.515625 -8.796875l0 -5.234375q0 -5.953127 2.46875 -9.031252q2.46875 -3.09375 7.109375 -3.09375q4.65625 0 7.109375 3.0625q2.46875 3.046875 2.53125 8.765627l0 5.234375zm-5.640625 -5.734375q0 -3.531252 -0.96875 -5.140627q-0.96875 -1.625 -3.015625 -1.625q-2.0 0 -2.953125 1.546875q-0.9375 1.53125 -1.0 4.781252l0 6.921875q0 3.46875 0.9375 5.171875q0.953125 1.6875 3.046875 1.6875q2.078125 0 2.984375 -1.625q0.921875 -1.625 0.96875 -4.96875l0 -6.75zm27.980469 -3.375002q0 2.062502 -1.03125 3.671877q-1.03125 1.59375 -2.859375 2.546875q2.078125 1.0 3.28125 2.75q1.21875 1.75 1.21875 4.109375q0 3.796875 -2.578125 6.0q-2.578125 2.1875 -7.015625 2.1875q-4.4375 0 -7.03125 -2.203125q-2.59375 -2.21875 -2.59375 -5.984375q0 -2.359375 1.203125 -4.109375q1.21875 -1.765625 3.265625 -2.75q-1.8125 -0.953125 -2.84375 -2.546875q-1.015625 -1.609375 -1.015625 -3.671877q0 -3.640625 2.421875 -5.796875q2.421875 -2.15625 6.578125 -2.15625q4.140625 0 6.5625 2.140625q2.4375 2.140625 2.4375 5.8125zm-5.0625 12.671877q0 -1.859375 -1.078125 -2.96875q-1.0625 -1.109375 -2.875 -1.109375q-1.796875 0 -2.875 1.109375q-1.078125 1.09375 -1.078125 2.96875q0 1.8125 1.046875 2.9375q1.0625 1.109375 2.9375 1.109375q1.84375 0 2.875 -1.078125q1.046875 -1.078125 1.046875 -2.96875zm-0.578125 -12.406252q0 -1.65625 -0.890625 -2.65625q-0.875 -1.015625 -2.46875 -1.015625q-1.578125 0 -2.46875 0.984375q-0.875 0.96875 -0.875 2.6875q0 1.7031269 0.875 2.734377q0.890625 1.03125 2.484375 1.03125q1.609375 0 2.46875 -1.03125q0.875 -1.03125 0.875 -2.734377z" fill-rule="nonzero"/><g filter="url(#shadowFilter-p.18)"><use xlink:href="#p.18" transform="matrix(1.0 0.0 0.0 1.0 0.0 2.0)"/></g><defs><filter id="shadowFilter-p.18" filterUnits="userSpaceOnUse"><feGaussianBlur in="SourceAlpha" stdDeviation="2.0" result="blur"/><feComponentTransfer in="blur" color-interpolation-filters="sRGB"><feFuncR type="linear" slope="0" intercept="0.0"/><feFuncG type="linear" slope="0" intercept="0.0"/><feFuncB type="linear" slope="0" intercept="0.0"/><feFuncA type="linear" slope="0.5" intercept="0"/></feComponentTransfer></filter></defs><g id="p.18"><path fill="#c9daf8" d="m78.002625 70.60597l148.66142 0l0 26.929138l-148.66142 0z" fill-rule="evenodd"/><path stroke="#666666" stroke-width="1.0" stroke-linejoin="round" stroke-linecap="butt" d="m78.002625 70.60597l148.66142 0l0 26.929138l-148.66142 0z" fill-rule="evenodd"/><path fill="#000000" d="m113.48704 86.787415q-0.25 2.09375 -1.5625 3.25q-1.296875 1.140625 -3.46875 1.140625q-2.34375 0 -3.765625 -1.6875q-1.421875 -1.6875 -1.421875 -4.515625l0 -1.265625q0 -1.859375 0.65625 -3.25q0.671875 -1.40625 1.875 -2.15625q1.21875 -0.765625 2.8125 -0.765625q2.109375 0 3.390625 1.1875q1.28125 1.171875 1.484375 3.265625l-1.765625 0q-0.21875 -1.578125 -0.984375 -2.28125q-0.765625 -0.71875 -2.125 -0.71875q-1.671875 0 -2.625 1.234375q-0.953125 1.234375 -0.953125 3.53125l0 1.28125q0 2.15625 0.890625 3.4375q0.90625 1.265625 2.53125 1.265625q1.453125 0 2.234375 -0.65625q0.78125 -0.65625 1.03125 -2.296875l1.765625 0zm1.6742096 -0.8125q0 -1.453125 0.5625 -2.609375q0.578125 -1.15625 1.59375 -1.78125q1.015625 -0.625 2.3125 -0.625q2.015625 0 3.25 1.390625q1.25 1.390625 1.25 3.703125l0 0.125q0 1.4375 -0.546875 2.578125q-0.546875 1.140625 -1.578125 1.78125q-1.015625 0.640625 -2.359375 0.640625q-2.0 0 -3.25 -1.390625q-1.234375 -1.40625 -1.234375 -3.703125l0 -0.109375zm1.6875 0.203125q0 1.640625 0.765625 2.640625q0.765625 0.984375 2.03125 0.984375q1.296875 0 2.046875 -1.0q0.75 -1.015625 0.75 -2.828125q0 -1.625 -0.765625 -2.625q-0.765625 -1.015625 -2.046875 -1.015625q-1.25 0 -2.015625 1.0q-0.765625 0.984375 -0.765625 2.84375zm10.999268 -5.046875l0.046875 1.234375q1.1250076 -1.40625 2.9531326 -1.40625q3.125 0 3.15625 3.515625l0 6.515625l-1.6875 0l0 -6.515625q-0.015625 -1.078125 -0.5 -1.578125q-0.46875 -0.515625 -1.484375 -0.515625q-0.8125 0 -1.4375 0.4375q-0.609375 0.4375 -0.9687576 1.15625l0 7.015625l-1.671875 0l0 -9.859375l1.59375 0zm9.262489 9.859375l0 -8.546875l-1.5625 0l0 -1.3125l1.5625 0l0 -0.828125q0 -1.65625 0.9375 -2.578125q0.9375 -0.921875 2.671875 -0.921875q1.015625 0 2.578125 0.5625l-0.28125 1.421875q-1.140625 -0.453125 -2.171875 -0.453125q-1.09375 0 -1.578125 0.484375q-0.46875 0.484375 -0.46875 1.453125l0 0.859375l2.015625 0l0 1.3125l-2.015625 0l0 8.546875l-1.6875 0zm7.015625 0l-1.6875 0l0 -9.859375l1.6875 0l0 9.859375zm2.3457947 -5.015625q0 -2.296875 1.0625 -3.65625q1.0625 -1.359375 2.828125 -1.359375q1.796875 0 2.8125 1.265625l0.078125 -1.09375l1.546875 0l0 9.625q0 1.90625 -1.140625 3.0q-1.125 1.109375 -3.046875 1.109375q-1.0625 0 -2.09375 -0.453125q-1.015625 -0.453125 -1.546875 -1.25l0.875 -1.0q1.078125 1.328125 2.65625 1.328125q1.21875 0 1.90625 -0.6875q0.6875 -0.6875 0.6875 -1.953125l0 -0.84375q-1.0 1.171875 -2.75 1.171875q-1.734375 0 -2.8125 -1.390625q-1.0625 -1.40625 -1.0625 -3.8125zm1.6875 0.203125q0 1.65625 0.6875 2.609375q0.6875 0.953125 1.921875 0.953125q1.59375 0 2.328125 -1.453125l0 -4.5q-0.765625 -1.40625 -2.3125 -1.40625q-1.234375 0 -1.9375 0.953125q-0.6875 0.953125 -0.6875 2.84375zm15.366577 3.375l7.59375 0l0 1.4375l-9.65625 0l0 -1.3125l7.265625 -10.515625l-7.140625 0l0 -1.4375l9.234375 0l0 1.28125l-7.296875 10.546875zm8.961212 -3.578125q0 -1.453125 0.5625 -2.609375q0.578125 -1.15625 1.59375 -1.78125q1.015625 -0.625 2.3125 -0.625q2.015625 0 3.25 1.390625q1.25 1.390625 1.25 3.703125l0 0.125q0 1.4375 -0.546875 2.578125q-0.546875 1.140625 -1.578125 1.78125q-1.015625 0.640625 -2.359375 0.640625q-2.0 0 -3.25 -1.390625q-1.234375 -1.40625 -1.234375 -3.703125l0 -0.109375zm1.6875 0.203125q0 1.640625 0.765625 2.640625q0.765625 0.984375 2.03125 0.984375q1.296875 0 2.046875 -1.0q0.75 -1.015625 0.75 -2.828125q0 -1.625 -0.765625 -2.625q-0.765625 -1.015625 -2.046875 -1.015625q-1.25 0 -2.015625 1.0q-0.765625 0.984375 -0.765625 2.84375zm10.999268 -5.046875l0.046875 1.234375q1.125 -1.40625 2.953125 -1.40625q3.125 0 3.15625 3.515625l0 6.515625l-1.6875 0l0 -6.515625q-0.015625 -1.078125 -0.5 -1.578125q-0.46875 -0.515625 -1.484375 -0.515625q-0.8125 0 -1.4375 0.4375q-0.609375 0.4375 -0.96875 1.15625l0 7.015625l-1.671875 0l0 -9.859375l1.59375 0zm12.778107 10.046875q-2.0 0 -3.265625 -1.3125q-1.25 -1.328125 -1.25 -3.53125l0 -0.3125q0 -1.46875 0.5625 -2.609375q0.5625 -1.15625 1.5625 -1.796875q1.015625 -0.65625 2.1875 -0.65625q1.921875 0 2.984375 1.265625q1.0625 1.265625 1.0625 3.625l0 0.6875l-6.671875 0q0.03125 1.46875 0.84375 2.375q0.828125 0.890625 2.078125 0.890625q0.890625 0 1.515625 -0.359375q0.625 -0.375 1.078125 -0.96875l1.03125 0.796875q-1.234375 1.90625 -3.71875 1.90625zm-0.203125 -8.84375q-1.015625 0 -1.71875 0.75q-0.6875 0.734375 -0.84375 2.078125l4.9375 0l0 -0.125q-0.078125 -1.28125 -0.703125 -1.984375q-0.609375 -0.71875 -1.671875 -0.71875z" fill-rule="nonzero"/></g></g></svg>