<svg version="1.1" viewBox="0.0 0.0 468.9685039370079 189.3044619422572" fill="none" stroke="none" stroke-linecap="square" stroke-miterlimit="10" xmlns:xlink="http://www.w3.org/1999/xlink" xmlns="http://www.w3.org/2000/svg"><clipPath id="p.0"><path d="m0 0l468.9685 0l0 189.30446l-468.9685 0l0 -189.30446z" clip-rule="nonzero"/></clipPath><g clip-path="url(#p.0)"><path fill="#000000" fill-opacity="0.0" d="m0 0l468.9685 0l0 189.30446l-468.9685 0z" fill-rule="evenodd"/><path fill="#f3f3f3" d="m0 0l469.85828 0l0 190.07874l-469.85828 0z" fill-rule="evenodd"/><path fill="#000000" fill-opacity="0.0" d="m37.746056 177.89833l6.8003845 0l0 -9.795334l5.9138985 0" fill-rule="evenodd"/><path stroke="#000000" stroke-width="1.0" stroke-linejoin="round" stroke-linecap="butt" d="m37.746056 177.89833l6.8003845 0l0 -9.795334l5.9138985 0" fill-rule="evenodd"/><path fill="#000000" fill-opacity="0.0" d="m57.195614 177.89833l-6.8003807 0l0 -9.795334l-5.9139023 0" fill-rule="evenodd"/><path stroke="#000000" stroke-width="1.0" stroke-linejoin="round" stroke-linecap="butt" d="m57.195614 177.89833l-6.8003807 0l0 -9.795334l-5.9139023 0" fill-rule="evenodd"/><path fill="#000000" fill-opacity="0.0" d="m50.32952 177.89833l6.8003807 0l0 -9.795334l5.9139023 0" fill-rule="evenodd"/><path stroke="#000000" stroke-width="1.0" stroke-linejoin="round" stroke-linecap="butt" d="m50.32952 177.89833l6.8003807 0l0 -9.795334l5.9139023 0" fill-rule="evenodd"/><path fill="#000000" fill-opacity="0.0" d="m69.779076 177.89833l-6.800377 0l0 -9.795334l-5.9139023 0" fill-rule="evenodd"/><path stroke="#000000" stroke-width="1.0" stroke-linejoin="round" stroke-linecap="butt" d="m69.779076 177.89833l-6.800377 0l0 -9.795334l-5.9139023 0" fill-rule="evenodd"/><path fill="#000000" fill-opacity="0.0" d="m62.84728 177.89833l6.8003807 0l0 -9.795334l5.9139023 0" fill-rule="evenodd"/><path stroke="#000000" stroke-width="1.0" stroke-linejoin="round" stroke-linecap="butt" d="m62.84728 177.89833l6.8003807 0l0 -9.795334l5.9139023 0" fill-rule="evenodd"/><path fill="#000000" fill-opacity="0.0" d="m82.29684 177.89833l-6.8003845 0l0 -9.795334l-5.9139023 0" fill-rule="evenodd"/><path stroke="#000000" stroke-width="1.0" stroke-linejoin="round" stroke-linecap="butt" d="m82.29684 177.89833l-6.8003845 0l0 -9.795334l-5.9139023 0" fill-rule="evenodd"/><path fill="#000000" fill-opacity="0.0" d="m75.43074 177.89833l6.8003845 0l0 -9.795334l5.9139023 0" fill-rule="evenodd"/><path stroke="#000000" stroke-width="1.0" stroke-linejoin="round" stroke-linecap="butt" d="m75.43074 177.89833l6.8003845 0l0 -9.795334l5.9139023 0" fill-rule="evenodd"/><path fill="#000000" fill-opacity="0.0" d="m94.880295 177.89833l-6.800377 0l0 -9.795334l-5.9139023 0" fill-rule="evenodd"/><path stroke="#000000" stroke-width="1.0" stroke-linejoin="round" stroke-linecap="butt" d="m94.880295 177.89833l-6.800377 0l0 -9.795334l-5.9139023 0" fill-rule="evenodd"/><path fill="#000000" fill-opacity="0.0" d="m339.98425 113.02887l61.448822 0.03149414" fill-rule="evenodd"/><path stroke="#000000" stroke-width="1.0" stroke-linejoin="round" stroke-linecap="butt" d="m339.98425 113.02887l55.448822 0.028419495" fill-rule="evenodd"/><path fill="#000000" stroke="#000000" stroke-width="1.0" stroke-linecap="butt" d="m395.43222 114.70902l4.5389404 -1.6494064l-4.5372314 -1.6540527z" fill-rule="evenodd"/><path fill="#000000" fill-opacity="0.0" d="m233.51706 65.09843l167.90552 0" fill-rule="evenodd"/><path stroke="#000000" stroke-width="1.0" stroke-linejoin="round" stroke-linecap="butt" d="m233.51706 65.09843l161.90552 0" fill-rule="evenodd"/><path fill="#000000" stroke="#000000" stroke-width="1.0" stroke-linecap="butt" d="m395.42258 66.75016l4.538086 -1.6517334l-4.538086 -1.6517334z" fill-rule="evenodd"/><path fill="#000000" fill-opacity="0.0" d="m4.3884516 181.63263l254.10709 0l0 -32.629913l27.845673 0" fill-rule="evenodd"/><path stroke="#000000" stroke-width="1.0" stroke-linejoin="round" stroke-linecap="butt" d="m4.3884516 181.63263l254.10709 0l0 -32.629913l21.845673 0" fill-rule="evenodd"/><path fill="#000000" stroke="#000000" stroke-width="1.0" stroke-linecap="butt" d="m280.34122 150.65445l4.538086 -1.6517334l-4.538086 -1.6517334z" fill-rule="evenodd"/><path fill="#000000" fill-opacity="0.0" d="m1.175853 181.63263l26.582676 0l0 -32.629913l26.582676 0" fill-rule="evenodd"/><path stroke="#000000" stroke-width="1.0" stroke-linejoin="round" stroke-linecap="butt" d="m1.175853 181.63263l26.582676 0l0 -32.629913l20.582676 0" fill-rule="evenodd"/><path fill="#000000" stroke="#000000" stroke-width="1.0" stroke-linecap="butt" d="m48.34121 150.65445l4.5380974 -1.6517334l-4.5380974 -1.6517334z" fill-rule="evenodd"/><path fill="#000000" fill-opacity="0.0" d="m400.18506 2.4453397l86.39368 0l0 35.559055l-86.39368 0z" fill-rule="evenodd"/><path fill="#000000" d="m409.98193 20.667213l0 0.140625q0 0.75 0.21875 1.40625q0.21875 0.65625 0.640625 1.140625q0.40625 0.46875 1.0 0.75q0.59375 0.265625 1.34375 0.265625q0.75 0 1.328125 -0.265625q0.59375 -0.28125 1.015625 -0.75q0.40625 -0.484375 0.625 -1.140625q0.234375 -0.65625 0.234375 -1.40625l0 -0.140625q0 -0.765625 -0.234375 -1.421875q-0.21875 -0.65625 -0.625 -1.140625q-0.421875 -0.484375 -1.015625 -0.75q-0.59375 -0.28125 -1.34375 -0.28125q-0.734375 0 -1.328125 0.28125q-0.59375 0.265625 -1.0 0.75q-0.421875 0.484375 -0.640625 1.140625q-0.21875 0.65625 -0.21875 1.421875zm1.203125 0.140625l0 -0.140625q0 -0.515625 0.125 -0.984375q0.125 -0.484375 0.375 -0.84375q0.25 -0.359375 0.609375 -0.5625q0.375 -0.21875 0.875 -0.21875q0.5 0 0.875 0.21875q0.375 0.203125 0.640625 0.5625q0.234375 0.359375 0.359375 0.84375q0.140625 0.46875 0.140625 0.984375l0 0.140625q0 0.515625 -0.125 0.984375q-0.125 0.46875 -0.375 0.828125q-0.25 0.359375 -0.625 0.578125q-0.375 0.203125 -0.875 0.203125q-0.5 0 -0.875 -0.203125q-0.375 -0.21875 -0.625 -0.578125q-0.25 -0.359375 -0.375 -0.828125q-0.125 -0.46875 -0.125 -0.984375zm12.966919 4.421875l0 -0.984375l-5.953125 0l0 0.984375l5.953125 0zm5.0763245 -5.421875l-1.859375 -2.609375l-1.40625 0l2.625 3.484375l-2.6875 3.5625l1.40625 0l1.9375 -2.6875l1.953125 2.6875l1.390625 0l-2.6875 -3.5625l2.609375 -3.484375l-1.40625 0l-1.875 2.609375z" fill-rule="nonzero"/><path fill="#000000" fill-opacity="0.0" d="m397.33728 47.24849l86.39371 0l0 35.55905l-86.39371 0z" fill-rule="evenodd"/><path fill="#000000" d="m407.13416 65.47036l0 0.140625q0 0.75 0.21875 1.40625q0.21875 0.65625 0.640625 1.140625q0.40625 0.46875 1.0 0.75q0.59375 0.265625 1.34375 0.265625q0.75 0 1.328125 -0.265625q0.59375 -0.28125 1.015625 -0.75q0.40625 -0.484375 0.625 -1.140625q0.234375 -0.65625 0.234375 -1.40625l0 -0.140625q0 -0.765625 -0.234375 -1.421875q-0.21875 -0.6562462 -0.625 -1.1406212q-0.421875 -0.484375 -1.015625 -0.75q-0.59375 -0.28125 -1.34375 -0.28125q-0.734375 0 -1.328125 0.28125q-0.59375 0.265625 -1.0 0.75q-0.421875 0.484375 -0.640625 1.1406212q-0.21875 0.65625 -0.21875 1.421875zm1.203125 0.140625l0 -0.140625q0 -0.515625 0.125 -0.984375q0.125 -0.484375 0.375 -0.8437462q0.25 -0.359375 0.609375 -0.5625q0.375 -0.21875 0.875 -0.21875q0.5 0 0.875 0.21875q0.375 0.203125 0.640625 0.5625q0.234375 0.3593712 0.359375 0.8437462q0.140625 0.46875 0.140625 0.984375l0 0.140625q0 0.515625 -0.125 0.984375q-0.125 0.46875 -0.375 0.828125q-0.25 0.359375 -0.625 0.578125q-0.375 0.203125 -0.875 0.203125q-0.5 0 -0.875 -0.203125q-0.375 -0.21875 -0.625 -0.578125q-0.25 -0.359375 -0.375 -0.828125q-0.125 -0.46875 -0.125 -0.984375zm12.966919 4.421875l0 -0.984375l-5.953125 0l0 0.984375l5.953125 0zm3.3731995 -6.984371l0 -4.0l-1.21875 0l0 9.999996l1.21875 0l0 -5.109371q0.125 -0.21875 0.28125 -0.390625q0.171875 -0.171875 0.375 -0.296875q0.234375 -0.171875 0.53125 -0.265625q0.296875 -0.09375 0.625 -0.09375q0.390625 0 0.6875 0.125q0.3125 0.109375 0.515625 0.328125q0.1875 0.203125 0.28125 0.53125q0.109375 0.3124962 0.109375 0.7343712l0 4.4375l1.203125 0l0 -4.4375q0 -0.7031212 -0.171875 -1.2187462q-0.171875 -0.515625 -0.5 -0.859375q-0.3125 -0.34375 -0.765625 -0.5q-0.453125 -0.15625 -1.0 -0.15625q-0.421875 0 -0.796875 0.125q-0.375 0.109375 -0.6875 0.34375q-0.203125 0.140625 -0.375 0.328125q-0.171875 0.171875 -0.3125 0.375zm6.560669 2.4218712l0 0.140625q0 0.75 0.203125 1.40625q0.203125 0.65625 0.5625 1.140625q0.359375 0.46875 0.875 0.75q0.53125 0.265625 1.15625 0.265625q0.65625 0 1.140625 -0.21875q0.5 -0.21875 0.84375 -0.640625l0.046875 0.734375l1.109375 0l0 -9.999996l-1.203125 0l0 3.65625q-0.34375 -0.40625 -0.8125 -0.609375q-0.46875 -0.21875 -1.109375 -0.21875q-0.640625 0 -1.171875 0.265625q-0.515625 0.265625 -0.875 0.75q-0.375 0.46875 -0.578125 1.1406212q-0.1875 0.65625 -0.1875 1.4375zm1.203125 0.140625l0 -0.140625q0 -0.515625 0.109375 -0.984375q0.109375 -0.46875 0.34375 -0.8124962q0.234375 -0.359375 0.59375 -0.5625q0.359375 -0.21875 0.859375 -0.21875q0.59375 0 0.984375 0.28125q0.40625 0.28125 0.640625 0.703125l0 3.2656212q-0.234375 0.46875 -0.640625 0.75q-0.390625 0.265625 -0.984375 0.265625q-0.515625 0 -0.875 -0.203125q-0.34375 -0.203125 -0.578125 -0.5625q-0.234375 -0.34375 -0.34375 -0.796875q-0.109375 -0.46875 -0.109375 -0.984375zm10.138824 3.5625q1.015625 0 1.71875 -0.40625q0.703125 -0.421875 1.046875 -0.953125l-0.734375 -0.5625q-0.328125 0.421875 -0.828125 0.6875q-0.5 0.25 -1.140625 0.25q-0.5 0 -0.90625 -0.171875q-0.390625 -0.1875 -0.671875 -0.5q-0.28125 -0.296875 -0.453125 -0.6875q-0.15625 -0.390625 -0.203125 -0.90625l0 -0.046875l5.03125 0l0 -0.546875q0 -0.734375 -0.1875 -1.3593712q-0.1875 -0.640625 -0.5625 -1.109375q-0.375 -0.453125 -0.953125 -0.71875q-0.5625 -0.265625 -1.3125 -0.265625q-0.609375 0 -1.1875 0.25q-0.578125 0.25 -1.03125 0.703125q-0.453125 0.46875 -0.734375 1.140625q-0.265625 0.6718712 -0.265625 1.5312462l0 0.265625q0 0.75 0.25 1.375q0.25 0.625 0.6875 1.078125q0.453125 0.453125 1.0625 0.703125q0.625 0.25 1.375 0.25zm-0.15625 -6.312496q0.453125 0 0.78125 0.171875q0.34375 0.171875 0.5625 0.4375q0.21875 0.28125 0.34375 0.6562462q0.125 0.375 0.125 0.703125l0 0.046875l-3.78125 0q0.0625 -0.484375 0.234375 -0.859375q0.1875 -0.3749962 0.453125 -0.6249962q0.265625 -0.265625 0.578125 -0.390625q0.328125 -0.140625 0.703125 -0.140625z" fill-rule="nonzero"/><path fill="#000000" fill-opacity="0.0" d="m401.42242 92.05249l95.24408 0l0 42.015747l-95.24408 0z" fill-rule="evenodd"/><path fill="#000000" d="m411.2193 110.27437l0 0.140625q0 0.75 0.21875 1.40625q0.21875 0.65625 0.640625 1.140625q0.40625 0.46875 1.0 0.75q0.59375 0.265625 1.34375 0.265625q0.75 0 1.328125 -0.265625q0.59375 -0.28125 1.015625 -0.75q0.40625 -0.484375 0.625 -1.140625q0.234375 -0.65625 0.234375 -1.40625l0 -0.140625q0 -0.765625 -0.234375 -1.421875q-0.21875 -0.65625 -0.625 -1.140625q-0.421875 -0.484375 -1.015625 -0.75q-0.59375 -0.28125 -1.34375 -0.28125q-0.734375 0 -1.328125 0.28125q-0.59375 0.265625 -1.0 0.75q-0.421875 0.484375 -0.640625 1.140625q-0.21875 0.65625 -0.21875 1.421875zm1.203125 0.140625l0 -0.140625q0 -0.515625 0.125 -0.984375q0.125 -0.484375 0.375 -0.84375q0.25 -0.359375 0.609375 -0.5625q0.375 -0.21875 0.875 -0.21875q0.5 0 0.875 0.21875q0.375 0.203125 0.640625 0.5625q0.234375 0.359375 0.359375 0.84375q0.140625 0.46875 0.140625 0.984375l0 0.140625q0 0.515625 -0.125 0.984375q-0.125 0.46875 -0.375 0.828125q-0.25 0.359375 -0.625 0.578125q-0.375 0.203125 -0.875 0.203125q-0.5 0 -0.875 -0.203125q-0.375 -0.21875 -0.625 -0.578125q-0.25 -0.359375 -0.375 -0.828125q-0.125 -0.46875 -0.125 -0.984375zm12.966919 4.421875l0 -0.984375l-5.953125 0l0 0.984375l5.953125 0zm3.3731995 -6.984375l0 -4.0l-1.21875 0l0 10.0l1.21875 0l0 -5.109375q0.125 -0.21875 0.28125 -0.390625q0.171875 -0.171875 0.375 -0.296875q0.234375 -0.171875 0.53125 -0.265625q0.296875 -0.09375 0.625 -0.09375q0.390625 0 0.6875 0.125q0.3125 0.109375 0.515625 0.328125q0.1875 0.203125 0.28125 0.53125q0.109375 0.3125 0.109375 0.734375l0 4.4375l1.203125 0l0 -4.4375q0 -0.703125 -0.171875 -1.21875q-0.171875 -0.515625 -0.5 -0.859375q-0.3125 -0.34375 -0.765625 -0.5q-0.453125 -0.15625 -1.0 -0.15625q-0.421875 0 -0.796875 0.125q-0.375 0.109375 -0.6875 0.34375q-0.203125 0.140625 -0.375 0.328125q-0.171875 0.171875 -0.3125 0.375zm11.466919 4.125q0 0.171875 -0.0625 0.328125q-0.0625 0.140625 -0.1875 0.265625q-0.203125 0.203125 -0.5625 0.328125q-0.359375 0.109375 -0.84375 0.109375q-0.296875 0 -0.609375 -0.0625q-0.3125 -0.0625 -0.578125 -0.21875q-0.25 -0.15625 -0.421875 -0.40625q-0.171875 -0.265625 -0.203125 -0.640625l-1.203125 0q0 0.453125 0.203125 0.875q0.203125 0.40625 0.59375 0.71875q0.390625 0.328125 0.9375 0.515625q0.5625 0.1875 1.28125 0.1875q0.625 0 1.15625 -0.140625q0.53125 -0.15625 0.90625 -0.421875q0.375 -0.28125 0.578125 -0.65625q0.21875 -0.390625 0.21875 -0.859375q0 -0.4375 -0.1875 -0.765625q-0.1875 -0.328125 -0.53125 -0.59375q-0.359375 -0.234375 -0.875 -0.40625q-0.515625 -0.1875 -1.15625 -0.328125q-0.5 -0.09375 -0.828125 -0.203125q-0.3125 -0.109375 -0.5 -0.234375q-0.203125 -0.125 -0.28125 -0.28125q-0.078125 -0.171875 -0.078125 -0.375q0 -0.203125 0.09375 -0.390625q0.109375 -0.203125 0.296875 -0.34375q0.1875 -0.140625 0.46875 -0.21875q0.296875 -0.09375 0.6875 -0.09375q0.375 0 0.671875 0.109375q0.296875 0.109375 0.5 0.265625q0.203125 0.171875 0.3125 0.390625q0.125 0.21875 0.125 0.453125l1.203125 0q0 -0.46875 -0.203125 -0.859375q-0.1875 -0.40625 -0.546875 -0.703125q-0.375 -0.296875 -0.890625 -0.46875q-0.515625 -0.171875 -1.171875 -0.171875q-0.609375 0 -1.109375 0.171875q-0.5 0.15625 -0.875 0.4375q-0.359375 0.28125 -0.5625 0.65625q-0.203125 0.375 -0.203125 0.796875q0 0.4375 0.1875 0.765625q0.203125 0.328125 0.5625 0.5625q0.359375 0.25 0.84375 0.4375q0.5 0.171875 1.109375 0.296875q0.5 0.09375 0.828125 0.21875q0.328125 0.109375 0.53125 0.25q0.203125 0.15625 0.28125 0.328125q0.09375 0.171875 0.09375 0.375zm3.8888245 4.71875q0.46875 0 0.828125 -0.171875q0.375 -0.171875 0.640625 -0.4375q0.28125 -0.265625 0.46875 -0.578125q0.1875 -0.296875 0.3125 -0.5625l3.578125 -8.140625l-1.34375 0l-1.828125 4.578125l-0.328125 0.828125l-0.3125 -0.859375l-1.921875 -4.546875l-1.359375 0l3.03125 6.71875l-0.46875 0.9375q-0.078125 0.125 -0.1875 0.328125q-0.109375 0.203125 -0.265625 0.390625q-0.171875 0.1875 -0.375 0.328125q-0.203125 0.140625 -0.453125 0.140625q-0.078125 0 -0.25 -0.015625q-0.15625 -0.015625 -0.3125 -0.03125l-0.203125 0.984375q0.125 0.03125 0.34375 0.0625q0.234375 0.046875 0.40625 0.046875zm7.420044 -2.84375l1.21875 0l0 -5.046875q0.109375 -0.234375 0.28125 -0.421875q0.171875 -0.1875 0.359375 -0.328125q0.25 -0.171875 0.53125 -0.265625q0.28125 -0.09375 0.609375 -0.09375q0.390625 0 0.6875 0.09375q0.296875 0.09375 0.5 0.296875q0.203125 0.203125 0.3125 0.53125q0.109375 0.328125 0.109375 0.796875l0 4.4375l1.203125 0l0 -4.46875q0 -0.703125 -0.171875 -1.21875q-0.171875 -0.515625 -0.5 -0.84375q-0.3125 -0.328125 -0.765625 -0.484375q-0.453125 -0.15625 -1.015625 -0.15625q-0.40625 0 -0.78125 0.125q-0.359375 0.109375 -0.671875 0.3125q-0.203125 0.140625 -0.390625 0.328125q-0.1875 0.1875 -0.34375 0.40625l-0.078125 -1.046875l-1.09375 0l0 7.046875zm10.998199 -0.84375q-0.5625 0 -0.9375 -0.21875q-0.375 -0.234375 -0.609375 -0.59375q-0.234375 -0.359375 -0.34375 -0.8125q-0.09375 -0.453125 -0.09375 -0.921875l0 -0.265625q0 -0.453125 0.09375 -0.90625q0.109375 -0.453125 0.34375 -0.8125q0.234375 -0.359375 0.609375 -0.578125q0.390625 -0.234375 0.9375 -0.234375q0.375 0 0.6875 0.125q0.3125 0.125 0.546875 0.34375q0.21875 0.21875 0.34375 0.5q0.140625 0.28125 0.15625 0.59375l1.140625 0q0 -0.53125 -0.21875 -1.0q-0.21875 -0.46875 -0.59375 -0.8125q-0.375 -0.34375 -0.90625 -0.53125q-0.53125 -0.203125 -1.15625 -0.203125q-0.796875 0 -1.390625 0.296875q-0.59375 0.28125 -1.0 0.75q-0.40625 0.5 -0.609375 1.140625q-0.1875 0.625 -0.1875 1.328125l0 0.265625q0 0.703125 0.1875 1.34375q0.203125 0.640625 0.609375 1.109375q0.40625 0.5 1.0 0.78125q0.59375 0.28125 1.390625 0.28125q0.5625 0 1.078125 -0.1875q0.515625 -0.1875 0.921875 -0.515625q0.390625 -0.3125 0.625 -0.734375q0.234375 -0.4375 0.25 -0.90625l-1.140625 0q-0.015625 0.296875 -0.15625 0.546875q-0.140625 0.25 -0.390625 0.421875q-0.234375 0.203125 -0.546875 0.3125q-0.3125 0.09375 -0.640625 0.09375z" fill-rule="nonzero"/><path fill="#ffffff" d="m60.95013 43.682415l0 0c0 -11.106579 9.053013 -20.110237 20.22047 -20.110237l0 0c5.362808 0 10.505959 2.1187515 14.298035 5.890152c3.792076 3.7714005 5.9224396 8.88652 5.9224396 14.220085l0 0c0 11.106575 -9.053017 20.110237 -20.220474 20.110237l0 0c-11.167458 0 -20.22047 -9.003662 -20.22047 -20.110237z" fill-rule="evenodd"/><path stroke="#000000" stroke-width="2.0" stroke-linejoin="round" stroke-linecap="butt" d="m60.95013 43.682415l0 0c0 -11.106579 9.053013 -20.110237 20.22047 -20.110237l0 0c5.362808 0 10.505959 2.1187515 14.298035 5.890152c3.792076 3.7714005 5.9224396 8.88652 5.9224396 14.220085l0 0c0 11.106575 -9.053017 20.110237 -20.220474 20.110237l0 0c-11.167458 0 -20.22047 -9.003662 -20.22047 -20.110237z" fill-rule="evenodd"/><path fill="#000000" fill-opacity="0.0" d="m107.98425 113.02887l25.000015 0l0 -69.354324l-31.582695 0" fill-rule="evenodd"/><path stroke="#000000" stroke-width="1.0" stroke-linejoin="round" stroke-linecap="butt" d="m107.98425 113.02887l25.000015 0l0 -69.354324l-25.582695 0" fill-rule="evenodd"/><path fill="#000000" stroke="#000000" stroke-width="1.0" stroke-linecap="butt" d="m107.40157 42.022808l-4.5380936 1.6517334l4.5380936 1.6517334z" fill-rule="evenodd"/><path fill="#000000" fill-opacity="0.0" d="m60.95013 43.682415l-30.868793 0l0 69.354324l25.010525 0" fill-rule="evenodd"/><path stroke="#000000" stroke-width="1.0" stroke-linejoin="round" stroke-linecap="butt" d="m60.95013 43.682415l-30.868793 0l0 69.354324l19.010525 0" fill-rule="evenodd"/><path fill="#000000" stroke="#000000" stroke-width="1.0" stroke-linecap="butt" d="m49.091866 114.68848l4.5380974 -1.6517334l-4.5380974 -1.6517334z" fill-rule="evenodd"/><path fill="#000000" fill-opacity="0.0" d="m194.46901 -8.632975l60.40944 0l0 35.559055l-60.40944 0z" fill-rule="evenodd"/><path fill="#000000" d="m204.37526 15.823275l0 -12.203125l2.578125 0l0 0.96875024l-1.40625 0l0 10.25l1.40625 0l0 0.984375l-2.578125 0zm5.1561127 -7.8281245q-0.734375 -0.265625 -1.09375 -0.765625q-0.34375 -0.5 -0.34375 -1.1875q0 -1.03125 0.75 -1.734375q0.75 -0.71875024 1.984375 -0.71875024q1.25 0 2.015625 0.73437524q0.765625 0.71875 0.765625 1.75q0 0.671875 -0.359375 1.171875q-0.34375 0.484375 -1.046875 0.75q0.875 0.28124952 1.328125 0.9218745q0.46875 0.640625 0.46875 1.515625q0 1.234375 -0.875 2.0625q-0.859375 0.828125 -2.265625 0.828125q-1.421875 0 -2.28125 -0.828125q-0.859375 -0.84375 -0.859375 -2.09375q0 -0.921875 0.46875 -1.546875q0.46875 -0.640625 1.34375 -0.8593745zm-0.234375 -1.984375q0 0.671875 0.4375 1.109375q0.4375 0.421875 1.125 0.421875q0.671875 0 1.109375 -0.421875q0.4375 -0.421875 0.4375 -1.046875q0 -0.640625 -0.453125 -1.078125q-0.4375 -0.4375 -1.109375 -0.4375q-0.671875 0 -1.109375 0.4375q-0.4375 0.421875 -0.4375 1.015625zm-0.375 4.4062495q0 0.5 0.234375 0.96875q0.234375 0.46875 0.703125 0.734375q0.46875 0.25 1.015625 0.25q0.828125 0 1.375 -0.53125q0.546875 -0.546875 0.546875 -1.390625q0 -0.84375 -0.5625 -1.390625q-0.5625 -0.5625 -1.40625 -0.5625q-0.828125 0 -1.375 0.546875q-0.53125 0.546875 -0.53125 1.375zm6.8656006 -2.8281245l0 -1.328125l1.328125 0l0 1.328125l-1.328125 0zm0 5.5781245l0 -1.328125l1.328125 0l0 1.328125l-1.328125 0zm3.0467377 -4.703125q0 -1.6874995 0.34375 -2.7187495q0.359375 -1.03125 1.046875 -1.59375q0.6875 -0.56250024 1.71875 -0.56250024q0.78125 0 1.359375 0.3125q0.578125 0.29687524 0.953125 0.89062524q0.375 0.578125 0.59375 1.421875q0.21875 0.828125 0.21875 2.2499995q0 1.671875 -0.359375 2.703125q-0.34375 1.03125 -1.03125 1.59375q-0.671875 0.5625 -1.734375 0.5625q-1.375 0 -2.15625 -0.984375q-0.953125 -1.1875 -0.953125 -3.875zm1.203125 0q0 2.34375 0.546875 3.125q0.5625 0.78125 1.359375 0.78125q0.8125 0 1.359375 -0.78125q0.5625 -0.78125 0.5625 -3.125q0 -2.3593745 -0.5625 -3.1249995q-0.546875 -0.78125 -1.359375 -0.78125q-0.8125 0 -1.296875 0.6875q-0.609375 0.875 -0.609375 3.2187495zm8.506226 7.359375l-2.59375 0l0 -0.984375l1.421875 0l0 -10.25l-1.421875 0l0 -0.96875024l2.59375 0l0 12.203125z" fill-rule="nonzero"/><path fill="#ffffff" d="m54.341206 101.29921l53.6378 0l0 59.181107l-53.6378 0z" fill-rule="evenodd"/><path stroke="#000000" stroke-width="2.0" stroke-linejoin="round" stroke-linecap="butt" d="m54.341206 101.29921l53.6378 0l0 59.181107l-53.6378 0z" fill-rule="evenodd"/><path fill="#000000" d="m66.84174 132.55414q-0.34375 0 -0.578125 -0.125q-0.21875 -0.140625 -0.359375 -0.359375q-0.140625 -0.21875 -0.203125 -0.484375q-0.0625 -0.265625 -0.0625 -0.546875l0 -0.171875q0 -0.265625 0.0625 -0.53125q0.0625 -0.28125 0.203125 -0.5q0.140625 -0.203125 0.359375 -0.34375q0.234375 -0.140625 0.578125 -0.140625q0.21875 0 0.40625 0.078125q0.1875 0.078125 0.328125 0.203125q0.140625 0.125 0.21875 0.296875q0.078125 0.171875 0.078125 0.359375l0.6875 0q0 -0.3125 -0.140625 -0.59375q-0.125 -0.28125 -0.34375 -0.484375q-0.234375 -0.203125 -0.546875 -0.328125q-0.3125 -0.125 -0.6875 -0.125q-0.484375 0 -0.84375 0.171875q-0.359375 0.171875 -0.59375 0.46875q-0.25 0.296875 -0.375 0.6875q-0.109375 0.375 -0.109375 0.78125l0 0.171875q0 0.421875 0.109375 0.8125q0.125 0.375 0.375 0.65625q0.234375 0.296875 0.59375 0.46875q0.359375 0.171875 0.84375 0.171875q0.328125 0 0.640625 -0.109375q0.3125 -0.125 0.546875 -0.3125q0.234375 -0.203125 0.375 -0.453125q0.15625 -0.25 0.15625 -0.53125l-0.6875 0q0 0.171875 -0.09375 0.328125q-0.078125 0.140625 -0.234375 0.25q-0.140625 0.109375 -0.328125 0.171875q-0.1875 0.0625 -0.375 0.0625zm2.8007812 -1.640625l0 0.09375q0 0.453125 0.125 0.84375q0.140625 0.390625 0.390625 0.671875q0.234375 0.296875 0.59375 0.46875q0.359375 0.15625 0.8125 0.15625q0.4375 0 0.796875 -0.15625q0.359375 -0.171875 0.609375 -0.46875q0.25 -0.28125 0.375 -0.671875q0.140625 -0.390625 0.140625 -0.84375l0 -0.09375q0 -0.453125 -0.140625 -0.84375q-0.125 -0.390625 -0.375 -0.6875q-0.25 -0.28125 -0.609375 -0.453125q-0.359375 -0.171875 -0.8125 -0.171875q-0.4375 0 -0.796875 0.171875q-0.359375 0.171875 -0.59375 0.453125q-0.25 0.296875 -0.390625 0.6875q-0.125 0.390625 -0.125 0.84375zm0.71875 0.09375l0 -0.09375q0 -0.3125 0.0625 -0.59375q0.078125 -0.28125 0.234375 -0.5q0.15625 -0.203125 0.375 -0.328125q0.21875 -0.140625 0.515625 -0.140625q0.3125 0 0.53125 0.140625q0.21875 0.125 0.375 0.328125q0.15625 0.21875 0.21875 0.5q0.078125 0.28125 0.078125 0.59375l0 0.09375q0 0.3125 -0.078125 0.59375q-0.0625 0.28125 -0.21875 0.5q-0.140625 0.203125 -0.375 0.328125q-0.21875 0.125 -0.515625 0.125q-0.296875 0 -0.53125 -0.125q-0.21875 -0.125 -0.375 -0.328125q-0.15625 -0.21875 -0.234375 -0.5q-0.0625 -0.28125 -0.0625 -0.59375zm7.0664062 2.0625l0.65625 0l0 -4.234375l-0.734375 0l0 3.03125q-0.046875 0.140625 -0.140625 0.265625q-0.09375 0.109375 -0.203125 0.1875q-0.140625 0.109375 -0.34375 0.171875q-0.1875 0.046875 -0.421875 0.046875q-0.203125 0 -0.375 -0.046875q-0.15625 -0.0625 -0.265625 -0.203125q-0.109375 -0.125 -0.171875 -0.34375q-0.046875 -0.234375 -0.046875 -0.578125l0 -2.53125l-0.71875 0l0 2.515625q0 0.46875 0.09375 0.8125q0.109375 0.34375 0.3125 0.5625q0.1875 0.21875 0.453125 0.328125q0.265625 0.09375 0.609375 0.09375q0.40625 0 0.71875 -0.171875q0.328125 -0.171875 0.53125 -0.484375l0.046875 0.578125zm2.0195312 0l0.71875 0l0 -3.03125q0.078125 -0.140625 0.171875 -0.25q0.09375 -0.109375 0.21875 -0.203125q0.140625 -0.09375 0.3125 -0.140625q0.171875 -0.0625 0.375 -0.0625q0.234375 0 0.40625 0.0625q0.171875 0.046875 0.296875 0.15625q0.125 0.125 0.1875 0.328125q0.0625 0.1875 0.0625 0.46875l0 2.671875l0.71875 0l0 -2.6875q0 -0.421875 -0.109375 -0.71875q-0.09375 -0.3125 -0.28125 -0.515625q-0.1875 -0.203125 -0.46875 -0.296875q-0.265625 -0.09375 -0.59375 -0.09375q-0.25 0.015625 -0.46875 0.078125q-0.21875 0.0625 -0.40625 0.1875q-0.125 0.09375 -0.25 0.203125q-0.109375 0.109375 -0.203125 0.234375l-0.046875 -0.625l-0.640625 0l0 4.234375zm6.5039062 -5.25l-0.71875 0l0 1.015625l-1.109375 0l0 0.5625l1.109375 0l0 2.296875q0 0.390625 0.09375 0.671875q0.109375 0.265625 0.28125 0.4375q0.1875 0.1875 0.421875 0.265625q0.25 0.078125 0.53125 0.078125q0.171875 0 0.34375 -0.015625q0.171875 -0.015625 0.3125 -0.046875q0.15625 -0.03125 0.28125 -0.0625q0.140625 -0.046875 0.21875 -0.109375l-0.09375 -0.5q-0.0625 0.015625 -0.171875 0.03125q-0.109375 0.015625 -0.21875 0.046875q-0.125 0.015625 -0.25 0.03125q-0.125 0.015625 -0.234375 0.015625q-0.171875 0 -0.3125 -0.03125q-0.140625 -0.046875 -0.25 -0.15625q-0.109375 -0.09375 -0.171875 -0.25q-0.0625 -0.15625 -0.0625 -0.40625l0 -2.296875l1.609375 0l0 -0.5625l-1.609375 0l0 -1.015625zm4.9570312 5.328125q0.625 0 1.03125 -0.25q0.421875 -0.25 0.640625 -0.5625l-0.4375 -0.34375q-0.203125 0.25 -0.515625 0.40625q-0.296875 0.15625 -0.671875 0.15625q-0.296875 0 -0.546875 -0.109375q-0.234375 -0.109375 -0.40625 -0.296875q-0.171875 -0.1875 -0.265625 -0.421875q-0.09375 -0.234375 -0.125 -0.53125l0 -0.03125l3.015625 0l0 -0.328125q0 -0.4375 -0.109375 -0.8125q-0.109375 -0.390625 -0.328125 -0.671875q-0.234375 -0.265625 -0.578125 -0.421875q-0.34375 -0.171875 -0.796875 -0.171875q-0.359375 0 -0.703125 0.15625q-0.34375 0.140625 -0.625 0.421875q-0.265625 0.28125 -0.4375 0.6875q-0.15625 0.40625 -0.15625 0.921875l0 0.15625q0 0.4375 0.140625 0.8125q0.15625 0.375 0.421875 0.65625q0.265625 0.265625 0.640625 0.421875q0.375 0.15625 0.8125 0.15625zm-0.09375 -3.796875q0.28125 0 0.484375 0.109375q0.203125 0.09375 0.328125 0.265625q0.140625 0.15625 0.203125 0.390625q0.078125 0.21875 0.078125 0.421875l0 0.03125l-2.265625 0q0.03125 -0.296875 0.140625 -0.515625q0.109375 -0.234375 0.265625 -0.390625q0.15625 -0.140625 0.34375 -0.21875q0.203125 -0.09375 0.421875 -0.09375zm5.8007812 -0.59375q-0.46875 0 -0.828125 0.203125q-0.359375 0.203125 -0.609375 0.546875l-0.015625 -0.09375l-0.03125 -0.578125l-0.6875 0l0 4.234375l0.734375 0l0 -2.71875q0.0625 -0.1875 0.171875 -0.34375q0.109375 -0.15625 0.25 -0.265625q0.171875 -0.125 0.375 -0.1875q0.21875 -0.078125 0.484375 -0.078125q0.203125 0 0.390625 0.03125q0.203125 0.015625 0.40625 0.0625l0.09375 -0.703125q-0.109375 -0.046875 -0.328125 -0.078125q-0.203125 -0.03125 -0.40625 -0.03125z" fill-rule="nonzero"/><path fill="#ffffff" d="m54.341206 141.16019l10.99213 7.8425293l-10.99213 7.842514z" fill-rule="evenodd"/><path stroke="#000000" stroke-width="1.0" stroke-linejoin="round" stroke-linecap="butt" d="m54.341206 141.16019l10.99213 7.8425293l-10.99213 7.842514z" fill-rule="evenodd"/><path fill="#000000" fill-opacity="0.0" d="m44.498688 104.272964l33.385826 0l0 17.51181l-33.385826 0z" fill-rule="evenodd"/><path fill="#000000" d="m58.497265 117.34887l1.984375 0q0.609375 0 1.140625 -0.140625q0.53125 -0.140625 0.953125 -0.40625q0.390625 -0.25 0.71875 -0.609375q0.328125 -0.359375 0.53125 -0.796875q0.20312119 -0.421875 0.3124962 -0.921875q0.109375 -0.515625 0.109375 -1.078125l0 -0.625q0 -0.578125 -0.125 -1.09375q-0.109375 -0.515625 -0.3281212 -0.953125q-0.234375 -0.515625 -0.640625 -0.90625q-0.40625 -0.390625 -0.921875 -0.625q-0.375 -0.171875 -0.828125 -0.265625q-0.4375 -0.109375 -0.921875 -0.109375l-1.984375 0l0 8.53125zm1.109375 -7.640625l0.875 0q0.390625 0 0.734375 0.09375q0.34375 0.078125 0.625 0.234375q0.375 0.203125 0.640625 0.53125q0.265625 0.328125 0.4375 0.75q0.109375 0.3125 0.171875 0.6875q0.0625 0.359375 0.078125 0.75l0 0.640625q-0.015625 0.390625 -0.078125 0.75q-0.046875 0.359375 -0.171875 0.671875q-0.125 0.390625 -0.359375 0.703125q-0.234375 0.296875 -0.546875 0.515625q-0.296875 0.203125 -0.6875 0.3125q-0.375 0.109375 -0.84375 0.109375l-0.875 0l0 -6.75z" fill-rule="nonzero"/><path fill="#000000" fill-opacity="0.0" d="m55.081364 107.06036l12.22047 0l0 11.937012l-12.22047 0z" fill-rule="evenodd"/><path fill="#000000" fill-opacity="0.0" d="m83.56956 103.86089l33.385826 0l0 17.51181l-33.385826 0z" fill-rule="evenodd"/><path fill="#000000" d="m103.302505 113.04617l0 -0.75q0 -0.46875 -0.078125 -0.953125q-0.078125 -0.484375 -0.234375 -0.921875q-0.15625 -0.453125 -0.40625 -0.828125q-0.234375 -0.390625 -0.5625 -0.6875q-0.34375 -0.28125 -0.78125 -0.453125q-0.4375 -0.171875 -0.984375 -0.171875q-0.546875 0 -0.984375 0.171875q-0.421875 0.171875 -0.765625 0.453125q-0.34375 0.296875 -0.578125 0.6875q-0.234375 0.390625 -0.390625 0.828125q-0.171875 0.453125 -0.25 0.9375q-0.0625 0.46875 -0.078125 0.9375l0 0.75q0.015625 0.46875 0.078125 0.953125q0.078125 0.46875 0.25 0.921875q0.15625 0.4375 0.390625 0.828125q0.25 0.390625 0.59375 0.6875q0.328125 0.28125 0.765625 0.453125q0.4375 0.171875 0.984375 0.171875q0.203125 0 0.390625 -0.03125q0.203125 -0.03125 0.390625 -0.078125l1.6875 1.421875l0.75 -0.703125l-1.484375 -1.234375q0.34375 -0.28125 0.578125 -0.671875q0.25 -0.390625 0.40625 -0.828125q0.15625 -0.453125 0.234375 -0.921875q0.078125 -0.484375 0.078125 -0.96875zm-1.078125 -0.75l0 0.75q0 0.328125 -0.03125 0.6875q-0.03125 0.34375 -0.109375 0.671875q-0.09375 0.34375 -0.234375 0.65625q-0.140625 0.296875 -0.359375 0.53125q-0.21875 0.234375 -0.515625 0.375q-0.296875 0.125 -0.703125 0.125q-0.40625 0 -0.703125 -0.125q-0.296875 -0.140625 -0.515625 -0.375q-0.21875 -0.234375 -0.375 -0.53125q-0.140625 -0.3125 -0.21875 -0.65625q-0.09375 -0.34375 -0.140625 -0.6875q-0.03125 -0.34375 -0.03125 -0.671875l0 -0.75q0 -0.328125 0.03125 -0.671875q0.046875 -0.34375 0.140625 -0.6875q0.078125 -0.328125 0.21875 -0.625q0.15625 -0.3125 0.375 -0.546875q0.21875 -0.234375 0.515625 -0.375q0.296875 -0.140625 0.6875 -0.140625q0.40625 0 0.703125 0.140625q0.3125 0.140625 0.53125 0.359375q0.21875 0.234375 0.359375 0.546875q0.140625 0.296875 0.234375 0.640625q0.078125 0.328125 0.109375 0.6875q0.03125 0.34375 0.03125 0.671875z" fill-rule="nonzero"/><path fill="#000000" fill-opacity="0.0" d="m95.76378 107.06036l12.220474 0l0 11.937012l-12.220474 0z" fill-rule="evenodd"/><path fill="#ffffff" d="m286.34122 101.29921l53.637787 0l0 59.181107l-53.637787 0z" fill-rule="evenodd"/><path stroke="#000000" stroke-width="2.0" stroke-linejoin="round" stroke-linecap="butt" d="m286.34122 101.29921l53.637787 0l0 59.181107l-53.637787 0z" fill-rule="evenodd"/><path fill="#000000" d="m296.84174 130.91351l0 0.09375q0 0.453125 0.125 0.84375q0.140625 0.390625 0.390625 0.671875q0.234375 0.296875 0.59375 0.46875q0.359375 0.15625 0.8125 0.15625q0.4375 0 0.796875 -0.15625q0.359375 -0.171875 0.609375 -0.46875q0.25 -0.28125 0.375 -0.671875q0.140625 -0.390625 0.140625 -0.84375l0 -0.09375q0 -0.453125 -0.140625 -0.84375q-0.125 -0.390625 -0.375 -0.6875q-0.25 -0.28125 -0.609375 -0.453125q-0.359375 -0.171875 -0.8125 -0.171875q-0.4375 0 -0.796875 0.171875q-0.359375 0.171875 -0.59375 0.453125q-0.25 0.296875 -0.390625 0.6875q-0.125 0.390625 -0.125 0.84375zm0.71875 0.09375l0 -0.09375q0 -0.3125 0.0625 -0.59375q0.078125 -0.28125 0.234375 -0.5q0.15625 -0.203125 0.375 -0.328125q0.21875 -0.140625 0.515625 -0.140625q0.3125 0 0.53125 0.140625q0.21875 0.125 0.375 0.328125q0.15625 0.21875 0.21875 0.5q0.078125 0.28125 0.078125 0.59375l0 0.09375q0 0.3125 -0.078125 0.59375q-0.0625 0.28125 -0.21875 0.5q-0.140625 0.203125 -0.375 0.328125q-0.21875 0.125 -0.515625 0.125q-0.296875 0 -0.53125 -0.125q-0.21875 -0.125 -0.375 -0.328125q-0.15625 -0.21875 -0.234375 -0.5q-0.0625 -0.28125 -0.0625 -0.59375zm7.7851562 2.65625l0 -0.59375l-3.578125 0l0 0.59375l3.578125 0zm2.0195312 -4.1875l0 -2.40625l-0.71875 0l0 6.0l0.71875 0l0 -3.078125q0.078125 -0.125 0.171875 -0.21875q0.109375 -0.109375 0.21875 -0.1875q0.15625 -0.09375 0.328125 -0.140625q0.171875 -0.0625 0.375 -0.0625q0.234375 -0.015625 0.40625 0.0625q0.1875 0.0625 0.3125 0.203125q0.109375 0.125 0.171875 0.3125q0.0625 0.1875 0.0625 0.4375l0 2.671875l0.71875 0l0 -2.65625q0 -0.4375 -0.109375 -0.734375q-0.09375 -0.3125 -0.28125 -0.515625q-0.203125 -0.203125 -0.46875 -0.296875q-0.265625 -0.109375 -0.609375 -0.109375q-0.25 0.015625 -0.484375 0.09375q-0.21875 0.0625 -0.40625 0.1875q-0.109375 0.09375 -0.21875 0.203125q-0.109375 0.09375 -0.1875 0.234375zm6.8789062 2.46875q0 0.109375 -0.046875 0.203125q-0.03125 0.078125 -0.09375 0.15625q-0.125 0.125 -0.34375 0.1875q-0.21875 0.0625 -0.5 0.0625q-0.1875 0 -0.375 -0.03125q-0.1875 -0.046875 -0.34375 -0.140625q-0.15625 -0.09375 -0.265625 -0.234375q-0.09375 -0.15625 -0.109375 -0.375l-0.71875 0q0 0.265625 0.125 0.515625q0.125 0.25 0.359375 0.4375q0.21875 0.1875 0.546875 0.3125q0.34375 0.109375 0.78125 0.109375q0.375 0 0.6875 -0.09375q0.3125 -0.09375 0.546875 -0.25q0.21875 -0.171875 0.34375 -0.390625q0.140625 -0.234375 0.140625 -0.515625q0 -0.265625 -0.125 -0.453125q-0.109375 -0.203125 -0.3125 -0.359375q-0.21875 -0.15625 -0.53125 -0.25q-0.296875 -0.109375 -0.6875 -0.203125q-0.296875 -0.046875 -0.5 -0.109375q-0.1875 -0.0625 -0.296875 -0.140625q-0.125 -0.078125 -0.171875 -0.171875q-0.046875 -0.109375 -0.046875 -0.234375q0 -0.125 0.0625 -0.234375q0.0625 -0.109375 0.171875 -0.203125q0.125 -0.078125 0.296875 -0.125q0.171875 -0.0625 0.40625 -0.0625q0.21875 0 0.390625 0.0625q0.1875 0.0625 0.3125 0.171875q0.125 0.09375 0.1875 0.234375q0.078125 0.125 0.078125 0.265625l0.71875 0q0 -0.28125 -0.125 -0.515625q-0.109375 -0.25 -0.328125 -0.421875q-0.21875 -0.1875 -0.53125 -0.28125q-0.3125 -0.109375 -0.703125 -0.109375q-0.375 0 -0.671875 0.109375q-0.296875 0.09375 -0.515625 0.265625q-0.21875 0.15625 -0.34375 0.390625q-0.125 0.21875 -0.125 0.484375q0 0.25 0.109375 0.453125q0.125 0.203125 0.34375 0.34375q0.203125 0.140625 0.5 0.25q0.3125 0.109375 0.671875 0.1875q0.296875 0.046875 0.484375 0.125q0.203125 0.078125 0.328125 0.15625q0.125 0.09375 0.171875 0.203125q0.046875 0.09375 0.046875 0.21875zm2.3320312 2.828125q0.296875 0 0.515625 -0.109375q0.21875 -0.09375 0.375 -0.25q0.171875 -0.15625 0.28125 -0.34375q0.109375 -0.1875 0.1875 -0.34375l2.140625 -4.890625l-0.796875 0l-1.09375 2.75l-0.203125 0.5l-0.1875 -0.515625l-1.15625 -2.734375l-0.8125 0l1.828125 4.03125l-0.296875 0.5625q-0.03125 0.078125 -0.109375 0.203125q-0.0625 0.125 -0.15625 0.234375q-0.09375 0.109375 -0.21875 0.1875q-0.125 0.09375 -0.28125 0.09375q-0.046875 0 -0.140625 -0.015625q-0.09375 0 -0.203125 0l-0.109375 0.578125q0.0625 0.015625 0.203125 0.03125q0.140625 0.03125 0.234375 0.03125zm4.4726562 -1.703125l0.71875 0l0 -3.03125q0.078125 -0.140625 0.171875 -0.25q0.09375 -0.109375 0.21875 -0.203125q0.140625 -0.09375 0.3125 -0.140625q0.171875 -0.0625 0.375 -0.0625q0.234375 0 0.40625 0.0625q0.171875 0.046875 0.296875 0.15625q0.125 0.125 0.1875 0.328125q0.0625 0.1875 0.0625 0.46875l0 2.671875l0.71875 0l0 -2.6875q0 -0.421875 -0.109375 -0.71875q-0.09375 -0.3125 -0.28125 -0.515625q-0.1875 -0.203125 -0.46875 -0.296875q-0.265625 -0.09375 -0.59375 -0.09375q-0.25 0.015625 -0.46875 0.078125q-0.21875 0.0625 -0.40625 0.1875q-0.125 0.09375 -0.25 0.203125q-0.109375 0.109375 -0.203125 0.234375l-0.046875 -0.625l-0.640625 0l0 4.234375zm6.5976562 -0.515625q-0.34375 0 -0.578125 -0.125q-0.21875 -0.140625 -0.359375 -0.359375q-0.140625 -0.21875 -0.203125 -0.484375q-0.0625 -0.265625 -0.0625 -0.546875l0 -0.171875q0 -0.265625 0.0625 -0.53125q0.0625 -0.28125 0.203125 -0.5q0.140625 -0.203125 0.359375 -0.34375q0.234375 -0.140625 0.578125 -0.140625q0.21875 0 0.40625 0.078125q0.1875 0.078125 0.328125 0.203125q0.140625 0.125 0.21875 0.296875q0.078125 0.171875 0.078125 0.359375l0.6875 0q0 -0.3125 -0.140625 -0.59375q-0.125 -0.28125 -0.34375 -0.484375q-0.234375 -0.203125 -0.546875 -0.328125q-0.3125 -0.125 -0.6875 -0.125q-0.484375 0 -0.84375 0.171875q-0.359375 0.171875 -0.59375 0.46875q-0.25 0.296875 -0.375 0.6875q-0.109375 0.375 -0.109375 0.78125l0 0.171875q0 0.421875 0.109375 0.8125q0.125 0.375 0.375 0.65625q0.234375 0.296875 0.59375 0.46875q0.359375 0.171875 0.84375 0.171875q0.328125 0 0.640625 -0.109375q0.3125 -0.125 0.546875 -0.3125q0.234375 -0.203125 0.375 -0.453125q0.15625 -0.25 0.15625 -0.53125l-0.6875 0q0 0.171875 -0.09375 0.328125q-0.078125 0.140625 -0.234375 0.25q-0.140625 0.109375 -0.328125 0.171875q-0.1875 0.0625 -0.375 0.0625z" fill-rule="nonzero"/><path fill="#ffffff" d="m286.34122 141.16019l10.992126 7.8425293l-10.992126 7.842514z" fill-rule="evenodd"/><path stroke="#000000" stroke-width="1.0" stroke-linejoin="round" stroke-linecap="butt" d="m286.34122 141.16019l10.992126 7.8425293l-10.992126 7.842514z" fill-rule="evenodd"/><path fill="#000000" fill-opacity="0.0" d="m276.4987 104.272964l33.385834 0l0 17.51181l-33.385834 0z" fill-rule="evenodd"/><path fill="#000000" d="m290.49725 117.34887l1.984375 0q0.609375 0 1.140625 -0.140625q0.53125 -0.140625 0.953125 -0.40625q0.390625 -0.25 0.71875 -0.609375q0.328125 -0.359375 0.53125 -0.796875q0.203125 -0.421875 0.3125 -0.921875q0.109375 -0.515625 0.109375 -1.078125l0 -0.625q0 -0.578125 -0.125 -1.09375q-0.109375 -0.515625 -0.328125 -0.953125q-0.234375 -0.515625 -0.640625 -0.90625q-0.40625 -0.390625 -0.921875 -0.625q-0.375 -0.171875 -0.828125 -0.265625q-0.4375 -0.109375 -0.921875 -0.109375l-1.984375 0l0 8.53125zm1.109375 -7.640625l0.875 0q0.390625 0 0.734375 0.09375q0.34375 0.078125 0.625 0.234375q0.375 0.203125 0.640625 0.53125q0.265625 0.328125 0.4375 0.75q0.109375 0.3125 0.171875 0.6875q0.0625 0.359375 0.078125 0.75l0 0.640625q-0.015625 0.390625 -0.078125 0.75q-0.046875 0.359375 -0.171875 0.671875q-0.125 0.390625 -0.359375 0.703125q-0.234375 0.296875 -0.546875 0.515625q-0.296875 0.203125 -0.6875 0.3125q-0.375 0.109375 -0.84375 0.109375l-0.875 0l0 -6.75z" fill-rule="nonzero"/><path fill="#000000" fill-opacity="0.0" d="m287.08136 107.06036l12.2204895 0l0 11.937012l-12.2204895 0z" fill-rule="evenodd"/><path fill="#000000" fill-opacity="0.0" d="m315.56955 103.86089l33.385834 0l0 17.51181l-33.385834 0z" fill-rule="evenodd"/><path fill="#000000" d="m335.30252 113.04617l0 -0.75q0 -0.46875 -0.078125 -0.953125q-0.078125 -0.484375 -0.234375 -0.921875q-0.15625 -0.453125 -0.40625 -0.828125q-0.234375 -0.390625 -0.5625 -0.6875q-0.34375 -0.28125 -0.78125 -0.453125q-0.4375 -0.171875 -0.984375 -0.171875q-0.546875 0 -0.984375 0.171875q-0.421875 0.171875 -0.765625 0.453125q-0.34375 0.296875 -0.578125 0.6875q-0.234375 0.390625 -0.390625 0.828125q-0.171875 0.453125 -0.25 0.9375q-0.0625 0.46875 -0.078125 0.9375l0 0.75q0.015625 0.46875 0.078125 0.953125q0.078125 0.46875 0.25 0.921875q0.15625 0.4375 0.390625 0.828125q0.25 0.390625 0.59375 0.6875q0.328125 0.28125 0.765625 0.453125q0.4375 0.171875 0.984375 0.171875q0.203125 0 0.390625 -0.03125q0.203125 -0.03125 0.390625 -0.078125l1.6875 1.421875l0.75 -0.703125l-1.484375 -1.234375q0.34375 -0.28125 0.578125 -0.671875q0.25 -0.390625 0.40625 -0.828125q0.15625 -0.453125 0.234375 -0.921875q0.078125 -0.484375 0.078125 -0.96875zm-1.078125 -0.75l0 0.75q0 0.328125 -0.03125 0.6875q-0.03125 0.34375 -0.109375 0.671875q-0.09375 0.34375 -0.234375 0.65625q-0.140625 0.296875 -0.359375 0.53125q-0.21875 0.234375 -0.515625 0.375q-0.296875 0.125 -0.703125 0.125q-0.40625 0 -0.703125 -0.125q-0.296875 -0.140625 -0.515625 -0.375q-0.21875 -0.234375 -0.375 -0.53125q-0.140625 -0.3125 -0.21875 -0.65625q-0.09375 -0.34375 -0.140625 -0.6875q-0.03125 -0.34375 -0.03125 -0.671875l0 -0.75q0 -0.328125 0.03125 -0.671875q0.046875 -0.34375 0.140625 -0.6875q0.078125 -0.328125 0.21875 -0.625q0.15625 -0.3125 0.375 -0.546875q0.21875 -0.234375 0.515625 -0.375q0.296875 -0.140625 0.6875 -0.140625q0.40625 0 0.703125 0.140625q0.3125 0.140625 0.53125 0.359375q0.21875 0.234375 0.359375 0.546875q0.140625 0.296875 0.234375 0.640625q0.078125 0.328125 0.109375 0.6875q0.03125 0.34375 0.03125 0.671875z" fill-rule="nonzero"/><path fill="#000000" fill-opacity="0.0" d="m327.7638 107.06036l12.220459 0l0 11.937012l-12.220459 0z" fill-rule="evenodd"/><path fill="#000000" fill-opacity="0.0" d="m233.50656 113.091866l53.5748 -0.06299591" fill-rule="evenodd"/><path stroke="#000000" stroke-width="1.0" stroke-linejoin="round" stroke-linecap="butt" d="m233.50656 113.091866l47.5748 -0.05593872" fill-rule="evenodd"/><path fill="#000000" stroke="#000000" stroke-width="1.0" stroke-linecap="butt" d="m281.0833 114.68766l4.5361633 -1.6570663l-4.540039 -1.6464005z" fill-rule="evenodd"/><path fill="#000000" fill-opacity="0.0" d="m54.144356 29.414698l53.16535 0l0 28.535433l-53.16535 0z" fill-rule="evenodd"/><path fill="#000000" d="m77.68211 43.42429l0 -2.484375l-1.078125 0l0 2.484375l-2.375 0l0 1.078125l2.375 0l0 2.640625l1.078125 0l0 -2.640625l2.390625 0l0 -1.078125l-2.390625 0zm7.576172 4.578125l0 -8.53125l-0.078125 0l-3.234375 1.234375l0 1.0l2.234375 -0.859375l0 7.15625l1.078125 0z" fill-rule="nonzero"/><path fill="#ffffff" d="m196.13124 92.98819l37.38582 0l0 40.220474l-37.38582 0z" fill-rule="evenodd"/><path stroke="#000000" stroke-width="2.0" stroke-linejoin="round" stroke-linecap="butt" d="m196.13124 92.98819l37.38582 0l0 40.220474l-37.38582 0z" fill-rule="evenodd"/><path fill="#000000" fill-opacity="0.0" d="m191.5643 88.09974l46.519684 0l0 49.85827l-46.519684 0z" fill-rule="evenodd"/><path fill="#000000" d="m204.32219 110.4995l0 -5.078125l-0.71875 0l0 5.6875l3.5 0l0 -0.609375l-2.78125 0zm3.7851562 -1.546875l0 0.09375q0 0.453125 0.125 0.84375q0.140625 0.390625 0.390625 0.671875q0.234375 0.296875 0.59375 0.46875q0.359375 0.15625 0.8125 0.15625q0.4375 0 0.796875 -0.15625q0.359375 -0.171875 0.609375 -0.46875q0.25 -0.28125 0.375 -0.671875q0.140625 -0.390625 0.140625 -0.84375l0 -0.09375q0 -0.453125 -0.140625 -0.84375q-0.125 -0.390625 -0.375 -0.6875q-0.25 -0.28125 -0.609375 -0.453125q-0.359375 -0.171875 -0.8125 -0.171875q-0.4375 0 -0.796875 0.171875q-0.359375 0.171875 -0.59375 0.453125q-0.25 0.296875 -0.390625 0.6875q-0.125 0.390625 -0.125 0.84375zm0.71875 0.09375l0 -0.09375q0 -0.3125 0.0625 -0.59375q0.078125 -0.28125 0.234375 -0.5q0.15625 -0.203125 0.375 -0.328125q0.21875 -0.140625 0.515625 -0.140625q0.3125 0 0.53125 0.140625q0.21875 0.125 0.375 0.328125q0.15625 0.21875 0.21875 0.5q0.078125 0.28125 0.078125 0.59375l0 0.09375q0 0.3125 -0.078125 0.59375q-0.0625 0.28125 -0.21875 0.5q-0.140625 0.203125 -0.375 0.328125q-0.21875 0.125 -0.515625 0.125q-0.296875 0 -0.53125 -0.125q-0.21875 -0.125 -0.375 -0.328125q-0.15625 -0.21875 -0.234375 -0.5q-0.0625 -0.28125 -0.0625 -0.59375zm4.1445312 -0.09375l0 0.09375q0 0.453125 0.109375 0.84375q0.125 0.390625 0.34375 0.671875q0.21875 0.296875 0.53125 0.46875q0.3125 0.15625 0.703125 0.15625q0.21875 0 0.421875 -0.046875q0.203125 -0.046875 0.359375 -0.140625q0.109375 -0.0625 0.203125 -0.140625q0.09375 -0.078125 0.171875 -0.171875l0 0.359375q0 0.28125 -0.078125 0.484375q-0.078125 0.21875 -0.21875 0.359375q-0.15625 0.140625 -0.359375 0.21875q-0.203125 0.078125 -0.46875 0.078125q-0.140625 0 -0.28125 -0.03125q-0.140625 -0.03125 -0.296875 -0.09375q-0.140625 -0.0625 -0.28125 -0.1875q-0.140625 -0.109375 -0.265625 -0.265625l-0.375 0.4375q0.140625 0.203125 0.34375 0.34375q0.203125 0.140625 0.421875 0.21875q0.203125 0.09375 0.40625 0.125q0.21875 0.046875 0.390625 0.046875q0.390625 0 0.71875 -0.125q0.328125 -0.109375 0.578125 -0.34375q0.234375 -0.21875 0.359375 -0.546875q0.125 -0.328125 0.125 -0.75l0 -4.140625l-0.65625 0l-0.03125 0.46875q-0.078125 -0.09375 -0.15625 -0.171875q-0.078125 -0.078125 -0.171875 -0.140625q-0.171875 -0.109375 -0.390625 -0.171875q-0.21875 -0.0625 -0.46875 -0.0625q-0.390625 0 -0.703125 0.171875q-0.3125 0.15625 -0.53125 0.4375q-0.21875 0.28125 -0.34375 0.6875q-0.109375 0.390625 -0.109375 0.859375zm0.71875 0.09375l0 -0.09375q0 -0.296875 0.0625 -0.578125q0.078125 -0.28125 0.21875 -0.5q0.125 -0.203125 0.34375 -0.328125q0.21875 -0.125 0.53125 -0.125q0.171875 0 0.3125 0.046875q0.15625 0.03125 0.28125 0.109375q0.125 0.09375 0.21875 0.203125q0.09375 0.109375 0.15625 0.234375l0 1.9375q-0.0625 0.140625 -0.15625 0.25q-0.09375 0.109375 -0.21875 0.203125q-0.125 0.078125 -0.28125 0.125q-0.140625 0.046875 -0.328125 0.046875q-0.296875 0 -0.515625 -0.125q-0.21875 -0.125 -0.34375 -0.34375q-0.140625 -0.203125 -0.21875 -0.484375q-0.0625 -0.28125 -0.0625 -0.578125zm4.3320312 -2.171875l0 0.640625l1.4375 0l0 2.96875l-1.4375 0l0 0.625l3.53125 0l0 -0.625l-1.375 0l0 -3.609375l-2.15625 0zm1.34375 -1.109375q0 0.1875 0.109375 0.3125q0.109375 0.109375 0.328125 0.109375q0.203125 0 0.3125 -0.109375q0.109375 -0.125 0.109375 -0.3125q0 -0.09375 -0.03125 -0.171875q-0.03125 -0.078125 -0.09375 -0.140625q-0.046875 -0.046875 -0.125 -0.078125q-0.078125 -0.03125 -0.171875 -0.03125q-0.109375 0 -0.1875 0.03125q-0.078125 0.03125 -0.125 0.078125q-0.0625 0.0625 -0.09375 0.140625q-0.03125 0.078125 -0.03125 0.171875zm5.1445312 4.828125q-0.34375 0 -0.578125 -0.125q-0.21875 -0.140625 -0.359375 -0.359375q-0.140625 -0.21875 -0.203125 -0.484375q-0.0625 -0.265625 -0.0625 -0.546875l0 -0.171875q0 -0.265625 0.0625 -0.53125q0.0625 -0.28125 0.203125 -0.5q0.140625 -0.203125 0.359375 -0.34375q0.234375 -0.140625 0.578125 -0.140625q0.21875 0 0.40625 0.078125q0.1875 0.078125 0.328125 0.203125q0.140625 0.125 0.21875 0.296875q0.078125 0.171875 0.078125 0.359375l0.6875 0q0 -0.3125 -0.140625 -0.59375q-0.125 -0.28125 -0.34375 -0.484375q-0.234375 -0.203125 -0.546875 -0.328125q-0.3125 -0.125 -0.6875 -0.125q-0.484375 0 -0.84375 0.171875q-0.359375 0.171875 -0.59375 0.46875q-0.25 0.296875 -0.375 0.6875q-0.109375 0.375 -0.109375 0.78125l0 0.171875q0 0.421875 0.109375 0.8125q0.125 0.375 0.375 0.65625q0.234375 0.296875 0.59375 0.46875q0.359375 0.171875 0.84375 0.171875q0.328125 0 0.640625 -0.109375q0.3125 -0.125 0.546875 -0.3125q0.234375 -0.203125 0.375 -0.453125q0.15625 -0.25 0.15625 -0.53125l-0.6875 0q0 0.171875 -0.09375 0.328125q-0.078125 0.140625 -0.234375 0.25q-0.140625 0.109375 -0.328125 0.171875q-0.1875 0.0625 -0.375 0.0625z" fill-rule="nonzero"/><path fill="#000000" d="m205.65031 118.08387l-0.71875 0q0 0.140625 -0.015625 0.265625q0 0.109375 -0.03125 0.21875q-0.03125 0.109375 -0.09375 0.203125q-0.0625 0.09375 -0.171875 0.203125q-0.171875 0.171875 -0.359375 0.375q-0.171875 0.1875 -0.3125 0.40625q-0.140625 0.21875 -0.234375 0.46875q-0.09375 0.25 -0.09375 0.53125q0 0.359375 0.109375 0.625q0.109375 0.28125 0.3125 0.46875q0.203125 0.1875 0.5 0.28125q0.296875 0.109375 0.6875 0.109375q0.328125 0 0.625 -0.09375q0.296875 -0.09375 0.5 -0.28125q0.21875 -0.171875 0.34375 -0.4375q0.125 -0.265625 0.125 -0.59375l-0.71875 0q0 0.203125 -0.078125 0.34375q-0.078125 0.15625 -0.1875 0.25q-0.125 0.09375 -0.296875 0.140625q-0.15625 0.046875 -0.3125 0.046875q-0.21875 0 -0.390625 -0.0625q-0.171875 -0.0625 -0.28125 -0.171875q-0.109375 -0.109375 -0.171875 -0.28125q-0.046875 -0.15625 -0.046875 -0.359375q0 -0.203125 0.0625 -0.375q0.078125 -0.1875 0.1875 -0.34375q0.109375 -0.15625 0.234375 -0.296875q0.125 -0.15625 0.25 -0.296875q0.1875 -0.171875 0.296875 -0.296875q0.125 -0.140625 0.1875 -0.28125q0.0625 -0.140625 0.078125 -0.3125q0.015625 -0.1875 0.015625 -0.453125zm-0.84375 -1.234375q0 0.171875 0.109375 0.296875q0.125 0.125 0.34375 0.125q0.21875 0 0.328125 -0.125q0.125 -0.125 0.125 -0.296875q0 -0.1875 -0.125 -0.3125q-0.109375 -0.125 -0.328125 -0.125q-0.21875 0 -0.34375 0.125q-0.109375 0.125 -0.109375 0.3125zm6.2695312 3.859375l0.765625 0l0 -0.0625q-0.078125 -0.171875 -0.125 -0.40625q-0.03125 -0.25 -0.03125 -0.453125l0 -1.96875q0 -0.359375 -0.125 -0.625q-0.125 -0.265625 -0.359375 -0.4375q-0.21875 -0.171875 -0.53125 -0.265625q-0.3125 -0.09375 -0.671875 -0.09375q-0.390625 0 -0.703125 0.109375q-0.3125 0.109375 -0.515625 0.296875q-0.21875 0.171875 -0.34375 0.40625q-0.109375 0.21875 -0.109375 0.4375l0.71875 0q0 -0.125 0.0625 -0.25q0.0625 -0.125 0.1875 -0.21875q0.109375 -0.078125 0.28125 -0.125q0.171875 -0.0625 0.390625 -0.0625q0.234375 0 0.40625 0.0625q0.1875 0.046875 0.328125 0.15625q0.125 0.109375 0.1875 0.265625q0.078125 0.140625 0.078125 0.34375l0 0.328125l-0.796875 0q-0.4375 0 -0.796875 0.09375q-0.359375 0.078125 -0.609375 0.25q-0.25 0.171875 -0.390625 0.4375q-0.140625 0.265625 -0.140625 0.609375q0 0.265625 0.09375 0.5q0.109375 0.21875 0.3125 0.390625q0.1875 0.15625 0.453125 0.265625q0.265625 0.09375 0.609375 0.09375q0.203125 0 0.390625 -0.046875q0.1875 -0.046875 0.34375 -0.109375q0.15625 -0.078125 0.296875 -0.171875q0.140625 -0.109375 0.25 -0.21875q0 0.140625 0.03125 0.265625q0.03125 0.125 0.0625 0.203125zm-1.265625 -0.546875q-0.21875 0 -0.375 -0.046875q-0.15625 -0.0625 -0.265625 -0.171875q-0.109375 -0.09375 -0.171875 -0.21875q-0.046875 -0.140625 -0.046875 -0.296875q0 -0.15625 0.0625 -0.28125q0.0625 -0.140625 0.1875 -0.234375q0.15625 -0.125 0.4375 -0.1875q0.28125 -0.0625 0.65625 -0.0625l0.671875 0l0 0.84375q-0.0625 0.125 -0.171875 0.25q-0.109375 0.109375 -0.265625 0.203125q-0.140625 0.09375 -0.328125 0.15625q-0.1875 0.046875 -0.390625 0.046875zm6.5976562 -0.21875l0 -0.765625l-2.390625 -0.921875l-0.21875 -0.078125l0.21875 -0.0625l2.390625 -0.9375l0 -0.765625l-3.3125 1.484375l0 0.5625l3.3125 1.484375zm5.0820312 -1.296875l0 -0.09375q0 -0.328125 -0.0625 -0.625q-0.046875 -0.296875 -0.15625 -0.546875q-0.09375 -0.21875 -0.234375 -0.390625q-0.125 -0.1875 -0.296875 -0.3125q-0.1875 -0.125 -0.421875 -0.203125q-0.234375 -0.078125 -0.5 -0.078125q-0.21875 0 -0.40625 0.046875q-0.1875 0.046875 -0.34375 0.125q-0.125 0.0625 -0.234375 0.15625q-0.109375 0.09375 -0.203125 0.203125l0 -2.21875l-0.71875 0l0 6.0l0.65625 0l0.046875 -0.484375q0.0625 0.09375 0.140625 0.171875q0.078125 0.0625 0.171875 0.125q0.171875 0.125 0.390625 0.1875q0.234375 0.078125 0.5 0.078125q0.25 0 0.453125 -0.0625q0.203125 -0.0625 0.375 -0.15625q0.234375 -0.15625 0.40625 -0.390625q0.171875 -0.234375 0.28125 -0.53125q0.078125 -0.21875 0.109375 -0.46875q0.046875 -0.265625 0.046875 -0.53125zm-0.71875 -0.09375l0 0.09375q0 0.1875 -0.03125 0.375q-0.015625 0.171875 -0.078125 0.328125q-0.0625 0.203125 -0.171875 0.375q-0.09375 0.15625 -0.25 0.265625q-0.125 0.09375 -0.28125 0.140625q-0.140625 0.046875 -0.3125 0.046875q-0.1875 0 -0.34375 -0.046875q-0.15625 -0.0625 -0.28125 -0.140625q-0.125 -0.09375 -0.21875 -0.203125q-0.09375 -0.125 -0.171875 -0.265625l0 -1.859375q0.0625 -0.140625 0.15625 -0.25q0.109375 -0.125 0.234375 -0.21875q0.109375 -0.078125 0.265625 -0.125q0.15625 -0.046875 0.34375 -0.046875q0.171875 0 0.3125 0.046875q0.140625 0.03125 0.265625 0.09375q0.15625 0.09375 0.265625 0.265625q0.125 0.171875 0.1875 0.390625q0.046875 0.15625 0.078125 0.359375q0.03125 0.1875 0.03125 0.375zm3.2539062 0.546875l0.71875 0q0 -0.140625 0 -0.265625q0.015625 -0.125 0.046875 -0.21875q0.03125 -0.109375 0.09375 -0.203125q0.0625 -0.109375 0.1875 -0.21875q0.1875 -0.171875 0.375 -0.359375q0.1875 -0.1875 0.34375 -0.421875q0.140625 -0.21875 0.234375 -0.453125q0.109375 -0.25 0.109375 -0.53125q0 -0.359375 -0.125 -0.625q-0.109375 -0.28125 -0.3125 -0.46875q-0.21875 -0.1875 -0.53125 -0.28125q-0.3125 -0.109375 -0.703125 -0.109375q-0.359375 0 -0.671875 0.09375q-0.296875 0.09375 -0.515625 0.28125q-0.234375 0.171875 -0.375 0.4375q-0.125 0.265625 -0.125 0.59375l0.71875 0q0 -0.203125 0.078125 -0.34375q0.09375 -0.15625 0.21875 -0.25q0.140625 -0.09375 0.3125 -0.140625q0.171875 -0.046875 0.359375 -0.046875q0.234375 0 0.421875 0.0625q0.1875 0.0625 0.296875 0.1875q0.109375 0.109375 0.171875 0.265625q0.0625 0.15625 0.0625 0.359375q0 0.203125 -0.078125 0.375q-0.078125 0.171875 -0.1875 0.328125q-0.125 0.15625 -0.265625 0.3125q-0.125 0.140625 -0.265625 0.28125q-0.1875 0.171875 -0.3125 0.3125q-0.109375 0.125 -0.171875 0.265625q-0.0625 0.140625 -0.09375 0.328125q-0.015625 0.171875 -0.015625 0.453125zm-0.078125 1.234375q0 0.171875 0.109375 0.296875q0.109375 0.125 0.328125 0.125q0.21875 0 0.328125 -0.125q0.125 -0.125 0.125 -0.296875q0 -0.1875 -0.125 -0.3125q-0.109375 -0.125 -0.328125 -0.125q-0.21875 0 -0.328125 0.125q-0.109375 0.125 -0.109375 0.3125z" fill-rule="nonzero"/><path fill="#ffffff" d="m196.13124 92.98819l37.38582 0l0 40.220474l-37.38582 0z" fill-rule="evenodd"/><path stroke="#000000" stroke-width="2.0" stroke-linejoin="round" stroke-linecap="butt" d="m196.13124 92.98819l37.38582 0l0 40.220474l-37.38582 0z" fill-rule="evenodd"/><path fill="#000000" fill-opacity="0.0" d="m191.5643 88.09974l46.519684 0l0 49.85827l-46.519684 0z" fill-rule="evenodd"/><path fill="#000000" d="m204.32219 110.4995l0 -5.078125l-0.71875 0l0 5.6875l3.5 0l0 -0.609375l-2.78125 0zm3.7851562 -1.546875l0 0.09375q0 0.453125 0.125 0.84375q0.140625 0.390625 0.390625 0.671875q0.234375 0.296875 0.59375 0.46875q0.359375 0.15625 0.8125 0.15625q0.4375 0 0.796875 -0.15625q0.359375 -0.171875 0.609375 -0.46875q0.25 -0.28125 0.375 -0.671875q0.140625 -0.390625 0.140625 -0.84375l0 -0.09375q0 -0.453125 -0.140625 -0.84375q-0.125 -0.390625 -0.375 -0.6875q-0.25 -0.28125 -0.609375 -0.453125q-0.359375 -0.171875 -0.8125 -0.171875q-0.4375 0 -0.796875 0.171875q-0.359375 0.171875 -0.59375 0.453125q-0.25 0.296875 -0.390625 0.6875q-0.125 0.390625 -0.125 0.84375zm0.71875 0.09375l0 -0.09375q0 -0.3125 0.0625 -0.59375q0.078125 -0.28125 0.234375 -0.5q0.15625 -0.203125 0.375 -0.328125q0.21875 -0.140625 0.515625 -0.140625q0.3125 0 0.53125 0.140625q0.21875 0.125 0.375 0.328125q0.15625 0.21875 0.21875 0.5q0.078125 0.28125 0.078125 0.59375l0 0.09375q0 0.3125 -0.078125 0.59375q-0.0625 0.28125 -0.21875 0.5q-0.140625 0.203125 -0.375 0.328125q-0.21875 0.125 -0.515625 0.125q-0.296875 0 -0.53125 -0.125q-0.21875 -0.125 -0.375 -0.328125q-0.15625 -0.21875 -0.234375 -0.5q-0.0625 -0.28125 -0.0625 -0.59375zm4.1445312 -0.09375l0 0.09375q0 0.453125 0.109375 0.84375q0.125 0.390625 0.34375 0.671875q0.21875 0.296875 0.53125 0.46875q0.3125 0.15625 0.703125 0.15625q0.21875 0 0.421875 -0.046875q0.203125 -0.046875 0.359375 -0.140625q0.109375 -0.0625 0.203125 -0.140625q0.09375 -0.078125 0.171875 -0.171875l0 0.359375q0 0.28125 -0.078125 0.484375q-0.078125 0.21875 -0.21875 0.359375q-0.15625 0.140625 -0.359375 0.21875q-0.203125 0.078125 -0.46875 0.078125q-0.140625 0 -0.28125 -0.03125q-0.140625 -0.03125 -0.296875 -0.09375q-0.140625 -0.0625 -0.28125 -0.1875q-0.140625 -0.109375 -0.265625 -0.265625l-0.375 0.4375q0.140625 0.203125 0.34375 0.34375q0.203125 0.140625 0.421875 0.21875q0.203125 0.09375 0.40625 0.125q0.21875 0.046875 0.390625 0.046875q0.390625 0 0.71875 -0.125q0.328125 -0.109375 0.578125 -0.34375q0.234375 -0.21875 0.359375 -0.546875q0.125 -0.328125 0.125 -0.75l0 -4.140625l-0.65625 0l-0.03125 0.46875q-0.078125 -0.09375 -0.15625 -0.171875q-0.078125 -0.078125 -0.171875 -0.140625q-0.171875 -0.109375 -0.390625 -0.171875q-0.21875 -0.0625 -0.46875 -0.0625q-0.390625 0 -0.703125 0.171875q-0.3125 0.15625 -0.53125 0.4375q-0.21875 0.28125 -0.34375 0.6875q-0.109375 0.390625 -0.109375 0.859375zm0.71875 0.09375l0 -0.09375q0 -0.296875 0.0625 -0.578125q0.078125 -0.28125 0.21875 -0.5q0.125 -0.203125 0.34375 -0.328125q0.21875 -0.125 0.53125 -0.125q0.171875 0 0.3125 0.046875q0.15625 0.03125 0.28125 0.109375q0.125 0.09375 0.21875 0.203125q0.09375 0.109375 0.15625 0.234375l0 1.9375q-0.0625 0.140625 -0.15625 0.25q-0.09375 0.109375 -0.21875 0.203125q-0.125 0.078125 -0.28125 0.125q-0.140625 0.046875 -0.328125 0.046875q-0.296875 0 -0.515625 -0.125q-0.21875 -0.125 -0.34375 -0.34375q-0.140625 -0.203125 -0.21875 -0.484375q-0.0625 -0.28125 -0.0625 -0.578125zm4.3320312 -2.171875l0 0.640625l1.4375 0l0 2.96875l-1.4375 0l0 0.625l3.53125 0l0 -0.625l-1.375 0l0 -3.609375l-2.15625 0zm1.34375 -1.109375q0 0.1875 0.109375 0.3125q0.109375 0.109375 0.328125 0.109375q0.203125 0 0.3125 -0.109375q0.109375 -0.125 0.109375 -0.3125q0 -0.09375 -0.03125 -0.171875q-0.03125 -0.078125 -0.09375 -0.140625q-0.046875 -0.046875 -0.125 -0.078125q-0.078125 -0.03125 -0.171875 -0.03125q-0.109375 0 -0.1875 0.03125q-0.078125 0.03125 -0.125 0.078125q-0.0625 0.0625 -0.09375 0.140625q-0.03125 0.078125 -0.03125 0.171875zm5.1445312 4.828125q-0.34375 0 -0.578125 -0.125q-0.21875 -0.140625 -0.359375 -0.359375q-0.140625 -0.21875 -0.203125 -0.484375q-0.0625 -0.265625 -0.0625 -0.546875l0 -0.171875q0 -0.265625 0.0625 -0.53125q0.0625 -0.28125 0.203125 -0.5q0.140625 -0.203125 0.359375 -0.34375q0.234375 -0.140625 0.578125 -0.140625q0.21875 0 0.40625 0.078125q0.1875 0.078125 0.328125 0.203125q0.140625 0.125 0.21875 0.296875q0.078125 0.171875 0.078125 0.359375l0.6875 0q0 -0.3125 -0.140625 -0.59375q-0.125 -0.28125 -0.34375 -0.484375q-0.234375 -0.203125 -0.546875 -0.328125q-0.3125 -0.125 -0.6875 -0.125q-0.484375 0 -0.84375 0.171875q-0.359375 0.171875 -0.59375 0.46875q-0.25 0.296875 -0.375 0.6875q-0.109375 0.375 -0.109375 0.78125l0 0.171875q0 0.421875 0.109375 0.8125q0.125 0.375 0.375 0.65625q0.234375 0.296875 0.59375 0.46875q0.359375 0.171875 0.84375 0.171875q0.328125 0 0.640625 -0.109375q0.3125 -0.125 0.546875 -0.3125q0.234375 -0.203125 0.375 -0.453125q0.15625 -0.25 0.15625 -0.53125l-0.6875 0q0 0.171875 -0.09375 0.328125q-0.078125 0.140625 -0.234375 0.25q-0.140625 0.109375 -0.328125 0.171875q-0.1875 0.0625 -0.375 0.0625z" fill-rule="nonzero"/><path fill="#000000" d="m205.65031 118.08387l-0.71875 0q0 0.140625 -0.015625 0.265625q0 0.109375 -0.03125 0.21875q-0.03125 0.109375 -0.09375 0.203125q-0.0625 0.09375 -0.171875 0.203125q-0.171875 0.171875 -0.359375 0.375q-0.171875 0.1875 -0.3125 0.40625q-0.140625 0.21875 -0.234375 0.46875q-0.09375 0.25 -0.09375 0.53125q0 0.359375 0.109375 0.625q0.109375 0.28125 0.3125 0.46875q0.203125 0.1875 0.5 0.28125q0.296875 0.109375 0.6875 0.109375q0.328125 0 0.625 -0.09375q0.296875 -0.09375 0.5 -0.28125q0.21875 -0.171875 0.34375 -0.4375q0.125 -0.265625 0.125 -0.59375l-0.71875 0q0 0.203125 -0.078125 0.34375q-0.078125 0.15625 -0.1875 0.25q-0.125 0.09375 -0.296875 0.140625q-0.15625 0.046875 -0.3125 0.046875q-0.21875 0 -0.390625 -0.0625q-0.171875 -0.0625 -0.28125 -0.171875q-0.109375 -0.109375 -0.171875 -0.28125q-0.046875 -0.15625 -0.046875 -0.359375q0 -0.203125 0.0625 -0.375q0.078125 -0.1875 0.1875 -0.34375q0.109375 -0.15625 0.234375 -0.296875q0.125 -0.15625 0.25 -0.296875q0.1875 -0.171875 0.296875 -0.296875q0.125 -0.140625 0.1875 -0.28125q0.0625 -0.140625 0.078125 -0.3125q0.015625 -0.1875 0.015625 -0.453125zm-0.84375 -1.234375q0 0.171875 0.109375 0.296875q0.125 0.125 0.34375 0.125q0.21875 0 0.328125 -0.125q0.125 -0.125 0.125 -0.296875q0 -0.1875 -0.125 -0.3125q-0.109375 -0.125 -0.328125 -0.125q-0.21875 0 -0.34375 0.125q-0.109375 0.125 -0.109375 0.3125zm6.2695312 3.859375l0.765625 0l0 -0.0625q-0.078125 -0.171875 -0.125 -0.40625q-0.03125 -0.25 -0.03125 -0.453125l0 -1.96875q0 -0.359375 -0.125 -0.625q-0.125 -0.265625 -0.359375 -0.4375q-0.21875 -0.171875 -0.53125 -0.265625q-0.3125 -0.09375 -0.671875 -0.09375q-0.390625 0 -0.703125 0.109375q-0.3125 0.109375 -0.515625 0.296875q-0.21875 0.171875 -0.34375 0.40625q-0.109375 0.21875 -0.109375 0.4375l0.71875 0q0 -0.125 0.0625 -0.25q0.0625 -0.125 0.1875 -0.21875q0.109375 -0.078125 0.28125 -0.125q0.171875 -0.0625 0.390625 -0.0625q0.234375 0 0.40625 0.0625q0.1875 0.046875 0.328125 0.15625q0.125 0.109375 0.1875 0.265625q0.078125 0.140625 0.078125 0.34375l0 0.328125l-0.796875 0q-0.4375 0 -0.796875 0.09375q-0.359375 0.078125 -0.609375 0.25q-0.25 0.171875 -0.390625 0.4375q-0.140625 0.265625 -0.140625 0.609375q0 0.265625 0.09375 0.5q0.109375 0.21875 0.3125 0.390625q0.1875 0.15625 0.453125 0.265625q0.265625 0.09375 0.609375 0.09375q0.203125 0 0.390625 -0.046875q0.1875 -0.046875 0.34375 -0.109375q0.15625 -0.078125 0.296875 -0.171875q0.140625 -0.109375 0.25 -0.21875q0 0.140625 0.03125 0.265625q0.03125 0.125 0.0625 0.203125zm-1.265625 -0.546875q-0.21875 0 -0.375 -0.046875q-0.15625 -0.0625 -0.265625 -0.171875q-0.109375 -0.09375 -0.171875 -0.21875q-0.046875 -0.140625 -0.046875 -0.296875q0 -0.15625 0.0625 -0.28125q0.0625 -0.140625 0.1875 -0.234375q0.15625 -0.125 0.4375 -0.1875q0.28125 -0.0625 0.65625 -0.0625l0.671875 0l0 0.84375q-0.0625 0.125 -0.171875 0.25q-0.109375 0.109375 -0.265625 0.203125q-0.140625 0.09375 -0.328125 0.15625q-0.1875 0.046875 -0.390625 0.046875zm6.5976562 -0.21875l0 -0.765625l-2.390625 -0.921875l-0.21875 -0.078125l0.21875 -0.0625l2.390625 -0.9375l0 -0.765625l-3.3125 1.484375l0 0.5625l3.3125 1.484375zm5.0820312 -1.296875l0 -0.09375q0 -0.328125 -0.0625 -0.625q-0.046875 -0.296875 -0.15625 -0.546875q-0.09375 -0.21875 -0.234375 -0.390625q-0.125 -0.1875 -0.296875 -0.3125q-0.1875 -0.125 -0.421875 -0.203125q-0.234375 -0.078125 -0.5 -0.078125q-0.21875 0 -0.40625 0.046875q-0.1875 0.046875 -0.34375 0.125q-0.125 0.0625 -0.234375 0.15625q-0.109375 0.09375 -0.203125 0.203125l0 -2.21875l-0.71875 0l0 6.0l0.65625 0l0.046875 -0.484375q0.0625 0.09375 0.140625 0.171875q0.078125 0.0625 0.171875 0.125q0.171875 0.125 0.390625 0.1875q0.234375 0.078125 0.5 0.078125q0.25 0 0.453125 -0.0625q0.203125 -0.0625 0.375 -0.15625q0.234375 -0.15625 0.40625 -0.390625q0.171875 -0.234375 0.28125 -0.53125q0.078125 -0.21875 0.109375 -0.46875q0.046875 -0.265625 0.046875 -0.53125zm-0.71875 -0.09375l0 0.09375q0 0.1875 -0.03125 0.375q-0.015625 0.171875 -0.078125 0.328125q-0.0625 0.203125 -0.171875 0.375q-0.09375 0.15625 -0.25 0.265625q-0.125 0.09375 -0.28125 0.140625q-0.140625 0.046875 -0.3125 0.046875q-0.1875 0 -0.34375 -0.046875q-0.15625 -0.0625 -0.28125 -0.140625q-0.125 -0.09375 -0.21875 -0.203125q-0.09375 -0.125 -0.171875 -0.265625l0 -1.859375q0.0625 -0.140625 0.15625 -0.25q0.109375 -0.125 0.234375 -0.21875q0.109375 -0.078125 0.265625 -0.125q0.15625 -0.046875 0.34375 -0.046875q0.171875 0 0.3125 0.046875q0.140625 0.03125 0.265625 0.09375q0.15625 0.09375 0.265625 0.265625q0.125 0.171875 0.1875 0.390625q0.046875 0.15625 0.078125 0.359375q0.03125 0.1875 0.03125 0.375zm3.2539062 0.546875l0.71875 0q0 -0.140625 0 -0.265625q0.015625 -0.125 0.046875 -0.21875q0.03125 -0.109375 0.09375 -0.203125q0.0625 -0.109375 0.1875 -0.21875q0.1875 -0.171875 0.375 -0.359375q0.1875 -0.1875 0.34375 -0.421875q0.140625 -0.21875 0.234375 -0.453125q0.109375 -0.25 0.109375 -0.53125q0 -0.359375 -0.125 -0.625q-0.109375 -0.28125 -0.3125 -0.46875q-0.21875 -0.1875 -0.53125 -0.28125q-0.3125 -0.109375 -0.703125 -0.109375q-0.359375 0 -0.671875 0.09375q-0.296875 0.09375 -0.515625 0.28125q-0.234375 0.171875 -0.375 0.4375q-0.125 0.265625 -0.125 0.59375l0.71875 0q0 -0.203125 0.078125 -0.34375q0.09375 -0.15625 0.21875 -0.25q0.140625 -0.09375 0.3125 -0.140625q0.171875 -0.046875 0.359375 -0.046875q0.234375 0 0.421875 0.0625q0.1875 0.0625 0.296875 0.1875q0.109375 0.109375 0.171875 0.265625q0.0625 0.15625 0.0625 0.359375q0 0.203125 -0.078125 0.375q-0.078125 0.171875 -0.1875 0.328125q-0.125 0.15625 -0.265625 0.3125q-0.125 0.140625 -0.265625 0.28125q-0.1875 0.171875 -0.3125 0.3125q-0.109375 0.125 -0.171875 0.265625q-0.0625 0.140625 -0.09375 0.328125q-0.015625 0.171875 -0.015625 0.453125zm-0.078125 1.234375q0 0.171875 0.109375 0.296875q0.109375 0.125 0.328125 0.125q0.21875 0 0.328125 -0.125q0.125 -0.125 0.125 -0.296875q0 -0.1875 -0.125 -0.3125q-0.109375 -0.125 -0.328125 -0.125q-0.21875 0 -0.328125 0.125q-0.109375 0.125 -0.109375 0.3125z" fill-rule="nonzero"/><path fill="#ffffff" d="m196.13124 44.98819l37.38582 0l0 40.220474l-37.38582 0z" fill-rule="evenodd"/><path stroke="#000000" stroke-width="2.0" stroke-linejoin="round" stroke-linecap="butt" d="m196.13124 44.98819l37.38582 0l0 40.220474l-37.38582 0z" fill-rule="evenodd"/><path fill="#000000" fill-opacity="0.0" d="m191.5643 40.09974l46.519684 0l0 49.85827l-46.519684 0z" fill-rule="evenodd"/><path fill="#000000" d="m204.32219 62.499496l0 -5.078125l-0.71875 0l0 5.6875l3.5 0l0 -0.609375l-2.78125 0zm3.7851562 -1.546875l0 0.09375q0 0.453125 0.125 0.84375q0.140625 0.390625 0.390625 0.671875q0.234375 0.296875 0.59375 0.46875q0.359375 0.15625 0.8125 0.15625q0.4375 0 0.796875 -0.15625q0.359375 -0.171875 0.609375 -0.46875q0.25 -0.28125 0.375 -0.671875q0.140625 -0.390625 0.140625 -0.84375l0 -0.09375q0 -0.453125 -0.140625 -0.84375q-0.125 -0.390625 -0.375 -0.6875q-0.25 -0.28125 -0.609375 -0.453125q-0.359375 -0.171875 -0.8125 -0.171875q-0.4375 0 -0.796875 0.171875q-0.359375 0.171875 -0.59375 0.453125q-0.25 0.296875 -0.390625 0.6875q-0.125 0.390625 -0.125 0.84375zm0.71875 0.09375l0 -0.09375q0 -0.3125 0.0625 -0.59375q0.078125 -0.28125 0.234375 -0.5q0.15625 -0.203125 0.375 -0.328125q0.21875 -0.140625 0.515625 -0.140625q0.3125 0 0.53125 0.140625q0.21875 0.125 0.375 0.328125q0.15625 0.21875 0.21875 0.5q0.078125 0.28125 0.078125 0.59375l0 0.09375q0 0.3125 -0.078125 0.59375q-0.0625 0.28125 -0.21875 0.5q-0.140625 0.203125 -0.375 0.328125q-0.21875 0.125 -0.515625 0.125q-0.296875 0 -0.53125 -0.125q-0.21875 -0.125 -0.375 -0.328125q-0.15625 -0.21875 -0.234375 -0.5q-0.0625 -0.28125 -0.0625 -0.59375zm4.1445312 -0.09375l0 0.09375q0 0.453125 0.109375 0.84375q0.125 0.390625 0.34375 0.671875q0.21875 0.296875 0.53125 0.46875q0.3125 0.15625 0.703125 0.15625q0.21875 0 0.421875 -0.046875q0.203125 -0.046875 0.359375 -0.140625q0.109375 -0.0625 0.203125 -0.140625q0.09375 -0.078125 0.171875 -0.171875l0 0.359375q0 0.28125 -0.078125 0.484375q-0.078125 0.21875 -0.21875 0.359375q-0.15625 0.140625 -0.359375 0.21875q-0.203125 0.078125 -0.46875 0.078125q-0.140625 0 -0.28125 -0.03125q-0.140625 -0.03125 -0.296875 -0.09375q-0.140625 -0.0625 -0.28125 -0.1875q-0.140625 -0.109375 -0.265625 -0.265625l-0.375 0.4375q0.140625 0.203125 0.34375 0.34375q0.203125 0.140625 0.421875 0.21875q0.203125 0.09375 0.40625 0.125q0.21875 0.046875 0.390625 0.046875q0.390625 0 0.71875 -0.125q0.328125 -0.109375 0.578125 -0.34375q0.234375 -0.21875 0.359375 -0.546875q0.125 -0.328125 0.125 -0.75l0 -4.140625l-0.65625 0l-0.03125 0.46875q-0.078125 -0.09375 -0.15625 -0.171875q-0.078125 -0.078125 -0.171875 -0.140625q-0.171875 -0.109375 -0.390625 -0.171875q-0.21875 -0.0625 -0.46875 -0.0625q-0.390625 0 -0.703125 0.171875q-0.3125 0.15625 -0.53125 0.4375q-0.21875 0.28125 -0.34375 0.6875q-0.109375 0.390625 -0.109375 0.859375zm0.71875 0.09375l0 -0.09375q0 -0.296875 0.0625 -0.578125q0.078125 -0.28125 0.21875 -0.5q0.125 -0.203125 0.34375 -0.328125q0.21875 -0.125 0.53125 -0.125q0.171875 0 0.3125 0.046875q0.15625 0.03125 0.28125 0.109375q0.125 0.09375 0.21875 0.203125q0.09375 0.109375 0.15625 0.234375l0 1.9375q-0.0625 0.140625 -0.15625 0.25q-0.09375 0.109375 -0.21875 0.203125q-0.125 0.078125 -0.28125 0.125q-0.140625 0.046875 -0.328125 0.046875q-0.296875 0 -0.515625 -0.125q-0.21875 -0.125 -0.34375 -0.34375q-0.140625 -0.203125 -0.21875 -0.484375q-0.0625 -0.28125 -0.0625 -0.578125zm4.3320312 -2.171875l0 0.640625l1.4375 0l0 2.96875l-1.4375 0l0 0.625l3.53125 0l0 -0.625l-1.375 0l0 -3.609375l-2.15625 0zm1.34375 -1.109375q0 0.1875 0.109375 0.3125q0.109375 0.109375 0.328125 0.109375q0.203125 0 0.3125 -0.109375q0.109375 -0.125 0.109375 -0.3125q0 -0.09375 -0.03125 -0.171875q-0.03125 -0.078125 -0.09375 -0.140625q-0.046875 -0.046875 -0.125 -0.078125q-0.078125 -0.03125 -0.171875 -0.03125q-0.109375 0 -0.1875 0.03125q-0.078125 0.03125 -0.125 0.078125q-0.0625 0.0625 -0.09375 0.140625q-0.03125 0.078125 -0.03125 0.171875zm5.1445312 4.828125q-0.34375 0 -0.578125 -0.125q-0.21875 -0.140625 -0.359375 -0.359375q-0.140625 -0.21875 -0.203125 -0.484375q-0.0625 -0.265625 -0.0625 -0.546875l0 -0.171875q0 -0.265625 0.0625 -0.53125q0.0625 -0.28125 0.203125 -0.5q0.140625 -0.203125 0.359375 -0.34375q0.234375 -0.140625 0.578125 -0.140625q0.21875 0 0.40625 0.078125q0.1875 0.078125 0.328125 0.203125q0.140625 0.125 0.21875 0.296875q0.078125 0.171875 0.078125 0.359375l0.6875 0q0 -0.3125 -0.140625 -0.59375q-0.125 -0.28125 -0.34375 -0.484375q-0.234375 -0.203125 -0.546875 -0.328125q-0.3125 -0.125 -0.6875 -0.125q-0.484375 0 -0.84375 0.171875q-0.359375 0.171875 -0.59375 0.46875q-0.25 0.296875 -0.375 0.6875q-0.109375 0.375 -0.109375 0.78125l0 0.171875q0 0.421875 0.109375 0.8125q0.125 0.375 0.375 0.65625q0.234375 0.296875 0.59375 0.46875q0.359375 0.171875 0.84375 0.171875q0.328125 0 0.640625 -0.109375q0.3125 -0.125 0.546875 -0.3125q0.234375 -0.203125 0.375 -0.453125q0.15625 -0.25 0.15625 -0.53125l-0.6875 0q0 0.171875 -0.09375 0.328125q-0.078125 0.140625 -0.234375 0.25q-0.140625 0.109375 -0.328125 0.171875q-0.1875 0.0625 -0.375 0.0625z" fill-rule="nonzero"/><path fill="#000000" d="m205.65031 70.08387l-0.71875 0q0 0.140625 -0.015625 0.265625q0 0.109375 -0.03125 0.21875q-0.03125 0.109375 -0.09375 0.203125q-0.0625 0.09375 -0.171875 0.203125q-0.171875 0.171875 -0.359375 0.375q-0.171875 0.1875 -0.3125 0.40625q-0.140625 0.21875 -0.234375 0.46875q-0.09375 0.25 -0.09375 0.53125q0 0.359375 0.109375 0.625q0.109375 0.28125 0.3125 0.46875q0.203125 0.1875 0.5 0.28125q0.296875 0.109375 0.6875 0.109375q0.328125 0 0.625 -0.09375q0.296875 -0.09375 0.5 -0.28125q0.21875 -0.171875 0.34375 -0.4375q0.125 -0.265625 0.125 -0.59375l-0.71875 0q0 0.203125 -0.078125 0.34375q-0.078125 0.15625 -0.1875 0.25q-0.125 0.09375 -0.296875 0.140625q-0.15625 0.046875 -0.3125 0.046875q-0.21875 0 -0.390625 -0.0625q-0.171875 -0.0625 -0.28125 -0.171875q-0.109375 -0.109375 -0.171875 -0.28125q-0.046875 -0.15625 -0.046875 -0.359375q0 -0.203125 0.0625 -0.375q0.078125 -0.1875 0.1875 -0.34375q0.109375 -0.15625 0.234375 -0.296875q0.125 -0.15625 0.25 -0.296875q0.1875 -0.171875 0.296875 -0.296875q0.125 -0.140625 0.1875 -0.28125q0.0625 -0.140625 0.078125 -0.3125q0.015625 -0.1875 0.015625 -0.453125zm-0.84375 -1.234375q0 0.171875 0.109375 0.296875q0.125 0.125 0.34375 0.125q0.21875 0 0.328125 -0.125q0.125 -0.125 0.125 -0.296875q0 -0.1875 -0.125 -0.3125q-0.109375 -0.125 -0.328125 -0.125q-0.21875 0 -0.34375 0.125q-0.109375 0.125 -0.109375 0.3125zm6.2695312 3.859375l0.765625 0l0 -0.0625q-0.078125 -0.171875 -0.125 -0.40625q-0.03125 -0.25 -0.03125 -0.453125l0 -1.96875q0 -0.359375 -0.125 -0.625q-0.125 -0.265625 -0.359375 -0.4375q-0.21875 -0.171875 -0.53125 -0.265625q-0.3125 -0.09375 -0.671875 -0.09375q-0.390625 0 -0.703125 0.109375q-0.3125 0.109375 -0.515625 0.296875q-0.21875 0.171875 -0.34375 0.40625q-0.109375 0.21875 -0.109375 0.4375l0.71875 0q0 -0.125 0.0625 -0.25q0.0625 -0.125 0.1875 -0.21875q0.109375 -0.078125 0.28125 -0.125q0.171875 -0.0625 0.390625 -0.0625q0.234375 0 0.40625 0.0625q0.1875 0.046875 0.328125 0.15625q0.125 0.109375 0.1875 0.265625q0.078125 0.140625 0.078125 0.34375l0 0.328125l-0.796875 0q-0.4375 0 -0.796875 0.09375q-0.359375 0.078125 -0.609375 0.25q-0.25 0.171875 -0.390625 0.4375q-0.140625 0.265625 -0.140625 0.609375q0 0.265625 0.09375 0.5q0.109375 0.21875 0.3125 0.390625q0.1875 0.15625 0.453125 0.265625q0.265625 0.09375 0.609375 0.09375q0.203125 0 0.390625 -0.046875q0.1875 -0.046875 0.34375 -0.109375q0.15625 -0.078125 0.296875 -0.171875q0.140625 -0.109375 0.25 -0.21875q0 0.140625 0.03125 0.265625q0.03125 0.125 0.0625 0.203125zm-1.265625 -0.546875q-0.21875 0 -0.375 -0.046875q-0.15625 -0.0625 -0.265625 -0.171875q-0.109375 -0.09375 -0.171875 -0.21875q-0.046875 -0.140625 -0.046875 -0.296875q0 -0.15625 0.0625 -0.28125q0.0625 -0.140625 0.1875 -0.234375q0.15625 -0.125 0.4375 -0.1875q0.28125 -0.0625 0.65625 -0.0625l0.671875 0l0 0.84375q-0.0625 0.125 -0.171875 0.25q-0.109375 0.109375 -0.265625 0.203125q-0.140625 0.09375 -0.328125 0.15625q-0.1875 0.046875 -0.390625 0.046875zm6.5976562 -0.21875l0 -0.765625l-2.390625 -0.921875l-0.21875 -0.078125l0.21875 -0.0625l2.390625 -0.9375l0 -0.765625l-3.3125 1.484375l0 0.5625l3.3125 1.484375zm5.0820312 -1.296875l0 -0.09375q0 -0.328125 -0.0625 -0.625q-0.046875 -0.296875 -0.15625 -0.546875q-0.09375 -0.21875 -0.234375 -0.390625q-0.125 -0.1875 -0.296875 -0.3125q-0.1875 -0.125 -0.421875 -0.203125q-0.234375 -0.078125 -0.5 -0.078125q-0.21875 0 -0.40625 0.046875q-0.1875 0.046875 -0.34375 0.125q-0.125 0.0625 -0.234375 0.15625q-0.109375 0.09375 -0.203125 0.203125l0 -2.21875l-0.71875 0l0 6.0l0.65625 0l0.046875 -0.484375q0.0625 0.09375 0.140625 0.171875q0.078125 0.0625 0.171875 0.125q0.171875 0.125 0.390625 0.1875q0.234375 0.078125 0.5 0.078125q0.25 0 0.453125 -0.0625q0.203125 -0.0625 0.375 -0.15625q0.234375 -0.15625 0.40625 -0.390625q0.171875 -0.234375 0.28125 -0.53125q0.078125 -0.21875 0.109375 -0.46875q0.046875 -0.265625 0.046875 -0.53125zm-0.71875 -0.09375l0 0.09375q0 0.1875 -0.03125 0.375q-0.015625 0.171875 -0.078125 0.328125q-0.0625 0.203125 -0.171875 0.375q-0.09375 0.15625 -0.25 0.265625q-0.125 0.09375 -0.28125 0.140625q-0.140625 0.046875 -0.3125 0.046875q-0.1875 0 -0.34375 -0.046875q-0.15625 -0.0625 -0.28125 -0.140625q-0.125 -0.09375 -0.21875 -0.203125q-0.09375 -0.125 -0.171875 -0.265625l0 -1.859375q0.0625 -0.140625 0.15625 -0.25q0.109375 -0.125 0.234375 -0.21875q0.109375 -0.078125 0.265625 -0.125q0.15625 -0.046875 0.34375 -0.046875q0.171875 0 0.3125 0.046875q0.140625 0.03125 0.265625 0.09375q0.15625 0.09375 0.265625 0.265625q0.125 0.171875 0.1875 0.390625q0.046875 0.15625 0.078125 0.359375q0.03125 0.1875 0.03125 0.375zm3.2539062 0.546875l0.71875 0q0 -0.140625 0 -0.265625q0.015625 -0.125 0.046875 -0.21875q0.03125 -0.109375 0.09375 -0.203125q0.0625 -0.109375 0.1875 -0.21875q0.1875 -0.171875 0.375 -0.359375q0.1875 -0.1875 0.34375 -0.421875q0.140625 -0.21875 0.234375 -0.453125q0.109375 -0.25 0.109375 -0.53125q0 -0.359375 -0.125 -0.625q-0.109375 -0.28125 -0.3125 -0.46875q-0.21875 -0.1875 -0.53125 -0.28125q-0.3125 -0.109375 -0.703125 -0.109375q-0.359375 0 -0.671875 0.09375q-0.296875 0.09375 -0.515625 0.28125q-0.234375 0.171875 -0.375 0.4375q-0.125 0.265625 -0.125 0.59375l0.71875 0q0 -0.203125 0.078125 -0.34375q0.09375 -0.15625 0.21875 -0.25q0.140625 -0.09375 0.3125 -0.140625q0.171875 -0.046875 0.359375 -0.046875q0.234375 0 0.421875 0.0625q0.1875 0.0625 0.296875 0.1875q0.109375 0.109375 0.171875 0.265625q0.0625 0.15625 0.0625 0.359375q0 0.203125 -0.078125 0.375q-0.078125 0.171875 -0.1875 0.328125q-0.125 0.15625 -0.265625 0.3125q-0.125 0.140625 -0.265625 0.28125q-0.1875 0.171875 -0.3125 0.3125q-0.109375 0.125 -0.171875 0.265625q-0.0625 0.140625 -0.09375 0.328125q-0.015625 0.171875 -0.015625 0.453125zm-0.078125 1.234375q0 0.171875 0.109375 0.296875q0.109375 0.125 0.328125 0.125q0.21875 0 0.328125 -0.125q0.125 -0.125 0.125 -0.296875q0 -0.1875 -0.125 -0.3125q-0.109375 -0.125 -0.328125 -0.125q-0.21875 0 -0.328125 0.125q-0.109375 0.125 -0.109375 0.3125z" fill-rule="nonzero"/><path fill="#000000" fill-opacity="0.0" d="m107.98425 113.02887l41.790253 0l0 0.06299591l41.800293 0" fill-rule="evenodd"/><path stroke="#000000" stroke-width="1.0" stroke-linejoin="round" stroke-linecap="butt" d="m107.98425 113.02887l41.790268 0l0 0.06299591l35.800278 0" fill-rule="evenodd"/><path fill="#000000" stroke="#000000" stroke-width="1.0" stroke-linecap="butt" d="m185.5748 114.7436l4.538101 -1.6517334l-4.538101 -1.6517334z" fill-rule="evenodd"/><path fill="#000000" fill-opacity="0.0" d="m107.98425 113.02887l60.272964 0l0 -48.0l23.317581 0" fill-rule="evenodd"/><path stroke="#000000" stroke-width="1.0" stroke-linejoin="round" stroke-linecap="butt" d="m107.98425 113.02887l60.272964 0l0 -48.0l17.317581 0" fill-rule="evenodd"/><path fill="#000000" stroke="#000000" stroke-width="1.0" stroke-linecap="butt" d="m185.5748 66.6806l4.538101 -1.6517334l-4.538101 -1.6517296z" fill-rule="evenodd"/><path fill="#000000" fill-opacity="0.0" d="m107.98425 113.02887l60.564926 0l0 -92.81889l231.62404 0" fill-rule="evenodd"/><path stroke="#000000" stroke-width="1.0" stroke-linejoin="round" stroke-linecap="butt" d="m107.98425 113.02887l60.564926 0l0 -92.81889l225.62404 0" fill-rule="evenodd"/><path fill="#000000" stroke="#000000" stroke-width="1.0" stroke-linecap="butt" d="m394.17322 21.861706l4.5381165 -1.6517315l-4.5381165 -1.6517334z" fill-rule="evenodd"/></g></svg>