<svg version="1.1" viewBox="0.0 0.0 766.3333333333334 204.5564304461942" fill="none" stroke="none" stroke-linecap="square" stroke-miterlimit="10" xmlns:xlink="http://www.w3.org/1999/xlink" xmlns="http://www.w3.org/2000/svg"><clipPath id="p.0"><path d="m0 0l766.3333 0l0 204.55643l-766.3333 0l0 -204.55643z" clip-rule="nonzero"/></clipPath><g clip-path="url(#p.0)"><path fill="#000000" fill-opacity="0.0" d="m0 0l766.3333 0l0 204.55643l-766.3333 0z" fill-rule="evenodd"/><path fill="#f3f3f3" d="m0 0l768.0 0l0 208.0l-768.0 0z" fill-rule="evenodd"/><defs><linearGradient id="p.1" gradientUnits="userSpaceOnUse" gradientTransform="matrix(10.954599494696131 0.0 0.0 10.954599494696131 0.0 0.0)" spreadMethod="pad" x1="52.58065347609293" y1="15.336320617048832" x2="52.58077327380517" y2="4.381721123007744"><stop offset="0.0" stop-color="#ffffff"/><stop offset="1.0" stop-color="#b3b3b3"/></linearGradient></defs><path fill="url(#p.1)" d="m280.0 48.0l296.0 0l0 120.0l-296.0 0z" fill-rule="evenodd"/><path fill="#000000" fill-opacity="0.0" d="m106.36796 53.34983l0 11.433075" fill-rule="evenodd"/><path stroke="#000000" stroke-width="1.0" stroke-linejoin="round" stroke-linecap="butt" d="m106.36796 53.34983l0 5.433071" fill-rule="evenodd"/><path fill="#000000" stroke="#000000" stroke-width="1.0" stroke-linecap="butt" d="m104.716225 58.7829l1.6517334 4.5380974l1.6517334 -4.5380974z" fill-rule="evenodd"/><path fill="#000000" fill-opacity="0.0" d="m124.735916 53.34983l0 11.433075" fill-rule="evenodd"/><path stroke="#000000" stroke-width="1.0" stroke-linejoin="round" stroke-linecap="butt" d="m124.735916 53.34983l0 5.433071" fill-rule="evenodd"/><path fill="#000000" stroke="#000000" stroke-width="1.0" stroke-linecap="butt" d="m123.08418 58.7829l1.6517334 4.5380974l1.6517258 -4.5380974z" fill-rule="evenodd"/><path fill="#000000" fill-opacity="0.0" d="m143.10387 53.34983l0 11.433075" fill-rule="evenodd"/><path stroke="#000000" stroke-width="1.0" stroke-linejoin="round" stroke-linecap="butt" d="m143.10387 53.34983l0 5.433071" fill-rule="evenodd"/><path fill="#000000" stroke="#000000" stroke-width="1.0" stroke-linecap="butt" d="m141.45213 58.7829l1.6517334 4.5380974l1.6517334 -4.5380974z" fill-rule="evenodd"/><path fill="#000000" fill-opacity="0.0" d="m161.47183 53.34983l0 11.433075" fill-rule="evenodd"/><path stroke="#000000" stroke-width="1.0" stroke-linejoin="round" stroke-linecap="butt" d="m161.47183 53.34983l0 5.433071" fill-rule="evenodd"/><path fill="#000000" stroke="#000000" stroke-width="1.0" stroke-linecap="butt" d="m159.8201 58.7829l1.6517334 4.5380974l1.6517334 -4.5380974z" fill-rule="evenodd"/><path fill="#000000" fill-opacity="0.0" d="m179.83978 53.34983l0 11.433075" fill-rule="evenodd"/><path stroke="#000000" stroke-width="1.0" stroke-linejoin="round" stroke-linecap="butt" d="m179.8398 53.34983l0 5.433071" fill-rule="evenodd"/><path fill="#000000" stroke="#000000" stroke-width="1.0" stroke-linecap="butt" d="m178.18806 58.7829l1.6517334 4.5380974l1.6517334 -4.5380974z" fill-rule="evenodd"/><path fill="#000000" fill-opacity="0.0" d="m198.20775 53.34983l0 11.433075" fill-rule="evenodd"/><path stroke="#000000" stroke-width="1.0" stroke-linejoin="round" stroke-linecap="butt" d="m198.20773 53.34983l0 5.433071" fill-rule="evenodd"/><path fill="#000000" stroke="#000000" stroke-width="1.0" stroke-linecap="butt" d="m196.556 58.7829l1.6517334 4.5380974l1.6517334 -4.5380974z" fill-rule="evenodd"/><path fill="#000000" fill-opacity="0.0" d="m216.5757 53.34983l0 11.433075" fill-rule="evenodd"/><path stroke="#000000" stroke-width="1.0" stroke-linejoin="round" stroke-linecap="butt" d="m216.5757 53.34983l0 5.433071" fill-rule="evenodd"/><path fill="#000000" stroke="#000000" stroke-width="1.0" stroke-linecap="butt" d="m214.92397 58.7829l1.6517334 4.5380974l1.6517334 -4.5380974z" fill-rule="evenodd"/><path fill="#000000" fill-opacity="0.0" d="m234.94366 53.34983l0 11.433075" fill-rule="evenodd"/><path stroke="#000000" stroke-width="1.0" stroke-linejoin="round" stroke-linecap="butt" d="m234.94365 53.34983l0 5.433071" fill-rule="evenodd"/><path fill="#000000" stroke="#000000" stroke-width="1.0" stroke-linecap="butt" d="m233.29192 58.7829l1.6517334 4.5380974l1.6517334 -4.5380974z" fill-rule="evenodd"/><path fill="#000000" fill-opacity="0.0" d="m253.31161 53.34983l0 11.433075" fill-rule="evenodd"/><path stroke="#000000" stroke-width="1.0" stroke-linejoin="round" stroke-linecap="butt" d="m253.31161 53.34983l0 5.433071" fill-rule="evenodd"/><path fill="#000000" stroke="#000000" stroke-width="1.0" stroke-linecap="butt" d="m251.65988 58.7829l1.6517334 4.5380974l1.6517334 -4.5380974z" fill-rule="evenodd"/><path fill="#000000" fill-opacity="0.0" d="m271.67957 53.34983l0 11.433075" fill-rule="evenodd"/><path stroke="#000000" stroke-width="1.0" stroke-linejoin="round" stroke-linecap="butt" d="m271.67957 53.34983l0 5.433071" fill-rule="evenodd"/><path fill="#000000" stroke="#000000" stroke-width="1.0" stroke-linecap="butt" d="m270.02783 58.7829l1.6517334 4.5380974l1.6517334 -4.5380974z" fill-rule="evenodd"/><path fill="#000000" fill-opacity="0.0" d="m290.04755 53.34983l0 11.433075" fill-rule="evenodd"/><path stroke="#000000" stroke-width="1.0" stroke-linejoin="round" stroke-linecap="butt" d="m290.04755 53.34983l0 5.433071" fill-rule="evenodd"/><path fill="#000000" stroke="#000000" stroke-width="1.0" stroke-linecap="butt" d="m288.3958 58.7829l1.6517334 4.5380974l1.6517029 -4.5380974z" fill-rule="evenodd"/><path fill="#000000" fill-opacity="0.0" d="m308.4155 53.34983l0 11.433075" fill-rule="evenodd"/><path stroke="#000000" stroke-width="1.0" stroke-linejoin="round" stroke-linecap="butt" d="m308.4155 53.34983l0 5.433071" fill-rule="evenodd"/><path fill="#000000" stroke="#000000" stroke-width="1.0" stroke-linecap="butt" d="m306.76376 58.7829l1.6517334 4.5380974l1.6517334 -4.5380974z" fill-rule="evenodd"/><path fill="#000000" fill-opacity="0.0" d="m326.78345 53.34983l0 11.433075" fill-rule="evenodd"/><path stroke="#000000" stroke-width="1.0" stroke-linejoin="round" stroke-linecap="butt" d="m326.78345 53.34983l0 5.433071" fill-rule="evenodd"/><path fill="#000000" stroke="#000000" stroke-width="1.0" stroke-linecap="butt" d="m325.1317 58.7829l1.6517334 4.5380974l1.6517334 -4.5380974z" fill-rule="evenodd"/><path fill="#000000" fill-opacity="0.0" d="m0 39.59055l96.0 0l0 40.40945l-96.0 0z" fill-rule="evenodd"/><path fill="#000000" d="m17.444351 63.902424l0 -10.984375l-1.5625 0l0 12.312504l7.59375 0l0 -1.3281288l-6.03125 0zm16.617325 -2.375l-1.5625 0q-0.078125 0.5625 -0.265625 1.046875q-0.1875 0.46875 -0.5 0.8125q-0.3125 0.359375 -0.765625 0.5625q-0.453125 0.18750381 -1.078125 0.18750381q-0.5625 0 -0.984375 -0.18750381q-0.421875 -0.1875 -0.734375 -0.5q-0.3125 -0.3125 -0.515625 -0.71875q-0.203125 -0.421875 -0.328125 -0.90625q-0.125 -0.453125 -0.1875 -0.9375q-0.046875 -0.5 -0.046875 -0.953125l0 -1.734375q0 -0.453125 0.046875 -0.9375q0.0625 -0.5 0.1875 -0.953125q0.125 -0.46875 0.328125 -0.875q0.203125 -0.421875 0.53125 -0.734375q0.296875 -0.3125 0.71875 -0.484375q0.4375 -0.1875 0.984375 -0.1875q0.625 0 1.078125 0.203125q0.453125 0.203125 0.765625 0.5625q0.3125 0.375 0.5 0.859375q0.1875 0.46875 0.265625 1.03125l1.5625 0q-0.109375 -0.875 -0.421875 -1.59375q-0.3125 -0.734375 -0.84375 -1.265625q-0.515625 -0.515625 -1.25 -0.796875q-0.734375 -0.28125 -1.65625 -0.28125q-0.765625 0 -1.390625 0.21875q-0.609375 0.203125 -1.09375 0.59375q-0.484375 0.375 -0.84375 0.90625q-0.34375 0.515625 -0.578125 1.125q-0.234375 0.609375 -0.359375 1.28125q-0.109375 0.65625 -0.109375 1.34375l0 1.71875q0 0.6875 0.109375 1.359375q0.125 0.65625 0.359375 1.265625q0.234375 0.609375 0.578125 1.125q0.359375 0.5156288 0.84375 0.9062538q0.484375 0.375 1.109375 0.59375q0.625 0.21875 1.375 0.21875q0.890625 0 1.609375 -0.28125q0.734375 -0.28125 1.265625 -0.796875q0.53125 -0.5156288 0.859375 -1.2187538q0.328125 -0.71875 0.4375 -1.578125zm2.2579498 3.7031288l2.84375 0q0.890625 -0.015625 1.65625 -0.21875q0.765625 -0.203125 1.375 -0.578125q0.578125 -0.359375 1.046875 -0.8750038q0.46875 -0.515625 0.765625 -1.15625q0.296875 -0.609375 0.453125 -1.328125q0.15625 -0.734375 0.15625 -1.546875l0 -0.90625q0 -0.84375 -0.171875 -1.578125q-0.171875 -0.75 -0.484375 -1.375q-0.34375 -0.75 -0.921875 -1.3125q-0.578125 -0.5625 -1.328125 -0.90625q-0.546875 -0.25 -1.1875 -0.390625q-0.640625 -0.140625 -1.359375 -0.140625l-2.84375 0l0 12.312504zm1.59375 -11.031254l1.25 0q0.59375 0 1.078125 0.125q0.5 0.125 0.890625 0.34375q0.5625 0.296875 0.9375 0.78125q0.390625 0.46875 0.625 1.0625q0.171875 0.453125 0.25 0.984375q0.09375 0.53125 0.109375 1.109375l0 0.921875q-0.015625 0.5625 -0.09375 1.09375q-0.078125 0.515625 -0.25 0.96875q-0.203125 0.546875 -0.53125 1.0q-0.328125 0.4375 -0.796875 0.734375q-0.421875 0.296875 -0.984375 0.46875q-0.546875 0.15625 -1.234375 0.15625l-1.25 0l0 -9.75zm16.554825 12.312504l0 -1.28125l-7.75 0l0 1.28125l7.75 0zm10.7892 -4.984379l-1.5625 0q-0.078125 0.5625 -0.265625 1.046875q-0.1875 0.46875 -0.5 0.8125q-0.3125 0.359375 -0.765625 0.5625q-0.453125 0.18750381 -1.078125 0.18750381q-0.5625 0 -0.984375 -0.18750381q-0.421875 -0.1875 -0.734375 -0.5q-0.3125 -0.3125 -0.515625 -0.71875q-0.203125 -0.421875 -0.328125 -0.90625q-0.125 -0.453125 -0.1875 -0.9375q-0.046875 -0.5 -0.046875 -0.953125l0 -1.734375q0 -0.453125 0.046875 -0.9375q0.0625 -0.5 0.1875 -0.953125q0.125 -0.46875 0.328125 -0.875q0.203125 -0.421875 0.53125 -0.734375q0.296875 -0.3125 0.71875 -0.484375q0.4375 -0.1875 0.984375 -0.1875q0.625 0 1.078125 0.203125q0.453125 0.203125 0.765625 0.5625q0.3125 0.375 0.5 0.859375q0.1875 0.46875 0.265625 1.03125l1.5625 0q-0.109375 -0.875 -0.421875 -1.59375q-0.3125 -0.734375 -0.84375 -1.265625q-0.515625 -0.515625 -1.25 -0.796875q-0.734375 -0.28125 -1.65625 -0.28125q-0.765625 0 -1.390625 0.21875q-0.609375 0.203125 -1.09375 0.59375q-0.484375 0.375 -0.84375 0.90625q-0.34375 0.515625 -0.578125 1.125q-0.234375 0.609375 -0.359375 1.28125q-0.109375 0.65625 -0.109375 1.34375l0 1.71875q0 0.6875 0.109375 1.359375q0.125 0.65625 0.359375 1.265625q0.234375 0.609375 0.578125 1.125q0.359375 0.5156288 0.84375 0.9062538q0.484375 0.375 1.109375 0.59375q0.625 0.21875 1.375 0.21875q0.890625 0 1.609375 -0.28125q0.734375 -0.28125 1.265625 -0.796875q0.53125 -0.5156288 0.859375 -1.2187538q0.328125 -0.71875 0.4375 -1.578125zm4.179825 2.375l0 -10.984375l-1.5625 0l0 12.312504l7.59375 0l0 -1.3281288l-6.03125 0zm11.586075 -4.390625l3.71875 5.718754l1.90625 0l-4.59375 -6.921879l4.3125 -5.390625l-1.90625 0l-3.609375 4.515625l-1.203125 1.5l0 -6.015625l-1.59375 0l0 12.312504l1.59375 0l0 -4.156254l1.375 -1.5625z" fill-rule="nonzero"/><path fill="#000000" fill-opacity="0.0" d="m88.0 65.92126l9.184799 0l0 -15.999996l9.184799 0l0 15.999996l9.184799 0l0 -15.999996l9.184799 0l0 15.999996l9.184799 0l0 -15.999996l9.184799 0l0 15.999996l9.184799 0l0 -15.999996l9.184799 0l0 15.999996l9.184799 0l0 -15.999996l9.184814 0l0 15.999996l9.184799 0l0 -15.999996l9.184799 0l0 15.999996l9.184799 0l0 -15.999996l9.184799 0l0 15.999996l9.184799 0l0 -15.999996l9.184799 0l0 15.999996l9.184799 0l0 -15.999996l9.184799 0l0 15.999996l9.184799 0l0 -15.999996l9.184814 0l0 15.999996l9.184784 0l0 -15.999996l9.184814 0l0 15.999996l9.184784 0l0 -15.999996l9.184814 0l0 15.999996l9.184784 0l0 -15.999996l9.184814 0l0 15.999996l9.184784 0" fill-rule="evenodd"/><path stroke="#000000" stroke-width="2.0" stroke-linejoin="round" stroke-linecap="butt" d="m88.0 65.92126l9.184799 0l0 -15.999996l9.184799 0l0 15.999996l9.184799 0l0 -15.999996l9.184799 0l0 15.999996l9.184799 0l0 -15.999996l9.184799 0l0 15.999996l9.184799 0l0 -15.999996l9.184799 0l0 15.999996l9.184799 0l0 -15.999996l9.184814 0l0 15.999996l9.184799 0l0 -15.999996l9.184799 0l0 15.999996l9.184799 0l0 -15.999996l9.184799 0l0 15.999996l9.184799 0l0 -15.999996l9.184799 0l0 15.999996l9.184799 0l0 -15.999996l9.184799 0l0 15.999996l9.184799 0l0 -15.999996l9.184814 0l0 15.999996l9.184784 0l0 -15.999996l9.184814 0l0 15.999996l9.184784 0l0 -15.999996l9.184814 0l0 15.999996l9.184784 0l0 -15.999996l9.184814 0l0 15.999996l9.184784 0" fill-rule="evenodd"/><path fill="#000000" fill-opacity="0.0" d="m88.0 72.0l64.0 0l0 48.472443l-64.0 0z" fill-rule="evenodd"/><path fill="#000000" d="m102.765625 88.75438l0 -0.921875l-3.546875 0l0 -2.921875l4.140625 0l0 -0.921875l-5.234375 0l0 8.53125l1.09375 0l0 -3.765625l3.546875 0zm6.607422 -2.6875q-0.6875 0 -1.234375 0.296875q-0.53125 0.296875 -0.921875 0.828125l-0.015625 -0.15625l-0.046875 -0.859375l-1.03125 0l0 6.34375l1.09375 0l0 -4.0625q0.109375 -0.296875 0.265625 -0.53125q0.171875 -0.234375 0.375 -0.40625q0.25 -0.1875 0.5625 -0.28125q0.328125 -0.09375 0.734375 -0.09375q0.296875 0 0.578125 0.03125q0.296875 0.03125 0.609375 0.09375l0.140625 -1.0625q-0.15625 -0.0625 -0.484375 -0.09375q-0.328125 -0.046875 -0.625 -0.046875zm2.7480469 3.21875l0 0.140625q0 0.671875 0.1875 1.265625q0.203125 0.578125 0.578125 1.015625q0.375 0.4375 0.90625 0.6875q0.546875 0.25 1.21875 0.25q0.65625 0 1.1875 -0.25q0.546875 -0.25 0.921875 -0.6875q0.359375 -0.4375 0.5625 -1.015625q0.203125 -0.59375 0.203125 -1.265625l0 -0.140625q0 -0.6875 -0.203125 -1.265625q-0.203125 -0.59375 -0.5625 -1.03125q-0.375 -0.421875 -0.921875 -0.671875q-0.53125 -0.25 -1.203125 -0.25q-0.671875 0 -1.203125 0.25q-0.53125 0.25 -0.90625 0.671875q-0.375 0.4375 -0.578125 1.03125q-0.1875 0.578125 -0.1875 1.265625zm1.078125 0.140625l0 -0.140625q0 -0.453125 0.109375 -0.875q0.109375 -0.4375 0.34375 -0.75q0.21875 -0.328125 0.546875 -0.515625q0.34375 -0.1875 0.796875 -0.1875q0.453125 0 0.78125 0.1875q0.34375 0.1875 0.578125 0.515625q0.21875 0.3125 0.328125 0.75q0.109375 0.421875 0.109375 0.875l0 0.140625q0 0.46875 -0.109375 0.890625q-0.109375 0.421875 -0.328125 0.75q-0.234375 0.3125 -0.578125 0.5q-0.328125 0.1875 -0.765625 0.1875q-0.453125 0 -0.796875 -0.1875q-0.34375 -0.1875 -0.5625 -0.5q-0.234375 -0.328125 -0.34375 -0.75q-0.109375 -0.421875 -0.109375 -0.890625zm6.419922 3.09375l1.09375 0l0 -4.546875q0.109375 -0.203125 0.25 -0.375q0.15625 -0.171875 0.328125 -0.296875q0.21875 -0.15625 0.46875 -0.234375q0.265625 -0.078125 0.5625 -0.078125q0.34375 0 0.609375 0.078125q0.265625 0.078125 0.453125 0.265625q0.1875 0.171875 0.28125 0.46875q0.09375 0.296875 0.09375 0.71875l0 4.0l1.078125 0l0 -4.03125q0 -0.625 -0.15625 -1.078125q-0.140625 -0.46875 -0.4375 -0.765625q-0.28125 -0.296875 -0.6875 -0.4375q-0.40625 -0.140625 -0.90625 -0.140625q-0.375 0 -0.703125 0.109375q-0.328125 0.09375 -0.609375 0.28125q-0.1875 0.125 -0.359375 0.296875q-0.171875 0.15625 -0.3125 0.359375l-0.0625 -0.9375l-0.984375 0l0 6.34375zm9.779297 -7.875l-1.09375 0l0 1.53125l-1.671875 0l0 0.84375l1.671875 0l0 3.4375q0 0.59375 0.15625 1.015625q0.15625 0.40625 0.421875 0.65625q0.265625 0.265625 0.625 0.390625q0.375 0.125 0.796875 0.125q0.25 0 0.5 -0.03125q0.265625 -0.015625 0.484375 -0.0625q0.234375 -0.046875 0.421875 -0.109375q0.203125 -0.0625 0.328125 -0.140625l-0.140625 -0.765625q-0.109375 0.015625 -0.265625 0.046875q-0.15625 0.03125 -0.328125 0.0625q-0.171875 0.03125 -0.359375 0.0625q-0.1875 0.015625 -0.375 0.015625q-0.234375 0 -0.453125 -0.0625q-0.203125 -0.0625 -0.375 -0.203125q-0.15625 -0.140625 -0.25 -0.375q-0.09375 -0.25 -0.09375 -0.625l0 -3.4375l2.40625 0l0 -0.84375l-2.40625 0l0 -1.53125z" fill-rule="nonzero"/><path fill="#000000" d="m99.203125 103.49812l1.6875 0q0.5625 0 1.078125 -0.171875q0.515625 -0.171875 0.90625 -0.5q0.390625 -0.3125 0.609375 -0.78125q0.21875 -0.484375 0.21875 -1.09375q0 -0.625 -0.21875 -1.09375q-0.21875 -0.46875 -0.609375 -0.796875q-0.390625 -0.328125 -0.90625 -0.484375q-0.515625 -0.171875 -1.078125 -0.1875l-2.765625 0l0 8.53125l1.078125 0l0 -3.421875zm0 -0.890625l0 -3.328125l1.6875 0q0.375 0 0.6875 0.125q0.328125 0.109375 0.5625 0.328125q0.21875 0.21875 0.34375 0.53125q0.140625 0.3125 0.140625 0.703125q0 0.375 -0.140625 0.6875q-0.125 0.296875 -0.359375 0.5q-0.234375 0.21875 -0.546875 0.34375q-0.3125 0.109375 -0.6875 0.109375l-1.6875 0zm5.716797 1.078125l0 0.140625q0 0.671875 0.1875 1.265625q0.203125 0.578125 0.578125 1.015625q0.375 0.4375 0.90625 0.6875q0.546875 0.25 1.21875 0.25q0.65625 0 1.1875 -0.25q0.546875 -0.25 0.921875 -0.6875q0.359375 -0.4375 0.5625 -1.015625q0.203125 -0.59375 0.203125 -1.265625l0 -0.140625q0 -0.6875 -0.203125 -1.265625q-0.203125 -0.59375 -0.5625 -1.03125q-0.375 -0.421875 -0.921875 -0.671875q-0.53125 -0.25 -1.203125 -0.25q-0.671875 0 -1.203125 0.25q-0.53125 0.25 -0.90625 0.671875q-0.375 0.4375 -0.578125 1.03125q-0.1875 0.578125 -0.1875 1.265625zm1.078125 0.140625l0 -0.140625q0 -0.453125 0.109375 -0.875q0.109375 -0.4375 0.34375 -0.75q0.21875 -0.328125 0.546875 -0.515625q0.34375 -0.1875 0.796875 -0.1875q0.453125 0 0.78125 0.1875q0.34375 0.1875 0.578125 0.515625q0.21875 0.3125 0.328125 0.75q0.109375 0.421875 0.109375 0.875l0 0.140625q0 0.46875 -0.109375 0.890625q-0.109375 0.421875 -0.328125 0.75q-0.234375 0.3125 -0.578125 0.5q-0.328125 0.1875 -0.765625 0.1875q-0.453125 0 -0.796875 -0.1875q-0.34375 -0.1875 -0.5625 -0.5q-0.234375 -0.328125 -0.34375 -0.75q-0.109375 -0.421875 -0.109375 -0.890625zm10.576172 -3.359375q-0.6875 0 -1.234375 0.296875q-0.53125 0.296875 -0.921875 0.828125l-0.015625 -0.15625l-0.046875 -0.859375l-1.03125 0l0 6.34375l1.09375 0l0 -4.0625q0.109375 -0.296875 0.265625 -0.53125q0.171875 -0.234375 0.375 -0.40625q0.25 -0.1875 0.5625 -0.28125q0.328125 -0.09375 0.734375 -0.09375q0.296875 0 0.578125 0.03125q0.296875 0.03125 0.609375 0.09375l0.140625 -1.0625q-0.15625 -0.0625 -0.484375 -0.09375q-0.328125 -0.046875 -0.625 -0.046875zm5.748047 5.6875q-0.5 0 -0.84375 -0.203125q-0.34375 -0.203125 -0.546875 -0.53125q-0.21875 -0.3125 -0.3125 -0.71875q-0.09375 -0.40625 -0.09375 -0.828125l0 -0.25q0 -0.40625 0.09375 -0.8125q0.09375 -0.40625 0.3125 -0.734375q0.203125 -0.3125 0.546875 -0.515625q0.34375 -0.203125 0.84375 -0.203125q0.328125 0 0.609375 0.109375q0.296875 0.109375 0.5 0.296875q0.203125 0.203125 0.3125 0.453125q0.125 0.25 0.140625 0.546875l1.015625 0q0 -0.484375 -0.203125 -0.90625q-0.1875 -0.421875 -0.515625 -0.734375q-0.34375 -0.296875 -0.828125 -0.46875q-0.46875 -0.1875 -1.03125 -0.1875q-0.71875 0 -1.265625 0.265625q-0.53125 0.25 -0.890625 0.671875q-0.359375 0.453125 -0.546875 1.03125q-0.171875 0.5625 -0.171875 1.1875l0 0.25q0 0.625 0.171875 1.203125q0.1875 0.578125 0.546875 1.0q0.359375 0.4375 0.890625 0.703125q0.546875 0.265625 1.265625 0.265625q0.5 0 0.96875 -0.171875q0.46875 -0.1875 0.828125 -0.46875q0.34375 -0.296875 0.5625 -0.671875q0.21875 -0.390625 0.21875 -0.8125l-1.015625 0q-0.015625 0.265625 -0.15625 0.5q-0.125 0.21875 -0.34375 0.375q-0.203125 0.171875 -0.484375 0.265625q-0.28125 0.09375 -0.578125 0.09375zm5.591797 -4.625l0 -3.609375l-1.09375 0l0 9.0l1.09375 0l0 -4.609375q0.109375 -0.1875 0.25 -0.34375q0.15625 -0.15625 0.34375 -0.265625q0.21875 -0.15625 0.484375 -0.234375q0.265625 -0.078125 0.546875 -0.078125q0.359375 -0.015625 0.625 0.09375q0.28125 0.09375 0.46875 0.296875q0.171875 0.1875 0.25 0.484375q0.09375 0.28125 0.09375 0.65625l0 4.0l1.09375 0l0 -3.984375q0 -0.640625 -0.15625 -1.109375q-0.15625 -0.46875 -0.453125 -0.765625q-0.28125 -0.3125 -0.6875 -0.453125q-0.40625 -0.140625 -0.90625 -0.140625q-0.375 0 -0.71875 0.109375q-0.34375 0.109375 -0.625 0.3125q-0.171875 0.125 -0.328125 0.28125q-0.15625 0.15625 -0.28125 0.359375z" fill-rule="nonzero"/><path fill="#000000" fill-opacity="0.0" d="m152.0 71.52756l56.0 0l0 48.472443l-56.0 0z" fill-rule="evenodd"/><path fill="#000000" d="m171.08203 89.89131q0 0.34375 -0.15625 0.609375q-0.140625 0.25 -0.390625 0.421875q-0.234375 0.15625 -0.546875 0.25q-0.3125 0.078125 -0.625 0.078125q-0.390625 0 -0.734375 -0.109375q-0.328125 -0.109375 -0.59375 -0.328125q-0.25 -0.21875 -0.421875 -0.515625q-0.15625 -0.3125 -0.21875 -0.71875l-1.109375 0q0.015625 0.5625 0.234375 1.015625q0.234375 0.4375 0.625 0.765625q0.4375 0.390625 1.015625 0.609375q0.59375 0.203125 1.203125 0.203125q0.515625 0 1.015625 -0.140625q0.515625 -0.15625 0.921875 -0.4375q0.40625 -0.28125 0.65625 -0.703125q0.25 -0.4375 0.25 -1.015625q0 -0.5625 -0.234375 -1.0q-0.234375 -0.4375 -0.625 -0.734375q-0.390625 -0.3125 -0.875 -0.515625q-0.46875 -0.21875 -0.9375 -0.359375q-0.28125 -0.09375 -0.609375 -0.203125q-0.328125 -0.125 -0.609375 -0.296875q-0.28125 -0.1875 -0.46875 -0.4375q-0.171875 -0.25 -0.171875 -0.625q0 -0.34375 0.125 -0.59375q0.140625 -0.265625 0.375 -0.4375q0.234375 -0.171875 0.53125 -0.25q0.296875 -0.09375 0.609375 -0.09375q0.390625 0 0.6875 0.125q0.3125 0.109375 0.53125 0.328125q0.21875 0.21875 0.359375 0.515625q0.140625 0.296875 0.1875 0.671875l1.109375 0q-0.015625 -0.578125 -0.265625 -1.046875q-0.234375 -0.484375 -0.625 -0.828125q-0.40625 -0.328125 -0.921875 -0.515625q-0.515625 -0.1875 -1.0625 -0.1875q-0.5 0 -1.0 0.15625q-0.5 0.15625 -0.890625 0.453125q-0.390625 0.3125 -0.640625 0.75q-0.25 0.421875 -0.25 0.96875q0 0.5625 0.25 0.96875q0.25 0.40625 0.625 0.703125q0.390625 0.296875 0.84375 0.5q0.46875 0.203125 0.921875 0.359375q0.3125 0.09375 0.640625 0.21875q0.34375 0.125 0.625 0.296875q0.28125 0.1875 0.453125 0.46875q0.1875 0.265625 0.1875 0.65625zm3.2480469 4.71875q0.421875 0 0.75 -0.15625q0.328125 -0.15625 0.578125 -0.390625q0.25 -0.234375 0.421875 -0.515625q0.171875 -0.28125 0.28125 -0.515625l3.21875 -7.328125l-1.21875 0l-1.625 4.109375l-0.296875 0.75l-0.28125 -0.765625l-1.75 -4.09375l-1.203125 0l2.71875 6.046875l-0.421875 0.84375q-0.0625 0.109375 -0.171875 0.296875q-0.09375 0.1875 -0.234375 0.359375q-0.15625 0.15625 -0.34375 0.28125q-0.171875 0.125 -0.40625 0.125q-0.078125 0 -0.21875 -0.015625q-0.140625 0 -0.296875 -0.015625l-0.171875 0.890625q0.109375 0.015625 0.3125 0.046875q0.203125 0.046875 0.359375 0.046875zm6.685547 -2.5625l1.09375 0l0 -4.546875q0.109375 -0.203125 0.25 -0.375q0.15625 -0.171875 0.328125 -0.296875q0.21875 -0.15625 0.46875 -0.234375q0.265625 -0.078125 0.5625 -0.078125q0.34375 0 0.609375 0.078125q0.265625 0.078125 0.453125 0.265625q0.1875 0.171875 0.28125 0.46875q0.09375 0.296875 0.09375 0.71875l0 4.0l1.078125 0l0 -4.03125q0 -0.625 -0.15625 -1.078125q-0.140625 -0.46875 -0.4375 -0.765625q-0.28125 -0.296875 -0.6875 -0.4375q-0.40625 -0.140625 -0.90625 -0.140625q-0.375 0 -0.703125 0.109375q-0.328125 0.09375 -0.609375 0.28125q-0.1875 0.125 -0.359375 0.296875q-0.171875 0.15625 -0.3125 0.359375l-0.0625 -0.9375l-0.984375 0l0 6.34375zm9.904297 -0.765625q-0.5 0 -0.84375 -0.203125q-0.34375 -0.203125 -0.546875 -0.53125q-0.21875 -0.3125 -0.3125 -0.71875q-0.09375 -0.40625 -0.09375 -0.828125l0 -0.25q0 -0.40625 0.09375 -0.8125q0.09375 -0.40625 0.3125 -0.734375q0.203125 -0.3125 0.546875 -0.515625q0.34375 -0.203125 0.84375 -0.203125q0.328125 0 0.609375 0.109375q0.296875 0.109375 0.5 0.296875q0.203125 0.203125 0.3125 0.453125q0.125 0.25 0.140625 0.546875l1.015625 0q0 -0.484375 -0.203125 -0.90625q-0.1875 -0.421875 -0.515625 -0.734375q-0.34375 -0.296875 -0.828125 -0.46875q-0.46875 -0.1875 -1.03125 -0.1875q-0.71875 0 -1.265625 0.265625q-0.53125 0.25 -0.890625 0.671875q-0.359375 0.453125 -0.546875 1.03125q-0.171875 0.5625 -0.171875 1.1875l0 0.25q0 0.625 0.171875 1.203125q0.1875 0.578125 0.546875 1.0q0.359375 0.4375 0.890625 0.703125q0.546875 0.265625 1.265625 0.265625q0.5 0 0.96875 -0.171875q0.46875 -0.1875 0.828125 -0.46875q0.34375 -0.296875 0.5625 -0.671875q0.21875 -0.390625 0.21875 -0.8125l-1.015625 0q-0.015625 0.265625 -0.15625 0.5q-0.125 0.21875 -0.34375 0.375q-0.203125 0.171875 -0.484375 0.265625q-0.28125 0.09375 -0.578125 0.09375z" fill-rule="nonzero"/><path fill="#000000" d="m164.2002 103.02569l1.6875 0q0.5625 0 1.078125 -0.171875q0.515625 -0.171875 0.90625 -0.5q0.390625 -0.3125 0.609375 -0.78125q0.21875 -0.484375 0.21875 -1.09375q0 -0.625 -0.21875 -1.09375q-0.21875 -0.46875 -0.609375 -0.796875q-0.390625 -0.328125 -0.90625 -0.484375q-0.515625 -0.171875 -1.078125 -0.1875l-2.765625 0l0 8.53125l1.078125 0l0 -3.421875zm0 -0.890625l0 -3.328125l1.6875 0q0.375 0 0.6875 0.125q0.328125 0.109375 0.5625 0.328125q0.21875 0.21875 0.34375 0.53125q0.140625 0.3125 0.140625 0.703125q0 0.375 -0.140625 0.6875q-0.125 0.296875 -0.359375 0.5q-0.234375 0.21875 -0.546875 0.34375q-0.3125 0.109375 -0.6875 0.109375l-1.6875 0zm10.201172 4.3125l0.984375 0l0 -6.34375l-1.09375 0l0 4.546875q-0.09375 0.203125 -0.234375 0.375q-0.125 0.171875 -0.296875 0.296875q-0.203125 0.15625 -0.5 0.25q-0.28125 0.078125 -0.640625 0.078125q-0.3125 0 -0.5625 -0.078125q-0.234375 -0.09375 -0.390625 -0.296875q-0.171875 -0.1875 -0.25 -0.53125q-0.078125 -0.34375 -0.078125 -0.859375l0 -3.78125l-1.078125 0l0 3.765625q0 0.71875 0.140625 1.234375q0.15625 0.5 0.453125 0.828125q0.28125 0.328125 0.6875 0.484375q0.40625 0.15625 0.90625 0.15625q0.625 0 1.09375 -0.265625q0.46875 -0.265625 0.796875 -0.734375l0.0625 0.875zm3.1855469 -9.0l0 0.9375l2.15625 0l0 7.125l-2.15625 0l0 0.9375l5.3125 0l0 -0.9375l-2.0625 0l0 -8.0625l-3.25 0zm11.248047 7.3125q0 0.15625 -0.0625 0.296875q-0.0625 0.125 -0.171875 0.234375q-0.171875 0.1875 -0.5 0.296875q-0.328125 0.09375 -0.75 0.09375q-0.28125 0 -0.5625 -0.046875q-0.28125 -0.0625 -0.515625 -0.203125q-0.234375 -0.140625 -0.390625 -0.375q-0.140625 -0.234375 -0.171875 -0.5625l-1.078125 0q0 0.40625 0.171875 0.78125q0.1875 0.375 0.546875 0.65625q0.34375 0.28125 0.84375 0.46875q0.5 0.171875 1.15625 0.171875q0.5625 0 1.03125 -0.140625q0.46875 -0.140625 0.8125 -0.390625q0.34375 -0.234375 0.53125 -0.578125q0.1875 -0.359375 0.1875 -0.78125q0 -0.390625 -0.171875 -0.6875q-0.15625 -0.296875 -0.46875 -0.53125q-0.328125 -0.21875 -0.796875 -0.375q-0.453125 -0.15625 -1.03125 -0.28125q-0.453125 -0.09375 -0.75 -0.1875q-0.28125 -0.09375 -0.453125 -0.203125q-0.171875 -0.125 -0.25 -0.265625q-0.0625 -0.15625 -0.0625 -0.34375q0 -0.171875 0.078125 -0.34375q0.09375 -0.171875 0.265625 -0.296875q0.171875 -0.140625 0.4375 -0.203125q0.265625 -0.078125 0.609375 -0.078125q0.328125 0 0.59375 0.09375q0.265625 0.09375 0.453125 0.234375q0.1875 0.15625 0.296875 0.359375q0.109375 0.1875 0.109375 0.390625l1.078125 0q0 -0.40625 -0.1875 -0.765625q-0.171875 -0.359375 -0.5 -0.640625q-0.328125 -0.265625 -0.796875 -0.40625q-0.46875 -0.15625 -1.046875 -0.15625q-0.546875 0 -1.0 0.140625q-0.453125 0.140625 -0.78125 0.40625q-0.328125 0.25 -0.515625 0.59375q-0.171875 0.328125 -0.171875 0.71875q0 0.390625 0.171875 0.6875q0.171875 0.296875 0.5 0.5q0.3125 0.234375 0.75 0.390625q0.453125 0.15625 1.0 0.265625q0.453125 0.09375 0.75 0.203125q0.296875 0.109375 0.484375 0.234375q0.171875 0.125 0.25 0.28125q0.078125 0.15625 0.078125 0.34375zm5.794922 1.8125q0.921875 0 1.546875 -0.375q0.625 -0.375 0.953125 -0.859375l-0.671875 -0.515625q-0.296875 0.390625 -0.75 0.625q-0.453125 0.234375 -1.03125 0.234375q-0.4375 0 -0.796875 -0.15625q-0.359375 -0.171875 -0.625 -0.46875q-0.25 -0.265625 -0.390625 -0.609375q-0.140625 -0.359375 -0.1875 -0.8125l0 -0.046875l4.53125 0l0 -0.484375q0 -0.671875 -0.171875 -1.234375q-0.15625 -0.5625 -0.5 -0.984375q-0.34375 -0.421875 -0.859375 -0.65625q-0.515625 -0.234375 -1.1875 -0.234375q-0.546875 0 -1.078125 0.21875q-0.515625 0.21875 -0.921875 0.640625q-0.40625 0.421875 -0.65625 1.03125q-0.234375 0.59375 -0.234375 1.375l0 0.234375q0 0.671875 0.21875 1.234375q0.21875 0.5625 0.625 0.96875q0.390625 0.40625 0.953125 0.640625q0.5625 0.234375 1.234375 0.234375zm-0.140625 -5.6875q0.40625 0 0.703125 0.15625q0.3125 0.140625 0.515625 0.390625q0.1875 0.25 0.296875 0.59375q0.125 0.328125 0.125 0.625l0 0.046875l-3.421875 0q0.0625 -0.4375 0.21875 -0.765625q0.171875 -0.34375 0.40625 -0.578125q0.234375 -0.234375 0.53125 -0.34375q0.296875 -0.125 0.625 -0.125z" fill-rule="nonzero"/><path fill="#000000" fill-opacity="0.0" d="m208.66142 72.0l63.338577 0l0 48.472443l-63.338577 0z" fill-rule="evenodd"/><path fill="#000000" d="m226.94398 92.520004l2.71875 0q0.546875 0 1.0625 -0.15625q0.515625 -0.171875 0.90625 -0.484375q0.390625 -0.3125 0.625 -0.765625q0.234375 -0.453125 0.234375 -1.0625q0 -0.375 -0.125 -0.703125q-0.109375 -0.328125 -0.3125 -0.59375q-0.1875 -0.234375 -0.5 -0.4375q-0.296875 -0.203125 -0.609375 -0.28125l0 -0.015625q0.3125 -0.125 0.53125 -0.28125q0.21875 -0.15625 0.390625 -0.375q0.1875 -0.21875 0.28125 -0.484375q0.109375 -0.28125 0.109375 -0.625q0 -0.59375 -0.234375 -1.015625q-0.234375 -0.4375 -0.625 -0.703125q-0.390625 -0.28125 -0.890625 -0.40625q-0.5 -0.140625 -1.03125 -0.140625l-2.53125 0l0 8.53125zm1.078125 -3.984375l1.734375 0q0.34375 0 0.640625 0.109375q0.296875 0.109375 0.53125 0.296875q0.21875 0.203125 0.34375 0.484375q0.125 0.28125 0.125 0.640625q0 0.359375 -0.140625 0.640625q-0.140625 0.28125 -0.375 0.46875q-0.234375 0.203125 -0.546875 0.3125q-0.296875 0.109375 -0.640625 0.109375l-1.671875 0l0 -3.0625zm0 -0.90625l0 -2.71875l1.484375 0q0.3125 0.015625 0.609375 0.09375q0.3125 0.0625 0.546875 0.21875q0.234375 0.171875 0.359375 0.421875q0.140625 0.25 0.140625 0.609375q0 0.328125 -0.140625 0.59375q-0.140625 0.25 -0.359375 0.421875q-0.234375 0.171875 -0.53125 0.265625q-0.28125 0.078125 -0.59375 0.09375l-1.515625 0zm10.294922 4.890625l1.125 0l0 -0.09375q-0.09375 -0.265625 -0.15625 -0.609375q-0.0625 -0.359375 -0.0625 -0.6875l0 -2.9375q0 -0.53125 -0.203125 -0.921875q-0.1875 -0.40625 -0.515625 -0.6875q-0.34375 -0.25 -0.8125 -0.375q-0.453125 -0.140625 -1.0 -0.140625q-0.578125 0 -1.046875 0.171875q-0.46875 0.15625 -0.796875 0.421875q-0.328125 0.265625 -0.5 0.609375q-0.171875 0.328125 -0.171875 0.671875l1.09375 0q0 -0.203125 0.09375 -0.390625q0.09375 -0.1875 0.265625 -0.3125q0.171875 -0.140625 0.421875 -0.21875q0.265625 -0.078125 0.59375 -0.078125q0.34375 0 0.609375 0.09375q0.28125 0.078125 0.484375 0.234375q0.1875 0.15625 0.296875 0.390625q0.109375 0.234375 0.109375 0.515625l0 0.5l-1.1875 0q-0.65625 0 -1.203125 0.125q-0.53125 0.125 -0.90625 0.390625q-0.390625 0.265625 -0.59375 0.65625q-0.203125 0.390625 -0.203125 0.90625q0 0.40625 0.140625 0.75q0.15625 0.34375 0.453125 0.59375q0.28125 0.25 0.6875 0.40625q0.40625 0.140625 0.90625 0.140625q0.3125 0 0.578125 -0.078125q0.28125 -0.0625 0.53125 -0.171875q0.234375 -0.109375 0.4375 -0.25q0.203125 -0.15625 0.375 -0.3125q0.015625 0.1875 0.046875 0.375q0.046875 0.1875 0.109375 0.3125zm-1.921875 -0.828125q-0.3125 0 -0.5625 -0.078125q-0.234375 -0.078125 -0.390625 -0.234375q-0.15625 -0.140625 -0.234375 -0.328125q-0.078125 -0.203125 -0.078125 -0.4375q0 -0.25 0.09375 -0.4375q0.09375 -0.203125 0.265625 -0.34375q0.25 -0.203125 0.65625 -0.296875q0.421875 -0.09375 0.984375 -0.09375l1.015625 0l0 1.28125q-0.09375 0.1875 -0.265625 0.359375q-0.15625 0.171875 -0.390625 0.3125q-0.21875 0.140625 -0.5 0.21875q-0.265625 0.078125 -0.59375 0.078125zm7.654297 0.0625q-0.5 0 -0.84375 -0.203125q-0.34375 -0.203125 -0.546875 -0.53125q-0.21875 -0.3125 -0.3125 -0.71875q-0.09375 -0.40625 -0.09375 -0.828125l0 -0.25q0 -0.40625 0.09375 -0.8125q0.09375 -0.40625 0.3125 -0.734375q0.203125 -0.3125 0.546875 -0.515625q0.34375 -0.203125 0.84375 -0.203125q0.328125 0 0.609375 0.109375q0.296875 0.109375 0.5 0.296875q0.203125 0.203125 0.3125 0.453125q0.125 0.25 0.140625 0.546875l1.015625 0q0 -0.484375 -0.203125 -0.90625q-0.1875 -0.421875 -0.515625 -0.734375q-0.34375 -0.296875 -0.828125 -0.46875q-0.46875 -0.1875 -1.03125 -0.1875q-0.71875 0 -1.265625 0.265625q-0.53125 0.25 -0.890625 0.671875q-0.359375 0.453125 -0.546875 1.03125q-0.171875 0.5625 -0.171875 1.1875l0 0.25q0 0.625 0.171875 1.203125q0.1875 0.578125 0.546875 1.0q0.359375 0.4375 0.890625 0.703125q0.546875 0.265625 1.265625 0.265625q0.5 0 0.96875 -0.171875q0.46875 -0.1875 0.828125 -0.46875q0.34375 -0.296875 0.5625 -0.671875q0.21875 -0.390625 0.21875 -0.8125l-1.015625 0q-0.015625 0.265625 -0.15625 0.5q-0.125 0.21875 -0.34375 0.375q-0.203125 0.171875 -0.484375 0.265625q-0.28125 0.09375 -0.578125 0.09375zm6.404297 -2.1875l2.328125 2.953125l1.375 0l-2.96875 -3.703125l2.578125 -2.640625l-1.328125 0l-2.078125 2.09375l-0.703125 0.75l0 -5.5l-1.09375 0l0 9.0l1.09375 0l0 -2.1875l0.796875 -0.765625z" fill-rule="nonzero"/><path fill="#000000" d="m224.5309 103.49812l1.6875 0q0.5625 0 1.078125 -0.171875q0.515625 -0.171875 0.90625 -0.5q0.390625 -0.3125 0.609375 -0.78125q0.21875 -0.484375 0.21875 -1.09375q0 -0.625 -0.21875 -1.09375q-0.21875 -0.46875 -0.609375 -0.796875q-0.390625 -0.328125 -0.90625 -0.484375q-0.515625 -0.171875 -1.078125 -0.1875l-2.765625 0l0 8.53125l1.078125 0l0 -3.421875zm0 -0.890625l0 -3.328125l1.6875 0q0.375 0 0.6875 0.125q0.328125 0.109375 0.5625 0.328125q0.21875 0.21875 0.34375 0.53125q0.140625 0.3125 0.140625 0.703125q0 0.375 -0.140625 0.6875q-0.125 0.296875 -0.359375 0.5q-0.234375 0.21875 -0.546875 0.34375q-0.3125 0.109375 -0.6875 0.109375l-1.6875 0zm5.716797 1.078125l0 0.140625q0 0.671875 0.1875 1.265625q0.203125 0.578125 0.578125 1.015625q0.375 0.4375 0.90625 0.6875q0.546875 0.25 1.21875 0.25q0.65625 0 1.1875 -0.25q0.546875 -0.25 0.921875 -0.6875q0.359375 -0.4375 0.5625 -1.015625q0.203125 -0.59375 0.203125 -1.265625l0 -0.140625q0 -0.6875 -0.203125 -1.265625q-0.203125 -0.59375 -0.5625 -1.03125q-0.375 -0.421875 -0.921875 -0.671875q-0.53125 -0.25 -1.203125 -0.25q-0.671875 0 -1.203125 0.25q-0.53125 0.25 -0.90625 0.671875q-0.375 0.4375 -0.578125 1.03125q-0.1875 0.578125 -0.1875 1.265625zm1.078125 0.140625l0 -0.140625q0 -0.453125 0.109375 -0.875q0.109375 -0.4375 0.34375 -0.75q0.21875 -0.328125 0.546875 -0.515625q0.34375 -0.1875 0.796875 -0.1875q0.453125 0 0.78125 0.1875q0.34375 0.1875 0.578125 0.515625q0.21875 0.3125 0.328125 0.75q0.109375 0.421875 0.109375 0.875l0 0.140625q0 0.46875 -0.109375 0.890625q-0.109375 0.421875 -0.328125 0.75q-0.234375 0.3125 -0.578125 0.5q-0.328125 0.1875 -0.765625 0.1875q-0.453125 0 -0.796875 -0.1875q-0.34375 -0.1875 -0.5625 -0.5q-0.234375 -0.328125 -0.34375 -0.75q-0.109375 -0.421875 -0.109375 -0.890625zm10.576172 -3.359375q-0.6875 0 -1.234375 0.296875q-0.53125 0.296875 -0.921875 0.828125l-0.015625 -0.15625l-0.046875 -0.859375l-1.03125 0l0 6.34375l1.09375 0l0 -4.0625q0.109375 -0.296875 0.265625 -0.53125q0.171875 -0.234375 0.375 -0.40625q0.25 -0.1875 0.5625 -0.28125q0.328125 -0.09375 0.734375 -0.09375q0.296875 0 0.578125 0.03125q0.296875 0.03125 0.609375 0.09375l0.140625 -1.0625q-0.15625 -0.0625 -0.484375 -0.09375q-0.328125 -0.046875 -0.625 -0.046875zm5.748047 5.6875q-0.5 0 -0.84375 -0.203125q-0.34375 -0.203125 -0.546875 -0.53125q-0.21875 -0.3125 -0.3125 -0.71875q-0.09375 -0.40625 -0.09375 -0.828125l0 -0.25q0 -0.40625 0.09375 -0.8125q0.09375 -0.40625 0.3125 -0.734375q0.203125 -0.3125 0.546875 -0.515625q0.34375 -0.203125 0.84375 -0.203125q0.328125 0 0.609375 0.109375q0.296875 0.109375 0.5 0.296875q0.203125 0.203125 0.3125 0.453125q0.125 0.25 0.140625 0.546875l1.015625 0q0 -0.484375 -0.203125 -0.90625q-0.1875 -0.421875 -0.515625 -0.734375q-0.34375 -0.296875 -0.828125 -0.46875q-0.46875 -0.1875 -1.03125 -0.1875q-0.71875 0 -1.265625 0.265625q-0.53125 0.25 -0.890625 0.671875q-0.359375 0.453125 -0.546875 1.03125q-0.171875 0.5625 -0.171875 1.1875l0 0.25q0 0.625 0.171875 1.203125q0.1875 0.578125 0.546875 1.0q0.359375 0.4375 0.890625 0.703125q0.546875 0.265625 1.265625 0.265625q0.5 0 0.96875 -0.171875q0.46875 -0.1875 0.828125 -0.46875q0.34375 -0.296875 0.5625 -0.671875q0.21875 -0.390625 0.21875 -0.8125l-1.015625 0q-0.015625 0.265625 -0.15625 0.5q-0.125 0.21875 -0.34375 0.375q-0.203125 0.171875 -0.484375 0.265625q-0.28125 0.09375 -0.578125 0.09375zm5.591797 -4.625l0 -3.609375l-1.09375 0l0 9.0l1.09375 0l0 -4.609375q0.109375 -0.1875 0.25 -0.34375q0.15625 -0.15625 0.34375 -0.265625q0.21875 -0.15625 0.484375 -0.234375q0.265625 -0.078125 0.546875 -0.078125q0.359375 -0.015625 0.625 0.09375q0.28125 0.09375 0.46875 0.296875q0.17189026 0.1875 0.25001526 0.484375q0.09375 0.28125 0.09375 0.65625l0 4.0l1.09375 0l0 -3.984375q0 -0.640625 -0.15625 -1.109375q-0.15625 -0.46875 -0.453125 -0.765625q-0.28125 -0.3125 -0.6875 -0.453125q-0.40626526 -0.140625 -0.90626526 -0.140625q-0.375 0 -0.71875 0.109375q-0.34375 0.109375 -0.625 0.3125q-0.171875 0.125 -0.328125 0.28125q-0.15625 0.15625 -0.28125 0.359375z" fill-rule="nonzero"/><path fill="#000000" fill-opacity="0.0" d="m512.0104 65.92126l9.184814 0l0 -15.999996l9.184814 0l0 15.999996l9.184814 0l0 -15.999996l9.184753 0l0 15.999996l9.184814 0l0 -15.999996l9.184814 0l0 15.999996l9.184814 0l0 -15.999996l9.184753 0l0 15.999996l9.184814 0l0 -15.999996l9.184814 0l0 15.999996l9.184814 0l0 -15.999996l9.184814 0l0 15.999996l9.184753 0l0 -15.999996l9.184814 0l0 15.999996l9.184814 0l0 -15.999996l9.184814 0l0 15.999996l9.184753 0l0 -15.999996l9.184814 0l0 15.999996l9.184814 0l0 -15.999996l9.184814 0l0 15.999996l9.184753 0l0 -15.999996l9.184814 0l0 15.999996l9.184814 0l0 -15.999996l9.184814 0l0 15.999996l9.184753 0l0 -15.999996l9.184814 0l0 15.999996l9.184814 0" fill-rule="evenodd"/><path stroke="#000000" stroke-width="2.0" stroke-linejoin="round" stroke-linecap="butt" d="m512.0104 65.92126l9.184814 0l0 -15.999996l9.184814 0l0 15.999996l9.184814 0l0 -15.999996l9.184753 0l0 15.999996l9.184814 0l0 -15.999996l9.184814 0l0 15.999996l9.184814 0l0 -15.999996l9.184753 0l0 15.999996l9.184814 0l0 -15.999996l9.184814 0l0 15.999996l9.184814 0l0 -15.999996l9.184814 0l0 15.999996l9.184753 0l0 -15.999996l9.184814 0l0 15.999996l9.184814 0l0 -15.999996l9.184814 0l0 15.999996l9.184753 0l0 -15.999996l9.184814 0l0 15.999996l9.184814 0l0 -15.999996l9.184814 0l0 15.999996l9.184753 0l0 -15.999996l9.184814 0l0 15.999996l9.184814 0l0 -15.999996l9.184814 0l0 15.999996l9.184753 0l0 -15.999996l9.184814 0l0 15.999996l9.184814 0" fill-rule="evenodd"/><path fill="#000000" fill-opacity="0.0" d="m392.0 42.330708l80.0 0l0 32.000004l-80.0 0z" fill-rule="evenodd"/><path fill="#000000" d="m419.73438 58.05071l0 -3.203125l3.203125 0l0 3.203125l-3.203125 0zm10.671875 0l0 -3.203125l3.203125 0l0 3.203125l-3.203125 0zm10.65625 0l0 -3.203125l3.21875 0l0 3.203125l-3.21875 0z" fill-rule="nonzero"/><path fill="#000000" fill-opacity="0.0" d="m88.0 81.92126l64.0 0l0 30.080002l56.0 0l0 -30.080002l424.0 0" fill-rule="evenodd"/><path stroke="#000000" stroke-width="2.0" stroke-linejoin="round" stroke-linecap="butt" d="m88.0 81.92126l64.0 0l0 30.080002l56.0 0l0 -30.080002l424.0 0" fill-rule="evenodd"/><path fill="#000000" fill-opacity="0.0" d="m568.0 81.92126l64.0 0l0 30.080002l56.0 0l0 -30.080002l72.0 0" fill-rule="evenodd"/><path stroke="#000000" stroke-width="2.0" stroke-linejoin="round" stroke-linecap="butt" d="m568.0 81.92126l64.0 0l0 30.080002l56.0 0l0 -30.080002l72.0 0" fill-rule="evenodd"/><path fill="#000000" fill-opacity="0.0" d="m688.66144 72.0l63.338562 0l0 48.472443l-63.338562 0z" fill-rule="evenodd"/><path fill="#000000" d="m706.944 92.520004l2.71875 0q0.546875 0 1.0625 -0.15625q0.515625 -0.171875 0.90625 -0.484375q0.390625 -0.3125 0.625 -0.765625q0.234375 -0.453125 0.234375 -1.0625q0 -0.375 -0.125 -0.703125q-0.109375 -0.328125 -0.3125 -0.59375q-0.1875 -0.234375 -0.5 -0.4375q-0.296875 -0.203125 -0.609375 -0.28125l0 -0.015625q0.3125 -0.125 0.53125 -0.28125q0.21875 -0.15625 0.390625 -0.375q0.1875 -0.21875 0.28125 -0.484375q0.109375 -0.28125 0.109375 -0.625q0 -0.59375 -0.234375 -1.015625q-0.234375 -0.4375 -0.625 -0.703125q-0.390625 -0.28125 -0.890625 -0.40625q-0.5 -0.140625 -1.03125 -0.140625l-2.53125 0l0 8.53125zm1.078125 -3.984375l1.734375 0q0.34375 0 0.640625 0.109375q0.296875 0.109375 0.53125 0.296875q0.21875 0.203125 0.34375 0.484375q0.125 0.28125 0.125 0.640625q0 0.359375 -0.140625 0.640625q-0.140625 0.28125 -0.375 0.46875q-0.234375 0.203125 -0.546875 0.3125q-0.296875 0.109375 -0.640625 0.109375l-1.671875 0l0 -3.0625zm0 -0.90625l0 -2.71875l1.484375 0q0.3125 0.015625 0.609375 0.09375q0.3125 0.0625 0.546875 0.21875q0.234375 0.171875 0.359375 0.421875q0.140625 0.25 0.140625 0.609375q0 0.328125 -0.140625 0.59375q-0.140625 0.25 -0.359375 0.421875q-0.234375 0.171875 -0.53125 0.265625q-0.28125 0.078125 -0.59375 0.09375l-1.515625 0zm10.294922 4.890625l1.125 0l0 -0.09375q-0.09375 -0.265625 -0.15625 -0.609375q-0.0625 -0.359375 -0.0625 -0.6875l0 -2.9375q0 -0.53125 -0.203125 -0.921875q-0.1875 -0.40625 -0.515625 -0.6875q-0.34375 -0.25 -0.8125 -0.375q-0.453125 -0.140625 -1.0 -0.140625q-0.578125 0 -1.046875 0.171875q-0.46875 0.15625 -0.796875 0.421875q-0.328125 0.265625 -0.5 0.609375q-0.171875 0.328125 -0.171875 0.671875l1.09375 0q0 -0.203125 0.09375 -0.390625q0.09375 -0.1875 0.265625 -0.3125q0.171875 -0.140625 0.421875 -0.21875q0.265625 -0.078125 0.59375 -0.078125q0.34375 0 0.609375 0.09375q0.28125 0.078125 0.484375 0.234375q0.1875 0.15625 0.296875 0.390625q0.109375 0.234375 0.109375 0.515625l0 0.5l-1.1875 0q-0.65625 0 -1.203125 0.125q-0.53125 0.125 -0.90625 0.390625q-0.390625 0.265625 -0.59375 0.65625q-0.203125 0.390625 -0.203125 0.90625q0 0.40625 0.140625 0.75q0.15625 0.34375 0.453125 0.59375q0.28125 0.25 0.6875 0.40625q0.40625 0.140625 0.90625 0.140625q0.3125 0 0.578125 -0.078125q0.28125 -0.0625 0.53125 -0.171875q0.234375 -0.109375 0.4375 -0.25q0.203125 -0.15625 0.375 -0.3125q0.015625 0.1875 0.046875 0.375q0.046875 0.1875 0.109375 0.3125zm-1.921875 -0.828125q-0.3125 0 -0.5625 -0.078125q-0.234375 -0.078125 -0.390625 -0.234375q-0.15625 -0.140625 -0.234375 -0.328125q-0.078125 -0.203125 -0.078125 -0.4375q0 -0.25 0.09375 -0.4375q0.09375 -0.203125 0.265625 -0.34375q0.25 -0.203125 0.65625 -0.296875q0.421875 -0.09375 0.984375 -0.09375l1.015625 0l0 1.28125q-0.09375 0.1875 -0.265625 0.359375q-0.15625 0.171875 -0.390625 0.3125q-0.21875 0.140625 -0.5 0.21875q-0.265625 0.078125 -0.59375 0.078125zm7.654297 0.0625q-0.5 0 -0.84375 -0.203125q-0.34375 -0.203125 -0.546875 -0.53125q-0.21875 -0.3125 -0.3125 -0.71875q-0.09375 -0.40625 -0.09375 -0.828125l0 -0.25q0 -0.40625 0.09375 -0.8125q0.09375 -0.40625 0.3125 -0.734375q0.203125 -0.3125 0.546875 -0.515625q0.34375 -0.203125 0.84375 -0.203125q0.328125 0 0.609375 0.109375q0.296875 0.109375 0.5 0.296875q0.203125 0.203125 0.3125 0.453125q0.125 0.25 0.140625 0.546875l1.015625 0q0 -0.484375 -0.203125 -0.90625q-0.1875 -0.421875 -0.515625 -0.734375q-0.34375 -0.296875 -0.828125 -0.46875q-0.46875 -0.1875 -1.03125 -0.1875q-0.71875 0 -1.265625 0.265625q-0.53125 0.25 -0.890625 0.671875q-0.359375 0.453125 -0.546875 1.03125q-0.171875 0.5625 -0.171875 1.1875l0 0.25q0 0.625 0.171875 1.203125q0.1875 0.578125 0.546875 1.0q0.359375 0.4375 0.890625 0.703125q0.546875 0.265625 1.265625 0.265625q0.5 0 0.96875 -0.171875q0.46875 -0.1875 0.828125 -0.46875q0.34375 -0.296875 0.5625 -0.671875q0.21875 -0.390625 0.21875 -0.8125l-1.015625 0q-0.015625 0.265625 -0.15625 0.5q-0.125 0.21875 -0.34375 0.375q-0.203125 0.171875 -0.484375 0.265625q-0.28125 0.09375 -0.578125 0.09375zm6.404297 -2.1875l2.328125 2.953125l1.375 0l-2.96875 -3.703125l2.578125 -2.640625l-1.328125 0l-2.078125 2.09375l-0.703125 0.75l0 -5.5l-1.09375 0l0 9.0l1.09375 0l0 -2.1875l0.796875 -0.765625z" fill-rule="nonzero"/><path fill="#000000" d="m704.5309 103.49812l1.6875 0q0.5625 0 1.078125 -0.171875q0.515625 -0.171875 0.90625 -0.5q0.390625 -0.3125 0.609375 -0.78125q0.21875 -0.484375 0.21875 -1.09375q0 -0.625 -0.21875 -1.09375q-0.21875 -0.46875 -0.609375 -0.796875q-0.390625 -0.328125 -0.90625 -0.484375q-0.515625 -0.171875 -1.078125 -0.1875l-2.765625 0l0 8.53125l1.078125 0l0 -3.421875zm0 -0.890625l0 -3.328125l1.6875 0q0.375 0 0.6875 0.125q0.328125 0.109375 0.5625 0.328125q0.21875 0.21875 0.34375 0.53125q0.140625 0.3125 0.140625 0.703125q0 0.375 -0.140625 0.6875q-0.125 0.296875 -0.359375 0.5q-0.234375 0.21875 -0.546875 0.34375q-0.3125 0.109375 -0.6875 0.109375l-1.6875 0zm5.716797 1.078125l0 0.140625q0 0.671875 0.1875 1.265625q0.203125 0.578125 0.578125 1.015625q0.375 0.4375 0.90625 0.6875q0.546875 0.25 1.21875 0.25q0.65625 0 1.1875 -0.25q0.546875 -0.25 0.921875 -0.6875q0.359375 -0.4375 0.5625 -1.015625q0.203125 -0.59375 0.203125 -1.265625l0 -0.140625q0 -0.6875 -0.203125 -1.265625q-0.203125 -0.59375 -0.5625 -1.03125q-0.375 -0.421875 -0.921875 -0.671875q-0.53125 -0.25 -1.203125 -0.25q-0.671875 0 -1.203125 0.25q-0.53125 0.25 -0.90625 0.671875q-0.375 0.4375 -0.578125 1.03125q-0.1875 0.578125 -0.1875 1.265625zm1.078125 0.140625l0 -0.140625q0 -0.453125 0.109375 -0.875q0.109375 -0.4375 0.34375 -0.75q0.21875 -0.328125 0.546875 -0.515625q0.34375 -0.1875 0.796875 -0.1875q0.453125 0 0.78125 0.1875q0.34375 0.1875 0.578125 0.515625q0.21875 0.3125 0.328125 0.75q0.109375 0.421875 0.109375 0.875l0 0.140625q0 0.46875 -0.109375 0.890625q-0.109375 0.421875 -0.328125 0.75q-0.234375 0.3125 -0.578125 0.5q-0.328125 0.1875 -0.765625 0.1875q-0.453125 0 -0.796875 -0.1875q-0.34375 -0.1875 -0.5625 -0.5q-0.234375 -0.328125 -0.34375 -0.75q-0.109375 -0.421875 -0.109375 -0.890625zm10.576172 -3.359375q-0.6875 0 -1.234375 0.296875q-0.53125 0.296875 -0.921875 0.828125l-0.015625 -0.15625l-0.046875 -0.859375l-1.03125 0l0 6.34375l1.09375 0l0 -4.0625q0.109375 -0.296875 0.265625 -0.53125q0.171875 -0.234375 0.375 -0.40625q0.25 -0.1875 0.5625 -0.28125q0.328125 -0.09375 0.734375 -0.09375q0.296875 0 0.578125 0.03125q0.296875 0.03125 0.609375 0.09375l0.140625 -1.0625q-0.15625 -0.0625 -0.484375 -0.09375q-0.328125 -0.046875 -0.625 -0.046875zm5.748047 5.6875q-0.5 0 -0.84375 -0.203125q-0.34375 -0.203125 -0.546875 -0.53125q-0.21875 -0.3125 -0.3125 -0.71875q-0.09375 -0.40625 -0.09375 -0.828125l0 -0.25q0 -0.40625 0.09375 -0.8125q0.09375 -0.40625 0.3125 -0.734375q0.203125 -0.3125 0.546875 -0.515625q0.34375 -0.203125 0.84375 -0.203125q0.328125 0 0.609375 0.109375q0.296875 0.109375 0.5 0.296875q0.203125 0.203125 0.3125 0.453125q0.125 0.25 0.140625 0.546875l1.015625 0q0 -0.484375 -0.203125 -0.90625q-0.1875 -0.421875 -0.515625 -0.734375q-0.34375 -0.296875 -0.828125 -0.46875q-0.46875 -0.1875 -1.03125 -0.1875q-0.71875 0 -1.265625 0.265625q-0.53125 0.25 -0.890625 0.671875q-0.359375 0.453125 -0.546875 1.03125q-0.171875 0.5625 -0.171875 1.1875l0 0.25q0 0.625 0.171875 1.203125q0.1875 0.578125 0.546875 1.0q0.359375 0.4375 0.890625 0.703125q0.546875 0.265625 1.265625 0.265625q0.5 0 0.96875 -0.171875q0.46875 -0.1875 0.828125 -0.46875q0.34375 -0.296875 0.5625 -0.671875q0.21875 -0.390625 0.21875 -0.8125l-1.015625 0q-0.015625 0.265625 -0.15625 0.5q-0.125 0.21875 -0.34375 0.375q-0.203125 0.171875 -0.484375 0.265625q-0.28125 0.09375 -0.578125 0.09375zm5.591797 -4.625l0 -3.609375l-1.09375 0l0 9.0l1.09375 0l0 -4.609375q0.109375 -0.1875 0.25 -0.34375q0.15625 -0.15625 0.34375 -0.265625q0.21875 -0.15625 0.484375 -0.234375q0.265625 -0.078125 0.546875 -0.078125q0.359375 -0.015625 0.625 0.09375q0.28125 0.09375 0.46875 0.296875q0.171875 0.1875 0.25 0.484375q0.09375 0.28125 0.09375 0.65625l0 4.0l1.09375 0l0 -3.984375q0 -0.640625 -0.15625 -1.109375q-0.15625 -0.46875 -0.453125 -0.765625q-0.28125 -0.3125 -0.6875 -0.453125q-0.40625 -0.140625 -0.90625 -0.140625q-0.375 0 -0.71875 0.109375q-0.34375 0.109375 -0.625 0.3125q-0.171875 0.125 -0.328125 0.28125q-0.15625 0.15625 -0.28125 0.359375z" fill-rule="nonzero"/><path fill="#000000" fill-opacity="0.0" d="m576.0 72.0l64.0 0l0 48.472443l-64.0 0z" fill-rule="evenodd"/><path fill="#000000" d="m590.7656 88.75438l0 -0.921875l-3.546875 0l0 -2.921875l4.140625 0l0 -0.921875l-5.234375 0l0 8.53125l1.09375 0l0 -3.765625l3.546875 0zm6.607422 -2.6875q-0.6875 0 -1.234375 0.296875q-0.53125 0.296875 -0.921875 0.828125l-0.015625 -0.15625l-0.046875 -0.859375l-1.03125 0l0 6.34375l1.09375 0l0 -4.0625q0.109375 -0.296875 0.265625 -0.53125q0.171875 -0.234375 0.375 -0.40625q0.25 -0.1875 0.5625 -0.28125q0.328125 -0.09375 0.734375 -0.09375q0.296875 0 0.578125 0.03125q0.296875 0.03125 0.609375 0.09375l0.140625 -1.0625q-0.15625 -0.0625 -0.484375 -0.09375q-0.328125 -0.046875 -0.625 -0.046875zm2.7480469 3.21875l0 0.140625q0 0.671875 0.1875 1.265625q0.203125 0.578125 0.578125 1.015625q0.375 0.4375 0.90625 0.6875q0.546875 0.25 1.21875 0.25q0.65625 0 1.1875 -0.25q0.546875 -0.25 0.921875 -0.6875q0.359375 -0.4375 0.5625 -1.015625q0.203125 -0.59375 0.203125 -1.265625l0 -0.140625q0 -0.6875 -0.203125 -1.265625q-0.203125 -0.59375 -0.5625 -1.03125q-0.375 -0.421875 -0.921875 -0.671875q-0.53125 -0.25 -1.203125 -0.25q-0.671875 0 -1.203125 0.25q-0.53125 0.25 -0.90625 0.671875q-0.375 0.4375 -0.578125 1.03125q-0.1875 0.578125 -0.1875 1.265625zm1.078125 0.140625l0 -0.140625q0 -0.453125 0.109375 -0.875q0.109375 -0.4375 0.34375 -0.75q0.21875 -0.328125 0.546875 -0.515625q0.34375 -0.1875 0.796875 -0.1875q0.453125 0 0.78125 0.1875q0.34375 0.1875 0.578125 0.515625q0.21875 0.3125 0.328125 0.75q0.109375 0.421875 0.109375 0.875l0 0.140625q0 0.46875 -0.109375 0.890625q-0.109375 0.421875 -0.328125 0.75q-0.234375 0.3125 -0.578125 0.5q-0.328125 0.1875 -0.765625 0.1875q-0.453125 0 -0.796875 -0.1875q-0.34375 -0.1875 -0.5625 -0.5q-0.234375 -0.328125 -0.34375 -0.75q-0.109375 -0.421875 -0.109375 -0.890625zm6.419922 3.09375l1.09375 0l0 -4.546875q0.109375 -0.203125 0.25 -0.375q0.15625 -0.171875 0.328125 -0.296875q0.21875 -0.15625 0.46875 -0.234375q0.265625 -0.078125 0.5625 -0.078125q0.34375 0 0.609375 0.078125q0.265625 0.078125 0.453125 0.265625q0.1875 0.171875 0.28125 0.46875q0.09375 0.296875 0.09375 0.71875l0 4.0l1.078125 0l0 -4.03125q0 -0.625 -0.15625 -1.078125q-0.140625 -0.46875 -0.4375 -0.765625q-0.28125 -0.296875 -0.6875 -0.4375q-0.40625 -0.140625 -0.90625 -0.140625q-0.375 0 -0.703125 0.109375q-0.328125 0.09375 -0.609375 0.28125q-0.1875 0.125 -0.359375 0.296875q-0.171875 0.15625 -0.3125 0.359375l-0.0625 -0.9375l-0.984375 0l0 6.34375zm9.779297 -7.875l-1.09375 0l0 1.53125l-1.671875 0l0 0.84375l1.671875 0l0 3.4375q0 0.59375 0.15625 1.015625q0.15625 0.40625 0.421875 0.65625q0.265625 0.265625 0.625 0.390625q0.375 0.125 0.796875 0.125q0.25 0 0.5 -0.03125q0.265625 -0.015625 0.484375 -0.0625q0.234375 -0.046875 0.421875 -0.109375q0.203125 -0.0625 0.328125 -0.140625l-0.140625 -0.765625q-0.109375 0.015625 -0.265625 0.046875q-0.15625 0.03125 -0.328125 0.0625q-0.171875 0.03125 -0.359375 0.0625q-0.1875 0.015625 -0.375 0.015625q-0.234375 0 -0.453125 -0.0625q-0.203125 -0.0625 -0.375 -0.203125q-0.15625 -0.140625 -0.25 -0.375q-0.09375 -0.25 -0.09375 -0.625l0 -3.4375l2.40625 0l0 -0.84375l-2.40625 0l0 -1.53125z" fill-rule="nonzero"/><path fill="#000000" d="m587.2031 103.49812l1.6875 0q0.5625 0 1.078125 -0.171875q0.515625 -0.171875 0.90625 -0.5q0.390625 -0.3125 0.609375 -0.78125q0.21875 -0.484375 0.21875 -1.09375q0 -0.625 -0.21875 -1.09375q-0.21875 -0.46875 -0.609375 -0.796875q-0.390625 -0.328125 -0.90625 -0.484375q-0.515625 -0.171875 -1.078125 -0.1875l-2.765625 0l0 8.53125l1.078125 0l0 -3.421875zm0 -0.890625l0 -3.328125l1.6875 0q0.375 0 0.6875 0.125q0.328125 0.109375 0.5625 0.328125q0.21875 0.21875 0.34375 0.53125q0.140625 0.3125 0.140625 0.703125q0 0.375 -0.140625 0.6875q-0.125 0.296875 -0.359375 0.5q-0.234375 0.21875 -0.546875 0.34375q-0.3125 0.109375 -0.6875 0.109375l-1.6875 0zm5.716797 1.078125l0 0.140625q0 0.671875 0.1875 1.265625q0.203125 0.578125 0.578125 1.015625q0.375 0.4375 0.90625 0.6875q0.546875 0.25 1.21875 0.25q0.65625 0 1.1875 -0.25q0.546875 -0.25 0.921875 -0.6875q0.359375 -0.4375 0.5625 -1.015625q0.203125 -0.59375 0.203125 -1.265625l0 -0.140625q0 -0.6875 -0.203125 -1.265625q-0.203125 -0.59375 -0.5625 -1.03125q-0.375 -0.421875 -0.921875 -0.671875q-0.53125 -0.25 -1.203125 -0.25q-0.671875 0 -1.203125 0.25q-0.53125 0.25 -0.90625 0.671875q-0.375 0.4375 -0.578125 1.03125q-0.1875 0.578125 -0.1875 1.265625zm1.078125 0.140625l0 -0.140625q0 -0.453125 0.109375 -0.875q0.109375 -0.4375 0.34375 -0.75q0.21875 -0.328125 0.546875 -0.515625q0.34375 -0.1875 0.796875 -0.1875q0.453125 0 0.78125 0.1875q0.34375 0.1875 0.578125 0.515625q0.21875 0.3125 0.328125 0.75q0.109375 0.421875 0.109375 0.875l0 0.140625q0 0.46875 -0.109375 0.890625q-0.109375 0.421875 -0.328125 0.75q-0.234375 0.3125 -0.578125 0.5q-0.328125 0.1875 -0.765625 0.1875q-0.453125 0 -0.796875 -0.1875q-0.34375 -0.1875 -0.5625 -0.5q-0.234375 -0.328125 -0.34375 -0.75q-0.109375 -0.421875 -0.109375 -0.890625zm10.576172 -3.359375q-0.6875 0 -1.234375 0.296875q-0.53125 0.296875 -0.921875 0.828125l-0.015625 -0.15625l-0.046875 -0.859375l-1.03125 0l0 6.34375l1.09375 0l0 -4.0625q0.109375 -0.296875 0.265625 -0.53125q0.171875 -0.234375 0.375 -0.40625q0.25 -0.1875 0.5625 -0.28125q0.328125 -0.09375 0.734375 -0.09375q0.296875 0 0.578125 0.03125q0.296875 0.03125 0.609375 0.09375l0.140625 -1.0625q-0.15625 -0.0625 -0.484375 -0.09375q-0.328125 -0.046875 -0.625 -0.046875zm5.748047 5.6875q-0.5 0 -0.84375 -0.203125q-0.34375 -0.203125 -0.546875 -0.53125q-0.21875 -0.3125 -0.3125 -0.71875q-0.09375 -0.40625 -0.09375 -0.828125l0 -0.25q0 -0.40625 0.09375 -0.8125q0.09375 -0.40625 0.3125 -0.734375q0.203125 -0.3125 0.546875 -0.515625q0.34375 -0.203125 0.84375 -0.203125q0.328125 0 0.609375 0.109375q0.296875 0.109375 0.5 0.296875q0.203125 0.203125 0.3125 0.453125q0.125 0.25 0.140625 0.546875l1.015625 0q0 -0.484375 -0.203125 -0.90625q-0.1875 -0.421875 -0.515625 -0.734375q-0.34375 -0.296875 -0.828125 -0.46875q-0.46875 -0.1875 -1.03125 -0.1875q-0.71875 0 -1.265625 0.265625q-0.53125 0.25 -0.890625 0.671875q-0.359375 0.453125 -0.546875 1.03125q-0.171875 0.5625 -0.171875 1.1875l0 0.25q0 0.625 0.171875 1.203125q0.1875 0.578125 0.546875 1.0q0.359375 0.4375 0.890625 0.703125q0.546875 0.265625 1.265625 0.265625q0.5 0 0.96875 -0.171875q0.46875 -0.1875 0.828125 -0.46875q0.34375 -0.296875 0.5625 -0.671875q0.21875 -0.390625 0.21875 -0.8125l-1.015625 0q-0.015625 0.265625 -0.15625 0.5q-0.125 0.21875 -0.34375 0.375q-0.203125 0.171875 -0.484375 0.265625q-0.28125 0.09375 -0.578125 0.09375zm5.591797 -4.625l0 -3.609375l-1.09375 0l0 9.0l1.09375 0l0 -4.609375q0.109375 -0.1875 0.25 -0.34375q0.15625 -0.15625 0.34375 -0.265625q0.21875 -0.15625 0.484375 -0.234375q0.265625 -0.078125 0.546875 -0.078125q0.359375 -0.015625 0.625 0.09375q0.28125 0.09375 0.46875 0.296875q0.171875 0.1875 0.25 0.484375q0.09375 0.28125 0.09375 0.65625l0 4.0l1.09375 0l0 -3.984375q0 -0.640625 -0.15625 -1.109375q-0.15625 -0.46875 -0.453125 -0.765625q-0.28125 -0.3125 -0.6875 -0.453125q-0.40625 -0.140625 -0.90625 -0.140625q-0.375 0 -0.71875 0.109375q-0.34375 0.109375 -0.625 0.3125q-0.171875 0.125 -0.328125 0.28125q-0.15625 0.15625 -0.28125 0.359375z" fill-rule="nonzero"/><path fill="#000000" fill-opacity="0.0" d="m632.0 71.52756l56.0 0l0 48.472443l-56.0 0z" fill-rule="evenodd"/><path fill="#000000" d="m651.08203 89.89131q0 0.34375 -0.15625 0.609375q-0.140625 0.25 -0.390625 0.421875q-0.234375 0.15625 -0.546875 0.25q-0.3125 0.078125 -0.625 0.078125q-0.390625 0 -0.734375 -0.109375q-0.328125 -0.109375 -0.59375 -0.328125q-0.25 -0.21875 -0.421875 -0.515625q-0.15625 -0.3125 -0.21875 -0.71875l-1.109375 0q0.015625 0.5625 0.234375 1.015625q0.234375 0.4375 0.625 0.765625q0.4375 0.390625 1.015625 0.609375q0.59375 0.203125 1.203125 0.203125q0.515625 0 1.015625 -0.140625q0.515625 -0.15625 0.921875 -0.4375q0.40625 -0.28125 0.65625 -0.703125q0.25 -0.4375 0.25 -1.015625q0 -0.5625 -0.234375 -1.0q-0.234375 -0.4375 -0.625 -0.734375q-0.390625 -0.3125 -0.875 -0.515625q-0.46875 -0.21875 -0.9375 -0.359375q-0.28125 -0.09375 -0.609375 -0.203125q-0.328125 -0.125 -0.609375 -0.296875q-0.28125 -0.1875 -0.46875 -0.4375q-0.171875 -0.25 -0.171875 -0.625q0 -0.34375 0.125 -0.59375q0.140625 -0.265625 0.375 -0.4375q0.234375 -0.171875 0.53125 -0.25q0.296875 -0.09375 0.609375 -0.09375q0.390625 0 0.6875 0.125q0.3125 0.109375 0.53125 0.328125q0.21875 0.21875 0.359375 0.515625q0.140625 0.296875 0.1875 0.671875l1.109375 0q-0.015625 -0.578125 -0.265625 -1.046875q-0.234375 -0.484375 -0.625 -0.828125q-0.40625 -0.328125 -0.921875 -0.515625q-0.515625 -0.1875 -1.0625 -0.1875q-0.5 0 -1.0 0.15625q-0.5 0.15625 -0.890625 0.453125q-0.390625 0.3125 -0.640625 0.75q-0.25 0.421875 -0.25 0.96875q0 0.5625 0.25 0.96875q0.25 0.40625 0.625 0.703125q0.390625 0.296875 0.84375 0.5q0.46875 0.203125 0.921875 0.359375q0.3125 0.09375 0.640625 0.21875q0.34375 0.125 0.625 0.296875q0.28125 0.1875 0.453125 0.46875q0.1875 0.265625 0.1875 0.65625zm3.2480469 4.71875q0.421875 0 0.75 -0.15625q0.328125 -0.15625 0.578125 -0.390625q0.25 -0.234375 0.421875 -0.515625q0.171875 -0.28125 0.28125 -0.515625l3.21875 -7.328125l-1.21875 0l-1.625 4.109375l-0.296875 0.75l-0.28125 -0.765625l-1.75 -4.09375l-1.203125 0l2.71875 6.046875l-0.421875 0.84375q-0.0625 0.109375 -0.171875 0.296875q-0.09375 0.1875 -0.234375 0.359375q-0.15625 0.15625 -0.34375 0.28125q-0.171875 0.125 -0.40625 0.125q-0.078125 0 -0.21875 -0.015625q-0.140625 0 -0.296875 -0.015625l-0.171875 0.890625q0.109375 0.015625 0.3125 0.046875q0.203125 0.046875 0.359375 0.046875zm6.685547 -2.5625l1.09375 0l0 -4.546875q0.109375 -0.203125 0.25 -0.375q0.15625 -0.171875 0.328125 -0.296875q0.21875 -0.15625 0.46875 -0.234375q0.265625 -0.078125 0.5625 -0.078125q0.34375 0 0.609375 0.078125q0.265625 0.078125 0.453125 0.265625q0.1875 0.171875 0.28125 0.46875q0.09375 0.296875 0.09375 0.71875l0 4.0l1.078125 0l0 -4.03125q0 -0.625 -0.15625 -1.078125q-0.140625 -0.46875 -0.4375 -0.765625q-0.28125 -0.296875 -0.6875 -0.4375q-0.40625 -0.140625 -0.90625 -0.140625q-0.375 0 -0.703125 0.109375q-0.328125 0.09375 -0.609375 0.28125q-0.1875 0.125 -0.359375 0.296875q-0.171875 0.15625 -0.3125 0.359375l-0.0625 -0.9375l-0.984375 0l0 6.34375zm9.904297 -0.765625q-0.5 0 -0.84375 -0.203125q-0.34375 -0.203125 -0.546875 -0.53125q-0.21875 -0.3125 -0.3125 -0.71875q-0.09375 -0.40625 -0.09375 -0.828125l0 -0.25q0 -0.40625 0.09375 -0.8125q0.09375 -0.40625 0.3125 -0.734375q0.203125 -0.3125 0.546875 -0.515625q0.34375 -0.203125 0.84375 -0.203125q0.328125 0 0.609375 0.109375q0.296875 0.109375 0.5 0.296875q0.203125 0.203125 0.3125 0.453125q0.125 0.25 0.140625 0.546875l1.015625 0q0 -0.484375 -0.203125 -0.90625q-0.1875 -0.421875 -0.515625 -0.734375q-0.34375 -0.296875 -0.828125 -0.46875q-0.46875 -0.1875 -1.03125 -0.1875q-0.71875 0 -1.265625 0.265625q-0.53125 0.25 -0.890625 0.671875q-0.359375 0.453125 -0.546875 1.03125q-0.171875 0.5625 -0.171875 1.1875l0 0.25q0 0.625 0.171875 1.203125q0.1875 0.578125 0.546875 1.0q0.359375 0.4375 0.890625 0.703125q0.546875 0.265625 1.265625 0.265625q0.5 0 0.96875 -0.171875q0.46875 -0.1875 0.828125 -0.46875q0.34375 -0.296875 0.5625 -0.671875q0.21875 -0.390625 0.21875 -0.8125l-1.015625 0q-0.015625 0.265625 -0.15625 0.5q-0.125 0.21875 -0.34375 0.375q-0.203125 0.171875 -0.484375 0.265625q-0.28125 0.09375 -0.578125 0.09375z" fill-rule="nonzero"/><path fill="#000000" d="m644.2002 103.02569l1.6875 0q0.5625 0 1.078125 -0.171875q0.515625 -0.171875 0.90625 -0.5q0.390625 -0.3125 0.609375 -0.78125q0.21875 -0.484375 0.21875 -1.09375q0 -0.625 -0.21875 -1.09375q-0.21875 -0.46875 -0.609375 -0.796875q-0.390625 -0.328125 -0.90625 -0.484375q-0.515625 -0.171875 -1.078125 -0.1875l-2.765625 0l0 8.53125l1.078125 0l0 -3.421875zm0 -0.890625l0 -3.328125l1.6875 0q0.375 0 0.6875 0.125q0.328125 0.109375 0.5625 0.328125q0.21875 0.21875 0.34375 0.53125q0.140625 0.3125 0.140625 0.703125q0 0.375 -0.140625 0.6875q-0.125 0.296875 -0.359375 0.5q-0.234375 0.21875 -0.546875 0.34375q-0.3125 0.109375 -0.6875 0.109375l-1.6875 0zm10.201172 4.3125l0.984375 0l0 -6.34375l-1.09375 0l0 4.546875q-0.09375 0.203125 -0.234375 0.375q-0.125 0.171875 -0.296875 0.296875q-0.203125 0.15625 -0.5 0.25q-0.28125 0.078125 -0.640625 0.078125q-0.3125 0 -0.5625 -0.078125q-0.234375 -0.09375 -0.390625 -0.296875q-0.171875 -0.1875 -0.25 -0.53125q-0.078125 -0.34375 -0.078125 -0.859375l0 -3.78125l-1.078125 0l0 3.765625q0 0.71875 0.140625 1.234375q0.15625 0.5 0.453125 0.828125q0.28125 0.328125 0.6875 0.484375q0.40625 0.15625 0.90625 0.15625q0.625 0 1.09375 -0.265625q0.46875 -0.265625 0.796875 -0.734375l0.0625 0.875zm3.1855469 -9.0l0 0.9375l2.15625 0l0 7.125l-2.15625 0l0 0.9375l5.3125 0l0 -0.9375l-2.0625 0l0 -8.0625l-3.25 0zm11.248047 7.3125q0 0.15625 -0.0625 0.296875q-0.0625 0.125 -0.171875 0.234375q-0.171875 0.1875 -0.5 0.296875q-0.328125 0.09375 -0.75 0.09375q-0.28125 0 -0.5625 -0.046875q-0.28125 -0.0625 -0.515625 -0.203125q-0.234375 -0.140625 -0.390625 -0.375q-0.140625 -0.234375 -0.171875 -0.5625l-1.078125 0q0 0.40625 0.171875 0.78125q0.1875 0.375 0.546875 0.65625q0.34375 0.28125 0.84375 0.46875q0.5 0.171875 1.15625 0.171875q0.5625 0 1.03125 -0.140625q0.46875 -0.140625 0.8125 -0.390625q0.34375 -0.234375 0.53125 -0.578125q0.1875 -0.359375 0.1875 -0.78125q0 -0.390625 -0.171875 -0.6875q-0.15625 -0.296875 -0.46875 -0.53125q-0.328125 -0.21875 -0.796875 -0.375q-0.453125 -0.15625 -1.03125 -0.28125q-0.453125 -0.09375 -0.75 -0.1875q-0.28125 -0.09375 -0.453125 -0.203125q-0.171875 -0.125 -0.25 -0.265625q-0.0625 -0.15625 -0.0625 -0.34375q0 -0.171875 0.078125 -0.34375q0.09375 -0.171875 0.265625 -0.296875q0.171875 -0.140625 0.4375 -0.203125q0.265625 -0.078125 0.609375 -0.078125q0.328125 0 0.59375 0.09375q0.265625 0.09375 0.453125 0.234375q0.1875 0.15625 0.296875 0.359375q0.109375 0.1875 0.109375 0.390625l1.078125 0q0 -0.40625 -0.1875 -0.765625q-0.171875 -0.359375 -0.5 -0.640625q-0.328125 -0.265625 -0.796875 -0.40625q-0.46875 -0.15625 -1.046875 -0.15625q-0.546875 0 -1.0 0.140625q-0.453125 0.140625 -0.78125 0.40625q-0.328125 0.25 -0.515625 0.59375q-0.171875 0.328125 -0.171875 0.71875q0 0.390625 0.171875 0.6875q0.171875 0.296875 0.5 0.5q0.3125 0.234375 0.75 0.390625q0.453125 0.15625 1.0 0.265625q0.453125 0.09375 0.75 0.203125q0.296875 0.109375 0.484375 0.234375q0.171875 0.125 0.25 0.28125q0.078125 0.15625 0.078125 0.34375zm5.794922 1.8125q0.921875 0 1.546875 -0.375q0.625 -0.375 0.953125 -0.859375l-0.671875 -0.515625q-0.296875 0.390625 -0.75 0.625q-0.453125 0.234375 -1.03125 0.234375q-0.4375 0 -0.796875 -0.15625q-0.359375 -0.171875 -0.625 -0.46875q-0.25 -0.265625 -0.390625 -0.609375q-0.140625 -0.359375 -0.1875 -0.8125l0 -0.046875l4.53125 0l0 -0.484375q0 -0.671875 -0.171875 -1.234375q-0.15625 -0.5625 -0.5 -0.984375q-0.34375 -0.421875 -0.859375 -0.65625q-0.515625 -0.234375 -1.1875 -0.234375q-0.546875 0 -1.078125 0.21875q-0.515625 0.21875 -0.921875 0.640625q-0.40625 0.421875 -0.65625 1.03125q-0.234375 0.59375 -0.234375 1.375l0 0.234375q0 0.671875 0.21875 1.234375q0.21875 0.5625 0.625 0.96875q0.390625 0.40625 0.953125 0.640625q0.5625 0.234375 1.234375 0.234375zm-0.140625 -5.6875q0.40625 0 0.703125 0.15625q0.3125 0.140625 0.515625 0.390625q0.1875 0.25 0.296875 0.59375q0.125 0.328125 0.125 0.625l0 0.046875l-3.421875 0q0.0625 -0.4375 0.21875 -0.765625q0.171875 -0.34375 0.40625 -0.578125q0.234375 -0.234375 0.53125 -0.34375q0.296875 -0.125 0.625 -0.125z" fill-rule="nonzero"/><path fill="#000000" fill-opacity="0.0" d="m24.0 79.59055l72.0 0l0 40.409447l-72.0 0z" fill-rule="evenodd"/><path fill="#000000" d="m44.21025 105.23055l0 -12.3125l-1.484375 0l0 5.296875l-5.046875 0l0 -5.296875l-1.484375 0l0 12.3125l1.484375 0l0 -5.6875l5.046875 0l0 5.6875l1.484375 0zm9.117325 -3.109375q0 0.5 -0.21875 0.875q-0.21875 0.359375 -0.578125 0.59375q-0.34375 0.25 -0.796875 0.375q-0.4375 0.109375 -0.890625 0.109375q-0.578125 0 -1.0625 -0.15625q-0.484375 -0.15625 -0.859375 -0.46875q-0.375 -0.3125 -0.609375 -0.75q-0.234375 -0.453125 -0.3125 -1.015625l-1.59375 0q0.03125 0.78125 0.34375 1.4375q0.328125 0.640625 0.890625 1.125q0.625 0.5625 1.46875 0.859375q0.859375 0.296875 1.734375 0.296875q0.734375 0 1.46875 -0.203125q0.75 -0.21875 1.328125 -0.625q0.578125 -0.40625 0.9375 -1.015625q0.375 -0.625 0.375 -1.453125q0 -0.828125 -0.34375 -1.453125q-0.34375 -0.625 -0.890625 -1.0625q-0.578125 -0.453125 -1.265625 -0.75q-0.671875 -0.3125 -1.359375 -0.515625q-0.421875 -0.140625 -0.890625 -0.296875q-0.46875 -0.171875 -0.859375 -0.421875q-0.40625 -0.265625 -0.671875 -0.625q-0.265625 -0.375 -0.265625 -0.90625q0 -0.484375 0.1875 -0.859375q0.203125 -0.375 0.546875 -0.625q0.328125 -0.25 0.75 -0.375q0.4375 -0.140625 0.875 -0.140625q0.5625 0 1.0 0.171875q0.453125 0.171875 0.765625 0.5q0.328125 0.3125 0.515625 0.75q0.203125 0.421875 0.265625 0.953125l1.609375 0q-0.015625 -0.84375 -0.359375 -1.515625q-0.34375 -0.6875 -0.921875 -1.171875q-0.578125 -0.484375 -1.328125 -0.75q-0.734375 -0.265625 -1.546875 -0.265625q-0.71875 0 -1.4375 0.21875q-0.71875 0.21875 -1.296875 0.65625q-0.5625 0.4375 -0.921875 1.0625q-0.34375 0.625 -0.34375 1.421875q0 0.796875 0.34375 1.390625q0.359375 0.578125 0.921875 1.015625q0.546875 0.421875 1.21875 0.71875q0.671875 0.296875 1.328125 0.515625q0.453125 0.140625 0.9375 0.328125q0.484375 0.171875 0.890625 0.421875q0.40625 0.28125 0.65625 0.671875q0.265625 0.375 0.265625 0.953125zm7.586075 -3.03125l-2.8125 -6.171875l-1.78125 0l3.828125 7.71875l0.03125 4.59375l1.453125 0l0.03125 -4.59375l3.828125 -7.71875l-1.78125 0l-2.796875 6.171875zm14.4767 6.140625l0 -12.3125l-1.578125 0l-0.03125 9.1875l-4.78125 -9.1875l-1.59375 0l0 12.3125l1.59375 0l0.015625 -9.203125l4.78125 9.203125l1.59375 0zm10.6642 -3.703125l-1.5625 0q-0.078125 0.5625 -0.265625 1.046875q-0.1875 0.46875 -0.5 0.8125q-0.3125 0.359375 -0.765625 0.5625q-0.453125 0.1875 -1.078125 0.1875q-0.5625 0 -0.984375 -0.1875q-0.421875 -0.1875 -0.734375 -0.5q-0.3125 -0.3125 -0.515625 -0.71875q-0.203125 -0.421875 -0.328125 -0.90625q-0.125 -0.453125 -0.1875 -0.9375q-0.046875 -0.5 -0.046875 -0.953125l0 -1.734375q0 -0.453125 0.046875 -0.9375q0.0625 -0.5 0.1875 -0.953125q0.125 -0.46875 0.328125 -0.875q0.203125 -0.421875 0.53125 -0.734375q0.296875 -0.3125 0.71875 -0.484375q0.4375 -0.1875 0.984375 -0.1875q0.625 0 1.078125 0.203125q0.453125 0.203125 0.765625 0.5625q0.3125 0.375 0.5 0.859375q0.1875 0.46875 0.265625 1.03125l1.5625 0q-0.109375 -0.875 -0.421875 -1.59375q-0.3125 -0.734375 -0.84375 -1.265625q-0.515625 -0.515625 -1.25 -0.796875q-0.734375 -0.28125 -1.65625 -0.28125q-0.765625 0 -1.390625 0.21875q-0.609375 0.203125 -1.09375 0.59375q-0.484375 0.375 -0.84375 0.90625q-0.34375 0.515625 -0.578125 1.125q-0.234375 0.609375 -0.359375 1.28125q-0.109375 0.65625 -0.109375 1.34375l0 1.71875q0 0.6875 0.109375 1.359375q0.125 0.65625 0.359375 1.265625q0.234375 0.609375 0.578125 1.125q0.359375 0.515625 0.84375 0.90625q0.484375 0.375 1.109375 0.59375q0.625 0.21875 1.375 0.21875q0.890625 0 1.609375 -0.28125q0.734375 -0.28125 1.265625 -0.796875q0.53125 -0.515625 0.859375 -1.21875q0.328125 -0.71875 0.4375 -1.578125z" fill-rule="nonzero"/><path fill="#000000" fill-opacity="0.0" d="m88.0 167.99806l192.0 0l0 -30.076797l296.0 0l0 30.076797l152.0 0" fill-rule="evenodd"/><path stroke="#000000" stroke-width="2.0" stroke-linejoin="round" stroke-linecap="butt" d="m88.0 167.99806l192.0 0l0 -30.076797l296.0 0l0 30.076797l152.0 0" fill-rule="evenodd"/><path fill="#000000" fill-opacity="0.0" d="m32.0 136.0l64.0 0l0 40.409454l-64.0 0z" fill-rule="evenodd"/><path fill="#000000" d="m54.608826 161.64l0 -12.3125l-1.484375 0l0 5.296875l-5.046875 0l0 -5.296875l-1.484375 0l0 12.3125l1.484375 0l0 -5.6875l5.046875 0l0 5.6875l1.484375 0zm9.44545 -5.6875l0 -1.328125l-5.140625 0l0 -3.96875l5.921875 0l0 -1.328125l-7.484375 0l0 12.3125l7.5625 0l0 -1.328125l-6.0 0l0 -4.359375l5.140625 0zm11.336075 5.6875l0 -12.3125l-1.578125 0l-0.03125 9.1875l-4.78125 -9.1875l-1.59375 0l0 12.3125l1.59375 0l0.015625 -9.203125l4.78125 9.203125l1.59375 0zm8.57045 -3.1875l0.96875 3.1875l1.546875 0l-3.90625 -12.3125l-1.3125 0l-3.96875 12.3125l1.5625 0l0.984375 -3.1875l4.125 0zm-3.703125 -1.359375l1.65625 -5.359375l1.625 5.359375l-3.28125 0z" fill-rule="nonzero"/><path fill="#000000" fill-opacity="0.0" d="m280.0 0l104.0 0l0 33.92126l-104.0 0z" fill-rule="evenodd"/><path fill="#000000" d="m291.20312 17.098125l1.6875 0q0.5625 0 1.078125 -0.171875q0.515625 -0.171875 0.90625 -0.5q0.390625 -0.3125 0.609375 -0.78125q0.21875 -0.484375 0.21875 -1.09375q0 -0.625 -0.21875 -1.09375q-0.21875 -0.46875 -0.609375 -0.796875q-0.390625 -0.328125 -0.90625 -0.484375q-0.515625 -0.171875 -1.078125 -0.1875l-2.765625 0l0 8.53125l1.078125 0l0 -3.421875zm0 -0.890625l0 -3.328125l1.6875 0q0.375 0 0.6875 0.125q0.328125 0.109375 0.5625 0.328125q0.21875 0.21875 0.34375 0.53125q0.140625 0.3125 0.140625 0.703125q0 0.375 -0.140625 0.6875q-0.125 0.296875 -0.359375 0.5q-0.234375 0.21875 -0.546875 0.34375q-0.3125 0.109375 -0.6875 0.109375l-1.6875 0zm6.185547 -2.03125l0 0.953125l2.15625 0l0 4.453125l-2.15625 0l0 0.9375l5.3125 0l0 -0.9375l-2.0625 0l0 -5.40625l-3.25 0zm2.015625 -1.65625q0 0.265625 0.15625 0.4375q0.171875 0.171875 0.5 0.171875q0.3125 0 0.46875 -0.171875q0.171875 -0.171875 0.171875 -0.4375q0 -0.15625 -0.046875 -0.265625q-0.046875 -0.125 -0.140625 -0.21875q-0.0625 -0.078125 -0.1875 -0.109375q-0.109375 -0.046875 -0.265625 -0.046875q-0.15625 0 -0.28125 0.046875q-0.109375 0.03125 -0.1875 0.109375q-0.09375 0.09375 -0.140625 0.21875q-0.046875 0.125 -0.046875 0.265625zm7.638672 4.015625l-1.671875 -2.359375l-1.265625 0l2.375 3.140625l-2.4375 3.203125l1.265625 0l1.75 -2.421875l1.765625 2.421875l1.25 0l-2.421875 -3.203125l2.359375 -3.140625l-1.28125 0l-1.6875 2.359375zm7.388672 4.109375q0.921875 0 1.546875 -0.375q0.625 -0.375 0.953125 -0.859375l-0.671875 -0.515625q-0.296875 0.390625 -0.75 0.625q-0.453125 0.234375 -1.03125 0.234375q-0.4375 0 -0.796875 -0.15625q-0.359375 -0.171875 -0.625 -0.46875q-0.25 -0.265625 -0.390625 -0.609375q-0.140625 -0.359375 -0.1875 -0.8125l0 -0.046875l4.53125 0l0 -0.484375q0 -0.671875 -0.171875 -1.234375q-0.15625 -0.5625 -0.5 -0.984375q-0.34375 -0.421875 -0.859375 -0.65625q-0.515625 -0.234375 -1.1875 -0.234375q-0.546875 0 -1.078125 0.21875q-0.515625 0.21875 -0.921875 0.640625q-0.40625 0.421875 -0.65625 1.03125q-0.234375 0.59375 -0.234375 1.375l0 0.234375q0 0.671875 0.21875 1.234375q0.21875 0.5625 0.625 0.96875q0.390625 0.40625 0.953125 0.640625q0.5625 0.234375 1.234375 0.234375zm-0.140625 -5.6875q0.40625 0 0.703125 0.15625q0.3125 0.140625 0.515625 0.390625q0.1875 0.25 0.296875 0.59375q0.125 0.328125 0.125 0.625l0 0.046875l-3.421875 0q0.0625 -0.4375 0.21875 -0.765625q0.171875 -0.34375 0.40625 -0.578125q0.234375 -0.234375 0.53125 -0.34375q0.296875 -0.125 0.625 -0.125zm4.701172 -3.4375l0 0.9375l2.15625 0l0 7.125l-2.15625 0l0 0.9375l5.3125 0l0 -0.9375l-2.0625 0l0 -8.0625l-3.25 0zm19.589844 5.734375l0 -2.0q0 -0.8125 -0.1875 -1.4375q-0.1875 -0.640625 -0.53125 -1.0625q-0.359375 -0.4375 -0.875 -0.65625q-0.515625 -0.234375 -1.171875 -0.234375q-0.65625 0 -1.171875 0.234375q-0.5 0.21875 -0.859375 0.65625q-0.359375 0.421875 -0.546875 1.0625q-0.1875 0.625 -0.1875 1.4375l0 2.0q0 0.8125 0.1875 1.453125q0.1875 0.625 0.546875 1.046875q0.359375 0.4375 0.875 0.671875q0.515625 0.21875 1.171875 0.21875q0.65625 0 1.15625 -0.21875q0.515625 -0.234375 0.875 -0.671875q0.34375 -0.421875 0.53125 -1.046875q0.1875 -0.640625 0.1875 -1.453125zm-4.4375 -0.21875q0 -0.15625 0 -0.296875q0 -0.140625 0 -0.296875l0 -1.421875q0 -0.59375 0.125 -1.046875q0.125 -0.46875 0.359375 -0.75q0.203125 -0.234375 0.5 -0.34375q0.296875 -0.125 0.6875 -0.125q0.375 0 0.671875 0.109375q0.296875 0.109375 0.484375 0.34375q0.203125 0.203125 0.328125 0.53125q0.125 0.328125 0.171875 0.75l-3.328125 2.546875zm3.34375 0.453125q0 0.625 -0.125 1.09375q-0.125 0.453125 -0.390625 0.734375q-0.203125 0.21875 -0.5 0.328125q-0.28125 0.109375 -0.640625 0.109375q-0.359375 0 -0.640625 -0.09375q-0.28125 -0.109375 -0.46875 -0.3125q-0.21875 -0.203125 -0.359375 -0.53125q-0.140625 -0.328125 -0.1875 -0.75l3.3125 -2.546875q0 0.171875 0 0.421875q0 0.25 0 0.328125l0 1.21875z" fill-rule="nonzero"/><path fill="#000000" fill-opacity="0.0" d="m520.0 0l120.0 0l0 33.92126l-120.0 0z" fill-rule="evenodd"/><path fill="#000000" d="m531.2031 17.098125l1.6875 0q0.5625 0 1.078125 -0.171875q0.515625 -0.171875 0.90625 -0.5q0.390625 -0.3125 0.609375 -0.78125q0.21875 -0.484375 0.21875 -1.09375q0 -0.625 -0.21875 -1.09375q-0.21875 -0.46875 -0.609375 -0.796875q-0.390625 -0.328125 -0.90625 -0.484375q-0.515625 -0.171875 -1.078125 -0.1875l-2.765625 0l0 8.53125l1.078125 0l0 -3.421875zm0 -0.890625l0 -3.328125l1.6875 0q0.375 0 0.6875 0.125q0.328125 0.109375 0.5625 0.328125q0.21875 0.21875 0.34375 0.53125q0.140625 0.3125 0.140625 0.703125q0 0.375 -0.140625 0.6875q-0.125 0.296875 -0.359375 0.5q-0.234375 0.21875 -0.546875 0.34375q-0.3125 0.109375 -0.6875 0.109375l-1.6875 0zm6.185547 -2.03125l0 0.953125l2.15625 0l0 4.453125l-2.15625 0l0 0.9375l5.3125 0l0 -0.9375l-2.0625 0l0 -5.40625l-3.25 0zm2.015625 -1.65625q0 0.265625 0.15625 0.4375q0.171875 0.171875 0.5 0.171875q0.3125 0 0.46875 -0.171875q0.171875 -0.171875 0.171875 -0.4375q0 -0.15625 -0.046875 -0.265625q-0.046875 -0.125 -0.140625 -0.21875q-0.0625 -0.078125 -0.1875 -0.109375q-0.109375 -0.046875 -0.265625 -0.046875q-0.15625 0 -0.28125 0.046875q-0.109375 0.03125 -0.1875 0.109375q-0.09375 0.09375 -0.140625 0.21875q-0.046875 0.125 -0.046875 0.265625zm7.638672 4.015625l-1.671875 -2.359375l-1.265625 0l2.375 3.140625l-2.4375 3.203125l1.265625 0l1.75 -2.421875l1.765625 2.421875l1.25 0l-2.421875 -3.203125l2.359375 -3.140625l-1.28125 0l-1.6875 2.359375zm7.388672 4.109375q0.921875 0 1.546875 -0.375q0.625 -0.375 0.953125 -0.859375l-0.671875 -0.515625q-0.296875 0.390625 -0.75 0.625q-0.453125 0.234375 -1.03125 0.234375q-0.4375 0 -0.796875 -0.15625q-0.359375 -0.171875 -0.625 -0.46875q-0.25 -0.265625 -0.390625 -0.609375q-0.140625 -0.359375 -0.1875 -0.8125l0 -0.046875l4.53125 0l0 -0.484375q0 -0.671875 -0.171875 -1.234375q-0.15625 -0.5625 -0.5 -0.984375q-0.34375 -0.421875 -0.859375 -0.65625q-0.515625 -0.234375 -1.1875 -0.234375q-0.546875 0 -1.078125 0.21875q-0.515625 0.21875 -0.921875 0.640625q-0.40625 0.421875 -0.65625 1.03125q-0.234375 0.59375 -0.234375 1.375l0 0.234375q0 0.671875 0.21875 1.234375q0.21875 0.5625 0.625 0.96875q0.390625 0.40625 0.953125 0.640625q0.5625 0.234375 1.234375 0.234375zm-0.140625 -5.6875q0.40625 0 0.703125 0.15625q0.3125 0.140625 0.515625 0.390625q0.1875 0.25 0.296875 0.59375q0.125 0.328125 0.125 0.625l0 0.046875l-3.421875 0q0.0625 -0.4375 0.21875 -0.765625q0.171875 -0.34375 0.40625 -0.578125q0.234375 -0.234375 0.53125 -0.34375q0.296875 -0.125 0.625 -0.125zm4.701172 -3.4375l0 0.9375l2.15625 0l0 7.125l-2.15625 0l0 0.9375l5.3125 0l0 -0.9375l-2.0625 0l0 -8.0625l-3.25 0zm18.636719 6.140625l0 -5.671875l-1.15625 0l-3.828125 5.90625l0 0.640625l3.890625 0l0 1.984375l1.09375 0l0 -1.984375l1.1875 0l0 -0.875l-1.1875 0zm-3.78125 0l2.515625 -3.90625l0.171875 -0.328125l0 4.234375l-2.6875 0zm11.982422 -5.0625l0 -0.609375l-5.765625 0l0 0.953125l4.625 0l-3.53125 7.578125l1.140625 0l3.53125 -7.921875zm2.9667969 6.953125l-0.109375 0l0 0.96875l0.109375 0q1.046875 0 1.78125 -0.28125q0.75 -0.296875 1.15625 -0.765625q0.6875 -0.765625 0.890625 -1.765625q0.21875 -1.0 0.21875 -2.0l0 -0.390625q0 -0.6875 -0.1875 -1.390625q-0.1875 -0.703125 -0.578125 -1.171875q-0.328125 -0.390625 -0.8125 -0.640625q-0.484375 -0.25 -1.140625 -0.25q-0.65625 0 -1.15625 0.25q-0.484375 0.234375 -0.8125 0.625q-0.34375 0.40625 -0.515625 0.953125q-0.15625 0.53125 -0.15625 1.125q0 0.515625 0.140625 1.03125q0.140625 0.515625 0.4375 0.921875q0.296875 0.390625 0.75 0.640625q0.46875 0.25 1.109375 0.25q0.328125 0 0.59375 -0.0625q0.28125 -0.0625 0.515625 -0.1875q0.21875 -0.109375 0.40625 -0.265625q0.1875 -0.15625 0.328125 -0.328125l0 0q-0.03125 0.546875 -0.171875 1.046875q-0.140625 0.5 -0.546875 0.9375q-0.328125 0.359375 -0.890625 0.5625q-0.546875 0.1875 -1.359375 0.1875zm1.296875 -2.78125q-0.390625 0 -0.6875 -0.171875q-0.28125 -0.171875 -0.46875 -0.453125q-0.203125 -0.28125 -0.296875 -0.640625q-0.09375 -0.359375 -0.09375 -0.734375q0 -0.421875 0.109375 -0.78125q0.109375 -0.375 0.3125 -0.640625q0.203125 -0.265625 0.484375 -0.421875q0.296875 -0.15625 0.671875 -0.15625q0.34375 0 0.640625 0.171875q0.296875 0.15625 0.515625 0.46875q0.234375 0.3125 0.359375 0.765625q0.125 0.4375 0.125 1.0l0 0.34375q-0.09375 0.28125 -0.265625 0.515625q-0.171875 0.21875 -0.390625 0.375q-0.21875 0.171875 -0.484375 0.265625q-0.265625 0.09375 -0.53125 0.09375z" fill-rule="nonzero"/><path fill="#000000" fill-opacity="0.0" d="m552.0 25.921259l14.015747 22.015749" fill-rule="evenodd"/><path stroke="#000000" stroke-width="1.0" stroke-linejoin="round" stroke-linecap="butt" stroke-dasharray="1.0,3.0" d="m552.0 25.921259l12.175293 19.124792" fill-rule="evenodd"/><path fill="#000000" stroke="#000000" stroke-width="1.0" stroke-linecap="butt" d="m564.1753 45.046047l-1.5526123 -0.34471893l2.6079712 2.0024757l-0.7106323 -3.21035z" fill-rule="evenodd"/><path fill="#000000" fill-opacity="0.0" d="m306.5 24.921259l-16.0 24.000002" fill-rule="evenodd"/><path stroke="#000000" stroke-width="1.0" stroke-linejoin="round" stroke-linecap="butt" stroke-dasharray="1.0,3.0" d="m306.5 24.921259l-14.098999 21.148497" fill-rule="evenodd"/><path fill="#000000" stroke="#000000" stroke-width="1.0" stroke-linecap="butt" d="m292.401 46.06975l-0.31188965 -1.5595169l-0.77819824 3.1946487l2.6495972 -1.9470367z" fill-rule="evenodd"/><path fill="#000000" fill-opacity="0.0" d="m530.5 53.98819l0 11.433067" fill-rule="evenodd"/><path stroke="#000000" stroke-width="1.0" stroke-linejoin="round" stroke-linecap="butt" d="m530.5 53.98819l0 5.433071" fill-rule="evenodd"/><path fill="#000000" stroke="#000000" stroke-width="1.0" stroke-linecap="butt" d="m528.84827 59.42126l1.6517334 4.5380974l1.6517334 -4.5380974z" fill-rule="evenodd"/><path fill="#000000" fill-opacity="0.0" d="m548.868 53.98819l0 11.433067" fill-rule="evenodd"/><path stroke="#000000" stroke-width="1.0" stroke-linejoin="round" stroke-linecap="butt" d="m548.8679 53.98819l0 5.433071" fill-rule="evenodd"/><path fill="#000000" stroke="#000000" stroke-width="1.0" stroke-linecap="butt" d="m547.2162 59.42126l1.6517334 4.5380974l1.6517334 -4.5380974z" fill-rule="evenodd"/><path fill="#000000" fill-opacity="0.0" d="m567.2359 53.98819l0 11.433067" fill-rule="evenodd"/><path stroke="#000000" stroke-width="1.0" stroke-linejoin="round" stroke-linecap="butt" d="m567.23596 53.98819l0 5.433071" fill-rule="evenodd"/><path fill="#000000" stroke="#000000" stroke-width="1.0" stroke-linecap="butt" d="m565.5842 59.42126l1.6517334 4.5380974l1.6517334 -4.5380974z" fill-rule="evenodd"/><path fill="#000000" fill-opacity="0.0" d="m585.6039 53.98819l0 11.433067" fill-rule="evenodd"/><path stroke="#000000" stroke-width="1.0" stroke-linejoin="round" stroke-linecap="butt" d="m585.6039 53.98819l0 5.433071" fill-rule="evenodd"/><path fill="#000000" stroke="#000000" stroke-width="1.0" stroke-linecap="butt" d="m583.95215 59.42126l1.6517334 4.5380974l1.6517334 -4.5380974z" fill-rule="evenodd"/><path fill="#000000" fill-opacity="0.0" d="m603.9718 53.98819l0 11.433067" fill-rule="evenodd"/><path stroke="#000000" stroke-width="1.0" stroke-linejoin="round" stroke-linecap="butt" d="m603.9718 53.98819l0 5.433071" fill-rule="evenodd"/><path fill="#000000" stroke="#000000" stroke-width="1.0" stroke-linecap="butt" d="m602.32007 59.42126l1.6517334 4.5380974l1.6517334 -4.5380974z" fill-rule="evenodd"/><path fill="#000000" fill-opacity="0.0" d="m622.3398 53.98819l0 11.433067" fill-rule="evenodd"/><path stroke="#000000" stroke-width="1.0" stroke-linejoin="round" stroke-linecap="butt" d="m622.3398 53.98819l0 5.433071" fill-rule="evenodd"/><path fill="#000000" stroke="#000000" stroke-width="1.0" stroke-linecap="butt" d="m620.68805 59.42126l1.6517334 4.5380974l1.6517334 -4.5380974z" fill-rule="evenodd"/><path fill="#000000" fill-opacity="0.0" d="m640.70776 53.98819l0 11.433067" fill-rule="evenodd"/><path stroke="#000000" stroke-width="1.0" stroke-linejoin="round" stroke-linecap="butt" d="m640.70776 53.98819l0 5.433071" fill-rule="evenodd"/><path fill="#000000" stroke="#000000" stroke-width="1.0" stroke-linecap="butt" d="m639.056 59.42126l1.6517334 4.5380974l1.6517334 -4.5380974z" fill-rule="evenodd"/><path fill="#000000" fill-opacity="0.0" d="m659.0757 53.98819l0 11.433067" fill-rule="evenodd"/><path stroke="#000000" stroke-width="1.0" stroke-linejoin="round" stroke-linecap="butt" d="m659.0757 53.98819l0 5.433071" fill-rule="evenodd"/><path fill="#000000" stroke="#000000" stroke-width="1.0" stroke-linecap="butt" d="m657.42395 59.42126l1.6517334 4.5380974l1.6517334 -4.5380974z" fill-rule="evenodd"/><path fill="#000000" fill-opacity="0.0" d="m677.44366 53.98819l0 11.433067" fill-rule="evenodd"/><path stroke="#000000" stroke-width="1.0" stroke-linejoin="round" stroke-linecap="butt" d="m677.44366 53.98819l0 5.433071" fill-rule="evenodd"/><path fill="#000000" stroke="#000000" stroke-width="1.0" stroke-linecap="butt" d="m675.79193 59.42126l1.6517334 4.5380974l1.6517334 -4.5380974z" fill-rule="evenodd"/><path fill="#000000" fill-opacity="0.0" d="m695.81165 53.98819l0 11.433067" fill-rule="evenodd"/><path stroke="#000000" stroke-width="1.0" stroke-linejoin="round" stroke-linecap="butt" d="m695.8116 53.98819l0 5.433071" fill-rule="evenodd"/><path fill="#000000" stroke="#000000" stroke-width="1.0" stroke-linecap="butt" d="m694.15985 59.42126l1.6517334 4.5380974l1.6517334 -4.5380974z" fill-rule="evenodd"/><path fill="#000000" fill-opacity="0.0" d="m714.17957 53.98819l0 11.433067" fill-rule="evenodd"/><path stroke="#000000" stroke-width="1.0" stroke-linejoin="round" stroke-linecap="butt" d="m714.17957 53.98819l0 5.433071" fill-rule="evenodd"/><path fill="#000000" stroke="#000000" stroke-width="1.0" stroke-linecap="butt" d="m712.52783 59.42126l1.6517334 4.5380974l1.6517334 -4.5380974z" fill-rule="evenodd"/><path fill="#000000" fill-opacity="0.0" d="m732.54755 53.98819l0 11.433067" fill-rule="evenodd"/><path stroke="#000000" stroke-width="1.0" stroke-linejoin="round" stroke-linecap="butt" d="m732.54755 53.98819l0 5.433071" fill-rule="evenodd"/><path fill="#000000" stroke="#000000" stroke-width="1.0" stroke-linecap="butt" d="m730.8958 59.42126l1.6517334 4.5380974l1.6517334 -4.5380974z" fill-rule="evenodd"/><path fill="#000000" fill-opacity="0.0" d="m750.91547 53.98819l0 11.433067" fill-rule="evenodd"/><path stroke="#000000" stroke-width="1.0" stroke-linejoin="round" stroke-linecap="butt" d="m750.9155 53.98819l0 5.433071" fill-rule="evenodd"/><path fill="#000000" stroke="#000000" stroke-width="1.0" stroke-linecap="butt" d="m749.2638 59.42126l1.6517334 4.5380974l1.6517334 -4.5380974z" fill-rule="evenodd"/></g></svg>