<svg version="1.1" viewBox="0.0 0.0 461.92913385826773 201.46194225721786" fill="none" stroke="none" stroke-linecap="square" stroke-miterlimit="10" xmlns:xlink="http://www.w3.org/1999/xlink" xmlns="http://www.w3.org/2000/svg"><clipPath id="p.0"><path d="m0 0l461.92914 0l0 201.46194l-461.92914 0l0 -201.46194z" clip-rule="nonzero"/></clipPath><g clip-path="url(#p.0)"><path fill="#000000" fill-opacity="0.0" d="m0 0l461.92914 0l0 201.46194l-461.92914 0z" fill-rule="evenodd"/><path fill="#f3f3f3" d="m0 0l462.4882 0l0 201.41733l-462.4882 0z" fill-rule="evenodd"/><path fill="#000000" fill-opacity="0.0" d="m37.59766 190.394l6.8003807 0l0 -9.795334l5.9138985 0" fill-rule="evenodd"/><path stroke="#000000" stroke-width="1.0" stroke-linejoin="round" stroke-linecap="butt" d="m37.59766 190.394l6.8003807 0l0 -9.795334l5.9138985 0" fill-rule="evenodd"/><path fill="#000000" fill-opacity="0.0" d="m57.047215 190.394l-6.8003807 0l0 -9.795334l-5.9138985 0" fill-rule="evenodd"/><path stroke="#000000" stroke-width="1.0" stroke-linejoin="round" stroke-linecap="butt" d="m57.047215 190.394l-6.8003807 0l0 -9.795334l-5.9138985 0" fill-rule="evenodd"/><path fill="#000000" fill-opacity="0.0" d="m50.18112 190.394l6.8003845 0l0 -9.795334l5.9138985 0" fill-rule="evenodd"/><path stroke="#000000" stroke-width="1.0" stroke-linejoin="round" stroke-linecap="butt" d="m50.18112 190.394l6.8003845 0l0 -9.795334l5.9138985 0" fill-rule="evenodd"/><path fill="#000000" fill-opacity="0.0" d="m69.63068 190.394l-6.800377 0l0 -9.795334l-5.9139023 0" fill-rule="evenodd"/><path stroke="#000000" stroke-width="1.0" stroke-linejoin="round" stroke-linecap="butt" d="m69.63068 190.394l-6.800377 0l0 -9.795334l-5.9139023 0" fill-rule="evenodd"/><path fill="#000000" fill-opacity="0.0" d="m62.69888 190.394l6.8003807 0l0 -9.795334l5.9139023 0" fill-rule="evenodd"/><path stroke="#000000" stroke-width="1.0" stroke-linejoin="round" stroke-linecap="butt" d="m62.69888 190.394l6.8003807 0l0 -9.795334l5.9139023 0" fill-rule="evenodd"/><path fill="#000000" fill-opacity="0.0" d="m82.14844 190.394l-6.8003845 0l0 -9.795334l-5.9139023 0" fill-rule="evenodd"/><path stroke="#000000" stroke-width="1.0" stroke-linejoin="round" stroke-linecap="butt" d="m82.14844 190.394l-6.8003845 0l0 -9.795334l-5.9139023 0" fill-rule="evenodd"/><path fill="#000000" fill-opacity="0.0" d="m75.28234 190.394l6.8003845 0l0 -9.795334l5.9139023 0" fill-rule="evenodd"/><path stroke="#000000" stroke-width="1.0" stroke-linejoin="round" stroke-linecap="butt" d="m75.28234 190.394l6.8003845 0l0 -9.795334l5.9139023 0" fill-rule="evenodd"/><path fill="#000000" fill-opacity="0.0" d="m94.7319 190.394l-6.8003845 0l0 -9.795334l-5.9139023 0" fill-rule="evenodd"/><path stroke="#000000" stroke-width="1.0" stroke-linejoin="round" stroke-linecap="butt" d="m94.7319 190.394l-6.8003845 0l0 -9.795334l-5.9139023 0" fill-rule="evenodd"/><path fill="#000000" fill-opacity="0.0" d="m339.98425 136.93652l51.18109 0.12599182" fill-rule="evenodd"/><path stroke="#000000" stroke-width="1.0" stroke-linejoin="round" stroke-linecap="butt" d="m339.98425 136.93652l45.18109 0.111206055" fill-rule="evenodd"/><path fill="#000000" stroke="#000000" stroke-width="1.0" stroke-linecap="butt" d="m385.16132 138.69946l4.542145 -1.6405487l-4.534027 -1.6629028z" fill-rule="evenodd"/><path fill="#000000" fill-opacity="0.0" d="m5.125984 194.32573l26.582678 0l0 -32.629913l26.582678 0" fill-rule="evenodd"/><path stroke="#999999" stroke-width="1.0" stroke-linejoin="round" stroke-linecap="butt" d="m5.125984 194.32573l26.582678 0l0 -32.62993l20.582678 0" fill-rule="evenodd"/><path fill="#999999" stroke="#999999" stroke-width="1.0" stroke-linecap="butt" d="m52.29134 163.34753l4.5380974 -1.6517334l-4.5380974 -1.6517334z" fill-rule="evenodd"/><path fill="#000000" fill-opacity="0.0" d="m391.15356 7.205937l86.39368 0l0 35.559055l-86.39368 0z" fill-rule="evenodd"/><path fill="#000000" d="m400.95044 25.42781l0 0.140625q0 0.75 0.21875 1.40625q0.21875 0.65625 0.640625 1.140625q0.40625 0.46875 1.0 0.75q0.59375 0.265625 1.34375 0.265625q0.75 0 1.328125 -0.265625q0.59375 -0.28125 1.015625 -0.75q0.40625 -0.484375 0.625 -1.140625q0.234375 -0.65625 0.234375 -1.40625l0 -0.140625q0 -0.765625 -0.234375 -1.421875q-0.21875 -0.65625 -0.625 -1.140625q-0.421875 -0.484375 -1.015625 -0.75q-0.59375 -0.28125 -1.34375 -0.28125q-0.734375 0 -1.328125 0.28125q-0.59375 0.265625 -1.0 0.75q-0.421875 0.484375 -0.640625 1.140625q-0.21875 0.65625 -0.21875 1.421875zm1.203125 0.140625l0 -0.140625q0 -0.515625 0.125 -0.984375q0.125 -0.484375 0.375 -0.84375q0.25 -0.359375 0.609375 -0.5625q0.375 -0.21875 0.875 -0.21875q0.5 0 0.875 0.21875q0.375 0.203125 0.640625 0.5625q0.234375 0.359375 0.359375 0.84375q0.140625 0.46875 0.140625 0.984375l0 0.140625q0 0.515625 -0.125 0.984375q-0.125 0.46875 -0.375 0.828125q-0.25 0.359375 -0.625 0.578125q-0.375 0.203125 -0.875 0.203125q-0.5 0 -0.875 -0.203125q-0.375 -0.21875 -0.625 -0.578125q-0.25 -0.359375 -0.375 -0.828125q-0.125 -0.46875 -0.125 -0.984375zm12.966919 4.421875l0 -0.984375l-5.953125 0l0 0.984375l5.953125 0zm5.0763245 -5.421875l-1.859375 -2.609375l-1.40625 0l2.625 3.484375l-2.6875 3.5625l1.40625 0l1.9375 -2.6875l1.953125 2.6875l1.390625 0l-2.6875 -3.5625l2.609375 -3.484375l-1.40625 0l-1.875 2.609375z" fill-rule="nonzero"/><path fill="#000000" fill-opacity="0.0" d="m391.15356 63.311153l86.39368 0l0 35.559055l-86.39368 0z" fill-rule="evenodd"/><path fill="#000000" d="m400.95044 81.53303l0 0.140625q0 0.75 0.21875 1.40625q0.21875 0.65625 0.640625 1.140625q0.40625 0.46875 1.0 0.75q0.59375 0.265625 1.34375 0.265625q0.75 0 1.328125 -0.265625q0.59375 -0.28125 1.015625 -0.75q0.40625 -0.484375 0.625 -1.140625q0.234375 -0.65625 0.234375 -1.40625l0 -0.140625q0 -0.765625 -0.234375 -1.421875q-0.21875 -0.65625 -0.625 -1.140625q-0.421875 -0.484375 -1.015625 -0.75q-0.59375 -0.28125 -1.34375 -0.28125q-0.734375 0 -1.328125 0.28125q-0.59375 0.265625 -1.0 0.75q-0.421875 0.484375 -0.640625 1.140625q-0.21875 0.65625 -0.21875 1.421875zm1.203125 0.140625l0 -0.140625q0 -0.515625 0.125 -0.984375q0.125 -0.484375 0.375 -0.84375q0.25 -0.359375 0.609375 -0.5625q0.375 -0.21875 0.875 -0.21875q0.5 0 0.875 0.21875q0.375 0.203125 0.640625 0.5625q0.234375 0.359375 0.359375 0.84375q0.140625 0.46875 0.140625 0.984375l0 0.140625q0 0.515625 -0.125 0.984375q-0.125 0.46875 -0.375 0.828125q-0.25 0.359375 -0.625 0.578125q-0.375 0.203125 -0.875 0.203125q-0.5 0 -0.875 -0.203125q-0.375 -0.21875 -0.625 -0.578125q-0.25 -0.359375 -0.375 -0.828125q-0.125 -0.46875 -0.125 -0.984375zm12.966919 4.421875l0 -0.984375l-5.953125 0l0 0.984375l5.953125 0zm3.3731995 -6.984375l0 -4.0l-1.21875 0l0 10.0l1.21875 0l0 -5.109375q0.125 -0.21875 0.28125 -0.390625q0.171875 -0.171875 0.375 -0.296875q0.234375 -0.171875 0.53125 -0.265625q0.296875 -0.09375 0.625 -0.09375q0.390625 0 0.6875 0.125q0.3125 0.109375 0.515625 0.328125q0.1875 0.203125 0.28125 0.53125q0.109375 0.3125 0.109375 0.734375l0 4.4375l1.203125 0l0 -4.4375q0 -0.703125 -0.171875 -1.21875q-0.171875 -0.515625 -0.5 -0.859375q-0.3125 -0.34375 -0.765625 -0.5q-0.453125 -0.15625 -1.0 -0.15625q-0.421875 0 -0.796875 0.125q-0.375 0.109375 -0.6875 0.34375q-0.203125 0.140625 -0.375 0.328125q-0.171875 0.171875 -0.3125 0.375zm6.560669 2.421875l0 0.140625q0 0.75 0.203125 1.40625q0.203125 0.65625 0.5625 1.140625q0.359375 0.46875 0.875 0.75q0.53125 0.265625 1.15625 0.265625q0.65625 0 1.140625 -0.21875q0.5 -0.21875 0.84375 -0.640625l0.046875 0.734375l1.109375 0l0 -10.0l-1.203125 0l0 3.65625q-0.34375 -0.40625 -0.8125 -0.609375q-0.46875 -0.21875 -1.109375 -0.21875q-0.640625 0 -1.171875 0.265625q-0.515625 0.265625 -0.875 0.75q-0.375 0.46875 -0.578125 1.140625q-0.1875 0.65625 -0.1875 1.4375zm1.203125 0.140625l0 -0.140625q0 -0.515625 0.109375 -0.984375q0.109375 -0.46875 0.34375 -0.8125q0.234375 -0.359375 0.59375 -0.5625q0.359375 -0.21875 0.859375 -0.21875q0.59375 0 0.984375 0.28125q0.40625 0.28125 0.640625 0.703125l0 3.265625q-0.234375 0.46875 -0.640625 0.75q-0.390625 0.265625 -0.984375 0.265625q-0.515625 0 -0.875 -0.203125q-0.34375 -0.203125 -0.578125 -0.5625q-0.234375 -0.34375 -0.34375 -0.796875q-0.109375 -0.46875 -0.109375 -0.984375zm10.138824 3.5625q1.015625 0 1.71875 -0.40625q0.703125 -0.421875 1.046875 -0.953125l-0.734375 -0.5625q-0.328125 0.421875 -0.828125 0.6875q-0.5 0.25 -1.140625 0.25q-0.5 0 -0.90625 -0.171875q-0.390625 -0.1875 -0.671875 -0.5q-0.28125 -0.296875 -0.453125 -0.6875q-0.15625 -0.390625 -0.203125 -0.90625l0 -0.046875l5.03125 0l0 -0.546875q0 -0.734375 -0.1875 -1.359375q-0.1875 -0.640625 -0.5625 -1.109375q-0.375 -0.453125 -0.953125 -0.71875q-0.5625 -0.265625 -1.3125 -0.265625q-0.609375 0 -1.1875 0.25q-0.578125 0.25 -1.03125 0.703125q-0.453125 0.46875 -0.734375 1.140625q-0.265625 0.671875 -0.265625 1.53125l0 0.265625q0 0.75 0.25 1.375q0.25 0.625 0.6875 1.078125q0.453125 0.453125 1.0625 0.703125q0.625 0.25 1.375 0.25zm-0.15625 -6.3125q0.453125 0 0.78125 0.171875q0.34375 0.171875 0.5625 0.4375q0.21875 0.28125 0.34375 0.65625q0.125 0.375 0.125 0.703125l0 0.046875l-3.78125 0q0.0625 -0.484375 0.234375 -0.859375q0.1875 -0.375 0.453125 -0.625q0.265625 -0.265625 0.578125 -0.390625q0.328125 -0.140625 0.703125 -0.140625z" fill-rule="nonzero"/><path fill="#000000" fill-opacity="0.0" d="m391.15356 116.04462l95.24408 0l0 42.015747l-95.24408 0z" fill-rule="evenodd"/><path fill="#000000" d="m400.95044 134.2665l0 0.140625q0 0.75 0.21875 1.40625q0.21875 0.65625 0.640625 1.140625q0.40625 0.46875 1.0 0.75q0.59375 0.265625 1.34375 0.265625q0.75 0 1.328125 -0.265625q0.59375 -0.28125 1.015625 -0.75q0.40625 -0.484375 0.625 -1.140625q0.234375 -0.65625 0.234375 -1.40625l0 -0.140625q0 -0.765625 -0.234375 -1.421875q-0.21875 -0.65625 -0.625 -1.140625q-0.421875 -0.484375 -1.015625 -0.75q-0.59375 -0.28125 -1.34375 -0.28125q-0.734375 0 -1.328125 0.28125q-0.59375 0.265625 -1.0 0.75q-0.421875 0.484375 -0.640625 1.140625q-0.21875 0.65625 -0.21875 1.421875zm1.203125 0.140625l0 -0.140625q0 -0.515625 0.125 -0.984375q0.125 -0.484375 0.375 -0.84375q0.25 -0.359375 0.609375 -0.5625q0.375 -0.21875 0.875 -0.21875q0.5 0 0.875 0.21875q0.375 0.203125 0.640625 0.5625q0.234375 0.359375 0.359375 0.84375q0.140625 0.46875 0.140625 0.984375l0 0.140625q0 0.515625 -0.125 0.984375q-0.125 0.46875 -0.375 0.828125q-0.25 0.359375 -0.625 0.578125q-0.375 0.203125 -0.875 0.203125q-0.5 0 -0.875 -0.203125q-0.375 -0.21875 -0.625 -0.578125q-0.25 -0.359375 -0.375 -0.828125q-0.125 -0.46875 -0.125 -0.984375zm12.966919 4.421875l0 -0.984375l-5.953125 0l0 0.984375l5.953125 0zm3.3731995 -6.984375l0 -4.0l-1.21875 0l0 10.0l1.21875 0l0 -5.109375q0.125 -0.21875 0.28125 -0.390625q0.171875 -0.171875 0.375 -0.296875q0.234375 -0.171875 0.53125 -0.265625q0.296875 -0.09375 0.625 -0.09375q0.390625 0 0.6875 0.125q0.3125 0.109375 0.515625 0.328125q0.1875 0.203125 0.28125 0.53125q0.109375 0.3125 0.109375 0.734375l0 4.4375l1.203125 0l0 -4.4375q0 -0.703125 -0.171875 -1.21875q-0.171875 -0.515625 -0.5 -0.859375q-0.3125 -0.34375 -0.765625 -0.5q-0.453125 -0.15625 -1.0 -0.15625q-0.421875 0 -0.796875 0.125q-0.375 0.109375 -0.6875 0.34375q-0.203125 0.140625 -0.375 0.328125q-0.171875 0.171875 -0.3125 0.375zm11.466919 4.125q0 0.171875 -0.0625 0.328125q-0.0625 0.140625 -0.1875 0.265625q-0.203125 0.203125 -0.5625 0.328125q-0.359375 0.109375 -0.84375 0.109375q-0.296875 0 -0.609375 -0.0625q-0.3125 -0.0625 -0.578125 -0.21875q-0.25 -0.15625 -0.421875 -0.40625q-0.171875 -0.265625 -0.203125 -0.640625l-1.203125 0q0 0.453125 0.203125 0.875q0.203125 0.40625 0.59375 0.71875q0.390625 0.328125 0.9375 0.515625q0.5625 0.1875 1.28125 0.1875q0.625 0 1.15625 -0.140625q0.53125 -0.15625 0.90625 -0.421875q0.375 -0.28125 0.578125 -0.65625q0.21875 -0.390625 0.21875 -0.859375q0 -0.4375 -0.1875 -0.765625q-0.1875 -0.328125 -0.53125 -0.59375q-0.359375 -0.234375 -0.875 -0.40625q-0.515625 -0.1875 -1.15625 -0.328125q-0.5 -0.09375 -0.828125 -0.203125q-0.3125 -0.109375 -0.5 -0.234375q-0.203125 -0.125 -0.28125 -0.28125q-0.078125 -0.171875 -0.078125 -0.375q0 -0.203125 0.09375 -0.390625q0.109375 -0.203125 0.296875 -0.34375q0.1875 -0.140625 0.46875 -0.21875q0.296875 -0.09375 0.6875 -0.09375q0.375 0 0.671875 0.109375q0.296875 0.109375 0.5 0.265625q0.203125 0.171875 0.3125 0.390625q0.125 0.21875 0.125 0.453125l1.203125 0q0 -0.46875 -0.203125 -0.859375q-0.1875 -0.40625 -0.546875 -0.703125q-0.375 -0.296875 -0.890625 -0.46875q-0.515625 -0.171875 -1.171875 -0.171875q-0.609375 0 -1.109375 0.171875q-0.5 0.15625 -0.875 0.4375q-0.359375 0.28125 -0.5625 0.65625q-0.203125 0.375 -0.203125 0.796875q0 0.4375 0.1875 0.765625q0.203125 0.328125 0.5625 0.5625q0.359375 0.25 0.84375 0.4375q0.5 0.171875 1.109375 0.296875q0.5 0.09375 0.828125 0.21875q0.328125 0.109375 0.53125 0.25q0.203125 0.15625 0.28125 0.328125q0.09375 0.171875 0.09375 0.375zm3.8888245 4.71875q0.46875 0 0.828125 -0.171875q0.375 -0.171875 0.640625 -0.4375q0.28125 -0.265625 0.46875 -0.578125q0.1875 -0.296875 0.3125 -0.5625l3.578125 -8.140625l-1.34375 0l-1.828125 4.578125l-0.328125 0.828125l-0.3125 -0.859375l-1.921875 -4.546875l-1.359375 0l3.03125 6.71875l-0.46875 0.9375q-0.078125 0.125 -0.1875 0.328125q-0.109375 0.203125 -0.265625 0.390625q-0.171875 0.1875 -0.375 0.328125q-0.203125 0.140625 -0.453125 0.140625q-0.078125 0 -0.25 -0.015625q-0.15625 -0.015625 -0.3125 -0.03125l-0.203125 0.984375q0.125 0.03125 0.34375 0.0625q0.234375 0.046875 0.40625 0.046875zm7.420044 -2.84375l1.21875 0l0 -5.046875q0.109375 -0.234375 0.28125 -0.421875q0.171875 -0.1875 0.359375 -0.328125q0.25 -0.171875 0.53125 -0.265625q0.28125 -0.09375 0.609375 -0.09375q0.390625 0 0.6875 0.09375q0.296875 0.09375 0.5 0.296875q0.203125 0.203125 0.3125 0.53125q0.109375 0.328125 0.109375 0.796875l0 4.4375l1.203125 0l0 -4.46875q0 -0.703125 -0.171875 -1.21875q-0.171875 -0.515625 -0.5 -0.84375q-0.3125 -0.328125 -0.765625 -0.484375q-0.453125 -0.15625 -1.015625 -0.15625q-0.40625 0 -0.78125 0.125q-0.359375 0.109375 -0.671875 0.3125q-0.203125 0.140625 -0.390625 0.328125q-0.1875 0.1875 -0.34375 0.40625l-0.078125 -1.046875l-1.09375 0l0 7.046875zm10.998199 -0.84375q-0.5625 0 -0.9375 -0.21875q-0.375 -0.234375 -0.609375 -0.59375q-0.234375 -0.359375 -0.34375 -0.8125q-0.09375 -0.453125 -0.09375 -0.921875l0 -0.265625q0 -0.453125 0.09375 -0.90625q0.109375 -0.453125 0.34375 -0.8125q0.234375 -0.359375 0.609375 -0.578125q0.390625 -0.234375 0.9375 -0.234375q0.375 0 0.6875 0.125q0.3125 0.125 0.546875 0.34375q0.21875 0.21875 0.34375 0.5q0.140625 0.28125 0.15625 0.59375l1.140625 0q0 -0.53125 -0.21875 -1.0q-0.21875 -0.46875 -0.59375 -0.8125q-0.375 -0.34375 -0.90625 -0.53125q-0.53125 -0.203125 -1.15625 -0.203125q-0.796875 0 -1.390625 0.296875q-0.59375 0.28125 -1.0 0.75q-0.40625 0.5 -0.609375 1.140625q-0.1875 0.625 -0.1875 1.328125l0 0.265625q0 0.703125 0.1875 1.34375q0.203125 0.640625 0.609375 1.109375q0.40625 0.5 1.0 0.78125q0.59375 0.28125 1.390625 0.28125q0.5625 0 1.078125 -0.1875q0.515625 -0.1875 0.921875 -0.515625q0.390625 -0.3125 0.625 -0.734375q0.234375 -0.4375 0.25 -0.90625l-1.140625 0q-0.015625 0.296875 -0.15625 0.546875q-0.140625 0.25 -0.390625 0.421875q-0.234375 0.203125 -0.546875 0.3125q-0.3125 0.09375 -0.640625 0.09375z" fill-rule="nonzero"/><path fill="#ffffff" d="m64.456696 91.826775l0 0c0 -11.106583 9.053009 -20.110237 20.220467 -20.110237l0 0c5.362808 0 10.505959 2.1187515 14.298035 5.890152c3.792076 3.7714005 5.9224396 8.886513 5.9224396 14.220085l0 0c0 11.106575 -9.053009 20.11023 -20.220474 20.11023l0 0c-11.167458 0 -20.220467 -9.0036545 -20.220467 -20.11023z" fill-rule="evenodd"/><path stroke="#000000" stroke-width="2.0" stroke-linejoin="round" stroke-linecap="butt" d="m64.456696 91.826775l0 0c0 -11.106583 9.053009 -20.110237 20.220467 -20.110237l0 0c5.362808 0 10.505959 2.1187515 14.298035 5.890152c3.792076 3.7714005 5.9224396 8.886513 5.9224396 14.220085l0 0c0 11.106575 -9.053009 20.11023 -20.220474 20.11023l0 0c-11.167458 0 -20.220467 -9.0036545 -20.220467 -20.11023z" fill-rule="evenodd"/><path fill="#000000" fill-opacity="0.0" d="m111.93438 137.24799l25.000023 0l0 -45.41732l-32.023643 0" fill-rule="evenodd"/><path stroke="#000000" stroke-width="1.0" stroke-linejoin="round" stroke-linecap="butt" d="m111.93438 137.24799l25.000023 0l0 -45.41732l-26.023643 0" fill-rule="evenodd"/><path fill="#000000" stroke="#000000" stroke-width="1.0" stroke-linecap="butt" d="m110.91076 90.17893l-4.5380936 1.6517334l4.5380936 1.6517334z" fill-rule="evenodd"/><path fill="#000000" fill-opacity="0.0" d="m64.456696 91.826775l-30.425205 0l0 45.41732l25.007881 0" fill-rule="evenodd"/><path stroke="#000000" stroke-width="1.0" stroke-linejoin="round" stroke-linecap="butt" d="m64.456696 91.826775l-30.425205 0l0 45.41732l19.007881 0" fill-rule="evenodd"/><path fill="#000000" stroke="#000000" stroke-width="1.0" stroke-linecap="butt" d="m53.03937 138.89583l4.5380974 -1.6517334l-4.5380974 -1.6517334z" fill-rule="evenodd"/><path fill="#ffffff" d="m201.60104 117.06899l37.385834 0l0 40.22048l-37.385834 0z" fill-rule="evenodd"/><path stroke="#000000" stroke-width="2.0" stroke-linejoin="round" stroke-linecap="butt" d="m201.60104 117.06899l37.385834 0l0 40.22048l-37.385834 0z" fill-rule="evenodd"/><path fill="#000000" fill-opacity="0.0" d="m197.03412 112.193665l46.519684 0l0 49.858276l-46.519684 0z" fill-rule="evenodd"/><path fill="#000000" d="m209.792 134.59343l0 -5.078125l-0.71875 0l0 5.6875l3.5 0l0 -0.609375l-2.78125 0zm3.7851562 -1.546875l0 0.09375q0 0.453125 0.125 0.84375q0.140625 0.390625 0.390625 0.671875q0.234375 0.296875 0.59375 0.46875q0.359375 0.15625 0.8125 0.15625q0.4375 0 0.796875 -0.15625q0.359375 -0.171875 0.609375 -0.46875q0.25 -0.28125 0.375 -0.671875q0.140625 -0.390625 0.140625 -0.84375l0 -0.09375q0 -0.453125 -0.140625 -0.84375q-0.125 -0.390625 -0.375 -0.6875q-0.25 -0.28125 -0.609375 -0.453125q-0.359375 -0.171875 -0.8125 -0.171875q-0.4375 0 -0.796875 0.171875q-0.359375 0.171875 -0.59375 0.453125q-0.25 0.296875 -0.390625 0.6875q-0.125 0.390625 -0.125 0.84375zm0.71875 0.09375l0 -0.09375q0 -0.3125 0.0625 -0.59375q0.078125 -0.28125 0.234375 -0.5q0.15625 -0.203125 0.375 -0.328125q0.21875 -0.140625 0.515625 -0.140625q0.3125 0 0.53125 0.140625q0.21875 0.125 0.375 0.328125q0.15625 0.21875 0.21875 0.5q0.078125 0.28125 0.078125 0.59375l0 0.09375q0 0.3125 -0.078125 0.59375q-0.0625 0.28125 -0.21875 0.5q-0.140625 0.203125 -0.375 0.328125q-0.21875 0.125 -0.515625 0.125q-0.296875 0 -0.53125 -0.125q-0.21875 -0.125 -0.375 -0.328125q-0.15625 -0.21875 -0.234375 -0.5q-0.0625 -0.28125 -0.0625 -0.59375zm4.1445312 -0.09375l0 0.09375q0 0.453125 0.109375 0.84375q0.125 0.390625 0.34375 0.671875q0.21875 0.296875 0.53125 0.46875q0.3125 0.15625 0.703125 0.15625q0.21875 0 0.421875 -0.046875q0.203125 -0.046875 0.359375 -0.140625q0.109375 -0.0625 0.203125 -0.140625q0.09375 -0.078125 0.171875 -0.171875l0 0.359375q0 0.28125 -0.078125 0.484375q-0.078125 0.21875 -0.21875 0.359375q-0.15625 0.140625 -0.359375 0.21875q-0.203125 0.078125 -0.46875 0.078125q-0.140625 0 -0.28125 -0.03125q-0.140625 -0.03125 -0.296875 -0.09375q-0.140625 -0.0625 -0.28125 -0.1875q-0.140625 -0.109375 -0.265625 -0.265625l-0.375 0.4375q0.140625 0.203125 0.34375 0.34375q0.203125 0.140625 0.421875 0.21875q0.203125 0.09375 0.40625 0.125q0.21875 0.046875 0.390625 0.046875q0.390625 0 0.71875 -0.125q0.328125 -0.109375 0.578125 -0.34375q0.234375 -0.21875 0.359375 -0.546875q0.125 -0.328125 0.125 -0.75l0 -4.140625l-0.65625 0l-0.03125 0.46875q-0.078125 -0.09375 -0.15625 -0.171875q-0.078125 -0.078125 -0.171875 -0.140625q-0.171875 -0.109375 -0.390625 -0.171875q-0.21875 -0.0625 -0.46875 -0.0625q-0.390625 0 -0.703125 0.171875q-0.3125 0.15625 -0.53125 0.4375q-0.21875 0.28125 -0.34375 0.6875q-0.109375 0.390625 -0.109375 0.859375zm0.71875 0.09375l0 -0.09375q0 -0.296875 0.0625 -0.578125q0.078125 -0.28125 0.21875 -0.5q0.125 -0.203125 0.34375 -0.328125q0.21875 -0.125 0.53125 -0.125q0.171875 0 0.3125 0.046875q0.15625 0.03125 0.28125 0.109375q0.125 0.09375 0.21875 0.203125q0.09375 0.109375 0.15625 0.234375l0 1.9375q-0.0625 0.140625 -0.15625 0.25q-0.09375 0.109375 -0.21875 0.203125q-0.125 0.078125 -0.28125 0.125q-0.140625 0.046875 -0.328125 0.046875q-0.296875 0 -0.515625 -0.125q-0.21875 -0.125 -0.34375 -0.34375q-0.140625 -0.203125 -0.21875 -0.484375q-0.0625 -0.28125 -0.0625 -0.578125zm4.3320312 -2.171875l0 0.640625l1.4375 0l0 2.96875l-1.4375 0l0 0.625l3.53125 0l0 -0.625l-1.375 0l0 -3.609375l-2.15625 0zm1.34375 -1.109375q0 0.1875 0.109375 0.3125q0.109375 0.109375 0.328125 0.109375q0.203125 0 0.3125 -0.109375q0.109375 -0.125 0.109375 -0.3125q0 -0.09375 -0.03125 -0.171875q-0.03125 -0.078125 -0.09375 -0.140625q-0.046875 -0.046875 -0.125 -0.078125q-0.078125 -0.03125 -0.171875 -0.03125q-0.109375 0 -0.1875 0.03125q-0.078125 0.03125 -0.125 0.078125q-0.0625 0.0625 -0.09375 0.140625q-0.03125 0.078125 -0.03125 0.171875zm5.1445312 4.828125q-0.34375 0 -0.578125 -0.125q-0.21875 -0.140625 -0.359375 -0.359375q-0.140625 -0.21875 -0.203125 -0.484375q-0.0625 -0.265625 -0.0625 -0.546875l0 -0.171875q0 -0.265625 0.0625 -0.53125q0.0625 -0.28125 0.203125 -0.5q0.140625 -0.203125 0.359375 -0.34375q0.234375 -0.140625 0.578125 -0.140625q0.21875 0 0.40625 0.078125q0.1875 0.078125 0.328125 0.203125q0.140625 0.125 0.21875 0.296875q0.078125 0.171875 0.078125 0.359375l0.6875 0q0 -0.3125 -0.140625 -0.59375q-0.125 -0.28125 -0.34375 -0.484375q-0.234375 -0.203125 -0.546875 -0.328125q-0.3125 -0.125 -0.6875 -0.125q-0.484375 0 -0.84375 0.171875q-0.359375 0.171875 -0.59375 0.46875q-0.25 0.296875 -0.375 0.6875q-0.109375 0.375 -0.109375 0.78125l0 0.171875q0 0.421875 0.109375 0.8125q0.125 0.375 0.375 0.65625q0.234375 0.296875 0.59375 0.46875q0.359375 0.171875 0.84375 0.171875q0.328125 0 0.640625 -0.109375q0.3125 -0.125 0.546875 -0.3125q0.234375 -0.203125 0.375 -0.453125q0.15625 -0.25 0.15625 -0.53125l-0.6875 0q0 0.171875 -0.09375 0.328125q-0.078125 0.140625 -0.234375 0.25q-0.140625 0.109375 -0.328125 0.171875q-0.1875 0.0625 -0.375 0.0625z" fill-rule="nonzero"/><path fill="#000000" d="m211.12013 142.1778l-0.71875 0q0 0.140625 -0.015625 0.265625q0 0.109375 -0.03125 0.21875q-0.03125 0.109375 -0.09375 0.203125q-0.0625 0.09375 -0.171875 0.203125q-0.171875 0.171875 -0.359375 0.375q-0.171875 0.1875 -0.3125 0.40625q-0.140625 0.21875 -0.234375 0.46875q-0.09375 0.25 -0.09375 0.53125q0 0.359375 0.109375 0.625q0.109375 0.28125 0.3125 0.46875q0.203125 0.1875 0.5 0.28125q0.296875 0.109375 0.6875 0.109375q0.328125 0 0.625 -0.09375q0.296875 -0.09375 0.5 -0.28125q0.21875 -0.171875 0.34375 -0.4375q0.125 -0.265625 0.125 -0.59375l-0.71875 0q0 0.203125 -0.078125 0.34375q-0.078125 0.15625 -0.1875 0.25q-0.125 0.09375 -0.296875 0.140625q-0.15625 0.046875 -0.3125 0.046875q-0.21875 0 -0.390625 -0.0625q-0.171875 -0.0625 -0.28125 -0.171875q-0.109375 -0.109375 -0.171875 -0.28125q-0.046875 -0.15625 -0.046875 -0.359375q0 -0.203125 0.0625 -0.375q0.078125 -0.1875 0.1875 -0.34375q0.109375 -0.15625 0.234375 -0.296875q0.125 -0.15625 0.25 -0.296875q0.1875 -0.171875 0.296875 -0.296875q0.125 -0.140625 0.1875 -0.28125q0.0625 -0.140625 0.078125 -0.3125q0.015625 -0.1875 0.015625 -0.453125zm-0.84375 -1.234375q0 0.171875 0.109375 0.296875q0.125 0.125 0.34375 0.125q0.21875 0 0.328125 -0.125q0.125 -0.125 0.125 -0.296875q0 -0.1875 -0.125 -0.3125q-0.109375 -0.125 -0.328125 -0.125q-0.21875 0 -0.34375 0.125q-0.109375 0.125 -0.109375 0.3125zm6.2695312 3.859375l0.765625 0l0 -0.0625q-0.078125 -0.171875 -0.125 -0.40625q-0.03125 -0.25 -0.03125 -0.453125l0 -1.96875q0 -0.359375 -0.125 -0.625q-0.125 -0.265625 -0.359375 -0.4375q-0.21875 -0.171875 -0.53125 -0.265625q-0.3125 -0.09375 -0.671875 -0.09375q-0.390625 0 -0.703125 0.109375q-0.3125 0.109375 -0.515625 0.296875q-0.21875 0.171875 -0.34375 0.40625q-0.109375 0.21875 -0.109375 0.4375l0.71875 0q0 -0.125 0.0625 -0.25q0.0625 -0.125 0.1875 -0.21875q0.109375 -0.078125 0.28125 -0.125q0.171875 -0.0625 0.390625 -0.0625q0.234375 0 0.40625 0.0625q0.1875 0.046875 0.328125 0.15625q0.125 0.109375 0.1875 0.265625q0.078125 0.140625 0.078125 0.34375l0 0.328125l-0.796875 0q-0.4375 0 -0.796875 0.09375q-0.359375 0.078125 -0.609375 0.25q-0.25 0.171875 -0.390625 0.4375q-0.140625 0.265625 -0.140625 0.609375q0 0.265625 0.09375 0.5q0.109375 0.21875 0.3125 0.390625q0.1875 0.15625 0.453125 0.265625q0.265625 0.09375 0.609375 0.09375q0.203125 0 0.390625 -0.046875q0.1875 -0.046875 0.34375 -0.109375q0.15625 -0.078125 0.296875 -0.171875q0.140625 -0.109375 0.25 -0.21875q0 0.140625 0.03125 0.265625q0.03125 0.125 0.0625 0.203125zm-1.265625 -0.546875q-0.21875 0 -0.375 -0.046875q-0.15625 -0.0625 -0.265625 -0.171875q-0.109375 -0.09375 -0.171875 -0.21875q-0.046875 -0.140625 -0.046875 -0.296875q0 -0.15625 0.0625 -0.28125q0.0625 -0.140625 0.1875 -0.234375q0.15625 -0.125 0.4375 -0.1875q0.28125 -0.0625 0.65625 -0.0625l0.671875 0l0 0.84375q-0.0625 0.125 -0.171875 0.25q-0.109375 0.109375 -0.265625 0.203125q-0.140625 0.09375 -0.328125 0.15625q-0.1875 0.046875 -0.390625 0.046875zm6.5976562 -0.21875l0 -0.765625l-2.390625 -0.921875l-0.21875 -0.078125l0.21875 -0.0625l2.390625 -0.9375l0 -0.765625l-3.3125 1.484375l0 0.5625l3.3125 1.484375zm5.0820312 -1.296875l0 -0.09375q0 -0.328125 -0.0625 -0.625q-0.046875 -0.296875 -0.15625 -0.546875q-0.09375 -0.21875 -0.234375 -0.390625q-0.125 -0.1875 -0.296875 -0.3125q-0.1875 -0.125 -0.421875 -0.203125q-0.234375 -0.078125 -0.5 -0.078125q-0.21875 0 -0.40625 0.046875q-0.1875 0.046875 -0.34375 0.125q-0.125 0.0625 -0.234375 0.15625q-0.109375 0.09375 -0.203125 0.203125l0 -2.21875l-0.71875 0l0 6.0l0.65625 0l0.046875 -0.484375q0.0625 0.09375 0.140625 0.171875q0.078125 0.0625 0.171875 0.125q0.171875 0.125 0.390625 0.1875q0.234375 0.078125 0.5 0.078125q0.25 0 0.453125 -0.0625q0.203125 -0.0625 0.375 -0.15625q0.234375 -0.15625 0.40625 -0.390625q0.171875 -0.234375 0.28125 -0.53125q0.078125 -0.21875 0.109375 -0.46875q0.046875 -0.265625 0.046875 -0.53125zm-0.71875 -0.09375l0 0.09375q0 0.1875 -0.03125 0.375q-0.015625 0.171875 -0.078125 0.328125q-0.0625 0.203125 -0.171875 0.375q-0.09375 0.15625 -0.25 0.265625q-0.125 0.09375 -0.28125 0.140625q-0.140625 0.046875 -0.3125 0.046875q-0.1875 0 -0.34375 -0.046875q-0.15625 -0.0625 -0.28125 -0.140625q-0.125 -0.09375 -0.21875 -0.203125q-0.09375 -0.125 -0.171875 -0.265625l0 -1.859375q0.0625 -0.140625 0.15625 -0.25q0.109375 -0.125 0.234375 -0.21875q0.109375 -0.078125 0.265625 -0.125q0.15625 -0.046875 0.34375 -0.046875q0.171875 0 0.3125 0.046875q0.140625 0.03125 0.265625 0.09375q0.15625 0.09375 0.265625 0.265625q0.125 0.171875 0.1875 0.390625q0.046875 0.15625 0.078125 0.359375q0.03125 0.1875 0.03125 0.375zm3.2539062 0.546875l0.71875 0q0 -0.140625 0 -0.265625q0.015625 -0.125 0.046875 -0.21875q0.03125 -0.109375 0.09375 -0.203125q0.0625 -0.109375 0.1875 -0.21875q0.1875 -0.171875 0.375 -0.359375q0.1875 -0.1875 0.34375 -0.421875q0.140625 -0.21875 0.234375 -0.453125q0.109375 -0.25 0.109375 -0.53125q0 -0.359375 -0.125 -0.625q-0.109375 -0.28125 -0.3125 -0.46875q-0.21875 -0.1875 -0.53125 -0.28125q-0.3125 -0.109375 -0.703125 -0.109375q-0.359375 0 -0.671875 0.09375q-0.296875 0.09375 -0.515625 0.28125q-0.234375 0.171875 -0.375 0.4375q-0.125 0.265625 -0.125 0.59375l0.71875 0q0 -0.203125 0.078125 -0.34375q0.09375 -0.15625 0.21875 -0.25q0.140625 -0.09375 0.3125 -0.140625q0.171875 -0.046875 0.359375 -0.046875q0.234375 0 0.421875 0.0625q0.1875 0.0625 0.296875 0.1875q0.109375 0.109375 0.171875 0.265625q0.0625 0.15625 0.0625 0.359375q0 0.203125 -0.078125 0.375q-0.078125 0.171875 -0.1875 0.328125q-0.125 0.15625 -0.265625 0.3125q-0.125 0.140625 -0.265625 0.28125q-0.1875 0.171875 -0.3125 0.3125q-0.109375 0.125 -0.171875 0.265625q-0.0625 0.140625 -0.09375 0.328125q-0.015625 0.171875 -0.015625 0.453125zm-0.078125 1.234375q0 0.171875 0.109375 0.296875q0.109375 0.125 0.328125 0.125q0.21875 0 0.328125 -0.125q0.125 -0.125 0.125 -0.296875q0 -0.1875 -0.125 -0.3125q-0.109375 -0.125 -0.328125 -0.125q-0.21875 0 -0.328125 0.125q-0.109375 0.125 -0.109375 0.3125z" fill-rule="nonzero"/><path fill="#000000" fill-opacity="0.0" d="m193.13249 16.414236l60.409454 0l0 33.921257l-60.409454 0z" fill-rule="evenodd"/><path fill="#000000" d="m206.94499 28.074862l0 -0.890625l-2.3125 0l0 11.578127l2.3125 0l0 -0.890625l-1.296875 0l0 -9.796877l1.296875 0zm8.654297 2.546875q0 -0.546875 -0.1875 -0.984375q-0.1875 -0.4375 -0.53125 -0.734375q-0.34375 -0.296875 -0.8125 -0.453125q-0.453125 -0.171875 -1.0 -0.171875q-0.546875 0 -1.0 0.171875q-0.453125 0.15625 -0.78125 0.453125q-0.34375 0.296875 -0.53125 0.734375q-0.1875 0.4375 -0.1875 0.984375q0 0.328125 0.078125 0.609375q0.09375 0.28125 0.265625 0.53125q0.15625 0.2500019 0.375 0.4531269q0.234375 0.1875 0.515625 0.328125q-0.328125 0.140625 -0.59375 0.359375q-0.265625 0.203125 -0.453125 0.46875q-0.1875 0.265625 -0.296875 0.59375q-0.09375 0.3125 -0.09375 0.671875q0 0.578125 0.203125 1.03125q0.21875 0.453125 0.59375 0.75q0.359375 0.3125 0.859375 0.484375q0.5 0.15625 1.0625 0.15625q0.5625 0 1.046875 -0.15625q0.5 -0.171875 0.875 -0.484375q0.359375 -0.3125 0.578125 -0.75q0.21875 -0.453125 0.21875 -1.03125q0 -0.359375 -0.109375 -0.671875q-0.09375 -0.328125 -0.28125 -0.59375q-0.203125 -0.265625 -0.46875 -0.46875q-0.265625 -0.21875 -0.59375 -0.359375q0.1875 -0.09375 0.34375 -0.203125q0.171875 -0.125 0.3125 -0.265625q0.28125 -0.2812519 0.4375 -0.6406269q0.15625 -0.375 0.15625 -0.8125zm-0.890625 3.984377q0 0.375 -0.125 0.671875q-0.109375 0.28125 -0.328125 0.484375q-0.203125 0.1875 -0.515625 0.296875q-0.296875 0.109375 -0.65625 0.109375q-0.375 0 -0.671875 -0.109375q-0.296875 -0.109375 -0.515625 -0.296875q-0.203125 -0.203125 -0.328125 -0.484375q-0.109375 -0.296875 -0.109375 -0.671875q0 -0.359375 0.109375 -0.65625q0.125 -0.296875 0.328125 -0.515625q0.21875 -0.203125 0.515625 -0.3125q0.296875 -0.125 0.671875 -0.125q0.359375 0 0.65625 0.125q0.296875 0.109375 0.515625 0.3125q0.21875 0.21875 0.328125 0.515625q0.125 0.296875 0.125 0.65625zm-0.1875 -3.953127q0 0.328125 -0.109375 0.59375q-0.109375 0.265625 -0.296875 0.453125q-0.1875 0.1875 -0.453125 0.296875q-0.265625 0.10937691 -0.578125 0.10937691q-0.3125 0 -0.578125 -0.10937691q-0.265625 -0.109375 -0.453125 -0.296875q-0.1875 -0.1875 -0.296875 -0.453125q-0.09375 -0.265625 -0.09375 -0.59375q0 -0.34375 0.09375 -0.609375q0.109375 -0.28125 0.296875 -0.46875q0.1875 -0.1875 0.4375 -0.296875q0.265625 -0.109375 0.578125 -0.109375q0.328125 0 0.578125 0.109375q0.265625 0.109375 0.46875 0.3125q0.1875 0.1875 0.296875 0.46875q0.109375 0.265625 0.109375 0.59375zm5.216797 5.578127q0 0.34375 0.203125 0.578125q0.21875 0.234375 0.640625 0.234375q0.421875 0 0.640625 -0.234375q0.234375 -0.234375 0.234375 -0.578125q0 -0.359375 -0.234375 -0.59375q-0.21875 -0.25 -0.640625 -0.25q-0.421875 0 -0.640625 0.25q-0.203125 0.25 -0.203125 0.59375zm0 -5.140627q0 0.34375 0.203125 0.578125q0.21875 0.234375 0.640625 0.234375q0.421875 0 0.640625 -0.234375q0.234375 -0.234375 0.234375 -0.578125q0 -0.359375 -0.234375 -0.59375q-0.21875 -0.25 -0.640625 -0.25q-0.421875 0 -0.640625 0.25q-0.203125 0.25 -0.203125 0.59375zm10.373047 2.578127l0 -2.000002q0 -0.8125 -0.1875 -1.4375q-0.1875 -0.640625 -0.53125 -1.0625q-0.359375 -0.4375 -0.875 -0.65625q-0.515625 -0.234375 -1.171875 -0.234375q-0.65625 0 -1.171875 0.234375q-0.5 0.21875 -0.859375 0.65625q-0.359375 0.421875 -0.546875 1.0625q-0.1875 0.625 -0.1875 1.4375l0 2.000002q0 0.8125 0.1875 1.453125q0.1875 0.625 0.546875 1.046875q0.359375 0.4375 0.875 0.671875q0.515625 0.21875 1.171875 0.21875q0.65625 0 1.15625 -0.21875q0.515625 -0.234375 0.875 -0.671875q0.34375 -0.421875 0.53125 -1.046875q0.1875 -0.640625 0.1875 -1.453125zm-4.4375 -0.21875q0 -0.15625 0 -0.296875q0 -0.140625 0 -0.296875l0 -1.4218769q0 -0.59375 0.125 -1.046875q0.125 -0.46875 0.359375 -0.75q0.203125 -0.234375 0.5 -0.34375q0.296875 -0.125 0.6875 -0.125q0.375 0 0.671875 0.109375q0.296875 0.109375 0.484375 0.34375q0.203125 0.203125 0.328125 0.53125q0.125 0.328125 0.171875 0.75l-3.328125 2.546877zm3.34375 0.453125q0 0.625 -0.125 1.09375q-0.125 0.453125 -0.390625 0.734375q-0.203125 0.21875 -0.5 0.328125q-0.28125 0.109375 -0.640625 0.109375q-0.359375 0 -0.640625 -0.09375q-0.28125 -0.109375 -0.46875 -0.3125q-0.21875 -0.203125 -0.359375 -0.53125q-0.140625 -0.328125 -0.1875 -0.75l3.3125 -2.546877q0 0.1718769 0 0.4218769q0 0.25 0 0.328125l0 1.21875zm4.294922 -6.718752l0 0.890625l1.296875 0l0 9.796877l-1.296875 0l0 0.890625l2.328125 0l0 -11.578127l-2.328125 0z" fill-rule="nonzero"/><path fill="#ffffff" d="m58.29134 129.2765l53.63779 0l0 40.219482l-53.63779 0z" fill-rule="evenodd"/><path stroke="#000000" stroke-width="2.0" stroke-linejoin="round" stroke-linecap="butt" d="m58.29134 129.2765l53.63779 0l0 40.219482l-53.63779 0z" fill-rule="evenodd"/><path fill="#000000" d="m70.79188 151.05063q-0.34375 0 -0.578125 -0.125q-0.21875 -0.140625 -0.359375 -0.359375q-0.140625 -0.21875 -0.203125 -0.484375q-0.0625 -0.265625 -0.0625 -0.546875l0 -0.171875q0 -0.265625 0.0625 -0.53125q0.0625 -0.28125 0.203125 -0.5q0.140625 -0.203125 0.359375 -0.34375q0.234375 -0.140625 0.578125 -0.140625q0.21875 0 0.40625 0.078125q0.1875 0.078125 0.328125 0.203125q0.140625 0.125 0.21875 0.296875q0.078125 0.171875 0.078125 0.359375l0.6875 0q0 -0.3125 -0.140625 -0.59375q-0.125 -0.28125 -0.34375 -0.484375q-0.234375 -0.203125 -0.546875 -0.328125q-0.3125 -0.125 -0.6875 -0.125q-0.484375 0 -0.84375 0.171875q-0.359375 0.171875 -0.59375 0.46875q-0.25 0.296875 -0.375 0.6875q-0.109375 0.375 -0.109375 0.78125l0 0.171875q0 0.421875 0.109375 0.8125q0.125 0.375 0.375 0.65625q0.234375 0.296875 0.59375 0.46875q0.359375 0.171875 0.84375 0.171875q0.328125 0 0.640625 -0.109375q0.3125 -0.125 0.546875 -0.3125q0.234375 -0.203125 0.375 -0.453125q0.15625 -0.25 0.15625 -0.53125l-0.6875 0q0 0.171875 -0.09375 0.328125q-0.078125 0.140625 -0.234375 0.25q-0.140625 0.109375 -0.328125 0.171875q-0.1875 0.0625 -0.375 0.0625zm2.8007812 -1.640625l0 0.09375q0 0.453125 0.125 0.84375q0.140625 0.390625 0.390625 0.671875q0.234375 0.296875 0.59375 0.46875q0.359375 0.15625 0.8125 0.15625q0.4375 0 0.796875 -0.15625q0.359375 -0.171875 0.609375 -0.46875q0.25 -0.28125 0.375 -0.671875q0.140625 -0.390625 0.140625 -0.84375l0 -0.09375q0 -0.453125 -0.140625 -0.84375q-0.125 -0.390625 -0.375 -0.6875q-0.25 -0.28125 -0.609375 -0.453125q-0.359375 -0.171875 -0.8125 -0.171875q-0.4375 0 -0.796875 0.171875q-0.359375 0.171875 -0.59375 0.453125q-0.25 0.296875 -0.390625 0.6875q-0.125 0.390625 -0.125 0.84375zm0.71875 0.09375l0 -0.09375q0 -0.3125 0.0625 -0.59375q0.078125 -0.28125 0.234375 -0.5q0.15625 -0.203125 0.375 -0.328125q0.21875 -0.140625 0.515625 -0.140625q0.3125 0 0.53125 0.140625q0.21875 0.125 0.375 0.328125q0.15625 0.21875 0.21875 0.5q0.078125 0.28125 0.078125 0.59375l0 0.09375q0 0.3125 -0.078125 0.59375q-0.0625 0.28125 -0.21875 0.5q-0.140625 0.203125 -0.375 0.328125q-0.21875 0.125 -0.515625 0.125q-0.296875 0 -0.53125 -0.125q-0.21875 -0.125 -0.375 -0.328125q-0.15625 -0.21875 -0.234375 -0.5q-0.0625 -0.28125 -0.0625 -0.59375zm7.0664062 2.0625l0.65625 0l0 -4.234375l-0.734375 0l0 3.03125q-0.046875 0.140625 -0.140625 0.265625q-0.09375 0.109375 -0.203125 0.1875q-0.140625 0.109375 -0.34375 0.171875q-0.1875 0.046875 -0.421875 0.046875q-0.203125 0 -0.375 -0.046875q-0.15625 -0.0625 -0.265625 -0.203125q-0.109375 -0.125 -0.171875 -0.34375q-0.046875 -0.234375 -0.046875 -0.578125l0 -2.53125l-0.71875 0l0 2.515625q0 0.46875 0.09375 0.8125q0.109375 0.34375 0.3125 0.5625q0.1875 0.21875 0.453125 0.328125q0.265625 0.09375 0.609375 0.09375q0.40625 0 0.71875 -0.171875q0.328125 -0.171875 0.53125 -0.484375l0.046875 0.578125zm2.0195312 0l0.71875 0l0 -3.03125q0.078125 -0.140625 0.171875 -0.25q0.09375 -0.109375 0.21875 -0.203125q0.140625 -0.09375 0.3125 -0.140625q0.171875 -0.0625 0.375 -0.0625q0.234375 0 0.40625 0.0625q0.171875 0.046875 0.296875 0.15625q0.125 0.125 0.1875 0.328125q0.0625 0.1875 0.0625 0.46875l0 2.671875l0.71875 0l0 -2.6875q0 -0.421875 -0.109375 -0.71875q-0.09375 -0.3125 -0.28125 -0.515625q-0.1875 -0.203125 -0.46875 -0.296875q-0.265625 -0.09375 -0.59375 -0.09375q-0.25 0.015625 -0.46875 0.078125q-0.21875 0.0625 -0.40625 0.1875q-0.125 0.09375 -0.25 0.203125q-0.109375 0.109375 -0.203125 0.234375l-0.046875 -0.625l-0.640625 0l0 4.234375zm6.5039062 -5.25l-0.71875 0l0 1.015625l-1.109375 0l0 0.5625l1.109375 0l0 2.296875q0 0.390625 0.09375 0.671875q0.109375 0.265625 0.28125 0.4375q0.1875 0.1875 0.421875 0.265625q0.25 0.078125 0.53125 0.078125q0.171875 0 0.34375 -0.015625q0.171875 -0.015625 0.3125 -0.046875q0.15625 -0.03125 0.28125 -0.0625q0.140625 -0.046875 0.21875 -0.109375l-0.09375 -0.5q-0.0625 0.015625 -0.171875 0.03125q-0.109375 0.015625 -0.21875 0.046875q-0.125 0.015625 -0.25 0.03125q-0.125 0.015625 -0.234375 0.015625q-0.171875 0 -0.3125 -0.03125q-0.140625 -0.046875 -0.25 -0.15625q-0.109375 -0.09375 -0.171875 -0.25q-0.0625 -0.15625 -0.0625 -0.40625l0 -2.296875l1.609375 0l0 -0.5625l-1.609375 0l0 -1.015625zm4.9570312 5.328125q0.625 0 1.03125 -0.25q0.421875 -0.25 0.640625 -0.5625l-0.4375 -0.34375q-0.203125 0.25 -0.515625 0.40625q-0.296875 0.15625 -0.671875 0.15625q-0.296875 0 -0.546875 -0.109375q-0.234375 -0.109375 -0.40625 -0.296875q-0.171875 -0.1875 -0.265625 -0.421875q-0.09375 -0.234375 -0.125 -0.53125l0 -0.03125l3.015625 0l0 -0.328125q0 -0.4375 -0.109375 -0.8125q-0.109375 -0.390625 -0.328125 -0.671875q-0.234375 -0.265625 -0.578125 -0.421875q-0.34375 -0.171875 -0.796875 -0.171875q-0.359375 0 -0.703125 0.15625q-0.34375 0.140625 -0.625 0.421875q-0.265625 0.28125 -0.4375 0.6875q-0.15625 0.40625 -0.15625 0.921875l0 0.15625q0 0.4375 0.140625 0.8125q0.15625 0.375 0.421875 0.65625q0.265625 0.265625 0.640625 0.421875q0.375 0.15625 0.8125 0.15625zm-0.09375 -3.796875q0.28125 0 0.484375 0.109375q0.203125 0.09375 0.328125 0.265625q0.140625 0.15625 0.203125 0.390625q0.078125 0.21875 0.078125 0.421875l0 0.03125l-2.265625 0q0.03125 -0.296875 0.140625 -0.515625q0.109375 -0.234375 0.265625 -0.390625q0.15625 -0.140625 0.34375 -0.21875q0.203125 -0.09375 0.421875 -0.09375zm5.8007812 -0.59375q-0.46875 0 -0.828125 0.203125q-0.359375 0.203125 -0.609375 0.546875l-0.015625 -0.09375l-0.03125 -0.578125l-0.6875 0l0 4.234375l0.734375 0l0 -2.71875q0.0625 -0.1875 0.171875 -0.34375q0.109375 -0.15625 0.25 -0.265625q0.171875 -0.125 0.375 -0.1875q0.21875 -0.078125 0.484375 -0.078125q0.203125 0 0.390625 0.03125q0.203125 0.015625 0.40625 0.0625l0.09375 -0.703125q-0.109375 -0.046875 -0.328125 -0.078125q-0.203125 -0.03125 -0.40625 -0.03125z" fill-rule="nonzero"/><path fill="#ffffff" d="m58.29134 156.36603l10.992123 5.329788l-10.992123 5.329773z" fill-rule="evenodd"/><path stroke="#000000" stroke-width="1.0" stroke-linejoin="round" stroke-linecap="butt" d="m58.29134 156.36603l10.992123 5.329788l-10.992123 5.329773z" fill-rule="evenodd"/><path fill="#000000" fill-opacity="0.0" d="m48.44882 131.29747l33.38583 0l0 11.9010315l-33.38583 0z" fill-rule="evenodd"/><path fill="#000000" d="m62.447395 141.568l1.984375 0q0.609375 0 1.140625 -0.140625q0.53125 -0.140625 0.953125 -0.40625q0.390625 -0.25 0.71875 -0.609375q0.328125 -0.359375 0.53125 -0.796875q0.203125 -0.421875 0.3125 -0.921875q0.109375 -0.515625 0.109375 -1.078125l0 -0.625q0 -0.578125 -0.125 -1.09375q-0.109375 -0.515625 -0.328125 -0.953125q-0.234375 -0.515625 -0.640625 -0.90625q-0.40625 -0.390625 -0.921875 -0.625q-0.375 -0.171875 -0.828125 -0.265625q-0.4375 -0.109375 -0.921875 -0.109375l-1.984375 0l0 8.53125zm1.109375 -7.640625l0.875 0q0.390625 0 0.734375 0.09375q0.34375 0.078125 0.625 0.234375q0.375 0.203125 0.640625 0.53125q0.265625 0.328125 0.4375 0.75q0.109375 0.3125 0.171875 0.6875q0.0625 0.359375 0.078125 0.75l0 0.640625q-0.015625 0.390625 -0.078125 0.75q-0.046875 0.359375 -0.171875 0.671875q-0.125 0.390625 -0.359375 0.703125q-0.234375 0.296875 -0.546875 0.515625q-0.296875 0.203125 -0.6875 0.3125q-0.375 0.109375 -0.84375 0.109375l-0.875 0l0 -6.75z" fill-rule="nonzero"/><path fill="#000000" fill-opacity="0.0" d="m59.031498 133.19179l12.22047 0l0 8.112396l-12.22047 0z" fill-rule="evenodd"/><path fill="#000000" fill-opacity="0.0" d="m87.519684 131.01743l33.385826 0l0 11.9010315l-33.385826 0z" fill-rule="evenodd"/><path fill="#000000" d="m107.25264 137.39732l0 -0.75q0 -0.46875 -0.078125 -0.953125q-0.078125 -0.484375 -0.234375 -0.921875q-0.15625 -0.453125 -0.40625 -0.828125q-0.234375 -0.390625 -0.5625 -0.6875q-0.34375 -0.28125 -0.78125 -0.453125q-0.4375 -0.171875 -0.984375 -0.171875q-0.546875 0 -0.984375 0.171875q-0.421875 0.171875 -0.765625 0.453125q-0.34375 0.296875 -0.578125 0.6875q-0.234375 0.390625 -0.390625 0.828125q-0.171875 0.453125 -0.25 0.9375q-0.0625 0.46875 -0.078125 0.9375l0 0.75q0.015625 0.46875 0.078125 0.953125q0.078125 0.46875 0.25 0.921875q0.15625 0.4375 0.390625 0.828125q0.25 0.390625 0.59375 0.6875q0.328125 0.28125 0.765625 0.453125q0.4375 0.171875 0.984375 0.171875q0.203125 0 0.390625 -0.03125q0.203125 -0.03125 0.390625 -0.078125l1.6875 1.421875l0.75 -0.703125l-1.484375 -1.234375q0.34375 -0.28125 0.578125 -0.671875q0.25 -0.390625 0.40625 -0.828125q0.15625 -0.453125 0.234375 -0.921875q0.078125 -0.484375 0.078125 -0.96875zm-1.078125 -0.75l0 0.75q0 0.328125 -0.03125 0.6875q-0.03125 0.34375 -0.109375 0.671875q-0.09375 0.34375 -0.234375 0.65625q-0.140625 0.296875 -0.359375 0.53125q-0.21875 0.234375 -0.515625 0.375q-0.296875 0.125 -0.703125 0.125q-0.40625 0 -0.703125 -0.125q-0.296875 -0.140625 -0.515625 -0.375q-0.21875 -0.234375 -0.375 -0.53125q-0.140625 -0.3125 -0.21875 -0.65625q-0.09375 -0.34375 -0.140625 -0.6875q-0.03125 -0.34375 -0.03125 -0.671875l0 -0.75q0 -0.328125 0.03125 -0.671875q0.046875 -0.34375 0.140625 -0.6875q0.078125 -0.328125 0.21875 -0.625q0.15625 -0.3125 0.375 -0.546875q0.21875 -0.234375 0.515625 -0.375q0.296875 -0.140625 0.6875 -0.140625q0.40625 0 0.703125 0.140625q0.3125 0.140625 0.53125 0.359375q0.21875 0.234375 0.359375 0.546875q0.140625 0.296875 0.234375 0.640625q0.078125 0.328125 0.109375 0.6875q0.03125 0.34375 0.03125 0.671875z" fill-rule="nonzero"/><path fill="#000000" fill-opacity="0.0" d="m99.71391 133.19179l12.220467 0l0 8.112396l-12.220467 0z" fill-rule="evenodd"/><path fill="#ffffff" d="m286.34122 128.96506l53.637787 0l0 40.219467l-53.637787 0z" fill-rule="evenodd"/><path stroke="#000000" stroke-width="2.0" stroke-linejoin="round" stroke-linecap="butt" d="m286.34122 128.96506l53.637787 0l0 40.219467l-53.637787 0z" fill-rule="evenodd"/><path fill="#000000" d="m296.84174 149.09854l0 0.09375q0 0.453125 0.125 0.84375q0.140625 0.390625 0.390625 0.671875q0.234375 0.296875 0.59375 0.46875q0.359375 0.15625 0.8125 0.15625q0.4375 0 0.796875 -0.15625q0.359375 -0.171875 0.609375 -0.46875q0.25 -0.28125 0.375 -0.671875q0.140625 -0.390625 0.140625 -0.84375l0 -0.09375q0 -0.453125 -0.140625 -0.84375q-0.125 -0.390625 -0.375 -0.6875q-0.25 -0.28125 -0.609375 -0.453125q-0.359375 -0.171875 -0.8125 -0.171875q-0.4375 0 -0.796875 0.171875q-0.359375 0.171875 -0.59375 0.453125q-0.25 0.296875 -0.390625 0.6875q-0.125 0.390625 -0.125 0.84375zm0.71875 0.09375l0 -0.09375q0 -0.3125 0.0625 -0.59375q0.078125 -0.28125 0.234375 -0.5q0.15625 -0.203125 0.375 -0.328125q0.21875 -0.140625 0.515625 -0.140625q0.3125 0 0.53125 0.140625q0.21875 0.125 0.375 0.328125q0.15625 0.21875 0.21875 0.5q0.078125 0.28125 0.078125 0.59375l0 0.09375q0 0.3125 -0.078125 0.59375q-0.0625 0.28125 -0.21875 0.5q-0.140625 0.203125 -0.375 0.328125q-0.21875 0.125 -0.515625 0.125q-0.296875 0 -0.53125 -0.125q-0.21875 -0.125 -0.375 -0.328125q-0.15625 -0.21875 -0.234375 -0.5q-0.0625 -0.28125 -0.0625 -0.59375zm7.7851562 2.65625l0 -0.59375l-3.578125 0l0 0.59375l3.578125 0zm2.0195312 -4.1875l0 -2.40625l-0.71875 0l0 6.0l0.71875 0l0 -3.078125q0.078125 -0.125 0.171875 -0.21875q0.109375 -0.109375 0.21875 -0.1875q0.15625 -0.09375 0.328125 -0.140625q0.171875 -0.0625 0.375 -0.0625q0.234375 -0.015625 0.40625 0.0625q0.1875 0.0625 0.3125 0.203125q0.109375 0.125 0.171875 0.3125q0.0625 0.1875 0.0625 0.4375l0 2.671875l0.71875 0l0 -2.65625q0 -0.4375 -0.109375 -0.734375q-0.09375 -0.3125 -0.28125 -0.515625q-0.203125 -0.203125 -0.46875 -0.296875q-0.265625 -0.109375 -0.609375 -0.109375q-0.25 0.015625 -0.484375 0.09375q-0.21875 0.0625 -0.40625 0.1875q-0.109375 0.09375 -0.21875 0.203125q-0.109375 0.09375 -0.1875 0.234375zm6.8789062 2.46875q0 0.109375 -0.046875 0.203125q-0.03125 0.078125 -0.09375 0.15625q-0.125 0.125 -0.34375 0.1875q-0.21875 0.0625 -0.5 0.0625q-0.1875 0 -0.375 -0.03125q-0.1875 -0.046875 -0.34375 -0.140625q-0.15625 -0.09375 -0.265625 -0.234375q-0.09375 -0.15625 -0.109375 -0.375l-0.71875 0q0 0.265625 0.125 0.515625q0.125 0.25 0.359375 0.4375q0.21875 0.1875 0.546875 0.3125q0.34375 0.109375 0.78125 0.109375q0.375 0 0.6875 -0.09375q0.3125 -0.09375 0.546875 -0.25q0.21875 -0.171875 0.34375 -0.390625q0.140625 -0.234375 0.140625 -0.515625q0 -0.265625 -0.125 -0.453125q-0.109375 -0.203125 -0.3125 -0.359375q-0.21875 -0.15625 -0.53125 -0.25q-0.296875 -0.109375 -0.6875 -0.203125q-0.296875 -0.046875 -0.5 -0.109375q-0.1875 -0.0625 -0.296875 -0.140625q-0.125 -0.078125 -0.171875 -0.171875q-0.046875 -0.109375 -0.046875 -0.234375q0 -0.125 0.0625 -0.234375q0.0625 -0.109375 0.171875 -0.203125q0.125 -0.078125 0.296875 -0.125q0.171875 -0.0625 0.40625 -0.0625q0.21875 0 0.390625 0.0625q0.1875 0.0625 0.3125 0.171875q0.125 0.09375 0.1875 0.234375q0.078125 0.125 0.078125 0.265625l0.71875 0q0 -0.28125 -0.125 -0.515625q-0.109375 -0.25 -0.328125 -0.421875q-0.21875 -0.1875 -0.53125 -0.28125q-0.3125 -0.109375 -0.703125 -0.109375q-0.375 0 -0.671875 0.109375q-0.296875 0.09375 -0.515625 0.265625q-0.21875 0.15625 -0.34375 0.390625q-0.125 0.21875 -0.125 0.484375q0 0.25 0.109375 0.453125q0.125 0.203125 0.34375 0.34375q0.203125 0.140625 0.5 0.25q0.3125 0.109375 0.671875 0.1875q0.296875 0.046875 0.484375 0.125q0.203125 0.078125 0.328125 0.15625q0.125 0.09375 0.171875 0.203125q0.046875 0.09375 0.046875 0.21875zm2.3320312 2.828125q0.296875 0 0.515625 -0.109375q0.21875 -0.09375 0.375 -0.25q0.171875 -0.15625 0.28125 -0.34375q0.109375 -0.1875 0.1875 -0.34375l2.140625 -4.890625l-0.796875 0l-1.09375 2.75l-0.203125 0.5l-0.1875 -0.515625l-1.15625 -2.734375l-0.8125 0l1.828125 4.03125l-0.296875 0.5625q-0.03125 0.078125 -0.109375 0.203125q-0.0625 0.125 -0.15625 0.234375q-0.09375 0.109375 -0.21875 0.1875q-0.125 0.09375 -0.28125 0.09375q-0.046875 0 -0.140625 -0.015625q-0.09375 0 -0.203125 0l-0.109375 0.578125q0.0625 0.015625 0.203125 0.03125q0.140625 0.03125 0.234375 0.03125zm4.4726562 -1.703125l0.71875 0l0 -3.03125q0.078125 -0.140625 0.171875 -0.25q0.09375 -0.109375 0.21875 -0.203125q0.140625 -0.09375 0.3125 -0.140625q0.171875 -0.0625 0.375 -0.0625q0.234375 0 0.40625 0.0625q0.171875 0.046875 0.296875 0.15625q0.125 0.125 0.1875 0.328125q0.0625 0.1875 0.0625 0.46875l0 2.671875l0.71875 0l0 -2.6875q0 -0.421875 -0.109375 -0.71875q-0.09375 -0.3125 -0.28125 -0.515625q-0.1875 -0.203125 -0.46875 -0.296875q-0.265625 -0.09375 -0.59375 -0.09375q-0.25 0.015625 -0.46875 0.078125q-0.21875 0.0625 -0.40625 0.1875q-0.125 0.09375 -0.25 0.203125q-0.109375 0.109375 -0.203125 0.234375l-0.046875 -0.625l-0.640625 0l0 4.234375zm6.5976562 -0.515625q-0.34375 0 -0.578125 -0.125q-0.21875 -0.140625 -0.359375 -0.359375q-0.140625 -0.21875 -0.203125 -0.484375q-0.0625 -0.265625 -0.0625 -0.546875l0 -0.171875q0 -0.265625 0.0625 -0.53125q0.0625 -0.28125 0.203125 -0.5q0.140625 -0.203125 0.359375 -0.34375q0.234375 -0.140625 0.578125 -0.140625q0.21875 0 0.40625 0.078125q0.1875 0.078125 0.328125 0.203125q0.140625 0.125 0.21875 0.296875q0.078125 0.171875 0.078125 0.359375l0.6875 0q0 -0.3125 -0.140625 -0.59375q-0.125 -0.28125 -0.34375 -0.484375q-0.234375 -0.203125 -0.546875 -0.328125q-0.3125 -0.125 -0.6875 -0.125q-0.484375 0 -0.84375 0.171875q-0.359375 0.171875 -0.59375 0.46875q-0.25 0.296875 -0.375 0.6875q-0.109375 0.375 -0.109375 0.78125l0 0.171875q0 0.421875 0.109375 0.8125q0.125 0.375 0.375 0.65625q0.234375 0.296875 0.59375 0.46875q0.359375 0.171875 0.84375 0.171875q0.328125 0 0.640625 -0.109375q0.3125 -0.125 0.546875 -0.3125q0.234375 -0.203125 0.375 -0.453125q0.15625 -0.25 0.15625 -0.53125l-0.6875 0q0 0.171875 -0.09375 0.328125q-0.078125 0.140625 -0.234375 0.25q-0.140625 0.109375 -0.328125 0.171875q-0.1875 0.0625 -0.375 0.0625z" fill-rule="nonzero"/><path fill="#ffffff" d="m286.34122 156.05457l10.992126 5.329788l-10.992126 5.329773z" fill-rule="evenodd"/><path stroke="#000000" stroke-width="1.0" stroke-linejoin="round" stroke-linecap="butt" d="m286.34122 156.05457l10.992126 5.329788l-10.992126 5.329773z" fill-rule="evenodd"/><path fill="#000000" fill-opacity="0.0" d="m276.4987 130.98601l33.385834 0l0 11.9010315l-33.385834 0z" fill-rule="evenodd"/><path fill="#000000" d="m290.49725 141.25653l1.984375 0q0.609375 0 1.140625 -0.140625q0.53125 -0.140625 0.953125 -0.40625q0.390625 -0.25 0.71875 -0.609375q0.328125 -0.359375 0.53125 -0.796875q0.203125 -0.421875 0.3125 -0.921875q0.109375 -0.515625 0.109375 -1.078125l0 -0.625q0 -0.578125 -0.125 -1.09375q-0.109375 -0.515625 -0.328125 -0.953125q-0.234375 -0.515625 -0.640625 -0.90625q-0.40625 -0.390625 -0.921875 -0.625q-0.375 -0.171875 -0.828125 -0.265625q-0.4375 -0.109375 -0.921875 -0.109375l-1.984375 0l0 8.53125zm1.109375 -7.640625l0.875 0q0.390625 0 0.734375 0.09375q0.34375 0.078125 0.625 0.234375q0.375 0.203125 0.640625 0.53125q0.265625 0.328125 0.4375 0.75q0.109375 0.3125 0.171875 0.6875q0.0625 0.359375 0.078125 0.75l0 0.640625q-0.015625 0.390625 -0.078125 0.75q-0.046875 0.359375 -0.171875 0.671875q-0.125 0.390625 -0.359375 0.703125q-0.234375 0.296875 -0.546875 0.515625q-0.296875 0.203125 -0.6875 0.3125q-0.375 0.109375 -0.84375 0.109375l-0.875 0l0 -6.75z" fill-rule="nonzero"/><path fill="#000000" fill-opacity="0.0" d="m287.08136 132.88033l12.2204895 0l0 8.112396l-12.2204895 0z" fill-rule="evenodd"/><path fill="#000000" fill-opacity="0.0" d="m315.56955 130.70596l33.385834 0l0 11.9010315l-33.385834 0z" fill-rule="evenodd"/><path fill="#000000" d="m335.30252 137.08586l0 -0.75q0 -0.46875 -0.078125 -0.953125q-0.078125 -0.484375 -0.234375 -0.921875q-0.15625 -0.453125 -0.40625 -0.828125q-0.234375 -0.390625 -0.5625 -0.6875q-0.34375 -0.28125 -0.78125 -0.453125q-0.4375 -0.171875 -0.984375 -0.171875q-0.546875 0 -0.984375 0.171875q-0.421875 0.171875 -0.765625 0.453125q-0.34375 0.296875 -0.578125 0.6875q-0.234375 0.390625 -0.390625 0.828125q-0.171875 0.453125 -0.25 0.9375q-0.0625 0.46875 -0.078125 0.9375l0 0.75q0.015625 0.46875 0.078125 0.953125q0.078125 0.46875 0.25 0.921875q0.15625 0.4375 0.390625 0.828125q0.25 0.390625 0.59375 0.6875q0.328125 0.28125 0.765625 0.453125q0.4375 0.171875 0.984375 0.171875q0.203125 0 0.390625 -0.03125q0.203125 -0.03125 0.390625 -0.078125l1.6875 1.421875l0.75 -0.703125l-1.484375 -1.234375q0.34375 -0.28125 0.578125 -0.671875q0.25 -0.390625 0.40625 -0.828125q0.15625 -0.453125 0.234375 -0.921875q0.078125 -0.484375 0.078125 -0.96875zm-1.078125 -0.75l0 0.75q0 0.328125 -0.03125 0.6875q-0.03125 0.34375 -0.109375 0.671875q-0.09375 0.34375 -0.234375 0.65625q-0.140625 0.296875 -0.359375 0.53125q-0.21875 0.234375 -0.515625 0.375q-0.296875 0.125 -0.703125 0.125q-0.40625 0 -0.703125 -0.125q-0.296875 -0.140625 -0.515625 -0.375q-0.21875 -0.234375 -0.375 -0.53125q-0.140625 -0.3125 -0.21875 -0.65625q-0.09375 -0.34375 -0.140625 -0.6875q-0.03125 -0.34375 -0.03125 -0.671875l0 -0.75q0 -0.328125 0.03125 -0.671875q0.046875 -0.34375 0.140625 -0.6875q0.078125 -0.328125 0.21875 -0.625q0.15625 -0.3125 0.375 -0.546875q0.21875 -0.234375 0.515625 -0.375q0.296875 -0.140625 0.6875 -0.140625q0.40625 0 0.703125 0.140625q0.3125 0.140625 0.53125 0.359375q0.21875 0.234375 0.359375 0.546875q0.140625 0.296875 0.234375 0.640625q0.078125 0.328125 0.109375 0.6875q0.03125 0.34375 0.03125 0.671875z" fill-rule="nonzero"/><path fill="#000000" fill-opacity="0.0" d="m327.7638 132.88033l12.220459 0l0 8.112396l-12.220459 0z" fill-rule="evenodd"/><path fill="#000000" fill-opacity="0.0" d="m58.09449 77.55905l53.16535 0l0 28.535439l-53.16535 0z" fill-rule="evenodd"/><path fill="#000000" d="m81.63225 91.56864l0 -2.484375l-1.078125 0l0 2.484375l-2.375 0l0 1.078125l2.375 0l0 2.640625l1.078125 0l0 -2.640625l2.390625 0l0 -1.078125l-2.390625 0zm7.576172 4.578125l0 -8.53125l-0.078125 0l-3.234375 1.234375l0 1.0l2.234375 -0.859375l0 7.15625l1.078125 0z" fill-rule="nonzero"/><path fill="#ffffff" d="m201.60104 61.12539l37.385834 0l0 40.220474l-37.385834 0z" fill-rule="evenodd"/><path stroke="#000000" stroke-width="2.0" stroke-linejoin="round" stroke-linecap="butt" d="m201.60104 61.12539l37.385834 0l0 40.220474l-37.385834 0z" fill-rule="evenodd"/><path fill="#000000" fill-opacity="0.0" d="m197.03412 56.23694l46.519684 0l0 49.85827l-46.519684 0z" fill-rule="evenodd"/><path fill="#000000" d="m209.792 78.636696l0 -5.078125l-0.71875 0l0 5.6875l3.5 0l0 -0.609375l-2.78125 0zm3.7851562 -1.546875l0 0.09375q0 0.453125 0.125 0.84375q0.140625 0.390625 0.390625 0.671875q0.234375 0.296875 0.59375 0.46875q0.359375 0.15625 0.8125 0.15625q0.4375 0 0.796875 -0.15625q0.359375 -0.171875 0.609375 -0.46875q0.25 -0.28125 0.375 -0.671875q0.140625 -0.390625 0.140625 -0.84375l0 -0.09375q0 -0.453125 -0.140625 -0.84375q-0.125 -0.390625 -0.375 -0.6875q-0.25 -0.28125 -0.609375 -0.453125q-0.359375 -0.171875 -0.8125 -0.171875q-0.4375 0 -0.796875 0.171875q-0.359375 0.171875 -0.59375 0.453125q-0.25 0.296875 -0.390625 0.6875q-0.125 0.390625 -0.125 0.84375zm0.71875 0.09375l0 -0.09375q0 -0.3125 0.0625 -0.59375q0.078125 -0.28125 0.234375 -0.5q0.15625 -0.203125 0.375 -0.328125q0.21875 -0.140625 0.515625 -0.140625q0.3125 0 0.53125 0.140625q0.21875 0.125 0.375 0.328125q0.15625 0.21875 0.21875 0.5q0.078125 0.28125 0.078125 0.59375l0 0.09375q0 0.3125 -0.078125 0.59375q-0.0625 0.28125 -0.21875 0.5q-0.140625 0.203125 -0.375 0.328125q-0.21875 0.125 -0.515625 0.125q-0.296875 0 -0.53125 -0.125q-0.21875 -0.125 -0.375 -0.328125q-0.15625 -0.21875 -0.234375 -0.5q-0.0625 -0.28125 -0.0625 -0.59375zm4.1445312 -0.09375l0 0.09375q0 0.453125 0.109375 0.84375q0.125 0.390625 0.34375 0.671875q0.21875 0.296875 0.53125 0.46875q0.3125 0.15625 0.703125 0.15625q0.21875 0 0.421875 -0.046875q0.203125 -0.046875 0.359375 -0.140625q0.109375 -0.0625 0.203125 -0.140625q0.09375 -0.078125 0.171875 -0.171875l0 0.359375q0 0.28125 -0.078125 0.484375q-0.078125 0.21875 -0.21875 0.359375q-0.15625 0.140625 -0.359375 0.21875q-0.203125 0.078125 -0.46875 0.078125q-0.140625 0 -0.28125 -0.03125q-0.140625 -0.03125 -0.296875 -0.09375q-0.140625 -0.0625 -0.28125 -0.1875q-0.140625 -0.109375 -0.265625 -0.265625l-0.375 0.4375q0.140625 0.203125 0.34375 0.34375q0.203125 0.140625 0.421875 0.21875q0.203125 0.09375 0.40625 0.125q0.21875 0.046875 0.390625 0.046875q0.390625 0 0.71875 -0.125q0.328125 -0.109375 0.578125 -0.34375q0.234375 -0.21875 0.359375 -0.546875q0.125 -0.328125 0.125 -0.75l0 -4.140625l-0.65625 0l-0.03125 0.46875q-0.078125 -0.09375 -0.15625 -0.171875q-0.078125 -0.078125 -0.171875 -0.140625q-0.171875 -0.109375 -0.390625 -0.171875q-0.21875 -0.0625 -0.46875 -0.0625q-0.390625 0 -0.703125 0.171875q-0.3125 0.15625 -0.53125 0.4375q-0.21875 0.28125 -0.34375 0.6875q-0.109375 0.390625 -0.109375 0.859375zm0.71875 0.09375l0 -0.09375q0 -0.296875 0.0625 -0.578125q0.078125 -0.28125 0.21875 -0.5q0.125 -0.203125 0.34375 -0.328125q0.21875 -0.125 0.53125 -0.125q0.171875 0 0.3125 0.046875q0.15625 0.03125 0.28125 0.109375q0.125 0.09375 0.21875 0.203125q0.09375 0.109375 0.15625 0.234375l0 1.9375q-0.0625 0.140625 -0.15625 0.25q-0.09375 0.109375 -0.21875 0.203125q-0.125 0.078125 -0.28125 0.125q-0.140625 0.046875 -0.328125 0.046875q-0.296875 0 -0.515625 -0.125q-0.21875 -0.125 -0.34375 -0.34375q-0.140625 -0.203125 -0.21875 -0.484375q-0.0625 -0.28125 -0.0625 -0.578125zm4.3320312 -2.171875l0 0.640625l1.4375 0l0 2.96875l-1.4375 0l0 0.625l3.53125 0l0 -0.625l-1.375 0l0 -3.609375l-2.15625 0zm1.34375 -1.109375q0 0.1875 0.109375 0.3125q0.109375 0.109375 0.328125 0.109375q0.203125 0 0.3125 -0.109375q0.109375 -0.125 0.109375 -0.3125q0 -0.09375 -0.03125 -0.171875q-0.03125 -0.078125 -0.09375 -0.140625q-0.046875 -0.046875 -0.125 -0.078125q-0.078125 -0.03125 -0.171875 -0.03125q-0.109375 0 -0.1875 0.03125q-0.078125 0.03125 -0.125 0.078125q-0.0625 0.0625 -0.09375 0.140625q-0.03125 0.078125 -0.03125 0.171875zm5.1445312 4.828125q-0.34375 0 -0.578125 -0.125q-0.21875 -0.140625 -0.359375 -0.359375q-0.140625 -0.21875 -0.203125 -0.484375q-0.0625 -0.265625 -0.0625 -0.546875l0 -0.171875q0 -0.265625 0.0625 -0.53125q0.0625 -0.28125 0.203125 -0.5q0.140625 -0.203125 0.359375 -0.34375q0.234375 -0.140625 0.578125 -0.140625q0.21875 0 0.40625 0.078125q0.1875 0.078125 0.328125 0.203125q0.140625 0.125 0.21875 0.296875q0.078125 0.171875 0.078125 0.359375l0.6875 0q0 -0.3125 -0.140625 -0.59375q-0.125 -0.28125 -0.34375 -0.484375q-0.234375 -0.203125 -0.546875 -0.328125q-0.3125 -0.125 -0.6875 -0.125q-0.484375 0 -0.84375 0.171875q-0.359375 0.171875 -0.59375 0.46875q-0.25 0.296875 -0.375 0.6875q-0.109375 0.375 -0.109375 0.78125l0 0.171875q0 0.421875 0.109375 0.8125q0.125 0.375 0.375 0.65625q0.234375 0.296875 0.59375 0.46875q0.359375 0.171875 0.84375 0.171875q0.328125 0 0.640625 -0.109375q0.3125 -0.125 0.546875 -0.3125q0.234375 -0.203125 0.375 -0.453125q0.15625 -0.25 0.15625 -0.53125l-0.6875 0q0 0.171875 -0.09375 0.328125q-0.078125 0.140625 -0.234375 0.25q-0.140625 0.109375 -0.328125 0.171875q-0.1875 0.0625 -0.375 0.0625z" fill-rule="nonzero"/><path fill="#000000" d="m211.12013 86.22108l-0.71875 0q0 0.140625 -0.015625 0.265625q0 0.109375 -0.03125 0.21875q-0.03125 0.109375 -0.09375 0.203125q-0.0625 0.09375 -0.171875 0.203125q-0.171875 0.171875 -0.359375 0.375q-0.171875 0.1875 -0.3125 0.40625q-0.140625 0.21875 -0.234375 0.46875q-0.09375 0.25 -0.09375 0.53125q0 0.359375 0.109375 0.625q0.109375 0.28125 0.3125 0.46875q0.203125 0.1875 0.5 0.28125q0.296875 0.109375 0.6875 0.109375q0.328125 0 0.625 -0.09375q0.296875 -0.09375 0.5 -0.28125q0.21875 -0.171875 0.34375 -0.4375q0.125 -0.265625 0.125 -0.59375l-0.71875 0q0 0.203125 -0.078125 0.34375q-0.078125 0.15625 -0.1875 0.25q-0.125 0.09375 -0.296875 0.140625q-0.15625 0.046875 -0.3125 0.046875q-0.21875 0 -0.390625 -0.0625q-0.171875 -0.0625 -0.28125 -0.171875q-0.109375 -0.109375 -0.171875 -0.28125q-0.046875 -0.15625 -0.046875 -0.359375q0 -0.203125 0.0625 -0.375q0.078125 -0.1875 0.1875 -0.34375q0.109375 -0.15625 0.234375 -0.296875q0.125 -0.15625 0.25 -0.296875q0.1875 -0.171875 0.296875 -0.296875q0.125 -0.140625 0.1875 -0.28125q0.0625 -0.140625 0.078125 -0.3125q0.015625 -0.1875 0.015625 -0.453125zm-0.84375 -1.234375q0 0.171875 0.109375 0.296875q0.125 0.125 0.34375 0.125q0.21875 0 0.328125 -0.125q0.125 -0.125 0.125 -0.296875q0 -0.1875 -0.125 -0.3125q-0.109375 -0.125 -0.328125 -0.125q-0.21875 0 -0.34375 0.125q-0.109375 0.125 -0.109375 0.3125zm6.2695312 3.859375l0.765625 0l0 -0.0625q-0.078125 -0.171875 -0.125 -0.40625q-0.03125 -0.25 -0.03125 -0.453125l0 -1.96875q0 -0.359375 -0.125 -0.625q-0.125 -0.265625 -0.359375 -0.4375q-0.21875 -0.171875 -0.53125 -0.265625q-0.3125 -0.09375 -0.671875 -0.09375q-0.390625 0 -0.703125 0.109375q-0.3125 0.109375 -0.515625 0.296875q-0.21875 0.171875 -0.34375 0.40625q-0.109375 0.21875 -0.109375 0.4375l0.71875 0q0 -0.125 0.0625 -0.25q0.0625 -0.125 0.1875 -0.21875q0.109375 -0.078125 0.28125 -0.125q0.171875 -0.0625 0.390625 -0.0625q0.234375 0 0.40625 0.0625q0.1875 0.046875 0.328125 0.15625q0.125 0.109375 0.1875 0.265625q0.078125 0.140625 0.078125 0.34375l0 0.328125l-0.796875 0q-0.4375 0 -0.796875 0.09375q-0.359375 0.078125 -0.609375 0.25q-0.25 0.171875 -0.390625 0.4375q-0.140625 0.265625 -0.140625 0.609375q0 0.265625 0.09375 0.5q0.109375 0.21875 0.3125 0.390625q0.1875 0.15625 0.453125 0.265625q0.265625 0.09375 0.609375 0.09375q0.203125 0 0.390625 -0.046875q0.1875 -0.046875 0.34375 -0.109375q0.15625 -0.078125 0.296875 -0.171875q0.140625 -0.109375 0.25 -0.21875q0 0.140625 0.03125 0.265625q0.03125 0.125 0.0625 0.203125zm-1.265625 -0.546875q-0.21875 0 -0.375 -0.046875q-0.15625 -0.0625 -0.265625 -0.171875q-0.109375 -0.09375 -0.171875 -0.21875q-0.046875 -0.140625 -0.046875 -0.296875q0 -0.15625 0.0625 -0.28125q0.0625 -0.140625 0.1875 -0.234375q0.15625 -0.125 0.4375 -0.1875q0.28125 -0.0625 0.65625 -0.0625l0.671875 0l0 0.84375q-0.0625 0.125 -0.171875 0.25q-0.109375 0.109375 -0.265625 0.203125q-0.140625 0.09375 -0.328125 0.15625q-0.1875 0.046875 -0.390625 0.046875zm6.5976562 -0.21875l0 -0.765625l-2.390625 -0.921875l-0.21875 -0.078125l0.21875 -0.0625l2.390625 -0.9375l0 -0.765625l-3.3125 1.484375l0 0.5625l3.3125 1.484375zm5.0820312 -1.296875l0 -0.09375q0 -0.328125 -0.0625 -0.625q-0.046875 -0.296875 -0.15625 -0.546875q-0.09375 -0.21875 -0.234375 -0.390625q-0.125 -0.1875 -0.296875 -0.3125q-0.1875 -0.125 -0.421875 -0.203125q-0.234375 -0.078125 -0.5 -0.078125q-0.21875 0 -0.40625 0.046875q-0.1875 0.046875 -0.34375 0.125q-0.125 0.0625 -0.234375 0.15625q-0.109375 0.09375 -0.203125 0.203125l0 -2.21875l-0.71875 0l0 6.0l0.65625 0l0.046875 -0.484375q0.0625 0.09375 0.140625 0.171875q0.078125 0.0625 0.171875 0.125q0.171875 0.125 0.390625 0.1875q0.234375 0.078125 0.5 0.078125q0.25 0 0.453125 -0.0625q0.203125 -0.0625 0.375 -0.15625q0.234375 -0.15625 0.40625 -0.390625q0.171875 -0.234375 0.28125 -0.53125q0.078125 -0.21875 0.109375 -0.46875q0.046875 -0.265625 0.046875 -0.53125zm-0.71875 -0.09375l0 0.09375q0 0.1875 -0.03125 0.375q-0.015625 0.171875 -0.078125 0.328125q-0.0625 0.203125 -0.171875 0.375q-0.09375 0.15625 -0.25 0.265625q-0.125 0.09375 -0.28125 0.140625q-0.140625 0.046875 -0.3125 0.046875q-0.1875 0 -0.34375 -0.046875q-0.15625 -0.0625 -0.28125 -0.140625q-0.125 -0.09375 -0.21875 -0.203125q-0.09375 -0.125 -0.171875 -0.265625l0 -1.859375q0.0625 -0.140625 0.15625 -0.25q0.109375 -0.125 0.234375 -0.21875q0.109375 -0.078125 0.265625 -0.125q0.15625 -0.046875 0.34375 -0.046875q0.171875 0 0.3125 0.046875q0.140625 0.03125 0.265625 0.09375q0.15625 0.09375 0.265625 0.265625q0.125 0.171875 0.1875 0.390625q0.046875 0.15625 0.078125 0.359375q0.03125 0.1875 0.03125 0.375zm3.2539062 0.546875l0.71875 0q0 -0.140625 0 -0.265625q0.015625 -0.125 0.046875 -0.21875q0.03125 -0.109375 0.09375 -0.203125q0.0625 -0.109375 0.1875 -0.21875q0.1875 -0.171875 0.375 -0.359375q0.1875 -0.1875 0.34375 -0.421875q0.140625 -0.21875 0.234375 -0.453125q0.109375 -0.25 0.109375 -0.53125q0 -0.359375 -0.125 -0.625q-0.109375 -0.28125 -0.3125 -0.46875q-0.21875 -0.1875 -0.53125 -0.28125q-0.3125 -0.109375 -0.703125 -0.109375q-0.359375 0 -0.671875 0.09375q-0.296875 0.09375 -0.515625 0.28125q-0.234375 0.171875 -0.375 0.4375q-0.125 0.265625 -0.125 0.59375l0.71875 0q0 -0.203125 0.078125 -0.34375q0.09375 -0.15625 0.21875 -0.25q0.140625 -0.09375 0.3125 -0.140625q0.171875 -0.046875 0.359375 -0.046875q0.234375 0 0.421875 0.0625q0.1875 0.0625 0.296875 0.1875q0.109375 0.109375 0.171875 0.265625q0.0625 0.15625 0.0625 0.359375q0 0.203125 -0.078125 0.375q-0.078125 0.171875 -0.1875 0.328125q-0.125 0.15625 -0.265625 0.3125q-0.125 0.140625 -0.265625 0.28125q-0.1875 0.171875 -0.3125 0.3125q-0.109375 0.125 -0.171875 0.265625q-0.0625 0.140625 -0.09375 0.328125q-0.015625 0.171875 -0.015625 0.453125zm-0.078125 1.234375q0 0.171875 0.109375 0.296875q0.109375 0.125 0.328125 0.125q0.21875 0 0.328125 -0.125q0.125 -0.125 0.125 -0.296875q0 -0.1875 -0.125 -0.3125q-0.109375 -0.125 -0.328125 -0.125q-0.21875 0 -0.328125 0.125q-0.109375 0.125 -0.109375 0.3125z" fill-rule="nonzero"/><path fill="#ffffff" d="m286.34122 72.96505l53.637787 0l0 40.219475l-53.637787 0z" fill-rule="evenodd"/><path stroke="#000000" stroke-width="2.0" stroke-linejoin="round" stroke-linecap="butt" d="m286.34122 72.96505l53.637787 0l0 40.219475l-53.637787 0z" fill-rule="evenodd"/><path fill="#000000" d="m301.64252 93.09854l0 0.09375q0 0.453125 0.125 0.84375q0.140625 0.390625 0.390625 0.671875q0.234375 0.296875 0.59375 0.46875q0.359375 0.15625 0.8125 0.15625q0.4375 0 0.796875 -0.15625q0.359375 -0.171875 0.609375 -0.46875q0.25 -0.28125 0.375 -0.671875q0.140625 -0.390625 0.140625 -0.84375l0 -0.09375q0 -0.453125 -0.140625 -0.84375q-0.125 -0.390625 -0.375 -0.6875q-0.25 -0.28125 -0.609375 -0.453125q-0.359375 -0.171875 -0.8125 -0.171875q-0.4375 0 -0.796875 0.171875q-0.359375 0.171875 -0.59375 0.453125q-0.25 0.296875 -0.390625 0.6875q-0.125 0.390625 -0.125 0.84375zm0.71875 0.09375l0 -0.09375q0 -0.3125 0.0625 -0.59375q0.078125 -0.28125 0.234375 -0.5q0.15625 -0.203125 0.375 -0.328125q0.21875 -0.140625 0.515625 -0.140625q0.3125 0 0.53125 0.140625q0.21875 0.125 0.375 0.328125q0.15625 0.21875 0.21875 0.5q0.078125 0.28125 0.078125 0.59375l0 0.09375q0 0.3125 -0.078125 0.59375q-0.0625 0.28125 -0.21875 0.5q-0.140625 0.203125 -0.375 0.328125q-0.21875 0.125 -0.515625 0.125q-0.296875 0 -0.53125 -0.125q-0.21875 -0.125 -0.375 -0.328125q-0.15625 -0.21875 -0.234375 -0.5q-0.0625 -0.28125 -0.0625 -0.59375zm7.7851562 2.65625l0 -0.59375l-3.578125 0l0 0.59375l3.578125 0zm2.0195312 -4.1875l0 -2.40625l-0.71875 0l0 6.0l0.71875 0l0 -3.078125q0.078125 -0.125 0.171875 -0.21875q0.109375 -0.109375 0.21875 -0.1875q0.15625 -0.09375 0.328125 -0.140625q0.171875 -0.0625 0.375 -0.0625q0.234375 -0.015625 0.40625 0.0625q0.1875 0.0625 0.3125 0.203125q0.109375 0.125 0.171875 0.3125q0.0625 0.1875 0.0625 0.4375l0 2.671875l0.71875 0l0 -2.65625q0 -0.4375 -0.109375 -0.734375q-0.09375 -0.3125 -0.28125 -0.515625q-0.203125 -0.203125 -0.46875 -0.296875q-0.265625 -0.109375 -0.609375 -0.109375q-0.25 0.015625 -0.484375 0.09375q-0.21875 0.0625 -0.40625 0.1875q-0.109375 0.09375 -0.21875 0.203125q-0.109375 0.09375 -0.1875 0.234375zm3.9414062 1.4375l0 0.09375q0 0.453125 0.109375 0.84375q0.125 0.390625 0.34375 0.671875q0.21875 0.296875 0.53125 0.46875q0.3125 0.15625 0.703125 0.15625q0.390625 0 0.671875 -0.125q0.296875 -0.140625 0.515625 -0.40625l0.03125 0.453125l0.65625 0l0 -6.0l-0.71875 0l0 2.1875q-0.203125 -0.234375 -0.5 -0.359375q-0.28125 -0.140625 -0.65625 -0.140625q-0.390625 0 -0.703125 0.171875q-0.3125 0.15625 -0.53125 0.4375q-0.21875 0.28125 -0.34375 0.6875q-0.109375 0.390625 -0.109375 0.859375zm0.71875 0.09375l0 -0.09375q0 -0.296875 0.0625 -0.578125q0.078125 -0.28125 0.21875 -0.5q0.125 -0.203125 0.34375 -0.328125q0.21875 -0.125 0.53125 -0.125q0.34375 0 0.578125 0.171875q0.25 0.15625 0.390625 0.40625l0 1.96875q-0.140625 0.28125 -0.390625 0.453125q-0.234375 0.15625 -0.59375 0.15625q-0.296875 0 -0.515625 -0.125q-0.21875 -0.125 -0.34375 -0.34375q-0.140625 -0.203125 -0.21875 -0.484375q-0.0625 -0.28125 -0.0625 -0.578125zm6.0820312 2.140625q0.625 0 1.03125 -0.25q0.421875 -0.25 0.640625 -0.5625l-0.4375 -0.34375q-0.203125 0.25 -0.515625 0.40625q-0.296875 0.15625 -0.671875 0.15625q-0.296875 0 -0.546875 -0.109375q-0.234375 -0.109375 -0.40625 -0.296875q-0.171875 -0.1875 -0.265625 -0.421875q-0.09375 -0.234375 -0.125 -0.53125l0 -0.03125l3.015625 0l0 -0.328125q0 -0.4375 -0.109375 -0.8125q-0.109375 -0.390625 -0.328125 -0.671875q-0.234375 -0.265625 -0.578125 -0.421875q-0.34375 -0.171875 -0.796875 -0.171875q-0.359375 0 -0.703125 0.15625q-0.34375 0.140625 -0.625 0.421875q-0.265625 0.28125 -0.4375 0.6875q-0.15625 0.40625 -0.15625 0.921875l0 0.15625q0 0.4375 0.140625 0.8125q0.15625 0.375 0.421875 0.65625q0.265625 0.265625 0.640625 0.421875q0.375 0.15625 0.8125 0.15625zm-0.09375 -3.796875q0.28125 0 0.484375 0.109375q0.203125 0.09375 0.328125 0.265625q0.140625 0.15625 0.203125 0.390625q0.078125 0.21875 0.078125 0.421875l0 0.03125l-2.265625 0q0.03125 -0.296875 0.140625 -0.515625q0.109375 -0.234375 0.265625 -0.390625q0.15625 -0.140625 0.34375 -0.21875q0.203125 -0.09375 0.421875 -0.09375z" fill-rule="nonzero"/><path fill="#ffffff" d="m286.34122 100.05457l10.992126 5.329773l-10.992126 5.3297806z" fill-rule="evenodd"/><path stroke="#000000" stroke-width="1.0" stroke-linejoin="round" stroke-linecap="butt" d="m286.34122 100.05457l10.992126 5.329773l-10.992126 5.3297806z" fill-rule="evenodd"/><path fill="#000000" fill-opacity="0.0" d="m276.4987 74.986015l33.385834 0l0 11.901024l-33.385834 0z" fill-rule="evenodd"/><path fill="#000000" d="m290.49725 85.25652l1.984375 0q0.609375 0 1.140625 -0.140625q0.53125 -0.140625 0.953125 -0.40625q0.390625 -0.25 0.71875 -0.609375q0.328125 -0.359375 0.53125 -0.796875q0.203125 -0.421875 0.3125 -0.921875q0.109375 -0.515625 0.109375 -1.078125l0 -0.625q0 -0.578125 -0.125 -1.09375q-0.109375 -0.515625 -0.328125 -0.953125q-0.234375 -0.515625 -0.640625 -0.90625q-0.40625 -0.390625 -0.921875 -0.625q-0.375 -0.171875 -0.828125 -0.265625q-0.4375 -0.109375 -0.921875 -0.109375l-1.984375 0l0 8.53125zm1.109375 -7.640625l0.875 0q0.390625 0 0.734375 0.09375q0.34375 0.078125 0.625 0.234375q0.375 0.203125 0.640625 0.53125q0.265625 0.328125 0.4375 0.75q0.109375 0.3125 0.171875 0.6875q0.0625 0.359375 0.078125 0.75l0 0.640625q-0.015625 0.390625 -0.078125 0.75q-0.046875 0.359375 -0.171875 0.671875q-0.125 0.390625 -0.359375 0.703125q-0.234375 0.296875 -0.546875 0.515625q-0.296875 0.203125 -0.6875 0.3125q-0.375 0.109375 -0.84375 0.109375l-0.875 0l0 -6.75z" fill-rule="nonzero"/><path fill="#000000" fill-opacity="0.0" d="m287.08136 76.88033l12.2204895 0l0 8.112389l-12.2204895 0z" fill-rule="evenodd"/><path fill="#000000" fill-opacity="0.0" d="m315.56955 74.70597l33.385834 0l0 11.901024l-33.385834 0z" fill-rule="evenodd"/><path fill="#000000" d="m335.30252 81.08585l0 -0.75q0 -0.46875 -0.078125 -0.953125q-0.078125 -0.484375 -0.234375 -0.921875q-0.15625 -0.453125 -0.40625 -0.828125q-0.234375 -0.390625 -0.5625 -0.6875q-0.34375 -0.28125 -0.78125 -0.453125q-0.4375 -0.171875 -0.984375 -0.171875q-0.546875 0 -0.984375 0.171875q-0.421875 0.171875 -0.765625 0.453125q-0.34375 0.296875 -0.578125 0.6875q-0.234375 0.390625 -0.390625 0.828125q-0.171875 0.453125 -0.25 0.9375q-0.0625 0.46875 -0.078125 0.9375l0 0.75q0.015625 0.46875 0.078125 0.953125q0.078125 0.46875 0.25 0.921875q0.15625 0.4375 0.390625 0.828125q0.25 0.390625 0.59375 0.6875q0.328125 0.28125 0.765625 0.453125q0.4375 0.171875 0.984375 0.171875q0.203125 0 0.390625 -0.03125q0.203125 -0.03125 0.390625 -0.078125l1.6875 1.421875l0.75 -0.703125l-1.484375 -1.234375q0.34375 -0.28125 0.578125 -0.671875q0.25 -0.390625 0.40625 -0.828125q0.15625 -0.453125 0.234375 -0.921875q0.078125 -0.484375 0.078125 -0.96875zm-1.078125 -0.75l0 0.75q0 0.328125 -0.03125 0.6875q-0.03125 0.34375 -0.109375 0.671875q-0.09375 0.34375 -0.234375 0.65625q-0.140625 0.296875 -0.359375 0.53125q-0.21875 0.234375 -0.515625 0.375q-0.296875 0.125 -0.703125 0.125q-0.40625 0 -0.703125 -0.125q-0.296875 -0.140625 -0.515625 -0.375q-0.21875 -0.234375 -0.375 -0.53125q-0.140625 -0.3125 -0.21875 -0.65625q-0.09375 -0.34375 -0.140625 -0.6875q-0.03125 -0.34375 -0.03125 -0.671875l0 -0.75q0 -0.328125 0.03125 -0.671875q0.046875 -0.34375 0.140625 -0.6875q0.078125 -0.328125 0.21875 -0.625q0.15625 -0.3125 0.375 -0.546875q0.21875 -0.234375 0.515625 -0.375q0.296875 -0.140625 0.6875 -0.140625q0.40625 0 0.703125 0.140625q0.3125 0.140625 0.53125 0.359375q0.21875 0.234375 0.359375 0.546875q0.140625 0.296875 0.234375 0.640625q0.078125 0.328125 0.109375 0.6875q0.03125 0.34375 0.03125 0.671875z" fill-rule="nonzero"/><path fill="#000000" fill-opacity="0.0" d="m327.7638 76.88033l12.220459 0l0 8.112389l-12.220459 0z" fill-rule="evenodd"/><path fill="#ffffff" d="m286.34122 16.96505l53.637787 0l0 40.21948l-53.637787 0z" fill-rule="evenodd"/><path stroke="#000000" stroke-width="2.0" stroke-linejoin="round" stroke-linecap="butt" d="m286.34122 16.96505l53.637787 0l0 40.21948l-53.637787 0z" fill-rule="evenodd"/><path fill="#000000" d="m306.4433 37.098537l0 0.09375q0 0.453125 0.125 0.84375q0.140625 0.390625 0.390625 0.671875q0.234375 0.296875 0.59375 0.46875q0.359375 0.15625 0.8125 0.15625q0.4375 0 0.796875 -0.15625q0.359375 -0.171875 0.609375 -0.46875q0.25 -0.28125 0.375 -0.671875q0.140625 -0.390625 0.140625 -0.84375l0 -0.09375q0 -0.453125 -0.140625 -0.84375q-0.125 -0.390625 -0.375 -0.6875q-0.25 -0.28125 -0.609375 -0.453125q-0.359375 -0.171875 -0.8125 -0.171875q-0.4375 0 -0.796875 0.171875q-0.359375 0.171875 -0.59375 0.453125q-0.25 0.296875 -0.390625 0.6875q-0.125 0.390625 -0.125 0.84375zm0.71875 0.09375l0 -0.09375q0 -0.3125 0.0625 -0.59375q0.078125 -0.28125 0.234375 -0.5q0.15625 -0.203125 0.375 -0.328125q0.21875 -0.140625 0.515625 -0.140625q0.3125 0 0.53125 0.140625q0.21875 0.125 0.375 0.328125q0.15625 0.21875 0.21875 0.5q0.078125 0.28125 0.078125 0.59375l0 0.09375q0 0.3125 -0.078125 0.59375q-0.0625 0.28125 -0.21875 0.5q-0.140625 0.203125 -0.375 0.328125q-0.21875 0.125 -0.515625 0.125q-0.296875 0 -0.53125 -0.125q-0.21875 -0.125 -0.375 -0.328125q-0.15625 -0.21875 -0.234375 -0.5q-0.0625 -0.28125 -0.0625 -0.59375zm7.7851562 2.65625l0 -0.59375l-3.578125 0l0 0.59375l3.578125 0zm3.0351562 -3.25l-1.109375 -1.578125l-0.84375 0l1.578125 2.09375l-1.609375 2.140625l0.84375 0l1.15625 -1.609375l1.171875 1.609375l0.84375 0l-1.625 -2.140625l1.578125 -2.09375l-0.84375 0l-1.140625 1.578125z" fill-rule="nonzero"/><path fill="#ffffff" d="m286.34122 44.054573l10.992126 5.329777l-10.992126 5.329777z" fill-rule="evenodd"/><path stroke="#000000" stroke-width="1.0" stroke-linejoin="round" stroke-linecap="butt" d="m286.34122 44.054573l10.992126 5.329777l-10.992126 5.329777z" fill-rule="evenodd"/><path fill="#000000" fill-opacity="0.0" d="m276.4987 18.986013l33.385834 0l0 11.901028l-33.385834 0z" fill-rule="evenodd"/><path fill="#000000" d="m290.49725 29.256527l1.984375 0q0.609375 0 1.140625 -0.140625q0.53125 -0.140625 0.953125 -0.40625q0.390625 -0.25 0.71875 -0.609375q0.328125 -0.359375 0.53125 -0.796875q0.203125 -0.421875 0.3125 -0.921875q0.109375 -0.515625 0.109375 -1.078125l0 -0.625q0 -0.578125 -0.125 -1.09375q-0.109375 -0.515625 -0.328125 -0.953125q-0.234375 -0.515625 -0.640625 -0.90625q-0.40625 -0.390625 -0.921875 -0.625q-0.375 -0.171875 -0.828125 -0.265625q-0.4375 -0.109375 -0.921875 -0.109375l-1.984375 0l0 8.53125zm1.109375 -7.640625l0.875 0q0.390625 0 0.734375 0.09375q0.34375 0.078125 0.625 0.234375q0.375 0.203125 0.640625 0.53125q0.265625 0.328125 0.4375 0.75q0.109375 0.3125 0.171875 0.6875q0.0625 0.359375 0.078125 0.75l0 0.640625q-0.015625 0.390625 -0.078125 0.75q-0.046875 0.359375 -0.171875 0.671875q-0.125 0.390625 -0.359375 0.703125q-0.234375 0.296875 -0.546875 0.515625q-0.296875 0.203125 -0.6875 0.3125q-0.375 0.109375 -0.84375 0.109375l-0.875 0l0 -6.75z" fill-rule="nonzero"/><path fill="#000000" fill-opacity="0.0" d="m287.08136 20.880331l12.2204895 0l0 8.1123905l-12.2204895 0z" fill-rule="evenodd"/><path fill="#000000" fill-opacity="0.0" d="m315.56955 18.705969l33.385834 0l0 11.901026l-33.385834 0z" fill-rule="evenodd"/><path fill="#000000" d="m335.30252 25.085857l0 -0.75q0 -0.46875 -0.078125 -0.953125q-0.078125 -0.484375 -0.234375 -0.921875q-0.15625 -0.453125 -0.40625 -0.828125q-0.234375 -0.390625 -0.5625 -0.6875q-0.34375 -0.28125 -0.78125 -0.453125q-0.4375 -0.171875 -0.984375 -0.171875q-0.546875 0 -0.984375 0.171875q-0.421875 0.171875 -0.765625 0.453125q-0.34375 0.296875 -0.578125 0.6875q-0.234375 0.390625 -0.390625 0.828125q-0.171875 0.453125 -0.25 0.9375q-0.0625 0.46875 -0.078125 0.9375l0 0.75q0.015625 0.46875 0.078125 0.953125q0.078125 0.46875 0.25 0.921875q0.15625 0.4375 0.390625 0.828125q0.25 0.390625 0.59375 0.6875q0.328125 0.28125 0.765625 0.453125q0.4375 0.171875 0.984375 0.171875q0.203125 0 0.390625 -0.03125q0.203125 -0.03125 0.390625 -0.078125l1.6875 1.421875l0.75 -0.703125l-1.484375 -1.234375q0.34375 -0.28125 0.578125 -0.671875q0.25 -0.390625 0.40625 -0.828125q0.15625 -0.453125 0.234375 -0.921875q0.078125 -0.484375 0.078125 -0.96875zm-1.078125 -0.75l0 0.75q0 0.328125 -0.03125 0.6875q-0.03125 0.34375 -0.109375 0.671875q-0.09375 0.34375 -0.234375 0.65625q-0.140625 0.296875 -0.359375 0.53125q-0.21875 0.234375 -0.515625 0.375q-0.296875 0.125 -0.703125 0.125q-0.40625 0 -0.703125 -0.125q-0.296875 -0.140625 -0.515625 -0.375q-0.21875 -0.234375 -0.375 -0.53125q-0.140625 -0.3125 -0.21875 -0.65625q-0.09375 -0.34375 -0.140625 -0.6875q-0.03125 -0.34375 -0.03125 -0.671875l0 -0.75q0 -0.328125 0.03125 -0.671875q0.046875 -0.34375 0.140625 -0.6875q0.078125 -0.328125 0.21875 -0.625q0.15625 -0.3125 0.375 -0.546875q0.21875 -0.234375 0.515625 -0.375q0.296875 -0.140625 0.6875 -0.140625q0.40625 0 0.703125 0.140625q0.3125 0.140625 0.53125 0.359375q0.21875 0.234375 0.359375 0.546875q0.140625 0.296875 0.234375 0.640625q0.078125 0.328125 0.109375 0.6875q0.03125 0.34375 0.03125 0.671875z" fill-rule="nonzero"/><path fill="#000000" fill-opacity="0.0" d="m327.7638 20.880331l12.220459 0l0 8.1123905l-12.220459 0z" fill-rule="evenodd"/><path fill="#000000" fill-opacity="0.0" d="m111.93438 137.24799l44.572075 0l0 -112.31496l130.57753 0" fill-rule="evenodd"/><path stroke="#000000" stroke-width="1.0" stroke-linejoin="round" stroke-linecap="butt" d="m111.93438 137.24799l44.572075 0l0 -112.31496l124.57753 0" fill-rule="evenodd"/><path fill="#000000" stroke="#000000" stroke-width="1.0" stroke-linecap="butt" d="m281.08398 26.58476l4.5381165 -1.6517334l-4.5381165 -1.6517315z" fill-rule="evenodd"/><path fill="#000000" fill-opacity="0.0" d="m111.93438 137.24799l44.833748 0l0 -56.0l44.83554 0" fill-rule="evenodd"/><path stroke="#000000" stroke-width="1.0" stroke-linejoin="round" stroke-linecap="butt" d="m111.93438 137.24799l44.833763 0l0 -56.0l38.835526 0" fill-rule="evenodd"/><path fill="#000000" stroke="#000000" stroke-width="1.0" stroke-linecap="butt" d="m195.60367 82.89972l4.538101 -1.6517334l-4.538101 -1.6517334z" fill-rule="evenodd"/><path fill="#000000" fill-opacity="0.0" d="m111.93438 137.24799l44.833748 0l0 -0.06298828l44.83554 0" fill-rule="evenodd"/><path stroke="#000000" stroke-width="1.0" stroke-linejoin="round" stroke-linecap="butt" d="m111.93438 137.24799l44.833763 0l0 -0.06298828l38.835526 0" fill-rule="evenodd"/><path fill="#000000" stroke="#000000" stroke-width="1.0" stroke-linecap="butt" d="m195.60367 138.83673l4.538101 -1.6517334l-4.538101 -1.6517334z" fill-rule="evenodd"/><path fill="#000000" fill-opacity="0.0" d="m5.3333335 194.99065l261.0338 0l0 -33.606293l19.97406 0" fill-rule="evenodd"/><path stroke="#999999" stroke-width="1.0" stroke-linejoin="round" stroke-linecap="butt" d="m5.3333335 194.99065l261.0338 0l0 -33.606293l13.97406 0" fill-rule="evenodd"/><path fill="#999999" stroke="#999999" stroke-width="1.0" stroke-linecap="butt" d="m280.34122 163.03609l4.538086 -1.6517334l-4.538086 -1.6517334z" fill-rule="evenodd"/><path fill="#000000" fill-opacity="0.0" d="m6.1837273 195.27411l259.9021 0l0 -89.88976l20.255402 0" fill-rule="evenodd"/><path stroke="#999999" stroke-width="1.0" stroke-linejoin="round" stroke-linecap="butt" d="m6.1837273 195.27411l259.9021 0l0 -89.889755l14.255402 0" fill-rule="evenodd"/><path fill="#999999" stroke="#999999" stroke-width="1.0" stroke-linecap="butt" d="m280.34122 107.03608l4.538086 -1.6517258l-4.538086 -1.6517334z" fill-rule="evenodd"/><path fill="#000000" fill-opacity="0.0" d="m6.4671917 195.27411l260.0981 0l0 -145.88976l19.77591 0" fill-rule="evenodd"/><path stroke="#999999" stroke-width="1.0" stroke-linejoin="round" stroke-linecap="butt" d="m6.4671917 195.27411l260.0981 0l0 -145.88976l13.775909 0" fill-rule="evenodd"/><path fill="#999999" stroke="#999999" stroke-width="1.0" stroke-linecap="butt" d="m280.34122 51.036083l4.538086 -1.6517334l-4.538086 -1.6517334z" fill-rule="evenodd"/><path fill="#f3f3f3" d="m261.30972 132.31758l9.795258 0l0 9.795273l-9.795258 0z" fill-rule="evenodd"/><path fill="#000000" fill-opacity="0.0" d="m339.98425 80.93652l51.18109 0.15748596" fill-rule="evenodd"/><path stroke="#000000" stroke-width="1.0" stroke-linejoin="round" stroke-linecap="butt" d="m339.98425 80.93652l45.181152 0.13902283" fill-rule="evenodd"/><path fill="#000000" stroke="#000000" stroke-width="1.0" stroke-linecap="butt" d="m385.1603 82.72727l4.543152 -1.637764l-4.5329895 -1.6656876z" fill-rule="evenodd"/><path fill="#000000" fill-opacity="0.0" d="m339.98425 24.936527l51.18109 0.062992096" fill-rule="evenodd"/><path stroke="#000000" stroke-width="1.0" stroke-linejoin="round" stroke-linecap="butt" d="m339.98425 24.936525l45.18109 0.05560875" fill-rule="evenodd"/><path fill="#000000" stroke="#000000" stroke-width="1.0" stroke-linecap="butt" d="m385.16333 26.643866l4.5401306 -1.6461468l-4.536072 -1.6573162z" fill-rule="evenodd"/><path fill="#000000" fill-opacity="0.0" d="m238.98688 137.17923l48.094482 -0.25196838" fill-rule="evenodd"/><path stroke="#000000" stroke-width="1.0" stroke-linejoin="round" stroke-linecap="butt" d="m238.98688 137.17923l42.094574 -0.22052002" fill-rule="evenodd"/><path fill="#000000" stroke="#000000" stroke-width="1.0" stroke-linecap="butt" d="m281.0901 138.61041l4.5293884 -1.6754913l-4.546692 -1.6279297z" fill-rule="evenodd"/><path fill="#f3f3f3" d="m261.30972 76.31759l9.795258 0l0 9.795273l-9.795258 0z" fill-rule="evenodd"/><path fill="#000000" fill-opacity="0.0" d="m238.98688 81.23563l48.094482 -0.28346252" fill-rule="evenodd"/><path stroke="#000000" stroke-width="1.0" stroke-linejoin="round" stroke-linecap="butt" d="m238.98688 81.23563l42.094604 -0.24810028" fill-rule="evenodd"/><path fill="#000000" stroke="#000000" stroke-width="1.0" stroke-linecap="butt" d="m281.09122 82.63923l4.5282593 -1.6784515l-4.5477295 -1.6249542z" fill-rule="evenodd"/></g></svg>