<svg version="1.1" viewBox="0.0 0.0 505.87139107611546 213.251968503937" fill="none" stroke="none" stroke-linecap="square" stroke-miterlimit="10" xmlns:xlink="http://www.w3.org/1999/xlink" xmlns="http://www.w3.org/2000/svg"><clipPath id="p.0"><path d="m0 0l505.8714 0l0 213.25197l-505.8714 0l0 -213.25197z" clip-rule="nonzero"/></clipPath><g clip-path="url(#p.0)"><path fill="#000000" fill-opacity="0.0" d="m0 0l505.8714 0l0 213.25197l-505.8714 0z" fill-rule="evenodd"/><defs><linearGradient id="p.1" gradientUnits="userSpaceOnUse" gradientTransform="matrix(14.674610066280103 0.0 0.0 14.674610066280103 0.0 0.0)" spreadMethod="pad" x1="34.76141675427709" y1="14.674610067156916" x2="34.761578844371016" y2="1.7720048348866512E-9"><stop offset="0.0" stop-color="#f2f2f2"/><stop offset="1.0" stop-color="#cccccc"/></linearGradient></defs><path fill="url(#p.1)" d="m0 0l510.11023 0l0 215.33858l-510.11023 0z" fill-rule="evenodd"/><path fill="#000000" fill-opacity="0.0" d="m10.952756 202.8189l10.349082 0l0 -15.750656l9.0 0" fill-rule="evenodd"/><path stroke="#000000" stroke-width="1.0" stroke-linejoin="round" stroke-linecap="butt" d="m10.952756 202.8189l10.349082 0l0 -15.750656l9.0 0" fill-rule="evenodd"/><path fill="#000000" fill-opacity="0.0" d="m40.551838 202.8189l-10.349083 0l0 -15.750656l-9.0 0" fill-rule="evenodd"/><path stroke="#000000" stroke-width="1.0" stroke-linejoin="round" stroke-linecap="butt" d="m40.551838 202.8189l-10.349083 0l0 -15.750656l-9.0 0" fill-rule="evenodd"/><path fill="#000000" fill-opacity="0.0" d="m30.102757 202.8189l10.349079 0l0 -15.750656l9.0 0" fill-rule="evenodd"/><path stroke="#000000" stroke-width="1.0" stroke-linejoin="round" stroke-linecap="butt" d="m30.102757 202.8189l10.349079 0l0 -15.750656l9.0 0" fill-rule="evenodd"/><path fill="#000000" fill-opacity="0.0" d="m59.701836 202.8189l-10.349079 0l0 -15.750656l-9.0 0" fill-rule="evenodd"/><path stroke="#000000" stroke-width="1.0" stroke-linejoin="round" stroke-linecap="butt" d="m59.701836 202.8189l-10.349079 0l0 -15.750656l-9.0 0" fill-rule="evenodd"/><path fill="#000000" fill-opacity="0.0" d="m49.152756 202.8189l10.349083 0l0 -15.750656l9.0 0" fill-rule="evenodd"/><path stroke="#000000" stroke-width="1.0" stroke-linejoin="round" stroke-linecap="butt" d="m49.152756 202.8189l10.349083 0l0 -15.750656l9.0 0" fill-rule="evenodd"/><path fill="#000000" fill-opacity="0.0" d="m78.75184 202.8189l-10.349083 0l0 -15.750656l-9.0 0" fill-rule="evenodd"/><path stroke="#000000" stroke-width="1.0" stroke-linejoin="round" stroke-linecap="butt" d="m78.75184 202.8189l-10.349083 0l0 -15.750656l-9.0 0" fill-rule="evenodd"/><path fill="#000000" fill-opacity="0.0" d="m68.30276 202.8189l10.349083 0l0 -15.750656l9.0 0" fill-rule="evenodd"/><path stroke="#000000" stroke-width="1.0" stroke-linejoin="round" stroke-linecap="butt" d="m68.30276 202.8189l10.349083 0l0 -15.750656l9.0 0" fill-rule="evenodd"/><path fill="#000000" fill-opacity="0.0" d="m97.90184 202.8189l-10.349083 0l0 -15.750656l-9.0 0" fill-rule="evenodd"/><path stroke="#000000" stroke-width="1.0" stroke-linejoin="round" stroke-linecap="butt" d="m97.90184 202.8189l-10.349083 0l0 -15.750656l-9.0 0" fill-rule="evenodd"/><path fill="#ffffff" d="m287.10236 90.31389l86.39371 0l0 70.11713l-86.39371 0z" fill-rule="evenodd"/><path stroke="#000000" stroke-width="2.0" stroke-linejoin="round" stroke-linecap="butt" d="m287.10236 90.31389l86.39371 0l0 70.11713l-86.39371 0z" fill-rule="evenodd"/><path fill="#000000" d="m298.6071 111.45389q0 -2.484375 1.390625 -3.6875q1.15625 -1.0 2.8125 -1.0q1.859375 0 3.03125 1.21875q1.1875 1.203125 1.1875 3.34375q0 1.734375 -0.53125 2.734375q-0.515625 1.0 -1.515625 1.546875q-0.984375 0.546875 -2.171875 0.546875q-1.875 0 -3.046875 -1.203125q-1.15625 -1.21875 -1.15625 -3.5zm1.5625 0q0 1.734375 0.75 2.59375q0.75 0.859375 1.890625 0.859375q1.140625 0 1.890625 -0.859375q0.75 -0.875 0.75 -2.640625q0 -1.65625 -0.75 -2.515625q-0.75 -0.859375 -1.890625 -0.859375q-1.140625 0 -1.890625 0.859375q-0.75 0.84375 -0.75 2.5625zm7.230835 7.9375l0 -1.09375l10.09375 0l0 1.09375l-10.09375 0zm11.043335 -3.4375l0 -12.40625l1.53125 0l0 4.453125q1.0625 -1.234375 2.6875 -1.234375q1.0 0 1.734375 0.390625q0.734375 0.390625 1.046875 1.09375q0.328125 0.6875 0.328125 2.015625l0 5.6875l-1.53125 0l0 -5.6875q0 -1.15625 -0.5 -1.671875q-0.484375 -0.515625 -1.390625 -0.515625q-0.6875 0 -1.28125 0.359375q-0.59375 0.34375 -0.84375 0.953125q-0.25 0.59375 -0.25 1.640625l0 4.921875l-1.53125 0zm9.02771 -2.6875l1.515625 -0.234375q0.125 0.90625 0.703125 1.390625q0.578125 0.484375 1.609375 0.484375q1.0625 0 1.5625 -0.421875q0.515625 -0.4375 0.515625 -1.015625q0 -0.515625 -0.453125 -0.8125q-0.3125 -0.203125 -1.5625 -0.515625q-1.671875 -0.421875 -2.328125 -0.71875q-0.640625 -0.3125 -0.984375 -0.859375q-0.328125 -0.546875 -0.328125 -1.203125q0 -0.609375 0.28125 -1.109375q0.28125 -0.515625 0.75 -0.859375q0.359375 -0.265625 0.96875 -0.4375q0.609375 -0.1875 1.3125 -0.1875q1.0625 0 1.859375 0.3125q0.796875 0.296875 1.171875 0.828125q0.390625 0.515625 0.53125 1.375l-1.484375 0.203125q-0.109375 -0.6875 -0.59375 -1.078125q-0.484375 -0.390625 -1.375 -0.390625q-1.046875 0 -1.5 0.34375q-0.4375 0.34375 -0.4375 0.8125q0 0.296875 0.171875 0.53125q0.1875 0.25 0.59375 0.40625q0.21875 0.09375 1.34375 0.390625q1.609375 0.4375 2.25 0.71875q0.640625 0.265625 1.0 0.796875q0.375 0.515625 0.375 1.296875q0 0.765625 -0.453125 1.4375q-0.4375 0.671875 -1.28125 1.046875q-0.828125 0.359375 -1.890625 0.359375q-1.75 0 -2.671875 -0.71875q-0.921875 -0.734375 -1.171875 -2.171875zm9.2109375 6.140625l-0.171875 -1.421875q0.5 0.140625 0.875 0.140625q0.5 0 0.796875 -0.171875q0.3125 -0.171875 0.515625 -0.484375q0.140625 -0.21875 0.453125 -1.125q0.046875 -0.125 0.140625 -0.375l-3.40625 -9.0l1.640625 0l1.875 5.203125q0.359375 0.984375 0.640625 2.078125q0.265625 -1.046875 0.625 -2.046875l1.921875 -5.234375l1.53125 0l-3.421875 9.140625q-0.546875 1.484375 -0.859375 2.03125q-0.40625 0.75 -0.9375 1.09375q-0.515625 0.359375 -1.234375 0.359375q-0.453125 0 -0.984375 -0.1875zm8.7265625 -3.453125l0 -8.984375l1.375 0l0 1.28125q0.984375 -1.484375 2.859375 -1.484375q0.8125 0 1.484375 0.296875q0.6875 0.28125 1.015625 0.765625q0.34375 0.46875 0.484375 1.125q0.078125 0.421875 0.078125 1.46875l0 5.53125l-1.515625 0l0 -5.46875q0 -0.921875 -0.1875 -1.375q-0.171875 -0.46875 -0.625 -0.75q-0.453125 -0.28125 -1.0625 -0.28125q-0.96875 0 -1.671875 0.625q-0.703125 0.609375 -0.703125 2.34375l0 4.90625l-1.53125 0zm15.49646 -3.296875l1.5 0.203125q-0.234375 1.546875 -1.25 2.421875q-1.015625 0.875 -2.484375 0.875q-1.84375 0 -2.96875 -1.203125q-1.125 -1.203125 -1.125 -3.453125q0 -1.46875 0.484375 -2.546875q0.484375 -1.09375 1.46875 -1.640625q0.984375 -0.546875 2.140625 -0.546875q1.46875 0 2.390625 0.75q0.9375 0.734375 1.203125 2.09375l-1.484375 0.21875q-0.203125 -0.890625 -0.75 -1.34375q-0.53125 -0.46875 -1.296875 -0.46875q-1.140625 0 -1.875 0.828125q-0.71875 0.828125 -0.71875 2.609375q0 1.8125 0.6875 2.640625q0.703125 0.8125 1.828125 0.8125q0.890625 0 1.484375 -0.546875q0.609375 -0.5625 0.765625 -1.703125z" fill-rule="nonzero"/><path fill="#ffffff" d="m316.0735 160.43102l10.409454 -14.596008l10.409454 14.596008z" fill-rule="evenodd"/><path stroke="#000000" stroke-width="1.0" stroke-linejoin="round" stroke-linecap="butt" d="m316.0735 160.43102l10.409454 -14.596008l10.409454 14.596008z" fill-rule="evenodd"/><path fill="#000000" fill-opacity="0.0" d="m373.49606 125.37245l41.35434 -0.03149414" fill-rule="evenodd"/><path stroke="#000000" stroke-width="1.0" stroke-linejoin="round" stroke-linecap="butt" d="m373.49606 125.37246l35.35434 -0.026924133" fill-rule="evenodd"/><path fill="#000000" stroke="#000000" stroke-width="1.0" stroke-linecap="butt" d="m408.85165 126.99726l4.5368347 -1.6551895l-4.539337 -1.6482697z" fill-rule="evenodd"/><path fill="#000000" fill-opacity="0.0" d="m253.73753 62.12336l161.13387 0" fill-rule="evenodd"/><path stroke="#000000" stroke-width="1.0" stroke-linejoin="round" stroke-linecap="butt" d="m253.73753 62.12336l155.13387 0" fill-rule="evenodd"/><path fill="#000000" stroke="#000000" stroke-width="1.0" stroke-linecap="butt" d="m408.8714 63.775093l4.538086 -1.6517334l-4.538086 -1.6517334z" fill-rule="evenodd"/><path fill="#ffffff" d="m53.968502 90.371635l86.39369 0l0 70.117134l-86.39369 0z" fill-rule="evenodd"/><path stroke="#000000" stroke-width="2.0" stroke-linejoin="round" stroke-linecap="butt" d="m53.968502 90.371635l86.39369 0l0 70.117134l-86.39369 0z" fill-rule="evenodd"/><path fill="#000000" d="m73.59874 113.74476l1.609375 0.21875q-0.265625 1.65625 -1.359375 2.609375q-1.078125 0.9375 -2.671875 0.9375q-1.984375 0 -3.1875 -1.296875q-1.203125 -1.296875 -1.203125 -3.71875q0 -1.578125 0.515625 -2.75q0.515625 -1.171875 1.578125 -1.75q1.0625 -0.59375 2.3125 -0.59375q1.578125 0 2.578125 0.796875q1.0 0.796875 1.28125 2.265625l-1.59375 0.234375q-0.234375 -0.96875 -0.8125 -1.453125q-0.578125 -0.5 -1.390625 -0.5q-1.234375 0 -2.015625 0.890625q-0.78125 0.890625 -0.78125 2.8125q0 1.953125 0.75 2.84375q0.75 0.875 1.953125 0.875q0.96875 0 1.609375 -0.59375q0.65625 -0.59375 0.828125 -1.828125zm2.40625 -1.296875q0 -2.6875 1.484375 -3.96875q1.25 -1.078125 3.046875 -1.078125q2.0 0 3.265625 1.3125q1.265625 1.296875 1.265625 3.609375q0 1.859375 -0.5625 2.9375q-0.5625 1.0625 -1.640625 1.65625q-1.0625 0.59375 -2.328125 0.59375q-2.03125 0 -3.28125 -1.296875q-1.25 -1.3125 -1.25 -3.765625zm1.6875 0q0 1.859375 0.796875 2.796875q0.8125 0.921875 2.046875 0.921875q1.21875 0 2.03125 -0.921875q0.8125 -0.9375 0.8125 -2.84375q0 -1.796875 -0.8125 -2.71875q-0.8125 -0.921875 -2.03125 -0.921875q-1.234375 0 -2.046875 0.921875q-0.796875 0.90625 -0.796875 2.765625zm15.625717 4.84375l0 -1.421875q-1.125 1.640625 -3.0625 1.640625q-0.859375 0 -1.609375 -0.328125q-0.734375 -0.328125 -1.09375 -0.828125q-0.359375 -0.5 -0.5 -1.21875q-0.109375 -0.46875 -0.109375 -1.53125l0 -5.984375l1.640625 0l0 5.359375q0 1.28125 0.109375 1.734375q0.15625 0.640625 0.65625 1.015625q0.5 0.375 1.234375 0.375q0.734375 0 1.375 -0.375q0.65625 -0.390625 0.921875 -1.03125q0.265625 -0.65625 0.265625 -1.890625l0 -5.1875l1.640625 0l0 9.671875l-1.46875 0zm4.047592 0l0 -9.671875l1.46875 0l0 1.375q1.0625 -1.59375 3.078125 -1.59375q0.875 0 1.609375 0.3125q0.734375 0.3125 1.09375 0.828125q0.375 0.5 0.515625 1.203125q0.09375 0.453125 0.09375 1.59375l0 5.953125l-1.640625 0l0 -5.890625q0 -1.0 -0.203125 -1.484375q-0.1875 -0.5 -0.671875 -0.796875q-0.484375 -0.296875 -1.140625 -0.296875q-1.046875 0 -1.8125 0.671875q-0.75 0.65625 -0.75 2.515625l0 5.28125l-1.640625 0zm13.953842 -1.46875l0.234375 1.453125q-0.6875 0.140625 -1.234375 0.140625q-0.890625 0 -1.390625 -0.28125q-0.484375 -0.28125 -0.6875 -0.734375q-0.203125 -0.46875 -0.203125 -1.9375l0 -5.578125l-1.203125 0l0 -1.265625l1.203125 0l0 -2.390625l1.625 -0.984375l0 3.375l1.65625 0l0 1.265625l-1.65625 0l0 5.671875q0 0.6875 0.078125 0.890625q0.09375 0.203125 0.28125 0.328125q0.203125 0.109375 0.578125 0.109375q0.265625 0 0.71875 -0.0625zm8.230179 -1.640625l1.6875 0.203125q-0.40625 1.484375 -1.484375 2.3125q-1.078125 0.8125 -2.765625 0.8125q-2.125 0 -3.375 -1.296875q-1.234375 -1.3125 -1.234375 -3.671875q0 -2.453125 1.25 -3.796875q1.265625 -1.34375 3.265625 -1.34375q1.9375 0 3.15625 1.328125q1.234375 1.3125 1.234375 3.703125q0 0.15625 0 0.4375l-7.21875 0q0.09375 1.59375 0.90625 2.453125q0.8125 0.84375 2.015625 0.84375q0.90625 0 1.546875 -0.46875q0.640625 -0.484375 1.015625 -1.515625zm-5.390625 -2.65625l5.40625 0q-0.109375 -1.21875 -0.625 -1.828125q-0.78125 -0.953125 -2.03125 -0.953125q-1.125 0 -1.90625 0.765625q-0.765625 0.75 -0.84375 2.015625zm9.125717 5.765625l0 -9.671875l1.46875 0l0 1.46875q0.5625 -1.03125 1.03125 -1.359375q0.484375 -0.328125 1.0625 -0.328125q0.828125 0 1.6875 0.53125l-0.5625 1.515625q-0.609375 -0.359375 -1.203125 -0.359375q-0.546875 0 -0.96875 0.328125q-0.421875 0.328125 -0.609375 0.890625q-0.28125 0.875 -0.28125 1.921875l0 5.0625l-1.625 0z" fill-rule="nonzero"/><path fill="#ffffff" d="m82.93964 160.48877l10.409447 -14.596024l10.409447 14.596024z" fill-rule="evenodd"/><path stroke="#000000" stroke-width="1.0" stroke-linejoin="round" stroke-linecap="butt" d="m82.93964 160.48877l10.409447 -14.596024l10.409447 14.596024z" fill-rule="evenodd"/><path fill="#000000" fill-opacity="0.0" d="m253.73228 125.333336l16.68489 0l0 0.06298828l16.700928 0" fill-rule="evenodd"/><path stroke="#000000" stroke-width="1.0" stroke-linejoin="round" stroke-linecap="butt" d="m253.73228 125.333336l16.68489 0l0 0.06298828l10.700928 0" fill-rule="evenodd"/><path fill="#000000" stroke="#000000" stroke-width="1.0" stroke-linecap="butt" d="m281.1181 127.04806l4.5381165 -1.6517334l-4.5381165 -1.6517334z" fill-rule="evenodd"/><path fill="#000000" fill-opacity="0.0" d="m140.3622 125.4302l59.561966 0l0 -63.307087l16.438034 0" fill-rule="evenodd"/><path stroke="#000000" stroke-width="1.0" stroke-linejoin="round" stroke-linecap="butt" d="m140.3622 125.4302l59.56198 0l0 -63.307087l10.438019 0" fill-rule="evenodd"/><path fill="#000000" stroke="#000000" stroke-width="1.0" stroke-linecap="butt" d="m210.3622 63.774845l4.538101 -1.6517334l-4.538101 -1.6517296z" fill-rule="evenodd"/><path fill="#000000" fill-opacity="0.0" d="m140.3622 125.4302l59.561203 0l0 -105.32284l214.927 0" fill-rule="evenodd"/><path stroke="#000000" stroke-width="1.0" stroke-linejoin="round" stroke-linecap="butt" d="m140.3622 125.4302l59.561188 0l0 -105.32284l208.92702 0" fill-rule="evenodd"/><path fill="#000000" stroke="#000000" stroke-width="1.0" stroke-linecap="butt" d="m408.8504 21.759096l4.538086 -1.6517334l-4.538086 -1.6517315z" fill-rule="evenodd"/><path fill="#000000" fill-opacity="0.0" d="m60.498688 180.71448l265.98425 0l0 -20.283463" fill-rule="evenodd"/><path stroke="#000000" stroke-width="1.0" stroke-linejoin="round" stroke-linecap="butt" d="m60.498688 180.71448l265.98425 0l0 -14.283463" fill-rule="evenodd"/><path fill="#000000" stroke="#000000" stroke-width="1.0" stroke-linecap="butt" d="m328.13467 166.43102l-1.6517334 -4.538086l-1.6517334 4.538086z" fill-rule="evenodd"/><path fill="#000000" fill-opacity="0.0" d="m39.711285 180.61475l53.6378 0l0 -20.125977" fill-rule="evenodd"/><path stroke="#000000" stroke-width="1.0" stroke-linejoin="round" stroke-linecap="butt" d="m39.711285 180.61475l53.6378 0l0 -14.125977" fill-rule="evenodd"/><path fill="#000000" stroke="#000000" stroke-width="1.0" stroke-linecap="butt" d="m95.00082 166.48877l-1.6517334 -4.538101l-1.6517334 4.538101z" fill-rule="evenodd"/><path fill="#000000" fill-opacity="0.0" d="m414.86484 -0.9011171l86.39371 0l0 42.015747l-86.39371 0z" fill-rule="evenodd"/><path fill="#000000" d="m424.48984 21.17513q0 -2.6875 1.484375 -3.96875q1.25 -1.078125 3.046875 -1.078125q2.0 0 3.265625 1.3125q1.265625 1.296875 1.265625 3.609375q0 1.859375 -0.5625 2.9375q-0.5625 1.0625 -1.640625 1.65625q-1.0625 0.59375 -2.328125 0.59375q-2.03125 0 -3.28125 -1.296875q-1.25 -1.3125 -1.25 -3.765625zm1.6875 0q0 1.859375 0.796875 2.796875q0.8125 0.921875 2.046875 0.921875q1.21875 0 2.03125 -0.921875q0.8125 -0.9375 0.8125 -2.84375q0 -1.796875 -0.8125 -2.71875q-0.8125 -0.921875 -2.03125 -0.921875q-1.234375 0 -2.046875 0.921875q-0.796875 0.90625 -0.796875 2.765625zm7.7819824 8.546875l0 -1.1875l10.859375 0l0 1.1875l-10.859375 0zm10.797577 -3.703125l3.53125 -5.03125l-3.265625 -4.640625l2.046875 0l1.484375 2.265625q0.421875 0.640625 0.671875 1.078125q0.40625 -0.59375 0.734375 -1.0625l1.640625 -2.28125l1.953125 0l-3.34375 4.546875l3.59375 5.125l-2.015625 0l-1.984375 -3.0l-0.515625 -0.8125l-2.546875 3.8125l-1.984375 0z" fill-rule="nonzero"/><path fill="#000000" fill-opacity="0.0" d="m414.86484 41.11463l86.39371 0l0 42.015747l-86.39371 0z" fill-rule="evenodd"/><path fill="#000000" d="m424.48984 63.19088q0 -2.6875 1.484375 -3.96875q1.25 -1.078125 3.046875 -1.078125q2.0 0 3.265625 1.3125q1.265625 1.296875 1.265625 3.609375q0 1.859375 -0.5625 2.9375q-0.5625 1.0625 -1.640625 1.65625q-1.0625 0.59375 -2.328125 0.59375q-2.03125 0 -3.28125 -1.296875q-1.25 -1.3125 -1.25 -3.765625zm1.6875 0q0 1.859375 0.796875 2.796875q0.8125 0.921875 2.046875 0.921875q1.21875 0 2.03125 -0.921875q0.8125 -0.9375 0.8125 -2.84375q0 -1.796875 -0.8125 -2.71875q-0.8125 -0.921875 -2.03125 -0.921875q-1.234375 0 -2.046875 0.921875q-0.796875 0.90625 -0.796875 2.765625zm7.7819824 8.546875l0 -1.1875l10.859375 0l0 1.1875l-10.859375 0zm11.891327 -3.703125l0 -13.359375l1.640625 0l0 4.796875q1.140625 -1.328125 2.890625 -1.328125q1.078125 0 1.859375 0.421875q0.796875 0.421875 1.140625 1.171875q0.34375 0.75 0.34375 2.171875l0 6.125l-1.640625 0l0 -6.125q0 -1.234375 -0.53125 -1.796875q-0.53125 -0.5625 -1.515625 -0.5625q-0.71875 0 -1.359375 0.390625q-0.640625 0.375 -0.921875 1.015625q-0.265625 0.640625 -0.265625 1.78125l0 5.296875l-1.640625 0zm16.641357 0l0 -1.21875q-0.90625 1.4375 -2.703125 1.4375q-1.15625 0 -2.125 -0.640625q-0.96875 -0.640625 -1.5 -1.78125q-0.53125 -1.140625 -0.53125 -2.625q0 -1.453125 0.484375 -2.625q0.484375 -1.1875 1.4375 -1.8125q0.96875 -0.625 2.171875 -0.625q0.875 0 1.546875 0.375q0.6875 0.359375 1.109375 0.953125l0 -4.796875l1.640625 0l0 13.359375l-1.53125 0zm-5.171875 -4.828125q0 1.859375 0.78125 2.78125q0.78125 0.921875 1.84375 0.921875q1.078125 0 1.828125 -0.875q0.75 -0.890625 0.75 -2.6875q0 -1.984375 -0.765625 -2.90625q-0.765625 -0.9375 -1.890625 -0.9375q-1.078125 0 -1.8125 0.890625q-0.734375 0.890625 -0.734375 2.8125zm15.906952 1.71875l1.6875 0.203125q-0.40625 1.484375 -1.484375 2.3125q-1.078125 0.8125 -2.765625 0.8125q-2.125 0 -3.375 -1.296875q-1.234375 -1.3125 -1.234375 -3.671875q0 -2.453125 1.25 -3.796875q1.265625 -1.34375 3.265625 -1.34375q1.9375 0 3.15625 1.328125q1.234375 1.3125 1.234375 3.703125q0 0.15625 0 0.4375l-7.21875 0q0.09375 1.59375 0.90625 2.453125q0.8125 0.84375 2.015625 0.84375q0.90625 0 1.546875 -0.46875q0.640625 -0.484375 1.015625 -1.515625zm-5.390625 -2.65625l5.40625 0q-0.109375 -1.21875 -0.625 -1.828125q-0.78125 -0.953125 -2.03125 -0.953125q-1.125 0 -1.90625 0.765625q-0.765625 0.75 -0.84375 2.015625z" fill-rule="nonzero"/><path fill="#000000" fill-opacity="0.0" d="m414.86597 104.32546l95.24411 0l0 42.01574l-95.24411 0z" fill-rule="evenodd"/><path fill="#000000" d="m424.49097 126.40171q0 -2.6875 1.484375 -3.96875q1.25 -1.078125 3.046875 -1.078125q2.0 0 3.265625 1.3125q1.265625 1.296875 1.265625 3.609375q0 1.8593674 -0.5625 2.9374924q-0.5625 1.0625 -1.640625 1.65625q-1.0625 0.59375 -2.328125 0.59375q-2.03125 0 -3.28125 -1.296875q-1.25 -1.3125 -1.25 -3.7656174zm1.6875 0q0 1.8593674 0.796875 2.7968674q0.8125 0.921875 2.046875 0.921875q1.21875 0 2.03125 -0.921875q0.8125 -0.9375 0.8125 -2.8437424q0 -1.796875 -0.8125 -2.71875q-0.8125 -0.921875 -2.03125 -0.921875q-1.234375 0 -2.046875 0.921875q-0.796875 0.90625 -0.796875 2.765625zm7.7819824 8.546867l0 -1.1875l10.859375 0l0 1.1875l-10.859375 0zm11.891327 -3.703125l0 -13.359367l1.640625 0l0 4.796875q1.140625 -1.328125 2.890625 -1.328125q1.078125 0 1.859375 0.421875q0.796875 0.421875 1.140625 1.171875q0.34375 0.75 0.34375 2.171875l0 6.1249924l-1.640625 0l0 -6.1249924q0 -1.234375 -0.53125 -1.796875q-0.53125 -0.5625 -1.515625 -0.5625q-0.71875 0 -1.359375 0.390625q-0.640625 0.375 -0.921875 1.015625q-0.265625 0.640625 -0.265625 1.78125l0 5.2968674l-1.640625 0zm9.719482 -2.890625l1.625 -0.25q0.125 0.96875 0.75 1.5q0.625 0.515625 1.75 0.515625q1.125 0 1.671875 -0.453125q0.546875 -0.46875 0.546875 -1.09375q0 -0.546875 -0.484375 -0.8749924q-0.328125 -0.21875 -1.671875 -0.546875q-1.8125 -0.46875 -2.515625 -0.796875q-0.6875 -0.328125 -1.046875 -0.90625q-0.359375 -0.59375 -0.359375 -1.3125q0 -0.640625 0.296875 -1.1875q0.296875 -0.5625 0.8125 -0.921875q0.375 -0.28125 1.03125 -0.46875q0.671875 -0.203125 1.421875 -0.203125q1.140625 0 2.0 0.328125q0.859375 0.328125 1.265625 0.890625q0.421875 0.5625 0.578125 1.5l-1.609375 0.21875q-0.109375 -0.75 -0.640625 -1.171875q-0.515625 -0.421875 -1.46875 -0.421875q-1.140625 0 -1.625 0.375q-0.46875 0.375 -0.46875 0.875q0 0.3125 0.1875 0.578125q0.203125 0.265625 0.640625 0.4375q0.234375 0.09375 1.4375 0.421875q1.75 0.453125 2.4375 0.75q0.6875 0.296875 1.078125 0.859375q0.390625 0.5625 0.390625 1.4062424q0 0.828125 -0.484375 1.546875q-0.46875 0.71875 -1.375 1.125q-0.90625 0.390625 -2.046875 0.390625q-1.875 0 -2.875 -0.78125q-0.984375 -0.78125 -1.25 -2.328125zm9.90625 6.609375l-0.1875 -1.53125q0.546875 0.140625 0.9375 0.140625q0.546875 0 0.875 -0.1875q0.328125 -0.171875 0.546875 -0.5q0.15625 -0.25 0.5 -1.21875q0.046875 -0.140625 0.140625 -0.40625l-3.671875 -9.687492l1.765625 0l2.015625 5.59375q0.390625 1.0781174 0.703125 2.2499924q0.28125 -1.125 0.671875 -2.2031174l2.078125 -5.640625l1.640625 0l-3.6875 9.828117q-0.59375 1.609375 -0.921875 2.203125q-0.4375 0.8125 -1.0 1.1875q-0.5625 0.375 -1.34375 0.375q-0.484375 0 -1.0625 -0.203125zm9.40625 -3.71875l0 -9.671867l1.46875 0l0 1.375q1.0625 -1.59375 3.078125 -1.59375q0.875 0 1.609375 0.3125q0.734375 0.3125 1.09375 0.828125q0.375 0.5 0.515625 1.203125q0.09375 0.453125 0.09375 1.59375l0 5.9531174l-1.640625 0l0 -5.8906174q0 -1.0 -0.203125 -1.484375q-0.1875 -0.5 -0.671875 -0.796875q-0.484375 -0.296875 -1.140625 -0.296875q-1.046875 0 -1.8125 0.671875q-0.75 0.65625 -0.75 2.515625l0 5.2812424l-1.640625 0zm16.688202 -3.5468674l1.609375 0.21875q-0.265625 1.6562424 -1.359375 2.6093674q-1.078125 0.9375 -2.671875 0.9375q-1.984375 0 -3.1875 -1.296875q-1.203125 -1.296875 -1.203125 -3.7187424q0 -1.578125 0.515625 -2.75q0.515625 -1.171875 1.578125 -1.75q1.0625 -0.59375 2.3125 -0.59375q1.578125 0 2.578125 0.796875q1.0 0.796875 1.28125 2.265625l-1.59375 0.234375q-0.234375 -0.96875 -0.8125 -1.453125q-0.578125 -0.5 -1.390625 -0.5q-1.234375 0 -2.015625 0.890625q-0.78125 0.890625 -0.78125 2.8125q0 1.9531174 0.75 2.8437424q0.75 0.875 1.953125 0.875q0.96875 0 1.609375 -0.59375q0.65625 -0.59375 0.828125 -1.8281174z" fill-rule="nonzero"/><path fill="#000000" fill-opacity="0.0" d="m140.3622 125.4302l76.0 -0.09449005" fill-rule="evenodd"/><path stroke="#000000" stroke-width="1.0" stroke-linejoin="round" stroke-linecap="butt" d="m140.3622 125.4302l70.0 -0.087020874" fill-rule="evenodd"/><path fill="#000000" stroke="#000000" stroke-width="1.0" stroke-linecap="butt" d="m210.36426 126.9949l4.5360413 -1.6573715l-4.540146 -1.6460953z" fill-rule="evenodd"/><path fill="#ffffff" d="m216.3517 42.013123l37.385834 0l0 40.220474l-37.385834 0z" fill-rule="evenodd"/><path stroke="#000000" stroke-width="2.0" stroke-linejoin="round" stroke-linecap="butt" d="m216.3517 42.013123l37.385834 0l0 40.220474l-37.385834 0z" fill-rule="evenodd"/><path fill="#ffffff" d="m227.25722 52.422573l9.70079 0l0 0c5.3575897 0 9.70079 4.3431892 9.70079 9.700787c0 5.3575974 -4.3432007 9.70079 -9.70079 9.70079l-9.70079 0z" fill-rule="evenodd"/><path stroke="#000000" stroke-width="1.0" stroke-linejoin="round" stroke-linecap="butt" d="m227.25722 52.422573l9.70079 0l0 0c5.3575897 0 9.70079 4.3431892 9.70079 9.700787c0 5.3575974 -4.3432007 9.70079 -9.70079 9.70079l-9.70079 0z" fill-rule="evenodd"/><path fill="#ffffff" d="m216.34645 105.2231l37.385834 0l0 40.220474l-37.385834 0z" fill-rule="evenodd"/><path stroke="#000000" stroke-width="2.0" stroke-linejoin="round" stroke-linecap="butt" d="m216.34645 105.2231l37.385834 0l0 40.220474l-37.385834 0z" fill-rule="evenodd"/><path fill="#ffffff" d="m227.25722 116.42257l9.70079 0l0 0c5.3575897 0 9.70079 4.343193 9.70079 9.70079c0 5.3575974 -4.3432007 9.700783 -9.70079 9.700783l-9.70079 0z" fill-rule="evenodd"/><path stroke="#000000" stroke-width="1.0" stroke-linejoin="round" stroke-linecap="butt" d="m227.25722 116.42257l9.70079 0l0 0c5.3575897 0 9.70079 4.343193 9.70079 9.70079c0 5.3575974 -4.3432007 9.700783 -9.70079 9.700783l-9.70079 0z" fill-rule="evenodd"/><path fill="#ffffff" d="m70.34646 43.682415l0 0c0 -11.106579 12.007225 -20.110237 26.818893 -20.110237l0 0c14.811668 0 26.818901 9.003658 26.818901 20.110237l0 0c0 11.106575 -12.007233 20.110237 -26.818901 20.110237l0 0c-14.811668 0 -26.818893 -9.003662 -26.818893 -20.110237z" fill-rule="evenodd"/><path stroke="#000000" stroke-width="2.0" stroke-linejoin="round" stroke-linecap="butt" d="m70.34646 43.682415l0 0c0 -11.106579 12.007225 -20.110237 26.818893 -20.110237l0 0c14.811668 0 26.818901 9.003658 26.818901 20.110237l0 0c0 11.106575 -12.007233 20.110237 -26.818901 20.110237l0 0c-14.811668 0 -26.818893 -9.003662 -26.818893 -20.110237z" fill-rule="evenodd"/><path fill="#000000" d="m92.48216 47.059288l0 -2.875l-2.859375 0l0 -1.203125l2.859375 0l0 -2.84375l1.21875 0l0 2.84375l2.859375 0l0 1.203125l-2.859375 0l0 2.875l-1.21875 0zm10.340271 1.703125l-1.28125 0l0 -8.203125q-0.46875 0.4375 -1.21875 0.890625q-0.75 0.4375 -1.359375 0.65625l0 -1.25q1.078125 -0.5 1.890625 -1.21875q0.8125 -0.734375 1.140625 -1.40625l0.828125 0l0 10.53125z" fill-rule="nonzero"/><path fill="#000000" fill-opacity="0.0" d="m140.3622 125.4302l24.99997 0l0 -81.732285l-41.377914 0" fill-rule="evenodd"/><path stroke="#000000" stroke-width="1.0" stroke-linejoin="round" stroke-linecap="butt" d="m140.3622 125.4302l24.99997 0l0 -81.732285l-35.377914 0" fill-rule="evenodd"/><path fill="#000000" stroke="#000000" stroke-width="1.0" stroke-linecap="butt" d="m129.98425 42.046185l-4.538101 1.6517334l4.538101 1.6517296z" fill-rule="evenodd"/><path fill="#000000" fill-opacity="0.0" d="m70.34646 43.682415l-41.377914 0l0 81.732285l24.99996 0" fill-rule="evenodd"/><path stroke="#000000" stroke-width="1.0" stroke-linejoin="round" stroke-linecap="butt" d="m70.34646 43.682415l-41.377914 0l0 81.732285l18.99996 0" fill-rule="evenodd"/><path fill="#000000" stroke="#000000" stroke-width="1.0" stroke-linecap="butt" d="m47.968506 127.06643l4.5380974 -1.6517334l-4.5380974 -1.6517334z" fill-rule="evenodd"/><path fill="#000000" fill-opacity="0.0" d="m210.08398 -7.1601048l60.409454 0l0 35.559055l-60.409454 0z" fill-rule="evenodd"/><path fill="#000000" d="m219.99023 17.296144l0 -12.203125l2.578125 0l0 0.96875l-1.40625 0l0 10.25l1.40625 0l0 0.984375l-2.578125 0zm5.1561127 -7.828125q-0.734375 -0.265625 -1.09375 -0.765625q-0.34375 -0.5 -0.34375 -1.1875q0 -1.03125 0.75 -1.734375q0.75 -0.71875 1.984375 -0.71875q1.25 0 2.015625 0.734375q0.765625 0.71875 0.765625 1.75q0 0.671875 -0.359375 1.171875q-0.34375 0.484375 -1.046875 0.75q0.875 0.28125 1.328125 0.921875q0.46875 0.640625 0.46875 1.515625q0 1.234375 -0.875 2.0625q-0.859375 0.828125 -2.265625 0.828125q-1.421875 0 -2.28125 -0.828125q-0.859375 -0.84375 -0.859375 -2.09375q0 -0.921875 0.46875 -1.546875q0.46875 -0.640625 1.34375 -0.859375zm-0.234375 -1.984375q0 0.671875 0.4375 1.109375q0.4375 0.421875 1.125 0.421875q0.671875 0 1.109375 -0.421875q0.4375 -0.421875 0.4375 -1.046875q0 -0.640625 -0.453125 -1.078125q-0.4375 -0.4375 -1.109375 -0.4375q-0.671875 0 -1.109375 0.4375q-0.4375 0.421875 -0.4375 1.015625zm-0.375 4.40625q0 0.5 0.234375 0.96875q0.234375 0.46875 0.703125 0.734375q0.46875 0.25 1.015625 0.25q0.828125 0 1.375 -0.53125q0.546875 -0.546875 0.546875 -1.390625q0 -0.84375 -0.5625 -1.390625q-0.5625 -0.5625 -1.40625 -0.5625q-0.828125 0 -1.375 0.546875q-0.53125 0.546875 -0.53125 1.375zm6.8656006 -2.828125l0 -1.328125l1.328125 0l0 1.328125l-1.328125 0zm0 5.578125l0 -1.328125l1.328125 0l0 1.328125l-1.328125 0zm3.0467377 -4.703125q0 -1.6875 0.34375 -2.71875q0.359375 -1.03125 1.046875 -1.59375q0.6875 -0.5625 1.71875 -0.5625q0.78125 0 1.359375 0.3125q0.578125 0.296875 0.953125 0.890625q0.375 0.578125 0.59375 1.421875q0.21875 0.828125 0.21875 2.25q0 1.671875 -0.359375 2.703125q-0.34375 1.03125 -1.03125 1.59375q-0.671875 0.5625 -1.734375 0.5625q-1.375 0 -2.15625 -0.984375q-0.953125 -1.1875 -0.953125 -3.875zm1.203125 0q0 2.34375 0.546875 3.125q0.5625 0.78125 1.359375 0.78125q0.8125 0 1.359375 -0.78125q0.5625 -0.78125 0.5625 -3.125q0 -2.359375 -0.5625 -3.125q-0.546875 -0.78125 -1.359375 -0.78125q-0.8125 0 -1.296875 0.6875q-0.609375 0.875 -0.609375 3.21875zm8.506226 7.359375l-2.59375 0l0 -0.984375l1.421875 0l0 -10.25l-1.421875 0l0 -0.96875l2.59375 0l0 12.203125z" fill-rule="nonzero"/></g></svg>