<svg version="1.1" viewBox="0.0 0.0 534.7874015748032 196.13123359580052" fill="none" stroke="none" stroke-linecap="square" stroke-miterlimit="10" xmlns:xlink="http://www.w3.org/1999/xlink" xmlns="http://www.w3.org/2000/svg"><clipPath id="p.0"><path d="m0 0l534.7874 0l0 196.13124l-534.7874 0l0 -196.13124z" clip-rule="nonzero"/></clipPath><g clip-path="url(#p.0)"><path fill="#000000" fill-opacity="0.0" d="m0 0l534.7874 0l0 196.13124l-534.7874 0z" fill-rule="evenodd"/><defs><linearGradient id="p.1" gradientUnits="userSpaceOnUse" gradientTransform="matrix(14.058580307778335 0.0 0.0 14.058580307778335 0.0 0.0)" spreadMethod="pad" x1="38.065693304972264" y1="14.058580308624755" x2="38.0658479120793" y2="1.6965529690979716E-9"><stop offset="0.0" stop-color="#f2f2f2"/><stop offset="1.0" stop-color="#cccccc"/></linearGradient></defs><path fill="url(#p.1)" d="m0 0l535.1496 0l0 197.6378l-535.1496 0z" fill-rule="evenodd"/><path fill="#000000" fill-opacity="0.0" d="m44.492134 115.94403l86.3937 0l0 37.165344l-86.3937 0z" fill-rule="evenodd"/><path fill="#000000" d="m73.34166 139.02403l0 -1.078125l-5.234375 0l2.796875 -3.03125q0.390625 -0.4375 0.75 -0.859375q0.359375 -0.4375 0.625 -0.890625q0.265625 -0.4375 0.421875 -0.890625q0.15625 -0.453125 0.15625 -0.921875q0 -0.625 -0.21875 -1.15625q-0.21875 -0.53125 -0.625 -0.90625q-0.40625 -0.390625 -1.0 -0.609375q-0.59375 -0.21875 -1.328125 -0.21875q-0.796875 0 -1.421875 0.265625q-0.625 0.25 -1.0625 0.6875q-0.4375 0.4375 -0.671875 1.015625q-0.21875 0.578125 -0.21875 1.25l1.328125 0q0 -0.5 0.125 -0.890625q0.125 -0.390625 0.390625 -0.671875q0.25 -0.265625 0.625 -0.40625q0.390625 -0.15625 0.90625 -0.15625q0.4375 0 0.765625 0.140625q0.34375 0.140625 0.59375 0.390625q0.234375 0.25 0.359375 0.59375q0.125 0.34375 0.125 0.734375q0 0.3125 -0.078125 0.609375q-0.078125 0.296875 -0.265625 0.625q-0.1875 0.328125 -0.5 0.734375q-0.296875 0.390625 -0.765625 0.890625l-3.40625 3.796875l0 0.953125l6.828125 0zm7.7639313 -3.5l0 -6.921875l-1.40625 0l-4.671875 7.21875l0 0.78125l4.75 0l0 2.421875l1.328125 0l0 -2.421875l1.453125 0l0 -1.078125l-1.453125 0zm-4.609375 0l3.078125 -4.765625l0.203125 -0.390625l0 5.15625l-3.28125 0zm9.498306 -6.921875l-1.640625 0l0 10.421875l1.28125 0l0 -4.15625l-0.109375 -4.203125l1.765625 5.46875l0.765625 0l1.921875 -5.625l-0.109375 4.359375l0 4.15625l1.296875 0l0 -10.421875l-1.65625 0l-1.828125 5.21875l-1.6875 -5.21875zm13.873306 10.421875l0 -10.421875l-1.25 0l0 4.484375l-4.28125 0l0 -4.484375l-1.234375 0l0 10.421875l1.234375 0l0 -4.8125l4.28125 0l0 4.8125l1.25 0zm3.8420563 -1.078125l4.671875 -5.734375l0 -0.9375l-6.296875 0l0 1.109375l4.5625 0l-4.625 5.671875l0 0.96875l6.6249924 0l0 -1.078125l-4.9374924 0z" fill-rule="nonzero"/><path fill="#ffffff" d="m126.68635 121.3832l41.700798 0l0 40.220467l-41.700798 0z" fill-rule="evenodd"/><path stroke="#000000" stroke-width="2.0" stroke-linejoin="round" stroke-linecap="butt" d="m126.68635 121.3832l41.700798 0l0 40.220467l-41.700798 0z" fill-rule="evenodd"/><path fill="#000000" d="m146.71031 142.27657l0 -1.3125l-7.140625 0l0 1.3125l7.140625 0zm-4.34375 -3.546875q0 0.3125 0.1875 0.53125q0.203125 0.21875 0.59375 0.21875q0.390625 0 0.59375 -0.21875q0.203125 -0.21875 0.203125 -0.53125q0 -0.328125 -0.203125 -0.546875q-0.203125 -0.21875 -0.59375 -0.21875q-0.390625 0 -0.59375 0.21875q-0.1875 0.21875 -0.1875 0.546875zm-0.015625 5.828125q0 0.3125 0.1875 0.53125q0.203125 0.21875 0.59375 0.21875q0.390625 0 0.59375 -0.21875q0.203125 -0.21875 0.203125 -0.53125q0 -0.328125 -0.203125 -0.546875q-0.203125 -0.21875 -0.59375 -0.21875q-0.390625 0 -0.59375 0.21875q-0.1875 0.21875 -0.1875 0.546875zm12.842056 -5.6875q0 -0.671875 -0.234375 -1.203125q-0.234375 -0.546875 -0.65625 -0.90625q-0.40625 -0.359375 -0.984375 -0.546875q-0.5625 -0.203125 -1.21875 -0.203125q-0.65625 0 -1.21875 0.203125q-0.5625 0.1875 -0.96875 0.546875q-0.40625 0.359375 -0.640625 0.90625q-0.21875 0.53125 -0.21875 1.203125q0 0.390625 0.09375 0.75q0.109375 0.34375 0.3125 0.640625q0.1875 0.296875 0.46875 0.546875q0.28125 0.234375 0.625 0.390625q-0.40625 0.171875 -0.734375 0.4375q-0.3125 0.25 -0.546875 0.578125q-0.21875 0.328125 -0.34375 0.71875q-0.125 0.390625 -0.125 0.828125q0 0.71875 0.25 1.265625q0.265625 0.546875 0.71875 0.921875q0.4375 0.375 1.046875 0.578125q0.609375 0.1875 1.3125 0.1875q0.6875 0 1.28125 -0.1875q0.59375 -0.203125 1.046875 -0.578125q0.453125 -0.375 0.703125 -0.921875q0.265625 -0.5625 0.265625 -1.265625q0 -0.4375 -0.125 -0.8125q-0.125 -0.390625 -0.359375 -0.71875q-0.234375 -0.34375 -0.5625 -0.59375q-0.3125 -0.25 -0.71875 -0.421875q0.234375 -0.109375 0.421875 -0.25q0.203125 -0.15625 0.375 -0.3125q0.34375 -0.34375 0.53125 -0.796875q0.203125 -0.453125 0.203125 -0.984375zm-1.09375 4.859375q0 0.453125 -0.140625 0.8125q-0.140625 0.34375 -0.40625 0.59375q-0.265625 0.25 -0.625 0.375q-0.359375 0.125 -0.796875 0.125q-0.46875 0 -0.84375 -0.125q-0.359375 -0.125 -0.609375 -0.375q-0.265625 -0.25 -0.40625 -0.59375q-0.140625 -0.359375 -0.140625 -0.8125q0 -0.4375 0.140625 -0.796875q0.140625 -0.359375 0.40625 -0.625q0.25 -0.265625 0.609375 -0.40625q0.375 -0.140625 0.828125 -0.140625q0.4375 0 0.796875 0.140625q0.375 0.140625 0.640625 0.40625q0.265625 0.265625 0.40625 0.625q0.140625 0.359375 0.140625 0.796875zm-0.234375 -4.828125q0 0.390625 -0.140625 0.71875q-0.125 0.328125 -0.34375 0.5625q-0.234375 0.234375 -0.5625 0.359375q-0.328125 0.125 -0.703125 0.125q-0.390625 0 -0.703125 -0.125q-0.3125 -0.125 -0.546875 -0.359375q-0.234375 -0.234375 -0.359375 -0.546875q-0.125 -0.328125 -0.125 -0.734375q0 -0.421875 0.125 -0.75q0.125 -0.328125 0.359375 -0.5625q0.21875 -0.234375 0.53125 -0.359375q0.3125 -0.125 0.703125 -0.125q0.390625 0 0.703125 0.140625q0.328125 0.125 0.5625 0.359375q0.234375 0.234375 0.359375 0.5625q0.140625 0.328125 0.140625 0.734375z" fill-rule="nonzero"/><path fill="#ffffff" d="m233.50919 87.55118l86.39371 0l0 74.04724l-86.39371 0z" fill-rule="evenodd"/><path stroke="#000000" stroke-width="2.0" stroke-linejoin="round" stroke-linecap="butt" d="m233.50919 87.55118l86.39371 0l0 74.04724l-86.39371 0z" fill-rule="evenodd"/><path fill="#ffffff" d="m10.792711 118.80052l41.70079 0l0 45.385834l-41.70079 0z" fill-rule="evenodd"/><path stroke="#000000" stroke-width="2.0" stroke-linejoin="round" stroke-linecap="butt" d="m10.792711 118.80052l41.70079 0l0 45.385834l-41.70079 0z" fill-rule="evenodd"/><path fill="#cccccc" d="m27.500715 129.93852l8.283049 0l0 23.110718l-8.283049 0z" fill-rule="evenodd"/><path stroke="#000000" stroke-width="1.0" stroke-linejoin="round" stroke-linecap="butt" d="m27.500715 129.93852l8.283049 0l0 23.110718l-8.283049 0z" fill-rule="evenodd"/><path fill="#000000" fill-opacity="0.0" d="m40.45744 124.16662l0 34.65452" fill-rule="evenodd"/><path stroke="#000000" stroke-width="2.0" stroke-linejoin="round" stroke-linecap="butt" d="m40.45744 124.16662l0 34.65452" fill-rule="evenodd"/><path fill="#000000" fill-opacity="0.0" d="m22.82704 124.16662l0 34.65452" fill-rule="evenodd"/><path stroke="#000000" stroke-width="2.0" stroke-linejoin="round" stroke-linecap="butt" d="m22.82704 124.16662l0 34.65452" fill-rule="evenodd"/><path fill="#000000" fill-opacity="0.0" d="m233.50919 99.30708l12.976379 0l0 12.976379l-12.976379 0z" fill-rule="evenodd"/><path stroke="#000000" stroke-width="1.0" stroke-linejoin="round" stroke-linecap="butt" d="m233.50919 99.30708l12.976379 0l0 12.976379l-12.976379 0z" fill-rule="evenodd"/><path fill="#000000" fill-opacity="0.0" d="m233.50919 135.00525l12.976379 0l0 12.976379l-12.976379 0z" fill-rule="evenodd"/><path stroke="#000000" stroke-width="1.0" stroke-linejoin="round" stroke-linecap="butt" d="m233.50919 135.00525l12.976379 0l0 12.976379l-12.976379 0z" fill-rule="evenodd"/><path fill="#ffffff" d="m258.33466 17.383202l41.700775 0l0 40.220474l-41.700775 0z" fill-rule="evenodd"/><path stroke="#000000" stroke-width="2.0" stroke-linejoin="round" stroke-linecap="butt" d="m258.33466 17.383202l41.700775 0l0 40.220474l-41.700775 0z" fill-rule="evenodd"/><path fill="#000000" d="m278.3586 38.27656l0 -1.3125l-7.140625 0l0 1.3125l7.140625 0zm-4.34375 -3.546875q0 0.3125 0.1875 0.53125q0.203125 0.21875 0.59375 0.21875q0.390625 0 0.59375 -0.21875q0.203125 -0.21875 0.203125 -0.53125q0 -0.328125 -0.203125 -0.546875q-0.203125 -0.21875 -0.59375 -0.21875q-0.390625 0 -0.59375 0.21875q-0.1875 0.21875 -0.1875 0.546875zm-0.015625 5.828125q0 0.3125 0.1875 0.53125q0.203125 0.21875 0.59375 0.21875q0.390625 0 0.59375 -0.21875q0.203125 -0.21875 0.203125 -0.53125q0 -0.328125 -0.203125 -0.546875q-0.203125 -0.21875 -0.59375 -0.21875q-0.390625 0 -0.59375 0.21875q-0.1875 0.21875 -0.1875 0.546875zm7.982666 -3.828125l0 1.078125l0.9375 0q0.5 0 0.90625 0.109375q0.40625 0.109375 0.703125 0.34375q0.28125 0.234375 0.4375 0.59375q0.171875 0.359375 0.171875 0.84375q0 0.484375 -0.140625 0.859375q-0.140625 0.359375 -0.390625 0.59375q-0.265625 0.25 -0.625 0.375q-0.359375 0.109375 -0.8125 0.109375q-0.453125 0 -0.828125 -0.125q-0.359375 -0.125 -0.625 -0.375q-0.25 -0.234375 -0.390625 -0.5625q-0.140625 -0.34375 -0.140625 -0.75l-1.328125 0q0 0.6875 0.25 1.234375q0.265625 0.53125 0.71875 0.90625q0.4375 0.359375 1.046875 0.5625q0.609375 0.1875 1.296875 0.1875q0.703125 0 1.296875 -0.203125q0.609375 -0.203125 1.046875 -0.59375q0.453125 -0.390625 0.703125 -0.953125q0.25 -0.5625 0.25 -1.296875q0 -0.359375 -0.09375 -0.71875q-0.078125 -0.375 -0.28125 -0.703125q-0.203125 -0.328125 -0.546875 -0.59375q-0.328125 -0.265625 -0.84375 -0.421875q0.421875 -0.1875 0.71875 -0.453125q0.3125 -0.265625 0.5 -0.578125q0.203125 -0.296875 0.296875 -0.609375q0.09375 -0.328125 0.09375 -0.625q0 -0.734375 -0.234375 -1.28125q-0.234375 -0.546875 -0.640625 -0.921875q-0.421875 -0.375 -1.0 -0.5625q-0.578125 -0.1875 -1.28125 -0.1875q-0.71875 0 -1.3125 0.234375q-0.59375 0.21875 -1.015625 0.609375q-0.421875 0.390625 -0.65625 0.921875q-0.21875 0.515625 -0.21875 1.109375l1.328125 0q0 -0.40625 0.125 -0.734375q0.140625 -0.328125 0.390625 -0.5625q0.25 -0.234375 0.59375 -0.359375q0.34375 -0.125 0.765625 -0.125q0.4375 0 0.78125 0.109375q0.34375 0.109375 0.5625 0.328125q0.234375 0.234375 0.359375 0.578125q0.125 0.34375 0.125 0.8125q0 0.390625 -0.140625 0.71875q-0.125 0.328125 -0.390625 0.5625q-0.265625 0.234375 -0.65625 0.375q-0.375 0.140625 -0.875 0.140625l-0.9375 0z" fill-rule="nonzero"/><path fill="#000000" fill-opacity="0.0" d="m52.4935 141.49344l74.20472 0" fill-rule="evenodd"/><path stroke="#000000" stroke-width="1.0" stroke-linejoin="round" stroke-linecap="butt" d="m52.4935 141.49344l68.20473 0" fill-rule="evenodd"/><path fill="#000000" stroke="#000000" stroke-width="1.0" stroke-linecap="butt" d="m120.69823 143.14517l4.5380936 -1.6517334l-4.5380936 -1.6517334z" fill-rule="evenodd"/><path fill="#000000" fill-opacity="0.0" d="m168.38715 141.49344l65.13385 0" fill-rule="evenodd"/><path stroke="#000000" stroke-width="1.0" stroke-linejoin="round" stroke-linecap="butt" d="m168.38715 141.49344l59.13385 0" fill-rule="evenodd"/><path fill="#000000" stroke="#000000" stroke-width="1.0" stroke-linecap="butt" d="m227.521 143.14517l4.538101 -1.6517334l-4.538101 -1.6517334z" fill-rule="evenodd"/><path fill="#000000" fill-opacity="0.0" d="m319.9029 124.57481l141.00787 0" fill-rule="evenodd"/><path stroke="#000000" stroke-width="1.0" stroke-linejoin="round" stroke-linecap="butt" d="m319.9029 124.57481l135.00787 0" fill-rule="evenodd"/><path fill="#000000" stroke="#000000" stroke-width="1.0" stroke-linecap="butt" d="m454.91077 126.22653l4.538086 -1.6517258l-4.538086 -1.6517334z" fill-rule="evenodd"/><path fill="#000000" fill-opacity="0.0" d="m319.9029 124.57481l47.036835 0l0 -87.08662l-66.91086 0" fill-rule="evenodd"/><path stroke="#000000" stroke-width="1.0" stroke-linejoin="round" stroke-linecap="butt" d="m319.9029 124.57481l47.036835 0l0 -87.08662l-60.91086 0" fill-rule="evenodd"/><path fill="#000000" stroke="#000000" stroke-width="1.0" stroke-linecap="butt" d="m306.02887 35.836456l-4.538086 1.6517334l4.538086 1.6517334z" fill-rule="evenodd"/><path fill="#000000" fill-opacity="0.0" d="m258.33466 37.49344l-79.28473 0l0 68.31496l54.46582 0" fill-rule="evenodd"/><path stroke="#000000" stroke-width="1.0" stroke-linejoin="round" stroke-linecap="butt" d="m258.33466 37.49344l-79.28473 0l0 68.31496l48.46582 0" fill-rule="evenodd"/><path fill="#000000" stroke="#000000" stroke-width="1.0" stroke-linecap="butt" d="m227.51575 107.46013l4.538101 -1.6517334l-4.538101 -1.6517258z" fill-rule="evenodd"/><path fill="#000000" fill-opacity="0.0" d="m237.55641 125.33596l61.228348 0l0 32.314964l-61.228348 0z" fill-rule="evenodd"/><path fill="#000000" d="m252.36891 142.29471l-0.96875 0q-0.046875 0.34375 -0.15625 0.640625q-0.109375 0.296875 -0.3125 0.5q-0.1875 0.21875 -0.46875 0.34375q-0.28125 0.125 -0.65625 0.125q-0.34375 0 -0.609375 -0.109375q-0.25 -0.125 -0.453125 -0.3125q-0.1875 -0.203125 -0.3125 -0.453125q-0.125 -0.25 -0.203125 -0.546875q-0.078125 -0.28125 -0.109375 -0.578125q-0.03125 -0.296875 -0.03125 -0.578125l0 -1.078125q0 -0.28125 0.03125 -0.578125q0.03125 -0.296875 0.109375 -0.578125q0.078125 -0.296875 0.203125 -0.546875q0.125 -0.25 0.328125 -0.453125q0.1875 -0.1875 0.4375 -0.296875q0.265625 -0.109375 0.609375 -0.109375q0.375 0 0.65625 0.125q0.28125 0.125 0.46875 0.34375q0.203125 0.234375 0.3125 0.53125q0.109375 0.296875 0.15625 0.640625l0.96875 0q-0.0625 -0.546875 -0.265625 -0.984375q-0.1875 -0.453125 -0.515625 -0.78125q-0.3125 -0.3125 -0.765625 -0.484375q-0.453125 -0.1875 -1.015625 -0.1875q-0.46875 0 -0.859375 0.140625q-0.375 0.125 -0.671875 0.359375q-0.296875 0.234375 -0.515625 0.5625q-0.21875 0.3125 -0.359375 0.6875q-0.140625 0.375 -0.21875 0.796875q-0.0625 0.40625 -0.0625 0.828125l0 1.0625q0 0.421875 0.0625 0.828125q0.078125 0.40625 0.21875 0.78125q0.140625 0.375 0.359375 0.703125q0.21875 0.3125 0.515625 0.546875q0.296875 0.234375 0.671875 0.375q0.390625 0.125 0.859375 0.125q0.546875 0 0.984375 -0.171875q0.453125 -0.1875 0.78125 -0.5q0.328125 -0.3125 0.53125 -0.75q0.203125 -0.4375 0.265625 -0.96875zm2.5822906 1.46875l0 -6.765625l-0.96875 0l0 7.578125l4.671875 0l0 -0.8125l-3.703125 0zm7.113556 -2.703125l2.296875 3.515625l1.171875 0l-2.828125 -4.265625l2.640625 -3.3125l-1.171875 0l-2.21875 2.78125l-0.734375 0.921875l0 -3.703125l-0.984375 0l0 7.578125l0.984375 0l0 -2.5625l0.84375 -0.953125zm4.5822754 -4.0625l0 0.84375l1.765625 0l0 5.90625l-1.765625 0l0 0.828125l4.578125 0l0 -0.828125l-1.8125 0l0 -5.90625l1.8125 0l0 -0.84375l-4.578125 0zm11.144806 7.578125l0 -7.578125l-0.984375 0l-0.015625 5.65625l-2.9375 -5.65625l-0.96875 0l0 7.578125l0.96875 0l0.015625 -5.65625l2.9375 5.65625l0.984375 0z" fill-rule="nonzero"/><path fill="#000000" fill-opacity="0.0" d="m237.55603 89.637794l53.322845 0l0 32.314964l-53.322845 0z" fill-rule="evenodd"/><path fill="#000000" d="m252.36853 106.59654l-0.96875 0q-0.046875 0.34375 -0.15625 0.640625q-0.109375 0.296875 -0.3125 0.5q-0.1875 0.21875 -0.46875 0.34375q-0.28125 0.125 -0.65625 0.125q-0.34375 0 -0.609375 -0.109375q-0.25 -0.125 -0.453125 -0.3125q-0.1875 -0.203125 -0.3125 -0.453125q-0.125 -0.25 -0.203125 -0.546875q-0.078125 -0.28125 -0.109375 -0.578125q-0.03125 -0.296875 -0.03125 -0.578125l0 -1.078125q0 -0.28125 0.03125 -0.578125q0.03125 -0.296875 0.109375 -0.578125q0.078125 -0.296875 0.203125 -0.546875q0.125 -0.25 0.328125 -0.453125q0.1875 -0.1875 0.4375 -0.296875q0.265625 -0.109375 0.609375 -0.109375q0.375 0 0.65625 0.125q0.28125 0.125 0.46875 0.34375q0.203125 0.234375 0.3125 0.53125q0.109375 0.296875 0.15625 0.640625l0.96875 0q-0.0625 -0.546875 -0.265625 -0.984375q-0.1875 -0.453125 -0.515625 -0.78125q-0.3125 -0.3125 -0.765625 -0.484375q-0.453125 -0.1875 -1.015625 -0.1875q-0.46875 0 -0.859375 0.140625q-0.375 0.125 -0.671875 0.359375q-0.296875 0.234375 -0.515625 0.5625q-0.21875 0.3125 -0.359375 0.6875q-0.140625 0.375 -0.21875 0.796875q-0.0625 0.40625 -0.0625 0.828125l0 1.0625q0 0.421875 0.0625 0.828125q0.078125 0.40625 0.21875 0.78125q0.140625 0.375 0.359375 0.703125q0.21875 0.3125 0.515625 0.546875q0.296875 0.234375 0.671875 0.375q0.390625 0.125 0.859375 0.125q0.546875 0 0.984375 -0.171875q0.453125 -0.1875 0.78125 -0.5q0.328125 -0.3125 0.53125 -0.75q0.203125 -0.4375 0.265625 -0.96875zm2.5822906 1.46875l0 -6.765625l-0.96875 0l0 7.578125l4.6718597 0l0 -0.8125l-3.7031097 0zm7.1135406 -2.703125l2.296875 3.515625l1.171875 0l-2.828125 -4.265625l2.640625 -3.3125l-1.171875 0l-2.21875 2.78125l-0.734375 0.921875l0 -3.703125l-0.984375 0l0 7.578125l0.984375 0l0 -2.5625l0.84375 -0.953125zm8.801025 0.171875l0 -0.8125l-3.15625 0l0 -2.59375l3.671875 0l0 -0.828125l-4.640625 0l0 7.578125l0.96875 0l0 -3.34375l3.15625 0zm2.160431 3.34375l2.421875 0q0.484375 0 0.9375 -0.140625q0.46875 -0.15625 0.8125 -0.4375q0.34375 -0.265625 0.546875 -0.671875q0.21875 -0.40625 0.21875 -0.9375q0 -0.34375 -0.109375 -0.625q-0.09375 -0.296875 -0.28125 -0.53125q-0.171875 -0.203125 -0.4375 -0.375q-0.265625 -0.1875 -0.546875 -0.25l0 -0.015625q0.265625 -0.125 0.453125 -0.25q0.203125 -0.140625 0.375 -0.34375q0.15625 -0.1875 0.234375 -0.4375q0.09375 -0.25 0.109375 -0.546875q0 -0.53125 -0.21875 -0.90625q-0.203125 -0.375 -0.546875 -0.625q-0.34375 -0.25 -0.796875 -0.359375q-0.453125 -0.125 -0.921875 -0.125l-2.25 0l0 7.578125zm0.96875 -3.546875l1.53125 0q0.3125 0.015625 0.578125 0.109375q0.265625 0.09375 0.46875 0.265625q0.1875 0.171875 0.296875 0.421875q0.125 0.25 0.109375 0.578125q0 0.3125 -0.125 0.5625q-0.109375 0.25 -0.328125 0.421875q-0.203125 0.171875 -0.484375 0.265625q-0.265625 0.09375 -0.5625 0.109375l-1.484375 0l0 -2.734375zm0 -0.796875l0 -2.40625l1.3125 0q0.28125 0 0.546875 0.078125q0.28125 0.0625 0.484375 0.203125q0.203125 0.140625 0.328125 0.375q0.125 0.21875 0.125 0.53125q0 0.296875 -0.125 0.53125q-0.125 0.21875 -0.328125 0.359375q-0.203125 0.15625 -0.46875 0.25q-0.265625 0.078125 -0.53125 0.078125l-1.34375 0z" fill-rule="nonzero"/><path fill="#000000" fill-opacity="0.0" d="m455.5 105.99213l77.00787 0l0 37.16536l-77.00787 0z" fill-rule="evenodd"/><path fill="#000000" d="m472.5 125.9315l-1.328125 0q-0.0625 0.484375 -0.21875 0.890625q-0.15625 0.390625 -0.421875 0.6875q-0.265625 0.296875 -0.65625 0.46875q-0.375 0.15625 -0.90625 0.15625q-0.46875 0 -0.828125 -0.140625q-0.359375 -0.15625 -0.625 -0.4375q-0.265625 -0.265625 -0.4375 -0.609375q-0.171875 -0.34375 -0.28125 -0.75q-0.109375 -0.390625 -0.15625 -0.796875q-0.046875 -0.421875 -0.046875 -0.8125l0 -1.46875q0 -0.375 0.046875 -0.78125q0.046875 -0.421875 0.15625 -0.8125q0.109375 -0.390625 0.28125 -0.734375q0.171875 -0.359375 0.4375 -0.625q0.265625 -0.265625 0.625 -0.421875q0.359375 -0.15625 0.828125 -0.15625q0.53125 0 0.90625 0.1875q0.390625 0.171875 0.65625 0.46875q0.265625 0.3125 0.421875 0.71875q0.15625 0.40625 0.21875 0.875l1.328125 0q-0.09375 -0.734375 -0.359375 -1.34375q-0.265625 -0.625 -0.71875 -1.0625q-0.4375 -0.4375 -1.0625 -0.671875q-0.609375 -0.25 -1.390625 -0.25q-0.640625 0 -1.171875 0.1875q-0.515625 0.171875 -0.921875 0.5q-0.421875 0.328125 -0.71875 0.765625q-0.296875 0.4375 -0.484375 0.953125q-0.203125 0.515625 -0.3125 1.078125q-0.09375 0.5625 -0.09375 1.140625l0 1.453125q0 0.578125 0.09375 1.15625q0.109375 0.5625 0.3125 1.078125q0.1875 0.515625 0.484375 0.953125q0.296875 0.4375 0.71875 0.75q0.40625 0.328125 0.921875 0.515625q0.53125 0.171875 1.171875 0.171875q0.75 0 1.359375 -0.234375q0.625 -0.25 1.078125 -0.671875q0.4375 -0.4375 0.71875 -1.03125q0.28125 -0.609375 0.375 -1.34375zm3.529541 2.015625l0 -9.296875l-1.3125 0l0 10.421875l6.421875 0l0 -1.125l-5.109375 0zm9.810822 -3.71875l3.140625 4.84375l1.609375 0l-3.890625 -5.859375l3.65625 -4.5625l-1.625 0l-3.046875 3.828125l-1.015625 1.265625l0 -5.09375l-1.34375 0l0 10.421875l1.34375 0l0 -3.515625l1.171875 -1.328125zm13.060822 0.234375l0 -1.1875q0 -0.5625 -0.09375 -1.125q-0.078125 -0.578125 -0.265625 -1.109375q-0.203125 -0.53125 -0.5 -0.984375q-0.28125 -0.46875 -0.6875 -0.8125q-0.390625 -0.34375 -0.921875 -0.53125q-0.515625 -0.203125 -1.15625 -0.203125q-0.640625 0 -1.171875 0.203125q-0.515625 0.1875 -0.921875 0.53125q-0.390625 0.359375 -0.6875 0.828125q-0.28125 0.453125 -0.46875 0.984375q-0.203125 0.515625 -0.296875 1.09375q-0.078125 0.5625 -0.078125 1.125l0 1.1875q0 0.5625 0.09375 1.125q0.09375 0.5625 0.28125 1.09375q0.1875 0.53125 0.484375 1.0q0.296875 0.453125 0.6875 0.796875q0.40625 0.34375 0.921875 0.546875q0.515625 0.1875 1.171875 0.1875q0.640625 0 1.15625 -0.1875q0.515625 -0.203125 0.921875 -0.546875q0.40625 -0.34375 0.6875 -0.796875q0.296875 -0.46875 0.484375 -1.0q0.1875 -0.515625 0.265625 -1.078125q0.09375 -0.578125 0.09375 -1.140625zm-1.296875 -1.203125l0 1.203125q-0.015625 0.375 -0.0625 0.78125q-0.03125 0.40625 -0.125 0.796875q-0.109375 0.40625 -0.28125 0.765625q-0.171875 0.359375 -0.421875 0.640625q-0.25 0.265625 -0.609375 0.4375q-0.359375 0.171875 -0.8125 0.171875q-0.46875 0 -0.828125 -0.171875q-0.34375 -0.171875 -0.59375 -0.4375q-0.265625 -0.28125 -0.4375 -0.640625q-0.171875 -0.375 -0.28125 -0.765625q-0.109375 -0.390625 -0.15625 -0.796875q-0.046875 -0.421875 -0.046875 -0.78125l0 -1.203125q0 -0.359375 0.046875 -0.765625q0.046875 -0.40625 0.15625 -0.8125q0.109375 -0.390625 0.28125 -0.75q0.171875 -0.359375 0.421875 -0.640625q0.265625 -0.265625 0.609375 -0.421875q0.34375 -0.171875 0.8125 -0.171875q0.46875 0 0.8125 0.15625q0.34375 0.15625 0.609375 0.4375q0.25 0.265625 0.421875 0.640625q0.171875 0.359375 0.28125 0.75q0.109375 0.40625 0.140625 0.8125q0.046875 0.390625 0.0625 0.765625zm9.857666 -4.609375l-1.28125 0l-0.015625 7.0625q-0.015625 0.46875 -0.15625 0.890625q-0.125 0.421875 -0.390625 0.765625q-0.265625 0.328125 -0.65625 0.53125q-0.375 0.1875 -0.890625 0.1875q-0.5 0 -0.890625 -0.1875q-0.390625 -0.203125 -0.65625 -0.53125q-0.265625 -0.34375 -0.40625 -0.765625q-0.140625 -0.421875 -0.140625 -0.890625l-0.03125 -7.0625l-1.25 0l-0.015625 7.0625q0 0.71875 0.25 1.359375q0.25 0.640625 0.703125 1.125q0.4375 0.46875 1.0625 0.75q0.625 0.265625 1.375 0.265625q0.75 0 1.375 -0.265625q0.625 -0.28125 1.0625 -0.765625q0.453125 -0.46875 0.703125 -1.109375q0.265625 -0.640625 0.265625 -1.359375l-0.015625 -7.0625zm9.279541 1.140625l0 -1.140625l-7.71875 0l0 1.140625l3.21875 0l0 9.28125l1.28125 0l0 -9.28125l3.21875 0z" fill-rule="nonzero"/><path fill="#000000" fill-opacity="0.0" d="m158.74907 115.94403l86.39371 0l0 37.165344l-86.39371 0z" fill-rule="evenodd"/><path fill="#000000" d="m187.15244 133.18028l0 1.078125l0.9375 0q0.5 0 0.90625 0.109375q0.40625 0.109375 0.703125 0.34375q0.28125 0.234375 0.4375 0.59375q0.171875 0.359375 0.171875 0.84375q0 0.484375 -0.140625 0.859375q-0.140625 0.359375 -0.390625 0.59375q-0.265625 0.25 -0.625 0.375q-0.359375 0.109375 -0.8125 0.109375q-0.453125 0 -0.828125 -0.125q-0.359375 -0.125 -0.625 -0.375q-0.25 -0.234375 -0.390625 -0.5625q-0.140625 -0.34375 -0.140625 -0.75l-1.328125 0q0 0.6875 0.25 1.234375q0.265625 0.53125 0.71875 0.90625q0.4375 0.359375 1.046875 0.5625q0.609375 0.1875 1.296875 0.1875q0.703125 0 1.296875 -0.203125q0.609375 -0.203125 1.046875 -0.59375q0.453125 -0.390625 0.703125 -0.953125q0.25 -0.5625 0.25 -1.296875q0 -0.359375 -0.09375 -0.71875q-0.078125 -0.375 -0.28125 -0.703125q-0.203125 -0.328125 -0.546875 -0.59375q-0.328125 -0.265625 -0.84375 -0.421875q0.421875 -0.1875 0.71875 -0.453125q0.3125 -0.265625 0.5 -0.578125q0.203125 -0.296875 0.296875 -0.609375q0.09375 -0.328125 0.09375 -0.625q0 -0.734375 -0.234375 -1.28125q-0.234375 -0.546875 -0.640625 -0.921875q-0.421875 -0.375 -1.0 -0.5625q-0.578125 -0.1875 -1.28125 -0.1875q-0.71875 0 -1.3125 0.234375q-0.59375 0.21875 -1.015625 0.609375q-0.421875 0.390625 -0.65625 0.921875q-0.21875 0.515625 -0.21875 1.109375l1.328125 0q0 -0.40625 0.125 -0.734375q0.140625 -0.328125 0.390625 -0.5625q0.25 -0.234375 0.59375 -0.359375q0.34375 -0.125 0.765625 -0.125q0.4375 0 0.78125 0.109375q0.34375 0.109375 0.5625 0.328125q0.234375 0.234375 0.359375 0.578125q0.125 0.34375 0.125 0.8125q0 0.390625 -0.140625 0.71875q-0.125 0.328125 -0.390625 0.5625q-0.265625 0.234375 -0.65625 0.375q-0.375 0.140625 -0.875 0.140625l-0.9375 0zm8.701431 -4.578125l-1.640625 0l0 10.421875l1.28125 0l0 -4.15625l-0.109375 -4.203125l1.765625 5.46875l0.765625 0l1.921875 -5.625l-0.109375 4.359375l0 4.15625l1.296875 0l0 -10.421875l-1.65625 0l-1.828125 5.21875l-1.6875 -5.21875zm13.873306 10.421875l0 -10.421875l-1.25 0l0 4.484375l-4.28125 0l0 -4.484375l-1.234375 0l0 10.421875l1.234375 0l0 -4.8125l4.28125 0l0 4.8125l1.25 0zm3.8420563 -1.078125l4.671875 -5.734375l0 -0.9375l-6.296875 0l0 1.109375l4.5625 0l-4.625 5.671875l0 0.96875l6.625 0l0 -1.078125l-4.9375 0z" fill-rule="nonzero"/><path fill="#000000" fill-opacity="0.0" d="m175.49524 11.397015l86.39371 0l0 37.165356l-86.39371 0z" fill-rule="evenodd"/><path fill="#000000" d="m203.8986 28.633265l0 1.078125l0.9375 0q0.5 0 0.90625 0.109375q0.40625 0.109375 0.703125 0.34375q0.28125 0.234375 0.4375 0.59375q0.171875 0.359375 0.171875 0.84375q0 0.4843731 -0.140625 0.8593731q-0.140625 0.359375 -0.390625 0.59375q-0.265625 0.25 -0.625 0.375q-0.359375 0.109375 -0.8125 0.109375q-0.453125 0 -0.828125 -0.125q-0.359375 -0.125 -0.625 -0.375q-0.25 -0.234375 -0.390625 -0.5625q-0.140625 -0.34375 -0.140625 -0.7499981l-1.328125 0q0 0.6874981 0.25 1.2343731q0.265625 0.53125 0.71875 0.90625q0.4375 0.359375 1.046875 0.5625q0.609375 0.1875 1.296875 0.1875q0.703125 0 1.296875 -0.203125q0.609375 -0.203125 1.046875 -0.59375q0.453125 -0.390625 0.703125 -0.953125q0.25 -0.5625 0.25 -1.2968731q0 -0.359375 -0.09375 -0.71875q-0.078125 -0.375 -0.28125 -0.703125q-0.203125 -0.328125 -0.546875 -0.59375q-0.328125 -0.265625 -0.84375 -0.421875q0.421875 -0.1875 0.71875 -0.453125q0.3125 -0.265625 0.5 -0.578125q0.203125 -0.296875 0.296875 -0.609375q0.09375 -0.328125 0.09375 -0.625q0 -0.734375 -0.234375 -1.28125q-0.234375 -0.546875 -0.640625 -0.921875q-0.421875 -0.375 -1.0 -0.5625q-0.578125 -0.1875 -1.28125 -0.1875q-0.71875 0 -1.3125 0.234375q-0.59375 0.21875 -1.015625 0.609375q-0.421875 0.390625 -0.65625 0.921875q-0.21875 0.515625 -0.21875 1.109375l1.328125 0q0 -0.40625 0.125 -0.734375q0.140625 -0.328125 0.390625 -0.5625q0.25 -0.234375 0.59375 -0.359375q0.34375 -0.125 0.765625 -0.125q0.4375 0 0.78125 0.109375q0.34375 0.109375 0.5625 0.328125q0.234375 0.234375 0.359375 0.578125q0.125 0.34375 0.125 0.8125q0 0.390625 -0.140625 0.71875q-0.125 0.328125 -0.390625 0.5625q-0.265625 0.234375 -0.65625 0.375q-0.375 0.140625 -0.875 0.140625l-0.9375 0zm8.701431 -4.578125l-1.640625 0l0 10.421873l1.28125 0l0 -4.156248l-0.109375 -4.203125l1.765625 5.46875l0.765625 0l1.921875 -5.625l-0.109375 4.359375l0 4.156248l1.296875 0l0 -10.421873l-1.65625 0l-1.828125 5.21875l-1.6875 -5.21875zm13.873306 10.421873l0 -10.421873l-1.25 0l0 4.484375l-4.28125 0l0 -4.484375l-1.234375 0l0 10.421873l1.234375 0l0 -4.812498l4.28125 0l0 4.812498l1.25 0zm3.8420563 -1.078125l4.671875 -5.734373l0 -0.9375l-6.296875 0l0 1.109375l4.5625 0l-4.625 5.671873l0 0.96875l6.625 0l0 -1.078125l-4.9375 0z" fill-rule="nonzero"/><path fill="#000000" fill-opacity="0.0" d="m362.25723 98.45059l86.39371 0l0 37.165344l-86.39371 0z" fill-rule="evenodd"/><path fill="#000000" d="m390.53558 120.35871l-0.140625 0l0 1.171875l0.140625 0q1.28125 0 2.171875 -0.34375q0.90625 -0.359375 1.421875 -0.9375q0.84375 -0.9375 1.09375 -2.15625q0.265625 -1.21875 0.265625 -2.4375l0 -0.46875q0 -0.859375 -0.234375 -1.703125q-0.234375 -0.859375 -0.71875 -1.4375q-0.390625 -0.484375 -0.984375 -0.78125q-0.59375 -0.296875 -1.390625 -0.296875q-0.796875 0 -1.40625 0.296875q-0.609375 0.28125 -1.015625 0.765625q-0.40625 0.5 -0.609375 1.15625q-0.203125 0.65625 -0.203125 1.390625q0 0.625 0.171875 1.25q0.171875 0.625 0.546875 1.109375q0.359375 0.5 0.921875 0.8125q0.5625 0.296875 1.328125 0.296875q0.40625 0 0.734375 -0.078125q0.34375 -0.09375 0.625 -0.234375q0.28125 -0.140625 0.5 -0.328125q0.234375 -0.1875 0.40625 -0.40625l0 0.015625q-0.046875 0.65625 -0.21875 1.28125q-0.171875 0.609375 -0.65625 1.140625q-0.40625 0.4375 -1.078125 0.6875q-0.671875 0.234375 -1.671875 0.234375zm1.578125 -3.40625q-0.484375 0 -0.84375 -0.203125q-0.34375 -0.21875 -0.578125 -0.5625q-0.234375 -0.34375 -0.34375 -0.78125q-0.109375 -0.4375 -0.109375 -0.90625q0 -0.515625 0.125 -0.953125q0.125 -0.453125 0.375 -0.78125q0.25 -0.328125 0.59375 -0.5q0.359375 -0.1875 0.828125 -0.1875q0.40625 0 0.765625 0.203125q0.375 0.1875 0.640625 0.5625q0.28125 0.375 0.4375 0.921875q0.171875 0.546875 0.171875 1.234375l0 0.4375q-0.125 0.328125 -0.34375 0.609375q-0.203125 0.28125 -0.46875 0.46875q-0.28125 0.21875 -0.59375 0.328125q-0.3125 0.109375 -0.65625 0.109375zm7.2483215 -5.84375l-1.640625 0l0 10.421875l1.28125 0l0 -4.15625l-0.109375 -4.203125l1.765625 5.46875l0.765625 0l1.921875 -5.625l-0.109375 4.359375l0 4.15625l1.296875 0l0 -10.421875l-1.65625 0l-1.828125 5.21875l-1.6875 -5.21875zm13.873291 10.421875l0 -10.421875l-1.25 0l0 4.484375l-4.28125 0l0 -4.484375l-1.234375 0l0 10.421875l1.234375 0l0 -4.8125l4.28125 0l0 4.8125l1.25 0zm3.8420715 -1.078125l4.671875 -5.734375l0 -0.9375l-6.296875 0l0 1.109375l4.5625 0l-4.625 5.671875l0 0.96875l6.625 0l0 -1.078125l-4.9375 0z" fill-rule="nonzero"/><path fill="#000000" fill-opacity="0.0" d="m236.21654 152.46457l77.00786 0l0 37.16536l-77.00786 0z" fill-rule="evenodd"/><path fill="#000000" d="m264.2152 171.3727l2.0625 0q0.703125 -0.015625 1.328125 -0.21875q0.625 -0.203125 1.09375 -0.609375q0.46875 -0.390625 0.734375 -0.96875q0.28125 -0.578125 0.28125 -1.328125q0 -0.75 -0.28125 -1.328125q-0.265625 -0.578125 -0.734375 -0.96875q-0.46875 -0.390625 -1.09375 -0.59375q-0.625 -0.21875 -1.328125 -0.234375l-3.390625 0l0 10.421875l1.328125 0l0 -4.171875zm0 -1.09375l0 -4.0625l2.0625 0q0.453125 0 0.84375 0.15625q0.390625 0.140625 0.671875 0.390625q0.28125 0.265625 0.4375 0.65625q0.171875 0.375 0.171875 0.84375q0 0.46875 -0.171875 0.84375q-0.15625 0.375 -0.4375 0.625q-0.296875 0.265625 -0.6875 0.40625q-0.375 0.125 -0.828125 0.140625l-2.0625 0zm8.842041 4.140625l0 -9.296875l-1.3125 0l0 10.421875l6.421875 0l0 -1.125l-5.109375 0zm8.795197 0l0 -9.296875l-1.3125 0l0 10.421875l6.421875 0l0 -1.125l-5.109375 0z" fill-rule="nonzero"/></g></svg>